<svg width="24" height="24" xmlns="http://www.w3.org/2000/svg">
	<path fill-rule="evenodd" clip-rule="evenodd" d="M6.5 8C6.22386 8 6 7.77614 6 7.5V7.5C6 7.22386 6.22386 7 6.5 7H17.5C17.7761 7 18 7.22386 18 7.5V7.5C18 7.77614 17.7761 8 17.5 8H6.5ZM18 10.5C18 10.7761 17.7761 11 17.5 11H6.5C6.22386 11 6 10.7761 6 10.5V10.5C6 10.2239 6.22386 10 6.5 10H17.5C17.7761 10 18 10.2239 18 10.5V10.5ZM6 13.5C6 13.7761 6.22386 14 6.5 14H17.5C17.7761 14 18 13.7761 18 13.5V13.5C18 13.2239 17.7761 13 17.5 13H6.5C6.22386 13 6 13.2239 6 13.5V13.5ZM14 16.5C14 16.7761 13.7761 17 13.5 17H6.5C6.22386 17 6 16.7761 6 16.5V16.5C6 16.2239 6.22386 16 6.5 16H13.5C13.7761 16 14 16.2239 14 16.5V16.5Z"/>
</svg>
