<svg width="24" height="24" viewBox="0 0 24 24"  xmlns="http://www.w3.org/2000/svg">
<path fill-rule="evenodd" clip-rule="evenodd" d="M12 24C18.6274 24 24 18.6274 24 12C24 5.37258 18.6274 0 12 0C5.37258 0 0 5.37258 0 12C0 18.6274 5.37258 24 12 24Z" fill="none"/>
<path fill-rule="evenodd" clip-rule="evenodd" d="M19 7C19 6.44772 18.5523 6 18 6H6C5.44772 6 5 6.44771 5 7V17C5 17.5523 5.44772 18 6 18L11 18V20C11 20.412 11.4704 20.6472 11.8 20.4L15 18H18C18.5523 18 19 17.5523 19 17L19 7ZM8 10C8 10.5523 8.44772 11 9 11H15C15.5523 11 16 10.5523 16 10C16 9.44772 15.5523 9 15 9H9C8.44772 9 8 9.44772 8 10ZM9 15C8.44772 15 8 14.5523 8 14C8 13.4477 8.44772 13 9 13H15C15.5523 13 16 13.4477 16 14C16 14.5523 15.5523 15 15 15H9Z" />
</svg>
