<svg width="24" height="24" xmlns="http://www.w3.org/2000/svg">
<path d="M3.39203 10.0214C3.90555 9.50973 4.56514 9.16992 5.27989 9.04882C5.99464 8.92771 6.72935 9.03128 7.38277 9.34525L14.1644 2.56365L15.8216 4.22093L14.993 5.04958L16.6503 6.70686L14.993 8.36414L13.3357 6.70686L9.04005 11.0025C9.35401 11.6559 9.45758 12.3907 9.33648 13.1054C9.21538 13.8202 8.87556 14.4797 8.36388 14.9933C7.70457 15.6526 6.81036 16.023 5.87795 16.023C4.94555 16.023 4.05134 15.6526 3.39203 14.9933C2.73272 14.334 2.36233 13.4397 2.36233 12.5073C2.36233 11.5749 2.73272 10.6807 3.39203 10.0214ZM6.7066 13.336C7.16318 12.8794 7.16318 12.1353 6.70659 11.6787C6.25001 11.2221 5.50589 11.2221 5.04931 11.6787C4.59273 12.1353 4.59273 12.8794 5.04931 13.336C5.50589 13.7926 6.25001 13.7926 6.7066 13.336Z" fill="evenodd"/>
<path d="M12.5071 7.5355L14.1644 9.19278L12.5071 10.8501L10.8498 9.19278L12.5071 7.5355Z" fill="evenodd"/>
</svg>
