<svg width="24" height="24" viewBox="0 0 24 24"  xmlns="http://www.w3.org/2000/svg">
<path d="M6.42438 12.8893C6.92518 12.3903 7.56844 12.0589 8.26549 11.9408C8.49245 11.9024 8.72148 11.8871 8.94916 11.8947C9.798 11.9227 10.7183 11.828 11.3188 11.2274L16.1218 6.42437C16.5682 5.97805 17.2918 5.97805 17.7381 6.42437C18.1844 6.87068 18.1844 7.5943 17.7381 8.04061L12.935 12.8436C12.3345 13.4442 12.2397 14.3644 12.2678 15.2133C12.2753 15.441 12.2601 15.67 12.2216 15.897C12.1035 16.594 11.7721 17.2373 11.2731 17.7381C10.6301 18.3811 9.75806 18.7423 8.84874 18.7423C7.93943 18.7423 7.06736 18.3811 6.42438 17.7381C5.7814 17.0951 5.42017 16.223 5.42017 15.3137C5.42017 14.4044 5.7814 13.5323 6.42438 12.8893ZM9.65687 16.1218C10.1021 15.6766 10.1021 14.9509 9.65687 14.5056C9.21159 14.0603 8.4859 14.0603 8.04062 14.5056C7.59535 14.9509 7.59535 15.6766 8.04062 16.1218C8.4859 16.5671 9.21159 16.5671 9.65687 16.1218Z" />
<path d="M12.8894 9.65685C13.3357 9.21054 14.0593 9.21054 14.5056 9.65685L16.1218 11.2731C16.5682 11.7194 16.5682 12.443 16.1218 12.8893C15.6755 13.3357 14.9519 13.3357 14.5056 12.8893L12.8894 11.2731C12.443 10.8268 12.443 10.1032 12.8894 9.65685Z" />
<path d="M15.3573 7.18887C15.8036 6.74256 16.5273 6.74256 16.9736 7.18887L18.5898 8.80512C19.0361 9.25143 19.0361 9.97505 18.5898 10.4214C18.1435 10.8677 17.4199 10.8677 16.9736 10.4214L15.3573 8.80512C14.911 8.3588 14.911 7.63519 15.3573 7.18887Z" />
</svg>
