<svg width="16" height="11" xmlns="http://www.w3.org/2000/svg">
	<path d="M4.85645 10.192C3.72579 10.192 2.84045 9.81334 2.20045 9.056C1.57112 8.29867 1.25645 7.23734 1.25645 5.872C1.25645 4.50667 1.57112 3.44534 2.20045 2.688C2.84045 1.93067 3.72579 1.552 4.85645 1.552C5.98712 1.552 6.86712 1.93067 7.49646 2.688C8.13646 3.44534 8.45646 4.50667 8.45646 5.872C8.45646 7.23734 8.13646 8.29867 7.49646 9.056C6.86712 9.81334 5.98712 10.192 4.85645 10.192ZM4.85645 9.392C5.66712 9.392 6.30712 9.136 6.77645 8.624C7.24579 8.112 7.48045 7.36534 7.48045 6.384V5.36C7.48045 4.37867 7.24579 3.632 6.77645 3.12C6.30712 2.608 5.66712 2.352 4.85645 2.352C4.04579 2.352 3.40579 2.608 2.93645 3.12C2.46712 3.632 2.23245 4.37867 2.23245 5.36V6.384C2.23245 7.36534 2.46712 8.112 2.93645 8.624C3.40579 9.136 4.04579 9.392 4.85645 9.392Z"/>
	<path d="M11.2502 10.192C10.1195 10.192 9.2342 9.81334 8.5942 9.056C7.96487 8.29867 7.6502 7.23734 7.6502 5.872C7.6502 4.50667 7.96487 3.44534 8.5942 2.688C9.2342 1.93067 10.1195 1.552 11.2502 1.552C12.3809 1.552 13.2609 1.93067 13.8902 2.688C14.5302 3.44534 14.8502 4.50667 14.8502 5.872C14.8502 7.23734 14.5302 8.29867 13.8902 9.056C13.2609 9.81334 12.3809 10.192 11.2502 10.192ZM11.2502 9.392C12.0609 9.392 12.7009 9.136 13.1702 8.624C13.6395 8.112 13.8742 7.36534 13.8742 6.384V5.36C13.8742 4.37867 13.6395 3.632 13.1702 3.12C12.7009 2.608 12.0609 2.352 11.2502 2.352C10.4395 2.352 9.79954 2.608 9.3302 3.12C8.86087 3.632 8.6262 4.37867 8.6262 5.36V6.384C8.6262 7.36534 8.86087 8.112 9.3302 8.624C9.79954 9.136 10.4395 9.392 11.2502 9.392Z"/>
</svg>
