<svg width="24" height="24" xmlns="http://www.w3.org/2000/svg">
	<path fill-rule="evenodd" clip-rule="evenodd" d="M9.697 17.8077C9.4421 17.7015 9.32156 17.4088 9.42777 17.1538L14.0432 6.07693C14.1494 5.82203 14.4421 5.70149 14.697 5.8077C14.9519 5.9139 15.0724 6.20664 14.9662 6.46154L10.3508 17.5385C10.2446 17.7934 9.9519 17.9139 9.697 17.8077ZM16.1746 15.8796C15.9649 15.6999 15.9407 15.3843 16.1204 15.1746L18.8415 12L16.1204 8.8254C15.9407 8.61573 15.9649 8.30008 16.1746 8.12037C16.3843 7.94066 16.6999 7.96494 16.8796 8.17461L19.8796 11.6746C20.0401 11.8619 20.0401 12.1382 19.8796 12.3254L16.8796 15.8254C16.6999 16.0351 16.3843 16.0593 16.1746 15.8796ZM7.87963 8.8254C8.05934 8.61573 8.03506 8.30008 7.8254 8.12037C7.61573 7.94066 7.30008 7.96494 7.12037 8.17461L4.12037 11.6746C3.95988 11.8619 3.95988 12.1382 4.12037 12.3254L7.12037 15.8254C7.30008 16.0351 7.61573 16.0593 7.8254 15.8796C8.03506 15.6999 8.05934 15.3843 7.87963 15.1746L5.15854 12L7.87963 8.8254Z"/>
</svg>
