<svg width="24" height="24" xmlns="http://www.w3.org/2000/svg">
	<path fill-rule="evenodd" clip-rule="evenodd" d="M18.3446 10.3945C18.751 10.8093 19 11.3746 19 12C19 12.5472 18.8094 13.0484 18.4894 13.4431C18.4437 13.4995 18.3954 13.5537 18.3446 13.6055L18.3282 13.6223L18.3114 13.6387C17.8966 14.0452 17.3313 14.2941 16.7059 14.2941C16.6838 14.2941 16.6618 14.2938 16.6398 14.2932C16.5221 14.2899 16.4067 14.2777 16.2941 14.2574C16.1286 14.2275 15.9693 14.1798 15.8182 14.1164C15.7862 14.1029 15.7545 14.0887 15.7232 14.0739C15.5702 14.0012 15.4264 13.912 15.2941 13.8085V14.9771C15.722 15.1804 16.2007 15.2941 16.7059 15.2941C17.6032 15.2941 18.417 14.9353 19.0113 14.353L19.0588 14.3529V14.3054C19.6412 13.7111 20 12.8973 20 12C20 11.1167 19.6523 10.3144 19.086 9.72261C19.077 9.71322 19.0679 9.70388 19.0588 9.6946V9.64706L19.0113 9.64707C18.751 9.39199 18.4485 9.17977 18.1154 9.02181C18.0438 6.58279 16.2851 4.56723 13.9661 4.10145C13.6348 4.03491 13.2921 4 12.9412 4C10.5705 4 8.57123 5.59387 7.95818 7.76959C7.8941 7.76635 7.82959 7.76471 7.76471 7.76471C5.68552 7.76471 4 9.45022 4 11.5294C4 13.6086 5.68552 15.2941 7.76471 15.2941C7.82073 15.2941 7.87649 15.2929 7.93198 15.2905C8.19805 15.2788 8.45695 15.2396 8.70588 15.1755V14.1301C8.45421 14.2211 8.18548 14.2766 7.90548 14.2906C7.8589 14.2929 7.81197 14.2941 7.76471 14.2941C7.74505 14.2941 7.72544 14.2939 7.70588 14.2935C6.20614 14.2622 5 13.0367 5 11.5294C5 10.0025 6.2378 8.76471 7.76471 8.76471C7.81272 8.76471 7.86037 8.76592 7.90762 8.76831L8.70435 8.80865L8.9207 8.0408C9.41535 6.28529 11.0295 5 12.9412 5C15.2059 5 17.0498 6.80283 17.1158 9.05114L17.1338 9.66312L17.687 9.9254C17.9186 10.0352 18.1295 10.1831 18.3114 10.3613L18.3281 10.3777L18.3446 10.3945ZM11.5 20.185L9.62093 17.9927C9.44122 17.7831 9.46494 17.4667 9.6746 17.287C9.88427 17.1073 10.1999 17.1316 10.3796 17.3413L11.5 18.6484L11.5 11C11.5 10.7239 11.7239 10.5 12 10.5C12.2761 10.5 12.5 10.7239 12.5 11L12.5 18.6484L13.6198 17.3419V17.3419C13.7995 17.1323 14.1157 17.1073 14.3254 17.287C14.5351 17.4667 14.5593 17.7824 14.3796 17.9921M14.3796 17.9921L12.3796 20.3254C12.2846 20.4362 12.146 20.5 12 20.5C11.854 20.5 11.7154 20.4362 11.6204 20.3254L11.5 20.185"/>
</svg>
