<svg width="24" height="24" xmlns="http://www.w3.org/2000/svg">
	<path d="M7.85274 13.8426L7.35517 17.6708L11.0608 16.2358L9.5 15L7.85274 13.8426Z"/>
	<path fill-rule="evenodd" clip-rule="evenodd" d="M17.2946 7.9008C17.4728 8.4624 17.4263 9.09187 16.9924 9.6334L11.3668 16.6535L6.75086 18.441L7.37497 13.6392L13.0906 6.50671C13.5246 5.96521 14.1288 5.78273 14.7158 5.83426C15.285 5.88423 15.8441 6.15032 16.2922 6.50937C16.7402 6.86842 17.1218 7.35617 17.2946 7.9008ZM13.8709 7.13205C14.0623 6.89324 14.3173 6.80313 14.6283 6.83043C14.9571 6.85929 15.3346 7.02345 15.6669 7.28973C15.9991 7.55601 16.2416 7.88866 16.3414 8.20321C16.4358 8.50078 16.4034 8.76923 16.212 9.00806L10.9815 15.5353L9.79916 14.5991L8.57596 13.7397L13.8709 7.13205V7.13205ZM8.24198 14.7272L9.20084 15.4009L10.0651 16.0852L7.95948 16.9006L8.24198 14.7272Z"/>
</svg>
