<svg width="24" height="24" xmlns="http://www.w3.org/2000/svg">
	<path fill-rule="evenodd" clip-rule="evenodd" d="M5 6.5C5 5.67157 5.67157 5 6.5 5H9C9.27614 5 9.5 5.22386 9.5 5.5C9.5 5.77614 9.27614 6 9 6H6.5C6.22386 6 6 6.22386 6 6.5V8.75C6 9.02614 5.77614 9.25 5.5 9.25C5.22386 9.25 5 9.02614 5 8.75V6.5ZM14.5 5.5C14.5 5.22386 14.7239 5 15 5H17.5C18.3284 5 19 5.67157 19 6.5V8.75C19 9.02614 18.7761 9.25 18.5 9.25C18.2239 9.25 18 9.02614 18 8.75V6.5C18 6.22386 17.7761 6 17.5 6H15C14.7239 6 14.5 5.77614 14.5 5.5ZM8.5 8C8.77614 8 9 8.22386 9 8.5V15.5C9 15.7761 8.77614 16 8.5 16C8.22386 16 8 15.7761 8 15.5V8.5C8 8.22386 8.22386 8 8.5 8ZM10.5 8C10.7761 8 11 8.22386 11 8.5V15.5C11 15.7761 10.7761 16 10.5 16C10.2239 16 10 15.7761 10 15.5V8.5C10 8.22386 10.2239 8 10.5 8ZM12 9C12 8.44772 12.4477 8 13 8C13.5523 8 14 8.44772 14 9V15C14 15.5523 13.5523 16 13 16C12.4477 16 12 15.5523 12 15V9ZM15.5 8C15.7761 8 16 8.22386 16 8.5V15.5C16 15.7761 15.7761 16 15.5 16C15.2239 16 15 15.7761 15 15.5V8.5C15 8.22386 15.2239 8 15.5 8ZM5.5 14.75C5.77614 14.75 6 14.9739 6 15.25V17.5C6 17.7761 6.22386 18 6.5 18H9C9.27614 18 9.5 18.2239 9.5 18.5C9.5 18.7761 9.27614 19 9 19H6.5C5.67157 19 5 18.3284 5 17.5V15.25C5 14.9739 5.22386 14.75 5.5 14.75ZM18.5 14.75C18.7761 14.75 19 14.9739 19 15.25V17.5C19 18.3284 18.3284 19 17.5 19H15C14.7239 19 14.5 18.7761 14.5 18.5C14.5 18.2239 14.7239 18 15 18H17.5C17.7761 18 18 17.7761 18 17.5V15.25C18 14.9739 18.2239 14.75 18.5 14.75Z"/>
</svg>
