<svg width="24" height="24" xmlns="http://www.w3.org/2000/svg">
<path fill-rule="evenodd" clip-rule="evenodd" d="M5.5 6C5.5 5.72386 5.72386 5.5 6 5.5H9.5C9.77614 5.5 10 5.72386 10 6C10 6.27614 9.77614 6.5 9.5 6.5H6.5V9.25C6.5 9.52614 6.27614 9.75 6 9.75C5.72386 9.75 5.5 9.52614 5.5 9.25V6ZM14 6C14 5.72386 14.2239 5.5 14.5 5.5H18C18.2761 5.5 18.5 5.72386 18.5 6V9.25C18.5 9.52614 18.2761 9.75 18 9.75C17.7239 9.75 17.5 9.52614 17.5 9.25V6.5H14.5C14.2239 6.5 14 6.27614 14 6ZM8.5 8C8.77614 8 9 8.22386 9 8.5V15.5C9 15.7761 8.77614 16 8.5 16C8.22386 16 8 15.7761 8 15.5V8.5C8 8.22386 8.22386 8 8.5 8ZM10.5 8C10.7761 8 11 8.22386 11 8.5V15.5C11 15.7761 10.7761 16 10.5 16C10.2239 16 10 15.7761 10 15.5V8.5C10 8.22386 10.2239 8 10.5 8ZM12 8.5C12 8.22386 12.2239 8 12.5 8H13.5C13.7761 8 14 8.22386 14 8.5V15.5C14 15.7761 13.7761 16 13.5 16H12.5C12.2239 16 12 15.7761 12 15.5V8.5ZM15.5 8C15.7761 8 16 8.22386 16 8.5V15.5C16 15.7761 15.7761 16 15.5 16C15.2239 16 15 15.7761 15 15.5V8.5C15 8.22386 15.2239 8 15.5 8ZM6 14.25C6.27614 14.25 6.5 14.4739 6.5 14.75V17.5H9.5C9.77614 17.5 10 17.7239 10 18C10 18.2761 9.77614 18.5 9.5 18.5H6C5.72386 18.5 5.5 18.2761 5.5 18V14.75C5.5 14.4739 5.72386 14.25 6 14.25ZM18 14.25C18.2761 14.25 18.5 14.4739 18.5 14.75V18C18.5 18.2761 18.2761 18.5 18 18.5H14.5C14.2239 18.5 14 18.2761 14 18C14 17.7239 14.2239 17.5 14.5 17.5H17.5V14.75C17.5 14.4739 17.7239 14.25 18 14.25Z"/>
</svg>
