<svg width="24" height="24" xmlns="http://www.w3.org/2000/svg">
	<path fill-rule="evenodd" clip-rule="evenodd" d="M11.6204 13.8254C11.7154 13.9362 11.854 14 12 14C12.146 14 12.2846 13.9362 12.3796 13.8254L14.3796 11.4921C14.5593 11.2824 14.5351 10.9667 14.3254 10.787C14.1157 10.6073 13.8001 10.6316 13.6204 10.8413L12.5 12.1484L12.5 4.5C12.5 4.22386 12.2761 4 12 4C11.7239 4 11.5 4.22386 11.5 4.5L11.5 12.1484L10.3796 10.8413C10.1999 10.6316 9.88427 10.6073 9.6746 10.787C9.46494 10.9667 9.44066 11.2824 9.62037 11.4921L11.6204 13.8254ZM7 14C7 13.7239 6.77614 13.5 6.5 13.5C6.22386 13.5 6 13.7239 6 14V18.5C6 18.7761 6.22386 19 6.5 19H17.5C17.7761 19 18 18.7761 18 18.5V14C18 13.7239 17.7761 13.5 17.5 13.5C17.2239 13.5 17 13.7239 17 14V18H7V14Z"/>
</svg>
