<svg width="24" height="24" xmlns="http://www.w3.org/2000/svg">
	<path d="M9.02143 21.8289C9.02761 22.8941 9.03844 24 9.03844 24H15.174C15.174 23.5811 15.1895 22.2047 15.1895 20.4979C15.1895 19.3067 14.7934 18.5279 14.3494 18.1337C17.1063 17.8177 20 16.7382 20 11.8342C20 10.4402 19.5212 9.3008 18.7276 8.40793C18.8552 8.08478 19.2799 6.78737 18.6046 5.02956C18.6046 5.02956 17.5673 4.68646 15.2049 6.33814C14.2164 6.05488 13.1574 5.91365 12.1062 5.90806C11.0535 5.91365 9.99529 6.05488 9.0075 6.33814C6.64362 4.68646 5.60401 5.02956 5.60401 5.02956C4.93105 6.78737 5.35571 8.08478 5.48334 8.40793C4.69126 9.3008 4.20935 10.4402 4.20935 11.8342C4.20935 16.7262 7.09845 17.8209 9.84677 18.1433C9.49327 18.4625 9.17304 19.025 9.06088 19.85C8.35542 20.1772 6.56318 20.7405 5.45859 18.7896C5.45859 18.7896 4.80497 17.564 3.56347 17.4738C3.56347 17.4738 2.35445 17.4579 3.47838 18.2502C3.47838 18.2502 4.2898 18.6428 4.85215 20.1173C4.85215 20.1173 5.57849 22.6005 9.02143 21.8289Z"/>
</svg>
