<svg width="14" height="13" viewBox="0 0 14 13" fill="none" xmlns="http://www.w3.org/2000/svg">
<path d="M7.5 0.500007C7.30527 0.307777 6.69473 0.307778 6.5 0.500009L0.14875 7.06726C0.00441374 7.20975 -0.0395496 7.42531 0.0374608 7.61294C0.114471 7.80057 0.297197 7.92309 0.500015 7.92309H1.7143V12.5C1.7143 12.7762 1.93816 13 2.2143 13H4.78573C5.06187 13 5.28573 12.7762 5.28573 12.5V9.61539H8.7143V12.5C8.7143 12.7762 8.93816 13 9.2143 13H11.7857C12.0619 13 12.2857 12.7762 12.2857 12.5V7.92309H13.5C13.7028 7.92309 13.8856 7.80057 13.9626 7.61294C14.0396 7.42531 13.9956 7.20975 13.8513 7.06726L7.5 0.500007Z"/>
</svg>
