<svg width="64" height="64" viewBox="0 0 64 64" xmlns="http://www.w3.org/2000/svg">
<mask id="path-1-inside-1" fill="white">
<path fill-rule="evenodd" clip-rule="evenodd" d="M10.8462 7.38452C10.2939 7.38452 9.84619 7.83224 9.84619 8.38452V25.8717C9.84619 26.424 10.2939 26.8717 10.8462 26.8717H28.3334C28.8857 26.8717 29.3334 26.424 29.3334 25.8717V8.38452C29.3334 7.83224 28.8857 7.38452 28.3334 7.38452H10.8462ZM10.8462 34.6666C10.2939 34.6666 9.84619 35.1143 9.84619 35.6666V53.1538C9.84619 53.706 10.2939 54.1538 10.8462 54.1538H28.3334C28.8857 54.1538 29.3334 53.706 29.3334 53.1538V35.6666C29.3334 35.1143 28.8857 34.6666 28.3334 34.6666H10.8462ZM37.1282 8.38452C37.1282 7.83224 37.576 7.38452 38.1282 7.38452H55.6154C56.1677 7.38452 56.6154 7.83224 56.6154 8.38452V25.8717C56.6154 26.424 56.1677 26.8717 55.6154 26.8717H38.1282C37.576 26.8717 37.1282 26.424 37.1282 25.8717V8.38452ZM38.1282 34.6666C37.576 34.6666 37.1282 35.1143 37.1282 35.6666V53.1538C37.1282 53.706 37.576 54.1538 38.1282 54.1538H55.6154C56.1677 54.1538 56.6154 53.706 56.6154 53.1538V35.6666C56.6154 35.1143 56.1677 34.6666 55.6154 34.6666H38.1282Z"/>
</mask>
<path d="M11.8462 8.38452C11.8462 8.93681 11.3985 9.38452 10.8462 9.38452V5.38452C9.18934 5.38452 7.84619 6.72767 7.84619 8.38452H11.8462ZM11.8462 25.8717V8.38452H7.84619V25.8717H11.8462ZM10.8462 24.8717C11.3985 24.8717 11.8462 25.3194 11.8462 25.8717H7.84619C7.84619 27.5286 9.18934 28.8717 10.8462 28.8717V24.8717ZM28.3334 24.8717H10.8462V28.8717H28.3334V24.8717ZM27.3334 25.8717C27.3334 25.3194 27.7811 24.8717 28.3334 24.8717V28.8717C29.9902 28.8717 31.3334 27.5286 31.3334 25.8717H27.3334ZM27.3334 8.38452V25.8717H31.3334V8.38452H27.3334ZM28.3334 9.38452C27.7811 9.38452 27.3334 8.9368 27.3334 8.38452H31.3334C31.3334 6.72767 29.9902 5.38452 28.3334 5.38452V9.38452ZM10.8462 9.38452H28.3334V5.38452H10.8462V9.38452ZM11.8462 35.6666C11.8462 36.2189 11.3985 36.6666 10.8462 36.6666V32.6666C9.18934 32.6666 7.84619 34.0097 7.84619 35.6666H11.8462ZM11.8462 53.1538V35.6666H7.84619V53.1538H11.8462ZM10.8462 52.1538C11.3985 52.1538 11.8462 52.6015 11.8462 53.1538H7.84619C7.84619 54.8106 9.18934 56.1538 10.8462 56.1538V52.1538ZM28.3334 52.1538H10.8462V56.1538H28.3334V52.1538ZM27.3334 53.1538C27.3334 52.6015 27.7811 52.1538 28.3334 52.1538V56.1538C29.9902 56.1538 31.3334 54.8106 31.3334 53.1538H27.3334ZM27.3334 35.6666V53.1538H31.3334V35.6666H27.3334ZM28.3334 36.6666C27.7811 36.6666 27.3334 36.2189 27.3334 35.6666H31.3334C31.3334 34.0097 29.9902 32.6666 28.3334 32.6666V36.6666ZM10.8462 36.6666H28.3334V32.6666H10.8462V36.6666ZM38.1282 5.38452C36.4714 5.38452 35.1282 6.72767 35.1282 8.38452H39.1282C39.1282 8.93681 38.6805 9.38452 38.1282 9.38452V5.38452ZM55.6154 5.38452H38.1282V9.38452H55.6154V5.38452ZM58.6154 8.38452C58.6154 6.72767 57.2723 5.38452 55.6154 5.38452V9.38452C55.0631 9.38452 54.6154 8.93681 54.6154 8.38452H58.6154ZM58.6154 25.8717V8.38452H54.6154V25.8717H58.6154ZM55.6154 28.8717C57.2723 28.8717 58.6154 27.5286 58.6154 25.8717H54.6154C54.6154 25.3194 55.0631 24.8717 55.6154 24.8717V28.8717ZM38.1282 28.8717H55.6154V24.8717H38.1282V28.8717ZM35.1282 25.8717C35.1282 27.5286 36.4714 28.8717 38.1282 28.8717V24.8717C38.6805 24.8717 39.1282 25.3194 39.1282 25.8717H35.1282ZM35.1282 8.38452V25.8717H39.1282V8.38452H35.1282ZM39.1282 35.6666C39.1282 36.2189 38.6805 36.6666 38.1282 36.6666V32.6666C36.4714 32.6666 35.1282 34.0097 35.1282 35.6666H39.1282ZM39.1282 53.1538V35.6666H35.1282V53.1538H39.1282ZM38.1282 52.1538C38.6805 52.1538 39.1282 52.6015 39.1282 53.1538H35.1282C35.1282 54.8106 36.4714 56.1538 38.1282 56.1538V52.1538ZM55.6154 52.1538H38.1282V56.1538H55.6154V52.1538ZM54.6154 53.1538C54.6154 52.6015 55.0631 52.1538 55.6154 52.1538V56.1538C57.2723 56.1538 58.6154 54.8106 58.6154 53.1538H54.6154ZM54.6154 35.6666V53.1538H58.6154V35.6666H54.6154ZM55.6154 36.6666C55.0631 36.6666 54.6154 36.2189 54.6154 35.6666H58.6154C58.6154 34.0097 57.2723 32.6666 55.6154 32.6666V36.6666ZM38.1282 36.6666H55.6154V32.6666H38.1282V36.6666Z" mask="url(#path-1-inside-1)"/>
<path d="M30.618 34.2813L38.1321 34.2721C39.4877 34.2705 40.1459 32.6143 39.1613 31.6826L18.7617 12.3796C17.8054 11.4747 16.2307 12.1526 16.2307 13.4691V41.024C16.2307 42.3453 17.8154 43.0212 18.769 42.1066L24.2674 36.8329L28.6092 46.729C28.9338 47.4687 29.7857 47.8186 30.5364 47.5205L34.0901 46.1096C34.8785 45.7966 35.2507 44.8927 34.9113 44.1153L30.618 34.2813Z" stroke="white" stroke-width="2"/>
</svg>
