<svg width="24" height="24" xmlns="http://www.w3.org/2000/svg">
	<path d="M13.9091 12C13.9091 13.0355 13.0544 13.875 12 13.875C10.9456 13.875 10.0909 13.0355 10.0909 12C10.0909 10.9645 10.9456 10.125 12 10.125C13.0544 10.125 13.9091 10.9645 13.9091 12Z"/>
	<path fill-rule="evenodd" clip-rule="evenodd" d="M19.4454 11.7728C19.4454 11.7728 19.4456 11.7732 19 12C19.4456 12.2268 19.4454 12.2272 19.4454 12.2272L19.4445 12.229L19.4424 12.233L19.4355 12.2462C19.4297 12.2574 19.4213 12.2732 19.4105 12.2933C19.3888 12.3335 19.3572 12.391 19.3158 12.4633C19.233 12.6079 19.1108 12.812 18.9504 13.056C18.6303 13.5429 18.1546 14.1931 17.5321 14.8452C16.2957 16.1405 14.4235 17.5 12 17.5C9.57649 17.5 7.70429 16.1405 6.46787 14.8452C5.84542 14.1931 5.36973 13.5429 5.04956 13.056C4.88917 12.812 4.76699 12.6079 4.6842 12.4633C4.64278 12.391 4.61117 12.3335 4.5895 12.2933C4.57866 12.2732 4.57031 12.2574 4.56446 12.2462L4.55756 12.233L4.55552 12.229L4.55485 12.2277C4.55485 12.2277 4.55442 12.2268 5 12C4.55442 11.7732 4.5546 11.7728 4.5546 11.7728L4.55552 11.771L4.55756 11.767L4.56446 11.7538C4.57031 11.7426 4.57866 11.7268 4.5895 11.7067C4.61117 11.6665 4.64278 11.609 4.6842 11.5367C4.76699 11.3921 4.88917 11.188 5.04956 10.944C5.36973 10.4571 5.84542 9.80685 6.46787 9.15476C7.70429 7.85946 9.57649 6.5 12 6.5C14.4235 6.5 16.2957 7.85946 17.5321 9.15476C18.1546 9.80685 18.6303 10.4571 18.9504 10.944C19.1108 11.188 19.233 11.3921 19.3158 11.5367C19.3572 11.609 19.3888 11.6665 19.4105 11.7067C19.4213 11.7268 19.4297 11.7426 19.4355 11.7538L19.4424 11.767L19.4445 11.771L19.4454 11.7728ZM5.8851 12.5065C5.74966 12.3006 5.64473 12.1268 5.57133 12C5.64473 11.8732 5.74966 11.6994 5.8851 11.4935C6.1814 11.0429 6.62049 10.4431 7.19122 9.84524C8.34116 8.64054 9.96897 7.5 12 7.5C14.031 7.5 15.6588 8.64054 16.8088 9.84524C17.3795 10.4431 17.8186 11.0429 18.1149 11.4935C18.2503 11.6994 18.3553 11.8732 18.4287 12C18.3553 12.1268 18.2503 12.3006 18.1149 12.5065C17.8186 12.9571 17.3795 13.5569 16.8088 14.1548C15.6588 15.3595 14.031 16.5 12 16.5C9.96897 16.5 8.34116 15.3595 7.19122 14.1548C6.62049 13.5569 6.1814 12.9571 5.8851 12.5065Z"/>
	<path d="M19 12L19.4454 11.7728C19.518 11.9153 19.518 12.0847 19.4454 12.2272L19 12Z"/>
	<path d="M4.5546 11.7728L5 12L4.55485 12.2277C4.48229 12.0852 4.48205 11.9153 4.5546 11.7728Z"/>
</svg>
