<svg width="24" height="24" xmlns="http://www.w3.org/2000/svg">
<path fill-rule="evenodd" clip-rule="evenodd" d="M19 8.42058C18.4856 8.66154 17.9317 8.82449 17.3508 8.89729C17.9441 8.52286 18.3993 7.92914 18.6138 7.22189C18.0583 7.56858 17.4444 7.8208 16.7887 7.95601C16.2661 7.3675 15.5191 7 14.6924 7C13.1073 7 11.8213 8.35645 11.8213 10.0293C11.8213 10.2667 11.8459 10.4973 11.8952 10.7192C9.50807 10.5926 7.39209 9.38787 5.97458 7.55298C5.72724 8.00195 5.5859 8.52286 5.5859 9.07757C5.5859 10.1281 6.09292 11.0555 6.86371 11.5989C6.39367 11.5842 5.94993 11.4464 5.56207 11.221V11.2583C5.56207 12.7265 6.55227 13.9512 7.86705 14.2286C7.62628 14.2997 7.37237 14.3352 7.11023 14.3352C6.92534 14.3352 6.74456 14.317 6.56953 14.2815C6.9352 15.4845 7.99525 16.3608 9.25251 16.3842C8.26971 17.1972 7.03052 17.6817 5.68533 17.6817C5.4536 17.6817 5.22434 17.6678 5 17.6401C6.27123 18.4982 7.78159 19 9.40289 19C14.6867 19 17.5751 14.3846 17.5751 10.3811C17.5751 10.2494 17.5726 10.1177 17.5677 9.98852C18.129 9.56121 18.6162 9.02817 19 8.42058"/>
</svg>
