<svg width="24" height="24" xmlns="http://www.w3.org/2000/svg">
<path d="M12.3796 3.6746C12.2846 3.56378 12.146 3.5 12 3.5C11.854 3.5 11.7154 3.56378 11.6204 3.6746L9.62037 6.00794C9.44066 6.2176 9.46494 6.53325 9.6746 6.71296C9.88427 6.89267 10.1999 6.86839 10.3796 6.65873L11.5 5.35163V13C11.5 13.2761 11.7239 13.5 12 13.5C12.2761 13.5 12.5 13.2761 12.5 13V5.35163L13.6204 6.65873C13.8001 6.86839 14.1157 6.89267 14.3254 6.71296C14.5351 6.53325 14.5593 6.2176 14.3796 6.00794L12.3796 3.6746Z"/>
<path d="M7 8.5C6.72386 8.5 6.5 8.72386 6.5 9V18C6.5 18.2761 6.72386 18.5 7 18.5H17C17.2761 18.5 17.5 18.2761 17.5 18V9C17.5 8.72386 17.2761 8.5 17 8.5H14C13.7239 8.5 13.5 8.72386 13.5 9C13.5 9.27614 13.7239 9.5 14 9.5H16.5V17.5H7.5V9.5H9.5C9.77614 9.5 10 9.27614 10 9C10 8.72386 9.77614 8.5 9.5 8.5H7Z"/>
</svg>
