<svg width="24" height="24" xmlns="http://www.w3.org/2000/svg">
	<path fill-rule="evenodd" clip-rule="evenodd" d="M12 4.5C8.41023 4.5 5.5 7.41023 5.5 11C5.5 13.5077 6.92013 15.6837 9 16.7678V17.8759C6.35117 16.7185 4.5 14.0754 4.5 11C4.5 6.85794 7.85794 3.5 12 3.5C16.1421 3.5 19.5 6.85794 19.5 11C19.5 14.0754 17.6488 16.7185 15 17.8759V16.7678C17.0799 15.6837 18.5 13.5077 18.5 11C18.5 7.41023 15.5898 4.5 12 4.5ZM11.6775 14.099C11.1615 14.075 10.7415 13.967 10.4175 13.775C10.0995 13.583 9.82952 13.337 9.60752 13.037L10.0035 12.713C10.2195 12.989 10.4565 13.208 10.7145 13.37C10.9725 13.526 11.2935 13.616 11.6775 13.64V11.012L11.4255 10.967C11.1135 10.913 10.8525 10.832 10.6425 10.724C10.4385 10.616 10.2735 10.487 10.1475 10.337C10.0215 10.187 9.93152 10.022 9.87752 9.842C9.82952 9.656 9.80552 9.464 9.80552 9.266C9.80552 8.75 9.97052 8.354 10.3005 8.078C10.6365 7.796 11.0955 7.643 11.6775 7.619V6.701H12.0825V7.619C12.5205 7.643 12.8865 7.739 13.1805 7.907C13.4745 8.069 13.7235 8.291 13.9275 8.573L13.5225 8.87C13.3545 8.642 13.1565 8.462 12.9285 8.33C12.7065 8.198 12.4245 8.117 12.0825 8.087V10.562L12.3525 10.607C12.6705 10.661 12.9345 10.745 13.1445 10.859C13.3545 10.967 13.5195 11.096 13.6395 11.246C13.7655 11.396 13.8525 11.564 13.9005 11.75C13.9545 11.936 13.9815 12.128 13.9815 12.326C13.9815 12.866 13.8135 13.289 13.4775 13.595C13.1475 13.895 12.6825 14.063 12.0825 14.099V15.0068C12.3194 15.0461 12.5 15.252 12.5 15.5V20.6484L13.6204 19.3413C13.8001 19.1316 14.1157 19.1073 14.3254 19.287C14.5351 19.4667 14.5593 19.7824 14.3796 19.9921L12.3796 22.3254C12.2846 22.4362 12.146 22.5 12 22.5C11.854 22.5 11.7154 22.4362 11.6204 22.3254L9.62037 19.9921C9.44066 19.7824 9.46494 19.4667 9.6746 19.287C9.88427 19.1073 10.1999 19.1316 10.3796 19.3413L11.5 20.6484V15.5C11.5 15.2687 11.657 15.0741 11.8702 15.017H11.6775V14.099ZM10.3275 9.266C10.3275 9.638 10.4355 9.917 10.6515 10.103C10.8675 10.283 11.1735 10.409 11.5695 10.481L11.6775 10.499V8.078C11.2455 8.108 10.9125 8.222 10.6785 8.42C10.4445 8.612 10.3275 8.894 10.3275 9.266ZM13.4595 12.335C13.4595 11.939 13.3455 11.651 13.1175 11.471C12.8955 11.285 12.5775 11.159 12.1635 11.093L12.0825 11.075V13.631C12.5205 13.601 12.8595 13.478 13.0995 13.262C13.3395 13.04 13.4595 12.731 13.4595 12.335Z"/>
</svg>
