<svg xmlns="http://www.w3.org/2000/svg" width="132" height="28" viewBox="0 0 132 28">
    <path fill="#ED6E82" fill-rule="evenodd" d="M19.218 16.414c0 .366-.02.736-.069 1.099-.429 3.212-3.895 5.303-6.964 4.207-2.245-.802-3.652-2.779-3.653-5.152-.002-1.627-.001-3.253-.002-4.88h10.69c0 1.576 0 3.15-.002 4.726M25.85 2.295c0 2.082-.007 4.164-.01 6.246h1.8v3.151h-1.803c.002 1.578.007 3.156.023 4.734.048 5-3.172 9.105-7.466 10.68-4.535 1.663-8.784 1.016-12.546-2.023-2.61-2.108-4.017-4.901-4.046-8.272a679.375 679.375 0 0 1-.02-5.119H0v-3.15h1.783c.003-2.143.008-4.285.008-6.428 0-.058.008-.117.014-.197h6.667v.375l-.001 6.25h10.69V1.907h6.69v.387zm97.96 14.94L132 27.463h-.402c-2.453 0-4.906-.003-7.359.005a.485.485 0 0 1-.443-.225l-.962-1.31-5.154-7.002-.078-.098-.077.02v8.593h-6.388V0h6.369v15.608l.1.07.16-.185a.664.664 0 0 1 .074-.11c1.903-2.202 3.811-4.4 5.712-6.605.15-.173.3-.248.533-.247 2.393.008 4.786.005 7.179.005h.386l-7.838 8.7zM65.784 11.31c4.67-4.797 12.905-4.326 16.98.972 2.941 3.826 2.54 9.07-.953 12.475-2.115 2.06-4.949 3.192-8.713 3.183-2.968-.097-6.072-1.45-8.291-4.458-2.802-3.799-2.373-8.73.977-12.172zm7.957 11.135c2.367.051 4.48-1.952 4.535-4.299.056-2.419-1.951-4.491-4.407-4.548-2.405-.056-4.494 1.943-4.542 4.346-.049 2.41 1.95 4.448 4.414 4.501zm-23.547-6.918c.07.58.084 1.17.086 1.755.008 3.269.004 6.538.004 9.807v.339h-6.384v-.358c0-3.15.003-6.3-.001-9.45-.003-1.549-.65-2.762-2.025-3.51-2.107-1.145-4.692.026-5.303 2.384a5.55 5.55 0 0 0-.16 1.355c-.014 3.06-.007 6.121-.007 9.182v.397h-6.366V8.54c.093-.009.18-.023.265-.023 1.682 0 3.363.003 5.045-.005.22 0 .309.052.34.285.094.688.22 1.371.334 2.056l.098.051c.02-.045.033-.096.063-.135 1.42-1.896 3.365-2.756 5.7-2.779 2.373-.023 4.441.748 6.077 2.499 1.324 1.419 2.006 3.136 2.234 5.037zm52.047 4.298c2.072-.009 4.145-.005 6.217-.003.019 0 .038.01.136.037-.151.556-.262 1.128-.462 1.667-.96 2.578-2.808 4.329-5.291 5.442-4.404 1.973-9.697.936-13.003-2.56-1.816-1.919-2.728-4.218-2.597-6.862.133-2.686 1.296-4.914 3.304-6.69 2.409-2.131 5.268-3.075 8.466-2.826 3.715.29 6.647 1.958 8.568 5.202.51.862.823 1.803.977 2.84h-.28c-1.981 0-3.964 0-5.946.002-.156 0-.266-.008-.354-.185-.801-1.612-2.168-2.367-3.928-2.356-2.535.016-4.494 2.128-4.397 4.65.097 2.51 2.426 4.464 4.941 4.161 1.555-.187 2.676-.968 3.393-2.343.043-.083.168-.175.256-.176zM54.066 27.44V0h6.35v27.44h-6.35z"/>
</svg>
