<svg xmlns="http://www.w3.org/2000/svg" width="82" height="78" viewBox="0 0 82 78">
    <g fill="#A6A6A6" fill-rule="evenodd">
        <path d="M74.468 78H7.532a7.437 7.437 0 0 1-6.437-3.651 7.437 7.437 0 0 1-.17-7.398L34.392 4.634C35.722 2.16 38.19.681 41 .681c2.81 0 5.279 1.478 6.608 3.951l33.468 62.318a7.437 7.437 0 0 1-.171 7.398A7.44 7.44 0 0 1 74.468 78zM41 3.683a4.436 4.436 0 0 0-3.965 2.371L3.569 68.371a4.462 4.462 0 0 0 .102 4.439A4.464 4.464 0 0 0 7.532 75h66.934a4.466 4.466 0 0 0 3.863-2.19 4.462 4.462 0 0 0 .102-4.439L44.965 6.053A4.434 4.434 0 0 0 41 3.683z"/>
        <path d="M41 51a1.5 1.5 0 0 1-1.432-1.053l-5.264-16.842a6.95 6.95 0 0 1 1.044-6.247A6.945 6.945 0 0 1 41 24a6.95 6.95 0 0 1 5.652 2.859 6.948 6.948 0 0 1 1.044 6.247L42.432 49.95A1.5 1.5 0 0 1 41 51zm0-24c-1.29 0-2.469.596-3.234 1.637a3.973 3.973 0 0 0-.597 3.574L41 44.471l3.831-12.26a3.972 3.972 0 0 0-.597-3.574A3.979 3.979 0 0 0 41 27zM41 66c-3.309 0-6-2.691-6-6s2.691-6 6-6 6 2.691 6 6-2.691 6-6 6zm0-9c-1.654 0-3 1.346-3 3s1.346 3 3 3 3-1.346 3-3-1.346-3-3-3z"/>
    </g>
</svg>
