<svg width="332" height="234" viewBox="0 0 332 234" fill="none" xmlns="http://www.w3.org/2000/svg">
<g style="mix-blend-mode:multiply">
<path opacity="0.6" d="M22.1658 63.7563C23.0494 62.8728 24.4819 62.8728 25.3655 63.7563L45.9314 84.3223C46.815 85.2058 46.815 86.6384 45.9314 87.5219L25.3655 108.088C24.4819 108.971 23.0494 108.971 22.1658 108.088L1.59983 87.522C0.716271 86.6384 0.716268 85.2059 1.59983 84.3223L22.1658 63.7563Z" fill="#A6A6A6"/>
<rect x="59.2314" y="62.1565" width="71.2969" height="47.5313" rx="2.2625" fill="#A6A6A6"/>
<rect x="142.228" y="62.1565" width="47.5313" height="47.5313" rx="22.625" fill="#A6A6A6"/>
<path opacity="0.3" d="M235.298 64.5698C236.203 63.3632 238.013 63.3632 238.918 64.5698L270.041 106.068C271.16 107.559 270.096 109.688 268.231 109.688H205.984C204.12 109.688 203.056 107.559 204.174 106.068L235.298 64.5698Z" fill="#A6A6A6"/>
<path d="M306.622 63.7563C307.505 62.8728 308.938 62.8728 309.822 63.7563L330.387 84.3223C331.271 85.2058 331.271 86.6384 330.387 87.5219L309.822 108.088C308.938 108.971 307.505 108.971 306.622 108.088L286.056 87.522C285.172 86.6384 285.172 85.2059 286.056 84.3223L306.622 63.7563Z" fill="#A6A6A6"/>
<g clip-path="url(#clip0)">
<circle cx="23.7654" cy="23.7657" r="15.4993" fill="white"/>
<path d="M23.7656 0C10.636 0 0 10.636 0 23.7656C0 36.8953 10.636 47.5313 23.7656 47.5313C36.8953 47.5313 47.5313 36.8953 47.5313 23.7656C47.5313 10.636 36.8953 0 23.7656 0ZM35.9171 21.8506H34.3327V26.2455C34.3327 31.7426 29.6071 36.234 23.807 36.234C17.9654 36.234 13.2123 31.7426 13.2123 26.2455V21.8506H11.6142V19.0538H13.2123V13.1848H19.0814V19.0538H28.4636V13.1848H34.3327V19.0538H35.9171V21.8506ZM19.0814 26.2455C19.0814 28.8494 21.2031 30.9711 23.807 30.9711C26.4108 30.9711 28.4636 28.8494 28.4636 26.2455V21.8506H19.0814V26.2455V26.2455Z" fill="#A6A6A6"/>
</g>
<path d="M81.6236 1.04924C82.4345 0.429784 83.5597 0.429785 84.3705 1.04924L105.509 17.1973C106.262 17.7729 106.577 18.7572 106.297 19.6632L98.1778 45.9367C97.8848 46.8847 97.0084 47.5313 96.0161 47.5313H69.978C68.9858 47.5313 68.1093 46.8847 67.8164 45.9367L59.6974 19.6632C59.4174 18.7572 59.7321 17.7729 60.4856 17.1973L81.6236 1.04924Z" fill="#A6A6A6"/>
<path opacity="0.6" d="M152.301 2.41333C153.206 1.20667 155.016 1.20667 155.921 2.41333L187.044 43.9113C188.163 45.4028 187.099 47.5313 185.234 47.5313H122.987C121.123 47.5313 120.059 45.4028 121.177 43.9113L152.301 2.41333Z" fill="#A6A6A6"/>
<rect x="201.459" width="47.5313" height="47.5313" rx="2.2625" fill="#A6A6A6"/>
<path opacity="0.3" d="M260.69 2.2625C260.69 1.01296 261.703 0 262.953 0H329.725C330.974 0 331.987 1.01296 331.987 2.2625V45.2688C331.987 46.5183 330.974 47.5313 329.725 47.5313H262.953C261.703 47.5313 260.69 46.5183 260.69 45.2688V2.2625Z" fill="#A6A6A6"/>
<rect opacity="0.3" y="186.469" width="47.5313" height="47.5313" rx="22.625" fill="#A6A6A6"/>
<rect x="59.2314" y="186.469" width="47.5313" height="47.5313" rx="2.2625" fill="#A6A6A6"/>
<rect opacity="0.3" x="118.462" y="186.469" width="71.2969" height="47.5313" rx="2.2625" fill="#A6A6A6"/>
<path opacity="0.6" d="M223.852 187.518C224.663 186.899 225.788 186.899 226.599 187.518L247.737 203.666C248.49 204.242 248.805 205.226 248.525 206.132L240.406 232.405C240.113 233.353 239.236 234 238.244 234H212.206C211.214 234 210.337 233.353 210.044 232.405L201.925 206.132C201.645 205.226 201.96 204.242 202.714 203.666L223.852 187.518Z" fill="#A6A6A6"/>
<path d="M294.529 188.882C295.434 187.675 297.244 187.675 298.149 188.882L329.272 230.38C330.391 231.872 329.327 234 327.462 234H265.215C263.351 234 262.287 231.872 263.405 230.38L294.529 188.882Z" fill="#A6A6A6"/>
<path d="M22.3921 125.361C23.203 124.742 24.3282 124.742 25.1391 125.361L46.2771 141.51C47.0306 142.085 47.3453 143.069 47.0653 143.975L38.9463 170.249C38.6534 171.197 37.7769 171.844 36.7847 171.844H10.7466C9.75434 171.844 8.87788 171.197 8.58493 170.249L0.465947 143.975C0.186004 143.07 0.500636 142.085 1.25411 141.51L22.3921 125.361Z" fill="#A6A6A6"/>
<path opacity="0.6" d="M93.0699 126.726C93.9749 125.519 95.7849 125.519 96.6899 126.726L127.813 168.224C128.932 169.715 127.868 171.844 126.003 171.844H63.7564C61.892 171.844 60.8278 169.715 61.9464 168.224L93.0699 126.726Z" fill="#A6A6A6"/>
<rect x="142.228" y="124.312" width="47.5313" height="47.5313" rx="2.2625" fill="#A6A6A6"/>
<rect opacity="0.6" x="201.459" y="124.312" width="71.2969" height="47.5313" rx="2.2625" fill="#A6A6A6"/>
<rect opacity="0.6" x="284.456" y="124.312" width="47.5313" height="47.5313" rx="22.625" fill="#A6A6A6"/>
</g>
<defs>
<clipPath id="clip0">
<rect width="47.5312" height="47.5312" fill="white"/>
</clipPath>
</defs>
</svg>
