<svg width="120" height="121" viewBox="0 0 120 121" fill="none" xmlns="http://www.w3.org/2000/svg">
<circle cx="60" cy="60.5" r="51" fill="#FF6771"/>
<path d="M83.5649 38.5661C79.2308 36.5783 74.5831 35.1138 69.7237 34.2749C69.6352 34.2588 69.5468 34.2992 69.5012 34.3801C68.9035 35.4428 68.2414 36.8291 67.7778 37.9188C62.5512 37.1366 57.3514 37.1366 52.2319 37.9188C51.7682 36.8049 51.082 35.4428 50.4816 34.3801C50.436 34.3019 50.3476 34.2615 50.2591 34.2749C45.4024 35.1111 40.7548 36.5756 36.418 38.5661C36.3804 38.5823 36.3483 38.6093 36.3269 38.6444C27.5113 51.8093 25.0963 64.6506 26.281 77.3327C26.2864 77.3947 26.3212 77.4541 26.3695 77.4918C32.1858 81.7614 37.8198 84.3534 43.3493 86.0715C43.4378 86.0985 43.5315 86.0661 43.5879 85.9933C44.8959 84.2078 46.0618 82.3252 47.0615 80.3454C47.1205 80.2295 47.0642 80.0919 46.9436 80.046C45.0942 79.3448 43.3332 78.4898 41.6392 77.5188C41.5052 77.4406 41.4945 77.249 41.6178 77.1573C41.9743 76.8903 42.3308 76.6125 42.6712 76.332C42.7328 76.2808 42.8186 76.27 42.891 76.3023C54.0196 81.3812 66.0677 81.3812 77.065 76.3023C77.1374 76.2673 77.2233 76.2781 77.2875 76.3293C77.628 76.6098 77.9845 76.8903 78.3436 77.1573C78.4669 77.249 78.4588 77.4406 78.3249 77.5188C76.6309 78.5086 74.8699 79.3448 73.0178 80.0434C72.8972 80.0892 72.8436 80.2295 72.9026 80.3454C73.9237 82.3224 75.0897 84.205 76.3735 85.9906C76.4272 86.0661 76.5236 86.0985 76.6121 86.0715C82.1684 84.3534 87.8024 81.7614 93.6187 77.4918C93.6697 77.4541 93.7019 77.3974 93.7072 77.3354C95.1251 62.6735 91.3324 49.9375 83.6533 38.647C83.6345 38.6093 83.6024 38.5823 83.5649 38.5661ZM48.7234 69.6106C45.3729 69.6106 42.6122 66.5359 42.6122 62.7598C42.6122 58.9837 45.3194 55.909 48.7234 55.909C52.1541 55.909 54.8881 59.0107 54.8345 62.7598C54.8345 66.5359 52.1273 69.6106 48.7234 69.6106ZM71.3185 69.6106C67.9681 69.6106 65.2074 66.5359 65.2074 62.7598C65.2074 58.9837 67.9144 55.909 71.3185 55.909C74.7493 55.909 77.4832 59.0107 77.4296 62.7598C77.4296 66.5359 74.7493 69.6106 71.3185 69.6106Z" fill="white"/>
</svg>
