<svg width="24" height="24" xmlns="http://www.w3.org/2000/svg">
	<path fill-rule="evenodd" clip-rule="evenodd" d="M11.7659 4.55935C11.9134 4.48022 12.0908 4.48022 12.2384 4.55935L18.2363 7.77545C18.3987 7.86252 18.5 8.03184 18.5 8.2161V15.7823C18.5 15.9665 18.3987 16.1359 18.2363 16.2229L12.2353 19.4406C12.0876 19.5198 11.9101 19.5198 11.7625 19.4405L5.76344 16.2188C5.60112 16.1316 5.4999 15.9622 5.5 15.778L5.50426 8.21582C5.50437 8.03166 5.60569 7.86247 5.76798 7.77545L11.7659 4.55935ZM6.5038 9.04091L11.499 11.6487V18.1639L6.50017 15.4794L6.5038 9.04091ZM12.499 18.1646L17.5 15.483V9.04076L12.499 11.6488V18.1646ZM11.9992 10.7817L16.9305 8.20996L12.0021 5.56734L7.07336 8.21019L11.9992 10.7817Z"/>
</svg>
