<svg width="24" height="24" xmlns="http://www.w3.org/2000/svg">
	<path fill-rule="evenodd" clip-rule="evenodd" d="M8.23744 7.17675C7.94455 6.88385 7.46967 6.88385 7.17678 7.17675C6.88389 7.46964 6.88389 7.94451 7.17678 8.23741L10.9394 12L7.17677 15.7626C6.88388 16.0554 6.88388 16.5303 7.17677 16.8232C7.46966 17.1161 7.94454 17.1161 8.23743 16.8232L12 13.0606L15.7626 16.8232C16.0555 17.1161 16.5304 17.1161 16.8232 16.8232C17.1161 16.5303 17.1161 16.0554 16.8232 15.7625L13.0607 12L16.8232 8.23743C17.1161 7.94454 17.1161 7.46966 16.8232 7.17677C16.5303 6.88388 16.0555 6.88388 15.7626 7.17677L12 10.9393L8.23744 7.17675Z"/>
</svg>
