<svg width="24" height="24" xmlns="http://www.w3.org/2000/svg">
	<path fill-rule="evenodd" clip-rule="evenodd" d="M10 6V7L14 7V6L10 6ZM15 10.5C15 10.2239 14.7761 10 14.5 10H9.5C9.22386 10 9 10.2239 9 10.5C9 10.7761 9.22386 11 9.5 11H14.5C14.7761 11 15 10.7761 15 10.5ZM15 12.5C15 12.2239 14.7761 12 14.5 12H9.5C9.22386 12 9 12.2239 9 12.5C9 12.7761 9.22386 13 9.5 13H14.5C14.7761 13 15 12.7761 15 12.5ZM15 14.5C15 14.2239 14.7761 14 14.5 14H9.5C9.22386 14 9 14.2239 9 14.5C9 14.7761 9.22386 15 9.5 15H14.5C14.7761 15 15 14.7761 15 14.5ZM8 17H16V7H15V8H9V7L8 7V17ZM10 5C9.44772 5 9 5.44772 9 6L8 6C7.44772 6 7 6.44772 7 7V17C7 17.5523 7.44772 18 8 18H16C16.5523 18 17 17.5523 17 17V7C17 6.44772 16.5523 6 16 6H15C15 5.44772 14.5523 5 14 5H10Z"/>
</svg>
