<svg width="201" height="245" viewBox="0 0 201 245" fill="none" xmlns="http://www.w3.org/2000/svg">
<path fill-rule="evenodd" clip-rule="evenodd" d="M38.4591 28.4884C33.739 28.4884 29.9126 32.3148 29.9126 37.0349V236.454C29.9126 241.174 33.739 245 38.4591 245H192.296C197.016 245 200.843 241.174 200.843 236.454V37.0349C200.843 32.3148 197.016 28.4884 192.296 28.4884H38.4591ZM55.7192 89.2461C52.5725 89.2461 50.0216 91.7971 50.0216 94.9438V98.6539C50.0216 101.801 52.5725 104.352 55.7193 104.352H175.035C178.182 104.352 180.733 101.801 180.733 98.6539V94.9438C180.733 91.7971 178.182 89.2461 175.035 89.2461H55.7192ZM50.0216 61.5525C50.0216 57.3812 53.403 53.9998 57.5743 53.9998H173.18C177.351 53.9998 180.733 57.3812 180.733 61.5525C180.733 65.7237 177.351 69.1052 173.18 69.1052H57.5743C53.403 69.1052 50.0216 65.7237 50.0216 61.5525ZM57.5743 124.492C53.403 124.492 50.0216 127.873 50.0216 132.045C50.0216 136.216 53.403 139.597 57.5743 139.597H173.18C177.351 139.597 180.733 136.216 180.733 132.045C180.733 127.873 177.351 124.492 173.18 124.492H57.5743ZM50.0216 202.537C50.0216 198.366 53.403 194.985 57.5743 194.985H127.934C132.105 194.985 135.487 198.366 135.487 202.537C135.487 206.708 132.105 210.09 127.934 210.09H57.5743C53.4031 210.09 50.0216 206.708 50.0216 202.537ZM57.5743 159.738C53.403 159.738 50.0216 163.119 50.0216 167.291C50.0216 171.462 53.403 174.843 57.5743 174.843H173.18C177.351 174.843 180.733 171.462 180.733 167.291C180.733 163.119 177.351 159.738 173.18 159.738H57.5743Z" fill="#A6A6A6"/>
<path fill-rule="evenodd" clip-rule="evenodd" d="M42.0203 84.0407C65.2275 84.0407 84.0407 65.2275 84.0407 42.0203C84.0407 18.8131 65.2275 0 42.0203 0C18.8131 0 0 18.8131 0 42.0203C0 65.2275 18.8131 84.0407 42.0203 84.0407Z" fill="#ED6E82"/>
<path d="M21.4875 43.7727C23.2138 42.0526 25.4311 40.9103 27.8338 40.5032C30.2365 40.0961 32.7063 40.4443 34.9029 41.4997L57.7001 18.7025L63.2712 24.2737L60.4857 27.0593L66.0568 32.6304L60.4857 38.2016L54.9145 32.6304L40.474 47.0709C41.5295 49.2674 41.8776 51.7373 41.4705 54.14C41.0634 56.5427 39.9211 58.76 38.201 60.4862C35.9846 62.7026 32.9786 63.9477 29.8443 63.9477C26.7099 63.9477 23.7039 62.7026 21.4875 60.4862C19.2712 58.2699 18.026 55.2639 18.026 52.1295C18.026 48.9951 19.2712 45.9891 21.4875 43.7727ZM32.6298 54.9151C34.1647 53.3802 34.1647 50.8788 32.6298 49.3439C31.095 47.8091 28.5935 47.8091 27.0587 49.3439C25.5238 50.8788 25.5238 53.3802 27.0587 54.9151C28.5935 56.4499 31.095 56.4499 32.6298 54.9151Z" fill="white"/>
<path d="M52.1289 35.416L57.7001 40.9872L52.1289 46.5583L46.5577 40.9872L52.1289 35.416Z" fill="white"/>
</svg>
