<svg width="24" height="24" xmlns="http://www.w3.org/2000/svg">
	<path fill-rule="evenodd" clip-rule="evenodd" d="M9.5 7.66667C9.5 6.52379 10.5623 5.5 12 5.5C13.4377 5.5 14.5 6.52379 14.5 7.66667V9H9.5V7.66667ZM8.5 9H7C6.44772 9 6 9.44772 6 10V18C6 18.5523 6.44772 19 7 19H17C17.5523 19 18 18.5523 18 18V10C18 9.44772 17.5523 9 17 9H15.5V7.66667C15.5 5.86403 13.876 4.5 12 4.5C10.124 4.5 8.5 5.86403 8.5 7.66667V9ZM7 18H17V10H7L7 18ZM10 14C10 15.1 10.9 16 12 16C13.1 16 14 15.1 14 14C14 12.9 13.1 12 12 12C10.9 12 10 12.9 10 14Z"/>
</svg>
