<svg width="24" height="24" xmlns="http://www.w3.org/2000/svg">
	<path fill-rule="evenodd" clip-rule="evenodd" d="M9.5 7.66667C9.5 6.52379 10.5623 5.5 12 5.5C12.8941 5.5 13.6614 5.90572 14.0996 6.49158L14.9004 5.8926C14.2637 5.0414 13.1928 4.5 12 4.5C10.124 4.5 8.5 5.86403 8.5 7.66667V9H7C6.44772 9 6 9.44772 6 10V18C6 18.5523 6.44772 19 7 19H17C17.5523 19 18 18.5523 18 18V10C18 9.44772 17.5523 9 17 9H9.5V7.66667ZM7 18H17V10H7L7 18ZM12 15.25C11.3142 15.25 10.75 14.6858 10.75 14C10.75 13.3142 11.3142 12.75 12 12.75C12.6858 12.75 13.25 13.3142 13.25 14C13.25 14.6858 12.6858 15.25 12 15.25ZM12 16C10.9 16 10 15.1 10 14C10 12.9 10.9 12 12 12C13.1 12 14 12.9 14 14C14 15.1 13.1 16 12 16Z"/>
</svg>
