<svg width="24" height="24" xmlns="http://www.w3.org/2000/svg">
	<path fill-rule="evenodd" clip-rule="evenodd" d="M16.801 5.065C16.9526 5.195 17.0176 5.3575 16.9959 5.5525L15.144 16.7C15.1224 16.83 15.0465 16.9383 14.9166 17.025C14.8299 17.0467 14.7541 17.0575 14.6892 17.0575C14.6242 17.0575 14.5592 17.0467 14.4942 17.025L11.2127 15.6925L9.45829 17.8375C9.37165 17.9458 9.25252 18 9.1009 18C9.03592 18 8.98177 17.9892 8.93845 17.9675C8.85181 17.9458 8.776 17.8917 8.71102 17.805C8.64604 17.7183 8.62438 17.6317 8.64604 17.545V15.01L14.9166 7.3075L7.15151 14.035L4.2924 12.865C4.11912 12.8 4.02165 12.6592 3.99999 12.4425C3.99999 12.2692 4.0758 12.1283 4.22742 12.02L16.3136 5.065C16.3786 5.02167 16.4544 5 16.5411 5C16.6277 5 16.7144 5.02167 16.801 5.065Z"/>
</svg>
