<svg width="120" height="120" viewBox="0 0 120 120" fill="none" xmlns="http://www.w3.org/2000/svg">
<path fill-rule="evenodd" clip-rule="evenodd" d="M57.3582 2.89685C58.895 1.70105 61.0414 1.70105 62.5782 2.89685C78.9691 15.6546 97.6956 15.5517 104.766 15.5128C105.12 15.5108 105.444 15.509 105.738 15.509C106.88 15.509 107.974 15.9697 108.776 16.7877C109.577 17.6057 110.017 18.7124 109.999 19.8597C109.667 40.3745 108.784 55.2842 107.068 66.4347C105.35 77.5933 102.752 85.3219 98.7648 91.2473C94.7494 97.2144 89.5861 100.952 83.6102 104.544C81.614 105.744 79.561 106.912 77.4046 108.139C72.9505 110.671 68.0578 113.453 62.3285 117.283C60.8992 118.239 59.0372 118.239 57.6069 117.283C51.8866 113.459 47.0028 110.68 42.5587 108.151C40.3953 106.92 38.3354 105.748 36.3341 104.543C30.3622 100.95 25.2079 97.2124 21.2004 91.2434C17.2218 85.3179 14.6317 77.5893 12.9209 66.4328C11.2111 55.2832 10.3328 40.3739 10.0006 19.8597C9.98169 18.7124 10.4223 17.6057 11.223 16.7877C12.0247 15.9697 13.1188 15.509 14.2607 15.509C14.5511 15.509 14.8734 15.5108 15.2245 15.5128C22.2379 15.5517 40.9653 15.6555 57.3582 2.89685ZM18.6024 24.0719C18.9833 42.2193 19.8437 55.3437 21.3437 65.1285C22.961 75.672 25.2765 82.0031 28.2655 86.4556C31.2266 90.8645 35.1028 93.8222 40.7136 97.1985C42.4204 98.2251 44.3212 99.3082 46.3941 100.489C50.3538 102.744 54.9362 105.355 59.9682 108.604C65.0101 105.349 69.6015 102.735 73.5682 100.477C75.6341 99.3013 77.5309 98.2212 79.2337 97.1975C84.8515 93.8202 88.7367 90.8625 91.7048 86.4516C94.7007 81.9991 97.0232 75.669 98.6455 65.1265C100.151 55.3417 101.016 42.2189 101.397 24.0724C92.7103 23.9467 75.7186 22.6185 59.9682 11.5926C44.2337 22.6071 27.2629 23.9439 18.6024 24.0719Z" fill="#3375BB"/>
</svg>
