<svg width="700" height="700" viewBox="0 0 700 700" fill="none" xmlns="http://www.w3.org/2000/svg">
<circle cx="350" cy="350" r="350" fill="#603DEB"/>
<path fill-rule="evenodd" clip-rule="evenodd" d="M304 96C290.193 96 279 107.193 279 121V195.175C226.012 198.28 184 242.234 184 296V470C184 478.461 185.04 486.678 187 494.532V496H187.378C195.74 527.478 218.922 552.918 249 564.396V580C249 593.807 260.193 605 274 605H424C437.807 605 449 593.807 449 580V565.134C488.054 551.176 516 513.851 516 470V296C516 241.896 473.458 197.728 420 195.122V121C420 107.193 408.807 96 395 96H304ZM197.768 496C208.956 533.589 243.777 561 285 561H415C456.223 561 491.044 533.589 502.232 496H197.768ZM504.598 486C505.519 480.806 506 475.459 506 470V296C506 293.645 505.911 291.31 505.735 289H194.265C194.089 291.31 194 293.645 194 296V470C194 475.459 194.481 480.806 195.402 486H504.598ZM259 580V567.622C267.296 569.826 276.011 571 285 571H415C423.27 571 431.307 570.006 439 568.131V580C439 588.284 432.284 595 424 595H274C265.716 595 259 588.284 259 580ZM415 205H410H289H285C240.552 205 203.547 236.867 195.585 279H504.415C496.453 236.867 459.448 205 415 205ZM289 121V195H345V170.55C334.73 168.465 327 159.385 327 148.5C327 136.074 337.074 126 349.5 126C361.926 126 372 136.074 372 148.5C372 159.029 364.768 167.869 355 170.323V195H410V121C410 112.716 403.284 106 395 106H304C295.716 106 289 112.716 289 121ZM362 148.5C362 155.404 356.404 161 349.5 161C342.596 161 337 155.404 337 148.5C337 141.596 342.596 136 349.5 136C356.404 136 362 141.596 362 148.5ZM353.906 310.876C353.09 309.136 351.348 308.018 349.425 308C347.503 307.983 345.741 309.069 344.893 310.794L327.345 346.492L318.277 335.357C317.222 334.061 315.589 333.378 313.925 333.536C312.262 333.695 310.787 334.674 309.996 336.146C294.191 365.546 286.587 388.129 288.216 406.892C289.892 426.19 301.179 440.317 319.917 453.012C337.595 464.99 361.133 465.047 378.904 453.239C396.469 441.567 407.847 428.271 409.726 409.086C411.55 390.45 404.255 367.309 387.78 336.175C386.924 334.558 385.253 333.537 383.423 333.514C381.593 333.491 379.897 334.47 379.001 336.065L371.767 348.942L353.906 310.876ZM332.879 357.902L349.275 324.548L366.841 361.986C367.636 363.681 369.313 364.79 371.184 364.859C373.056 364.927 374.809 363.944 375.726 362.311L383.164 349.071C396.305 375.48 401.154 394.011 399.773 408.112C398.307 423.085 389.674 434.076 373.37 444.91C358.965 454.481 339.829 454.425 325.526 444.734C308.102 432.929 299.492 421.147 298.179 406.027C296.926 391.593 302.197 373.172 315.306 347.545L324.515 358.854C325.59 360.175 327.265 360.857 328.957 360.665C330.65 360.472 332.128 359.431 332.879 357.902Z" fill="white"/>
<circle cx="464" cy="496" r="105" fill="white"/>
<path d="M521.428 438.572C517.999 435.143 512.44 435.143 509.011 438.572L464 483.583L418.989 438.572C415.56 435.143 410.001 435.143 406.572 438.572C403.143 442 403.143 447.56 406.572 450.989L451.583 496L406.572 541.011C403.143 544.44 403.143 550 406.572 553.428C410 556.857 415.56 556.857 418.989 553.428L464 508.417L509.011 553.428C512.44 556.857 517.999 556.857 521.428 553.428C524.857 549.999 524.857 544.44 521.428 541.011L476.417 496L521.428 450.989C524.857 447.56 524.857 442.001 521.428 438.572Z" fill="#603DEB"/>
</svg>
