<svg xmlns="http://www.w3.org/2000/svg" width="72" height="72" viewBox="0 0 72 72">
    <path fill="#A6A6A6" fill-rule="evenodd" d="M70.501 72h-21a1.5 1.5 0 0 1-1.5-1.499v-21a1.5 1.5 0 0 1 1.5-1.502h9V37.5h-45V48h9a1.5 1.5 0 0 1 1.5 1.502v21A1.5 1.5 0 0 1 22.5 72H1.5A1.5 1.5 0 0 1 0 70.501v-21a1.5 1.5 0 0 1 1.5-1.502h9V36.002a1.5 1.5 0 0 1 1.5-1.502h22.5V24.5c0-.177.046-.342.101-.501h-9.1c-.828 0-1.5-.669-1.5-1.499v-21c0-.83.672-1.5 1.5-1.5h21c.828 0 1.5.67 1.5 1.5v21c0 .83-.672 1.499-1.5 1.499h-9.102c.057.159.102.324.102.501v10H60a1.5 1.5 0 0 1 1.5 1.5v12h9a1.5 1.5 0 0 1 1.5 1.501v21a1.5 1.5 0 0 1-1.5 1.499zm-67.5-21V69h18V51H3zM45 2.999H27V21h18V3zm24 48h-18v18.002h18V51z"/>
</svg>
