<svg width="531" height="72" viewBox="0 0 531 72" fill="none" xmlns="http://www.w3.org/2000/svg">
<path d="M16.022 55V17.308H31.034C34.418 17.308 37.01 18.28 38.81 20.224C40.646 22.132 41.564 24.76 41.564 28.108C41.564 31.456 40.646 34.102 38.81 36.046C37.01 37.954 34.418 38.908 31.034 38.908H20.558V55H16.022ZM20.558 34.912H31.034C32.834 34.912 34.22 34.444 35.192 33.508C36.2 32.572 36.704 31.24 36.704 29.512V26.704C36.704 24.976 36.2 23.644 35.192 22.708C34.22 21.772 32.834 21.304 31.034 21.304H20.558V34.912ZM57.8134 55.648C55.9414 55.648 54.2314 55.306 52.6834 54.622C51.1354 53.938 49.8034 52.966 48.6874 51.706C47.6074 50.41 46.7614 48.88 46.1494 47.116C45.5374 45.316 45.2314 43.3 45.2314 41.068C45.2314 38.872 45.5374 36.874 46.1494 35.074C46.7614 33.274 47.6074 31.744 48.6874 30.484C49.8034 29.188 51.1354 28.198 52.6834 27.514C54.2314 26.83 55.9414 26.488 57.8134 26.488C59.6854 26.488 61.3774 26.83 62.8894 27.514C64.4374 28.198 65.7694 29.188 66.8854 30.484C68.0014 31.744 68.8654 33.274 69.4774 35.074C70.0894 36.874 70.3954 38.872 70.3954 41.068C70.3954 43.3 70.0894 45.316 69.4774 47.116C68.8654 48.88 68.0014 50.41 66.8854 51.706C65.7694 52.966 64.4374 53.938 62.8894 54.622C61.3774 55.306 59.6854 55.648 57.8134 55.648ZM57.8134 51.814C60.1534 51.814 62.0614 51.094 63.5374 49.654C65.0134 48.214 65.7514 46.018 65.7514 43.066V39.07C65.7514 36.118 65.0134 33.922 63.5374 32.482C62.0614 31.042 60.1534 30.322 57.8134 30.322C55.4734 30.322 53.5654 31.042 52.0894 32.482C50.6134 33.922 49.8754 36.118 49.8754 39.07V43.066C49.8754 46.018 50.6134 48.214 52.0894 49.654C53.5654 51.094 55.4734 51.814 57.8134 51.814ZM74.3205 27.136H78.5325L81.5025 39.178L84.4725 51.382H84.5805L87.9825 39.178L91.4925 27.136H95.3265L98.9445 39.178L102.4 51.382H102.508L105.37 39.178L108.394 27.136H112.444L105.046 55H99.7005L95.8125 41.608L93.3825 33.13H93.2745L90.8985 41.608L87.0105 55H81.7725L74.3205 27.136ZM128.898 55.648C126.99 55.648 125.262 55.306 123.714 54.622C122.202 53.938 120.888 52.966 119.772 51.706C118.692 50.41 117.846 48.88 117.234 47.116C116.658 45.316 116.37 43.3 116.37 41.068C116.37 38.872 116.658 36.874 117.234 35.074C117.846 33.274 118.692 31.744 119.772 30.484C120.888 29.188 122.202 28.198 123.714 27.514C125.262 26.83 126.99 26.488 128.898 26.488C130.77 26.488 132.444 26.83 133.92 27.514C135.396 28.198 136.656 29.152 137.7 30.376C138.744 31.564 139.536 32.986 140.076 34.642C140.652 36.298 140.94 38.116 140.94 40.096V42.148H120.906V43.444C120.906 44.632 121.086 45.748 121.446 46.792C121.842 47.8 122.382 48.682 123.066 49.438C123.786 50.194 124.65 50.788 125.658 51.22C126.702 51.652 127.872 51.868 129.168 51.868C130.932 51.868 132.462 51.454 133.758 50.626C135.09 49.798 136.116 48.61 136.836 47.062L139.914 49.276C139.014 51.184 137.61 52.732 135.702 53.92C133.794 55.072 131.526 55.648 128.898 55.648ZM128.898 30.106C127.71 30.106 126.63 30.322 125.658 30.754C124.686 31.15 123.84 31.726 123.12 32.482C122.436 33.238 121.896 34.138 121.5 35.182C121.104 36.19 120.906 37.306 120.906 38.53V38.908H136.296V38.314C136.296 35.83 135.612 33.85 134.244 32.374C132.912 30.862 131.13 30.106 128.898 30.106ZM148.059 55V27.136H152.379V32.266H152.649C153.153 30.934 154.053 29.746 155.349 28.702C156.645 27.658 158.427 27.136 160.695 27.136H162.369V31.456H159.831C157.491 31.456 155.655 31.906 154.323 32.806C153.027 33.67 152.379 34.768 152.379 36.1V55H148.059ZM178.099 55.648C176.191 55.648 174.463 55.306 172.915 54.622C171.403 53.938 170.089 52.966 168.973 51.706C167.893 50.41 167.047 48.88 166.435 47.116C165.859 45.316 165.571 43.3 165.571 41.068C165.571 38.872 165.859 36.874 166.435 35.074C167.047 33.274 167.893 31.744 168.973 30.484C170.089 29.188 171.403 28.198 172.915 27.514C174.463 26.83 176.191 26.488 178.099 26.488C179.971 26.488 181.645 26.83 183.121 27.514C184.597 28.198 185.857 29.152 186.901 30.376C187.945 31.564 188.737 32.986 189.277 34.642C189.853 36.298 190.141 38.116 190.141 40.096V42.148H170.107V43.444C170.107 44.632 170.287 45.748 170.647 46.792C171.043 47.8 171.583 48.682 172.267 49.438C172.987 50.194 173.851 50.788 174.859 51.22C175.903 51.652 177.073 51.868 178.369 51.868C180.133 51.868 181.663 51.454 182.959 50.626C184.291 49.798 185.317 48.61 186.037 47.062L189.115 49.276C188.215 51.184 186.811 52.732 184.903 53.92C182.995 55.072 180.727 55.648 178.099 55.648ZM178.099 30.106C176.911 30.106 175.831 30.322 174.859 30.754C173.887 31.15 173.041 31.726 172.321 32.482C171.637 33.238 171.097 34.138 170.701 35.182C170.305 36.19 170.107 37.306 170.107 38.53V38.908H185.497V38.314C185.497 35.83 184.813 33.85 183.445 32.374C182.113 30.862 180.331 30.106 178.099 30.106ZM215.08 50.464H214.864C213.172 53.92 210.454 55.648 206.71 55.648C204.982 55.648 203.416 55.306 202.012 54.622C200.608 53.938 199.402 52.966 198.394 51.706C197.422 50.446 196.666 48.916 196.126 47.116C195.622 45.316 195.37 43.3 195.37 41.068C195.37 38.836 195.622 36.82 196.126 35.02C196.666 33.22 197.422 31.69 198.394 30.43C199.402 29.17 200.608 28.198 202.012 27.514C203.416 26.83 204.982 26.488 206.71 26.488C208.654 26.488 210.31 26.92 211.678 27.784C213.082 28.612 214.144 29.908 214.864 31.672H215.08V15.04H219.4V55H215.08V50.464ZM207.898 51.76C208.87 51.76 209.788 51.634 210.652 51.382C211.552 51.13 212.326 50.77 212.974 50.302C213.622 49.798 214.126 49.204 214.486 48.52C214.882 47.8 215.08 46.99 215.08 46.09V35.722C215.08 34.966 214.882 34.264 214.486 33.616C214.126 32.932 213.622 32.356 212.974 31.888C212.326 31.42 211.552 31.06 210.652 30.808C209.788 30.52 208.87 30.376 207.898 30.376C205.45 30.376 203.524 31.15 202.12 32.698C200.716 34.21 200.014 36.208 200.014 38.692V43.444C200.014 45.928 200.716 47.944 202.12 49.492C203.524 51.004 205.45 51.76 207.898 51.76ZM241.346 15.04H245.666V31.672H245.882C246.602 29.908 247.646 28.612 249.014 27.784C250.418 26.92 252.092 26.488 254.036 26.488C255.764 26.488 257.33 26.83 258.734 27.514C260.138 28.198 261.326 29.17 262.298 30.43C263.306 31.69 264.062 33.22 264.566 35.02C265.106 36.82 265.376 38.836 265.376 41.068C265.376 43.3 265.106 45.316 264.566 47.116C264.062 48.916 263.306 50.446 262.298 51.706C261.326 52.966 260.138 53.938 258.734 54.622C257.33 55.306 255.764 55.648 254.036 55.648C250.256 55.648 247.538 53.92 245.882 50.464H245.666V55H241.346V15.04ZM252.848 51.76C255.296 51.76 257.222 51.004 258.626 49.492C260.03 47.944 260.732 45.928 260.732 43.444V38.692C260.732 36.208 260.03 34.21 258.626 32.698C257.222 31.15 255.296 30.376 252.848 30.376C251.876 30.376 250.94 30.52 250.04 30.808C249.176 31.06 248.42 31.42 247.772 31.888C247.124 32.356 246.602 32.932 246.206 33.616C245.846 34.264 245.666 34.966 245.666 35.722V46.09C245.666 46.99 245.846 47.8 246.206 48.52C246.602 49.204 247.124 49.798 247.772 50.302C248.42 50.77 249.176 51.13 250.04 51.382C250.94 51.634 251.876 51.76 252.848 51.76ZM289.578 27.136H293.844L281.37 61.48C281.046 62.308 280.722 62.992 280.398 63.532C280.074 64.108 279.678 64.558 279.21 64.882C278.742 65.206 278.148 65.44 277.428 65.584C276.744 65.728 275.898 65.8 274.89 65.8H272.676V62.02H277.05L279.156 56.08L268.734 27.136H273.054L279.75 46.09L281.046 50.626H281.316L282.828 46.09L289.578 27.136Z" fill="#A6A6A6"/>
<g clip-path="url(#clip0)">
<path d="M505.905 41.0864C510.057 36.4523 514.18 31.8514 518.381 27.1623H517.766C516.937 27.1623 516.107 27.1626 515.278 27.1628C512.299 27.1637 509.319 27.1646 506.34 27.1541C505.968 27.1526 505.729 27.2725 505.491 27.5498C503.728 29.6062 501.961 31.6589 500.194 33.7117L500.192 33.7138C498.928 35.183 497.663 36.6522 496.4 38.1228C496.354 38.1757 496.317 38.236 496.282 38.2981L496.028 38.5944C495.974 38.5567 495.921 38.5189 495.868 38.4813V13.5H485.73V57.4291H495.899V43.6765C495.939 43.6656 495.98 43.6547 496.02 43.6436C496.035 43.6627 496.05 43.6816 496.065 43.7004C496.078 43.7163 496.091 43.7321 496.103 43.748C496.117 43.7653 496.131 43.7826 496.145 43.8L504.348 55.0075L504.967 55.8542C505.271 56.271 505.576 56.6878 505.88 57.1049C506.067 57.3619 506.261 57.4657 506.585 57.4648C509.679 57.4554 512.773 57.4561 515.867 57.4568C516.677 57.457 517.488 57.4572 518.298 57.4572H518.938C514.55 51.9455 510.233 46.5238 505.905 41.0864Z" fill="#FF6771"/>
<path fill-rule="evenodd" clip-rule="evenodd" d="M349.116 17.391V16.774H338.477V17.3791C338.477 19.0418 338.477 20.7045 338.477 22.3672V22.3674C338.477 24.0303 338.477 25.6934 338.477 27.3563H321.473L321.474 24.868C321.474 22.3741 321.474 19.8803 321.474 17.3863V16.7873H310.87C310.867 16.8314 310.864 16.8715 310.86 16.9089C310.854 16.9799 310.848 17.0414 310.848 17.1028C310.848 19.4845 310.844 21.8662 310.84 24.248V24.2489C310.838 25.2847 310.837 26.3205 310.835 27.3563H308V32.3833H310.835C310.838 35.1056 310.845 37.8279 310.868 40.5499C310.914 45.9273 313.153 50.3833 317.303 53.7463C323.287 58.5955 330.044 59.6265 337.257 56.9736C344.087 54.4617 349.208 47.9125 349.132 39.9347C349.108 37.4177 349.099 34.9005 349.096 32.3833H351.965V27.3563H349.099C349.101 26.389 349.103 25.4217 349.106 24.4545V24.4534C349.111 22.0993 349.116 19.7452 349.116 17.391ZM338.865 39.7002C338.865 40.281 338.833 40.8664 338.754 41.4417C338.06 46.5343 332.448 49.8495 327.48 48.1119C323.846 46.8408 321.568 43.7067 321.566 39.9437C321.564 37.7619 321.564 35.5803 321.564 33.3985L321.564 32.2084H338.869L338.868 33.716C338.868 35.7107 338.867 37.7054 338.865 39.7002Z" fill="#FF6771"/>
<path fill-rule="evenodd" clip-rule="evenodd" d="M411.497 50.825C407.042 44.7686 407.724 36.9065 413.05 31.42C420.474 23.7712 433.568 24.5229 440.046 32.9699C444.724 39.069 444.087 47.4303 438.531 52.8582C435.169 56.1433 430.663 57.9473 424.679 57.9324C419.96 57.7776 415.025 55.621 411.497 50.825ZM425.998 49.5122C422.006 49.4277 418.77 46.1977 418.849 42.376C418.927 38.5651 422.311 35.3957 426.206 35.4842C430.184 35.5746 433.436 38.8603 433.345 42.6964C433.256 46.4171 429.833 49.5933 425.998 49.5122Z" fill="#FF6771"/>
<path d="M384.74 30.1567C386.852 32.4441 387.938 35.2136 388.302 38.2781C388.413 39.2134 388.436 40.1633 388.439 41.1067C388.448 45.037 388.447 48.9674 388.445 52.8977V52.9038C388.445 54.2423 388.445 55.5807 388.445 56.9191V57.4644H378.269V56.8876C378.269 55.4194 378.27 53.9512 378.27 52.4831C378.271 48.8726 378.272 45.2622 378.267 41.6518C378.264 39.1553 377.232 37.1998 375.041 35.9949C371.681 34.148 367.562 36.0349 366.587 39.8372C366.407 40.5415 366.335 41.2919 366.332 42.0216C366.316 45.7434 366.318 49.4653 366.32 53.1874V53.1907C366.32 54.402 366.321 55.6134 366.321 56.8247V57.4648H356.174V27.0143C356.222 27.0101 356.269 27.0048 356.315 26.9997C356.411 26.9889 356.504 26.9785 356.597 26.9785C357.414 26.9779 358.232 26.978 359.049 26.9781C360.912 26.9784 362.775 26.9787 364.639 26.9699C364.989 26.9683 365.13 27.0537 365.181 27.43C365.287 28.2271 365.422 29.0205 365.557 29.8139L365.557 29.8149C365.609 30.1244 365.662 30.4338 365.712 30.7435C365.738 30.7573 365.764 30.7711 365.79 30.7849C365.816 30.7988 365.843 30.8127 365.869 30.8266C365.879 30.8035 365.888 30.7795 365.897 30.7555C365.917 30.7034 365.937 30.6514 365.968 30.6085C368.232 27.5521 371.332 26.1655 375.055 26.129C378.836 26.0919 382.134 27.3335 384.74 30.1567Z" fill="#FF6771"/>
<path d="M471.368 44.9784C471.228 44.9789 471.028 45.1263 470.959 45.2582C469.813 47.4484 468.023 48.6929 465.538 48.9908C461.518 49.4726 457.796 46.3614 457.642 42.3616C457.486 38.3458 460.618 34.9807 464.668 34.9558C467.481 34.9385 469.664 36.1405 470.945 38.7078C471.086 38.9905 471.262 39.0029 471.51 39.0025C473.996 39.0001 476.482 39.0003 478.968 39.0005H478.975C479.655 39.0005 480.334 39.0006 481.014 39.0006H481.459C481.214 37.3474 480.715 35.8487 479.899 34.4756C476.829 29.3092 472.143 26.6526 466.207 26.1906C461.096 25.7929 456.527 27.2966 452.678 30.6905C449.469 33.52 447.61 37.0689 447.398 41.3474C447.188 45.5593 448.647 49.2213 451.548 52.2789C456.831 57.8463 465.29 59.4978 472.327 56.3548C476.295 54.5826 479.25 51.7937 480.782 47.687C481.002 47.0993 481.153 46.4868 481.305 45.8753L481.305 45.8745C481.375 45.5928 481.444 45.3113 481.521 45.0325C481.487 45.0231 481.46 45.0149 481.436 45.0079C481.415 45.0014 481.397 44.9959 481.382 44.9913C481.339 44.9778 481.321 44.9723 481.303 44.9723L480.248 44.9713C477.288 44.9686 474.328 44.9658 471.368 44.9784Z" fill="#FF6771"/>
<path d="M404.816 57.4648H394.526V13.5H404.816V57.4648Z" fill="#FF6771"/>
</g>
<defs>
<clipPath id="clip0">
<rect width="210.938" height="45" fill="white" transform="translate(308 13.5)"/>
</clipPath>
</defs>
</svg>
