<svg width="512" height="512" viewBox="0 0 512 512" fill="none" xmlns="http://www.w3.org/2000/svg">
<rect width="512" height="512" fill="#FFF7E8"/>
<path d="M388 222.045V249.026H124V222.045H388ZM313.169 129H358.954V293.096C358.954 311.084 354.687 326.905 346.154 340.559C337.621 354.213 325.682 364.883 310.338 372.569C294.995 380.172 277.067 383.974 256.554 383.974C236.041 383.974 218.113 380.172 202.769 372.569C187.426 364.883 175.487 354.213 166.954 340.559C158.503 326.905 154.277 311.084 154.277 293.096V129H199.938V289.294C199.938 299.76 202.236 309.08 206.831 317.257C211.508 325.433 218.072 331.851 226.523 336.512C235.056 341.09 245.067 343.38 256.554 343.38C268.123 343.38 278.133 341.09 286.585 336.512C295.118 331.851 301.682 325.433 306.277 317.257C310.872 309.08 313.169 299.76 313.169 289.294V129Z" fill="black"/>
</svg>
