<svg width="466" height="102" viewBox="0 0 466 102" fill="none" xmlns="http://www.w3.org/2000/svg">
<path d="M105.154 37.2217V48.0154H0V37.2217H105.154ZM75.3483 0H93.5848V65.645C93.5848 72.8408 91.8854 79.1698 88.4864 84.632C85.0875 90.0943 80.3323 94.3627 74.2208 97.4372C68.1092 100.479 60.9682 102 52.7977 102C44.6272 102 37.4862 100.479 31.3747 97.4372C25.2632 94.3627 20.5079 90.0943 17.109 84.632C13.7428 79.1698 12.0596 72.8408 12.0596 65.645V0H30.2472V64.1241C30.2472 68.3107 31.1623 72.0394 32.9925 75.3102C34.8553 78.581 37.4699 81.1486 40.8361 83.013C44.2351 84.8447 48.2223 85.7605 52.7977 85.7605C57.4059 85.7605 61.3931 84.8447 64.7593 83.013C68.1583 81.1486 70.7728 78.581 72.603 75.3102C74.4332 72.0394 75.3483 68.3107 75.3483 64.1241V0Z" fill="black"/>
<path d="M134.23 56.3232V100.479H116.483V25.1198H133.445V37.925H134.328C136.06 33.7056 138.821 30.3531 142.613 27.8673C146.436 25.3814 151.159 24.1385 156.78 24.1385C161.977 24.1385 166.503 25.2506 170.359 27.4747C174.249 29.6989 177.255 32.9206 179.38 37.14C181.537 41.3593 182.599 46.4781 182.566 52.4964V100.479H164.82V55.2439C164.82 50.2068 163.513 46.2655 160.898 43.4199C158.316 40.5743 154.738 39.1515 150.162 39.1515C147.057 39.1515 144.296 39.8384 141.877 41.2121C139.491 42.5532 137.612 44.4993 136.24 47.0505C134.9 49.6017 134.23 52.6926 134.23 56.3232Z" fill="black"/>
<path d="M216.91 0V100.479H199.164V0H216.91Z" fill="black"/>
<path d="M266.562 101.951C259.208 101.951 252.835 100.332 247.443 97.0938C242.05 93.8557 237.867 89.3256 234.893 83.5036C231.951 77.6816 230.481 70.8783 230.481 63.0938C230.481 55.3093 231.951 48.4897 234.893 42.6349C237.867 36.7802 242.05 32.2338 247.443 28.9957C252.835 25.7576 259.208 24.1385 266.562 24.1385C273.915 24.1385 280.288 25.7576 285.681 28.9957C291.073 32.2338 295.24 36.7802 298.182 42.6349C301.156 48.4897 302.643 55.3093 302.643 63.0938C302.643 70.8783 301.156 77.6816 298.182 83.5036C295.24 89.3256 291.073 93.8557 285.681 97.0938C280.288 100.332 273.915 101.951 266.562 101.951ZM266.66 87.7229C270.647 87.7229 273.98 86.6272 276.66 84.4358C279.34 82.2116 281.334 79.2352 282.641 75.5065C283.981 71.7778 284.651 67.6239 284.651 63.0447C284.651 58.4329 283.981 54.2626 282.641 50.5339C281.334 46.7725 279.34 43.7797 276.66 41.5556C273.98 39.3314 270.647 38.2193 266.66 38.2193C262.575 38.2193 259.176 39.3314 256.463 41.5556C253.783 43.7797 251.773 46.7725 250.433 50.5339C249.126 54.2626 248.472 58.4329 248.472 63.0447C248.472 67.6239 249.126 71.7778 250.433 75.5065C251.773 79.2352 253.783 82.2116 256.463 84.4358C259.176 86.6272 262.575 87.7229 266.66 87.7229Z" fill="black"/>
<path d="M349.108 101.951C341.591 101.951 335.136 100.299 329.743 96.9957C324.384 93.6922 320.249 89.1294 317.341 83.3074C314.465 77.4526 313.027 70.7148 313.027 63.0938C313.027 55.4401 314.497 48.6859 317.439 42.8312C320.38 36.9437 324.531 32.3646 329.891 29.0938C335.283 25.7903 341.656 24.1385 349.009 24.1385C355.121 24.1385 360.53 25.267 365.236 27.5238C369.975 29.748 373.75 32.9043 376.56 36.9928C379.371 41.0486 380.972 45.7912 381.365 51.2208H364.403C363.716 47.5902 362.082 44.5647 359.5 42.1443C356.951 39.6912 353.536 38.4646 349.255 38.4646C345.627 38.4646 342.44 39.4459 339.695 41.4084C336.95 43.3382 334.809 46.1183 333.273 49.7489C331.77 53.3795 331.018 57.7297 331.018 62.7994C331.018 67.9346 331.77 72.3502 333.273 76.0462C334.777 79.7095 336.884 82.5387 339.597 84.5339C342.342 86.4964 345.562 87.4776 349.255 87.4776C351.869 87.4776 354.206 86.987 356.265 86.0058C358.357 84.9918 360.105 83.5363 361.51 81.6393C362.916 79.7422 363.88 77.4363 364.403 74.7215H381.365C380.94 80.0529 379.371 84.7792 376.658 88.9004C373.946 92.9889 370.253 96.1943 365.579 98.5166C360.906 100.806 355.415 101.951 349.108 101.951Z" fill="black"/>
<path d="M409.279 76.8312L409.23 55.3911H412.073L439.133 25.1198H459.87L426.584 62.2107H422.907L409.279 76.8312ZM393.101 100.479V0H410.847V100.479H393.101ZM440.359 100.479L415.848 66.1847L427.809 53.6739L461.586 100.479H440.359Z" fill="black"/>
</svg>
