<svg width="57" height="56" viewBox="0 0 57 56" fill="none" xmlns="http://www.w3.org/2000/svg">
<mask id="mask0_9281_15719" style="mask-type:luminance" maskUnits="userSpaceOnUse" x="0" y="0" width="57" height="56">
<path d="M56.4111 0H0.411133V56H56.4111V0Z" fill="white"/>
</mask>
<g mask="url(#mask0_9281_15719)">
<path d="M28.4111 0V4H24.4111V0H28.4111Z" fill="black" fill-opacity="0.92" stroke="black" stroke-opacity="0.92" stroke-width="2"/>
<path d="M32.4111 0V4H28.4111V0H32.4111Z" fill="black" fill-opacity="0.92" stroke="black" stroke-opacity="0.92" stroke-width="2"/>
<path d="M28.4111 12V16H24.4111V12H28.4111Z" fill="black" fill-opacity="0.92" stroke="black" stroke-opacity="0.92" stroke-width="2"/>
<path d="M24.4111 4V8H20.4111V4H24.4111Z" fill="black" fill-opacity="0.92" stroke="black" stroke-opacity="0.92" stroke-width="2"/>
<path d="M28.4111 0V4H24.4111V0H28.4111Z" fill="black" fill-opacity="0.92" stroke="black" stroke-opacity="0.92" stroke-width="2"/>
<path d="M32.4111 16V20H28.4111V16H32.4111Z" fill="black" fill-opacity="0.92" stroke="black" stroke-opacity="0.92" stroke-width="2"/>
<path d="M32.4111 8V12H28.4111V8H32.4111Z" fill="black" fill-opacity="0.92" stroke="black" stroke-opacity="0.92" stroke-width="2"/>
<path d="M36.4111 4V8H32.4111V4H36.4111Z" fill="black" fill-opacity="0.92" stroke="black" stroke-opacity="0.92" stroke-width="2"/>
<path d="M28.4111 24V28H24.4111V24H28.4111Z" fill="black" fill-opacity="0.92" stroke="black" stroke-opacity="0.92" stroke-width="2"/>
<path d="M32.4111 20V24H28.4111V20H32.4111Z" fill="black" fill-opacity="0.92" stroke="black" stroke-opacity="0.92" stroke-width="2"/>
<path d="M24.4111 12V16H20.4111V12H24.4111Z" fill="black" fill-opacity="0.92" stroke="black" stroke-opacity="0.92" stroke-width="2"/>
<path d="M28.4111 8V12H24.4111V8H28.4111Z" fill="black" fill-opacity="0.92" stroke="black" stroke-opacity="0.92" stroke-width="2"/>
<path d="M36.4111 12V16H32.4111V12H36.4111Z" fill="black" fill-opacity="0.92" stroke="black" stroke-opacity="0.92" stroke-width="2"/>
<path d="M24.4111 16V20H20.4111V16H24.4111Z" fill="black" fill-opacity="0.92" stroke="black" stroke-opacity="0.92" stroke-width="2"/>
<path d="M40.4111 28V32H36.4111V28H40.4111Z" fill="black" fill-opacity="0.92" stroke="black" stroke-opacity="0.92" stroke-width="2"/>
<path d="M32.4111 28V32H28.4111V28H32.4111Z" fill="black" fill-opacity="0.92" stroke="black" stroke-opacity="0.92" stroke-width="2"/>
<path d="M32.4111 12V16H28.4111V12H32.4111Z" fill="black" fill-opacity="0.92" stroke="black" stroke-opacity="0.92" stroke-width="2"/>
<path d="M24.4111 20V24H20.4111V20H24.4111Z" fill="black" fill-opacity="0.92" stroke="black" stroke-opacity="0.92" stroke-width="2"/>
<path d="M28.4111 16V20H24.4111V16H28.4111Z" fill="black" fill-opacity="0.92" stroke="black" stroke-opacity="0.92" stroke-width="2"/>
<path d="M36.4111 16V20H32.4111V16H36.4111Z" fill="black" fill-opacity="0.92" stroke="black" stroke-opacity="0.92" stroke-width="2"/>
<path d="M36.4111 20V24H32.4111V20H36.4111Z" fill="black" fill-opacity="0.92" stroke="black" stroke-opacity="0.92" stroke-width="2"/>
<path d="M20.4111 32V36H16.4111V32H20.4111Z" fill="black" fill-opacity="0.92" stroke="black" stroke-opacity="0.92" stroke-width="2"/>
<path d="M28.4111 28V32H24.4111V28H28.4111Z" fill="black" fill-opacity="0.92" stroke="black" stroke-opacity="0.92" stroke-width="2"/>
<path d="M24.4111 24V28H20.4111V24H24.4111Z" fill="black" fill-opacity="0.92" stroke="black" stroke-opacity="0.92" stroke-width="2"/>
<path d="M20.4111 24V28H16.4111V24H20.4111Z" fill="black" fill-opacity="0.92" stroke="black" stroke-opacity="0.92" stroke-width="2"/>
<path d="M28.4111 20V24H24.4111V20H28.4111Z" fill="black" fill-opacity="0.92" stroke="black" stroke-opacity="0.92" stroke-width="2"/>
<path d="M24.4111 28V32H20.4111V28H24.4111Z" fill="black" fill-opacity="0.92" stroke="black" stroke-opacity="0.92" stroke-width="2"/>
<path d="M4.41113 28V32H0.411133V28H4.41113Z" fill="black" fill-opacity="0.92" stroke="black" stroke-opacity="0.92" stroke-width="2"/>
<path d="M44.4111 32V36H40.4111V32H44.4111Z" fill="black" fill-opacity="0.92" stroke="black" stroke-opacity="0.92" stroke-width="2"/>
<path d="M32.4111 24V28H28.4111V24H32.4111Z" fill="black" fill-opacity="0.92" stroke="black" stroke-opacity="0.92" stroke-width="2"/>
<path d="M36.4111 24V28H32.4111V24H36.4111Z" fill="black" fill-opacity="0.92" stroke="black" stroke-opacity="0.92" stroke-width="2"/>
<path d="M16.4111 36V40H12.4111V36H16.4111Z" fill="black" fill-opacity="0.92" stroke="black" stroke-opacity="0.92" stroke-width="2"/>
<path d="M16.4111 28V32H12.4111V28H16.4111Z" fill="black" fill-opacity="0.92" stroke="black" stroke-opacity="0.92" stroke-width="2"/>
<path d="M20.4111 28V32H16.4111V28H20.4111Z" fill="black" fill-opacity="0.92" stroke="black" stroke-opacity="0.92" stroke-width="2"/>
<path d="M48.4111 36V40H44.4111V36H48.4111Z" fill="black" fill-opacity="0.92" stroke="black" stroke-opacity="0.92" stroke-width="2"/>
<path d="M56.4111 28V32H52.4111V28H56.4111Z" fill="black" fill-opacity="0.92" stroke="black" stroke-opacity="0.92" stroke-width="2"/>
<path d="M36.4111 28V32H32.4111V28H36.4111Z" fill="black" fill-opacity="0.92" stroke="black" stroke-opacity="0.92" stroke-width="2"/>
<path d="M40.4111 24V28H36.4111V24H40.4111Z" fill="black" fill-opacity="0.92" stroke="black" stroke-opacity="0.92" stroke-width="2"/>
<path d="M40.4111 40V44H36.4111V40H40.4111Z" fill="black" fill-opacity="0.92" stroke="black" stroke-opacity="0.92" stroke-width="2"/>
<path d="M56.4111 32V36H52.4111V32H56.4111Z" fill="black" fill-opacity="0.92" stroke="black" stroke-opacity="0.92" stroke-width="2"/>
<path d="M36.4111 32V36H32.4111V32H36.4111Z" fill="black" fill-opacity="0.92" stroke="black" stroke-opacity="0.92" stroke-width="2"/>
<path d="M40.4111 32V36H36.4111V32H40.4111Z" fill="black" fill-opacity="0.92" stroke="black" stroke-opacity="0.92" stroke-width="2"/>
<path d="M24.4111 32V36H20.4111V32H24.4111Z" fill="black" fill-opacity="0.92" stroke="black" stroke-opacity="0.92" stroke-width="2"/>
<path d="M16.4111 32V36H12.4111V32H16.4111Z" fill="black" fill-opacity="0.92" stroke="black" stroke-opacity="0.92" stroke-width="2"/>
<path d="M8.41113 40V44H4.41113V40H8.41113Z" fill="black" fill-opacity="0.92" stroke="black" stroke-opacity="0.92" stroke-width="2"/>
<path d="M12.4111 36V40H8.41113V36H12.4111Z" fill="black" fill-opacity="0.92" stroke="black" stroke-opacity="0.92" stroke-width="2"/>
<path d="M4.41113 32V36H0.411133V32H4.41113Z" fill="black" fill-opacity="0.92" stroke="black" stroke-opacity="0.92" stroke-width="2"/>
<path d="M44.4111 28V32H40.4111V28H44.4111Z" fill="black" fill-opacity="0.92" stroke="black" stroke-opacity="0.92" stroke-width="2"/>
<path d="M48.4111 32V36H44.4111V32H48.4111Z" fill="black" fill-opacity="0.92" stroke="black" stroke-opacity="0.92" stroke-width="2"/>
<path d="M52.4111 40V44H48.4111V40H52.4111Z" fill="black" fill-opacity="0.92" stroke="black" stroke-opacity="0.92" stroke-width="2"/>
<path d="M40.4111 36V40H36.4111V36H40.4111Z" fill="black" fill-opacity="0.92" stroke="black" stroke-opacity="0.92" stroke-width="2"/>
<path d="M44.4111 36V40H40.4111V36H44.4111Z" fill="black" fill-opacity="0.92" stroke="black" stroke-opacity="0.92" stroke-width="2"/>
<path d="M56.4111 36V40H52.4111V36H56.4111Z" fill="black" fill-opacity="0.92" stroke="black" stroke-opacity="0.92" stroke-width="2"/>
<path d="M8.41113 36V40H4.41113V36H8.41113Z" fill="black" fill-opacity="0.92" stroke="black" stroke-opacity="0.92" stroke-width="2"/>
<path d="M20.4111 40V44H16.4111V40H20.4111Z" fill="black" fill-opacity="0.92" stroke="black" stroke-opacity="0.92" stroke-width="2"/>
<path d="M12.4111 32V36H8.41113V32H12.4111Z" fill="black" fill-opacity="0.92" stroke="black" stroke-opacity="0.92" stroke-width="2"/>
<path d="M4.41113 36V40H0.411133V36H4.41113Z" fill="black" fill-opacity="0.92" stroke="black" stroke-opacity="0.92" stroke-width="2"/>
<path d="M4.41113 44V48H0.411133V44H4.41113Z" fill="black" fill-opacity="0.92" stroke="black" stroke-opacity="0.92" stroke-width="2"/>
<path d="M12.4111 40V44H8.41113V40H12.4111Z" fill="black" fill-opacity="0.92" stroke="black" stroke-opacity="0.92" stroke-width="2"/>
<path d="M16.4111 40V44H12.4111V40H16.4111Z" fill="black" fill-opacity="0.92" stroke="black" stroke-opacity="0.92" stroke-width="2"/>
<path d="M40.4111 44V48H36.4111V44H40.4111Z" fill="black" fill-opacity="0.92" stroke="black" stroke-opacity="0.92" stroke-width="2"/>
<path d="M44.4111 40V44H40.4111V40H44.4111Z" fill="black" fill-opacity="0.92" stroke="black" stroke-opacity="0.92" stroke-width="2"/>
<path d="M52.4111 36V40H48.4111V36H52.4111Z" fill="black" fill-opacity="0.92" stroke="black" stroke-opacity="0.92" stroke-width="2"/>
<path d="M52.4111 44V48H48.4111V44H52.4111Z" fill="black" fill-opacity="0.92" stroke="black" stroke-opacity="0.92" stroke-width="2"/>
<path d="M20.4111 48V52H16.4111V48H20.4111Z" fill="black" fill-opacity="0.92" stroke="black" stroke-opacity="0.92" stroke-width="2"/>
<path d="M44.4111 48V52H40.4111V48H44.4111Z" fill="black" fill-opacity="0.92" stroke="black" stroke-opacity="0.92" stroke-width="2"/>
<path d="M56.4111 40V44H52.4111V40H56.4111Z" fill="black" fill-opacity="0.92" stroke="black" stroke-opacity="0.92" stroke-width="2"/>
<path d="M56.4111 48V52H52.4111V48H56.4111Z" fill="black" fill-opacity="0.92" stroke="black" stroke-opacity="0.92" stroke-width="2"/>
<path d="M16.4111 40V44H12.4111V40H16.4111Z" fill="black" fill-opacity="0.92" stroke="black" stroke-opacity="0.92" stroke-width="2"/>
<path d="M16.4111 52V56H12.4111V52H16.4111Z" fill="black" fill-opacity="0.92" stroke="black" stroke-opacity="0.92" stroke-width="2"/>
<path d="M20.4111 36V40H16.4111V36H20.4111Z" fill="black" fill-opacity="0.92" stroke="black" stroke-opacity="0.92" stroke-width="2"/>
<path d="M4.41113 52V56H0.411133V52H4.41113Z" fill="black" fill-opacity="0.92" stroke="black" stroke-opacity="0.92" stroke-width="2"/>
<path d="M12.4111 48V52H8.41113V48H12.4111Z" fill="black" fill-opacity="0.92" stroke="black" stroke-opacity="0.92" stroke-width="2"/>
<path d="M8.41113 44V48H4.41113V44H8.41113Z" fill="black" fill-opacity="0.92" stroke="black" stroke-opacity="0.92" stroke-width="2"/>
<path d="M20.4111 44V48H16.4111V44H20.4111Z" fill="black" fill-opacity="0.92" stroke="black" stroke-opacity="0.92" stroke-width="2"/>
<path d="M48.4111 40V44H44.4111V40H48.4111Z" fill="black" fill-opacity="0.92" stroke="black" stroke-opacity="0.92" stroke-width="2"/>
<path d="M44.4111 44V48H40.4111V44H44.4111Z" fill="black" fill-opacity="0.92" stroke="black" stroke-opacity="0.92" stroke-width="2"/>
<path d="M4.41113 40V44H0.411133V40H4.41113Z" fill="black" fill-opacity="0.92" stroke="black" stroke-opacity="0.92" stroke-width="2"/>
<path d="M40.4111 52V56H36.4111V52H40.4111Z" fill="black" fill-opacity="0.92" stroke="black" stroke-opacity="0.92" stroke-width="2"/>
<path d="M56.4111 44V48H52.4111V44H56.4111Z" fill="black" fill-opacity="0.92" stroke="black" stroke-opacity="0.92" stroke-width="2"/>
<path d="M52.4111 52V56H48.4111V52H52.4111Z" fill="black" fill-opacity="0.92" stroke="black" stroke-opacity="0.92" stroke-width="2"/>
<path d="M16.4111 44V48H12.4111V44H16.4111Z" fill="black" fill-opacity="0.92" stroke="black" stroke-opacity="0.92" stroke-width="2"/>
<path d="M12.4111 52V56H8.41113V52H12.4111Z" fill="black" fill-opacity="0.92" stroke="black" stroke-opacity="0.92" stroke-width="2"/>
<path d="M16.4111 48V52H12.4111V48H16.4111Z" fill="black" fill-opacity="0.92" stroke="black" stroke-opacity="0.92" stroke-width="2"/>
<path d="M8.41113 48V52H4.41113V48H8.41113Z" fill="black" fill-opacity="0.92" stroke="black" stroke-opacity="0.92" stroke-width="2"/>
<path d="M52.4111 48V52H48.4111V48H52.4111Z" fill="black" fill-opacity="0.92" stroke="black" stroke-opacity="0.92" stroke-width="2"/>
<path d="M20.4111 44V48H16.4111V44H20.4111Z" fill="black" fill-opacity="0.92" stroke="black" stroke-opacity="0.92" stroke-width="2"/>
<path d="M56.4111 44V48H52.4111V44H56.4111Z" fill="black" fill-opacity="0.92" stroke="black" stroke-opacity="0.92" stroke-width="2"/>
<path d="M4.41113 48V52H0.411133V48H4.41113Z" fill="black" fill-opacity="0.92" stroke="black" stroke-opacity="0.92" stroke-width="2"/>
<path d="M48.4111 48V52H44.4111V48H48.4111Z" fill="black" fill-opacity="0.92" stroke="black" stroke-opacity="0.92" stroke-width="2"/>
<path d="M40.4111 48V52H36.4111V48H40.4111Z" fill="black" fill-opacity="0.92" stroke="black" stroke-opacity="0.92" stroke-width="2"/>
<path d="M8.41113 52V56H4.41113V52H8.41113Z" fill="black" fill-opacity="0.92" stroke="black" stroke-opacity="0.92" stroke-width="2"/>
<path d="M20.4111 52V56H16.4111V52H20.4111Z" fill="black" fill-opacity="0.92" stroke="black" stroke-opacity="0.92" stroke-width="2"/>
<path d="M44.4111 52V56H40.4111V52H44.4111Z" fill="black" fill-opacity="0.92" stroke="black" stroke-opacity="0.92" stroke-width="2"/>
<path d="M56.4111 52V56H52.4111V52H56.4111Z" fill="black" fill-opacity="0.92" stroke="black" stroke-opacity="0.92" stroke-width="2"/>
<path d="M48.4111 52V56H44.4111V52H48.4111Z" fill="black" fill-opacity="0.92" stroke="black" stroke-opacity="0.92" stroke-width="2"/>
</g>
</svg>
