<svg width="20" height="20" viewBox="0 0 20 20"  xmlns="http://www.w3.org/2000/svg">
<path fill-rule="evenodd" clip-rule="evenodd" d="M12.5224 11.1214C12.545 10.9559 12.5542 10.7875 12.5544 10.6204C12.555 10.0458 12.5551 9.47123 12.5553 8.89667C12.5553 8.75283 12.5554 8.60899 12.5554 8.46515H7.577C7.577 8.57938 7.57701 8.69361 7.57702 8.80784C7.57705 9.43539 7.57708 10.0629 7.57756 10.6904C7.57828 11.773 8.23349 12.6746 9.27905 13.0403C10.7084 13.5401 12.3228 12.5864 12.5224 11.1214ZM15.5033 4.02499V4.20251C15.5033 4.87999 15.5018 5.55746 15.5002 6.23495C15.4996 6.51307 15.499 6.79119 15.4984 7.06932H16.3228V8.51547H15.4976C15.4982 9.23962 15.5008 9.96376 15.5078 10.6879C15.5298 12.9829 14.0565 14.867 12.0917 15.5896C10.0167 16.3528 8.07285 16.0562 6.35132 14.6612C5.15744 13.6937 4.5133 12.4118 4.50011 10.8648C4.49346 10.0818 4.49148 9.29863 4.49071 8.51547H3.67505V7.06932H4.49071C4.49111 6.77132 4.49161 6.47334 4.49211 6.17535C4.49326 5.49008 4.49441 4.80483 4.49433 4.11958C4.49433 4.10192 4.49596 4.08425 4.49784 4.06384C4.49883 4.05306 4.49989 4.04153 4.50082 4.02883H7.55131V4.20114L7.55103 7.06932H12.4427L12.4426 4.19906V4.02499H15.5033Z" />
</svg>
