<svg width="29" height="21" xmlns="http://www.w3.org/2000/svg">
<path fill-rule="evenodd" clip-rule="evenodd" d="M25.5666 4.25441L28.323 2.2889L27.0913 0.713135L0.851562 19.4244L2.08322 21.0002L11.1991 14.4997L11.9805 17.0001H15.6622L14.0002 12.5023L16.7071 10.5721V17.0001H21.3848C22.6153 16.9936 23.7286 16.7006 24.7247 16.1212C25.7273 15.5353 26.502 14.728 27.0489 13.6993C27.6023 12.6642 27.879 11.4956 27.879 10.1935V9.53919C27.8725 8.25013 27.586 7.08802 27.0196 6.05286C26.6381 5.34303 26.1537 4.74355 25.5666 4.25441ZM23.1255 5.99518L20.1348 8.12778V14.3634H21.3262C22.3093 14.3634 23.0645 14.0151 23.5919 13.3185C24.1192 12.6154 24.3829 11.5737 24.3829 10.1935V9.57825C24.3829 8.20456 24.1192 7.1694 23.5919 6.47278C23.4531 6.28946 23.2976 6.13026 23.1255 5.99518Z" fill="black"/>
<path d="M21.2872 2.78138C21.4226 2.78138 21.5565 2.78471 21.689 2.79136L16.7071 6.34394V2.78138H21.2872Z" fill="black"/>
<path d="M10.4083 2.78138L12.7637 9.15593L10.125 11.0376L8.79693 6.76575L7.27349 11.6974H9.19969L2.04419 16.7999L7.1856 2.78138H10.4083Z" fill="black"/>
</svg>
