<svg width="18" height="18"  xmlns="http://www.w3.org/2000/svg">
<path fill-rule="evenodd" clip-rule="evenodd" d="M1 0.5C0.723858 0.5 0.5 0.723858 0.5 1C0.5 1.27614 0.723858 1.5 1 1.5H3.25676L3.57448 3.08856L4.63961 9.74566C4.64063 9.75204 4.64178 9.75839 4.64304 9.76472L4.85482 10.8236C5.08853 11.9922 6.11457 12.8333 7.30627 12.8333H15.6667C15.9428 12.8333 16.1667 12.6095 16.1667 12.3333C16.1667 12.0572 15.9428 11.8333 15.6667 11.8333H7.30627C6.59125 11.8333 5.97563 11.3286 5.8354 10.6275L5.74324 10.1667H14.5234C15.8077 10.1667 16.8832 9.19343 17.011 7.91543L17.4975 3.04975C17.5116 2.90919 17.4655 2.76924 17.3707 2.6645C17.2759 2.55976 17.1413 2.5 17 2.5H4.47657L4.15696 0.901942C4.11021 0.66823 3.90501 0.5 3.66667 0.5H1ZM5.55969 9.16667L4.65303 3.5H16.4475L16.0159 7.81592C15.9392 8.58273 15.294 9.16667 14.5234 9.16667H5.55969ZM4.5 15.6667C4.5 14.6541 5.32081 13.8333 6.33333 13.8333C7.34585 13.8333 8.16667 14.6541 8.16667 15.6667C8.16667 16.6792 7.34585 17.5 6.33333 17.5C5.32081 17.5 4.5 16.6792 4.5 15.6667ZM6.33333 14.8333C5.8731 14.8333 5.5 15.2064 5.5 15.6667C5.5 16.1269 5.8731 16.5 6.33333 16.5C6.79357 16.5 7.16667 16.1269 7.16667 15.6667C7.16667 15.2064 6.79357 14.8333 6.33333 14.8333ZM12.5 15.6667C12.5 14.6541 13.3208 13.8333 14.3333 13.8333C15.3459 13.8333 16.1667 14.6541 16.1667 15.6667C16.1667 16.6792 15.3459 17.5 14.3333 17.5C13.3208 17.5 12.5 16.6792 12.5 15.6667ZM14.3333 14.8333C13.8731 14.8333 13.5 15.2064 13.5 15.6667C13.5 16.1269 13.8731 16.5 14.3333 16.5C14.7936 16.5 15.1667 16.1269 15.1667 15.6667C15.1667 15.2064 14.7936 14.8333 14.3333 14.8333Z" />
</svg>
