<svg width="24" height="24" xmlns="http://www.w3.org/2000/svg">
	<path fill-rule="evenodd" clip-rule="evenodd" d="M16.3541 14.9543C16.6002 15.2989 16.6565 15.7632 16.5088 16.2696L16.3892 16.6987C16.3611 16.7901 16.2767 16.8534 16.1852 16.8534H0.203986C0.119578 16.8534 0.049238 16.7901 0.03517 16.7057C0.014068 16.5299 0 16.354 0 16.1782C0 14.2016 1.56858 12.5979 3.53107 12.5416C3.46073 12.2602 3.43963 11.9578 3.46776 11.6483C3.58734 10.4455 4.551 9.48182 5.75381 9.36224C6.42908 9.29894 7.0551 9.49589 7.54748 9.86166C8.30716 7.61782 10.4314 6 12.9355 6C15.6507 6 17.9226 7.89918 18.4854 10.4455C18.4994 10.5018 18.4924 10.558 18.4713 10.6143L17.9719 11.9156C17.578 12.9425 16.4525 13.7796 15.4185 13.8288L6.6823 13.9414C6.59086 13.9484 6.50645 14.0117 6.47832 14.0961C6.46425 14.1524 6.47128 14.2087 6.49942 14.2509C6.52755 14.2931 6.57679 14.3212 6.63306 14.3212L15.2919 14.4337C15.7491 14.4549 16.129 14.6377 16.3541 14.9543ZM19.2661 10.7057H19.2661C21.8758 10.7057 24 12.83 24 15.4326C24 15.8757 23.9367 16.3048 23.8242 16.7128C23.8031 16.7901 23.7327 16.8394 23.6554 16.8394H17.0575C16.9801 16.8394 16.9309 16.769 16.959 16.6987L17.0997 16.34C17.4936 15.313 18.612 14.476 19.653 14.4267L21.5733 14.3142C21.6647 14.3071 21.7491 14.2438 21.7773 14.1594C21.7914 14.1102 21.7843 14.0469 21.7562 14.0047C21.728 13.9625 21.6788 13.9343 21.6225 13.9343L19.7796 13.8218C19.3224 13.8007 18.9426 13.6178 18.7175 13.3013C18.4713 12.9566 18.415 12.4924 18.5627 11.9859L18.9004 10.8112C18.9215 10.755 18.9707 10.7128 19.027 10.7128C19.1044 10.7057 19.1888 10.7057 19.2661 10.7057Z"/>
</svg>
