<svg width="24" height="24" viewBox="0 0 24 24"  xmlns="http://www.w3.org/2000/svg">
<path d="M17.9179 13.1667C18.5155 13.1667 19 12.6822 19 12.0846V11.917C19 11.3185 18.5148 10.8333 17.9164 10.8333C17.4111 10.8333 16.9841 10.4785 16.792 10.0111C16.7863 9.9971 16.7804 9.9831 16.7746 9.96913C16.5825 9.51315 16.6325 8.97161 16.9822 8.62167C17.3962 8.20749 17.3961 7.53614 16.9819 7.12213L16.8239 6.96415C16.4146 6.55495 15.7502 6.55769 15.3442 6.97026C15.0009 7.3192 14.4656 7.36983 14.0161 7.17585C14 7.16889 13.9839 7.16202 13.9676 7.15522C13.5132 6.96477 13.1667 6.54864 13.1667 6.05591C13.1667 5.47275 12.6939 5 12.1108 5H11.8897C11.3063 5 10.8333 5.47295 10.8333 6.05636C10.8333 6.54893 10.488 6.96588 10.0303 7.14809C10.0052 7.15812 9.98009 7.16833 9.9551 7.17871C9.49561 7.36979 8.9505 7.31969 8.59726 6.96917C8.1795 6.55464 7.50533 6.55547 7.08859 6.97103L6.93727 7.12193C6.52262 7.53541 6.52164 8.20674 6.93507 8.62143C7.28389 8.97131 7.3334 9.51174 7.14015 9.96643C7.12885 9.99302 7.11776 10.0197 7.10689 10.0465C6.92548 10.4941 6.51694 10.8333 6.03404 10.8333C5.46296 10.8333 5 11.2963 5 11.8674V12.1326C5 12.7037 5.46296 13.1667 6.03404 13.1667C6.51694 13.1667 6.92519 13.506 7.1066 13.9536C7.11651 13.978 7.12659 14.0023 7.13686 14.0266C7.32968 14.4819 7.27994 15.0229 6.93014 15.3724C6.51625 15.786 6.51604 16.4567 6.92968 16.8705L7.07467 17.0156C7.49323 17.4343 8.17119 17.4369 8.59295 17.0214C8.94875 16.6709 9.49539 16.6217 9.95663 16.8132C9.97924 16.8226 10.0019 16.8318 10.0247 16.8409C10.485 17.0246 10.8333 17.4439 10.8333 17.9395C10.8333 18.5252 11.3081 19 11.8938 19H12.1057C12.6917 19 13.1667 18.525 13.1667 17.939C13.1667 17.4436 13.5155 17.0253 13.9723 16.8335C13.9855 16.8279 13.9986 16.8223 14.0118 16.8167C14.4636 16.6222 15.0013 16.6719 15.3476 17.0214C15.7577 17.4352 16.4263 17.4361 16.8375 17.0234L16.9886 16.8719C17.4017 16.4573 17.4006 15.7863 16.9861 15.3731C16.6355 15.0236 16.5853 14.482 16.7774 14.0257C16.7822 14.0142 16.787 14.0027 16.7918 13.9911C16.9847 13.5233 17.4118 13.1667 17.9179 13.1667ZM11.9562 13.7453C10.9897 13.7453 10.2062 12.9613 10.2062 11.9953C10.2062 11.0282 10.9897 10.2453 11.9562 10.2453C12.9228 10.2453 13.7062 11.0282 13.7062 11.9953C13.7062 12.9613 12.9228 13.7453 11.9562 13.7453Z" />
</svg>
