<svg width="25" height="16" xmlns="http://www.w3.org/2000/svg">
<path d="M0.25 14.4C0.25 14.8243 0.430612 15.2313 0.752103 15.5314C1.07359 15.8314 1.50963 16 1.96429 16H22.5357C22.9904 16 23.4264 15.8314 23.7479 15.5314C24.0694 15.2313 24.25 14.8243 24.25 14.4V6.4H0.25V14.4ZM3.67857 11.2H10.5357V12.8H3.67857V11.2ZM22.5357 0H1.96429C1.50963 0 1.07359 0.168571 0.752103 0.468629C0.430612 0.768687 0.25 1.17565 0.25 1.6V3.2H24.25V1.6C24.25 1.17565 24.0694 0.768687 23.7479 0.468629C23.4264 0.168571 22.9904 0 22.5357 0V0Z" />
</svg>
