<svg width="24" height="24" xmlns="http://www.w3.org/2000/svg">
<path fill-rule="evenodd" clip-rule="evenodd" d="M0 11.7908C0 5.2781 5.53218 0 12.1027 0C18.6661 0 24 5.48618 24 11.9965C24 18.5069 18.6708 23.9884 12.1003 23.9884L0 24V11.7908ZM11.8484 3.8183C13.6777 3.9373 15.3959 4.72697 16.6688 6.03207C17.1948 6.42772 17.669 6.89469 18.0758 7.42367L18.0713 7.41939L18.0902 7.44387C19.3948 8.67455 20.1998 10.3361 20.3527 12.1151C20.5063 13.9027 19.9908 15.6838 18.9042 17.119C17.8177 18.5541 16.2362 19.543 14.4612 19.897C12.6861 20.2511 10.8417 19.9455 9.27938 19.0387L4.40291 19.6095L4.40051 19.6098L4.40298 19.6092L4.40051 19.6097L4.40304 19.6089L4.40346 19.6068L4.40051 19.6075L4.40832 19.5826L5.28019 15.2402C4.23216 13.724 3.79908 11.8723 4.06725 10.0539C4.33541 8.23554 5.28513 6.58402 6.72717 5.42841C8.16922 4.27279 9.99773 3.69791 11.8484 3.8183ZM4.42041 19.603L4.40313 19.6089L4.4038 19.6067L4.42041 19.603Z" />
<path d="M18.0711 7.42578C19.0653 8.71732 19.5967 10.3003 19.5814 11.9246C19.5661 13.5488 19.0049 15.1217 17.9865 16.3946C16.9682 17.6675 15.5507 18.5678 13.9582 18.9533C12.3657 19.3387 10.689 19.1873 9.19305 18.523L4.40051 19.6096L9.27938 19.0385C10.8417 19.9454 12.6861 20.2509 14.4612 19.8968C16.2362 19.5428 17.8177 18.5539 18.9042 17.1188C19.9908 15.6836 20.5063 13.9025 20.3527 12.1149C20.199 10.3273 19.3869 8.65822 18.0711 7.42578V7.42578Z" />
<path d="M5.7352 15.3533C4.93096 13.8814 4.66103 12.1806 4.97053 10.5351C5.28004 8.88964 6.15023 7.39932 7.43561 6.31329C8.721 5.22725 10.3437 4.61134 12.0324 4.5685C13.7211 4.52566 15.3734 5.0585 16.7132 6.07793C15.436 4.74542 13.6991 3.93859 11.8484 3.8182C9.99775 3.69781 8.16924 4.27269 6.7272 5.42831C5.28515 6.58393 4.33544 8.23544 4.06727 10.0538C3.79911 11.8722 4.23218 13.7239 5.28021 15.2401L4.4029 19.6096L5.7352 15.3533Z" />
</svg>