<svg width="24" height="24" xmlns="http://www.w3.org/2000/svg">
<path fill-rule="evenodd" clip-rule="evenodd" d="M1 0C0.447715 0 0 0.447716 0 1V13C0 13.5523 0.447715 14 1 14H11C11.5523 14 12 13.5523 12 13V1C12 0.447715 11.5523 0 11 0H1ZM3 4C2.44772 4 2 3.55228 2 3C2 2.44772 2.44772 2 3 2H9C9.55229 2 10 2.44772 10 3C10 3.55228 9.55229 4 9 4H3ZM2 7C2 7.55228 2.44772 8 3 8H9C9.55229 8 10 7.55228 10 7C10 6.44772 9.55229 6 9 6H3C2.44772 6 2 6.44772 2 7ZM3 12C2.44772 12 2 11.5523 2 11C2 10.4477 2.44772 10 3 10H7C7.55228 10 8 10.4477 8 11C8 11.5523 7.55228 12 7 12H3Z" />
</svg>
