<svg width="64" height="64"  xmlns="http://www.w3.org/2000/svg">
<path fill-rule="evenodd" clip-rule="evenodd" d="M6.38454 2.95869C6.38454 2.17069 6.99888 1.46143 7.86688 1.46143H7.88858H7.91073H7.93334H7.9564H7.97992H8.00389H8.02832H8.05319H8.07851H8.10428H8.1305H8.15716H8.18427L8.21182 1.46143H8.23981H8.26824H8.29711H8.32642H8.35617H8.38635H8.41696H8.44801H8.47949L8.5114 1.46143H8.54374H8.57651H8.60971H8.64333H8.67737H8.71184H8.74673H8.78204H8.81777L8.85392 1.46143H8.89048H8.92746H8.96485H9.00266H9.04088H9.07951H9.11855L9.158 1.46143H9.19785H9.23811H9.27878H9.31984H9.36131H9.40318H9.44545L9.48812 1.46143H9.53118H9.57464H9.6185H9.66274H9.70738H9.75241L9.79783 1.46143H9.84364H9.88984H9.93642H9.98338H10.0307H10.0785L10.1266 1.46143H10.1751H10.2239H10.2732H10.3228H10.3728H10.4232L10.4739 1.46143H10.525H10.5765H10.6283H10.6806H10.7331L10.7861 1.46143H10.8394H10.8931H10.9471H11.0015H11.0563L11.1114 1.46143H11.1668H11.2226H11.2788H11.3353H11.3922L11.4494 1.46143H11.507H11.5649H11.6232H11.6818L11.7408 1.46143H11.8001H11.8597H11.9197H11.98H12.0406L12.1016 1.46143H12.163H12.2246H12.2866H12.3489L12.4116 1.46143H12.4745H12.5379H12.6015H12.6654L12.7297 1.46143H12.7943H12.8592H12.9245H12.99L13.0559 1.46143H13.1221H13.1886H13.2555H13.3226L13.39 1.46143H13.4578H13.5259H13.5942L13.6629 1.46143H13.7319H13.8012H13.8708H13.9406L14.0108 1.46143H14.0813H14.1521H14.2232H14.2946L14.3662 1.46143H14.4382H14.5104H14.583L14.6558 1.46143H14.7289H14.8023H14.876L14.95 1.46143H15.0243H15.0988H15.1736H15.2487L15.3241 1.46143H15.3997H15.4757H15.5519L15.6283 1.46143H15.7051H15.7821H15.8594L15.9369 1.46143H16.0147H16.0928H16.1712L16.2498 1.46143H16.3286H16.4078H16.4871L16.5668 1.46143H16.6467H16.7268H16.8072L16.8879 1.46143H16.9688H17.05H17.1314L17.2131 1.46143H17.295H17.3771H17.4595L17.5421 1.46143H17.625H17.7081H17.7915L17.8751 1.46143H17.9589H18.043H18.1273L18.2118 1.46143H18.2966H18.3816H18.4668L18.5522 1.46143H18.6379H18.7238L18.8099 1.46143H18.8963H18.9829H19.0697L19.1567 1.46143H19.2439H19.3313H19.419L19.5069 1.46143H19.595H19.6833L19.7718 1.46143H19.8605H19.9494H20.0385L20.1279 1.46143H20.2174H20.3071H20.3971L20.4872 1.46143H20.5776H20.6681L20.7589 1.46143H20.8498H20.9409H21.0322L21.1237 1.46143H21.2155H21.3073L21.3994 1.46143H21.4917H21.5841H21.6768L21.7696 1.46143H21.8626H21.9558L22.0491 1.46143H22.1427H22.2364H22.3303L22.4243 1.46143H22.5186H22.613L22.7075 1.46143H22.8023H22.8972L22.9923 1.46143H23.0875H23.1829H23.2785L23.3743 1.46143H23.4702H23.5662L23.6624 1.46143H23.7588H23.8553L23.952 1.46143H24.0488H24.1458H24.243L24.3402 1.46143H24.4377H24.5352L24.633 1.46143H24.7308H24.8289L24.927 1.46143H25.0253H25.1237H25.2223L25.321 1.46143H25.4199H25.5188L25.6179 1.46143H25.7172H25.8166L25.9161 1.46143H26.0157H26.1155L26.2153 1.46143H26.3153H26.4155L26.5157 1.46143H26.6161H26.7166H26.8172L26.9179 1.46143H27.0188H27.1197L27.2208 1.46143H27.322H27.4233L27.5247 1.46143H27.6262H27.7278L27.8295 1.46143H27.9314H28.0333L28.1353 1.46143H28.2375H28.3397L28.442 1.46143H28.5445H28.647H28.7496L28.8523 1.46143H28.9551H29.058L29.161 1.46143H29.2641H29.3672L29.4705 1.46143H29.5738H29.6772L29.7807 1.46143H29.8843H29.988L30.0917 1.46143H30.1955H30.2994L30.4034 1.46143H30.5074H30.6115L30.7157 1.46143H30.8199H30.9243L31.0286 1.46143H31.1331H31.2376L31.3422 1.46143H31.4468H31.5515L31.6563 1.46143H31.7611H31.866H31.9709L32.0759 1.46143H32.1809H32.286L32.3912 1.46143H32.4964H32.6016L32.7069 1.46143H32.8122H32.9176L33.023 1.46143H33.1285H33.234L33.3395 1.46143H33.4451H33.5507L33.6564 1.46143H33.7621H33.8678L33.9736 1.46143H34.0794H34.1852L34.291 1.46143H34.3969H34.5028L34.6087 1.46143H34.7147H34.8207L34.9266 1.46143H35.0327H35.1387L35.2447 1.46143H35.3508H35.4569L35.563 1.46143H35.6691H35.7752L35.8813 1.46143H35.9874H36.0936L36.1997 1.46143H36.3059H36.412L36.5182 1.46143H36.6244H36.7305L36.8367 1.46143H36.9428H37.049L37.1551 1.46143H37.2613H37.3674L37.4735 1.46143H37.5797H37.6858L37.7918 1.46143H37.8979H38.004L38.11 1.46143H38.2161H38.3221L38.4281 1.46143H38.534H38.64L38.7459 1.46143H38.8518H38.9577L39.0635 1.46143H39.1693H39.2751L39.3809 1.46143H39.4866H39.5923L39.6979 1.46143H39.8035H39.9091L40.0147 1.46143H40.1202H40.2256L40.331 1.46143H40.4364H40.5417H40.647L40.7522 1.46143H40.8574H40.9626L41.0677 1.46143H41.1727H41.2777L41.3826 1.46143H41.4875H41.5923L41.697 1.46143H41.8017H41.9063L42.0109 1.46143H42.1154H42.2199L42.3242 1.46143H42.4285H42.5328L42.637 1.46143H42.7411H42.8451L42.949 1.46143H43.0529H43.1567L43.2604 1.46143H43.3641H43.4676L43.5711 1.46143H43.6745H43.7779L43.8811 1.46143H43.9842H44.0873L44.1903 1.46143H44.2932H44.3959H44.4986L44.6013 1.46143H44.7038H44.8062L44.9085 1.46143H45.0107H45.1128L45.2149 1.46143H45.3168H45.4186L45.5203 1.46143H45.6219H45.7234L45.8248 1.46143H45.9261H46.0272L46.1283 1.46143H46.2292H46.3301H46.4308L46.5314 1.46143H46.6319H46.7322L46.8325 1.46143H46.9326H47.0326L47.1324 1.46143H47.2322H47.3318L47.4313 1.46143H47.5306H47.6298L47.7289 1.46143H47.8279H47.9267H48.0254L48.124 1.46143H48.2224H48.3207L48.4188 1.46143H48.5168H48.6146L48.7123 1.46143H48.8099H48.9073H49.0046L49.1017 1.46143H49.1987H49.2955L49.3921 1.46143H49.4886H49.585L49.6812 1.46143H49.7772H49.8731H49.9688L50.0644 1.46143H50.1597H50.255L50.35 1.46143H50.4449H50.5396L50.6342 1.46143H50.7286H50.8228H50.9168L51.0107 1.46143H51.1044H51.1979C52.0412 1.46143 52.6922 2.14802 52.6922 2.96143V8.84605L56.1153 8.84605C56.9437 8.84605 57.6153 9.51763 57.6153 10.3461L57.6152 48.6153C57.6152 48.8755 57.5138 49.1254 57.3325 49.312L44.7787 62.2351C44.5904 62.429 44.3317 62.5383 44.0614 62.5383H15.2691C14.4479 62.5383 13.7691 61.8766 13.7691 61.0411L13.7691 55.1537H7.88452C7.06325 55.1537 6.38452 54.492 6.38452 53.6565L6.38454 2.95869ZM50.6922 3.46143V8.84605L15.2692 8.84604C14.4479 8.84604 13.7692 9.50775 13.7692 10.3433L13.7691 53.1537H8.38452L8.38454 3.46143H8.38635H8.41696H8.44801H8.47949H8.5114H8.54374H8.57651H8.60971H8.64333H8.67737H8.71184H8.74673H8.78204H8.81777H8.85392H8.89048H8.92746H8.96485H9.00266H9.04088H9.07951H9.11855H9.158H9.19785H9.23811H9.27877H9.31984H9.36131H9.40318H9.44545H9.48812H9.53118H9.57464H9.6185H9.66274H9.70738H9.75241H9.79783H9.84364H9.88984H9.93642H9.98338H10.0307H10.0785H10.1266H10.1751H10.2239H10.2732L10.3228 3.46143H10.3728H10.4232H10.4739H10.525H10.5765H10.6283H10.6806H10.7331H10.7861H10.8394H10.8931L10.9471 3.46143H11.0015H11.0563H11.1114H11.1668H11.2226H11.2788H11.3353H11.3922H11.4494H11.507H11.5649H11.6232H11.6818H11.7408H11.8001H11.8597H11.9197H11.98H12.0406H12.1016H12.163H12.2246H12.2866H12.3489H12.4116H12.4745H12.5379H12.6015H12.6654H12.7297H12.7943L12.8592 3.46143H12.9245H12.99H13.0559H13.1221H13.1886H13.2555H13.3226H13.39H13.4578L13.5258 3.46143H13.5942H13.6629H13.7319H13.8012H13.8708H13.9406L16.3286 3.46143H16.4078H16.4871H16.5668H16.6467H16.7268H16.8072H16.8879H16.9688H17.05H17.1314H17.2131H17.295H17.3771H17.4595H17.5421H17.625H17.7081H17.7915H17.8751H17.9589L18.043 3.46143H18.1273H18.2118H18.2966H18.3816H18.4668H18.5522L18.6379 3.46143H18.7238H18.8099H18.8963H18.9829L24.927 3.46143H25.0253H25.1237H25.2223H25.321H25.4199H25.5188H25.6179L25.7172 3.46143H25.8166H25.9161H26.0157H26.1155H26.2153H26.3153L26.4155 3.46143H26.5157H26.6161H26.7166H26.8172H26.9179H27.0188H27.1197H27.2208H27.322H27.4233H27.5247H27.6262H27.7278H27.8295H27.9314H28.0333H28.1353H28.2375L28.3397 3.46143H28.442H28.5445H28.647H28.7496H28.8523L28.9551 3.46143H29.058H29.161H29.2641H29.3672H29.4705H29.5738H29.6772H29.7807H29.8843H29.988H30.0917H30.1955H30.2994H30.4034H30.5074H30.6115H30.7157H30.8199L30.9243 3.46143H31.0286H31.1331H31.2376H31.3422H31.4468L31.5515 3.46143H31.6563H31.7611H31.866H31.9709H32.0759H32.1809H32.286H32.3912H32.4964H32.6016H32.7069H32.8122H32.9176H33.023H33.1285H33.234H33.3395L33.4451 3.46143H33.5507H33.6564H33.7621H33.8678H33.9736L34.0794 3.46143H34.1852H34.291H34.3969H34.5028H34.6087H34.7147H34.8206H34.9266H35.0327H35.1387H35.2447H35.3508H35.4569H35.563H35.6691H35.7752H35.8813H35.9874L36.0936 3.46143H36.1997H36.3059H36.412H36.5182H36.6244L36.7305 3.46143H36.8367H36.9428H37.049H37.1551H37.2613H37.3674H37.4735H37.5797H37.6858H37.7918H37.8979H38.004H38.11H38.2161H38.3221H38.4281H38.534L38.64 3.46143H38.7459H38.8518H38.9577H39.0635H39.1693L39.2751 3.46143H39.3809H39.4866H39.5923H39.6979H39.8035H39.9091H40.0147H40.1202H40.2256H40.331H40.4364H40.5417H40.647H40.7522H40.8574H40.9626H41.0677L41.1727 3.46143H41.2777H41.3826H41.4875H41.5923H41.697L41.8017 3.46143H41.9063H42.0109H42.1154H42.2199H42.3242H42.4285H42.5328H42.637H42.7411H42.8451H42.949H43.0529H43.1567H43.2604H43.3641H43.4676H43.5711H43.6745L43.7779 3.46143H43.8811H43.9842H44.0873H44.1903H44.2932L44.3959 3.46143H44.4986H44.6013H44.7038H44.8062H44.9085L48.124 3.46143H48.2224H48.3207H48.4188H48.5168H48.6146H48.7123H48.8099L48.9073 3.46143H49.0046H49.1017H49.1987H49.2955H49.3921H49.4886L49.585 3.46143H49.6812H49.7772H49.8731H49.9688H50.0644H50.1597H50.255H50.35H50.4449H50.5396H50.6342H50.6922ZM15.7692 10.846L15.7691 60.5383H43.0614V48.6153C43.0614 48.063 43.5091 47.6153 44.0614 47.6153H55.6152L55.6153 10.846L15.7692 10.846ZM54.2497 49.6153H45.0614V59.0738L54.2497 49.6153ZM19.6922 18.6922C19.1399 18.6922 18.6922 19.1399 18.6922 19.6922C18.6922 20.2445 19.1399 20.6922 19.6922 20.6922H51.6922C52.2445 20.6922 52.6922 20.2445 52.6922 19.6922C52.6922 19.1399 52.2445 18.6922 51.6922 18.6922H19.6922ZM18.6922 27.0768C18.6922 26.5245 19.1399 26.0768 19.6922 26.0768H51.6922C52.2445 26.0768 52.6922 26.5245 52.6922 27.0768C52.6922 27.6291 52.2445 28.0768 51.6922 28.0768H19.6922C19.1399 28.0768 18.6922 27.6291 18.6922 27.0768ZM19.6922 33.4614C19.1399 33.4614 18.6922 33.9091 18.6922 34.4614C18.6922 35.0137 19.1399 35.4614 19.6922 35.4614H51.6922C52.2445 35.4614 52.6922 35.0137 52.6922 34.4614C52.6922 33.9091 52.2445 33.4614 51.6922 33.4614H19.6922ZM18.6922 41.846C18.6922 41.2938 19.1399 40.846 19.6922 40.846H51.6922C52.2445 40.846 52.6922 41.2938 52.6922 41.846C52.6922 42.3983 52.2445 42.846 51.6922 42.846H19.6922C19.1399 42.846 18.6922 42.3983 18.6922 41.846ZM19.6922 48.2307C19.1399 48.2307 18.6922 48.6784 18.6922 49.2307C18.6922 49.7829 19.1399 50.2307 19.6922 50.2307H36.923C37.4753 50.2307 37.923 49.7829 37.923 49.2307C37.923 48.6784 37.4753 48.2307 36.923 48.2307H19.6922Z" />
</svg>
