<svg width="16" height="16" xmlns="http://www.w3.org/2000/svg">
<path d="M22.1494 2.94496C21.563 2.32835 20.8667 1.83921 20.1003 1.50549C19.334 1.17177 18.5126 1 17.6831 1C16.8535 1 16.0321 1.17177 15.2658 1.50549C14.4994 1.83921 13.8032 2.32835 13.2167 2.94496L12.3619 3.84335C12.1648 4.05047 11.8345 4.05047 11.6375 3.84335L10.7826 2.94496C9.59811 1.70004 7.99152 1.00065 6.31633 1.00065C4.64114 1.00065 3.03455 1.70004 1.85001 2.94496C0.665469 4.18988 1.24812e-08 5.87836 0 7.63895C-1.24812e-08 9.39954 0.665469 11.088 1.85001 12.3329L3.06705 13.612L11.6375 22.6193C11.8345 22.8264 12.1648 22.8264 12.3619 22.6193L20.9323 13.612L22.1494 12.3329C22.7361 11.7166 23.2015 10.9849 23.519 10.1794C23.8366 9.37403 24 8.51076 24 7.63895C24 6.76714 23.8366 5.90387 23.519 5.09846C23.2015 4.29305 22.7361 3.56128 22.1494 2.94496Z" fill="black"/>
</svg>
