<svg  viewBox="-14 -4 130 130" xmlns="http://www.w3.org/2000/svg">
<path d="M7.80645 48.1398H2.60215C1.17097 48.1398 0 49.3107 0 50.7419C0 52.1731 1.17097 53.3441 2.60215 53.3441H7.80645C9.23763 53.3441 10.4086 52.1731 10.4086 50.7419C10.4086 49.3107 9.23763 48.1398 7.80645 48.1398Z" />
<path d="M98.8816 48.1398H93.6773C92.2462 48.1398 91.0752 49.3107 91.0752 50.7419C91.0752 52.1731 92.2462 53.3441 93.6773 53.3441H98.8816C100.313 53.3441 101.484 52.1731 101.484 50.7419C101.484 49.3107 100.313 48.1398 98.8816 48.1398Z" />
<path d="M48.1396 2.60215V7.80645C48.1396 9.23763 49.3106 10.4086 50.7418 10.4086C52.173 10.4086 53.3439 9.23763 53.3439 7.80645V2.60215C53.3439 1.17097 52.173 0 50.7418 0C49.3106 0 48.1396 1.17097 48.1396 2.60215Z" />
<path d="M18.6054 22.2484C19.1258 22.7688 19.7763 23.029 20.4269 23.029C21.0774 23.029 21.7279 22.7688 22.2484 22.2484C23.2892 21.2075 23.2892 19.6462 22.2484 18.6054L17.4344 13.7914C16.3935 12.7505 14.8322 12.7505 13.7914 13.7914C12.7505 14.8322 12.7505 16.3935 13.7914 17.4344L18.6054 22.2484Z" />
<path d="M82.8778 79.2355C81.8369 78.1946 80.2756 78.1946 79.2347 79.2355C78.1939 80.2763 78.1939 81.8376 79.2347 82.8785L84.0487 87.6925C84.5692 88.2129 85.2197 88.4731 85.8702 88.4731C86.5208 88.4731 87.1713 88.2129 87.6917 87.6925C88.7326 86.6516 88.7326 85.0903 87.6917 84.0495L82.8778 79.2355Z" />
<path d="M84.0487 13.7914L79.2347 18.6054C78.1939 19.6462 78.1939 21.2075 79.2347 22.2484C79.7552 22.7688 80.4057 23.029 81.0563 23.029C81.7068 23.029 82.3573 22.7688 82.8778 22.2484L87.6917 17.4344C88.7326 16.3935 88.7326 14.8322 87.6917 13.7914C86.6509 12.7505 85.0896 12.7505 84.0487 13.7914Z" />
<path d="M18.6054 79.2355L13.7914 84.0495C12.7505 85.0903 12.7505 86.6516 13.7914 87.6925C14.3118 88.2129 14.9624 88.4731 15.6129 88.4731C16.2634 88.4731 16.914 88.2129 17.4344 87.6925L22.2484 82.8785C23.2892 81.8376 23.2892 80.2763 22.2484 79.2355C21.2075 78.1946 19.5161 78.1946 18.6054 79.2355Z" />
<path d="M48.6599 17.0441C32.0062 18.0849 18.475 31.7462 17.6943 48.4C17.1739 58.6785 21.2072 67.9161 28.1029 74.2914C31.746 77.8043 33.9578 82.4882 33.9578 87.5624V92.3763H67.7857V87.5624C67.7857 82.6183 69.7374 77.9344 73.3804 74.5516C80.0158 68.4365 84.0492 59.8494 84.0492 50.0914C83.9191 31.0957 67.9158 15.743 48.6599 17.0441Z" />
<path d="M67.6561 97.5806H33.8281V102.785H67.6561V97.5806Z" />
<path d="M67.6561 106.688H33.8281V111.892H67.6561V106.688Z" />
<path d="M62.4516 115.796H39.0322V121H62.4516V115.796Z" />
</svg>
