<svg width="19" height="22" xmlns="http://www.w3.org/2000/svg">
<path d="M9.50002 0.333374C12.0776 0.333374 14.1771 2.33772 14.1771 4.79849C14.1771 7.25927 12.0776 9.26361 9.50002 9.26361C6.92244 9.26361 4.82296 7.25927 4.82296 4.79849C4.82296 2.33772 6.92244 0.333374 9.50002 0.333374ZM9.50002 21.6667C5.98177 21.6667 2.85941 20.1549 0.75942 17.7744C0.364849 17.3271 0.221316 16.6852 0.555328 16.191C2.03502 14.0019 6.77994 12.7365 9.50002 12.7365C12.2201 12.7365 16.965 14.0019 18.4447 16.191C18.7787 16.6852 18.6352 17.3271 18.2406 17.7744C16.1406 20.1549 13.0183 21.6667 9.50002 21.6667Z" />
</svg>
