<svg width="24" height="24" xmlns="http://www.w3.org/2000/svg">
<path fill-rule="evenodd" clip-rule="evenodd" d="M23 19.8529H22.2667C21.8611 19.8529 21.5333 20.2079 21.5333 20.6471C21.5333 21.0862 21.8611 21.4412 22.2667 21.4412H23V24.8235C23 25.7002 22.3429 26.4118 21.5333 26.4118H2.46667C1.65707 26.4118 1 25.7002 1 24.8235V21.4412H1.73333C2.13887 21.4412 2.46667 21.0862 2.46667 20.6471C2.46667 20.2079 2.13887 19.8529 1.73333 19.8529H1V2.58824C1 1.71153 1.65707 1 2.46667 1H21.5333C22.3429 1 23 1.71153 23 2.58824V19.8529ZM4.66667 21.4412H6.13333C6.53887 21.4412 6.86667 21.0862 6.86667 20.6471C6.86667 20.2079 6.53887 19.8529 6.13333 19.8529H4.66667C4.26113 19.8529 3.93333 20.2079 3.93333 20.6471C3.93333 21.0862 4.26113 21.4412 4.66667 21.4412ZM9.06667 21.4412H10.5333C10.9389 21.4412 11.2667 21.0862 11.2667 20.6471C11.2667 20.2079 10.9389 19.8529 10.5333 19.8529H9.06667C8.66113 19.8529 8.33333 20.2079 8.33333 20.6471C8.33333 21.0862 8.66113 21.4412 9.06667 21.4412ZM13.4667 21.4412H14.9333C15.3389 21.4412 15.6667 21.0862 15.6667 20.6471C15.6667 20.2079 15.3389 19.8529 14.9333 19.8529H13.4667C13.0611 19.8529 12.7333 20.2079 12.7333 20.6471C12.7333 21.0862 13.0611 21.4412 13.4667 21.4412ZM17.8667 21.4412H19.3333C19.7389 21.4412 20.0667 21.0862 20.0667 20.6471C20.0667 20.2079 19.7389 19.8529 19.3333 19.8529H17.8667C17.4611 19.8529 17.1333 20.2079 17.1333 20.6471C17.1333 21.0862 17.4611 21.4412 17.8667 21.4412ZM5 3.5C4.17157 3.5 3.5 4.17157 3.5 5V14C3.5 14.8284 4.17157 15.5 5 15.5H19C19.8284 15.5 20.5 14.8284 20.5 14V5C20.5 4.17157 19.8284 3.5 19 3.5H5ZM4.5 5C4.5 4.72386 4.72386 4.5 5 4.5H19C19.2761 4.5 19.5 4.72386 19.5 5V14C19.5 14.2761 19.2761 14.5 19 14.5H5C4.72386 14.5 4.5 14.2761 4.5 14V5Z" fill="black"/>
</svg>
