<svg width="24" height="24" xmlns="http://www.w3.org/2000/svg">
	<path fill-rule="evenodd" clip-rule="evenodd" d="M19 7.42058C18.4856 7.66154 17.9317 7.82449 17.3508 7.89729C17.9441 7.52286 18.3993 6.92914 18.6138 6.22189C18.0583 6.56858 17.4444 6.8208 16.7887 6.95601C16.2661 6.3675 15.5191 6 14.6924 6C13.1073 6 11.8213 7.35645 11.8213 9.02925C11.8213 9.26674 11.8459 9.49729 11.8952 9.71918C9.50807 9.59263 7.39209 8.38787 5.97458 6.55298C5.72724 7.00195 5.5859 7.52286 5.5859 8.07757C5.5859 9.12806 6.09292 10.0555 6.86371 10.5989C6.39367 10.5842 5.94993 10.4464 5.56207 10.221V10.2583C5.56207 11.7265 6.55227 12.9512 7.86705 13.2286C7.62628 13.2997 7.37237 13.3352 7.11023 13.3352C6.92534 13.3352 6.74456 13.317 6.56953 13.2815C6.9352 14.4845 7.99525 15.3608 9.25251 15.3842C8.26971 16.1972 7.03052 16.6817 5.68533 16.6817C5.4536 16.6817 5.22434 16.6678 5 16.6401C6.27123 17.4982 7.78159 18 9.40289 18C14.6867 18 17.5751 13.3846 17.5751 9.38115C17.5751 9.2494 17.5726 9.11766 17.5677 8.98852C18.129 8.56121 18.6162 8.02817 19 7.42058"/>
</svg>
