<svg width="24" height="24" xmlns="http://www.w3.org/2000/svg">
	<path fill-rule="evenodd" clip-rule="evenodd" d="M12.3796 3.1746C12.2846 3.06378 12.146 3 12 3C11.854 3 11.7154 3.06378 11.6204 3.1746L9.62037 5.50794C9.44066 5.7176 9.46494 6.03325 9.6746 6.21296C9.88427 6.39267 10.1999 6.36839 10.3796 6.15873L11.5 4.85163V12.5C11.5 12.7761 11.7239 13 12 13C12.2761 13 12.5 12.7761 12.5 12.5V4.85163L13.6204 6.15873C13.8001 6.36839 14.1157 6.39267 14.3254 6.21296C14.5351 6.03325 14.5593 5.7176 14.3796 5.50794L12.3796 3.1746ZM6.5 9C6.22386 9 6 9.22386 6 9.5V17.5C6 17.7761 6.22386 18 6.5 18H17.5C17.7761 18 18 17.7761 18 17.5V9.5C18 9.22386 17.7761 9 17.5 9H14.5C14.2239 9 14 9.22386 14 9.5C14 9.77614 14.2239 10 14.5 10H17V17H7V10H9.5C9.77614 10 10 9.77614 10 9.5C10 9.22386 9.77614 9 9.5 9H6.5Z"/>
</svg>
