<svg width="24" height="24" xmlns="http://www.w3.org/2000/svg">
	<path fill-rule="evenodd" clip-rule="evenodd" d="M12 4.5C8.41023 4.5 5.5 7.41023 5.5 11C5.5 13.5077 6.92013 15.6837 9 16.7678V17.8759C6.35117 16.7185 4.5 14.0754 4.5 11C4.5 6.85794 7.85794 3.5 12 3.5C16.1421 3.5 19.5 6.85794 19.5 11C19.5 14.0754 17.6488 16.7185 15 17.8759V16.7678C17.0799 15.6837 18.5 13.5077 18.5 11C18.5 7.41023 15.5898 4.5 12 4.5ZM11.5155 14.099C11.0355 14.063 10.6305 13.952 10.3005 13.766C9.97052 13.58 9.70052 13.343 9.49052 13.055L10.1385 12.434C10.3425 12.68 10.5585 12.872 10.7865 13.01C11.0145 13.142 11.2725 13.223 11.5605 13.253V11.192L11.3535 11.156C11.0535 11.102 10.7985 11.021 10.5885 10.913C10.3785 10.805 10.2075 10.673 10.0755 10.517C9.94352 10.361 9.84752 10.19 9.78752 10.004C9.72752 9.812 9.69752 9.608 9.69752 9.392C9.69752 8.882 9.85652 8.477 10.1745 8.177C10.4925 7.871 10.9395 7.688 11.5155 7.628V6.701H12.2715V7.628C12.6675 7.67 13.0095 7.769 13.2975 7.925C13.5855 8.081 13.8345 8.294 14.0445 8.564L13.3875 9.158C13.2435 8.972 13.0755 8.822 12.8835 8.708C12.6975 8.594 12.4785 8.522 12.2265 8.492V10.4L12.4695 10.436C12.7695 10.49 13.0245 10.571 13.2345 10.679C13.4445 10.787 13.6155 10.919 13.7475 11.075C13.8855 11.225 13.9845 11.396 14.0445 11.588C14.1045 11.78 14.1345 11.984 14.1345 12.2C14.1345 12.716 13.9725 13.139 13.6485 13.469C13.3305 13.799 12.8715 14 12.2715 14.072V15.017H11.5155V14.099ZM10.6515 9.365C10.6515 9.617 10.7205 9.815 10.8585 9.959C11.0025 10.097 11.2365 10.202 11.5605 10.274V8.474C10.9545 8.546 10.6515 8.843 10.6515 9.365ZM13.1805 12.245C13.1805 11.975 13.1055 11.771 12.9555 11.633C12.8115 11.489 12.5685 11.384 12.2265 11.318V13.244C12.5385 13.196 12.7755 13.088 12.9375 12.92C13.0995 12.752 13.1805 12.527 13.1805 12.245ZM12 22.5C11.854 22.5 11.7154 22.4362 11.6204 22.3254L9.62037 19.9921C9.44066 19.7824 9.46494 19.4667 9.6746 19.287C9.88427 19.1073 10.1999 19.1316 10.3796 19.3413L11.5 20.6484V16.5C11.5 16.2239 11.7239 16 12 16C12.2761 16 12.5 16.2239 12.5 16.5V20.6484L13.6204 19.3413C13.8001 19.1316 14.1157 19.1073 14.3254 19.287C14.5351 19.4667 14.5593 19.7824 14.3796 19.9921L12.3796 22.3254C12.2846 22.4362 12.146 22.5 12 22.5Z"/>
</svg>
