<svg width="400" height="300" viewBox="0 0 400 300" fill="none" xmlns="http://www.w3.org/2000/svg">
<g clip-path="url(#clip0_3178_82080)">
<rect width="400" height="300" fill="#FFF9ED"/>
<circle cx="199.504" cy="109.503" r="141.17" transform="rotate(90 199.504 109.503)" fill="url(#paint0_linear_3178_82080)" fill-opacity="0.4"/>
<path d="M136.85 112.479C136.85 143.153 117.409 174.824 129.661 205.456C134.208 216.822 146.234 222.581 156.74 226.783C161.638 228.742 166.945 232.466 172.076 233.493C186.524 236.382 199.004 238.214 213.772 236.368C223.758 235.12 235.949 232.679 242.528 223.907C254.282 208.236 257.542 187.898 261.219 169.511C262.586 162.675 266.69 156.455 268.887 149.861C271.141 143.101 272.888 135.63 276.077 129.253" stroke="#020207" stroke-width="2" stroke-miterlimit="10" stroke-linecap="round" stroke-linejoin="round"/>
<path d="M264.334 163.281C268.505 159.11 280.257 157.368 278.712 166.636C277.929 171.333 274.501 174.1 272.482 178.138C269.152 184.797 264.403 189.959 261.459 196.829C260.256 199.634 258.405 203.57 254.509 201.622" stroke="#020207" stroke-width="2" stroke-miterlimit="10" stroke-linecap="round" stroke-linejoin="round"/>
<path d="M132.537 121.825C130.946 121.029 129.982 127.812 129.661 128.774C128.136 133.35 124.117 148.647 129.901 151.539" stroke="#020207" stroke-width="2" stroke-miterlimit="10" stroke-linecap="round" stroke-linejoin="round"/>
<path d="M254.238 56.906C246.92 42.2701 228.687 21.1395 209.292 27.6044C201.487 30.2064 193.959 36.3729 187.441 41.2619C185.353 42.8275 184.058 45.3692 181.481 46.2284" stroke="#020207" stroke-width="2" stroke-miterlimit="10" stroke-linecap="round" stroke-linejoin="round"/>
<path d="M177.508 45.4832C176.826 45.4832 177.159 45.5572 176.515 45.2349" stroke="#020207" stroke-width="2" stroke-miterlimit="10" stroke-linecap="round" stroke-linejoin="round"/>
<path d="M194.642 39.7717C192.827 40.6792 190.475 38.8888 188.682 38.5301C185.933 37.9803 182.943 38.6805 180.488 39.7717C176.773 41.4222 173.757 44.3232 170.555 46.7244C165.731 50.3428 158.944 54.1606 155.159 58.892C146.786 69.3586 140.717 81.1806 136.039 93.6565C133.486 100.465 125.741 117.378 131.817 123.454" stroke="#020207" stroke-width="2" stroke-miterlimit="10" stroke-linecap="round" stroke-linejoin="round"/>
<path d="M250.265 65.8452C247.827 65.8452 239.36 60.6126 236.608 59.3892C230.964 56.8812 223.545 56.7503 217.487 57.1542C197.605 58.4797 185.759 68.7688 172.542 81.9861C167.066 87.4616 160.709 93.4034 156.401 99.8646C153.066 104.868 149.119 109.169 145.724 114.019C143.788 116.784 142.677 119.797 140.261 122.213" stroke="#020207" stroke-width="2" stroke-miterlimit="10" stroke-linecap="round" stroke-linejoin="round"/>
<path d="M134.797 120.475C137.726 117.546 140.295 114.232 143.24 111.288" stroke="#020207" stroke-width="2" stroke-miterlimit="10" stroke-linecap="round" stroke-linejoin="round"/>
<path d="M146.469 120.227C147.651 117.861 156.912 111.652 160.126 110.046C160.286 109.965 164.578 108.272 164.596 108.307C164.677 108.47 161.847 111.787 163.106 111.536C166.764 110.804 173.868 105.632 177.756 103.838C181.17 102.262 193.351 96.7359 197.125 98.6228C199.814 99.9675 193.038 108.417 196.132 108.804C199.793 109.261 209.86 103.483 214.011 102.099C215.073 101.745 218.255 99.6619 218.977 101.106" stroke="#020207" stroke-width="2" stroke-miterlimit="10" stroke-linecap="round" stroke-linejoin="round"/>
<path d="M235.862 101.603C235.862 103.21 236.64 104.728 236.855 106.321C237.802 113.329 237.086 120.235 235.117 126.931C234.588 128.73 232.757 132.766 234.372 134.38" stroke="#020207" stroke-width="2" stroke-miterlimit="10" stroke-linecap="round" stroke-linejoin="round"/>
<path d="M259.452 61.3757C258.968 61.1342 261.254 63.4124 261.935 64.6039C263.394 67.1578 265.093 69.6793 266.404 72.3017C269.957 79.4059 272.523 86.6348 274.351 94.4019C277.312 106.988 273.251 120.927 270.378 133.139C269.318 137.643 268.21 142.189 266.653 146.548C266.071 148.176 265.163 151.515 265.163 151.515C265.163 151.515 265.541 150.367 265.66 149.777C266.189 147.13 267.096 144.543 267.398 141.83C268.205 134.562 265.972 130.627 262.183 124.945C261.826 124.41 258.958 119.315 258.459 119.482C258.21 119.565 258.253 119.969 258.21 120.227C257.592 123.933 258.03 127.686 256.969 131.401C256.867 131.757 256.842 132.394 256.472 132.394C256.023 132.394 256.223 128.451 256.223 128.173C256.223 125.468 256.379 120.401 253.989 118.489C250.527 115.719 248.62 129.43 248.029 131.401C247.958 131.639 246.52 135.107 245.794 134.381C245.346 133.932 245.794 130.498 245.794 129.911C245.794 125.877 243.953 110.749 238.345 121.965C237.703 123.249 237.931 123.305 237.352 124.697C236.433 126.902 235.314 128.721 233.627 130.408" stroke="#020207" stroke-width="2" stroke-miterlimit="10" stroke-linecap="round" stroke-linejoin="round"/>
<path d="M268.64 71.8047C272.515 73.7427 273.777 80.1113 275.841 83.7239C284.791 99.3865 286.164 124.281 279.069 140.837C276.932 145.823 274.816 150.78 272.613 155.736C272.453 156.096 270.814 159.46 270.378 159.46C269.413 159.46 271.261 154.689 271.372 154.246C271.771 152.648 272.139 143.026 270.13 147.045C269.642 148.021 269.373 149.055 268.889 150.024" stroke="#020207" stroke-width="2" stroke-miterlimit="10" stroke-linecap="round" stroke-linejoin="round"/>
<path d="M248.526 73.5428C245.647 70.6644 241.17 75.7522 238.593 77.2677C230.118 82.2534 222.028 89.6878 212.769 93.1599" stroke="#020207" stroke-width="2" stroke-miterlimit="10" stroke-linecap="round" stroke-linejoin="round"/>
<path d="M207.305 154.246C207.305 152.255 214.233 151.808 215.996 151.514C224.284 150.133 233.35 152.479 239.587 158.716" stroke="#020207" stroke-width="2" stroke-miterlimit="10" stroke-linecap="round" stroke-linejoin="round"/>
<path d="M139.266 145.307C138.093 144.72 143.184 144.612 143.736 144.562C146.134 144.344 148.512 144.065 150.938 144.065C156.87 144.065 163.748 143.855 169.064 147.045C170.716 148.036 171.998 149.381 173.782 150.273" stroke="#020207" stroke-width="2" stroke-miterlimit="10" stroke-linecap="round" stroke-linejoin="round"/>
<path d="M145.599 156.108C144.934 155.941 143.252 155.724 143.736 155.239C145.219 153.757 161.454 151.823 163.85 152.508C165.21 152.897 166.012 154.439 167.078 155.239C168.824 156.548 173.493 159.15 171.3 162.44C170.561 163.548 165.179 161.663 164.098 161.447C157.687 160.165 151.893 157.687 145.599 156.108Z" stroke="#020207" stroke-width="2" stroke-miterlimit="10" stroke-linecap="round" stroke-linejoin="round"/>
<path d="M158.139 154.494C155.987 153.418 155.362 157.082 156.401 158.467C158.858 161.743 165.697 160.69 166.334 156.232C167.191 150.228 157.29 151.436 156.153 155.984C155.066 160.33 163.921 161.411 165.092 156.729C165.522 155.008 162.077 152.49 160.871 153.998C158.386 157.104 162.295 161.038 164.595 157.971C167.939 153.513 156.174 152.28 162.112 158.219" stroke="#020207" stroke-width="2" stroke-miterlimit="10" stroke-linecap="round" stroke-linejoin="round"/>
<path d="M208.423 165.669C204.376 162.638 209.955 160.147 213.017 159.709C217.806 159.025 227.067 160.739 231.144 163.186C231.862 163.616 236.978 168.774 236.855 168.897C236.23 169.522 232.099 168.897 231.144 168.897C227.538 168.897 223.208 169.52 219.722 168.649C218.433 168.326 217.06 167.323 215.749 167.159C212.876 166.8 210.03 166.414 207.058 166.414C206.539 166.414 208.838 165.98 208.423 165.669Z" stroke="#020207" stroke-width="2" stroke-miterlimit="10" stroke-linecap="round" stroke-linejoin="round"/>
<path d="M217.114 163.557C212.777 156.999 213.328 166.431 214.755 167.655C217.991 170.428 226.653 167.549 225.681 162.688C224.985 159.209 213.509 159.698 216.493 166.661C218.209 170.665 226.049 168.251 225.184 163.93C224.448 160.25 216.693 160.696 215.749 165.42C215.095 168.687 223.328 167.31 222.453 162.937C222.183 161.586 219.498 162.11 218.728 162.688C218.015 163.223 218.365 165.802 217.735 165.171C217.327 164.764 217.432 164.038 217.114 163.557Z" stroke="#020207" stroke-width="2" stroke-miterlimit="10" stroke-linecap="round" stroke-linejoin="round"/>
<path d="M172.542 186.03C175.83 186.03 180.279 190.134 183.964 190.748C188.054 191.43 191.987 187.188 196.132 188.017C196.936 188.178 197.712 189.8 198.615 190.252" stroke="#020207" stroke-width="2" stroke-miterlimit="10" stroke-linecap="round" stroke-linejoin="round"/>
<path d="M199.36 181.561C200.658 181.128 200.223 181.05 201.843 182.554C205.463 185.916 204.308 189.839 201.595 193.231" stroke="#020207" stroke-width="2" stroke-miterlimit="10" stroke-linecap="round" stroke-linejoin="round"/>
<path d="M171.548 179.077C168.492 177.55 168.816 182.876 168.816 184.54" stroke="#020207" stroke-width="2" stroke-miterlimit="10" stroke-linecap="round" stroke-linejoin="round"/>
<path d="M164.595 202.171C164.06 201.903 167.841 202.171 169.065 202.171C172.126 202.171 175.184 202.171 178.252 202.171C183.383 202.171 204.954 204.172 207.554 209.372" stroke="#020207" stroke-width="2" stroke-miterlimit="10" stroke-linecap="round" stroke-linejoin="round"/>
<path d="M210.534 198.446C212.834 201.897 211.602 207.618 210.534 211.358" stroke="#020207" stroke-width="2" stroke-miterlimit="10" stroke-linecap="round" stroke-linejoin="round"/>
<path d="M165.589 201.426C164.55 201.426 161.864 204.844 161.864 206.144" stroke="#020207" stroke-width="2" stroke-miterlimit="10" stroke-linecap="round" stroke-linejoin="round"/>
<path d="M164.843 199.44C162.089 198.062 163.275 206.236 163.85 207.386" stroke="#020207" stroke-width="2" stroke-miterlimit="10" stroke-linecap="round" stroke-linejoin="round"/>
<path d="M176.763 216.821C179.771 215.317 182.62 215.589 185.702 216.821" stroke="#020207" stroke-width="2" stroke-miterlimit="10" stroke-linecap="round" stroke-linejoin="round"/>
<path d="M137.777 219.553C132.45 219.553 121.958 234.378 117.912 238.425C112.25 244.087 105.976 249.874 101.523 256.551C93.5232 268.551 88.9946 282.337 84.8856 296.033C81.836 306.201 77.8316 316.342 81.4094 327.075" stroke="#020207" stroke-width="2" stroke-miterlimit="10" stroke-linecap="round" stroke-linejoin="round"/>
<path d="M258.459 204.158C257.62 204.577 262.275 205.355 263.177 205.896C266.878 208.117 271.425 209.647 275.344 211.607C284.88 216.375 290.388 224.843 296.948 232.714C298.199 234.215 300.036 235.662 300.921 237.432C301.415 238.421 301.911 239.411 302.411 240.412C302.651 240.891 303.405 242.399 302.908 242.895C302.666 243.135 302.726 242.238 302.659 241.902C302.466 240.939 302.105 239.552 301.666 238.673C301.325 237.992 297.571 231.032 296.203 234.452C295.623 235.903 296.554 238.458 296.7 239.915C297.404 246.962 298.745 253.361 301.169 260.028C306.481 274.636 310.587 290.001 314.33 304.975C316.04 311.813 316.351 320.302 313.089 326.825" stroke="#020207" stroke-width="2" stroke-miterlimit="10" stroke-linecap="round" stroke-linejoin="round"/>
<path d="M302.908 242.646C302.908 248.843 305.845 255.116 306.136 261.518C306.242 263.855 306.017 266.143 305.888 268.473C305.846 269.216 305.98 269.967 305.888 270.707C305.825 271.207 305.414 272.646 305.639 272.197C307.465 268.545 307.391 263.968 308.867 260.278C308.976 260.008 309.366 258.87 309.86 259.035C310.812 259.353 311.575 263.135 312.095 264.002C313.551 266.428 314.433 269.203 315.82 271.7C317.901 275.445 321.178 278.322 323.021 282.378C324.226 285.03 324.947 287.966 326.249 290.573C330.706 299.487 339.444 307.168 341.148 317.391C341.419 319.014 343.187 329.556 340.652 329.556" stroke="#020207" stroke-width="2" stroke-miterlimit="10" stroke-linecap="round" stroke-linejoin="round"/>
<path d="M144.978 272.197C143.069 269.333 142.637 265.52 140.757 262.512C139.561 260.6 138.276 259.189 136.784 257.545C135.936 256.613 128.249 249.73 129.831 256.054C131.288 261.885 135.752 267.545 139.019 272.444C139.694 273.458 142.247 276.88 142.247 278.155C142.247 279.874 138.84 273.214 138.77 273.19C137.939 272.913 137.529 277.98 137.529 278.405" stroke="#020207" stroke-width="2" stroke-miterlimit="10" stroke-linecap="round" stroke-linejoin="round"/>
<path d="M137.777 287.839C137.612 287.51 136.91 286.845 137.281 286.845C138.663 286.845 138.522 294.115 138.522 294.793C138.522 300.422 137.057 301.573 132.066 303.234" stroke="#020207" stroke-width="2" stroke-miterlimit="10" stroke-linecap="round" stroke-linejoin="round"/>
<path d="M88.2374 323.844C87.5817 324.112 86.2364 324.296 86.1268 323.598C85.605 320.257 88.7208 317.349 89.8517 314.163C91.1127 310.607 96.6856 295.787 101.771 295.787C103.363 295.787 101.019 302.906 100.777 303.484C98.3834 309.23 94.2721 321.385 88.2374 323.844Z" stroke="#020207" stroke-width="2" stroke-miterlimit="10" stroke-linecap="round" stroke-linejoin="round"/>
<path d="M143.241 278.651C141.506 278.651 142.247 286.116 142.247 287.592C142.247 295.39 147.837 302.43 154.911 305.969C166.393 311.707 177.914 314.194 190.172 316.644C191.549 316.921 201.484 315.924 201.843 316.644C202.56 318.079 200.256 321.806 199.609 323.101" stroke="#020207" stroke-width="2" stroke-miterlimit="10" stroke-linecap="round" stroke-linejoin="round"/>
<path d="M143.24 278.651C142.547 277.267 143.556 275.626 143.737 274.184C144.71 266.397 148.42 258.325 153.917 252.827C155.309 251.436 162.352 246.845 163.85 250.593C165.449 254.588 161.535 257.486 160.125 260.775C158.764 263.951 157.891 267.503 157.891 270.953" stroke="#020207" stroke-width="2" stroke-miterlimit="10" stroke-linecap="round" stroke-linejoin="round"/>
<path d="M164.098 254.07C162.279 250.432 177.387 248.733 179.99 251.336C183.92 255.266 180.735 262.433 180.735 267.229" stroke="#020207" stroke-width="2" stroke-miterlimit="10" stroke-linecap="round" stroke-linejoin="round"/>
<path d="M181.232 267.976C179.018 267.976 182.949 265.3 183.715 264.996C186.395 263.923 188.49 261.628 191.662 262.265C198.72 263.677 198.942 272.286 196.38 277.411" stroke="#020207" stroke-width="2" stroke-miterlimit="10" stroke-linecap="round" stroke-linejoin="round"/>
<path d="M197.622 274.68C201.491 266.941 209.041 271.936 210.534 277.907C211.627 282.279 207.935 287.825 206.064 291.566" stroke="#020207" stroke-width="2" stroke-miterlimit="10" stroke-linecap="round" stroke-linejoin="round"/>
<path d="M211.279 285.109C210.395 284.667 214.326 285.177 215.748 286.599C217.878 288.73 218.579 291.567 217.983 294.544C216.387 302.526 209.39 309.172 205.071 315.65" stroke="#020207" stroke-width="2" stroke-miterlimit="10" stroke-linecap="round" stroke-linejoin="round"/>
<path d="M271.868 219.553C282.72 226.787 287.131 236.67 292.727 247.863C292.857 248.123 296.4 255.66 295.21 256.054C294.03 256.448 291.243 250.764 290.74 250.096C288.142 246.633 283.272 239.565 278.821 238.673C273.718 237.653 283.774 249.432 284.284 250.343C288.825 258.452 290.97 267.595 295.458 275.674" stroke="#020207" stroke-width="2" stroke-miterlimit="10" stroke-linecap="round" stroke-linejoin="round"/>
<path d="M110.959 256.551C106.359 256.551 111.267 272.813 112.449 275.177C114.855 279.987 113.015 270.264 117.167 271.45C121.317 272.639 125.487 284.023 128.341 287.592" stroke="#020207" stroke-width="2" stroke-miterlimit="10" stroke-linecap="round" stroke-linejoin="round"/>
<path d="M162.236 155.239C161.977 152.241 159.309 156.765 158.387 157.97C158.376 157.986 156.725 160.033 156.897 160.205C157.401 160.709 162.42 156.907 162.112 155.984C161.793 155.025 158.884 157.071 158.884 157.474C158.884 157.556 162.371 153.952 160.622 153.252C158.715 152.489 155.442 158.9 158.387 157.722C159.128 157.426 159.664 157.084 160.374 156.729C161.164 156.333 162.311 156.107 162.236 155.239Z" stroke="#020207" stroke-width="2" stroke-miterlimit="10" stroke-linecap="round" stroke-linejoin="round"/>
<path d="M221.46 164.427C223.31 168.128 217.652 171.049 215.003 168.4C212.82 166.217 216.026 160.98 218.976 163.93C219.392 164.346 220.533 163.192 221.46 164.427ZM221.46 164.427C220.155 161.818 215.604 164.242 216.493 166.91C217.472 169.848 223.2 166.747 221.46 164.427Z" stroke="#020207" stroke-width="2" stroke-miterlimit="10" stroke-linecap="round" stroke-linejoin="round"/>
<path d="M140.26 146.299C139.224 144.227 147.911 144.809 149.2 144.809C157.24 144.809 165.413 142.895 171.796 149.279" stroke="#020207" stroke-width="2" stroke-miterlimit="10" stroke-linecap="round" stroke-linejoin="round"/>
<path d="M207.305 153.998C206.371 152.129 217.455 152.259 219.224 152.259C224.091 152.259 232.491 153.394 236.607 156.481C238.287 157.741 239.361 159.98 240.828 161.447" stroke="#020207" stroke-width="2" stroke-miterlimit="10" stroke-linecap="round" stroke-linejoin="round"/>
<path d="M164.347 200.433C162.51 200.433 164.778 205.83 165.836 206.889" stroke="#020207" stroke-width="2" stroke-miterlimit="10" stroke-linecap="round" stroke-linejoin="round"/>
<path d="M134.301 222.781C138.674 224.968 141.892 230.138 146.469 231.969C173.429 242.755 195.806 248.88 224.937 239.17C238.199 234.75 258.755 225.159 252.996 207.882" stroke="#020207" stroke-width="2" stroke-miterlimit="10" stroke-linecap="round" stroke-linejoin="round"/>
</g>
<defs>
<linearGradient id="paint0_linear_3178_82080" x1="58.3341" y1="119.41" x2="320.933" y2="99.6498" gradientUnits="userSpaceOnUse">
<stop stop-color="#603DEB"/>
<stop offset="1" stop-color="#F19077"/>
</linearGradient>
<clipPath id="clip0_3178_82080">
<rect width="400" height="300" fill="white"/>
</clipPath>
</defs>
</svg>
