<svg width="583" height="395" viewBox="0 0 583 395" fill="none" xmlns="http://www.w3.org/2000/svg">
<path d="M279.5 70.5C277 73.75 274.755 76.8767 271.693 80.7031C265.539 88.3971 261.582 104.167 258.184 113.123C246.141 144.869 237.837 181.537 259.083 211.282C269.331 225.63 281.547 243.039 296.005 253.608C351.017 293.807 437.546 280.716 478.819 225.691C528.838 158.998 501.73 70.7121 422.982 46.4824C387.102 35.4418 359.777 33.031 324.823 44.6813C314.494 48.1249 294.813 53.9784 287.001 61.7916C284.259 64.5352 284.5 64 279.5 70.5Z" fill="#BFB1F7"/>
<path d="M175.866 322.177C167.807 315.865 159.827 307.77 150.962 298.972C110.547 263.903 108.196 197.473 167.862 184.797C183.159 181.547 202.917 191.127 215.791 198.813C252.021 220.441 270.738 257.507 277.83 297.668C280.97 315.452 279.238 342.085 265.854 356.084C247.264 375.531 210.968 349.482 195.873 336.633C190.093 331.712 181.828 326.846 175.866 322.177Z" fill="#F2C65E"/>
<path d="M341.971 91.4337C335.74 87.28 323.082 61.1506 317.811 60.0956C310.795 58.6936 291.749 73.127 285.166 76.4157C268.924 84.5378 253.258 95.7252 238.157 105.796C234.207 108.429 229.235 108.652 225.095 111.019C214.643 116.993 204.2 122.72 194.08 129.297C177.929 139.795 162.395 149.552 148.701 163.244C143.302 168.643 137.874 179.36 143.154 186.745C160.242 210.674 200.863 177.849 216.283 169.774C223.184 166.158 230.975 163.168 237.173 158.349C243.167 153.692 249.807 150.146 256.11 145.945C281.401 129.088 308.751 114.859 333.81 97.6357C340.403 93.1018 350.803 80.5837 360.252 82.9457C363.133 83.6633 364.259 89.566 365.476 91.7569C370.206 100.273 376.432 108.443 380.819 117.221C387.417 130.409 397.864 141.677 405.308 154.433C412.585 166.908 418.959 179.883 426.198 192.296C430.771 200.129 440.04 207.623 441.87 216.777C443.604 225.436 427.548 234.161 422.282 237.669C399.034 253.167 373.604 265.053 350.461 280.755C333.321 292.385 314.298 301.124 296.921 312.421C290.066 316.874 270.402 332.738 262.312 333.636C234.506 336.726 232.695 319.583 217.913 302.954C201.823 284.857 192.982 262.52 179.388 242.892C167.305 225.436 154.491 207.466 145.113 188.708" stroke="#020207" stroke-width="4" stroke-miterlimit="10" stroke-linecap="round" stroke-linejoin="round"/>
<path d="M390.198 131.965C384.937 131.965 379.955 137.083 375.183 139.469C360.805 146.655 339.234 154.929 334.372 171.135C329.276 188.116 346.193 210.866 365.387 202.145C373.843 198.301 382.184 193.472 390.198 188.762C399.614 183.221 407.961 178.834 415.666 171.135" stroke="#020207" stroke-width="4" stroke-miterlimit="10" stroke-linecap="round" stroke-linejoin="round"/>
<path d="M354.747 175.003C339.941 178.701 358.55 192.388 361.929 180.55C363.488 175.103 353.112 173.164 350.83 176.961C346.771 183.724 355.346 184.984 359.648 182.836" stroke="#020207" stroke-width="4" stroke-miterlimit="10" stroke-linecap="round" stroke-linejoin="round"/>
<path d="M163.781 177.4C162.712 178.469 171.12 174.449 172.266 173.812C176.23 171.611 180.104 169.52 184.021 167.282C195.438 160.761 207.725 154.222 219.608 148.676C243.825 137.374 265.899 122.252 289.143 109.178C298.986 103.641 310.285 92.4488 320.813 88.9414" stroke="#020207" stroke-width="4" stroke-miterlimit="10" stroke-linecap="round" stroke-linejoin="round"/>
</svg>
