<svg width="513" height="652" viewBox="0 0 513 652" fill="none" xmlns="http://www.w3.org/2000/svg">
<g clip-path="url(#clip0_3154_82651)">
<rect x="145" y="30" width="221" height="387" rx="110.5" fill="url(#paint0_linear_3154_82651)"/>
<path d="M279.252 179.585C278.429 179.585 278.208 186.987 278.208 188.972C278.208 198.593 276.445 209.29 280.086 218.385C281.615 222.215 285.017 233.954 287.386 236.324C296.646 245.585 305.451 240.864 314.285 234.238C318.066 231.404 323.317 228.659 326.176 224.851C331.177 218.181 335.605 202.978 337.642 194.813" stroke="#020207" stroke-width="3" stroke-miterlimit="10" stroke-linecap="round" stroke-linejoin="round"/>
<path d="M277.793 174.997C277.385 172.168 275.098 170.726 273.411 173.536C270.827 177.843 271.206 191.566 274.66 195.022" stroke="#020207" stroke-width="3" stroke-miterlimit="10" stroke-linecap="round" stroke-linejoin="round"/>
<path d="M306.151 135.363C302.685 130.508 297.393 132.316 293.017 134.945C286.062 139.12 277.922 149.25 276.749 157.474C276.148 161.657 275.291 165.714 275.291 169.99C275.291 171.176 275.705 177.052 275.705 175.413" stroke="#020207" stroke-width="3" stroke-miterlimit="10" stroke-linecap="round" stroke-linejoin="round"/>
<path d="M303.653 133.068C304.773 131.386 309.033 131.816 310.742 131.816C315.976 131.816 325.37 131.225 329.507 135.363C342.146 147.999 350.454 163.116 347.864 181.254C347.204 185.873 346.259 190.487 343.482 194.187C341.58 196.726 339.17 192.025 338.061 190.641C334.228 185.849 332.133 180.033 329.507 174.788C328.451 172.673 321.175 173.751 318.876 171.45C317.476 170.052 315.422 169.224 314.704 167.069C314.121 165.328 314.016 162.861 313.035 161.229C312.09 159.657 308.899 160.142 307.405 159.769C303.023 158.673 297.474 153.772 294.265 160.186" stroke="#020207" stroke-width="3" stroke-miterlimit="10" stroke-linecap="round" stroke-linejoin="round"/>
<path d="M304.902 135.78C302.014 137.044 300.059 137.987 298.017 140.369" stroke="#020207" stroke-width="3" stroke-miterlimit="10" stroke-linecap="round" stroke-linejoin="round"/>
<path d="M297.393 143.916C297.305 145.862 298.472 148.014 297.603 149.756C296.255 152.452 288.279 154.823 293.017 159.56" stroke="#020207" stroke-width="3" stroke-miterlimit="10" stroke-linecap="round" stroke-linejoin="round"/>
<path d="M291.971 160.603C281.93 160.603 279.421 172.356 278.417 180.42" stroke="#020207" stroke-width="3" stroke-miterlimit="10" stroke-linecap="round" stroke-linejoin="round"/>
<path d="M295.724 218.593C301.208 221.336 302.165 221.661 307.615 219.845" stroke="#020207" stroke-width="3" stroke-miterlimit="10" stroke-linecap="round" stroke-linejoin="round"/>
<path d="M312.616 198.776C315.913 195.483 323.749 197.968 327.425 199.193" stroke="#020207" stroke-width="3" stroke-miterlimit="10" stroke-linecap="round" stroke-linejoin="round"/>
<path d="M300.73 196.274C297.702 195.667 288.466 190.628 286.552 191.267" stroke="#020207" stroke-width="3" stroke-miterlimit="10" stroke-linecap="round" stroke-linejoin="round"/>
<path d="M287.176 198.568C286.593 197.4 289.568 199.626 290.724 200.237C292.696 201.283 294.75 201.906 296.979 201.906" stroke="#020207" stroke-width="3" stroke-miterlimit="10" stroke-linecap="round" stroke-linejoin="round"/>
<path d="M312.412 203.157C316.251 205.56 319.028 206.461 323.463 205.869" stroke="#020207" stroke-width="3" stroke-miterlimit="10" stroke-linecap="round" stroke-linejoin="round"/>
<path d="M289.469 224.225C295.275 228.371 303.49 228.606 310.119 228.606" stroke="#020207" stroke-width="3" stroke-miterlimit="10" stroke-linecap="round" stroke-linejoin="round"/>
<path d="M345.571 192.101C345.571 199.035 338.47 205.251 334.1 209.623" stroke="#020207" stroke-width="3" stroke-miterlimit="10" stroke-linecap="round" stroke-linejoin="round"/>
<path d="M272.168 190.651C264.233 195.302 260.061 185.854 252.954 183.569C248.572 182.162 241.891 189.561 239.796 192.781" stroke="#020207" stroke-width="3" stroke-miterlimit="10" stroke-linecap="round" stroke-linejoin="round"/>
<path d="M240.275 194.699C238.07 200.593 235.823 207.212 235.111 213.438" stroke="#020207" stroke-width="3" stroke-miterlimit="10" stroke-linecap="round" stroke-linejoin="round"/>
<path d="M234.236 217.064C229.387 242.985 231.488 270.16 232.217 296.012C232.474 304.952 231.231 313.808 232.421 322.817" stroke="#020207" stroke-width="3" stroke-miterlimit="10" stroke-linecap="round" stroke-linejoin="round"/>
<path d="M230.589 232.717C229.754 230.443 228.611 228.297 227.619 226.091C226.621 223.885 225.594 221.692 224.649 219.465C224.363 218.793 225.997 224.395 226.697 225.986C228.471 230.011 228.78 234.398 230.186 238.261" stroke="#020207" stroke-width="3" stroke-miterlimit="10" stroke-linecap="round" stroke-linejoin="round"/>
<path d="M274.992 194.466C274.07 199.752 273.977 204.858 274.129 210.204C274.473 222.265 277.618 234.841 282.636 245.872C284.76 250.545 285.6 256.651 292.392 256.3C296.5 256.088 300.549 252.526 303.571 250.123C310.369 244.716 317.458 241.286 323.463 234.926C327.442 230.716 327.395 224.145 330.33 219.64" stroke="#020207" stroke-width="3" stroke-miterlimit="10" stroke-linecap="round" stroke-linejoin="round"/>
<path d="M331.777 221.203C339.678 232.286 366.944 249.722 365.118 265.758" stroke="#020207" stroke-width="3" stroke-miterlimit="10" stroke-linecap="round" stroke-linejoin="round"/>
<path d="M367.37 264.385C360.923 265.457 352.229 273.056 347.864 278.228C342.794 284.23 337.449 289.67 333.248 296.124C330.914 299.714 331.585 304.432 330.459 308.38C328.323 315.846 327.384 323.1 326.538 330.522" stroke="#020207" stroke-width="3" stroke-miterlimit="10" stroke-linecap="round" stroke-linejoin="round"/>
<path d="M327.081 319.639C328.388 317.631 332.402 314.281 333.499 316.412C333.907 317.211 326.456 325.072 326.316 326.306C326.176 327.543 329.543 325.87 326.946 328.939" stroke="#020207" stroke-width="3" stroke-miterlimit="10" stroke-linecap="round" stroke-linejoin="round"/>
<path d="M327.483 330.397C325.902 332.701 324.117 334.877 322.734 337.308C322.156 338.334 322.028 339.558 321.654 340.678C321.508 341.117 321.059 342.216 321.497 342.057C322.366 341.74 324.747 338.219 325.75 337.419C329.03 334.809 338.36 334.634 342.386 334.426C348.892 334.09 355.508 340.79 362.125 336.91C367.359 333.846 363.555 323.665 365.346 318.88C368.999 309.138 369.582 300.115 370.743 289.92C371.029 287.398 372.517 283.089 372.021 280.751C371.63 278.901 369.652 277.46 369.127 275.53C368.211 272.181 370.434 266.928 368.112 264.003" stroke="#020207" stroke-width="3" stroke-miterlimit="10" stroke-linecap="round" stroke-linejoin="round"/>
<path d="M232.433 302.325C234.971 308.18 234.597 308.275 237.97 312.971C238.921 314.299 240.123 315.445 241.022 316.812C242.118 318.475 242.994 320.271 243.921 322.033C246.786 327.486 235.974 318.35 234.533 316.538C234.265 316.196 234.154 315.562 233.722 315.513C233.489 315.487 234.737 322.893 234.901 323.565C236.832 331.637 241.517 338.975 244.359 346.768" stroke="#020207" stroke-width="3" stroke-miterlimit="10" stroke-linecap="round" stroke-linejoin="round"/>
<path d="M320.259 344.71C318.328 347.237 317.814 351.046 315.358 353" stroke="#020207" stroke-width="3" stroke-miterlimit="10" stroke-linecap="round" stroke-linejoin="round"/>
<path d="M316.56 352.673C312.983 351.524 308.333 349.296 304.458 350.595C295.694 353.53 305.836 355.176 309.016 355.539" stroke="#020207" stroke-width="3" stroke-miterlimit="10" stroke-linecap="round" stroke-linejoin="round"/>
<path d="M358.174 340.217C356.191 346.957 354.528 353.245 350.922 359.249C348.629 363.074 344.941 366.82 341.866 369.898C335.249 376.512 330.546 384.279 322.838 390.063C320.399 391.893 319.087 395.141 316.496 397.085C307.294 403.989 299.697 412.977 291.575 421.101" stroke="#020207" stroke-width="3" stroke-miterlimit="10" stroke-linecap="round" stroke-linejoin="round"/>
<path d="M324.875 347.921C324.42 347.77 323.942 347.682 323.516 347.468C322.775 347.096 325.179 347.43 326.007 347.468C327.519 347.537 329.036 347.527 330.541 347.694C333.709 348.047 339.288 349.648 341.639 351.999C342.363 352.726 339.667 351.418 338.692 351.093C337.193 350.592 335.518 350.64 333.937 350.64" stroke="#020207" stroke-width="3" stroke-miterlimit="10" stroke-linecap="round" stroke-linejoin="round"/>
<path d="M321.024 347.92C312.989 361.32 304.453 374.327 295.204 386.664C291.073 392.173 287.602 399.273 282.064 403.429C278.843 405.845 274.351 406.154 270.739 407.963" stroke="#020207" stroke-width="3" stroke-miterlimit="10" stroke-linecap="round" stroke-linejoin="round"/>
<path d="M273.686 407.508C261.076 408.909 257.406 416.537 249.448 424.503C246.285 427.66 240.835 429.942 237.212 432.656C235.245 434.133 229.224 442.794 231.552 445.117C234.691 448.263 247.102 436.339 249.897 434.244C251.099 433.339 252.102 432.195 253.299 431.297C253.999 430.771 255.562 429.055 255.562 429.937C255.562 432.049 246.869 446.652 245.369 449.652C244.721 450.947 242.959 456.077 244.237 457.356C246.139 459.258 249.523 454.157 250.352 453.048C255.212 446.57 257.249 436.345 265.073 432.429" stroke="#020207" stroke-width="3" stroke-miterlimit="10" stroke-linecap="round" stroke-linejoin="round"/>
<path d="M261.45 436.282C260.289 435.897 258.334 442.824 257.599 444.669C256.712 446.892 249.343 458.063 253.748 459.166C259.554 460.619 266.964 438.284 271.871 435.833" stroke="#020207" stroke-width="3" stroke-miterlimit="10" stroke-linecap="round" stroke-linejoin="round"/>
<path d="M268.924 441.044C269 440.589 269.041 440.128 269.152 439.684C269.31 439.054 268.761 440.916 268.475 441.494C268.02 442.404 267.845 443.25 267.565 444.213C266.655 447.4 266.661 449.571 266.661 452.822C266.661 453.131 266.363 455.051 267.116 454.865C270.914 453.913 271.585 445.375 273.231 442.626C274.234 440.957 276.784 440.607 277.986 439.002C283.272 431.951 290.554 425.87 294.522 417.933" stroke="#020207" stroke-width="3" stroke-miterlimit="10" stroke-linecap="round" stroke-linejoin="round"/>
<path d="M286.82 400.033C282.479 400.033 282.309 410.054 285.011 415.213C286.032 417.162 289.066 416.923 291.126 417.705C291.266 417.758 291.435 417.752 291.575 417.705C299.645 415.015 297.253 397.687 288.634 399.128C278.814 400.763 281.131 417.635 292.03 415.213C299.225 413.614 292.853 395.924 287.503 398.901C280.699 402.683 282.934 417.413 291.803 415.441C297.871 414.093 294.003 400.488 288.407 400.488C277.531 400.488 293.162 421.54 293.162 406.832" stroke="#020207" stroke-width="3" stroke-miterlimit="10" stroke-linecap="round" stroke-linejoin="round"/>
<path d="M158.499 230.492C154.764 232.36 138.514 237.183 133.881 236.411C129.009 235.598 117.042 232.251 112.578 235.227C110.104 236.877 113.932 240.564 115.659 240.909C123.361 242.451 130.223 242.33 137.908 242.33" stroke="#020207" stroke-width="3" stroke-miterlimit="10" stroke-linecap="round" stroke-linejoin="round"/>
<path d="M250.818 184.797C243.986 179.332 233.629 184.436 225.962 182.903C224.62 182.634 218.662 180.737 217.676 181.719C214.94 184.459 211.165 198.794 210.103 203.027C209.338 206.08 204.303 224.214 206.316 226.23C206.975 226.892 211.882 225.497 213.184 225.757C216.614 226.444 231.54 239.046 233.063 242.093" stroke="#020207" stroke-width="3" stroke-miterlimit="10" stroke-linecap="round" stroke-linejoin="round"/>
<path d="M206.555 218.417C203.69 216.987 200.16 212.282 200.16 208.947" stroke="#020207" stroke-width="3" stroke-miterlimit="10" stroke-linecap="round" stroke-linejoin="round"/>
<path d="M203.001 213.682C200.883 213.682 197.703 219.83 196.373 221.495C190.013 229.452 179.551 236.681 175.07 245.645" stroke="#020207" stroke-width="3" stroke-miterlimit="10" stroke-linecap="round" stroke-linejoin="round"/>
<path d="M132.498 243.684C129.149 244.353 124.861 245.642 121.418 245.068C117.97 244.493 114.014 243.925 110.483 244.514C108.645 244.82 105.465 243.68 104.118 245.483C100.763 249.957 106.749 251.3 110.343 251.3C113.839 251.3 117.211 252.726 120.869 252.269C126.039 251.622 131.075 250.746 136.373 250.746" stroke="#020207" stroke-width="3" stroke-miterlimit="10" stroke-linecap="round" stroke-linejoin="round"/>
<path d="M132.913 251.854C129.593 252.328 126.606 255.837 123.082 256.424C117.959 257.279 112.83 257.77 107.713 258.501C106.312 258.702 101.341 260.848 103.564 263.071C108.897 268.406 128.269 261.132 134.711 261.132" stroke="#020207" stroke-width="3" stroke-miterlimit="10" stroke-linecap="round" stroke-linejoin="round"/>
<path d="M134.85 261.824C130.544 263.977 126.886 267.683 122.807 270.133C121.004 271.213 118.804 270.927 117.13 271.933C115.712 272.784 111.061 274.649 112.421 276.918C114.825 280.923 128.088 275.348 131.11 273.456C133.497 271.966 136.326 271.298 138.725 269.856C139.827 269.195 141.409 267.326 142.605 267.087C146.287 266.349 155.412 263.402 158.248 261.132C162.397 257.81 165.886 253.905 169.597 250.192C171.837 247.952 175.7 246.71 177.211 243.684" stroke="#020207" stroke-width="3" stroke-miterlimit="10" stroke-linecap="round" stroke-linejoin="round"/>
<path d="M217.782 183.308C213.634 181.924 204.981 179.802 200.61 180.677C196.153 181.569 191.701 189.174 188.707 192.17C180.859 200.021 173.052 208.734 166.832 218.066C163.752 222.691 161.149 228.179 157.141 232.191" stroke="#020207" stroke-width="3" stroke-miterlimit="10" stroke-linecap="round" stroke-linejoin="round"/>
<path d="M222.671 328.009C222.671 331.473 227.24 333.237 229.802 335.564C233.402 338.827 237.136 341.936 240.713 345.218C241.314 345.769 239.312 344.378 238.612 343.958C237.235 343.131 236.127 341.986 234.837 341.021C234.335 340.645 232.882 339.621 233.163 340.181C234.493 342.845 239.668 345.815 241.973 347.736C261.672 364.159 285.437 356.549 307.849 356.549" stroke="#020207" stroke-width="3" stroke-miterlimit="10" stroke-linecap="round" stroke-linejoin="round"/>
<path d="M224.975 328.009C222.583 333.316 235.793 324.577 234.836 321.714C234.65 321.154 225.769 326.248 224.975 328.009Z" stroke="#020207" stroke-width="3" stroke-miterlimit="10" stroke-linecap="round" stroke-linejoin="round"/>
<path d="M314.775 347.736C314.004 350.324 304.744 347.562 304.073 350.254C303.881 351.031 310.457 349.488 310.784 349.415C312.581 349.017 319.139 348.759 319.6 346.477C319.839 345.257 316.543 341.771 314.775 347.736Z" stroke="#020207" stroke-width="3" stroke-miterlimit="10" stroke-linecap="round" stroke-linejoin="round"/>
<path d="M222.672 332.207C216.51 326.043 211.761 340.778 211.761 345.637" stroke="#020207" stroke-width="3" stroke-miterlimit="10" stroke-linecap="round" stroke-linejoin="round"/>
<path d="M210.08 346.897C210.809 345.439 225.659 349.282 226.867 351.094C227.018 351.327 227.018 351.701 226.867 351.934C225.081 354.614 189.798 343.455 209.66 349.415C211.229 349.886 212.723 350.576 214.275 351.094C216.265 351.756 217.934 352.531 219.731 353.612" stroke="#020207" stroke-width="3" stroke-miterlimit="10" stroke-linecap="round" stroke-linejoin="round"/>
<path d="M210.5 346.058C205.686 346.058 201.479 350.044 198.334 353.193C192.412 359.117 180.894 360.972 173.577 365.365C169.947 367.541 167.059 372.4 163.506 374.178C160.693 375.586 152.174 378.746 152.174 382.572C152.174 383.999 154.958 381.935 156.37 381.733C158.797 381.387 161.026 381.313 163.506 381.313C168.471 381.313 176.809 385.084 181.547 387.189C196.35 393.77 197.494 407.544 197.494 421.184" stroke="#020207" stroke-width="3" stroke-miterlimit="10" stroke-linecap="round" stroke-linejoin="round"/>
<path d="M200.009 414.891C214.783 410.268 229.597 402.681 244.488 400.201C245.999 399.944 255.854 399.641 256.239 398.1C257.902 391.433 248.683 385.041 248.683 378.793C248.683 378.398 249.243 379.353 249.524 379.633C250.574 380.685 251.432 381.959 252.464 382.991C253.876 384.403 260.015 390.707 260.015 389.706" stroke="#020207" stroke-width="3" stroke-miterlimit="10" stroke-linecap="round" stroke-linejoin="round"/>
<path d="M256.66 398.101C256.66 397.64 257.482 395.556 258.334 396.84C259.151 398.06 259.175 412.639 259.175 415.306" stroke="#020207" stroke-width="3" stroke-miterlimit="10" stroke-linecap="round" stroke-linejoin="round"/>
<path d="M262.529 358.228C257.044 362.618 257.342 374.277 256.239 380.892" stroke="#020207" stroke-width="3" stroke-miterlimit="10" stroke-linecap="round" stroke-linejoin="round"/>
<path d="M235.257 334.725C247.866 341.89 262.021 350.732 277.215 351.094C282.531 351.22 287.847 351.384 293.162 351.513C294.592 351.548 298.028 350.837 299.038 352.352C300.619 354.723 286.399 355.29 285.612 355.29C272.022 355.29 260.067 354.779 247.008 351.513" stroke="#020207" stroke-width="3" stroke-miterlimit="10" stroke-linecap="round" stroke-linejoin="round"/>
<path d="M257.08 355.71C264.548 357.749 272.139 359.226 279.736 360.747" stroke="#020207" stroke-width="3" stroke-miterlimit="10" stroke-linecap="round" stroke-linejoin="round"/>
<path d="M162.245 383.831C149.881 383.831 152.215 411.681 150.92 420.763C149.274 432.278 149.508 447.709 151.754 458.955C155.004 475.209 150.611 493.103 153.855 509.322C155.588 517.978 156.381 526.574 157.63 535.346C158.126 538.79 160.151 542.327 160.151 545.834" stroke="#020207" stroke-width="3" stroke-miterlimit="10" stroke-linecap="round" stroke-linejoin="round"/>
<path d="M198.334 407.333C189.541 407.333 191.618 433.784 191.618 440.069C191.618 451.66 187.113 466.525 189.943 477.847C191.204 482.908 192.062 494.551 190.778 499.669C187.195 514.009 186.583 531.804 186.583 546.675" stroke="#020207" stroke-width="3" stroke-miterlimit="10" stroke-linecap="round" stroke-linejoin="round"/>
<path d="M158.05 403.978C159.45 406.493 160.115 409.593 162.245 411.53C163.505 412.674 165.606 412.09 167.281 412.371" stroke="#020207" stroke-width="3" stroke-miterlimit="10" stroke-linecap="round" stroke-linejoin="round"/>
<path d="M186.507 539.706C184.674 556.176 200.341 566.915 196.863 584.301C194.675 595.256 182.521 588.871 177.497 595.565C165.139 612.053 152.903 627.075 136.064 639.711C132.744 642.203 116.196 641.403 114.452 637.907C111.441 631.89 119.481 618.735 123.006 614.031C134.267 599.014 158.132 582.883 158.132 561.329" stroke="#020207" stroke-width="3" stroke-miterlimit="10" stroke-linecap="round" stroke-linejoin="round"/>
<path d="M159.935 539.706C159.036 548.7 159.06 557.717 158.581 566.734" stroke="#020207" stroke-width="3" stroke-miterlimit="10" stroke-linecap="round" stroke-linejoin="round"/>
<path d="M155.43 566.285C158.674 585.766 188.082 564.026 192.359 555.476" stroke="#020207" stroke-width="3" stroke-miterlimit="10" stroke-linecap="round" stroke-linejoin="round"/>
<path d="M149.128 586.555C149.128 585.563 156.993 589.45 157.682 591.51C158.207 593.08 154.379 591.51 152.728 591.51C149.682 591.51 146.782 591.06 143.719 591.06C142.955 591.06 141.473 589.846 141.473 590.611C141.473 592.479 150.429 598.566 149.128 600.521C147.611 602.791 135.492 595.321 138.316 600.97" stroke="#020207" stroke-width="3" stroke-miterlimit="10" stroke-linecap="round" stroke-linejoin="round"/>
<path d="M127.511 640.161C145.039 628.471 158.027 615.444 172.994 600.97C178.052 596.079 180.567 590.062 186.507 586.105" stroke="#020207" stroke-width="3" stroke-miterlimit="10" stroke-linecap="round" stroke-linejoin="round"/>
<path d="M360.789 250.964C364.167 257.723 366.472 263.706 367.545 271.235" stroke="#020207" stroke-width="3" stroke-miterlimit="10" stroke-linecap="round" stroke-linejoin="round"/>
<path d="M333.767 297.812C325.161 301.259 332.308 283.007 333.767 277.992C334.356 275.974 333.82 282.197 333.767 284.299C333.569 292.427 332.775 300.533 331.97 308.624C331.923 309.072 331.766 310.378 331.97 309.975C333.575 306.758 336.965 296.533 333.767 297.812Z" stroke="#020207" stroke-width="3" stroke-miterlimit="10" stroke-linecap="round" stroke-linejoin="round"/>
<path d="M330.616 318.984C335.044 314.872 344.999 304.563 352.234 306.371C353.576 306.707 350.279 308.387 349.083 309.074C347.671 309.88 346.399 310.905 345.028 311.777C341.072 314.294 336.842 316.456 332.868 318.984C331.777 319.678 329.717 321.236 329.717 321.236C329.717 321.236 334.461 317.261 336.923 315.38C340.43 312.697 343.949 310.443 347.73 308.173" stroke="#020207" stroke-width="3" stroke-miterlimit="10" stroke-linecap="round" stroke-linejoin="round"/>
<path d="M237.848 226.64L236.944 227.541L236.045 230.694V232.045" stroke="#020207" stroke-width="3" stroke-miterlimit="10" stroke-linecap="round" stroke-linejoin="round"/>
<path d="M234.691 220.334C234.265 217.777 233.745 215.236 233.343 212.676C233.15 211.48 232.894 207.862 232.894 209.072C232.894 219.957 235.846 230.293 234.241 241.505C234.131 242.285 232.252 250.964 231.091 250.964C230.898 250.964 233.18 244.569 233.343 244.208C235.805 238.79 238.997 232.554 242.801 227.991C243.192 227.519 248.479 221.588 247.3 223.937" stroke="#020207" stroke-width="3" stroke-miterlimit="10" stroke-linecap="round" stroke-linejoin="round"/>
<path d="M154.531 383.399C147.675 381.44 151.019 389.795 154.531 393.309" stroke="#020207" stroke-width="3" stroke-miterlimit="10" stroke-linecap="round" stroke-linejoin="round"/>
<path d="M197.989 418.534C198.97 420.869 193.858 416.281 192.359 415.382C191.536 414.886 193.753 416.754 194.611 417.186C196.297 418.026 196.84 415.797 197.989 418.534Z" stroke="#020207" stroke-width="3" stroke-miterlimit="10" stroke-linecap="round" stroke-linejoin="round"/>
<path d="M151.159 109.522C148.101 107.993 147.885 140.788 146.421 146.653C142.231 163.407 144.052 182.791 144.052 200.374C144.052 212.147 142.471 224.131 142.471 235.925" stroke="#020207" stroke-width="3" stroke-miterlimit="10" stroke-linecap="round" stroke-linejoin="round"/>
<path d="M143.259 271.476C139.647 269.67 140.026 297.974 140.89 302.286C145.494 325.314 146.742 350.011 164.585 367.857" stroke="#020207" stroke-width="3" stroke-miterlimit="10" stroke-linecap="round" stroke-linejoin="round"/>
<path d="M215.927 409.727C231.745 415.003 245.177 420.78 261.736 415.259" stroke="#020207" stroke-width="3" stroke-miterlimit="10" stroke-linecap="round" stroke-linejoin="round"/>
<path d="M151.947 115.842C145.569 113.716 153.347 102.068 155.109 97.672C162.024 80.3837 174.44 68.8542 186.699 56.591C203.515 39.7725 241.46 27.1714 264.892 30.5203C280.956 32.8157 296.442 39.5076 311.496 45.5306C320.487 49.1287 325.703 56.5863 333.61 61.3312C358.367 76.1886 356.914 99.2904 361.249 125.323C368.916 171.325 367.569 217.803 367.569 264.366" stroke="#020207" stroke-width="3" stroke-miterlimit="10" stroke-linecap="round" stroke-linejoin="round"/>
<path d="M365.2 325.197C366.536 322.532 362.492 335.152 362.043 337.838C360.649 346.191 357.294 352.866 354.143 360.748C345.828 381.54 322.839 401.685 303.595 411.309" stroke="#020207" stroke-width="3" stroke-miterlimit="10" stroke-linecap="round" stroke-linejoin="round"/>
<path d="M156.113 355.557C152.571 356.739 161.895 350.815 164.865 348.553C168.623 345.7 173.028 342.455 176.535 339.215C190.801 326.043 206.596 314.308 222.631 303.614" stroke="#020207" stroke-width="3" stroke-miterlimit="10" stroke-linecap="round" stroke-linejoin="round"/>
<path d="M161.364 370.147C174.049 358.165 186.361 347.619 200.458 337.464C210.873 329.963 219.147 318.196 230.799 312.368" stroke="#020207" stroke-width="3" stroke-miterlimit="10" stroke-linecap="round" stroke-linejoin="round"/>
<path d="M147.944 343.3C164.848 326.397 184.879 312.873 202.792 297.194C210.383 290.552 217.963 282.605 227.299 277.934" stroke="#020207" stroke-width="3" stroke-miterlimit="10" stroke-linecap="round" stroke-linejoin="round"/>
<path d="M145.026 325.207C171.861 298.367 202.144 274.477 233.716 253.421" stroke="#020207" stroke-width="3" stroke-miterlimit="10" stroke-linecap="round" stroke-linejoin="round"/>
<path d="M159.03 351.472C175.297 350.732 191.197 352.639 207.459 352.639" stroke="#020207" stroke-width="3" stroke-miterlimit="10" stroke-linecap="round" stroke-linejoin="round"/>
<path d="M147.361 341.55C152.327 339.067 169.796 341.183 174.785 340.966C187.324 340.421 200.015 340.382 212.712 340.382" stroke="#020207" stroke-width="3" stroke-miterlimit="10" stroke-linecap="round" stroke-linejoin="round"/>
<path d="M149.694 324.04C146.818 322.602 154.356 323.415 155.529 323.457C161.171 323.658 170.6 324.765 177.118 324.04C194.774 322.078 214.339 320.539 231.966 320.539" stroke="#020207" stroke-width="3" stroke-miterlimit="10" stroke-linecap="round" stroke-linejoin="round"/>
<path d="M144.443 305.365C173.892 305.365 203.066 303.03 232.55 303.03" stroke="#020207" stroke-width="3" stroke-miterlimit="10" stroke-linecap="round" stroke-linejoin="round"/>
<path d="M144.443 283.187C154.759 286.626 168.536 282.376 178.869 281.436C197.301 279.76 216.341 280.269 234.884 280.269" stroke="#020207" stroke-width="3" stroke-miterlimit="10" stroke-linecap="round" stroke-linejoin="round"/>
<path d="M155.53 263.927C180.153 260.039 205.383 259.841 230.216 259.841" stroke="#020207" stroke-width="3" stroke-miterlimit="10" stroke-linecap="round" stroke-linejoin="round"/>
<path d="M187.621 262.759C185.778 259.066 173.653 274.243 170.7 277.934C163.132 287.395 150.167 292.75 144.443 304.197" stroke="#020207" stroke-width="3" stroke-miterlimit="10" stroke-linecap="round" stroke-linejoin="round"/>
<path d="M252.388 402.245C247.995 400.05 245.252 404.894 241.886 407.497C238.163 410.38 234.633 413.514 230.799 416.252C229.883 416.911 226.61 419.281 230.216 415.668" stroke="#020207" stroke-width="3" stroke-miterlimit="10" stroke-linecap="round" stroke-linejoin="round"/>
<path d="M259.973 404.579C252.657 410.275 256.21 407.019 249.471 414.501" stroke="#020207" stroke-width="3" stroke-miterlimit="10" stroke-linecap="round" stroke-linejoin="round"/>
<path d="M204.834 25.5152C190.206 28.6569 211.112 18.5268 212.419 23.7643C213.493 28.0586 204.799 35.5711 201.916 30.7678C197.785 23.8822 213.084 23.7445 204.834 25.5152Z" stroke="#020207" stroke-width="3" stroke-miterlimit="10" stroke-linecap="round" stroke-linejoin="round"/>
<path d="M327.366 42.7311C327.547 37.7954 327.711 34.1769 333.785 34.8522C334.637 34.9467 335.973 37.6156 336.119 38.3539C337.519 45.3347 327.279 45.1841 327.366 42.7311Z" stroke="#020207" stroke-width="3" stroke-miterlimit="10" stroke-linecap="round" stroke-linejoin="round"/>
<path d="M276.02 14.7177C276.919 6.13374 285.794 9.54272 283.606 15.0096C282.281 18.3327 275.6 18.7489 276.02 14.7177Z" stroke="#020207" stroke-width="3" stroke-miterlimit="10" stroke-linecap="round" stroke-linejoin="round"/>
<path d="M384.84 166.169C384.017 163.987 382.909 156.885 386.299 158.582C392.291 161.579 387.652 173.673 384.548 168.504C383.457 166.685 385.336 167.475 384.84 166.169Z" stroke="#020207" stroke-width="3" stroke-miterlimit="10" stroke-linecap="round" stroke-linejoin="round"/>
<path d="M129.273 184.553C125.766 183.754 127.032 167.719 134.816 175.507C138.632 179.321 134.856 185.823 129.273 184.553Z" stroke="#020207" stroke-width="3" stroke-miterlimit="10" stroke-linecap="round" stroke-linejoin="round"/>
<path d="M384.548 263.927C383.177 261.132 385.394 257.615 386.882 254.881C391.684 246.076 391.381 277.833 384.548 263.927Z" stroke="#020207" stroke-width="3" stroke-miterlimit="10" stroke-linecap="round" stroke-linejoin="round"/>
<path d="M135.107 356.724C129.366 360.591 132.23 366.156 139.483 363.435C141.794 362.569 137.639 355.02 135.107 356.724Z" stroke="#020207" stroke-width="3" stroke-miterlimit="10" stroke-linecap="round" stroke-linejoin="round"/>
<path d="M362.668 388.532C360.882 390.935 362.557 395.206 364.71 397.284C366.14 398.661 368.719 396.881 370.545 396.117C373.457 394.909 369.436 379.452 362.668 388.532Z" stroke="#020207" stroke-width="3" stroke-miterlimit="10" stroke-linecap="round" stroke-linejoin="round"/>
<path d="M369.378 102.263C368.328 103.783 368.584 106.139 369.378 107.807C372.295 113.925 375.172 93.8854 369.378 102.263Z" stroke="#020207" stroke-width="3" stroke-miterlimit="10" stroke-linecap="round" stroke-linejoin="round"/>
<path d="M129.564 226.283C129.249 217.126 129.331 207.796 131.315 198.852" stroke="#020207" stroke-width="3" stroke-miterlimit="10" stroke-linecap="round" stroke-linejoin="round"/>
<path d="M131.899 149.827C128.164 112.458 140.569 57.0876 173.91 34.8525" stroke="#020207" stroke-width="3" stroke-miterlimit="10" stroke-linecap="round" stroke-linejoin="round"/>
<path d="M227.007 21.4305C231.371 19.2483 235.392 19.6492 239.26 17.9287C248.129 13.9863 251.204 11.5088 261.433 11.5088" stroke="#020207" stroke-width="3" stroke-miterlimit="10" stroke-linecap="round" stroke-linejoin="round"/>
<path d="M299.359 21.4287C305.392 22.7909 311.42 24.1525 317.447 25.5141" stroke="#020207" stroke-width="3" stroke-miterlimit="10" stroke-linecap="round" stroke-linejoin="round"/>
<path d="M351.873 61.1157C358.927 67.388 364.488 74.6057 368.211 83.2936" stroke="#020207" stroke-width="3" stroke-miterlimit="10" stroke-linecap="round" stroke-linejoin="round"/>
<path d="M372.295 125.898C374.67 133.668 377.33 141.361 379.297 149.243" stroke="#020207" stroke-width="3" stroke-miterlimit="10" stroke-linecap="round" stroke-linejoin="round"/>
<path d="M382.214 192.432C382.978 208.48 383.381 224.254 383.381 240.29" stroke="#020207" stroke-width="3" stroke-miterlimit="10" stroke-linecap="round" stroke-linejoin="round"/>
<path d="M385.132 285.229C381.817 293.106 379.186 299.545 378.13 307.991C377.307 314.597 380.219 320.83 379.297 327.251C378.299 334.255 374.57 339.751 372.878 346.51C372.272 348.94 373.567 352.874 374.045 355.265C374.862 359.35 371.256 371.35 369.377 375.108" stroke="#020207" stroke-width="3" stroke-miterlimit="10" stroke-linecap="round" stroke-linejoin="round"/>
<path d="M350.123 407.789C342.351 412.114 306.402 444.599 295.858 434.052" stroke="#020207" stroke-width="3" stroke-miterlimit="10" stroke-linecap="round" stroke-linejoin="round"/>
<path d="M201.917 431.717C206.975 433.083 212.034 434.443 217.087 435.803" stroke="#020207" stroke-width="3" stroke-miterlimit="10" stroke-linecap="round" stroke-linejoin="round"/>
<path d="M126.062 288.147C117.509 293.854 122.083 303.525 125.479 310.325C127.41 314.189 123.729 319.979 123.729 323.749C123.729 326.993 130.147 330.552 130.147 335.421" stroke="#020207" stroke-width="3" stroke-miterlimit="10" stroke-linecap="round" stroke-linejoin="round"/>
<path d="M141.233 384.446L140.65 385.614L141.817 390.283L142.984 390.866" stroke="#020207" stroke-width="3" stroke-miterlimit="10" stroke-linecap="round" stroke-linejoin="round"/>
<path d="M124.896 143.407C128.012 140.291 134.472 141.84 137.15 138.155C144.461 128.106 127.225 110.168 130.148 95.5496C131.373 89.4414 136.053 73.8888 140.651 69.2864C143.621 66.318 150.039 71.409 154.071 66.3682C158.138 61.2871 157.864 54.2585 161.073 49.443C163.803 45.3448 176.804 43.6137 180.911 42.4395" stroke="#020207" stroke-width="3" stroke-miterlimit="10" stroke-linecap="round" stroke-linejoin="round"/>
<path d="M361.792 59.9484C363.047 53.6861 358.292 68.5213 358.292 72.2046C358.292 77.7782 364.949 74.0769 367.044 76.8736C369.494 80.1355 365.941 87.7011 368.794 89.1298" stroke="#020207" stroke-width="3" stroke-miterlimit="10" stroke-linecap="round" stroke-linejoin="round"/>
<path d="M209.794 27.5571C206.73 24.5275 201.269 25.1812 202.5 31.3507C202.786 32.766 209.461 26.37 210.085 26.6817C211.97 27.6231 204.484 31.9343 206.584 31.9343C207.856 31.9343 210.365 28.1203 209.794 27.5571Z" stroke="#020207" stroke-width="3" stroke-miterlimit="10" stroke-linecap="round" stroke-linejoin="round"/>
<path d="M281.563 14.4257C280.752 9.11355 274.649 13.4341 276.603 17.3439C278.389 20.9151 283.337 10.3403 283.022 10.3403C282.584 10.3403 282.059 17.6427 281.563 14.4257Z" stroke="#020207" stroke-width="3" stroke-miterlimit="10" stroke-linecap="round" stroke-linejoin="round"/>
<path d="M334.368 40.9812C334.952 40.272 332.834 39.0721 332.034 39.5221C330.365 40.4617 328.848 46.4889 329.7 44.7747C330.336 43.5083 330.342 42.0043 330.867 40.6893C333.009 35.3421 331.281 44.7385 334.368 40.9812Z" stroke="#020207" stroke-width="3" stroke-miterlimit="10" stroke-linecap="round" stroke-linejoin="round"/>
<path d="M370.544 106.056C371.542 105.337 370.608 109.557 369.377 109.557C368.152 109.557 369.546 106.775 370.544 106.056Z" stroke="#020207" stroke-width="3" stroke-miterlimit="10" stroke-linecap="round" stroke-linejoin="round"/>
<path d="M386.882 162.667C387.757 156.083 385.09 166.339 386.298 169.671C386.637 170.603 386.882 167.745 386.882 166.752C386.882 163.588 386.479 165.717 386.882 162.667Z" stroke="#020207" stroke-width="3" stroke-miterlimit="10" stroke-linecap="round" stroke-linejoin="round"/>
<path d="M388.632 260.134C389.887 261.053 388.632 266.359 388.632 264.803C388.632 263.052 388.632 261.301 388.632 259.55C388.632 255.425 385.324 257.706 388.632 260.134Z" stroke="#020207" stroke-width="3" stroke-miterlimit="10" stroke-linecap="round" stroke-linejoin="round"/>
<path d="M367.335 392.033C367.837 392.326 369.722 396.583 367.627 395.533C365.754 394.598 367.166 388.762 365.293 389.699C364.371 390.161 366.442 391.511 367.335 392.033Z" stroke="#020207" stroke-width="3" stroke-miterlimit="10" stroke-linecap="round" stroke-linejoin="round"/>
<path d="M135.983 360.225C135.767 361.794 131.07 364.144 132.482 363.435C140.307 359.522 136.841 354.02 135.983 360.225Z" stroke="#020207" stroke-width="3" stroke-miterlimit="10" stroke-linecap="round" stroke-linejoin="round"/>
<path d="M132.482 181.052C127.178 171.324 130.416 185.11 131.898 186.597C133.147 187.843 132.482 183.106 132.482 181.344C132.482 180.785 131.764 176.091 130.731 176.091C129.844 176.091 132.972 181.943 132.482 181.052Z" stroke="#020207" stroke-width="3" stroke-miterlimit="10" stroke-linecap="round" stroke-linejoin="round"/>
<path d="M146.777 82.7111C138.275 78.2557 148.766 87.4887 151.153 82.7111C151.608 81.8018 153.113 80.1274 151.736 79.2093C145.797 75.2488 150.464 84.6429 146.777 82.7111Z" stroke="#020207" stroke-width="3" stroke-miterlimit="10" stroke-linecap="round" stroke-linejoin="round"/>
<path d="M388.049 72.7889L387.466 69.8707L389.216 69.2871L390.383 69.8707L390.967 71.6216L389.8 72.2053L388.633 72.7889H387.466" stroke="#020207" stroke-width="3" stroke-miterlimit="10" stroke-linecap="round" stroke-linejoin="round"/>
<path d="M400.302 311.492L401.469 315.578L400.302 314.41L399.719 312.076" stroke="#020207" stroke-width="3" stroke-miterlimit="10" stroke-linecap="round" stroke-linejoin="round"/>
<path d="M121.395 162.084L117.895 163.251L119.062 165.586L120.228 166.169L121.395 166.753V165.586V163.835L120.812 162.668L119.645 162.084" stroke="#020207" stroke-width="3" stroke-miterlimit="10" stroke-linecap="round" stroke-linejoin="round"/>
<path d="M397.677 127.066C394.941 130.718 396.592 135.678 401.47 129.985C403.314 127.838 399.936 124.057 397.677 127.066Z" stroke="#020207" stroke-width="3" stroke-miterlimit="10" stroke-linecap="round" stroke-linejoin="round"/>
<path d="M121.104 378.026C117.241 378.026 116.92 387.475 123.73 384.446C124.978 383.893 124.027 381.69 123.73 380.361C123.152 377.762 123.946 378.026 121.104 378.026Z" stroke="#020207" stroke-width="3" stroke-miterlimit="10" stroke-linecap="round" stroke-linejoin="round"/>
<path d="M359.458 430.259C358.641 431.969 355.986 435.219 359.458 434.636C365.013 433.714 362.054 424.86 359.458 430.259Z" stroke="#020207" stroke-width="3" stroke-miterlimit="10" stroke-linecap="round" stroke-linejoin="round"/>
<path d="M303.152 451.269C300.894 449.01 301.419 455.063 304.028 455.063C305.755 455.063 304.284 452.407 303.152 451.269Z" stroke="#020207" stroke-width="3" stroke-miterlimit="10" stroke-linecap="round" stroke-linejoin="round"/>
<path d="M366.984 35.1904C366.696 35.0623 366.601 35.0612 366.285 35.0301C365.586 34.9614 364.888 35.0236 364.622 35.0836C363.296 35.3828 362.003 36.1193 361.362 37.4191C360.272 39.6326 361.747 45.3165 364.382 45.9338C367.04 46.5564 371.141 42.6514 370.996 39.9978C370.905 38.3244 369.785 37.0051 368.456 36.1054C367.954 35.7654 367.54 35.4372 366.984 35.1904Z" fill="#603DEB"/>
<path d="M113.111 317.003C114.091 319.055 114.349 321.003 113.435 323.558C112.099 327.289 107.991 326.129 106.025 324.145C105.443 323.559 104.885 322.819 104.527 321.992C101.692 315.456 111.128 312.854 113.111 317.003Z" fill="#603DEB"/>
<path d="M356.325 391.797C357.977 393.365 358.192 395.201 357.877 397.176C357.312 400.724 354.852 401.592 351.824 400.642C350.911 400.355 350.022 399.967 349.301 399.286C348.265 398.306 348.247 397.486 348.076 396.122C347.87 394.47 348.027 392.331 349.229 391.074C351.055 389.165 354.738 390.048 356.325 391.797Z" fill="#603DEB"/>
<path d="M129.879 50.8769C131.512 49.6227 131.535 47.8269 131.782 45.818C131.918 44.7093 132.235 43.6898 131.701 42.6125C130.791 40.781 126.803 40.678 125.123 41.4677C121.297 43.2657 120.379 52 125.854 52C126.895 52 128.416 52 129.879 50.8769Z" fill="#603DEB"/>
</g>
<defs>
<linearGradient id="paint0_linear_3154_82651" x1="255.5" y1="30" x2="255.5" y2="417" gradientUnits="userSpaceOnUse">
<stop stop-color="#EEC9FB"/>
<stop offset="1" stop-color="#CECAFE"/>
</linearGradient>
<clipPath id="clip0_3154_82651">
<rect width="513" height="652" fill="white"/>
</clipPath>
</defs>
</svg>
