<svg width="1440" height="320" viewBox="0 0 1440 320" fill="none" xmlns="http://www.w3.org/2000/svg">
<g clip-path="url(#clip0_3154_82309)">
<path d="M86.6845 402.88C100.238 379.404 112.29 355.401 123.817 330.949C100.426 317.445 92.2465 308.363 67.6864 296.893C59.1588 292.911 50.4952 288.714 41.7179 285.745C40.7185 285.406 39.2464 284.762 39.7232 283.496C41.9472 277.555 46.547 271.676 49.713 266.193C52.9095 260.656 56.2034 255.279 58.4018 249.242C59.2787 246.833 60.0775 244.326 60.97 241.937C61.3075 241.034 61.0582 238.965 61.9824 239.228C65.6253 240.271 71.0618 246.217 74.2136 248.485C86.3589 257.217 98.8831 265.405 111.035 274.135C112.081 274.89 128.513 287.558 128.552 287.548C129.32 287.342 127.825 286.127 127.619 285.36C126.75 282.116 124.791 278.746 123.296 275.725C119.352 267.748 115.967 259.71 111.961 251.605C106.957 241.491 102.349 231.151 97.1697 221.098C95.2133 217.302 92.601 212.965 88.837 210.792C88.1516 210.397 86.3809 210.288 86.7766 209.603C87.0717 209.092 107.947 200.745 110.185 199.501C115.262 196.683 126.799 188.25 132.832 187.861C133.708 187.805 138.597 200.908 139.024 201.874C145.666 216.812 147.413 234.769 151.022 250.54C151.367 252.059 154.273 270.977 156.179 271.093C156.98 271.139 159.27 255.999 159.498 254.882C162.413 240.617 168.287 226.686 170.365 212.278C170.571 210.824 170.365 195.708 170.732 195.466C171.393 195.031 179.24 198.826 179.684 198.985C183.556 200.371 217.684 210.125 217.854 212.781C218.036 215.595 212.04 222.852 210.719 225.139C203.572 237.518 196.984 250.128 189.315 262.211C187.811 264.582 176.301 274.712 177.094 277.674C177.572 279.47 179.936 275.291 181.357 274.094C184.512 271.449 187.828 268.956 191.184 266.589C202.059 258.91 212.645 251.074 224.26 244.493C232.592 239.774 242.141 236.873 249.986 231.332C250.654 230.858 259.628 222.865 260.285 223.001C261.939 223.339 265.074 232.634 265.606 233.764C270.287 243.659 276.385 250.473 282.19 259.265C282.957 260.427 281.047 260.925 280.587 261.086C271.041 264.45 261.575 268.059 252.049 271.52C230.91 279.201 208.932 290.037 187.513 295.776C185.555 296.301 191.552 295.28 193.537 294.858C200.077 293.469 206.429 293.21 213.075 292.407C230.366 290.325 247.632 291.105 265.006 289.984C268.976 289.73 281.903 285.333 281.513 291.825C281.06 299.41 278.693 306.696 277.4 314.17C276.384 320.089 276.208 327.738 276.162 327.733C250.237 326.177 224.455 321.994 198.488 322.43C192.027 322.54 170.518 321.138 165.623 323.228C163.734 324.035 155.624 347.458 154.175 350.672C142.633 376.235 131.002 408.549 112.344 429.776C109.359 433.174 105.903 436.23 103.216 439.881C101.897 441.678 98.0501 451.311 95.4938 451.354C95.0256 451.36 69.5827 434.112 69.0865 433.361C68.6479 432.697 84.8182 406.113 86.6845 402.88Z" fill="#D8F177"/>
<path d="M627.528 228.546C589.528 263.047 584.578 303.446 591.821 346.91C604.831 424.973 661.411 444.064 731.074 423.166C752.077 416.864 772.525 408.316 789.09 393.326C812.931 371.758 813.355 353.718 817.27 323.701C822.009 287.363 818.412 240.293 790.746 212.632C748.749 170.633 664.028 190.046 627.528 228.546Z" fill="#F19077"/>
<path fill-rule="evenodd" clip-rule="evenodd" d="M1331.93 434.981C1327.64 432.943 1322.21 429.563 1320.9 428.84C1316.94 426.664 1312.92 424.609 1309.03 422.309C1304.62 419.699 1300.37 416.826 1296.01 414.117C1281.45 405.061 1268.32 394.646 1254.06 385.391C1215.59 360.414 1162.04 310.161 1144.87 265.404C1133.29 235.198 1157.05 185.275 1190.56 180.547C1211.22 177.633 1227.02 196.144 1237.87 211.71C1241.72 217.244 1245.58 222.778 1249.44 228.312C1250.21 229.419 1251.75 231.634 1251.75 231.634C1251.75 231.634 1244.77 221.619 1241.28 216.607C1235.73 208.641 1231.02 200.558 1228.84 191.359C1223.55 168.957 1246.74 142.408 1267.15 138.286C1301.7 131.306 1323.43 156.098 1341.8 182.457C1376.96 232.917 1398.55 308.804 1398.17 370.072C1397.98 401.358 1389.62 424.12 1364.11 441.891C1356.43 447.245 1337.33 437.541 1331.93 434.981Z" fill="#F2C65E"/>
<path d="M270.747 127.752C272.426 136.151 272.895 144.484 274.527 152.644C275.401 157.018 280.837 161.411 279.882 166.191C279.282 169.191 270.432 171.102 270.432 167.767" stroke="#020207" stroke-width="3" stroke-miterlimit="10" stroke-linecap="round" stroke-linejoin="round"/>
<path d="M273.583 171.234C273.129 176.674 275.182 197.992 271.692 201.482C266.435 206.741 246.763 195.135 243.028 191.4C241.359 189.73 241.768 186.866 241.768 184.783" stroke="#020207" stroke-width="3" stroke-miterlimit="10" stroke-linecap="round" stroke-linejoin="round"/>
<path d="M269.487 146.973C267.17 146.2 260.864 141.972 259.407 146.343" stroke="#020207" stroke-width="3" stroke-miterlimit="10" stroke-linecap="round" stroke-linejoin="round"/>
<path d="M264.448 153.904C258.938 151.098 268.723 154.76 268.858 154.85C269.41 155.218 267.562 155.183 266.968 155.479C266.295 155.816 261.522 158.041 260.983 156.425C260.61 155.304 271.693 157.788 271.693 155.479C271.693 155.284 266.101 156.228 265.393 156.11C262.452 155.619 267.097 155.253 264.448 153.904Z" stroke="#020207" stroke-width="3" stroke-miterlimit="10" stroke-linecap="round" stroke-linejoin="round"/>
<path d="M267.597 179.74C264.829 179.74 272.952 185.108 272.952 184.151C272.952 183.413 263.976 183.837 263.188 182.261C262.947 181.779 267.22 183.494 267.282 183.521C269.187 184.338 270.909 184.781 272.952 184.781" stroke="#020207" stroke-width="3" stroke-miterlimit="10" stroke-linecap="round" stroke-linejoin="round"/>
<path d="M268.543 116.726C272.257 121.028 275.303 126.276 276.417 131.85C276.644 132.979 277.323 140.672 275.788 140.672C275.206 140.672 275.211 138.419 275.157 138.151C274.697 135.847 269.593 121.873 268.543 121.453C265.087 120.07 269.207 128.025 269.487 128.699C270.951 132.213 270.093 129.617 271.063 133.74C271.498 135.592 272.322 137.502 272.322 139.412" stroke="#020207" stroke-width="3" stroke-miterlimit="10" stroke-linecap="round" stroke-linejoin="round"/>
<path d="M264.448 122.397C259.28 119.813 258.567 127.021 257.518 131.219C255.006 141.267 254.861 150.77 253.423 160.836C253.378 161.148 252.306 164.932 251.848 164.932C250.614 164.932 251.587 160.26 251.218 159.891C250.682 159.356 250.197 161.063 249.958 161.781C248.439 166.34 247.978 171.144 246.178 175.645C244.671 179.413 242.314 179.775 240.823 182.261C237.709 187.453 237.382 195.88 239.248 201.481" stroke="#020207" stroke-width="3" stroke-miterlimit="10" stroke-linecap="round" stroke-linejoin="round"/>
<path d="M241.767 195.178C241.452 194.653 241.331 193.263 240.822 193.603C238.636 195.061 240.612 198.854 240.507 201.48C240.351 205.369 239.877 209.239 239.877 213.137C239.877 225.225 238.731 237.627 244.287 248.741" stroke="#020207" stroke-width="3" stroke-miterlimit="10" stroke-linecap="round" stroke-linejoin="round"/>
<path d="M269.802 119.877C267.585 119.877 264.526 116.126 261.927 115.151C256.634 113.166 250.181 112.615 244.602 111.685C242.778 111.381 241.753 109.224 239.877 108.849C231.925 107.259 224.299 108.878 216.568 107.589C207.514 106.08 195.128 107.685 192.943 118.617C191.217 127.246 187.422 136.328 186.327 145.082C185.476 151.9 188.663 158.091 187.903 164.933C187.356 169.846 183.367 173.562 182.548 178.481C181.395 185.401 182.003 201.076 183.492 207.782C186.229 220.1 187.911 230.481 194.202 241.81C194.765 242.823 199.276 252.772 200.503 250.317" stroke="#020207" stroke-width="3" stroke-miterlimit="10" stroke-linecap="round" stroke-linejoin="round"/>
<path d="M191.368 203.057C187.957 216.704 195.815 234.89 199.558 246.537C200.351 249.006 203.653 253.154 203.653 253.154C203.653 253.154 202.427 250.908 202.078 249.688C201.244 246.767 198.156 229.873 200.818 229.208C201.676 228.993 202.025 232.433 202.078 232.674C202.939 236.551 204.283 250.108 208.693 251.578C210.546 252.196 210.323 246.366 213.418 245.592" stroke="#020207" stroke-width="3" stroke-miterlimit="10" stroke-linecap="round" stroke-linejoin="round"/>
<path d="M218.772 248.111C219.717 248.952 220.357 250.444 221.608 250.632C225.765 251.255 224.702 247.666 226.963 246.536C231.392 244.32 232.286 246.22 236.412 246.22" stroke="#020207" stroke-width="3" stroke-miterlimit="10" stroke-linecap="round" stroke-linejoin="round"/>
<path d="M192.313 120.507C181.128 136.488 178.333 156.869 176.248 175.645C175.433 182.978 179.621 192.843 176.248 199.59C171.812 208.464 154.068 237.139 158.923 246.851C159.487 247.978 162.419 244.331 163.333 244.331C164.678 244.331 164.22 250.06 165.223 249.057C166.718 247.562 167.287 243.738 168.688 241.81C170.211 239.715 174.673 237.329 174.673 236.769C174.673 234.103 176.252 232.035 177.508 229.522" stroke="#020207" stroke-width="3" stroke-miterlimit="10" stroke-linecap="round" stroke-linejoin="round"/>
<path d="M269.173 203.055C271.157 209.339 271.23 209.296 272.953 215.973C273.095 216.523 275.63 240.077 273.268 240.864C272.356 241.168 272.638 239.764 272.638 239.604C272.638 235.539 270.646 229.596 268.228 226.371C268.05 226.133 267.88 225.647 267.598 225.74C266.715 226.035 267.913 239.555 267.913 241.179C267.913 241.599 268.311 242.306 267.913 242.439C266.615 242.872 263.094 234.06 262.558 232.987C260.878 229.627 257.675 226.686 256.258 223.85C254.831 220.996 254.839 216.281 254.053 213.137C253.017 208.993 249.314 206.178 247.438 202.425" stroke="#020207" stroke-width="3" stroke-miterlimit="10" stroke-linecap="round" stroke-linejoin="round"/>
<path d="M251.217 199.59C245.221 202.161 243.972 212.544 243.972 218.18" stroke="#020207" stroke-width="3" stroke-miterlimit="10" stroke-linecap="round" stroke-linejoin="round"/>
<path d="M273.897 201.481C274.807 198.751 281.002 199.905 283.663 199.905C293.714 199.905 298.669 206.081 302.247 215.028C305.727 223.729 309.54 234.641 307.602 244.33C305.729 253.701 304.365 261.131 306.027 271.112C308.574 286.391 306.897 302.053 303.823 317.427C301.26 330.243 297.491 343.354 299.413 356.812C303.699 386.824 317.166 414.418 312.013 445.347" stroke="#020207" stroke-width="3" stroke-miterlimit="10" stroke-linecap="round" stroke-linejoin="round"/>
<path d="M179.713 235.507C181.078 234.037 182.443 232.567 183.808 231.096" stroke="#020207" stroke-width="3" stroke-miterlimit="10" stroke-linecap="round" stroke-linejoin="round"/>
<path d="M174.989 237.399C179.236 233.835 183.351 229.971 188.219 227.316" stroke="#020207" stroke-width="3" stroke-miterlimit="10" stroke-linecap="round" stroke-linejoin="round"/>
<path d="M176.563 237.399C186.214 254.949 195.473 275.919 197.984 296.003C199.82 310.696 194.089 325.993 197.038 340.743C200.229 356.701 209.039 371.753 206.174 388.949C203.678 403.92 196.059 417.196 193.574 432.114C192.883 436.256 190.343 444.557 192.313 448.498C195.817 455.508 220.692 457.95 227.593 457.95C234.406 457.95 241.243 459.631 248.068 460.156C269.782 461.827 296.691 455.688 316.107 445.978" stroke="#020207" stroke-width="3" stroke-miterlimit="10" stroke-linecap="round" stroke-linejoin="round"/>
<path d="M292.483 202.111C304.89 198.565 317.34 198.81 329.338 195.81C334.394 194.545 340.379 196.855 345.403 195.18" stroke="#020207" stroke-width="3" stroke-miterlimit="10" stroke-linecap="round" stroke-linejoin="round"/>
<path d="M369.342 112.315C369.342 127.807 369.709 146.552 373.437 161.466C374.774 166.817 372.73 173.133 374.067 178.481C375.714 185.069 376.223 199.76 371.862 205.577C359.406 222.189 342.241 230 324.297 238.974C321.286 240.48 306.342 245.07 306.342 248.742" stroke="#020207" stroke-width="3" stroke-miterlimit="10" stroke-linecap="round" stroke-linejoin="round"/>
<path d="M162.388 247.235C160.704 248.077 161.067 256.537 160.801 258.66C159.494 269.123 159.862 281.773 157.311 291.981C155.98 297.307 156.802 303.096 155.725 308.483C152.433 324.945 150.127 345.545 153.504 362.432C155.75 373.668 152.515 387.835 151.283 398.928C149.94 411.014 153.717 424.541 155.408 436.375C156.689 445.347 158.585 454.182 159.849 463.032C160.735 469.23 159.583 475.659 160.801 481.752C161.445 484.973 162.317 495.91 164.609 494.767C165.465 494.338 164.769 496.679 164.926 497.621C165.109 498.723 165.334 499.983 165.56 501.112C165.626 501.445 165.796 501.743 165.878 502.068C167.334 507.893 167.927 512.416 171.588 517.3C171.73 517.487 173.729 519.641 173.81 519.523C175.258 517.348 169.967 507.152 173.81 505.878C174.403 505.677 176.148 512.97 176.982 513.809C178.185 515.014 187.47 522.605 188.404 517.937C190.114 509.383 178.066 489.171 183.01 481.752C183.239 481.413 192.227 499.782 194.115 492.225C195.664 486.033 188.894 478.317 187.452 472.553C184.018 458.815 176.982 445.611 176.982 430.98C176.982 421.477 177.858 411.836 179.203 402.419C180.361 394.315 178.175 385.739 179.521 377.665C180.686 370.667 181.938 363.669 183.328 356.72C186.073 342.991 185.024 328.245 187.77 314.513C190.17 302.509 193.481 288.25 193.481 276.114" stroke="#020207" stroke-width="3" stroke-miterlimit="10" stroke-linecap="round" stroke-linejoin="round"/>
<path d="M259.427 215.062C260.668 229.963 266.683 245.679 259.427 260.195C251.688 275.676 229.346 262.924 229.346 249.162" stroke="#020207" stroke-width="3" stroke-miterlimit="10" stroke-linecap="round" stroke-linejoin="round"/>
<path d="M223.832 250.665C246.052 268.724 260.959 264.098 267.449 238.128" stroke="#020207" stroke-width="3" stroke-miterlimit="10" stroke-linecap="round" stroke-linejoin="round"/>
<path d="M265.662 182.666C261.959 180.197 273.211 182.631 273.139 182.666C272.766 182.853 266.782 183.074 266.374 182.666C265.687 181.979 273.852 178.957 273.852 180.529C273.852 183.652 264.593 181.954 264.593 181.954C264.593 181.954 270.013 180.529 272.783 180.529" stroke="#020207" stroke-width="3" stroke-miterlimit="10" stroke-linecap="round" stroke-linejoin="round"/>
<path d="M265.305 182.31L266.73 181.241L269.934 180.885H271.358" stroke="#020207" stroke-width="3" stroke-miterlimit="10" stroke-linecap="round" stroke-linejoin="round"/>
<path d="M339.102 196.125C341.558 194.486 349.86 197.7 353.592 197.7" stroke="#020207" stroke-width="3" stroke-miterlimit="10" stroke-linecap="round" stroke-linejoin="round"/>
<path d="M343.827 194.549C348.086 175.382 344.199 157.028 347.292 138.466C348.538 130.989 349.182 121.312 349.182 113.891C349.182 106.294 346.888 100.479 343.512 93.7253C342.851 92.4038 337.609 84.7049 339.732 83.6431C342.9 82.0583 348.793 92.0193 348.867 91.8351C350.669 87.3308 345.778 82.4309 345.087 78.2868C344 71.7613 341.937 64.4087 341.937 57.807C341.937 55.4354 340.866 46.7793 344.457 46.7793" stroke="#020207" stroke-width="3" stroke-miterlimit="10" stroke-linecap="round" stroke-linejoin="round"/>
<path d="M481.023 57.5815C475.91 60.9938 465.935 87.7474 467.383 94.988C468.1 98.581 471.758 99.8965 470.919 104.087C470.252 107.423 464.429 116.844 466.372 119.757C469.334 124.201 475.085 123.908 476.477 130.879C477.416 135.558 476.778 150.743 481.532 153.12C487.32 156.016 498.464 151.265 503.262 148.066" stroke="#020207" stroke-width="3" stroke-miterlimit="10" stroke-linecap="round" stroke-linejoin="round"/>
<path d="M524.992 86.8991C529.746 80.9562 533.741 87.691 535.103 92.4597C536.738 98.1781 529.366 104.26 526.003 107.624" stroke="#020207" stroke-width="3" stroke-miterlimit="10" stroke-linecap="round" stroke-linejoin="round"/>
<path d="M526.003 96.5044C525.838 97.6837 525.666 98.8629 525.501 100.043" stroke="#020207" stroke-width="3" stroke-miterlimit="10" stroke-linecap="round" stroke-linejoin="round"/>
<path d="M504.273 150.594C504.273 155.471 501.749 160.167 501.749 164.748C501.749 167.612 513.015 167.508 514.378 167.781C517.01 168.306 519.749 171.267 522.467 170.813C529.309 169.673 541.644 161.863 547.23 157.671C549.783 155.758 558.037 151.841 558.855 148.572C559.386 146.433 553.885 140.498 552.788 138.967C551.956 137.803 549.754 134.504 549.754 135.934C549.754 138.03 557.858 143.776 559.357 144.527" stroke="#020207" stroke-width="3" stroke-miterlimit="10" stroke-linecap="round" stroke-linejoin="round"/>
<path d="M502.76 167.275L501.749 164.243L500.229 164.748L498.207 167.275L497.195 168.287" stroke="#020207" stroke-width="3" stroke-miterlimit="10" stroke-linecap="round" stroke-linejoin="round"/>
<path d="M501.75 160.703C492.973 158.947 481.663 166.609 472.943 168.79C460.694 171.854 444.838 167.296 433.522 171.824C431.248 172.732 419.71 202 420.886 206.703C422.65 213.744 445.19 226.512 450.704 222.374C452.139 221.298 460.307 198.681 460.307 196.088C460.307 195.077 460.307 198.11 460.307 199.12C460.307 203.502 460.436 198.569 459.805 203.67C459.181 208.64 459.21 213.82 458.794 218.835C458.636 220.666 458.794 222.556 458.794 224.396C458.794 225.255 458.894 227.53 458.285 226.923C458.177 226.813 461.318 209.394 461.318 207.209C461.318 206.197 461.318 209.231 461.318 210.242C461.318 211.927 461.318 213.612 461.318 215.297C461.318 221.026 461.318 226.755 461.318 232.483C461.318 233.663 461.318 236.022 461.318 236.022C461.318 236.022 461.189 233.285 460.809 231.978C458.779 224.866 457.618 223.163 450.704 220.857C450.346 220.738 449.865 220.014 449.693 220.351C449.457 220.828 449.88 221.442 450.202 221.868C454.182 227.184 459.152 232.462 463.34 238.044" stroke="#020207" stroke-width="3" stroke-miterlimit="10" stroke-linecap="round" stroke-linejoin="round"/>
<path d="M462.329 232.989C465.097 257.007 470.103 286.365 467.385 310.836C465.972 323.527 464.947 336.412 466.374 349.254C466.446 349.896 465.893 359.364 466.876 359.364C470.677 359.364 469.4 348.243 469.4 348.243C469.4 348.243 469.4 351.613 469.4 353.298C469.4 357.294 468.576 361.033 467.385 364.924C465.779 370.142 458.543 401.578 461.82 404.858C478.243 421.284 534.653 417.793 557.343 421.035" stroke="#020207" stroke-width="3" stroke-miterlimit="10" stroke-linecap="round" stroke-linejoin="round"/>
<path d="M561.889 147.561C567.066 147.561 587.462 159.066 592.711 162.22C603.863 168.91 620.522 174.197 628.597 184.967C636.679 195.742 640.064 216.878 642.244 229.957C644.518 243.593 645.278 258.341 645.278 272.419C645.278 273.737 647.056 285.056 644.769 285.056C643.356 285.056 639.605 278.529 638.2 277.474C632.721 273.364 622.824 272.851 616.47 274.44C612.727 275.377 592.037 287.016 591.707 286.573C586.652 279.837 588.452 263.338 586.652 255.231C586.171 253.087 583.116 251.868 583.116 249.672C583.116 247.593 603.555 236.645 604.336 233.495C604.544 232.662 602.558 233.574 601.812 234C596.735 236.905 591.385 239.468 586.142 242.089C585.805 242.257 585.404 242.861 585.131 242.594C584.866 242.328 585.411 241.884 585.64 241.583C590.13 235.594 599.288 224.941 599.288 216.814C599.288 216.437 599.144 215.894 598.778 215.803C597.609 215.509 593.407 217.525 592.209 217.825" stroke="#020207" stroke-width="3" stroke-miterlimit="10" stroke-linecap="round" stroke-linejoin="round"/>
<path d="M595.242 285.056C597.157 288.882 595.715 294.536 596.755 298.705C598.871 307.165 599.696 316.008 601.811 324.485C602.241 326.215 601.904 335.606 604.336 335.606C606.1 335.606 610.388 329.547 612.425 328.529" stroke="#020207" stroke-width="3" stroke-miterlimit="10" stroke-linecap="round" stroke-linejoin="round"/>
<path d="M639.713 279.494C641.37 291.055 640.997 304.087 643.256 315.384C644.317 320.689 646.397 326.963 645.278 332.571C642.782 345.022 637.253 356.864 633.653 369.472C627.07 392.51 619.719 416.111 613.939 439.232C610.949 451.215 609.923 463.836 607.879 476.133C607.435 478.805 608.023 484.022 606.359 486.243C603.074 490.625 599.496 488.265 595.745 488.265C594.017 488.265 593.185 491.909 591.199 492.311C588.545 492.842 587.419 491.364 585.132 490.79C583.145 490.295 580.37 491.644 578.563 490.288C571.111 484.697 575.5 460.639 577.049 452.88C579.617 440.048 580.908 427.328 584.12 414.462C588.552 396.741 596.721 379.272 600.299 361.385C601.812 353.786 604.788 335.216 607.879 329.033" stroke="#020207" stroke-width="3" stroke-miterlimit="10" stroke-linecap="round" stroke-linejoin="round"/>
<path d="M463.84 248.659C469.126 244.035 471.586 236.871 474.454 230.46C475.874 227.29 477.294 224.114 478.499 220.856C479.797 217.359 480.808 213.763 482.034 210.241C484.881 202.056 477 221.986 475.974 223.889C471.306 232.561 464.177 239.904 459.803 248.659C459.2 249.864 462.829 249.546 463.84 248.659Z" stroke="#020207" stroke-width="3" stroke-miterlimit="10" stroke-linecap="round" stroke-linejoin="round"/>
<path d="M434.03 172.835C430.688 172.835 413.9 158.237 410.78 156.153C403.179 151.086 396.631 136.439 393.596 127.34C390.813 118.988 384.47 110.103 379.951 102.57C374.383 93.2867 370.825 82.9753 365.295 73.7564C359.98 64.8961 355.26 55.7038 350.639 46.4598C349.796 44.7741 345.638 38.017 343.059 38.8771C340.794 39.6324 344.602 49.5751 345.08 51.009C346.563 55.4606 357.652 84.7184 356.198 86.8997C354.945 88.7791 349.972 86.516 348.112 87.9104C345.967 89.5201 349.23 94.9415 350.639 95.9988C354.131 98.6177 358.643 94.6732 361.757 97.0095C362.059 97.2355 362.094 97.6838 362.263 98.0209C363.424 100.344 362.343 103.954 363.779 106.109C364.782 107.613 367.468 106.336 368.327 107.625C369.678 109.652 367.831 115.252 368.327 117.735C371.886 135.531 382.044 152.539 385.005 170.307C385.983 176.177 385.798 185.014 389.553 190.021C393.487 195.268 415.306 206.44 421.896 209.736" stroke="#020207" stroke-width="3" stroke-miterlimit="10" stroke-linecap="round" stroke-linejoin="round"/>
<path d="M410.271 157.669C407.188 161.371 404.463 165.358 401.68 169.296" stroke="#020207" stroke-width="3" stroke-miterlimit="10" stroke-linecap="round" stroke-linejoin="round"/>
<path d="M474.261 92.1045C470.195 90.7481 481.389 88.4534 481.733 88.3673C484.494 87.6766 486.94 90.236 489.672 90.236" stroke="#020207" stroke-width="3" stroke-miterlimit="10" stroke-linecap="round" stroke-linejoin="round"/>
<path d="M477.998 99.5798C480.042 98.5554 478.586 99.1128 482.667 99.1128" stroke="#020207" stroke-width="3" stroke-miterlimit="10" stroke-linecap="round" stroke-linejoin="round"/>
<path d="M478.463 134.618C476.663 130.156 482.558 134.896 485.47 133.684C487.894 132.672 491.221 131.307 492.942 129.012C493.358 128.455 493.875 127.143 493.875 127.143C493.875 127.143 492.283 129.299 491.544 130.413C488.051 135.652 481.332 141.727 478.463 134.618Z" stroke="#020207" stroke-width="3" stroke-miterlimit="10" stroke-linecap="round" stroke-linejoin="round"/>
<path d="M479.884 60.7649C476.449 58.0362 473.33 51.1895 473.33 46.207C473.33 44.7882 474.965 48.4587 475.811 49.5662C476.342 50.2692 478.558 54.4504 479.712 54.0458C480.895 53.6312 480.917 47.3533 482.545 46.207C484.015 45.1791 484.746 49.7168 486.446 48.8202C488.54 47.7198 488.031 44.3901 491.057 43.5939C495.719 42.3687 501.004 46.9574 505.242 48.0735C509.23 49.1208 512.615 46.0413 516.236 45.0873C519.04 44.3506 525.394 44.4754 528.298 45.0873C531.289 45.7164 533.727 50.3079 536.101 52.1794C546.679 60.5289 559.845 73.6765 553.829 89.5083C551.763 94.9499 548.93 99.8707 545.675 104.44C543.244 107.857 540.669 110.452 537.872 113.399C536.079 115.283 527.409 124.318 524.397 122.731C522.762 121.869 522.712 114.7 521.916 113.025C521.342 111.818 518.015 107.625 518.015 107.053C518.015 105.505 522.619 100.328 521.916 98.8406C521.643 98.2768 519.951 99.4546 519.435 98.0939C517.799 93.8029 521.249 87.3679 519.435 83.536C518.588 81.7671 516.631 80.6431 515.885 78.6834C515.261 77.0436 515.705 73.6392 514.465 72.3373C512.822 70.6043 510.671 79.0851 509.144 78.6834C506.318 77.9395 504.425 70.2241 501.341 68.6044C499.211 67.4818 495.841 68.4624 493.539 67.8577C489.673 66.8391 488.669 64.5717 485.736 62.2584C483.993 60.8818 481.598 62.1213 479.884 60.7649Z" stroke="#020207" stroke-width="3" stroke-miterlimit="10" stroke-linecap="round" stroke-linejoin="round"/>
<path d="M478.931 136.954C478.113 136.544 488.11 135.713 490.606 133.216" stroke="#020207" stroke-width="3" stroke-miterlimit="10" stroke-linecap="round" stroke-linejoin="round"/>
<path d="M479.863 137.421C481.735 137.266 483.599 137.109 485.471 136.954" stroke="#020207" stroke-width="3" stroke-miterlimit="10" stroke-linecap="round" stroke-linejoin="round"/>
<path d="M475.661 100.981C482.251 100.432 479.49 99.9208 484.073 101.449" stroke="#020207" stroke-width="3" stroke-miterlimit="10" stroke-linecap="round" stroke-linejoin="round"/>
<path d="M474.729 91.17C469.429 85.8683 489.774 90.0517 492.012 91.17" stroke="#020207" stroke-width="3" stroke-miterlimit="10" stroke-linecap="round" stroke-linejoin="round"/>
<path d="M479.397 135.551C482.509 135.084 485.629 134.617 488.741 134.15" stroke="#020207" stroke-width="3" stroke-miterlimit="10" stroke-linecap="round" stroke-linejoin="round"/>
<path d="M499.482 150.502C508.073 145.725 517.245 142.587 525.636 137.421" stroke="#020207" stroke-width="3" stroke-miterlimit="10" stroke-linecap="round" stroke-linejoin="round"/>
<path d="M542.246 110.323C541.393 120.58 543.953 133.832 553.219 138.465" stroke="#020207" stroke-width="3" stroke-miterlimit="10" stroke-linecap="round" stroke-linejoin="round"/>
<path d="M819.256 23.3431C829.903 20.6814 844.493 17.5382 855.53 19.7453C860.263 20.6926 864.418 23.3922 869.019 24.5418C874.611 25.9394 883.233 33.9386 881.61 40.4307C881.015 42.8108 877.629 44.8397 876.214 46.7256C867.881 57.8368 848.091 74.6616 834.546 61.1151" stroke="#020207" stroke-width="3" stroke-miterlimit="10" stroke-linecap="round" stroke-linejoin="round"/>
<path d="M843.239 65.6123C842.015 64.3886 834.277 71.1029 832.147 72.8062C826.17 77.5881 805.558 91.4842 798.572 84.4978C795.825 81.75 795.421 77.5958 793.775 74.3054C787.544 61.8431 786.263 45.3902 798.871 35.9341C805.734 30.7879 807.099 24.8754 816.259 23.0438C816.606 22.974 818.776 22.0828 818.956 22.4436C819.919 24.3691 807.565 25.9346 807.565 25.7417C807.565 23.8687 815.464 23.6431 814.46 23.6431" stroke="#020207" stroke-width="3" stroke-miterlimit="10" stroke-linecap="round" stroke-linejoin="round"/>
<path d="M811.162 25.4416C820.11 24.1671 812.303 19.1751 808.764 20.9447C804.48 23.0863 809.67 25.6543 811.162 25.4416Z" stroke="#020207" stroke-width="3" stroke-miterlimit="10" stroke-linecap="round" stroke-linejoin="round"/>
<path d="M810.263 27.2397C812.962 35.3396 811.753 45.0575 815.059 53.321C817.1 58.4224 822.163 62.4775 825.251 67.1104" stroke="#020207" stroke-width="3" stroke-miterlimit="10" stroke-linecap="round" stroke-linejoin="round"/>
<path d="M840.84 69.209C828.377 81.6731 817.82 95.2523 802.768 104.283C799.485 106.253 783.627 116.606 785.381 106.082C786.367 100.165 795.691 91.6045 800.37 88.0954C801.973 86.8924 805.217 86.1957 806.066 84.4976" stroke="#020207" stroke-width="3" stroke-miterlimit="10" stroke-linecap="round" stroke-linejoin="round"/>
<path d="M841.44 67.4092C843.54 73.7084 843.397 79.8302 848.036 85.3966C851.254 89.2588 856.193 87.0224 853.731 82.0985" stroke="#020207" stroke-width="3" stroke-miterlimit="10" stroke-linecap="round" stroke-linejoin="round"/>
<path d="M848.035 72.8052C850.241 75.8932 849.392 74.0564 850.134 78.5016" stroke="#020207" stroke-width="3" stroke-miterlimit="10" stroke-linecap="round" stroke-linejoin="round"/>
<path d="M880.711 42.229C882.944 46.3237 887.263 51.3071 888.206 56.0193C888.713 58.5536 887.155 62.2126 888.805 64.4128C892.019 68.6978 897.276 71.0176 898.698 76.7037C899.337 79.2587 894.606 82.699 892.102 82.699" stroke="#020207" stroke-width="3" stroke-miterlimit="10" stroke-linecap="round" stroke-linejoin="round"/>
<path d="M892.101 83.5986C893.592 83.5986 895.296 86.9992 894.2 88.0955C893.74 88.5553 886.305 87.3609 888.205 89.8935C888.849 90.7521 893.187 91.7648 893.001 91.3928C892.195 89.7816 887.605 91.0931 887.605 91.0931C887.605 91.0931 894.07 90.666 892.701 91.6924C891.095 92.8972 886.705 89.0841 886.705 91.0931C886.705 92.9153 891.253 93.8246 892.101 94.3904C892.608 94.7279 894.413 106.599 893.9 107.88C891.66 113.481 877.223 115.375 872.317 115.375" stroke="#020207" stroke-width="3" stroke-miterlimit="10" stroke-linecap="round" stroke-linejoin="round"/>
<path d="M884.908 112.077C885.432 111.026 882.648 111.412 881.609 111.178C878.914 110.569 876.212 109.988 873.516 109.379C867.984 108.129 862.62 105.201 857.328 103.084" stroke="#020207" stroke-width="3" stroke-miterlimit="10" stroke-linecap="round" stroke-linejoin="round"/>
<path d="M884.908 55.1196C883.256 56.7713 877.114 60.0152 877.114 62.9146" stroke="#020207" stroke-width="3" stroke-miterlimit="10" stroke-linecap="round" stroke-linejoin="round"/>
<path d="M888.205 66.2118C886.041 65.4902 887.614 65.8406 883.409 66.8111" stroke="#020207" stroke-width="3" stroke-miterlimit="10" stroke-linecap="round" stroke-linejoin="round"/>
<path d="M887.307 56.3188C884.573 54.9522 879.989 59.5989 877.714 61.1153" stroke="#020207" stroke-width="3" stroke-miterlimit="10" stroke-linecap="round" stroke-linejoin="round"/>
<path d="M813.56 95.8901C823.363 103.732 815.609 122.67 811.462 130.964" stroke="#020207" stroke-width="3" stroke-miterlimit="10" stroke-linecap="round" stroke-linejoin="round"/>
<path d="M864.823 109.08C865.884 108.018 865.422 114.28 865.422 115.675C865.422 119.498 867.319 122.168 868.719 124.968" stroke="#020207" stroke-width="3" stroke-miterlimit="10" stroke-linecap="round" stroke-linejoin="round"/>
<path d="M869.319 124.967C864.684 120.995 859.033 124.452 853.731 125.267C838.607 127.594 823.509 134.86 808.164 134.86" stroke="#020207" stroke-width="3" stroke-miterlimit="10" stroke-linecap="round" stroke-linejoin="round"/>
<path d="M865.422 124.667C852.749 117.628 836.537 130.378 824.052 132.162C819.122 132.866 809.663 133.895 809.663 126.766" stroke="#020207" stroke-width="3" stroke-miterlimit="10" stroke-linecap="round" stroke-linejoin="round"/>
<path d="M867.898 125.278C881.162 137.436 906.074 139.905 912.83 157.921C913.89 160.75 913.18 164.211 913.598 167.138C914.779 175.406 918.776 183.876 917.054 192.483C915.763 198.939 913.393 205.052 912.446 211.685C910.7 223.911 917.895 235.306 919.358 247.017C920.171 253.513 919.917 266.864 923.582 272.362C926.009 276.002 930.049 279.265 932.799 283.115C941.862 295.802 948.531 309.6 959.682 320.75C965.952 327.02 974.49 331.334 980.803 337.648C984.859 341.703 988.11 347.331 993.092 350.321C997.581 353.014 1001.96 350.069 1005.77 352.24C1013.69 356.771 1019.47 368.226 1017.67 377.203C1017.09 380.126 1012.29 381.435 1010.37 383.346C1004.86 388.866 1002.74 392.251 993.092 390.64C991.073 390.304 979.562 389.762 981.187 384.879C982.198 381.857 991.117 386.403 992.708 386.8C992.957 386.868 993.476 387.058 993.476 386.8C993.476 386.593 974.556 370.63 972.739 367.602C970.569 363.986 968.79 359.375 966.594 356.081C964.212 352.508 957.884 353.485 954.689 351.089C947.28 345.531 938.857 339.717 930.88 335.727C926.668 333.622 924.714 328.303 921.279 325.358C910.402 316.036 899.67 308.718 890.556 297.324C878.07 281.717 877.084 256.779 874.427 238.183C872.944 227.805 868.539 218.859 865.978 208.613" stroke="#020207" stroke-width="3" stroke-miterlimit="10" stroke-linecap="round" stroke-linejoin="round"/>
<path d="M923.966 274.666C919.821 269.829 916.319 266.774 910.91 263.529" stroke="#020207" stroke-width="3" stroke-miterlimit="10" stroke-linecap="round" stroke-linejoin="round"/>
<path d="M869.818 127.582C860.726 130.613 858.201 142.079 855.609 149.856C846.689 176.614 851.779 201.709 874.811 220.133" stroke="#020207" stroke-width="3" stroke-miterlimit="10" stroke-linecap="round" stroke-linejoin="round"/>
<path d="M807.99 131.038C797.324 141.704 780.525 153.841 774.963 168.673C764.726 195.971 773.253 222.389 783.411 247.783C785.828 253.825 788.333 263.307 792.244 268.521C797.37 275.356 803.743 287.657 806.453 295.787" stroke="#020207" stroke-width="3" stroke-miterlimit="10" stroke-linecap="round" stroke-linejoin="round"/>
<path d="M811.445 171.362C811.445 197.872 807.602 224.313 808.757 250.856C810.405 288.777 815.223 327.112 804.532 364.53" stroke="#020207" stroke-width="3" stroke-miterlimit="10" stroke-linecap="round" stroke-linejoin="round"/>
<path d="M818.358 211.3C819.383 215.401 818.637 219.749 818.742 223.974C818.905 230.505 819.039 237.043 819.51 243.559C821.569 272.038 827.286 312.063 816.438 339.183C812.835 348.19 808.454 359.171 802.228 366.833C798.597 371.303 792.913 375.48 790.324 380.659" stroke="#020207" stroke-width="3" stroke-miterlimit="10" stroke-linecap="round" stroke-linejoin="round"/>
<path d="M802.612 293.1C813.168 324.765 799.925 356.851 799.925 388.34" stroke="#020207" stroke-width="3" stroke-miterlimit="10" stroke-linecap="round" stroke-linejoin="round"/>
<path d="M769.587 206.693C772.794 230.747 771.919 254.945 774.579 278.891C777.588 305.974 787.072 334.6 799.157 358.77" stroke="#020207" stroke-width="3" stroke-miterlimit="10" stroke-linecap="round" stroke-linejoin="round"/>
<path d="M802.612 320.366C799.753 322.653 793.779 323.234 793.779 326.894C793.779 326.96 802.996 322.804 802.996 326.51C802.996 329.332 795.048 332.201 793.011 333.423" stroke="#020207" stroke-width="3" stroke-miterlimit="10" stroke-linecap="round" stroke-linejoin="round"/>
<path d="M881.339 286.571C881.339 286.827 881.489 287.131 881.339 287.339C876.468 294.084 871.518 300.778 866.362 307.309C858.074 317.807 849.122 327.776 841.016 338.415C835.269 345.958 830.717 356.011 823.734 362.993" stroke="#020207" stroke-width="3" stroke-miterlimit="10" stroke-linecap="round" stroke-linejoin="round"/>
<path d="M886.332 303.084C878.773 327.271 852.398 347.336 837.944 367.985C834.413 373.03 830.315 376.305 827.959 382.191" stroke="#020207" stroke-width="3" stroke-miterlimit="10" stroke-linecap="round" stroke-linejoin="round"/>
<path d="M915.912 202.121C917.603 202.121 916.727 204.503 916.727 205.786C916.727 212.982 918.052 230.415 914.691 237.137" stroke="#020207" stroke-width="3" stroke-miterlimit="10" stroke-linecap="round" stroke-linejoin="round"/>
<path d="M1104.71 109.092C1104.71 123.358 1098.31 148.766 1111.82 158.897C1120.8 165.626 1142.33 164.557 1150.66 156.229C1154.18 152.706 1155.47 147.64 1158.37 143.778C1160.51 140.919 1165.48 139.538 1165.48 135.476" stroke="#020207" stroke-width="3" stroke-miterlimit="10" stroke-linecap="round" stroke-linejoin="round"/>
<path d="M1138.65 147.188C1140.93 144.671 1115.85 129.799 1112.71 136.07C1108.53 144.43 1135.04 151.173 1138.65 147.188Z" stroke="#020207" stroke-width="3" stroke-miterlimit="10" stroke-linecap="round" stroke-linejoin="round"/>
<path d="M1142.06 131.326C1143.39 131.326 1133.55 130.088 1132.57 129.843C1129.95 129.187 1129.47 125.998 1128.42 123.914" stroke="#020207" stroke-width="3" stroke-miterlimit="10" stroke-linecap="round" stroke-linejoin="round"/>
<path d="M1154.07 113.392C1157.3 111.065 1168.98 121.815 1165.18 126.88C1160.61 132.98 1146.85 131.823 1143.84 124.805C1136.96 108.747 1153.54 113.77 1154.07 113.392Z" stroke="#020207" stroke-width="3" stroke-miterlimit="10" stroke-linecap="round" stroke-linejoin="round"/>
<path d="M1143.84 115.911C1141.6 112.551 1143.28 114.466 1137.61 111.464" stroke="#020207" stroke-width="3" stroke-miterlimit="10" stroke-linecap="round" stroke-linejoin="round"/>
<path d="M1127.09 101.237C1128.51 102.919 1133.41 103.031 1135.54 105.536C1136.75 106.959 1136.47 113.565 1136.13 115.615C1134.28 126.718 1117.42 120.279 1114.49 112.947C1111.89 106.441 1122.22 95.4592 1127.09 101.237Z" stroke="#020207" stroke-width="3" stroke-miterlimit="10" stroke-linecap="round" stroke-linejoin="round"/>
<path d="M1113.3 105.536C1109.75 103.166 1112.22 104.514 1105.3 102.867" stroke="#020207" stroke-width="3" stroke-miterlimit="10" stroke-linecap="round" stroke-linejoin="round"/>
<path d="M1165.18 126.583C1166.47 127.966 1167.75 129.351 1169.04 130.734" stroke="#020207" stroke-width="3" stroke-miterlimit="10" stroke-linecap="round" stroke-linejoin="round"/>
<path d="M1152.73 86.8587C1155.49 83.5574 1152.8 79.2405 1152.14 75.2969" stroke="#020207" stroke-width="3" stroke-miterlimit="10" stroke-linecap="round" stroke-linejoin="round"/>
<path d="M1155.4 79.15C1164.52 71.3337 1180.06 81.8583 1181.79 92.1944C1186.1 118.076 1181.56 144.687 1184.45 170.755C1186 184.699 1199.15 194.338 1196.61 209.59C1194.48 222.372 1172.2 226.138 1163.41 230.936C1149.18 238.694 1138.12 256.197 1136.13 272.143" stroke="#020207" stroke-width="3" stroke-miterlimit="10" stroke-linecap="round" stroke-linejoin="round"/>
<path d="M1137.91 163.046C1141.71 182.037 1141.39 200.87 1128.72 216.705C1125.12 221.207 1119.11 224.567 1117.46 230.343C1113.95 242.618 1121.51 263.943 1126.94 274.811" stroke="#020207" stroke-width="3" stroke-miterlimit="10" stroke-linecap="round" stroke-linejoin="round"/>
<path d="M1117.16 251.984C1118.42 259.575 1126.86 275.034 1134.94 280.741C1135.52 281.144 1134.84 279.339 1134.65 278.665C1133.45 274.39 1132.03 270.183 1130.79 265.917C1127.96 256.076 1127.34 244.474 1129.61 234.493C1131.42 226.507 1149.22 219.657 1156.29 217.299C1159.98 216.068 1158.59 218.785 1158.07 220.856C1157.84 221.766 1156.88 224.414 1157.18 223.525C1158.03 220.987 1158.6 218.427 1159.25 215.816" stroke="#020207" stroke-width="3" stroke-miterlimit="10" stroke-linecap="round" stroke-linejoin="round"/>
<path d="M1156.29 88.9328C1156.94 85.6928 1164.58 96.0133 1165.18 99.0133C1166.96 107.872 1170.14 118.906 1167.85 128.066" stroke="#020207" stroke-width="3" stroke-miterlimit="10" stroke-linecap="round" stroke-linejoin="round"/>
<path d="M1158.37 75.5929C1152.18 57.0263 1113.64 77.0984 1105.6 87.1548C1084.28 113.805 1097.74 131.55 1093.74 161.565" stroke="#020207" stroke-width="3" stroke-miterlimit="10" stroke-linecap="round" stroke-linejoin="round"/>
<path d="M1146.21 83.8926C1137.55 79.9562 1133.66 83.6369 1126.35 86.5612C1101.66 96.4388 1098.19 114.062 1098.19 139.627C1098.19 148.86 1099.77 155.334 1096.7 164.529" stroke="#020207" stroke-width="3" stroke-miterlimit="10" stroke-linecap="round" stroke-linejoin="round"/>
<path d="M1094.92 163.64C1097.14 183.564 1086.58 198.24 1111.82 204.551" stroke="#020207" stroke-width="3" stroke-miterlimit="10" stroke-linecap="round" stroke-linejoin="round"/>
<path d="M1137.91 183.206C1133.26 200.265 1111.91 212.824 1096.7 200.994" stroke="#020207" stroke-width="3" stroke-miterlimit="10" stroke-linecap="round" stroke-linejoin="round"/>
<path d="M1168.07 152.629C1175.06 166.615 1177.91 196.657 1169.32 212.118" stroke="#020207" stroke-width="3" stroke-miterlimit="10" stroke-linecap="round" stroke-linejoin="round"/>
<path d="M1152.73 163.275C1155.35 168.516 1154.96 175.031 1153.98 180.808C1151.55 195.167 1143.92 208.779 1134.57 219.946" stroke="#020207" stroke-width="3" stroke-miterlimit="10" stroke-linecap="round" stroke-linejoin="round"/>
<path d="M1197.19 211.492C1200.02 211.492 1198.97 239.257 1197.81 243.114C1195.36 251.305 1187.74 258.505 1186.54 266.91C1185.83 271.887 1189.73 278.691 1187.48 283.191C1186.19 285.768 1181.95 287.469 1181.53 290.393C1181.09 293.497 1184.24 295.342 1183.72 297.906C1183.11 300.993 1179.85 305.97 1178.4 308.865C1174.66 316.349 1176.63 328.792 1170.26 335.166C1163.93 341.492 1153.74 332.101 1148.03 330.468C1144.26 329.391 1141.6 328.75 1137.7 329.529C1137.46 329.577 1133.63 330.109 1133.63 329.843C1133.63 326.259 1140.62 307.821 1144.27 308.552C1153.05 310.306 1160.93 316.582 1168.7 320.762C1171.41 322.224 1174.84 328.107 1174.33 327.337" stroke="#020207" stroke-width="3" stroke-miterlimit="10" stroke-linecap="round" stroke-linejoin="round"/>
<path d="M1184.66 295.088C1181.32 295.088 1177.89 293.981 1174.65 294.775C1172.62 295.271 1170.01 296.478 1169.64 298.532C1168.85 302.856 1192.07 308.144 1179.34 304.794C1178.19 304.491 1177.05 304.164 1175.9 303.855C1170.72 302.461 1172.75 302.86 1169.32 302.29" stroke="#020207" stroke-width="3" stroke-miterlimit="10" stroke-linecap="round" stroke-linejoin="round"/>
<path d="M1116.41 242.488C1119.72 245.798 1115.11 251.297 1114.22 255.325C1112.18 264.502 1111.47 273.626 1110.15 282.877C1104.89 319.664 1109.04 354.617 1117.04 390.583" stroke="#020207" stroke-width="3" stroke-miterlimit="10" stroke-linecap="round" stroke-linejoin="round"/>
<path d="M1091.36 168.598C1091.36 172.497 1089.44 176.161 1088.23 179.869C1086.63 184.797 1084.92 189.689 1083.22 194.584C1076.3 214.546 1067.07 235.486 1064.44 256.577C1062.75 270.066 1069.27 273.636 1070.7 285.069C1071.1 288.302 1069.62 291.554 1070.7 294.775C1071.63 297.576 1079.12 305.338 1078.21 307.612C1077.3 309.903 1070.41 308.276 1069.45 313.562C1066.62 329.075 1067.57 348.469 1067.57 364.283C1067.57 368.772 1069.02 377.03 1066.94 381.191" stroke="#020207" stroke-width="3" stroke-miterlimit="10" stroke-linecap="round" stroke-linejoin="round"/>
<path d="M1091.05 157.327C1085.12 168.648 1075.35 172.004 1064.12 176.425C1060.73 177.76 1055.56 178.551 1054.73 182.687C1054.11 185.808 1081.62 203.912 1081.03 202.725" stroke="#020207" stroke-width="3" stroke-miterlimit="10" stroke-linecap="round" stroke-linejoin="round"/>
<path d="M1086.04 160.457C1079.1 160.457 1072.73 163.326 1066.31 165.466C1058.52 168.065 1050.3 168.374 1043.14 172.667C1026.81 182.465 1027.51 228.887 1024.67 245.932C1024.09 249.418 1025.91 255.969 1024.36 259.082C1023.88 260.044 1018.39 256.613 1017.78 257.83C1017.77 257.849 1028.12 264.01 1028.12 266.909C1028.12 269.208 1023.02 265.787 1021.23 267.222C1013.07 273.747 1015.82 301.492 1020.29 310.43C1020.78 311.416 1052.22 308.536 1053.48 314.813C1055.6 325.432 1042.84 319.779 1036.57 318.883" stroke="#020207" stroke-width="3" stroke-miterlimit="10" stroke-linecap="round" stroke-linejoin="round"/>
<path d="M1049.72 237.792C1054.48 247.321 1051.52 262.615 1050.35 273.171C1050.17 274.787 1046.6 280.104 1046.9 280.998C1048.48 285.747 1054.83 290.183 1056.29 296.027C1057.3 300.047 1053.4 303.713 1054.1 307.925C1055.41 315.791 1058.73 323.493 1060.05 331.407C1061.38 339.388 1059.25 347.471 1061.93 355.515" stroke="#020207" stroke-width="3" stroke-miterlimit="10" stroke-linecap="round" stroke-linejoin="round"/>
<path d="M1024.36 317.944C1030.66 351.527 1044.87 383.679 1049.09 417.51C1050.6 429.567 1050.13 442.464 1047.21 454.141C1046.84 455.647 1047.38 462.908 1049.41 462.908C1050.55 462.908 1055.52 437.354 1058.8 438.174C1061.19 438.771 1058.46 467.172 1059.74 472.304C1059.92 473.037 1059.6 474.489 1060.36 474.489C1065.66 474.489 1066.76 441.082 1067.57 440.679C1070.61 439.156 1076.65 458.63 1076.65 461.656C1076.65 462.433 1076.98 470.516 1078.21 470.108C1088.17 466.791 1074.03 434.907 1076.65 433.164C1078.59 431.869 1090.82 442.346 1091.99 435.356C1094.6 419.679 1071.45 410.785 1066.63 398.723C1060.22 382.698 1060.92 362.809 1058.8 345.81C1057.64 336.541 1055.02 327.521 1053.48 318.258" stroke="#020207" stroke-width="3" stroke-miterlimit="10" stroke-linecap="round" stroke-linejoin="round"/>
<path d="M1072.89 300.412C1075.81 301.873 1078.78 303.246 1081.65 304.795C1085.56 306.901 1089.43 309.086 1093.24 311.37C1101.63 316.405 1080.59 312.775 1077.27 313.249C1076.81 313.315 1076.02 313.408 1076.02 313.875C1076.02 315.022 1085.05 319.917 1085.41 320.137C1086.43 320.749 1089.38 322.04 1088.23 322.328C1083.66 323.472 1077.62 319.08 1073.51 317.318" stroke="#020207" stroke-width="3" stroke-miterlimit="10" stroke-linecap="round" stroke-linejoin="round"/>
<path d="M1118.91 219.319C1116.49 224.17 1112.83 228.388 1110.77 233.408C1102.98 252.427 1098.14 278.594 1085.1 296.654" stroke="#020207" stroke-width="3" stroke-miterlimit="10" stroke-linecap="round" stroke-linejoin="round"/>
<path d="M1111.09 246.247C1106.92 262.092 1100.16 276.568 1091.36 290.393" stroke="#020207" stroke-width="3" stroke-miterlimit="10" stroke-linecap="round" stroke-linejoin="round"/>
<path d="M1051.29 293.523C1046.48 293.418 1041.67 292.833 1036.88 293.209C1031.48 293.634 1023.79 291.741 1020.91 296.34C1018.94 299.506 1020.47 303.506 1019.98 306.986C1017.81 322.171 1032.16 322.819 1042.83 314.813" stroke="#020207" stroke-width="3" stroke-miterlimit="10" stroke-linecap="round" stroke-linejoin="round"/>
</g>
<defs>
<clipPath id="clip0_3154_82309">
<rect width="1440" height="320" fill="white"/>
</clipPath>
</defs>
</svg>
