<svg width="400" height="300" viewBox="0 0 400 300" fill="none" xmlns="http://www.w3.org/2000/svg">
<g clip-path="url(#clip0_3178_82078)">
<rect width="400" height="300" fill="#FFF9ED"/>
<ellipse cx="195" cy="255.5" rx="158" ry="18.5" fill="url(#paint0_linear_3178_82078)" fill-opacity="0.4"/>
<path d="M245.234 26.8258C245.234 28.2717 245.377 29.7879 245.234 31.2254C245.125 32.3121 244.471 33.0447 244.062 33.865C243.235 35.5159 242.962 42.151 244.353 43.5436C246.046 45.236 250.582 44.1203 252.567 43.8369C254.855 43.5098 257.161 44.5128 259.458 44.1302C262.42 43.6363 266.111 42.8926 269.138 43.3969C272.83 44.0125 279.544 44.7495 282.628 47.0631C283.643 47.8234 287.258 50.1091 288.64 49.5561C289.618 49.1656 290.667 46.2373 291.135 45.3033C292.937 41.6962 292.564 38.0069 293.333 34.1583C293.652 32.5683 294.611 31.4578 294.8 29.7589C295.003 27.9214 294.982 25.8348 293.627 24.4795" stroke="#020207" stroke-width="2" stroke-miterlimit="10" stroke-linecap="round" stroke-linejoin="round"/>
<path d="M247.286 31.2256C252.291 32.8941 256.915 32.7027 262.097 33.2786C272.236 34.405 282.134 35.185 292.307 35.185" stroke="#020207" stroke-width="2" stroke-miterlimit="10" stroke-linecap="round" stroke-linejoin="round"/>
<path d="M241.42 27.7057C240.95 27.4709 241.42 29.358 241.42 29.9055C241.42 31.2742 241.42 32.6429 241.42 34.0116C241.42 39.1446 240.617 41.7129 244.647 45.7432" stroke="#020207" stroke-width="2" stroke-miterlimit="10" stroke-linecap="round" stroke-linejoin="round"/>
<path d="M246.7 46.4772C246.7 46.1512 246.26 49.2259 246.26 50.29C246.26 53.0586 245.653 56.5968 246.407 59.2356C249.107 68.6827 249.335 80.9749 260.924 83.872C270.732 86.3238 278.887 73.9043 282.627 66.4212C283.649 64.378 285.992 61.9184 286.441 59.6755C287.075 56.5087 288.565 50.3666 290.841 48.0903" stroke="#020207" stroke-width="2" stroke-miterlimit="10" stroke-linecap="round" stroke-linejoin="round"/>
<path d="M294.214 34.4524C295.072 34.0228 295.093 36.4539 295.093 37.092C295.093 40.069 294.374 42.2727 292.893 44.8642" stroke="#020207" stroke-width="2" stroke-miterlimit="10" stroke-linecap="round" stroke-linejoin="round"/>
<path d="M263.125 54.8359C261.896 54.4262 261.01 53.4189 259.898 52.7828C256.926 51.0839 254.093 49.9966 250.659 49.9966" stroke="#020207" stroke-width="2" stroke-miterlimit="10" stroke-linecap="round" stroke-linejoin="round"/>
<path d="M272.071 55.8621C270.424 55.8621 274.433 55.2084 275.148 55.1289C277.872 54.8266 280.63 54.249 283.362 54.249" stroke="#020207" stroke-width="2" stroke-miterlimit="10" stroke-linecap="round" stroke-linejoin="round"/>
<path d="M272.362 58.9422C275.396 58.9422 278.341 59.3956 281.308 58.209" stroke="#020207" stroke-width="2" stroke-miterlimit="10" stroke-linecap="round" stroke-linejoin="round"/>
<path d="M254.033 53.8086C253.435 55.0046 259.032 56.8915 260.193 57.1814" stroke="#020207" stroke-width="2" stroke-miterlimit="10" stroke-linecap="round" stroke-linejoin="round"/>
<path d="M262.391 69.5C262.156 69.4216 261.071 68.955 261.071 68.7668C261.071 68.2692 262.177 69.5797 262.244 69.6467C263.016 70.4187 263.484 71.8887 264.738 72.1396C266.969 72.5861 268.817 70.2603 270.164 68.9134" stroke="#020207" stroke-width="2" stroke-miterlimit="10" stroke-linecap="round" stroke-linejoin="round"/>
<path d="M259.311 73.6064C259.225 73.6499 262.173 74.497 263.125 74.633C265.693 74.9999 268.215 75.1849 270.749 74.3397" stroke="#020207" stroke-width="2" stroke-miterlimit="10" stroke-linecap="round" stroke-linejoin="round"/>
<path d="M247.873 68.9136C247.084 68.9136 245.796 68.7057 245.087 69.0602C244.087 69.5599 244.745 73.0668 244.94 73.7529C246.096 77.797 247.81 80.2881 250.659 83.1382C252.122 84.6004 254.861 85.0116 256.819 85.3378C258.81 85.6697 261.031 86.9295 263.125 86.5112C273.416 84.4531 281.763 77.6674 285.122 67.5938" stroke="#020207" stroke-width="2" stroke-miterlimit="10" stroke-linecap="round" stroke-linejoin="round"/>
<path d="M246.554 69.7934C245.48 69.2561 242.285 71.2959 241.129 71.5531C235.963 72.7007 230.83 73.3896 225.877 75.5125C223.745 76.4262 212.372 79.3576 211.506 81.525C209.588 86.3196 210.44 93.2478 211.065 98.2428C211.667 103.055 211.197 107.949 211.797 112.761C212.519 118.534 211.428 124.886 210.625 130.505C209.958 135.172 211.384 139.597 211.797 144.143C212.23 148.879 212.177 153.658 213.119 158.368" stroke="#020207" stroke-width="2" stroke-miterlimit="10" stroke-linecap="round" stroke-linejoin="round"/>
<path d="M288.641 68.1807C291.183 68.1807 294.091 69.9068 296.707 70.2337C305.453 71.3269 313.969 70.0438 320.611 76.6861C321.519 77.5958 324.463 79.2273 324.717 80.4989C325.348 83.6605 322.617 85.8887 321.049 87.978C320.288 88.9944 320.361 90.6073 319.583 91.6441C317.659 94.2095 314.598 96.4056 314.598 100.15C314.598 100.768 315.035 98.9896 315.184 98.3898C315.437 97.3786 315.559 96.3496 315.624 95.3103C315.815 92.2628 315.91 88.8088 315.477 85.7783C315.236 84.0943 314.265 86.1641 314.158 86.8048C313.321 91.8275 313.963 96.9737 313.57 102.056C312.811 111.938 312.523 122.361 313.426 132.265C313.635 134.578 313.78 137.216 314.451 139.451C315.312 142.317 317.303 144.811 317.678 147.81C318.112 151.287 316.549 154.396 316.212 157.782C315.897 160.925 315.517 163.925 314.745 167.02" stroke="#020207" stroke-width="2" stroke-miterlimit="10" stroke-linecap="round" stroke-linejoin="round"/>
<path d="M326.183 81.2314C326.183 82.8976 327.24 84.6253 327.356 86.3642C327.49 88.3715 327.291 90.5486 327.649 92.5233C328.006 94.4897 329.181 96.1882 329.701 98.0959C331.866 106.028 335.634 113.329 338.502 120.973C339.425 123.439 345.014 132.995 343.78 135.051C342.469 137.237 338.418 138.895 336.154 139.743C330.016 142.046 323.894 143.234 317.969 146.196" stroke="#020207" stroke-width="2" stroke-miterlimit="10" stroke-linecap="round" stroke-linejoin="round"/>
<path d="M324.129 84.458C324.129 88.6268 323.881 92.5613 325.448 96.4831" stroke="#020207" stroke-width="2" stroke-miterlimit="10" stroke-linecap="round" stroke-linejoin="round"/>
<path d="M211.797 82.6977C211.277 81.6544 209.426 85.7619 209.158 86.364C206.965 91.2956 206.061 96.8428 204.758 102.055C202.942 109.327 200.409 116.863 199.186 124.199C198.903 125.895 196.287 132.362 196.694 133.584C196.839 134.021 207.001 136.971 207.838 137.25" stroke="#020207" stroke-width="2" stroke-miterlimit="10" stroke-linecap="round" stroke-linejoin="round"/>
<path d="M212.825 115.548C211.743 113.384 210.767 111.043 209.305 109.095C209.273 109.053 207.631 107.105 207.398 107.335C207.364 107.37 208.931 113.844 209.011 114.228C209.861 118.304 210.236 122.27 210.478 126.4C210.528 127.228 211.13 129.936 210.771 130.652C210.566 131.065 210.226 129.901 210.039 129.479C209.737 128.8 209.653 128.132 209.452 127.426C209.38 127.173 209.158 126.429 209.158 126.693C209.158 127.729 210.36 129.582 210.771 130.506" stroke="#020207" stroke-width="2" stroke-miterlimit="10" stroke-linecap="round" stroke-linejoin="round"/>
<path d="M339.528 138.424C339.528 140.732 340.873 143.215 341.435 145.463C342.757 150.751 343.04 156.128 343.927 161.447C344.254 163.415 344.808 165.536 344.513 167.606C344.229 169.601 343.12 171.64 341.726 173.033C339.557 175.203 338.001 177.686 335.569 179.632C329.451 184.525 317.701 185.885 310.346 187.11C306.997 187.669 301.629 186.189 298.614 187.697" stroke="#020207" stroke-width="2" stroke-miterlimit="10" stroke-linecap="round" stroke-linejoin="round"/>
<path d="M318.41 146.636C318.089 147.28 319.539 150.461 319.583 150.596C320.46 153.223 321.196 156.168 321.196 158.954" stroke="#020207" stroke-width="2" stroke-miterlimit="10" stroke-linecap="round" stroke-linejoin="round"/>
<path d="M318.851 160.714C323.164 157.839 328.764 156.755 333.809 156.755" stroke="#020207" stroke-width="2" stroke-miterlimit="10" stroke-linecap="round" stroke-linejoin="round"/>
<path d="M322.224 159.541C313.205 164.05 304.438 168.964 294.359 170.98C291.892 171.473 287.633 172.215 285.122 171.713C283.895 171.467 282.829 170.345 281.602 170.1C278.205 169.42 273.409 170.374 270.896 172.886C269.872 173.91 269.612 175.602 268.991 176.845" stroke="#020207" stroke-width="2" stroke-miterlimit="10" stroke-linecap="round" stroke-linejoin="round"/>
<path d="M271.336 179.925C273.676 178.756 275.421 177.286 278.081 177.286" stroke="#020207" stroke-width="2" stroke-miterlimit="10" stroke-linecap="round" stroke-linejoin="round"/>
<path d="M277.056 179.045C275.707 179.719 275.182 181.367 273.976 182.271C273.187 182.863 271.698 183.065 270.749 183.444C269.635 183.89 268.983 184.887 267.963 185.497C266.556 186.343 264.602 186.371 263.125 187.257C262.255 187.779 260.102 189.425 260.778 190.777C261.655 192.531 266.419 191.134 267.672 190.777C270.412 189.993 273.567 189.762 276.03 188.284C278.694 186.684 281.18 184.562 284.094 183.591" stroke="#020207" stroke-width="2" stroke-miterlimit="10" stroke-linecap="round" stroke-linejoin="round"/>
<path d="M263.857 192.39C263.945 192.214 264.942 194.342 265.617 194.883C266.387 195.499 268.265 195.204 269.138 195.03C275.876 193.682 282.325 190.782 288.493 187.697" stroke="#020207" stroke-width="2" stroke-miterlimit="10" stroke-linecap="round" stroke-linejoin="round"/>
<path d="M268.697 195.029C268.538 195.029 270.695 195.419 271.483 195.616C273.592 196.143 275.918 195.909 278.081 195.909C281.528 195.909 287.226 195.43 290.107 193.27C291.237 192.422 292.645 191.121 293.921 190.483" stroke="#020207" stroke-width="2" stroke-miterlimit="10" stroke-linecap="round" stroke-linejoin="round"/>
<path d="M294.506 190.924C298.18 190.189 301.333 188.464 304.624 186.818" stroke="#020207" stroke-width="2" stroke-miterlimit="10" stroke-linecap="round" stroke-linejoin="round"/>
<path d="M256.378 171.566C256.368 171.572 254.528 168.674 253.886 168.193C251.148 166.139 246.612 163.55 243.18 163.06C234.463 161.815 226.338 168.196 217.518 166.726C214.569 166.235 211.906 165.794 209.305 164.233C207.094 162.906 205.403 160.831 202.854 159.98" stroke="#020207" stroke-width="2" stroke-miterlimit="10" stroke-linecap="round" stroke-linejoin="round"/>
<path d="M213.264 154.408C212.362 152.601 209.36 161.624 209.158 162.327" stroke="#020207" stroke-width="2" stroke-miterlimit="10" stroke-linecap="round" stroke-linejoin="round"/>
<path d="M198.161 134.465C197.45 134.109 197.074 137.106 196.841 137.691C195.391 141.316 194.458 145.292 193.761 149.13C192.41 156.561 185.858 169.054 190.094 176.112C191.189 177.937 193.713 179.144 195.228 180.658" stroke="#020207" stroke-width="2" stroke-miterlimit="10" stroke-linecap="round" stroke-linejoin="round"/>
<path d="M194.493 181.539C196.74 182.661 199.44 184.845 201.973 185.351C206.542 186.265 212.441 186.161 217.078 185.498C219.509 185.151 222.367 184.351 224.85 184.765C230.003 185.624 234.123 188.806 239.074 190.044C246.623 191.931 258.625 192.318 265.177 187.404C267.254 185.848 270.554 185.011 271.777 182.565" stroke="#020207" stroke-width="2" stroke-miterlimit="10" stroke-linecap="round" stroke-linejoin="round"/>
<path d="M270.896 181.098C270.456 180.214 269.707 178.491 268.404 178.752C265.681 179.296 264.372 182.105 262.391 183.591C260.266 185.184 247.685 185.77 245.381 184.617" stroke="#020207" stroke-width="2" stroke-miterlimit="10" stroke-linecap="round" stroke-linejoin="round"/>
<path d="M242.008 170.1C242.396 171.65 243.812 172.514 244.647 173.766C248.196 179.089 248.641 177.996 254.618 179.192C257.163 179.701 260.583 178.093 262.832 179.779C264.749 181.216 258.302 184.55 257.698 184.911" stroke="#020207" stroke-width="2" stroke-miterlimit="10" stroke-linecap="round" stroke-linejoin="round"/>
<path d="M241.714 169.66C241.519 169.562 240.931 169.464 241.128 169.367C241.644 169.108 241.951 169.573 242.301 169.807C244.265 171.116 247.8 171.346 249.34 172.886" stroke="#020207" stroke-width="2" stroke-miterlimit="10" stroke-linecap="round" stroke-linejoin="round"/>
<path d="M247.58 175.819C247.871 174.946 249.229 174.393 249.927 173.766C250.336 173.396 250.674 172.584 251.1 172.299C253.15 170.932 261.527 172.744 263.711 173.473C265.093 173.933 266.648 174.646 268.11 174.646C268.637 174.646 270.426 174.563 270.164 175.086" stroke="#020207" stroke-width="2" stroke-miterlimit="10" stroke-linecap="round" stroke-linejoin="round"/>
<path d="M216.197 187.844C217.176 190.782 217.128 203.464 220.157 205.735" stroke="#020207" stroke-width="2" stroke-miterlimit="10" stroke-linecap="round" stroke-linejoin="round"/>
<path d="M321.489 187.698C321.307 187.425 321.378 186.818 321.049 186.818C320.56 186.818 321.049 187.796 321.049 188.284C321.049 191.173 321.032 194.051 321.196 196.936C321.523 202.66 322.077 208.364 322.077 214.094" stroke="#020207" stroke-width="2" stroke-miterlimit="10" stroke-linecap="round" stroke-linejoin="round"/>
<path d="M312.544 127.279C312.145 127.279 310.752 136.579 310.492 137.984C308.722 147.542 307.266 156.979 307.266 166.727" stroke="#020207" stroke-width="2" stroke-miterlimit="10" stroke-linecap="round" stroke-linejoin="round"/>
<path d="M307.559 188.724C306.932 189.037 307.157 190.078 307.119 190.777C307.008 192.78 306.909 194.785 306.825 196.789C306.657 200.765 306.632 204.702 305.359 208.521" stroke="#020207" stroke-width="2" stroke-miterlimit="10" stroke-linecap="round" stroke-linejoin="round"/>
<path d="M222.062 89.4443C221.359 89.0924 223.033 94.8219 223.237 95.6034C224.307 99.7304 225.289 103.964 225.729 108.215C227.034 120.826 228.927 133.144 231.301 145.61" stroke="#020207" stroke-width="2" stroke-miterlimit="10" stroke-linecap="round" stroke-linejoin="round"/>
<path d="M285.854 67.8874C284.061 66.0933 289.234 68.0364 289.668 68.1807" stroke="#020207" stroke-width="2" stroke-miterlimit="10" stroke-linecap="round" stroke-linejoin="round"/>
<path d="M289.081 68.3273C288.567 68.0701 288.195 70.8444 288.055 71.4069C287.551 73.4222 285.963 75.4248 284.828 77.1261C281.243 82.5041 276.323 86.8044 270.164 88.8579C259.976 92.2536 248.144 87.6165 242.007 79.1791C240.78 77.4924 239.074 75.3632 239.074 73.1666" stroke="#020207" stroke-width="2" stroke-miterlimit="10" stroke-linecap="round" stroke-linejoin="round"/>
<path d="M283.509 65.8344C283.41 65.6389 283.215 65.0292 283.215 65.2478C283.215 66.8469 286.022 67.8516 287.174 68.1807" stroke="#020207" stroke-width="2" stroke-miterlimit="10" stroke-linecap="round" stroke-linejoin="round"/>
<path d="M323.222 211.652C322.679 211.381 322.78 211.281 322.664 212.21C322.178 216.1 322.721 220.031 323.036 223.904C323.766 232.896 326.757 241.562 330.089 249.893" stroke="#020207" stroke-width="2" stroke-miterlimit="10" stroke-linecap="round" stroke-linejoin="round"/>
<path d="M221.127 246.551C220.695 246.335 220.355 245.282 220.013 245.622C219.734 245.901 222.99 252.967 223.539 253.791" stroke="#020207" stroke-width="2" stroke-miterlimit="10" stroke-linecap="round" stroke-linejoin="round"/>
<path d="M218.156 199.215C217.667 200.684 217.999 202.308 217.972 203.856C217.869 209.411 218.135 213.257 219.826 218.336" stroke="#020207" stroke-width="2" stroke-miterlimit="10" stroke-linecap="round" stroke-linejoin="round"/>
<path d="M167.109 50.3418C167.109 60.3011 164.247 72.2371 154.486 77.4435C152.161 78.6834 149.646 78.3141 147.246 79.1141C145.714 79.6247 144.128 80.8839 142.421 80.599C141.5 80.4456 143.53 78.5644 143.719 78.1859C144.97 75.6831 146.503 73.5424 146.503 70.5751C146.503 70.2039 146.864 69.5515 146.503 69.4615C145.704 69.2614 144.235 72.0529 143.904 72.4315C142.691 73.8174 135.134 81.5116 134.067 81.156C134.014 81.1382 134.052 79.7634 134.067 79.6709C134.457 77.3317 136.995 72.0602 132.581 72.0602C132.218 72.0602 131.406 71.9054 131.096 72.0602C130.534 72.3415 130.349 75.1022 130.169 75.587C128.771 79.3136 126.642 84.7667 126.642 88.7666C126.642 90.2767 125.414 99.3465 125.414 98.8164" stroke="#020207" stroke-width="2" stroke-miterlimit="10" stroke-linecap="round" stroke-linejoin="round"/>
<path d="M164.323 43.288C163.018 40.6782 161.778 35.5976 159.126 34.0065C156.758 32.5852 156.882 33.703 154.857 34.3777C152.671 35.1065 149.329 33.6463 147.246 33.0784C144.407 32.3039 141.594 30.6333 138.707 30.1084C132.919 29.0561 125.39 30.3931 119.587 31.2222C116.289 31.6934 111.505 29.9974 108.635 32.1503C105.424 34.5596 103.785 39.9869 101.767 43.288C101.181 44.2472 100.267 45.0024 99.9102 46.0724" stroke="#020207" stroke-width="2" stroke-miterlimit="10" stroke-linecap="round" stroke-linejoin="round"/>
<path d="M88.9592 77.6294C88.0885 78.9362 88.5879 82.4049 88.5879 83.7551C88.5879 88.4002 88.9445 93.2265 88.5879 97.8629C87.6186 110.455 81.0878 121.73 80.4206 134.432C80.1605 139.361 78.6122 144.9 81.5346 149.282" stroke="#020207" stroke-width="2" stroke-miterlimit="10" stroke-linecap="round" stroke-linejoin="round"/>
<path d="M125.9 77.6291C123.064 76.2115 121.32 71.5161 117.175 73.1741C110.495 75.8463 118.394 89.4813 121.444 91.9225" stroke="#020207" stroke-width="2" stroke-miterlimit="10" stroke-linecap="round" stroke-linejoin="round"/>
<path d="M126.456 99.7817C126.164 105.616 125.377 116.247 126.456 121.994C127.62 128.208 130.954 133.986 131.839 140.186" stroke="#020207" stroke-width="2" stroke-miterlimit="10" stroke-linecap="round" stroke-linejoin="round"/>
<path d="M98.6113 132.946C98.6113 129.117 107.746 136.952 108.449 137.03C111.801 137.402 113.301 134.603 115.875 133.132C117.442 132.236 122.219 133.198 123.856 133.689C126.766 134.561 128.987 139.814 131.654 139.814" stroke="#020207" stroke-width="2" stroke-miterlimit="10" stroke-linecap="round" stroke-linejoin="round"/>
<path d="M168.779 68.1621C167.237 68.9335 166.425 72.0053 165.808 73.5452C164.661 76.4137 163.499 80.0011 164.138 83.198C164.969 87.3552 167.571 88.1268 166.551 93.2219C166.129 95.3314 158.755 95.4413 158.755 94.15" stroke="#020207" stroke-width="2" stroke-miterlimit="10" stroke-linecap="round" stroke-linejoin="round"/>
<path d="M162.097 96.563C162.097 95.792 162.894 101.069 161.726 101.946C160.44 102.911 154.398 103.388 153 102.689" stroke="#020207" stroke-width="2" stroke-miterlimit="10" stroke-linecap="round" stroke-linejoin="round"/>
<path d="M158.755 103.245C157.769 102.752 159.46 106.142 158.569 106.587C156.857 107.443 153.893 104.609 152.445 103.245" stroke="#020207" stroke-width="2" stroke-miterlimit="10" stroke-linecap="round" stroke-linejoin="round"/>
<path d="M140.564 128.862C140.415 128.564 140.491 128.083 140.193 127.934C139.299 127.487 139.467 129.797 139.079 130.718C138.298 132.57 137.558 134.316 136.666 136.101" stroke="#020207" stroke-width="2" stroke-miterlimit="10" stroke-linecap="round" stroke-linejoin="round"/>
<path d="M128.683 127.934C130.362 131.291 134.442 133.612 137.409 135.731" stroke="#020207" stroke-width="2" stroke-miterlimit="10" stroke-linecap="round" stroke-linejoin="round"/>
<path d="M57.4022 204.784C57.4022 213.049 55.9909 220.755 55.1746 228.916C54.6579 234.083 55.4033 239.554 55.9173 244.694C56.3769 249.291 56.6515 256.191 59.2584 260.101" stroke="#020207" stroke-width="2" stroke-miterlimit="10" stroke-linecap="round" stroke-linejoin="round"/>
<path d="M88.5879 151.88C88.5879 150.179 97.1118 144.646 98.9831 143.898C103.066 142.265 106.823 140.401 111.235 140C114.023 139.746 116.759 140.548 119.587 140.371C122.253 140.204 125 139.529 127.57 140.557C129.789 141.444 131.111 143.356 132.768 145.012" stroke="#020207" stroke-width="2" stroke-miterlimit="10" stroke-linecap="round" stroke-linejoin="round"/>
<path d="M91.1875 150.395C89.4106 150.395 88.0993 156.095 87.6609 157.635C85.542 165.045 88.2756 173.03 89.8868 180.281C92.8029 193.404 98.182 205.304 105.109 216.85C106.76 219.603 108.002 223.155 109.192 226.132C111.118 230.946 114.405 235.325 116.432 240.053C117.189 241.818 118.815 243.205 119.774 244.881C121.079 247.163 122.285 250.023 123.856 252.119C125.78 254.684 128.252 256.803 130.169 259.359" stroke="#020207" stroke-width="2" stroke-miterlimit="10" stroke-linecap="round" stroke-linejoin="round"/>
<path d="M139.45 204.413C140.302 206.968 139.117 210.245 140.378 212.766" stroke="#020207" stroke-width="2" stroke-miterlimit="10" stroke-linecap="round" stroke-linejoin="round"/>
<path d="M136.851 185.293C136.851 187.371 137.543 189.366 137.78 191.419C138.401 196.811 138.601 202.196 139.45 207.569C139.84 210.048 140.415 212.479 140.564 214.994C140.631 216.156 140.436 217.365 140.564 218.521C140.585 218.716 140.749 219.274 140.749 219.079C140.749 214.421 134.168 205.05 132.026 201.257C130.435 198.447 128.673 195.914 126.827 193.275C126.571 192.91 126.401 191.846 126.084 192.162C125.749 192.498 127.951 195.409 128.126 195.689C130.414 199.349 132.739 202.544 134.81 206.455C136.412 209.485 137.902 213.257 138.521 216.664C138.554 216.847 139.018 219.635 139.45 219.635C140.178 219.635 138.88 215.921 140.193 215.921C141.263 215.921 140.539 222.4 140.749 223.348C141.452 226.51 145.1 221.898 145.389 223.348C145.945 226.122 139.977 235.652 138.336 238.569C138.11 238.971 137.594 239.332 137.594 239.869C137.594 240.66 138.638 238.671 139.079 238.013C139.832 236.882 140.422 235.65 141.12 234.486C142.74 231.786 144.674 229.252 146.503 226.688C146.915 226.115 147.38 225.582 147.804 225.018C148.02 224.728 148.522 223.768 148.36 224.091C145.551 229.709 142.287 235.308 139.45 240.981C139.188 241.504 140.054 239.983 140.378 239.498C140.942 238.652 141.672 237.929 142.234 237.083C142.706 236.374 146.18 230.943 146.69 230.773C147.288 230.573 146.478 232.019 146.319 232.629C145.532 235.617 146.04 234.341 145.205 237.083C144.848 238.254 139.58 254.2 141.491 246.551" stroke="#020207" stroke-width="2" stroke-miterlimit="10" stroke-linecap="round" stroke-linejoin="round"/>
<path d="M147.618 227.431C150.118 228.681 152.844 227.659 155.414 228.173C159.173 228.926 165.719 230.724 169.335 228.916" stroke="#020207" stroke-width="2" stroke-miterlimit="10" stroke-linecap="round" stroke-linejoin="round"/>
<path d="M168.224 227.617C170.194 229.589 172.703 231.622 174.347 233.927C177.664 238.57 177.937 244.637 178.432 250.077C178.749 253.566 178.988 256.967 178.988 260.472C178.988 261.028 178.988 259.358 178.988 258.802" stroke="#020207" stroke-width="2" stroke-miterlimit="10" stroke-linecap="round" stroke-linejoin="round"/>
<path d="M168.964 227.246C171.513 228.943 186.108 227.397 190.497 227.059C191.639 226.971 194.181 226.117 195.325 226.688C196.445 227.248 196.63 230.433 196.81 231.328C197.509 234.821 199.151 238.122 199.407 241.724C199.451 242.336 199.642 248.641 198.295 247.294" stroke="#020207" stroke-width="2" stroke-miterlimit="10" stroke-linecap="round" stroke-linejoin="round"/>
<path d="M200.15 241.91C198.849 241.91 199.164 244.063 198.851 245.065C198.085 247.518 196.377 249.838 194.953 251.934C193.828 253.587 192.649 255.354 191.426 256.946C191.049 257.437 189.693 258.431 190.312 258.431" stroke="#020207" stroke-width="2" stroke-miterlimit="10" stroke-linecap="round" stroke-linejoin="round"/>
<path d="M110.864 238.012C108.327 236.743 103.536 237.559 100.84 237.454C97.605 237.33 94.3406 236.441 91.1874 235.784C88.8965 235.306 86.6391 235.1 84.3188 234.857C83.423 234.762 81.0817 234.75 81.7194 234.114C82.7306 233.101 87.9021 234.924 88.4014 235.041C92.4881 235.996 96.5938 236.967 100.653 238.012C102.546 238.499 104.474 238.849 106.408 239.126C106.601 239.153 106.966 239.311 106.966 239.311C106.966 239.311 105.892 238.794 105.481 238.383" stroke="#020207" stroke-width="2" stroke-miterlimit="10" stroke-linecap="round" stroke-linejoin="round"/>
<path d="M108.82 238.197C104.981 238.197 101.052 236.657 97.4976 235.413C94.2081 234.261 90.7255 233.72 87.4737 232.442C83.9933 231.077 80.7268 229.214 77.2652 227.802C71.8167 225.582 66.8846 224.29 62.5996 220.006" stroke="#020207" stroke-width="2" stroke-miterlimit="10" stroke-linecap="round" stroke-linejoin="round"/>
<path d="M86.7307 154.665C85.1887 153.894 84.058 156.084 83.5754 157.263C81.9034 161.348 80.3782 165.599 79.3062 169.886" stroke="#020207" stroke-width="2" stroke-miterlimit="10" stroke-linecap="round" stroke-linejoin="round"/>
<path d="M73.9238 168.958C78.1556 177.423 81.9906 186.169 86.3606 194.575C91.8614 205.153 100.129 214.119 106.224 224.275" stroke="#020207" stroke-width="2" stroke-miterlimit="10" stroke-linecap="round" stroke-linejoin="round"/>
<path d="M196.623 229.844C197.252 228.586 200.674 228.581 202.006 228.359C205.478 227.78 214.46 227.413 216.858 225.017" stroke="#020207" stroke-width="2" stroke-miterlimit="10" stroke-linecap="round" stroke-linejoin="round"/>
<path d="M216.115 225.202C216.601 223.744 218.957 222.236 220.197 221.304C224.857 217.811 228.671 213.187 233.192 209.796C234.822 208.573 235.833 205.164 238.575 205.712C240.835 206.164 239.181 210.846 238.947 212.023C238.114 216.183 230.074 217.446 235.233 222.605" stroke="#020207" stroke-width="2" stroke-miterlimit="10" stroke-linecap="round" stroke-linejoin="round"/>
<path d="M199.407 250.633C201.757 249.851 203.37 247.812 205.72 247.107C211.674 245.321 217.393 242.378 223.54 241.352C226.601 240.842 230.356 241.91 233.564 241.91C242.408 241.91 250.895 241.749 259.366 240.053C263.407 239.246 263.774 235.054 265.863 232.442C266.881 231.171 268.314 230.048 269.575 229.102C270.368 228.509 271.801 226.499 270.875 225.574C269.518 224.218 265.328 226.073 263.451 225.76C258.112 224.871 252.68 225.729 247.301 224.833C243.21 224.151 239.715 223.348 235.42 223.348" stroke="#020207" stroke-width="2" stroke-miterlimit="10" stroke-linecap="round" stroke-linejoin="round"/>
<path d="M238.575 219.821C238.575 217.979 241.816 218.437 242.844 217.407C243.703 216.549 245.01 215.08 246.371 214.807C248.417 214.4 250.447 215.443 252.497 215.737C256.462 216.303 261.191 216.282 264.934 217.778C267.109 218.649 269.176 219.555 271.431 220.006C271.567 220.033 271.758 220.061 271.802 220.191C271.846 220.323 271.699 220.453 271.618 220.562C270.208 222.442 266.941 223.233 265.863 225.389" stroke="#020207" stroke-width="2" stroke-miterlimit="10" stroke-linecap="round" stroke-linejoin="round"/>
<path d="M245.444 233.928C244.76 232.56 252.937 232.04 254.167 231.887C257.494 231.471 262.045 231.348 265.12 230.03C266.599 229.396 267.782 228.142 269.203 227.431" stroke="#020207" stroke-width="2" stroke-miterlimit="10" stroke-linecap="round" stroke-linejoin="round"/>
<path d="M249.155 238.568C255.661 238.568 264.56 235.048 267.72 228.731" stroke="#020207" stroke-width="2" stroke-miterlimit="10" stroke-linecap="round" stroke-linejoin="round"/>
<path d="M217.042 228.731C217.932 230.51 218.725 232.568 220.013 234.114C221.546 235.954 223.745 237.496 224.838 239.682" stroke="#020207" stroke-width="2" stroke-miterlimit="10" stroke-linecap="round" stroke-linejoin="round"/>
<path d="M217.784 222.419C216.391 226.6 224.412 232.367 226.694 235.414" stroke="#020207" stroke-width="2" stroke-miterlimit="10" stroke-linecap="round" stroke-linejoin="round"/>
<path d="M140.378 129.227C140.972 130.631 145.033 134.191 145.688 135.502" stroke="#020207" stroke-width="2" stroke-miterlimit="10" stroke-linecap="round" stroke-linejoin="round"/>
<path d="M145.576 135.36C145.576 137.306 145.897 139.56 145.576 141.486C145.081 144.45 143.658 148.049 144.275 151.138C145.563 157.577 146.65 164.571 148.731 170.815C151.461 179.001 157.677 186.877 158.755 195.503C159.557 201.923 161.524 211.908 160.24 218.336C159.561 221.733 159.126 225.78 159.126 229.288" stroke="#020207" stroke-width="2" stroke-miterlimit="10" stroke-linecap="round" stroke-linejoin="round"/>
<path d="M162.362 36.4194C166.136 43.2109 168.857 49.6788 170.925 57.2126C171.983 61.0695 173.359 64.8294 172.847 68.9199C172.522 71.5258 170.579 73.9445 169.526 76.2587C168.918 77.5993 168.307 79.5745 167.256 80.627" stroke="#020207" stroke-width="2" stroke-miterlimit="10" stroke-linecap="round" stroke-linejoin="round"/>
<path d="M156.246 107.012C156.246 108.033 154.866 116.785 154.151 117.322C153.351 117.921 150.807 117.534 149.957 117.322C145.176 116.126 140.43 114.204 135.628 112.604C133.834 112.005 127.467 109.321 126.862 107.505" stroke="#020207" stroke-width="2" stroke-miterlimit="10" stroke-linecap="round" stroke-linejoin="round"/>
<path d="M127.24 120.466C124.8 120.466 130.429 121.973 131.61 122.563C135.154 124.335 137.816 126.672 140.52 129.378" stroke="#020207" stroke-width="2" stroke-miterlimit="10" stroke-linecap="round" stroke-linejoin="round"/>
<path d="M133.88 111.904C133.137 113.297 131.206 120.72 131.206 121.986" stroke="#020207" stroke-width="2" stroke-miterlimit="10" stroke-linecap="round" stroke-linejoin="round"/>
<path d="M139.123 140.037C138.487 138.767 139.945 142.531 139.998 142.658C140.898 144.846 142.096 146.857 143.142 148.948" stroke="#020207" stroke-width="2" stroke-miterlimit="10" stroke-linecap="round" stroke-linejoin="round"/>
<path d="M131.26 142.134C130.893 141.4 131.818 144.284 131.959 144.755C132.626 146.977 133.706 149.014 133.706 151.395C133.706 158.226 133.127 164.251 131.785 170.965" stroke="#020207" stroke-width="2" stroke-miterlimit="10" stroke-linecap="round" stroke-linejoin="round"/>
<path d="M65.9275 150.346C64.3299 151.943 65.0386 156.851 64.8792 159.082C64.8102 160.05 64.5911 161.108 64.3549 162.053C64.2829 162.341 63.8921 162.999 64.1804 162.926C65.4125 162.618 66.2642 160.178 66.8013 159.257C68.9097 155.643 70.6023 152.102 73.4412 148.948C73.8268 148.519 74.2565 148.132 74.6643 147.725C78.3705 144.018 77.2607 151.394 78.5084 151.394C79.4057 151.394 85.9969 142.857 87.0711 141.784" stroke="#020207" stroke-width="2" stroke-miterlimit="10" stroke-linecap="round" stroke-linejoin="round"/>
<path d="M65.036 158.209C64.5161 157.949 63.6952 165.612 63.4636 166.771C62.4214 171.982 61.0627 177.111 60.3184 182.322C59.1731 190.338 59.0968 198.739 57.5225 206.61C56.7192 210.627 56.5776 216.594 57.1732 220.763C57.5936 223.706 58.717 226.65 59.0951 229.675C59.928 236.336 58.9946 243.538 58.3963 250.119C58.0394 254.042 58.571 258.081 58.571 262" stroke="#020207" stroke-width="2" stroke-miterlimit="10" stroke-linecap="round" stroke-linejoin="round"/>
<path d="M161.458 76.4188C158.237 74.8091 152.113 73.0038 148.547 74.1927" stroke="#020207" stroke-width="2" stroke-miterlimit="10" stroke-linecap="round" stroke-linejoin="round"/>
<path d="M154.779 83.0972C154.557 82.875 152.969 81.5692 153.443 81.0938C153.462 81.0752 154.689 81.5164 154.779 81.539C157.295 82.1678 159.689 82.2068 162.347 82.2068" stroke="#020207" stroke-width="2" stroke-miterlimit="10" stroke-linecap="round" stroke-linejoin="round"/>
<path d="M245.154 217.545C242.88 218.684 241.466 220.012 239.813 221.999C239.402 222.492 238.384 223.491 237.81 223.778C237.535 223.917 236.702 224.219 236.918 224C239.681 221.24 242.457 218.898 245.822 216.878C246.002 216.771 246.268 216.643 246.268 216.433C246.268 216.37 243.736 217.891 243.596 217.992C242.003 219.129 240.705 220.606 239.144 221.775C238.384 222.345 236.918 223.556 236.918 223.556C236.918 223.556 237.48 222.928 237.81 222.666C238.842 221.84 239.759 220.94 240.703 219.995C243.119 217.577 245.721 216.125 248.939 215.319C251.247 214.742 252.82 217.459 254.95 217.992C256.869 218.472 259.194 218.659 261.183 218.659C262.439 218.659 272.507 218.072 271.643 220.663C271.32 221.634 268.013 222.958 267.191 223.778" stroke="#020207" stroke-width="2" stroke-miterlimit="10" stroke-linecap="round" stroke-linejoin="round"/>
<path d="M250.72 217.992C249.363 217.314 241.147 220.654 241.147 221.107C241.147 222.097 243.096 220.732 244.042 220.44C246.243 219.762 248.505 219.292 250.72 218.659C251.908 218.319 253.112 217.935 254.28 217.545C254.595 217.44 255.407 217.335 255.172 217.1C254.792 216.722 249.975 218.39 249.829 218.436C246.86 219.374 241.093 220.008 239.144 222.443C238.632 223.083 240.78 222.767 241.592 222.666C242.891 222.504 244.737 222.066 246.044 221.774C249.552 220.996 254.28 220.662 257.62 219.326C258.103 219.133 256.563 219.19 256.061 219.326C254.704 219.697 253.399 220.243 252.054 220.662C251.763 220.753 251.448 220.771 251.165 220.885C248.154 222.089 245.201 223.312 242.261 224.669C242.018 224.781 241.472 224.875 241.592 225.114C241.726 225.381 242.188 225.143 242.484 225.114C244.684 224.894 247.019 224.229 249.161 223.778C251.71 223.243 254.215 222.685 256.729 221.999C257.841 221.694 260.069 221.107 260.069 221.107C260.069 221.107 257.826 221.483 256.729 221.774C254.555 222.355 252.556 222.92 250.498 223.778C249.638 224.136 247.632 224.283 248.047 225.114C248.215 225.446 248.794 225.167 249.161 225.114C252.392 224.653 255.543 223.417 258.732 222.666C259.766 222.422 260.828 222.29 261.85 221.999C262.234 221.888 263.362 221.552 262.962 221.552C262.03 221.552 261.266 222.236 260.513 222.666C253.229 226.828 264.103 222.897 266.079 221.999C266.381 221.86 266.969 221.885 266.969 221.552C266.969 221.353 264.583 222.634 264.52 222.666C264.319 222.767 260.641 224.478 260.736 224.669C261.271 225.737 266.136 223.388 266.969 223.111" stroke="#020207" stroke-width="2" stroke-miterlimit="10" stroke-linecap="round" stroke-linejoin="round"/>
<path d="M243.818 218.66C248.735 219.889 253.915 220.548 258.957 221.108C261.357 221.374 260.595 221.33 262.517 221.33C263.115 221.33 264.722 221.532 264.298 221.108C264.292 221.102 251.488 219.333 251.387 219.327C250.12 219.243 248.87 218.981 247.603 218.882C246.937 218.832 244.932 218.882 245.599 218.882C250.336 218.882 255.115 218.668 259.846 218.882C261.497 218.957 263.322 219.029 264.965 219.327C265.481 219.421 266.994 219.316 266.524 219.549C263.259 221.183 252.965 219.696 249.828 218.882C248.668 218.582 246.491 218.746 246.491 217.546C246.491 216.497 248.574 217.81 249.606 217.992C251.44 218.316 253.128 218.55 254.949 218.882C258.6 219.547 262.351 219.795 265.857 221.108C266.012 221.167 266.301 221.165 266.301 221.33C266.301 221.999 264.961 221.414 264.298 221.33C263.387 221.217 262.527 220.844 261.627 220.663C258.791 220.097 249.933 217.76 248.272 215.544C247.89 215.036 249.459 215.983 250.051 216.211C251.421 216.738 253.303 217.38 254.727 217.77C258.55 218.813 262.607 218.92 266.301 220.441C266.855 220.667 268.282 220.909 267.86 221.33C267.034 222.157 262.687 221.603 261.627 221.553C255.87 221.28 249.002 220.29 243.373 218.882C242.57 218.681 245.003 219.199 245.821 219.327C247.16 219.539 248.482 219.866 249.828 219.996C254.104 220.403 258.321 220.554 262.517 221.553C264.015 221.909 264.285 222.159 265.857 222.444C266.075 222.484 266.524 222.222 266.524 222.444C266.524 222.679 266.087 222.633 265.857 222.667C264.08 222.92 261.822 222.855 260.068 222.444C255.535 221.376 251.417 220.441 246.713 220.441C246.317 220.441 243.209 220.13 242.706 220.885C242.259 221.555 244.854 222.169 246.491 222.667C248.347 223.231 261.241 225.174 261.85 225.782C262.217 226.149 260.807 225.847 260.291 225.782C259.324 225.662 258.365 225.459 257.398 225.337C254.049 224.92 250.605 224.255 247.38 223.334C247.145 223.267 244.571 222.358 244.709 222.222C245.2 221.729 248.876 222.639 249.384 222.667C253.961 222.908 258.694 223.004 263.184 224.001" stroke="#020207" stroke-width="2" stroke-miterlimit="10" stroke-linecap="round" stroke-linejoin="round"/>
<path d="M255.172 172.803C254.492 171.446 248.717 175.479 248.717 177.033C248.717 177.568 249.64 176.485 250.051 176.143C250.294 175.941 250.498 175.697 250.72 175.475C251.211 174.982 253.066 172.803 253.836 172.803C254.519 172.803 252.835 173.741 252.277 174.139C251.211 174.901 250.605 175.979 249.606 176.81C249.401 176.982 248.75 177.066 248.939 177.255C249.296 177.613 255.193 174.053 255.839 173.694C256.538 173.306 258.065 172.004 258.065 172.803C258.065 173.071 257.616 173.093 257.398 173.249C255.268 174.77 253.204 176.329 251.387 178.146C251.052 178.482 249.879 178.773 250.273 179.036C251.433 179.809 256.953 176.476 258.065 175.92C258.988 175.459 260.736 173.331 260.736 174.362C260.736 175.628 257.742 177.357 256.953 178.146C256.655 178.443 255.686 178.849 256.061 179.036C257.068 179.54 261.325 176.195 262.072 175.697C262.655 175.309 264.348 174.089 263.853 174.584C263.442 174.995 259.059 178.356 259.401 179.036C259.546 179.325 264.426 176.524 264.743 176.365C265.101 176.186 266.138 175.637 265.857 175.92C265.351 176.424 262.215 178.129 262.517 179.036C262.703 179.598 267.388 177.591 267.638 177.478C268.064 177.284 268.972 176.564 268.972 177.033C268.972 177.313 266.622 178.938 266.301 179.259C265.913 179.646 263.788 182.185 265.634 181.262" stroke="#020207" stroke-width="2" stroke-miterlimit="10" stroke-linecap="round" stroke-linejoin="round"/>
<path d="M254.949 174.584C254.675 174.447 253.768 174.265 254.058 174.362C258.245 175.758 262.798 175.972 266.968 177.255C267.858 177.529 270.191 178.075 269.417 178.591C267.646 179.772 254.503 177.525 254.503 175.03C254.503 174.764 260.417 175.683 260.513 175.697C261.812 175.892 268.884 176.5 269.639 177.255C269.799 177.413 269.194 177.255 268.972 177.255C267.934 177.255 266.895 177.255 265.857 177.255C264.696 177.255 258.518 176.365 262.739 176.365" stroke="#020207" stroke-width="2" stroke-miterlimit="10" stroke-linecap="round" stroke-linejoin="round"/>
<path d="M244.71 70.631C244.64 70.5968 243.581 69.5181 244.043 69.5181C244.829 69.5181 244.462 74.6081 244.487 75.083C244.722 79.7843 244.827 84.426 245.377 89.1066C246.963 102.581 249.499 116.496 255.617 128.729" stroke="#020207" stroke-width="2" stroke-miterlimit="10" stroke-linecap="round" stroke-linejoin="round"/>
<path d="M289.897 68.8506C288.588 70.8126 288.72 73.4241 288.338 75.7511C287.512 80.8004 286.719 85.6741 285.668 90.6651C282.013 108.02 279.221 127.11 270.531 142.753" stroke="#020207" stroke-width="2" stroke-miterlimit="10" stroke-linecap="round" stroke-linejoin="round"/>
<path d="M243.151 68.8506C242.012 68.8506 242.484 74.677 242.484 75.0833C242.484 79.8137 243.103 84.4088 243.596 89.1069C244.154 94.3958 244.024 99.9073 244.932 105.134C246.201 112.43 248.954 120.097 251.165 127.171C252.889 132.69 256.8 140.164 262.517 142.308" stroke="#020207" stroke-width="2" stroke-miterlimit="10" stroke-linecap="round" stroke-linejoin="round"/>
<path d="M290.787 68.4048C289.725 68.9358 290.545 72.7779 290.564 73.302C290.77 78.856 289.486 84.5868 288.338 89.9969C286.597 98.2069 283.737 105.939 281.661 114.038C279.378 122.941 277.326 132.724 273.202 140.972" stroke="#020207" stroke-width="2" stroke-miterlimit="10" stroke-linecap="round" stroke-linejoin="round"/>
<path d="M255.839 139.191C255.711 139.191 261.31 139.414 262.739 139.414C266.61 139.414 270.449 139.191 274.316 139.191C275.427 139.191 277.653 139.191 277.653 139.191C277.653 139.191 277.175 139.448 276.986 139.637C275.792 140.831 275.499 143.036 275.427 144.756C275.228 149.562 275.427 154.416 275.427 159.225C275.427 161.096 275.427 167.375 275.427 165.236" stroke="#020207" stroke-width="2" stroke-miterlimit="10" stroke-linecap="round" stroke-linejoin="round"/>
<path d="M257.842 138.523C256.529 138.523 257.366 142.067 257.398 142.53C257.67 146.616 257.62 150.682 257.62 154.773C257.62 155.652 257.213 164.307 258.51 163.009" stroke="#020207" stroke-width="2" stroke-miterlimit="10" stroke-linecap="round" stroke-linejoin="round"/>
<path d="M258.51 139.859C256.259 138.359 262.844 138.746 263.409 138.746C267.317 138.746 271.085 139.859 274.983 139.859C276.137 139.859 278.937 139.756 278.99 139.859C279.208 140.296 277.71 144.039 277.653 144.756C277.301 149.344 278.098 153.966 278.098 158.557C278.098 160.938 278.214 163.319 277.876 165.681C277.781 166.346 277.179 168.159 277.653 167.684C277.87 167.468 277.802 167.09 277.876 166.794" stroke="#020207" stroke-width="2" stroke-miterlimit="10" stroke-linecap="round" stroke-linejoin="round"/>
<path d="M259.624 166.571C262.674 167.181 274.412 168.86 277.209 167.461" stroke="#020207" stroke-width="2" stroke-miterlimit="10" stroke-linecap="round" stroke-linejoin="round"/>
<path d="M277.654 142.084C274.675 142.084 271.351 147.06 269.639 148.985C267.445 151.455 267 152.132 267.191 152.324C268.853 153.985 274.79 149.796 276.095 149.208C276.699 148.936 278.065 148.358 278.768 148.095C278.986 148.012 279.435 147.637 279.435 147.872C279.435 148.933 263.041 159.116 273.202 158.334C273.947 158.277 274.687 158.186 275.428 158.112" stroke="#020207" stroke-width="2" stroke-miterlimit="10" stroke-linecap="round" stroke-linejoin="round"/>
<path d="M159.949 35.0454C159.949 36.4821 162.288 38.4866 163.096 39.6609C164.919 42.3135 166.549 45.1377 167.921 48.0526C172.041 56.8085 172.887 68.611 169.809 77.8432" stroke="#020207" stroke-width="2" stroke-miterlimit="10" stroke-linecap="round" stroke-linejoin="round"/>
<path d="M108.339 34.2058C101.586 30.8292 95.2148 40.3909 92.3952 45.3248C84.2426 59.5922 81.016 83.2525 84.2132 99.2416" stroke="#020207" stroke-width="2" stroke-miterlimit="10" stroke-linecap="round" stroke-linejoin="round"/>
<path d="M84.424 74.4863C82.8023 75.2968 82.9114 78.6576 82.7457 80.1507C82.1268 85.7258 80.782 90.9983 79.8086 96.5146C76.0162 118.003 67.3937 138.295 62.8149 159.662" stroke="#020207" stroke-width="2" stroke-miterlimit="10" stroke-linecap="round" stroke-linejoin="round"/>
<path d="M114.424 134.697C115.612 134.612 116.799 134.487 117.991 134.487" stroke="#020207" stroke-width="2" stroke-miterlimit="10" stroke-linecap="round" stroke-linejoin="round"/>
<path d="M125.897 95.9204C125.897 99.9751 126.523 102.509 126.382 106.585C126.149 113.353 125.914 120.738 127.641 127.354C130.133 136.913 137.3 146.192 135.193 156.725" stroke="#020207" stroke-width="2" stroke-miterlimit="10" stroke-linecap="round" stroke-linejoin="round"/>
<path d="M245.368 25.6967C245.867 24.2548 246.102 22.9049 246.604 21.5009C247.162 19.9394 247.856 18.4931 248.731 17.1039C250.023 15.0509 251.604 12.297 253.515 10.8102C254.038 10.4037 254.352 9.84504 254.924 9.41644C255.341 9.1035 256.163 8.84729 256.476 8.48245C257.097 7.7568 258.112 7.40904 258.947 6.95932C259.948 6.4203 261.365 6.32457 262.467 5.89601C264.044 5.2827 266.531 5.05349 268.273 5.00512C270.954 4.93063 273.353 5.67473 275.63 6.87311C278.771 8.52629 282.662 9.33707 285.559 11.4712C288.085 13.3328 291.135 15.5737 293.074 18.0667C293.688 18.8563 293.229 21.1566 293.462 22.205C293.732 23.4221 294.793 23.9337 295.287 24.9207" stroke="#020207" stroke-width="2" stroke-linecap="round"/>
<path fill-rule="evenodd" clip-rule="evenodd" d="M38.0566 259H37V337H354V259H353.943C351.68 268.986 281.833 277 196 277C110.167 277 40.3196 268.986 38.0566 259Z" fill="url(#paint1_linear_3178_82078)" fill-opacity="0.4"/>
</g>
<defs>
<linearGradient id="paint0_linear_3178_82078" x1="21.897" y1="261.548" x2="202.472" y2="418.25" gradientUnits="userSpaceOnUse">
<stop stop-color="#603DEB"/>
<stop offset="1" stop-color="#F19077"/>
</linearGradient>
<linearGradient id="paint1_linear_3178_82078" x1="21.8492" y1="310.75" x2="293.148" y2="422.783" gradientUnits="userSpaceOnUse">
<stop stop-color="#603DEB"/>
<stop offset="1" stop-color="#F19077"/>
</linearGradient>
<clipPath id="clip0_3178_82078">
<rect width="400" height="300" fill="white"/>
</clipPath>
</defs>
</svg>
