<?xml version="1.0" encoding="utf-8"?>
<!-- Generator: Adobe Illustrator 16.0.4, SVG Export Plug-In . SVG Version: 6.00 Build 0)  -->
<!DOCTYPE svg PUBLIC "-//W3C//DTD SVG 1.1//EN" "http://www.w3.org/Graphics/SVG/1.1/DTD/svg11.dtd">
<svg version="1.1" xmlns="http://www.w3.org/2000/svg" xmlns:xlink="http://www.w3.org/1999/xlink" x="0px" y="0px"
	 width="290.165px" height="289.342px" viewBox="0 0 290.165 289.342" enable-background="new 0 0 290.165 289.342"
	 xml:space="preserve">
<g id="Layer_1">
</g>
<g id="Layer_2">
	<rect x="19.802" y="0.001" fill="#005E74" width="41.064" height="115.32"/>
	<rect x="229.679" y="0.001" fill="#005E74" width="40.684" height="115.32"/>
	<path fill="#2FA3B0" d="M229.679,163.987v12.051c0,55.891-28.514,71.861-80.604,71.861c-23.953,0-54.371-3.043-72.24-20.914
		c-14.828-14.826-15.969-31.176-15.969-50.947v-12.051H19.802v12.051c0,25.094,1.523,45.246,15.971,66.537
		c23.193,34.219,67.297,46.768,106.84,46.768c38.021,0,83.266-9.127,107.6-41.062c18.25-23.574,20.15-43.346,20.15-72.242v-12.051
		H229.679z"/>
	<g id="Key_2_">
		<g>
			<rect x="-0.001" y="127.618" fill="#4D4D4D" width="290.166" height="12.859"/>
		</g>
	</g>
	<g id="Key_1_">
		<g>
			<rect x="-0.001" y="139.36" width="290.166" height="11.744"/>
		</g>
	</g>
</g>
</svg>
