<svg width="400" height="400" viewBox="0 0 400 400" fill="none" xmlns="http://www.w3.org/2000/svg">
<rect x="282" y="41" width="78" height="78" rx="7" fill="#BFB1F7" stroke="#603DEB" stroke-width="2"/>
<circle cx="321" cy="80" r="9" fill="#603DEB"/>
<rect x="40" y="281" width="78" height="78" rx="7" fill="#BFB1F7" stroke="#603DEB" stroke-width="2"/>
<circle cx="79" cy="320" r="9" fill="#603DEB"/>
<line x1="316" y1="81" x2="82" y2="81" stroke="#603DEB" stroke-width="2" stroke-linecap="round" stroke-dasharray="4 4"/>
<line x1="315" y1="320" x2="81" y2="320" stroke="#603DEB" stroke-width="2" stroke-linecap="round" stroke-dasharray="4 4"/>
<line x1="319" y1="319" x2="319" y2="85" stroke="#603DEB" stroke-width="2" stroke-linecap="round" stroke-dasharray="4 4"/>
<line x1="80" y1="318" x2="80" y2="84" stroke="#603DEB" stroke-width="2" stroke-linecap="round" stroke-dasharray="4 4"/>
<rect x="41" y="41" width="78" height="78" rx="7" fill="#BFB1F7" stroke="#603DEB" stroke-width="2"/>
<circle cx="80" cy="80" r="9" fill="#603DEB"/>
<rect x="281" y="281" width="78" height="78" rx="7" fill="#BFB1F7" stroke="#603DEB" stroke-width="2"/>
<circle cx="320" cy="320" r="9" fill="#603DEB"/>
<path d="M259.375 183.235V195.312H141.625V183.235H259.375ZM225.999 141.588H246.42V215.037C246.42 223.088 244.517 230.17 240.711 236.282C236.905 242.393 231.58 247.169 224.736 250.609C217.893 254.013 209.896 255.714 200.747 255.714C191.598 255.714 183.601 254.013 176.758 250.609C169.914 247.169 164.589 242.393 160.783 236.282C157.014 230.17 155.129 223.088 155.129 215.037V141.588H175.495V213.335C175.495 218.02 176.52 222.192 178.569 225.851C180.655 229.511 183.583 232.384 187.353 234.47C191.159 236.519 195.623 237.544 200.747 237.544C205.907 237.544 210.372 236.519 214.141 234.47C217.947 232.384 220.875 229.511 222.925 225.851C224.974 222.192 225.999 218.02 225.999 213.335V141.588Z" fill="#020207"/>
<path d="M264.646 282.182C267.358 280.052 272.509 275.115 272.967 272.871C273.993 263.421 272.38 253.88 272.47 244.398C272.478 243.609 272.757 233.791 272.823 233.67C272.902 233.524 283.649 232.113 284.542 232.027C286.065 231.882 287.711 231.62 289.186 231.183C289.757 231.013 291.473 230.002 291.544 230.189C293.745 235.943 290.596 249.004 289.975 255.085C289.924 255.581 288.92 264.494 288.949 264.536C289.064 264.7 290.754 261.373 290.81 261.27C291.895 259.268 292.705 257.167 293.696 255.104C296.187 249.917 299.113 245.116 301.988 240.136C303.002 238.381 302.941 235.585 304.333 234.13C304.674 233.773 313.953 238.522 314.908 238.964C316.456 239.68 319.81 240.695 319.816 240.991C319.85 242.493 317.272 245.322 316.519 246.571C312.922 252.546 308.682 257.641 304.14 262.868C302.223 265.073 299.784 267.216 298.193 269.646C298.046 269.869 297.659 270.13 297.812 270.349C298.022 270.65 303.809 267.618 304.243 267.381C310.394 264.026 317.311 263.273 324.004 261.644C324.379 261.552 328.865 259.693 329.072 259.847C329.143 259.898 332.579 269.271 332.925 270.036C333.047 270.305 336.585 275.263 336.469 275.418C335.913 276.168 331.16 275.962 330.332 275.997C324.131 276.264 318.063 277.642 311.874 277.985C309.133 278.136 306.482 278.589 303.759 278.855C302.358 278.992 299.54 278.748 299.54 278.748C299.54 278.748 300.491 279.143 300.989 279.263C302.96 279.733 305.086 280.414 306.938 281.217C311.563 283.225 316.036 285.63 320.721 287.52C321.56 287.858 329.327 291.147 329.158 292.101C328.776 294.275 325.505 297.382 324.103 298.91C322.159 301.034 318.125 305.711 316.105 307.123C315.576 307.493 314.033 305.293 313.777 305.039C312.446 303.721 310.63 302.63 309.133 301.517C303.239 297.134 297.078 292.489 290.5 289.216C289.038 288.488 286.81 286.12 285.315 285.854C285.202 285.834 278.6 291.377 278.254 291.665C271.625 297.173 265.505 302.979 258.433 307.924C255.603 309.902 252.675 311.73 249.834 313.717C249.759 313.769 249.218 314.245 248.999 314.083C247.888 313.256 247.743 310.051 247.095 308.863C245.44 305.83 243.839 303.231 241.456 300.797C241.358 300.698 240.96 300.199 241.09 299.961C242.291 297.743 246.728 296.048 248.604 294.489C253.801 290.171 259.328 286.358 264.646 282.182Z" fill="#D8F177"/>
<path fill-rule="evenodd" clip-rule="evenodd" d="M88.2955 132.889C88.4446 131.96 88.7853 130.74 88.8498 130.451C89.0439 129.579 89.2113 128.701 89.4325 127.834C89.6837 126.851 89.9932 125.883 90.2663 124.905C91.1785 121.636 92.4276 118.56 93.3945 115.337C96.0039 106.638 102.574 93.6608 110.113 87.8896C115.201 83.9948 125.983 85.6941 128.732 91.7812C130.427 95.5333 127.79 99.5706 125.438 102.502C124.602 103.544 123.765 104.586 122.929 105.628C122.762 105.837 122.427 106.254 122.427 106.254C122.427 106.254 123.94 104.368 124.698 103.424C125.902 101.924 127.174 100.576 128.798 99.6468C132.754 97.3836 139.072 100.288 140.982 103.925C144.216 110.083 140.716 115.598 136.733 120.561C129.107 130.064 115.909 138.424 104.268 141.797C98.324 143.519 93.5451 143.215 88.7644 139.378C87.324 138.222 88.1082 134.055 88.2955 132.889Z" fill="#F19077"/>
</svg>
