<svg width="241" height="320" viewBox="0 0 241 320" fill="none" xmlns="http://www.w3.org/2000/svg">
<path d="M51.1198 106.064C51.062 106.181 51.1589 98.9224 51.5932 97.0829C52.9073 91.508 54.7526 86.046 56.3302 80.5361C60.7806 64.9872 63.3306 47.0348 71.4873 32.7918C89.2605 1.74596 119.883 -4.03719 152.247 7.49869C160.811 10.5529 173.148 12.8046 179.482 20.0281C205.107 49.2561 191.501 89.9419 186.585 124.263C178.904 177.938 182.781 231.145 152.01 278.607C141.247 295.206 125.724 309.041 106.064 314.534C67.1925 325.397 26.1667 298.985 13.4638 262.533C6.73248 243.223 7.77968 220.082 7.77968 199.899C7.77968 183.353 7.79924 167.539 12.0428 151.443C13.0435 147.647 14.9162 138.459 18.6737 136.315C41.2382 123.448 69.8741 131.482 93.9861 133.244C108.842 134.328 123.907 134.216 138.747 133.009C150.353 132.064 163.98 129.5 175.457 132.771C181.564 134.515 186.707 140.983 192.506 143.882C202.278 148.758 231.381 161.964 233.007 174.133C234.776 187.392 225.999 204.342 223.295 217.392C219.266 236.832 215.093 261.011 205.06 278.373C192.51 300.078 165.684 315.631 140.405 309.809C119.413 304.972 102.452 290.225 85.4604 277.661C78.6677 272.642 69.948 267.145 68.1714 258.282C65.9179 247.032 73.7699 236.407 75.9869 225.9C78.0348 216.19 56.1624 200.659 79.3024 195.409C88.9506 193.218 115.141 196.424 106.775 212.424C103.631 218.437 94.2152 219.006 93.5123 226.372C93.0689 231.019 99.652 258.06 97.0647 260.646C95.608 262.099 92.4056 262.755 90.6703 263.718" stroke="#494E53" stroke-width="4" stroke-miterlimit="10" stroke-linecap="round" stroke-linejoin="round"/>
<path d="M208.611 149.731C208.611 140.416 213.045 128.581 214.827 119.102C218.274 100.755 221.622 47.8257 208.611 32.2421C195.8 16.9014 159.364 8.99246 140.232 6.26359C134.113 5.39157 123.95 3.05318 118.475 7.42632C93.759 27.1618 78.4819 63.0667 74.5721 94.2817C73.8671 99.9129 70.6868 104.933 70.6868 110.568" stroke="#494E53" stroke-width="4" stroke-miterlimit="10" stroke-linecap="round" stroke-linejoin="round"/>
<path d="M2 173.485C7.97671 170.5 15.3162 170.804 21.815 169.993C42.2733 167.442 61.8975 163.849 82.8127 163.016C110.995 161.888 140.052 152.418 167.9 157.975C177.151 159.819 200.19 179.615 208.306 185.502C216.952 191.78 234.11 201.728 239 211.485" stroke="#494E53" stroke-width="4" stroke-miterlimit="10" stroke-linecap="round" stroke-linejoin="round"/>
</svg>
