<svg width="457" height="289" viewBox="0 0 457 289" fill="none" xmlns="http://www.w3.org/2000/svg">
<path d="M135.472 48.8719C132.029 47.1484 128.947 48.0966 125.672 49.1896C110.197 54.3556 122.832 65.3228 120.934 74.8233C120.272 78.135 111.135 77.3549 111.135 77.3549C111.135 77.3549 114.927 80.3116 113.663 81.1523C109.656 83.8288 101.685 79.5409 98.1781 83.0534C96.3358 84.8984 102.105 86.5752 103.551 88.7472C107.8 95.1323 115.775 98.6868 121.564 91.5964C122.044 91.0079 126.559 83.8101 125.672 83.371C123.555 82.3061 112.319 83.6793 109.241 83.371C106.97 83.1421 104.866 83.2402 102.604 82.7358C101.877 82.5723 100.394 81.6755 100.394 82.4181C100.394 83.5485 107.707 87.0984 108.607 87.4814C113.033 89.3824 125.63 91.5264 126.936 83.684C127.118 82.5957 125.994 71.6611 124.726 71.6611C123.835 71.6611 124.838 74.5898 125.043 75.1409C125.766 77.0747 129.18 78.7141 129.464 79.5689C130.551 82.8385 117.142 95.8889 117.142 96.0291C117.142 98.925 120.617 102.989 115.878 104.89C115.122 105.193 114.465 105.324 113.663 105.525C113.243 105.628 112.828 105.768 112.399 105.838C103.556 107.319 96.3312 99.9479 91.2288 93.8151C87.8101 89.7094 83.8596 86.337 81.4297 81.47C73.5148 65.6217 79.3681 26.9842 98.1781 20.7018C102.651 19.2118 107.763 20.4029 112.399 20.0713C117.59 19.6976 123.322 17.7732 128.2 20.7018C132.389 23.2195 132.561 29.2449 134.837 33.047C146.581 52.6507 141.19 84.6042 124.726 101.092" stroke="#494E53" stroke-width="3" stroke-miterlimit="10" stroke-linecap="round" stroke-linejoin="round"/>
<path d="M92.7814 48.127C93.0986 48.127 93.4157 48.127 93.7329 48.127C94.9269 48.127 113.881 51.5273 110.799 56.6747C108.504 60.5001 93.4763 51.6815 91.8346 58.2581C91.3215 60.3039 101.34 60.2572 102.263 60.1545C111.951 59.0755 111.022 61.9247 106.69 70.5986" stroke="#494E53" stroke-width="3" stroke-miterlimit="10" stroke-linecap="round" stroke-linejoin="round"/>
<path d="M106.401 73.4968V74.1321V75.0803L107.035 76.0285L107.665 76.3461" stroke="#494E53" stroke-width="3" stroke-miterlimit="10" stroke-linecap="round" stroke-linejoin="round"/>
<path d="M125.592 58.237C127.481 58.237 128.713 57.8306 130.653 57.6017C145.424 55.8642 114.445 59.8157 131.917 59.8157" stroke="#494E53" stroke-width="3" stroke-miterlimit="10" stroke-linecap="round" stroke-linejoin="round"/>
<path d="M134.982 23.733C134.982 18.9687 136.754 12.5696 133.4 8.54328C131.507 6.26389 126.81 6.65161 124.236 6.0117C108.705 2.12086 74.8065 7.95012 72.7264 28.7962C71.9568 36.5079 75.8139 43.687 74.9371 51.5854C73.4959 64.5611 75.4362 75.6264 75.8839 88.6114C76.9939 120.803 78.5144 152.934 79.3632 185.144C79.6524 196.126 83.934 230.485 72.7264 236.099" stroke="#494E53" stroke-width="3" stroke-miterlimit="10" stroke-linecap="round" stroke-linejoin="round"/>
<path d="M123.71 4.46907C120.954 0.330676 112.003 2.48397 108.221 3.20328C94.821 5.73957 79.6117 15.0486 70.2977 25.0396C59.897 36.203 59.5891 59.861 58.605 74.0978C56.5482 103.996 48.7499 132.834 47.5466 163.031C47.0756 174.769 46.9356 185.811 50.0745 197.213C51.0679 200.814 52.3272 204.331 53.232 207.97C53.2647 208.101 54.7711 214.033 54.8131 213.986C57.2757 211.52 54.2675 207.026 54.1835 203.542C53.8897 191.608 54.5006 179.697 54.5006 167.777C54.5006 139.733 56.7253 112.59 60.186 84.8548C61.3101 75.8447 60.937 66.4936 63.3483 57.6376C64.2391 54.3587 73.4086 27.5712 75.9878 27.5712C77.7275 27.5712 75.0363 30.9249 74.7238 32.6344C74.3227 34.8391 74.0755 37.0625 73.777 39.2811C73.0121 44.9282 73.1474 45.2178 72.8302 50.991C72.07 64.6486 71.8788 78.4557 71.8788 92.1367C71.8788 108.602 73.264 124.777 73.777 141.19C74.5279 165.241 75.3581 189.277 75.3581 213.351" stroke="#494E53" stroke-width="3" stroke-miterlimit="10" stroke-linecap="round" stroke-linejoin="round"/>
<path d="M134.197 16.7991C132.7 17.5511 142.163 29.4058 143.044 31.0406C147.018 38.4392 149.411 47.384 149.681 55.7308C150.19 71.5324 146.351 84.3679 145.255 99.7211C144.112 115.775 147.61 132.025 147.153 148.144C146.734 162.806 145.432 177.93 143.361 192.452C142.405 199.145 139.313 215.11 134.509 200.682" stroke="#494E53" stroke-width="3" stroke-miterlimit="10" stroke-linecap="round" stroke-linejoin="round"/>
<path d="M131.543 94.3159C131.193 93.2696 122.896 105.792 121.426 108.245C117.425 114.924 110.988 126.886 114.16 135.144C125.134 163.725 128.38 196.631 128.38 227.244" stroke="#494E53" stroke-width="3" stroke-miterlimit="10" stroke-linecap="round" stroke-linejoin="round"/>
<path d="M81.1189 93.4852C80.0368 103.266 96.5661 129.194 108.93 126.718C116.934 125.112 122.237 118.731 125.679 111.842C125.987 111.23 129.592 103.06 128.841 104.56" stroke="#494E53" stroke-width="3" stroke-miterlimit="10" stroke-linecap="round" stroke-linejoin="round"/>
<path d="M56.8926 96.1759C42.1123 107.274 22.2483 117.9 12.3326 134.155C9.83733 138.242 8.2189 142.875 6.01282 147.13C4.74887 149.564 0.112941 154.725 2.85072 154.725" stroke="#494E53" stroke-width="3" stroke-miterlimit="10" stroke-linecap="round" stroke-linejoin="round"/>
<path d="M149.817 79.4549C145.279 80.9729 155.003 94.3597 156.771 96.2327C168.944 109.143 188.057 129.204 188.057 147.818" stroke="#494E53" stroke-width="3" stroke-miterlimit="10" stroke-linecap="round" stroke-linejoin="round"/>
<path d="M153.317 118.663C152.23 119.023 161.395 123.399 163.429 124.357C169.991 127.449 173.284 131.396 177.654 137.019C190.069 153.003 202.457 182.752 195.666 203.164" stroke="#494E53" stroke-width="3" stroke-miterlimit="10" stroke-linecap="round" stroke-linejoin="round"/>
<path d="M80.5736 102.326C78.1483 116.923 92.3736 125.246 103.964 128.913C108.119 130.225 117.923 131.332 120.395 126.381" stroke="#494E53" stroke-width="3" stroke-miterlimit="10" stroke-linecap="round" stroke-linejoin="round"/>
<path d="M117.869 151.968C119.828 147.069 111.988 161.347 110.285 163.678C104.516 171.6 98.0563 179.508 93.2197 188.051C91.7552 190.638 88.6397 199.041 89.7451 196.276C93.8634 185.963 100.664 177.672 108.075 169.377" stroke="#494E53" stroke-width="3" stroke-miterlimit="10" stroke-linecap="round" stroke-linejoin="round"/>
<path d="M232.579 63.6267C232.579 60.3758 229.878 69.4279 229.417 70.5863C227.467 75.4674 224.827 79.2415 225.625 84.8278C226.185 88.7514 228.013 93.5343 227.519 97.4906C226.963 101.965 221.348 108.22 222.463 112.68C223.629 117.342 232.15 113.091 233.526 115.847C235.48 119.757 233.47 122.914 238.264 125.656C240.288 126.814 254.504 123.152 254.066 125.338C253.324 129.066 241.744 130.159 241.744 131.672C241.744 134.096 258.296 124.74 254.7 121.859C250.764 118.71 237.373 124.502 234.79 119.327C233.745 117.234 239.454 119.794 241.744 120.275C243.721 120.695 253.525 121.036 254.066 123.76C254.999 128.416 241.968 134.923 239.528 131.672C239.076 131.065 239.696 127.557 240.48 127.557C242.481 127.557 239.267 131.775 240.163 133.568C241.007 135.264 242.126 134.274 243.008 135.152C244.654 136.805 242.616 142.677 245.536 145.596C254.234 154.312 282.82 130.729 288.832 124.708" stroke="#494E53" stroke-width="3" stroke-miterlimit="10" stroke-linecap="round" stroke-linejoin="round"/>
<path d="M297.758 104.555C295.468 107.087 294.642 115.196 300.286 112.155C307.132 108.46 322.743 91.1919 313.242 83.0366C309.059 79.4447 301.344 83.0786 299.022 87.1516C298.835 87.4739 296.023 93.1116 296.176 93.163C298.569 93.9617 304.143 87.8849 307.869 88.4174C312.393 89.062 305.052 99.464 300.92 98.5439C298.331 97.9693 301.279 95.0641 302.496 95.0641C308.28 95.0641 298.565 103.663 297.758 104.555Z" stroke="#494E53" stroke-width="3" stroke-miterlimit="10" stroke-linecap="round" stroke-linejoin="round"/>
<path d="M234.658 86.7342C241.071 88.8734 249.116 85.2301 255.833 89.2658C256.084 89.4199 256.597 89.6301 256.462 89.901C256.131 90.5596 254.979 90.0224 254.251 89.901C249.382 89.0883 242.316 81.4234 236.869 85.786C229.42 91.7554 242.409 95.7583 245.716 96.8606C247.395 97.4211 249.088 97.8835 250.777 98.444C251.504 98.6869 253.752 99.0793 252.988 99.0793C245.959 99.0793 228.539 98.1264 247.932 98.1264" stroke="#494E53" stroke-width="3" stroke-miterlimit="10" stroke-linecap="round" stroke-linejoin="round"/>
<path d="M226.923 82.7222C230.029 86.87 228.816 88.9111 228.816 92.5357" stroke="#494E53" stroke-width="3" stroke-miterlimit="10" stroke-linecap="round" stroke-linejoin="round"/>
<path d="M235.571 112.972C231.327 112.972 232.959 111.861 236.835 112.972C237.796 113.248 239.68 114.92 239.68 113.921C239.68 111.24 234.112 107.863 235.254 104.425C235.837 102.678 237.106 107.62 238.099 109.175C238.971 110.53 239.736 111.95 240.627 113.29C243.645 117.821 250.468 121.245 254.535 125.313" stroke="#494E53" stroke-width="3" stroke-miterlimit="10" stroke-linecap="round" stroke-linejoin="round"/>
<path d="M254.361 146.01C259.706 143.334 274.267 143.156 279.328 148.224C281.818 150.718 279.724 154.633 282.173 157.085C295.181 170.117 302.298 175.044 316.934 164.049C317.712 163.465 317.47 162.167 317.568 161.2C317.964 157.239 314.928 153.082 314.406 149.172C313.678 143.684 314.224 137.257 314.723 131.769C315.483 123.394 318.809 116.332 316.621 108.662C316.416 107.947 317.05 106.448 316.304 106.448C315.045 106.448 314.448 112.165 311.878 110.881C307.223 108.545 322.027 98.5541 324.205 94.738C330.949 82.9161 341.401 45.1334 333.687 33.97C330.487 29.3458 322.101 21.5407 315.987 22.26C312.419 22.6804 313.044 24.7964 311.878 27.3233C311.463 28.2295 310.539 30.8218 310.297 29.8549C309.616 27.1131 311.3 23.6286 309.984 20.9943C306.113 13.2453 294.346 17.8227 288.175 15.6134C284.78 14.399 285.549 9.35909 281.538 8.01855C272.029 4.84235 267.962 14.4504 260.681 16.8792C255.807 18.5094 250.061 16.314 244.879 18.4626C239.907 20.5225 237.538 27.1739 233.504 28.9067C231.293 29.8549 228.76 27.8651 226.55 29.8549C222.553 33.4608 216.634 65.2835 222.445 66.2551C228.383 67.2453 235.108 57.3897 242.039 57.3897C247.333 57.3897 251.493 65.0266 254.678 64.6716C258.633 64.2326 263.736 59.543 267.001 64.0364C270.242 68.4971 266.273 75.1343 271.11 78.5955C276.483 82.4396 278.894 75.8771 283.437 77.0121C285.997 77.6567 283.446 85.6298 285.965 87.1432C288.978 88.9508 295.143 79.6511 298.921 79.2308C302.405 78.8431 300.843 82.8273 303.347 83.6587C306.603 84.7471 312.265 81.8604 315.04 84.294C320.959 89.4786 314.476 97.349 315.987 102.65C316.892 105.822 320.917 104.36 322.624 105.5C323.519 106.093 321.817 107.602 321.989 108.662C322.745 113.193 324.042 117.826 325.152 122.273C329.797 140.872 339.689 161.382 339.689 180.822C339.689 188.445 334.293 186.054 329.261 190.636C328.5 191.327 326.112 198.394 325.152 197.913C324.685 197.679 323.771 183.569 323.57 182.406C321.719 171.588 315.04 158.257 315.04 147.594C315.04 145.184 317.232 151.919 317.885 154.236C318.599 156.805 319.816 160.85 320.413 163.414C321.817 169.444 327.493 187.829 323.253 193.485C322.759 194.148 318.23 191.612 316.934 191.902C313.384 192.691 309.863 208.315 310.931 211.524C311.258 212.51 311.645 209.558 312.195 208.675C313.482 206.615 314.737 204.518 316.304 202.663C319.065 199.384 325.142 195.059 325.152 195.064C325.548 195.466 324.373 197.049 324.205 197.282C319.933 203.163 310.217 213.14 310.931 221.02C312.33 236.415 319.657 249.886 326.416 263.427C328.654 267.911 332.805 270.811 335.263 274.506C335.562 274.954 335.203 276.468 335.58 276.089C336.798 274.87 331.303 246.331 330.525 242.856C328.281 232.879 325.749 221.295 328.626 211.206C330.249 205.527 338.743 198.436 338.743 192.532C338.743 184.722 338.691 176.497 339.055 168.482C339.689 154.572 339.074 141.307 334.634 127.971C333.449 124.417 330.804 121.521 328.626 118.475C327.39 116.738 327.372 110.549 326.416 112.459C322.143 121.021 344.517 126.878 348.854 127.654C355.911 128.915 367.09 126.944 372.874 131.769C382.118 139.485 376.106 146.323 390.886 151.704C400.466 155.193 421.067 158.668 424.066 170.696C424.36 171.873 410.858 174.82 408.899 176.394C405.102 179.435 401.669 192.817 400.681 197.595C399.263 204.471 396.283 222.795 400.368 228.928C400.555 229.213 401.32 225.91 403.209 228.615C411.035 239.811 417.429 256.794 414.901 270.709C414.122 275.006 400.34 275.58 398.153 276.72C382.365 284.969 392.467 293.904 392.467 278.934" stroke="#494E53" stroke-width="3" stroke-miterlimit="10" stroke-linecap="round" stroke-linejoin="round"/>
<path d="M420.869 165.174C417.977 170.961 428.532 177.856 430.98 180.682C439.963 191.051 455 207.913 455 222.145" stroke="#494E53" stroke-width="3" stroke-miterlimit="10" stroke-linecap="round" stroke-linejoin="round"/>
<path d="M238.139 128.517C238.139 127.588 224.604 139.237 222.006 142.88C220.001 145.692 221.377 155.847 221.111 159.037C219.25 181.387 212.823 201.364 215.136 223.962C215.425 226.783 215.267 240.805 217.823 242.515C218.942 243.257 218.387 236.12 218.42 235.63C218.998 227.759 219.627 223.85 220.812 215.886C223.121 200.332 225.299 185.236 225.593 169.509C225.695 163.885 223.83 155.65 225.593 150.358C225.775 149.807 226.246 151.325 226.488 151.853C226.997 152.96 229.399 159.345 229.473 159.635C230.224 162.391 230.765 165.202 231.269 168.014C231.763 170.789 232.188 173.582 232.463 176.389C232.831 180.173 232.836 183.993 233.358 187.758C234.599 196.693 235.765 205.797 237.243 214.686" stroke="#494E53" stroke-width="3" stroke-miterlimit="10" stroke-linecap="round" stroke-linejoin="round"/>
<path d="M268.173 148.287C265.099 154.438 263.635 160.991 259.507 166.835C254.61 173.771 248.509 172.837 252.637 180.899C256.084 187.634 259.479 195.757 263.989 201.843C264.516 202.553 269.134 206.883 270.262 208.125C270.505 208.391 271.116 209.279 270.859 209.022C264.442 202.595 263.616 191.609 259.507 183.893C258.533 182.062 246.821 168.315 246.961 168.035C248.244 165.457 253.295 172.164 255.324 170.128C256.97 168.479 250.59 169.847 248.454 168.932C244.186 167.096 241.887 162.351 237.997 160.552C236.985 160.085 235.208 160.954 234.709 159.954C233.076 156.685 250.179 146.059 252.936 144.994" stroke="#494E53" stroke-width="3" stroke-miterlimit="10" stroke-linecap="round" stroke-linejoin="round"/>
<path d="M94.9871 58.4043C96.3537 57.7223 107.608 57.0311 108.667 58.0914C109.198 58.6285 107.235 58.5911 106.489 58.7172C103.536 59.2077 100.477 59.147 97.4731 59.6514C96.6335 59.7915 94.3854 59.6654 94.9871 60.2726C96.5076 61.7953 106.745 60.2726 108.667 60.2726" stroke="#494E53" stroke-width="3" stroke-miterlimit="10" stroke-linecap="round" stroke-linejoin="round"/>
<path d="M94.1185 48.3192C96.6744 48.3192 98.8384 50.1502 101.268 51.1217C111.105 55.0639 111.217 54.8584 109.039 65.7555" stroke="#494E53" stroke-width="3" stroke-miterlimit="10" stroke-linecap="round" stroke-linejoin="round"/>
<path d="M124.739 60.2263C117.687 57.0828 129.436 59.2922 132.514 59.2922C133.582 59.2922 137.565 57.7368 136.866 57.7368C132.202 57.7368 130.052 62.5945 124.739 60.2263Z" stroke="#494E53" stroke-width="3" stroke-miterlimit="10" stroke-linecap="round" stroke-linejoin="round"/>
<path d="M110.239 104.637C113.667 106.351 129.511 103.736 129.511 98.0979C129.511 98.0979 121.377 105.029 123.294 102.148" stroke="#494E53" stroke-width="3" stroke-miterlimit="10" stroke-linecap="round" stroke-linejoin="round"/>
</svg>
