<svg width="96" height="96" viewBox="0 0 96 96" xmlns="http://www.w3.org/2000/svg">
<path fill-rule="evenodd" clip-rule="evenodd" d="M95.3157 84.437L53.0123 5.66255C52.0036 3.78543 50.1321 2.66675 48.0009 2.66675C45.8697 2.66675 43.9983 3.78733 42.9896 5.66445L0.684288 84.437C-0.271336 86.2156 -0.223933 88.3146 0.813221 90.0475C1.85037 91.7806 3.6744 92.8158 5.69563 92.8158H90.3044C92.3237 92.8158 94.1496 91.7806 95.1868 90.0475C96.2239 88.3126 96.2713 86.2156 95.3157 84.437ZM46.5131 7.55788L4.20824 86.3297L4.20785 86.3304C3.91787 86.8701 3.93212 87.4698 4.24551 87.9934C4.56081 88.5203 5.08204 88.8158 5.69563 88.8158H90.3044C90.9168 88.8158 91.4396 88.5197 91.7545 87.9934C92.0687 87.4667 92.0815 86.8688 91.7921 86.3304L91.7917 86.3296L49.4888 7.55597C49.1773 6.97644 48.6597 6.66675 48.0009 6.66675C47.3451 6.66675 46.8263 6.9758 46.5136 7.55701L46.5131 7.55788ZM45.9369 47.8469L43.5125 38.2651C43.0609 36.8226 43.3157 35.2975 44.2117 34.0781C45.1079 32.8587 46.4889 32.1611 48 32.1611C49.5111 32.1611 50.8921 32.8605 51.7883 34.0781C52.6844 35.2957 52.9391 36.8226 52.4876 38.2651L50.0631 47.8469L48 56.0001L45.9369 47.8469ZM56.3421 39.3382C57.122 36.7154 56.636 33.9169 55.0099 31.7071C53.3612 29.4669 50.7849 28.1611 48 28.1611C45.2177 28.1611 42.6392 29.4631 40.9885 31.7094C39.3649 33.9187 38.8776 36.7142 39.6579 39.3382L44.1223 56.9813C44.5715 58.7566 46.1688 60.0001 48 60.0001C49.8312 60.0001 51.4285 58.7566 51.8777 56.9813L56.3421 39.3382ZM48 64.6357C43.8528 64.6357 40.4859 68.0026 40.4859 72.1498C40.4859 76.297 43.8528 79.6639 48 79.6639C52.1472 79.6639 55.5141 76.297 55.5141 72.1498C55.5141 68.0026 52.1472 64.6357 48 64.6357ZM48 68.6357C46.062 68.6357 44.4859 70.2118 44.4859 72.1498C44.4859 74.0878 46.062 75.6639 48 75.6639C49.938 75.6639 51.5141 74.0878 51.5141 72.1498C51.5141 70.2118 49.938 68.6357 48 68.6357Z"/>
</svg>
