<svg width="32" height="32" viewBox="0 0 32 32" fill="none" xmlns="http://www.w3.org/2000/svg">
<path d="M16 4.79999C9.80978 4.79999 4.80005 9.80972 4.80005 16C4.80005 22.1903 9.80978 27.2 16 27.2C22.1903 27.2 27.2001 22.1903 27.2001 16C27.2001 9.80972 22.1903 4.79999 16 4.79999ZM16 22.5535C12.3828 22.5535 9.44654 19.6173 9.44654 16C9.44654 12.3827 12.3828 9.44647 16 9.44647C19.6173 9.44647 22.5536 12.3827 22.5536 16C22.5536 19.6173 19.6173 22.5535 16 22.5535Z" fill="url(#paint0_linear_535_1673)"/>
<path d="M17.5895 18.1036H14.4111C14.1386 18.1036 13.9116 17.8766 13.9116 17.6042V14.4107C13.9116 14.1382 14.1386 13.9112 14.4111 13.9112H17.6046C17.877 13.9112 18.1041 14.1382 18.1041 14.4107V17.6042C18.1041 17.8766 17.877 18.1036 17.5895 18.1036Z" fill="#2059EB"/>
<defs>
<linearGradient id="paint0_linear_535_1673" x1="16" y1="27.2" x2="16" y2="4.79999" gradientUnits="userSpaceOnUse">
<stop stop-color="#1447EA"/>
<stop offset="1" stop-color="#2B65FB"/>
</linearGradient>
</defs>
</svg>