<svg width="24" height="24" xmlns="http://www.w3.org/2000/svg">
	<path fill-rule="evenodd" clip-rule="evenodd" d="M16.3702 18.4655C16.9871 19.2264 17.7275 20.1107 17.7275 20.1107C22.0334 19.9743 23.8105 17.309 23.9855 17.0465C23.9952 17.032 24 17.0248 24 17.0259C24 10.4655 21.0386 5.13899 21.0386 5.13899C18.0977 2.93848 15.2802 3.00017 15.2802 3.00017L14.9923 3.32922C18.4884 4.37807 20.1131 5.92048 20.1131 5.92048C17.9743 4.76881 15.8766 4.19298 13.9229 3.96676C12.4422 3.80223 11.0231 3.84336 9.76864 4.00789C9.66092 4.00789 9.56888 4.02356 9.46514 4.04122C9.45005 4.04379 9.4347 4.04641 9.41902 4.04902C8.69923 4.13128 6.95116 4.37807 4.75064 5.34465C3.98972 5.6737 3.53728 5.92048 3.53728 5.92048C3.53728 5.92048 5.22365 4.2958 8.92545 3.24696L8.7198 3.00017C8.7198 3.00017 5.92288 2.93848 2.96144 5.13899C2.96144 5.13899 0 10.4655 0 17.0259C0 17.0259 1.72751 19.9873 6.27249 20.1313C6.27249 20.1313 7.03342 19.2264 7.65039 18.4449C5.03856 17.6634 4.05141 16.0387 4.05141 16.0387C4.05141 16.0387 4.25707 16.1827 4.62725 16.3884C4.63996 16.3884 4.65267 16.3962 4.67024 16.4071C4.68109 16.4138 4.6938 16.4216 4.70951 16.4295C4.74036 16.45 4.77121 16.4655 4.80206 16.4809C4.83291 16.4963 4.86375 16.5117 4.8946 16.5323C5.40874 16.8202 5.92288 17.0464 6.39589 17.2315C7.23907 17.5812 8.24679 17.8896 9.41902 18.1159C10.9614 18.4038 12.7712 18.5066 14.7455 18.1364C15.7121 17.9513 16.6992 17.684 17.7275 17.2521C18.4473 16.9848 19.2494 16.594 20.0925 16.0387C20.0925 16.0387 19.0643 17.7045 16.3702 18.4655ZM13.5733 12.8511C13.5733 11.5966 14.4987 10.5889 15.671 10.5889C16.8226 10.5889 17.7687 11.5966 17.7687 12.8511C17.7687 14.1056 16.8432 15.1133 15.671 15.1133C14.5193 15.1133 13.5733 14.1056 13.5733 12.8511ZM6.06685 12.8511C6.06685 11.5966 6.9923 10.5889 8.16454 10.5889C9.33677 10.5889 10.2828 11.5966 10.2622 12.8511C10.2622 14.1056 9.33677 15.1133 8.16454 15.1133C7.01287 15.1133 6.06685 14.1056 6.06685 12.8511Z"/>
</svg>
