<svg width="24" height="24" xmlns="http://www.w3.org/2000/svg">
	<path fill-rule="evenodd" clip-rule="evenodd" d="M16.7059 14.2941C16.173 14.2941 15.6838 14.1134 15.2941 13.8085V14.9771C15.722 15.1804 16.2007 15.2941 16.7059 15.2941C17.6034 15.2941 18.4172 14.9351 19.0113 14.3529H19.0588V14.3054C19.641 13.7113 20 12.8976 20 12C20 11.1024 19.641 10.2887 19.0588 9.6946V9.64706H19.0113C18.751 9.39199 18.4486 9.17977 18.1154 9.02181C18.0336 6.23447 15.7483 4 12.9412 4C10.5699 4 8.57109 5.59438 7.95818 7.76959C7.8941 7.76635 7.82959 7.76471 7.76471 7.76471C5.68552 7.76471 4 9.45022 4 11.5294C4 13.6086 5.68552 15.2941 7.76471 15.2941C8.08969 15.2941 8.40506 15.2529 8.70588 15.1755V14.1301C8.41231 14.2363 8.09553 14.2941 7.76471 14.2941C6.2378 14.2941 5 13.0563 5 11.5294C5 10.0025 6.2378 8.76471 7.76471 8.76471C7.81272 8.76471 7.86037 8.76592 7.90762 8.76831C8.3737 8.79191 8.79413 8.48999 8.9207 8.0408C9.41535 6.28529 11.0295 5 12.9412 5C15.2059 5 17.0498 6.80283 17.1158 9.05114C17.1268 9.42672 17.3475 9.76443 17.687 9.9254C17.9186 10.0352 18.1295 10.1831 18.3114 10.3613L18.3283 10.3775L18.3446 10.3945C18.751 10.8093 19 11.3746 19 12C19 12.6254 18.751 13.1907 18.3446 13.6055L18.3283 13.6225L18.3114 13.6387C17.8966 14.0452 17.3313 14.2941 16.7059 14.2941ZM11.6204 20.3254C11.7154 20.4362 11.854 20.5 12 20.5C12.146 20.5 12.2846 20.4362 12.3796 20.3254L14.3796 17.9921C14.5593 17.7824 14.5351 17.4667 14.3254 17.287C14.1157 17.1073 13.8001 17.1316 13.6204 17.3413L12.5 18.6484L12.5 11C12.5 10.7239 12.2761 10.5 12 10.5C11.7239 10.5 11.5 10.7239 11.5 11L11.5 18.6484L10.3796 17.3413C10.1999 17.1316 9.88427 17.1073 9.6746 17.287C9.46494 17.4667 9.44066 17.7824 9.62037 17.9921L11.6204 20.3254Z"/>
</svg>
