<svg  viewBox="-15 -4 120 120" xmlns="http://www.w3.org/2000/svg">
<path d="M84.6764 47.2393H76.7638V31.6503C76.7638 14.1718 62.592 0 45.1135 0C27.635 0 13.4632 14.1718 13.4632 31.6503V47.2393H5.55063C2.48008 47.2393 0 49.7193 0 52.7899V106.524C0 109.595 2.48008 112.075 5.55063 112.075H84.6764C87.7469 112.075 90.227 109.595 90.227 106.524V52.7899C90.227 49.7193 87.7469 47.2393 84.6764 47.2393ZM51.9632 91.9985C52.4356 93.77 51.0184 95.5414 49.2469 95.5414H40.9801C39.0905 95.5414 37.7914 93.77 38.2638 91.9985L40.862 81.9601C37.7914 80.4249 35.6657 77.2362 35.6657 73.4571C35.6657 68.1426 39.9172 63.8911 45.2316 63.8911C50.546 63.8911 54.7976 68.1426 54.7976 73.4571C54.7976 77.2362 52.6718 80.4249 49.6012 81.9601L51.9632 91.9985ZM60.9387 47.2393H29.2883V31.6503C29.2883 22.911 36.3742 15.8252 45.1135 15.8252C53.8528 15.8252 60.9387 22.911 60.9387 31.6503V47.2393Z" />
</svg>
