<svg width="15" height="14"  xmlns="http://www.w3.org/2000/svg">
<path fill-rule="evenodd" clip-rule="evenodd" d="M9.61331 0C11.5514 0 13.1588 1.55303 13.1588 3.5C13.1588 4.69629 12.5488 5.74509 11.6354 6.37345C13.1032 6.93719 14.274 8.09634 14.8353 9.55666C15.0828 10.2006 14.925 10.8472 14.5511 11.3018C14.1907 11.7401 13.6374 12 13.0476 12H11.9118C11.8935 11.7401 11.8363 11.475 11.7348 11.2105C11.7076 11.1397 11.6792 11.0696 11.6496 11H13.0476C13.6444 11 14.116 10.4725 13.9019 9.91542C13.4058 8.62466 12.3219 7.61472 10.9726 7.20217C10.6276 7.09668 10.3634 6.79525 10.3634 6.43448C10.3634 6.11054 10.5815 5.83392 10.8645 5.67627C11.6364 5.24624 12.1588 4.43153 12.1588 3.5C12.1588 2.12222 11.0161 1 9.61331 1C8.95752 1 8.3586 1.24524 7.90668 1.64719C7.60299 1.46668 7.27632 1.31982 6.93206 1.2119C7.58546 0.46785 8.54958 0 9.61331 0ZM9.08607 5.5C9.08607 3.55303 7.47867 2 5.54062 2C3.60257 2 1.99516 3.55303 1.99516 5.5C1.99516 6.69628 2.60329 7.7437 3.51883 8.3733C2.05022 8.93723 0.879669 10.097 0.31865 11.5566C0.0711551 12.2005 0.228878 12.8471 0.602733 13.3017C0.963172 13.74 1.51644 14 2.10633 14H8.97488C9.5647 14 10.118 13.7401 10.4784 13.3018C10.8523 12.8472 11.0101 12.2006 10.7626 11.5567C10.2013 10.0963 9.0305 8.93719 7.56272 8.37345C8.47615 7.74509 9.08607 6.69629 9.08607 5.5ZM8.08607 5.5C8.08607 4.12222 6.94345 3 5.54062 3C4.13779 3 2.99516 4.12222 2.99516 5.5C2.99516 6.61927 3.74924 7.56989 4.78431 7.88721C5.05531 7.97029 5.27256 8.20164 5.27256 8.48509C5.27256 8.77835 5.04248 9.0171 4.75341 9.06647C3.14192 9.34169 1.81656 10.4467 1.25207 11.9153C1.03796 12.4724 1.50954 13 2.10633 13H8.97488C9.57167 13 10.0433 12.4725 9.82917 11.9154C9.33307 10.6247 8.24921 9.61472 6.89992 9.20217C6.55491 9.09668 6.29074 8.79525 6.29074 8.43448C6.29074 8.11054 6.50885 7.83392 6.79183 7.67627C7.56375 7.24624 8.08607 6.43153 8.08607 5.5Z" />
</svg>
