<svg width="32" height="32" viewBox="0 0 32 32" fill="none" xmlns="http://www.w3.org/2000/svg">
<path d="M25.223 6.0531L17.228 11.9911L18.7065 8.48775L25.223 6.0531Z" fill="#E2761B" stroke="#E2761B" stroke-linecap="round" stroke-linejoin="round"/>
<path d="M6.76782 6.0531L14.6985 12.0473L13.2924 8.48775L6.76782 6.0531Z" fill="#E4761B" stroke="#E4761B" stroke-linecap="round" stroke-linejoin="round"/>
<path d="M22.3478 19.8157L20.2185 23.0779L24.7744 24.3314L26.0842 19.888L22.3478 19.8157Z" fill="#E4761B" stroke="#E4761B" stroke-linecap="round" stroke-linejoin="round"/>
<path d="M5.92407 19.888L7.22577 24.3314L11.7817 23.0779L9.65239 19.8157L5.92407 19.888Z" fill="#E4761B" stroke="#E4761B" stroke-linecap="round" stroke-linejoin="round"/>
<path d="M11.5249 14.3056L10.2554 16.226L14.7791 16.4269L14.6184 11.5656L11.5249 14.3056Z" fill="#E4761B" stroke="#E4761B" stroke-linecap="round" stroke-linejoin="round"/>
<path d="M20.4677 14.3055L17.3339 11.5093L17.2295 16.4267L21.7453 16.2259L20.4677 14.3055Z" fill="#E4761B" stroke="#E4761B" stroke-linecap="round" stroke-linejoin="round"/>
<path d="M11.782 23.0797L14.4979 21.7539L12.1516 19.9219L11.782 23.0797Z" fill="#E4761B" stroke="#E4761B" stroke-linecap="round" stroke-linejoin="round"/>
<path d="M17.4944 21.7539L20.2183 23.0797L19.8406 19.9219L17.4944 21.7539Z" fill="#E4761B" stroke="#E4761B" stroke-linecap="round" stroke-linejoin="round"/>
<path d="M20.2193 23.0789L17.4954 21.7531L17.7123 23.5288L17.6882 24.2761L20.2193 23.0789Z" fill="#D7C1B3" stroke="#D7C1B3" stroke-linecap="round" stroke-linejoin="round"/>
<path d="M11.782 23.0789L14.3131 24.2761L14.297 23.5288L14.4979 21.7531L11.782 23.0789Z" fill="#D7C1B3" stroke="#D7C1B3" stroke-linecap="round" stroke-linejoin="round"/>
<path d="M14.3533 18.7481L12.0874 18.0811L13.6864 17.3499L14.3533 18.7481Z" fill="#233447" stroke="#233447" stroke-linecap="round" stroke-linejoin="round"/>
<path d="M17.6382 18.7481L18.3051 17.3499L19.9121 18.0811L17.6382 18.7481Z" fill="#233447" stroke="#233447" stroke-linecap="round" stroke-linejoin="round"/>
<path d="M11.7817 23.0779L12.1673 19.8157L9.65234 19.888L11.7817 23.0779Z" fill="#CD6116" stroke="#CD6116" stroke-linecap="round" stroke-linejoin="round"/>
<path d="M19.8335 19.8157L20.2192 23.0779L22.3485 19.888L19.8335 19.8157Z" fill="#CD6116" stroke="#CD6116" stroke-linecap="round" stroke-linejoin="round"/>
<path d="M21.7448 16.225L17.229 16.4259L17.6468 18.748L18.3138 17.3499L19.9208 18.0811L21.7448 16.225Z" fill="#CD6116" stroke="#CD6116" stroke-linecap="round" stroke-linejoin="round"/>
<path d="M12.0866 18.0811L13.6937 17.3499L14.3526 18.748L14.7784 16.4259L10.2546 16.225L12.0866 18.0811Z" fill="#CD6116" stroke="#CD6116" stroke-linecap="round" stroke-linejoin="round"/>
<path d="M10.2546 16.225L12.1509 19.9211L12.0866 18.0811L10.2546 16.225Z" fill="#E4751F" stroke="#E4751F" stroke-linecap="round" stroke-linejoin="round"/>
<path d="M19.9202 18.0811L19.8398 19.9211L21.7442 16.225L19.9202 18.0811Z" fill="#E4751F" stroke="#E4751F" stroke-linecap="round" stroke-linejoin="round"/>
<path d="M14.7782 16.425L14.3523 18.7472L14.8826 21.4872L15.0031 17.8794L14.7782 16.425Z" fill="#E4751F" stroke="#E4751F" stroke-linecap="round" stroke-linejoin="round"/>
<path d="M17.2287 16.425L17.0117 17.8714L17.1081 21.4872L17.6465 18.7472L17.2287 16.425Z" fill="#E4751F" stroke="#E4751F" stroke-linecap="round" stroke-linejoin="round"/>
<path d="M17.6477 18.7482L17.1094 21.4882L17.4951 21.7533L19.8413 19.9213L19.9217 18.0813L17.6477 18.7482Z" fill="#F6851B" stroke="#F6851B" stroke-linecap="round" stroke-linejoin="round"/>
<path d="M12.0874 18.0813L12.1517 19.9213L14.4979 21.7533L14.8836 21.4882L14.3533 18.7482L12.0874 18.0813Z" fill="#F6851B" stroke="#F6851B" stroke-linecap="round" stroke-linejoin="round"/>
<path d="M17.6878 24.2784L17.7119 23.5311L17.5111 23.3544H14.4818L14.297 23.5311L14.3131 24.2784L11.782 23.0812L12.6659 23.8043L14.4577 25.0498H17.5352L19.335 23.8043L20.2189 23.0812L17.6878 24.2784Z" fill="#C0AD9E" stroke="#C0AD9E" stroke-linecap="round" stroke-linejoin="round"/>
<path d="M17.4949 21.7558L17.1092 21.4906H14.8834L14.4978 21.7558L14.2969 23.5315L14.4817 23.3548H17.5109L17.7118 23.5315L17.4949 21.7558Z" fill="#161616" stroke="#161616" stroke-linecap="round" stroke-linejoin="round"/>
<path d="M25.5609 12.3768L26.2439 9.09842L25.2235 6.0531L17.4937 11.7902L20.4667 14.3052L24.669 15.5346L25.6011 14.4498L25.1994 14.1606L25.8422 13.574L25.344 13.1883L25.9868 12.6982L25.5609 12.3768Z" fill="#763D16" stroke="#763D16" stroke-linecap="round" stroke-linejoin="round"/>
<path d="M5.75464 9.09842L6.43763 12.3768L6.00373 12.6982L6.64654 13.1883L6.1564 13.574L6.79921 14.1606L6.39745 14.4498L7.32149 15.5346L11.5239 14.3052L14.4969 11.7902L6.76707 6.0531L5.75464 9.09842Z" fill="#763D16" stroke="#763D16" stroke-linecap="round" stroke-linejoin="round"/>
<path d="M24.6697 15.5325L20.4673 14.3031L21.7449 16.2235L19.8406 19.9197L22.3475 19.8875H26.0839L24.6697 15.5325Z" fill="#F6851B" stroke="#F6851B" stroke-linecap="round" stroke-linejoin="round"/>
<path d="M11.5246 14.3031L7.32219 15.5325L5.92407 19.8875H9.65238L12.1513 19.9197L10.255 16.2235L11.5246 14.3031Z" fill="#F6851B" stroke="#F6851B" stroke-linecap="round" stroke-linejoin="round"/>
<path d="M17.2294 16.4262L17.4946 11.7899L18.7159 8.48743H13.2922L14.4975 11.7899L14.7787 16.4262L14.8751 17.8886L14.8832 21.4883H17.1089L17.125 17.8886L17.2294 16.4262Z" fill="#F6851B" stroke="#F6851B" stroke-linecap="round" stroke-linejoin="round"/>
</svg>
