<svg width="18" height="18" viewBox="0 0 18 18" fill="none" xmlns="http://www.w3.org/2000/svg">
<path fill-rule="evenodd" clip-rule="evenodd" d="M5.55586 11.2085C5.6541 11.5032 5.49482 11.8218 5.20011 11.92C4.24609 12.238 3.73903 13.0373 3.46769 13.8513C3.35985 14.1748 3.29473 14.4864 3.25563 14.744C3.51322 14.7049 3.82478 14.6398 4.14829 14.5319C4.96231 14.2606 5.76158 13.7535 6.07958 12.7995C6.17782 12.5048 6.49638 12.3455 6.7911 12.4437C7.08581 12.542 7.24509 12.8605 7.14685 13.1553C6.66936 14.5877 5.47989 15.2739 4.50405 15.5992C4.01108 15.7635 3.54939 15.8446 3.21238 15.8851C3.04305 15.9054 2.90305 15.9157 2.80359 15.9209C2.7538 15.9235 2.71401 15.9249 2.68561 15.9256C2.67141 15.926 2.66004 15.9261 2.65167 15.9262L2.64139 15.9263L2.63798 15.9264L2.63671 15.9264L2.63619 15.9264C2.63596 15.9264 2.63574 15.9264 2.63574 15.3639C2.07324 15.3639 2.07324 15.3636 2.07324 15.3634L2.07324 15.3629L2.07325 15.3616L2.07326 15.3582L2.07336 15.3479C2.07346 15.3396 2.07365 15.3282 2.074 15.314C2.0747 15.2856 2.07606 15.2458 2.07868 15.196C2.08392 15.0966 2.09422 14.9566 2.11454 14.7872C2.15498 14.4502 2.23609 13.9885 2.40042 13.4956C2.7257 12.5197 3.41188 11.3302 4.84435 10.8527C5.13907 10.7545 5.45762 10.9138 5.55586 11.2085ZM2.63574 15.3639H2.07324C2.07324 15.6745 2.32508 15.9264 2.63574 15.9264V15.3639Z" fill="white"/>
<path fill-rule="evenodd" clip-rule="evenodd" d="M14.8919 3.10817C14.2461 3.01219 12.6368 2.97684 10.9891 4.62454L6.61385 8.99976L9.00034 11.3862L13.3756 7.01102C15.0233 5.36333 14.9879 3.75399 14.8919 3.10817ZM15.0597 1.99575C14.1627 1.86193 12.1589 1.86369 10.1936 3.82904L5.42061 8.60202C5.31512 8.7075 5.25586 8.85058 5.25586 8.99976C5.25586 9.14895 5.31512 9.29202 5.42061 9.39751L8.60259 12.5795C8.82226 12.7992 9.17842 12.7992 9.39809 12.5795L14.1711 7.80652C16.1364 5.84117 16.1382 3.83738 16.0044 2.94042M15.0598 1.99576C15.2976 2.03123 15.5178 2.14217 15.6879 2.31223C15.8579 2.48229 15.9689 2.70247 16.0043 2.94035" fill="white"/>
<path fill-rule="evenodd" clip-rule="evenodd" d="M12.9776 7.64209C13.2882 7.64209 13.5401 7.89393 13.5401 8.20459V12.7446C13.5401 12.8923 13.511 13.0386 13.4545 13.1751C13.3979 13.3116 13.315 13.4356 13.2106 13.5401L10.9365 15.8141C10.7926 15.9581 10.6122 16.0603 10.4147 16.1098C10.2172 16.1593 10.0099 16.1543 9.81505 16.0953C9.62016 16.0363 9.44494 15.9255 9.30808 15.7748C9.17121 15.624 9.07784 15.4389 9.0379 15.2392L8.44853 12.2924C8.38761 11.9878 8.58517 11.6914 8.88979 11.6305C9.19442 11.5696 9.49076 11.7671 9.55169 12.0718L10.1411 15.0186L12.4151 12.7446V8.20459C12.4151 7.89393 12.6669 7.64209 12.9776 7.64209Z" fill="white"/>
<path fill-rule="evenodd" clip-rule="evenodd" d="M4.82496 4.5456C4.96145 4.48906 5.10774 4.45996 5.25548 4.45996H9.79545C10.1061 4.45996 10.358 4.7118 10.358 5.02246C10.358 5.33312 10.1061 5.58496 9.79545 5.58496L5.25548 5.58496L2.98145 7.85899L5.92829 8.44836C6.23292 8.50929 6.43048 8.80563 6.36955 9.11025C6.30863 9.41488 6.01229 9.61244 5.70766 9.55151L2.76082 8.96214C2.56115 8.92221 2.37606 8.82883 2.22529 8.69197C2.07452 8.5551 1.96372 8.37989 1.90472 8.185C1.84571 7.99011 1.8407 7.78286 1.89023 7.58535C1.93976 7.38784 2.04197 7.20748 2.18595 7.0635L4.45998 4.78947L4.82548 5.15496L4.45998 4.78947C4.56445 4.685 4.68847 4.60213 4.82496 4.5456Z" fill="white"/>
</svg>
