<svg width="55" height="12" viewBox="0 0 55 12" fill="none" xmlns="http://www.w3.org/2000/svg">
<path d="M12.5228 4.37903V5.64887H0.204102V4.37903H12.5228ZM9.0311 0H11.1675V7.72294C11.1675 8.5695 10.9684 9.31409 10.5702 9.95671C10.172 10.5993 9.61497 11.1015 8.89901 11.4632C8.18305 11.8211 7.34648 12 6.38932 12C5.43215 12 4.59558 11.8211 3.87962 11.4632C3.16366 11.1015 2.60659 10.5993 2.20841 9.95671C1.81406 9.31409 1.61688 8.5695 1.61688 7.72294V0H3.74753V7.54401C3.74753 8.03656 3.85474 8.47523 4.06914 8.86003C4.28738 9.24483 4.59367 9.5469 4.98802 9.76624C5.38621 9.98172 5.8533 10.0895 6.38932 10.0895C6.92916 10.0895 7.39626 9.98172 7.79061 9.76624C8.18879 9.5469 8.49508 9.24483 8.70949 8.86003C8.92389 8.47523 9.0311 8.03656 9.0311 7.54401V0Z" fill="black"/>
<path d="M15.929 6.62626V11.8211H13.85V2.95527H15.8371V4.46176H15.9405C16.1434 3.96537 16.4669 3.57095 16.9111 3.2785C17.359 2.98605 17.9122 2.83983 18.5708 2.83983C19.1795 2.83983 19.7098 2.97066 20.1616 3.23232C20.6172 3.49399 20.9694 3.87302 21.2183 4.36941C21.471 4.8658 21.5954 5.46801 21.5916 6.17605V11.8211H19.5126V6.49928C19.5126 5.90669 19.3595 5.443 19.0532 5.10823C18.7507 4.77345 18.3315 4.60606 17.7955 4.60606C17.4317 4.60606 17.1082 4.68687 16.8249 4.84848C16.5454 5.00625 16.3253 5.23521 16.1645 5.53535C16.0075 5.8355 15.929 6.19913 15.929 6.62626Z" fill="black"/>
<path d="M25.615 0V11.8211H23.536V0H25.615Z" fill="black"/>
<path d="M31.4316 11.9942C30.5702 11.9942 29.8236 11.8038 29.1918 11.4228C28.5601 11.0418 28.07 10.5089 27.7216 9.82395C27.377 9.13901 27.2048 8.33862 27.2048 7.4228C27.2048 6.50698 27.377 5.70467 27.7216 5.01587C28.07 4.32708 28.5601 3.79221 29.1918 3.41126C29.8236 3.0303 30.5702 2.83983 31.4316 2.83983C32.2931 2.83983 33.0396 3.0303 33.6714 3.41126C34.3031 3.79221 34.7913 4.32708 35.1358 5.01587C35.4843 5.70467 35.6585 6.50698 35.6585 7.4228C35.6585 8.33862 35.4843 9.13901 35.1358 9.82395C34.7913 10.5089 34.3031 11.0418 33.6714 11.4228C33.0396 11.8038 32.2931 11.9942 31.4316 11.9942ZM31.4431 10.3203C31.9102 10.3203 32.3007 10.1914 32.6147 9.93362C32.9286 9.67196 33.1622 9.32179 33.3153 8.88312C33.4723 8.44444 33.5508 7.95575 33.5508 7.41703C33.5508 6.87446 33.4723 6.38384 33.3153 5.94517C33.1622 5.50265 32.9286 5.15055 32.6147 4.88889C32.3007 4.62722 31.9102 4.49639 31.4431 4.49639C30.9645 4.49639 30.5663 4.62722 30.2485 4.88889C29.9346 5.15055 29.6991 5.50265 29.5422 5.94517C29.389 6.38384 29.3124 6.87446 29.3124 7.41703C29.3124 7.95575 29.389 8.44444 29.5422 8.88312C29.6991 9.32179 29.9346 9.67196 30.2485 9.93362C30.5663 10.1914 30.9645 10.3203 31.4431 10.3203Z" fill="black"/>
<path d="M41.1018 11.9942C40.2212 11.9942 39.465 11.7999 38.8333 11.4113C38.2054 11.0226 37.7211 10.4858 37.3803 9.80087C37.0434 9.11207 36.8749 8.31939 36.8749 7.4228C36.8749 6.52237 37.0472 5.72775 37.3918 5.03896C37.7364 4.34632 38.2226 3.8076 38.8505 3.4228C39.4823 3.03415 40.2289 2.83983 41.0903 2.83983C41.8063 2.83983 42.4399 2.97258 42.9912 3.2381C43.5464 3.49976 43.9886 3.87109 44.3179 4.35209C44.6471 4.82924 44.8347 5.38721 44.8807 6.02597H42.8936C42.8132 5.59885 42.6218 5.24291 42.3193 4.95815C42.0207 4.66955 41.6206 4.52525 41.119 4.52525C40.694 4.52525 40.3207 4.64069 39.9991 4.87157C39.6775 5.09861 39.4268 5.42569 39.2468 5.85281C39.0707 6.27994 38.9826 6.79173 38.9826 7.38817C38.9826 7.9923 39.0707 8.51179 39.2468 8.94661C39.4229 9.37759 39.6699 9.71044 39.9876 9.94517C40.3093 10.176 40.6864 10.2915 41.119 10.2915C41.4253 10.2915 41.6991 10.2338 41.9403 10.1183C42.1853 9.99904 42.3901 9.8278 42.5548 9.60462C42.7194 9.38143 42.8323 9.11015 42.8936 8.79076H44.8807C44.8309 9.41799 44.6471 9.97403 44.3294 10.4589C44.0116 10.9399 43.5789 11.317 43.0314 11.5902C42.4839 11.8595 41.8407 11.9942 41.1018 11.9942Z" fill="black"/>
<path d="M48.1508 9.03896L48.145 6.5166H48.4781L51.6483 2.95527H54.0776L50.1781 7.3189H49.7473L48.1508 9.03896ZM46.2556 11.8211V0H48.3346V11.8211H46.2556ZM51.7918 11.8211L48.9203 7.78644L50.3216 6.31457L54.2786 11.8211H51.7918Z" fill="black"/>
</svg>
