<svg width="32" height="32" viewBox="0 0 32 32" fill="none" xmlns="http://www.w3.org/2000/svg">
<g clip-path="url(#clip0_535_1732)">
<path d="M10.0331 11.0864C13.3285 7.85989 18.6714 7.85989 21.9668 11.0864L22.3634 11.4747C22.5282 11.636 22.5282 11.8975 22.3634 12.0589L21.0067 13.3872C20.9243 13.4679 20.7907 13.4679 20.7083 13.3872L20.1626 12.8528C17.8636 10.602 14.1363 10.602 11.8373 12.8528L11.2529 13.4251C11.1705 13.5058 11.0369 13.5058 10.9545 13.4251L9.5978 12.0968C9.43303 11.9354 9.43303 11.6739 9.5978 11.5126L10.0331 11.0864ZM24.7726 13.8335L25.9801 15.0157C26.1448 15.177 26.1448 15.4386 25.9801 15.5999L20.5355 20.9307C20.3707 21.092 20.1036 21.092 19.9388 20.9307C19.9388 20.9307 19.9388 20.9307 19.9388 20.9307L16.0746 17.1473C16.0334 17.107 15.9666 17.107 15.9254 17.1473H15.9254L12.0612 20.9307C11.8965 21.092 11.6293 21.092 11.4646 20.9307C11.4646 20.9307 11.4646 20.9307 11.4646 20.9307L6.01982 15.5998C5.85505 15.4385 5.85505 15.177 6.01982 15.0156L7.22729 13.8334C7.39206 13.6721 7.65921 13.6721 7.82398 13.8334L11.6883 17.6169C11.7295 17.6572 11.7962 17.6572 11.8374 17.6169C11.8374 17.6169 11.8374 17.6169 11.8374 17.6169L15.7015 13.8334C15.8663 13.6721 16.1334 13.6721 16.2982 13.8334C16.2982 13.8334 16.2982 13.8334 16.2982 13.8334L20.1625 17.6169C20.2037 17.6572 20.2705 17.6572 20.3117 17.6169L24.1759 13.8335C24.3407 13.6722 24.6078 13.6722 24.7726 13.8335Z" fill="#3B99FC"/>
</g>
<defs>
<clipPath id="clip0_535_1732">
<rect width="32" height="32" fill="white"/>
</clipPath>
</defs>
</svg>