<svg width="16" height="16" xmlns="http://www.w3.org/2000/svg">
<path d="M14 3.7993H1.5V3.29094L12.5 2.39622V3.29094H14V1.76585C14 0.647453 13.109 -0.137458 12.021 0.0201339L1.98 1.47812C0.891 1.63673 0 2.6809 0 3.7993V13.9665C0 15.089 0.895 16 2 16H14C15.104 16 16 15.089 16 13.9665V5.83275C16 4.71029 15.104 3.7993 14 3.7993ZM12.5 10.9225C11.672 10.9225 11 10.2392 11 9.39739C11 8.55554 11.672 7.8723 12.5 7.8723C13.328 7.8723 14 8.55554 14 9.39739C14 10.2392 13.328 10.9225 12.5 10.9225Z" />
</svg>
