<svg width="25" height="17" viewBox="0 0 25 17"  xmlns="http://www.w3.org/2000/svg">
<path d="M18.5448 4.96938C18.5448 4.96938 16.5132 11.2155 16.3631 11.7458C16.303 11.2253 14.8219 0 14.8219 0C11.3591 0 9.51761 2.41595 8.53683 4.96938C8.53683 4.96938 6.06485 11.2351 5.86469 11.7556C5.85468 11.2646 5.48439 5.02831 5.48439 5.02831C5.27422 1.89544 2.36189 0 0 0L2.84227 17C6.46517 16.9902 8.41673 14.5841 9.43755 12.0208C9.43755 12.0208 11.6093 6.49162 11.6994 6.2461C11.7194 6.4818 13.2606 17 13.2606 17C16.8935 17 18.8551 14.751 19.9059 12.286L25 0C21.4071 0 19.5156 2.40612 18.5448 4.96938Z" />
</svg>
