<svg width="24" height="24" xmlns="http://www.w3.org/2000/svg">
	<path fill-rule="evenodd" clip-rule="evenodd" d="M17.5 12C17.5 12.146 17.4362 12.2846 17.3254 12.3796L13.8254 15.3796C13.6157 15.5593 13.3001 15.5351 13.1204 15.3254C12.9407 15.1157 12.9649 14.8001 13.1746 14.6204L15.6484 12.5L7 12.5C6.72386 12.5 6.5 12.2761 6.5 12C6.5 11.7239 6.72386 11.5 7 11.5L15.6484 11.5L13.1746 9.37962C12.9649 9.19991 12.9407 8.88426 13.1204 8.6746C13.3001 8.46494 13.6157 8.44065 13.8254 8.62037L17.3254 11.6204C17.4362 11.7154 17.5 11.854 17.5 12Z"/>
</svg>
