<svg width="24" height="24" xmlns="http://www.w3.org/2000/svg">
	<path d="M7.85274 13.8426L7.35517 17.6708L11.0608 16.2358L9.5 15L7.85274 13.8426Z"/>
	<path fill-rule="evenodd" clip-rule="evenodd" d="M17.2946 7.90081C17.4728 8.46241 17.4263 9.09188 16.9924 9.63341L11.451 16.5485C11.3959 16.6173 11.3236 16.6703 11.2414 16.7021L7.53573 18.1371C7.37122 18.2008 7.18532 18.1731 7.04653 18.0642C6.90774 17.9553 6.8366 17.7813 6.85934 17.6064L7.35691 13.7782C7.36872 13.6873 7.40527 13.6014 7.46257 13.5299L13.0906 6.50672C13.5246 5.96522 14.1288 5.78274 14.7158 5.83427C15.285 5.88424 15.8441 6.15033 16.2922 6.50938C16.7402 6.86842 17.1218 7.35618 17.2946 7.90081ZM13.8709 7.13205C14.0623 6.89325 14.3173 6.80313 14.6283 6.83044C14.9571 6.8593 15.3346 7.02345 15.6669 7.28973C15.9991 7.55602 16.2416 7.88867 16.3414 8.20322C16.4358 8.50078 16.4034 8.76924 16.212 9.00807L10.9815 15.5353L9.81038 14.608C9.80291 14.6021 9.79526 14.5964 9.78745 14.5909L8.57596 13.7397L13.8709 7.13205ZM8.24198 14.7272L9.20085 15.4009L10.0651 16.0852L7.95948 16.9006L8.24198 14.7272Z"/>
</svg>
