<svg width="24" height="24" xmlns="http://www.w3.org/2000/svg">
	<path fill-rule="evenodd" clip-rule="evenodd" d="M5.04408 7.70546C5.01543 7.79857 5 7.89749 5 8V15C5 16.1046 5.89543 17 7 17H17C18.1046 17 19 16.1046 19 15V8C19 7.89749 18.9846 7.79857 18.9559 7.70546C18.9199 7.78567 18.8622 7.85739 18.7846 7.9111L12.8538 12.017C12.3401 12.3726 11.6599 12.3726 11.1462 12.017L5.2154 7.9111C5.13782 7.85739 5.08014 7.78567 5.04408 7.70546ZM18.2945 7.04408C18.2014 7.01542 18.1025 7 18 7H6C5.89749 7 5.79859 7.01542 5.70548 7.04408C5.73269 7.05638 5.75918 7.0713 5.78461 7.0889L11.7154 11.1948C11.8866 11.3134 12.1134 11.3134 12.2846 11.1948L18.2154 7.0889C18.2408 7.0713 18.2673 7.05638 18.2945 7.04408Z"/>
</svg>
