<svg width="24" height="24" viewBox="0 0 24 24" xmlns="http://www.w3.org/2000/svg">
<path d="M12.5 5.50001C12.3053 5.30778 11.6947 5.30778 11.5 5.50001L5.14875 12.0673C5.00441 12.2097 4.96045 12.4253 5.03746 12.6129C5.11447 12.8006 5.2972 12.9231 5.50002 12.9231H6.7143V17.5C6.7143 17.7762 6.93816 18 7.2143 18H9.78573C10.0619 18 10.2857 17.7762 10.2857 17.5V14.6154H13.7143V17.5C13.7143 17.7762 13.9382 18 14.2143 18H16.7857C17.0619 18 17.2857 17.7762 17.2857 17.5V12.9231H18.5C18.7028 12.9231 18.8856 12.8006 18.9626 12.6129C19.0396 12.4253 18.9956 12.2097 18.8513 12.0673L12.5 5.50001Z"/>
</svg>
