<svg width="24" height="24" xmlns="http://www.w3.org/2000/svg">
	<path fill-rule="evenodd" clip-rule="evenodd" d="M10.5 8C10.2239 8 10 7.77614 10 7.5C10 7.22386 10.2239 7 10.5 7H16.5C16.7761 7 17 7.22386 17 7.5C17 7.77614 16.7761 8 16.5 8H10.5ZM17 10.5C17 10.7761 16.7761 11 16.5 11H10.5C10.2239 11 10 10.7761 10 10.5C10 10.2239 10.2239 10 10.5 10H16.5C16.7761 10 17 10.2239 17 10.5ZM10 13.5C10 13.7761 10.2239 14 10.5 14H16.5C16.7761 14 17 13.7761 17 13.5C17 13.2239 16.7761 13 16.5 13H10.5C10.2239 13 10 13.2239 10 13.5ZM17 16.5C17 16.7761 16.7761 17 16.5 17H10.5C10.2239 17 10 16.7761 10 16.5C10 16.2239 10.2239 16 10.5 16H16.5C16.7761 16 17 16.2239 17 16.5ZM7 10.5C7 10.7761 7.22386 11 7.5 11H8.5C8.77614 11 9 10.7761 9 10.5C9 10.2239 8.77614 10 8.5 10H7.5C7.22386 10 7 10.2239 7 10.5ZM7.5 8C7.22386 8 7 7.77614 7 7.5C7 7.22386 7.22386 7 7.5 7H8.5C8.77614 7 9 7.22386 9 7.5C9 7.77614 8.77614 8 8.5 8H7.5ZM7 13.5C7 13.7761 7.22386 14 7.5 14H8.5C8.77614 14 9 13.7761 9 13.5C9 13.2239 8.77614 13 8.5 13H7.5C7.22386 13 7 13.2239 7 13.5ZM9 16.5C9 16.7761 8.77614 17 8.5 17H7.5C7.22386 17 7 16.7761 7 16.5C7 16.2239 7.22386 16 7.5 16H8.5C8.77614 16 9 16.2239 9 16.5Z"/>
</svg>
