<svg width="40" height="40" viewBox="0 0 40 40" fill="none" xmlns="http://www.w3.org/2000/svg">
<rect width="40" height="40" rx="20" fill="#FFF7E8"/>
<path d="M30 18.2984V20.4148H10V18.2984H30ZM24.331 11H27.7995V23.8716C27.7995 25.2825 27.4763 26.5235 26.8298 27.5945C26.1834 28.6655 25.2789 29.5025 24.1166 30.1053C22.9542 30.7018 21.596 31 20.042 31C18.488 31 17.1298 30.7018 15.9674 30.1053C14.805 29.5025 13.9005 28.6655 13.2541 27.5945C12.6138 26.5235 12.2937 25.2825 12.2937 23.8716V11H15.7529V23.5734C15.7529 24.3943 15.927 25.1254 16.2751 25.7667C16.6294 26.408 17.1267 26.9115 17.7669 27.2771C18.4134 27.6362 19.1717 27.8158 20.042 27.8158C20.9184 27.8158 21.6768 27.6362 22.317 27.2771C22.9635 26.9115 23.4608 26.408 23.8089 25.7667C24.157 25.1254 24.331 24.3943 24.331 23.5734V11Z" fill="black"/>
</svg>
