<svg width="340" height="46" viewBox="0 0 340 46" fill="none" xmlns="http://www.w3.org/2000/svg">
<rect width="4" height="4" fill="#603DEB"/>
<rect y="14" width="4" height="4" fill="#603DEB"/>
<rect y="28" width="4" height="4" fill="#603DEB"/>
<rect y="42" width="4" height="4" fill="#603DEB"/>
<rect x="14" width="4" height="4" fill="#603DEB"/>
<rect x="14" y="14" width="4" height="4" fill="#603DEB"/>
<rect x="14" y="28" width="4" height="4" fill="#603DEB"/>
<rect x="14" y="42" width="4" height="4" fill="#603DEB"/>
<rect x="28" width="4" height="4" fill="#603DEB"/>
<rect x="28" y="14" width="4" height="4" fill="#603DEB"/>
<rect x="28" y="28" width="4" height="4" fill="#603DEB"/>
<rect x="28" y="42" width="4" height="4" fill="#603DEB"/>
<rect x="42" width="4" height="4" fill="#603DEB"/>
<rect x="42" y="14" width="4" height="4" fill="#603DEB"/>
<rect x="42" y="28" width="4" height="4" fill="#603DEB"/>
<rect x="42" y="42" width="4" height="4" fill="#603DEB"/>
<rect x="56" width="4" height="4" fill="#603DEB"/>
<rect x="56" y="14" width="4" height="4" fill="#603DEB"/>
<rect x="56" y="28" width="4" height="4" fill="#603DEB"/>
<rect x="56" y="42" width="4" height="4" fill="#603DEB"/>
<rect x="70" width="4" height="4" fill="#603DEB"/>
<rect x="70" y="14" width="4" height="4" fill="#603DEB"/>
<rect x="70" y="28" width="4" height="4" fill="#603DEB"/>
<rect x="70" y="42" width="4" height="4" fill="#603DEB"/>
<rect x="84" width="4" height="4" fill="#603DEB"/>
<rect x="84" y="14" width="4" height="4" fill="#603DEB"/>
<rect x="84" y="28" width="4" height="4" fill="#603DEB"/>
<rect x="84" y="42" width="4" height="4" fill="#603DEB"/>
<rect x="98" width="4" height="4" fill="#603DEB"/>
<rect x="98" y="14" width="4" height="4" fill="#603DEB"/>
<rect x="98" y="28" width="4" height="4" fill="#603DEB"/>
<rect x="98" y="42" width="4" height="4" fill="#603DEB"/>
<rect x="112" width="4" height="4" fill="#603DEB"/>
<rect x="112" y="14" width="4" height="4" fill="#603DEB"/>
<rect x="112" y="28" width="4" height="4" fill="#603DEB"/>
<rect x="112" y="42" width="4" height="4" fill="#603DEB"/>
<rect x="126" width="4" height="4" fill="#603DEB"/>
<rect x="126" y="14" width="4" height="4" fill="#603DEB"/>
<rect x="126" y="28" width="4" height="4" fill="#603DEB"/>
<rect x="126" y="42" width="4" height="4" fill="#603DEB"/>
<rect x="140" width="4" height="4" fill="#603DEB"/>
<rect x="140" y="14" width="4" height="4" fill="#603DEB"/>
<rect x="140" y="28" width="4" height="4" fill="#603DEB"/>
<rect x="140" y="42" width="4" height="4" fill="#603DEB"/>
<rect x="154" width="4" height="4" fill="#603DEB"/>
<rect x="154" y="14" width="4" height="4" fill="#603DEB"/>
<rect x="154" y="28" width="4" height="4" fill="#603DEB"/>
<rect x="154" y="42" width="4" height="4" fill="#603DEB"/>
<rect x="168" width="4" height="4" fill="#603DEB"/>
<rect x="168" y="14" width="4" height="4" fill="#603DEB"/>
<rect x="168" y="28" width="4" height="4" fill="#603DEB"/>
<rect x="168" y="42" width="4" height="4" fill="#603DEB"/>
<rect x="182" width="4" height="4" fill="#603DEB"/>
<rect x="182" y="14" width="4" height="4" fill="#603DEB"/>
<rect x="182" y="28" width="4" height="4" fill="#603DEB"/>
<rect x="182" y="42" width="4" height="4" fill="#603DEB"/>
<rect x="196" width="4" height="4" fill="#603DEB"/>
<rect x="196" y="14" width="4" height="4" fill="#603DEB"/>
<rect x="196" y="28" width="4" height="4" fill="#603DEB"/>
<rect x="196" y="42" width="4" height="4" fill="#603DEB"/>
<rect x="210" width="4" height="4" fill="#603DEB"/>
<rect x="210" y="14" width="4" height="4" fill="#603DEB"/>
<rect x="210" y="28" width="4" height="4" fill="#603DEB"/>
<rect x="210" y="42" width="4" height="4" fill="#603DEB"/>
<rect x="224" width="4" height="4" fill="#603DEB"/>
<rect x="224" y="14" width="4" height="4" fill="#603DEB"/>
<rect x="224" y="28" width="4" height="4" fill="#603DEB"/>
<rect x="224" y="42" width="4" height="4" fill="#603DEB"/>
<rect x="238" width="4" height="4" fill="#603DEB"/>
<rect x="238" y="14" width="4" height="4" fill="#603DEB"/>
<rect x="238" y="28" width="4" height="4" fill="#603DEB"/>
<rect x="238" y="42" width="4" height="4" fill="#603DEB"/>
<rect x="252" width="4" height="4" fill="#603DEB"/>
<rect x="252" y="14" width="4" height="4" fill="#603DEB"/>
<rect x="252" y="28" width="4" height="4" fill="#603DEB"/>
<rect x="252" y="42" width="4" height="4" fill="#603DEB"/>
<rect x="266" width="4" height="4" fill="#603DEB"/>
<rect x="266" y="14" width="4" height="4" fill="#603DEB"/>
<rect x="266" y="28" width="4" height="4" fill="#603DEB"/>
<rect x="266" y="42" width="4" height="4" fill="#603DEB"/>
<rect x="280" width="4" height="4" fill="#603DEB"/>
<rect x="280" y="14" width="4" height="4" fill="#603DEB"/>
<rect x="280" y="28" width="4" height="4" fill="#603DEB"/>
<rect x="280" y="42" width="4" height="4" fill="#603DEB"/>
<rect x="294" width="4" height="4" fill="#603DEB"/>
<rect x="294" y="14" width="4" height="4" fill="#603DEB"/>
<rect x="294" y="28" width="4" height="4" fill="#603DEB"/>
<rect x="294" y="42" width="4" height="4" fill="#603DEB"/>
<rect x="308" width="4" height="4" fill="#603DEB"/>
<rect x="308" y="14" width="4" height="4" fill="#603DEB"/>
<rect x="308" y="28" width="4" height="4" fill="#603DEB"/>
<rect x="308" y="42" width="4" height="4" fill="#603DEB"/>
<rect x="322" width="4" height="4" fill="#603DEB"/>
<rect x="322" y="14" width="4" height="4" fill="#603DEB"/>
<rect x="322" y="28" width="4" height="4" fill="#603DEB"/>
<rect x="322" y="42" width="4" height="4" fill="#603DEB"/>
<rect x="336" width="4" height="4" fill="#603DEB"/>
<rect x="336" y="14" width="4" height="4" fill="#603DEB"/>
<rect x="336" y="28" width="4" height="4" fill="#603DEB"/>
<rect x="336" y="42" width="4" height="4" fill="#603DEB"/>
</svg>
