<svg width="1212" height="108" viewBox="0 0 1212 108" fill="none" xmlns="http://www.w3.org/2000/svg">
<path d="M191 50H1021" stroke="#603DEB" stroke-width="2"/>
<path d="M163.339 12.4023C163.339 12.5801 163.302 12.7441 163.229 12.8945C163.157 13.0404 163.052 13.1657 162.915 13.2705C162.778 13.3753 162.61 13.4574 162.409 13.5166C162.213 13.5758 161.988 13.6055 161.732 13.6055C161.445 13.6055 161.181 13.5736 160.939 13.5098C160.702 13.446 160.5 13.3457 160.331 13.209C160.158 13.0723 160.023 12.8968 159.928 12.6826C159.832 12.4684 159.78 12.2109 159.771 11.9102H157.884C157.884 12.4251 157.982 12.874 158.178 13.2568C158.378 13.6396 158.649 13.9723 158.991 14.2549C159.351 14.542 159.773 14.7607 160.256 14.9111C160.743 15.057 161.236 15.1299 161.732 15.1299C162.238 15.1299 162.705 15.0706 163.134 14.9521C163.562 14.8291 163.931 14.6491 164.241 14.4121C164.551 14.1797 164.793 13.8949 164.966 13.5576C165.144 13.2158 165.232 12.8262 165.232 12.3887C165.232 11.8828 165.116 11.4362 164.884 11.0488C164.651 10.6615 164.339 10.3219 163.947 10.0303C163.688 9.85254 163.403 9.69531 163.093 9.55859C162.783 9.42188 162.457 9.30566 162.115 9.20996C161.796 9.12337 161.509 9.02995 161.254 8.92969C161.003 8.82943 160.789 8.71777 160.611 8.59473C160.434 8.47624 160.297 8.3418 160.201 8.19141C160.11 8.04102 160.064 7.8724 160.064 7.68555C160.064 7.50781 160.099 7.34375 160.167 7.19336C160.24 7.03841 160.345 6.90397 160.481 6.79004C160.618 6.68066 160.785 6.59635 160.98 6.53711C161.181 6.47331 161.409 6.44141 161.664 6.44141C161.942 6.44141 162.184 6.48014 162.389 6.55762C162.598 6.63053 162.774 6.73307 162.915 6.86523C163.052 7.00195 163.154 7.16374 163.223 7.35059C163.296 7.53743 163.337 7.74251 163.346 7.96582H165.219C165.219 7.51921 165.132 7.10905 164.959 6.73535C164.786 6.36165 164.544 6.03809 164.234 5.76465C163.924 5.49577 163.553 5.28613 163.12 5.13574C162.692 4.98535 162.218 4.91016 161.698 4.91016C161.197 4.91016 160.732 4.97624 160.304 5.1084C159.875 5.236 159.504 5.42057 159.189 5.66211C158.875 5.90365 158.629 6.19531 158.451 6.53711C158.273 6.87891 158.185 7.25944 158.185 7.67871C158.185 8.04329 158.251 8.38053 158.383 8.69043C158.52 9.00033 158.72 9.28288 158.984 9.53809C159.249 9.79329 159.588 10.028 160.003 10.2422C160.422 10.4564 160.908 10.6387 161.459 10.7891C161.814 10.8848 162.111 10.9896 162.348 11.1035C162.589 11.2129 162.785 11.3337 162.936 11.4658C163.081 11.6025 163.184 11.7484 163.243 11.9033C163.307 12.0583 163.339 12.2246 163.339 12.4023ZM170.134 5.79199H168.233V7.60352H166.545V9.00488H168.233V12.3682C168.233 12.8558 168.297 13.2751 168.425 13.626C168.552 13.9723 168.735 14.2572 168.972 14.4805C169.204 14.7083 169.484 14.877 169.812 14.9863C170.145 15.0911 170.514 15.1436 170.92 15.1436C171.13 15.1436 171.341 15.1322 171.556 15.1094C171.774 15.0911 171.984 15.0638 172.185 15.0273C172.385 14.9909 172.574 14.9453 172.752 14.8906C172.93 14.8314 173.085 14.763 173.217 14.6855L173.032 13.3799C172.946 13.4027 172.841 13.4255 172.718 13.4482C172.599 13.471 172.472 13.4915 172.335 13.5098C172.194 13.5326 172.046 13.5508 171.891 13.5645C171.74 13.5781 171.592 13.585 171.446 13.585C171.246 13.585 171.063 13.5622 170.899 13.5166C170.74 13.471 170.603 13.3936 170.489 13.2842C170.375 13.1794 170.286 13.0381 170.223 12.8604C170.163 12.6781 170.134 12.4525 170.134 12.1836V9.00488H172.896V7.60352H170.134V5.79199ZM178.645 15.1367C179.36 15.1367 179.98 14.9977 180.504 14.7197C181.028 14.4417 181.411 14.1318 181.652 13.79L180.702 12.7646C180.483 13.0472 180.199 13.2591 179.848 13.4004C179.497 13.5417 179.134 13.6123 178.761 13.6123C178.496 13.6123 178.253 13.5713 178.029 13.4893C177.806 13.4072 177.608 13.291 177.435 13.1406C177.266 12.9948 177.132 12.833 177.031 12.6553C176.931 12.473 176.849 12.2337 176.785 11.9375V11.917H181.803V11.1104C181.803 10.568 181.728 10.0736 181.577 9.62695C181.427 9.17578 181.208 8.79069 180.921 8.47168C180.629 8.15267 180.274 7.90658 179.854 7.7334C179.44 7.55566 178.966 7.4668 178.433 7.4668C177.918 7.4668 177.441 7.56022 177.004 7.74707C176.566 7.93392 176.188 8.19596 175.869 8.5332C175.55 8.87044 175.302 9.27376 175.124 9.74316C174.946 10.208 174.857 10.723 174.857 11.2881V11.5615C174.857 12.0583 174.946 12.5254 175.124 12.9629C175.306 13.3958 175.564 13.7718 175.896 14.0908C176.229 14.4144 176.628 14.6696 177.093 14.8564C177.558 15.0433 178.075 15.1367 178.645 15.1367ZM178.419 9.00488C178.66 9.00488 178.872 9.04362 179.055 9.12109C179.242 9.19401 179.399 9.29427 179.526 9.42188C179.654 9.55404 179.754 9.70898 179.827 9.88672C179.9 10.0645 179.937 10.2536 179.937 10.4541V10.6045H176.819C176.865 10.363 176.933 10.1442 177.024 9.94824C177.116 9.75228 177.229 9.58366 177.366 9.44238C177.498 9.30111 177.653 9.19401 177.831 9.12109C178.009 9.04362 178.205 9.00488 178.419 9.00488ZM183.491 17.8438H185.392V14.3574C185.478 14.4531 185.569 14.5397 185.665 14.6172C185.761 14.6947 185.861 14.7653 185.966 14.8291C186.144 14.9294 186.335 15.0046 186.54 15.0547C186.75 15.1094 186.978 15.1367 187.224 15.1367C187.688 15.1367 188.101 15.041 188.461 14.8496C188.821 14.6582 189.124 14.3939 189.37 14.0566C189.612 13.724 189.794 13.3275 189.917 12.8672C190.045 12.4069 190.108 11.9079 190.108 11.3701V11.2266C190.108 10.666 190.045 10.1556 189.917 9.69531C189.794 9.23047 189.609 8.83171 189.363 8.49902C189.117 8.1709 188.814 7.91797 188.454 7.74023C188.094 7.55794 187.679 7.4668 187.21 7.4668C186.982 7.4668 186.768 7.49186 186.567 7.54199C186.371 7.58757 186.191 7.65365 186.027 7.74023C185.891 7.81315 185.763 7.89974 185.645 8C185.526 8.0957 185.417 8.20508 185.316 8.32812L185.248 7.60352H183.491V17.8438ZM188.208 11.2266V11.3701C188.208 11.6755 188.181 11.9648 188.126 12.2383C188.071 12.5072 187.985 12.7441 187.866 12.9492C187.748 13.1543 187.593 13.3161 187.401 13.4346C187.215 13.5531 186.987 13.6123 186.718 13.6123C186.549 13.6123 186.396 13.5964 186.26 13.5645C186.123 13.528 186.002 13.4779 185.897 13.4141C185.788 13.3457 185.69 13.2637 185.604 13.168C185.521 13.0723 185.451 12.9652 185.392 12.8467V9.75684C185.455 9.62923 185.531 9.51758 185.617 9.42188C185.708 9.32617 185.813 9.24642 185.932 9.18262C186.036 9.12793 186.153 9.08691 186.28 9.05957C186.408 9.02767 186.549 9.01172 186.704 9.01172C186.973 9.01172 187.201 9.06868 187.388 9.18262C187.579 9.29655 187.736 9.4515 187.859 9.64746C187.978 9.84798 188.064 10.085 188.119 10.3584C188.178 10.6273 188.208 10.9167 188.208 11.2266ZM204.936 15V5.04688H204.833L200.499 6.6123V8.2666L203.015 7.36426V15H204.936Z" fill="#6E6D6D"/>
<g filter="url(#filter0_d_6682_3527)">
<circle cx="182.5" cy="50" r="20" fill="white"/>
</g>
<circle cx="182.5" cy="50" r="3" fill="#603DEB"/>
<path d="M578.339 12.4023C578.339 12.5801 578.302 12.7441 578.229 12.8945C578.157 13.0404 578.052 13.1657 577.915 13.2705C577.778 13.3753 577.61 13.4574 577.409 13.5166C577.213 13.5758 576.988 13.6055 576.732 13.6055C576.445 13.6055 576.181 13.5736 575.939 13.5098C575.702 13.446 575.5 13.3457 575.331 13.209C575.158 13.0723 575.023 12.8968 574.928 12.6826C574.832 12.4684 574.78 12.2109 574.771 11.9102H572.884C572.884 12.4251 572.982 12.874 573.178 13.2568C573.378 13.6396 573.649 13.9723 573.991 14.2549C574.351 14.542 574.773 14.7607 575.256 14.9111C575.743 15.057 576.236 15.1299 576.732 15.1299C577.238 15.1299 577.705 15.0706 578.134 14.9521C578.562 14.8291 578.931 14.6491 579.241 14.4121C579.551 14.1797 579.793 13.8949 579.966 13.5576C580.144 13.2158 580.232 12.8262 580.232 12.3887C580.232 11.8828 580.116 11.4362 579.884 11.0488C579.651 10.6615 579.339 10.3219 578.947 10.0303C578.688 9.85254 578.403 9.69531 578.093 9.55859C577.783 9.42188 577.457 9.30566 577.115 9.20996C576.796 9.12337 576.509 9.02995 576.254 8.92969C576.003 8.82943 575.789 8.71777 575.611 8.59473C575.434 8.47624 575.297 8.3418 575.201 8.19141C575.11 8.04102 575.064 7.8724 575.064 7.68555C575.064 7.50781 575.099 7.34375 575.167 7.19336C575.24 7.03841 575.345 6.90397 575.481 6.79004C575.618 6.68066 575.785 6.59635 575.98 6.53711C576.181 6.47331 576.409 6.44141 576.664 6.44141C576.942 6.44141 577.184 6.48014 577.389 6.55762C577.598 6.63053 577.774 6.73307 577.915 6.86523C578.052 7.00195 578.154 7.16374 578.223 7.35059C578.296 7.53743 578.337 7.74251 578.346 7.96582H580.219C580.219 7.51921 580.132 7.10905 579.959 6.73535C579.786 6.36165 579.544 6.03809 579.234 5.76465C578.924 5.49577 578.553 5.28613 578.12 5.13574C577.692 4.98535 577.218 4.91016 576.698 4.91016C576.197 4.91016 575.732 4.97624 575.304 5.1084C574.875 5.236 574.504 5.42057 574.189 5.66211C573.875 5.90365 573.629 6.19531 573.451 6.53711C573.273 6.87891 573.185 7.25944 573.185 7.67871C573.185 8.04329 573.251 8.38053 573.383 8.69043C573.52 9.00033 573.72 9.28288 573.984 9.53809C574.249 9.79329 574.588 10.028 575.003 10.2422C575.422 10.4564 575.908 10.6387 576.459 10.7891C576.814 10.8848 577.111 10.9896 577.348 11.1035C577.589 11.2129 577.785 11.3337 577.936 11.4658C578.081 11.6025 578.184 11.7484 578.243 11.9033C578.307 12.0583 578.339 12.2246 578.339 12.4023ZM585.134 5.79199H583.233V7.60352H581.545V9.00488H583.233V12.3682C583.233 12.8558 583.297 13.2751 583.425 13.626C583.552 13.9723 583.735 14.2572 583.972 14.4805C584.204 14.7083 584.484 14.877 584.812 14.9863C585.145 15.0911 585.514 15.1436 585.92 15.1436C586.13 15.1436 586.341 15.1322 586.556 15.1094C586.774 15.0911 586.984 15.0638 587.185 15.0273C587.385 14.9909 587.574 14.9453 587.752 14.8906C587.93 14.8314 588.085 14.763 588.217 14.6855L588.032 13.3799C587.946 13.4027 587.841 13.4255 587.718 13.4482C587.599 13.471 587.472 13.4915 587.335 13.5098C587.194 13.5326 587.046 13.5508 586.891 13.5645C586.74 13.5781 586.592 13.585 586.446 13.585C586.246 13.585 586.063 13.5622 585.899 13.5166C585.74 13.471 585.603 13.3936 585.489 13.2842C585.375 13.1794 585.286 13.0381 585.223 12.8604C585.163 12.6781 585.134 12.4525 585.134 12.1836V9.00488H587.896V7.60352H585.134V5.79199ZM593.645 15.1367C594.36 15.1367 594.98 14.9977 595.504 14.7197C596.028 14.4417 596.411 14.1318 596.652 13.79L595.702 12.7646C595.483 13.0472 595.199 13.2591 594.848 13.4004C594.497 13.5417 594.134 13.6123 593.761 13.6123C593.496 13.6123 593.253 13.5713 593.029 13.4893C592.806 13.4072 592.608 13.291 592.435 13.1406C592.266 12.9948 592.132 12.833 592.031 12.6553C591.931 12.473 591.849 12.2337 591.785 11.9375V11.917H596.803V11.1104C596.803 10.568 596.728 10.0736 596.577 9.62695C596.427 9.17578 596.208 8.79069 595.921 8.47168C595.629 8.15267 595.274 7.90658 594.854 7.7334C594.44 7.55566 593.966 7.4668 593.433 7.4668C592.918 7.4668 592.441 7.56022 592.004 7.74707C591.566 7.93392 591.188 8.19596 590.869 8.5332C590.55 8.87044 590.302 9.27376 590.124 9.74316C589.946 10.208 589.857 10.723 589.857 11.2881V11.5615C589.857 12.0583 589.946 12.5254 590.124 12.9629C590.306 13.3958 590.564 13.7718 590.896 14.0908C591.229 14.4144 591.628 14.6696 592.093 14.8564C592.558 15.0433 593.075 15.1367 593.645 15.1367ZM593.419 9.00488C593.66 9.00488 593.872 9.04362 594.055 9.12109C594.242 9.19401 594.399 9.29427 594.526 9.42188C594.654 9.55404 594.754 9.70898 594.827 9.88672C594.9 10.0645 594.937 10.2536 594.937 10.4541V10.6045H591.819C591.865 10.363 591.933 10.1442 592.024 9.94824C592.116 9.75228 592.229 9.58366 592.366 9.44238C592.498 9.30111 592.653 9.19401 592.831 9.12109C593.009 9.04362 593.205 9.00488 593.419 9.00488ZM598.491 17.8438H600.392V14.3574C600.478 14.4531 600.569 14.5397 600.665 14.6172C600.761 14.6947 600.861 14.7653 600.966 14.8291C601.144 14.9294 601.335 15.0046 601.54 15.0547C601.75 15.1094 601.978 15.1367 602.224 15.1367C602.688 15.1367 603.101 15.041 603.461 14.8496C603.821 14.6582 604.124 14.3939 604.37 14.0566C604.612 13.724 604.794 13.3275 604.917 12.8672C605.045 12.4069 605.108 11.9079 605.108 11.3701V11.2266C605.108 10.666 605.045 10.1556 604.917 9.69531C604.794 9.23047 604.609 8.83171 604.363 8.49902C604.117 8.1709 603.814 7.91797 603.454 7.74023C603.094 7.55794 602.679 7.4668 602.21 7.4668C601.982 7.4668 601.768 7.49186 601.567 7.54199C601.371 7.58757 601.191 7.65365 601.027 7.74023C600.891 7.81315 600.763 7.89974 600.645 8C600.526 8.0957 600.417 8.20508 600.316 8.32812L600.248 7.60352H598.491V17.8438ZM603.208 11.2266V11.3701C603.208 11.6755 603.181 11.9648 603.126 12.2383C603.071 12.5072 602.985 12.7441 602.866 12.9492C602.748 13.1543 602.593 13.3161 602.401 13.4346C602.215 13.5531 601.987 13.6123 601.718 13.6123C601.549 13.6123 601.396 13.5964 601.26 13.5645C601.123 13.528 601.002 13.4779 600.897 13.4141C600.788 13.3457 600.69 13.2637 600.604 13.168C600.521 13.0723 600.451 12.9652 600.392 12.8467V9.75684C600.455 9.62923 600.531 9.51758 600.617 9.42188C600.708 9.32617 600.813 9.24642 600.932 9.18262C601.036 9.12793 601.153 9.08691 601.28 9.05957C601.408 9.02767 601.549 9.01172 601.704 9.01172C601.973 9.01172 602.201 9.06868 602.388 9.18262C602.579 9.29655 602.736 9.4515 602.859 9.64746C602.978 9.84798 603.064 10.085 603.119 10.3584C603.178 10.6273 603.208 10.9167 603.208 11.2266ZM621.788 15V13.4756H617.42L619.293 11.4932C619.617 11.1605 619.91 10.8438 620.175 10.543C620.439 10.2376 620.667 9.93913 620.858 9.64746C621.045 9.35579 621.189 9.06185 621.289 8.76562C621.394 8.46484 621.446 8.15039 621.446 7.82227C621.446 7.38932 621.378 6.99512 621.241 6.63965C621.104 6.27962 620.906 5.97201 620.646 5.7168C620.382 5.46159 620.054 5.26335 619.662 5.12207C619.275 4.98079 618.828 4.91016 618.322 4.91016C617.794 4.91016 617.311 4.99674 616.873 5.16992C616.44 5.33854 616.071 5.57096 615.766 5.86719C615.456 6.16341 615.216 6.50977 615.048 6.90625C614.879 7.29818 614.795 7.71517 614.795 8.15723H616.702C616.702 7.88835 616.736 7.64909 616.805 7.43945C616.873 7.22982 616.973 7.05436 617.105 6.91309C617.233 6.77637 617.393 6.67383 617.584 6.60547C617.78 6.53255 618.006 6.49609 618.261 6.49609C618.457 6.49609 618.634 6.52799 618.794 6.5918C618.958 6.6556 619.099 6.74674 619.218 6.86523C619.332 6.98828 619.421 7.13639 619.484 7.30957C619.548 7.48275 619.58 7.68099 619.58 7.9043C619.58 8.05469 619.555 8.20964 619.505 8.36914C619.459 8.52865 619.384 8.69954 619.279 8.88184C619.17 9.06868 619.029 9.27376 618.855 9.49707C618.682 9.72038 618.47 9.96875 618.22 10.2422L615 13.7012V15H621.788Z" fill="#6E6D6D"/>
<g filter="url(#filter1_d_6682_3527)">
<circle cx="597.5" cy="50" r="20" fill="white"/>
</g>
<circle cx="597.5" cy="50" r="3" fill="#603DEB"/>
<path d="M996.339 12.4023C996.339 12.5801 996.302 12.7441 996.229 12.8945C996.157 13.0404 996.052 13.1657 995.915 13.2705C995.778 13.3753 995.61 13.4574 995.409 13.5166C995.213 13.5758 994.988 13.6055 994.732 13.6055C994.445 13.6055 994.181 13.5736 993.939 13.5098C993.702 13.446 993.5 13.3457 993.331 13.209C993.158 13.0723 993.023 12.8968 992.928 12.6826C992.832 12.4684 992.78 12.2109 992.771 11.9102H990.884C990.884 12.4251 990.982 12.874 991.178 13.2568C991.378 13.6396 991.649 13.9723 991.991 14.2549C992.351 14.542 992.773 14.7607 993.256 14.9111C993.743 15.057 994.236 15.1299 994.732 15.1299C995.238 15.1299 995.705 15.0706 996.134 14.9521C996.562 14.8291 996.931 14.6491 997.241 14.4121C997.551 14.1797 997.793 13.8949 997.966 13.5576C998.144 13.2158 998.232 12.8262 998.232 12.3887C998.232 11.8828 998.116 11.4362 997.884 11.0488C997.651 10.6615 997.339 10.3219 996.947 10.0303C996.688 9.85254 996.403 9.69531 996.093 9.55859C995.783 9.42188 995.457 9.30566 995.115 9.20996C994.796 9.12337 994.509 9.02995 994.254 8.92969C994.003 8.82943 993.789 8.71777 993.611 8.59473C993.434 8.47624 993.297 8.3418 993.201 8.19141C993.11 8.04102 993.064 7.8724 993.064 7.68555C993.064 7.50781 993.099 7.34375 993.167 7.19336C993.24 7.03841 993.345 6.90397 993.481 6.79004C993.618 6.68066 993.785 6.59635 993.98 6.53711C994.181 6.47331 994.409 6.44141 994.664 6.44141C994.942 6.44141 995.184 6.48014 995.389 6.55762C995.598 6.63053 995.774 6.73307 995.915 6.86523C996.052 7.00195 996.154 7.16374 996.223 7.35059C996.296 7.53743 996.337 7.74251 996.346 7.96582H998.219C998.219 7.51921 998.132 7.10905 997.959 6.73535C997.786 6.36165 997.544 6.03809 997.234 5.76465C996.924 5.49577 996.553 5.28613 996.12 5.13574C995.692 4.98535 995.218 4.91016 994.698 4.91016C994.197 4.91016 993.732 4.97624 993.304 5.1084C992.875 5.236 992.504 5.42057 992.189 5.66211C991.875 5.90365 991.629 6.19531 991.451 6.53711C991.273 6.87891 991.185 7.25944 991.185 7.67871C991.185 8.04329 991.251 8.38053 991.383 8.69043C991.52 9.00033 991.72 9.28288 991.984 9.53809C992.249 9.79329 992.588 10.028 993.003 10.2422C993.422 10.4564 993.908 10.6387 994.459 10.7891C994.814 10.8848 995.111 10.9896 995.348 11.1035C995.589 11.2129 995.785 11.3337 995.936 11.4658C996.081 11.6025 996.184 11.7484 996.243 11.9033C996.307 12.0583 996.339 12.2246 996.339 12.4023ZM1003.13 5.79199H1001.23V7.60352H999.545V9.00488H1001.23V12.3682C1001.23 12.8558 1001.3 13.2751 1001.42 13.626C1001.55 13.9723 1001.73 14.2572 1001.97 14.4805C1002.2 14.7083 1002.48 14.877 1002.81 14.9863C1003.15 15.0911 1003.51 15.1436 1003.92 15.1436C1004.13 15.1436 1004.34 15.1322 1004.56 15.1094C1004.77 15.0911 1004.98 15.0638 1005.18 15.0273C1005.39 14.9909 1005.57 14.9453 1005.75 14.8906C1005.93 14.8314 1006.08 14.763 1006.22 14.6855L1006.03 13.3799C1005.95 13.4027 1005.84 13.4255 1005.72 13.4482C1005.6 13.471 1005.47 13.4915 1005.33 13.5098C1005.19 13.5326 1005.05 13.5508 1004.89 13.5645C1004.74 13.5781 1004.59 13.585 1004.45 13.585C1004.25 13.585 1004.06 13.5622 1003.9 13.5166C1003.74 13.471 1003.6 13.3936 1003.49 13.2842C1003.38 13.1794 1003.29 13.0381 1003.22 12.8604C1003.16 12.6781 1003.13 12.4525 1003.13 12.1836V9.00488H1005.9V7.60352H1003.13V5.79199ZM1011.64 15.1367C1012.36 15.1367 1012.98 14.9977 1013.5 14.7197C1014.03 14.4417 1014.41 14.1318 1014.65 13.79L1013.7 12.7646C1013.48 13.0472 1013.2 13.2591 1012.85 13.4004C1012.5 13.5417 1012.13 13.6123 1011.76 13.6123C1011.5 13.6123 1011.25 13.5713 1011.03 13.4893C1010.81 13.4072 1010.61 13.291 1010.43 13.1406C1010.27 12.9948 1010.13 12.833 1010.03 12.6553C1009.93 12.473 1009.85 12.2337 1009.79 11.9375V11.917H1014.8V11.1104C1014.8 10.568 1014.73 10.0736 1014.58 9.62695C1014.43 9.17578 1014.21 8.79069 1013.92 8.47168C1013.63 8.15267 1013.27 7.90658 1012.85 7.7334C1012.44 7.55566 1011.97 7.4668 1011.43 7.4668C1010.92 7.4668 1010.44 7.56022 1010 7.74707C1009.57 7.93392 1009.19 8.19596 1008.87 8.5332C1008.55 8.87044 1008.3 9.27376 1008.12 9.74316C1007.95 10.208 1007.86 10.723 1007.86 11.2881V11.5615C1007.86 12.0583 1007.95 12.5254 1008.12 12.9629C1008.31 13.3958 1008.56 13.7718 1008.9 14.0908C1009.23 14.4144 1009.63 14.6696 1010.09 14.8564C1010.56 15.0433 1011.07 15.1367 1011.64 15.1367ZM1011.42 9.00488C1011.66 9.00488 1011.87 9.04362 1012.05 9.12109C1012.24 9.19401 1012.4 9.29427 1012.53 9.42188C1012.65 9.55404 1012.75 9.70898 1012.83 9.88672C1012.9 10.0645 1012.94 10.2536 1012.94 10.4541V10.6045H1009.82C1009.86 10.363 1009.93 10.1442 1010.02 9.94824C1010.12 9.75228 1010.23 9.58366 1010.37 9.44238C1010.5 9.30111 1010.65 9.19401 1010.83 9.12109C1011.01 9.04362 1011.2 9.00488 1011.42 9.00488ZM1016.49 17.8438H1018.39V14.3574C1018.48 14.4531 1018.57 14.5397 1018.67 14.6172C1018.76 14.6947 1018.86 14.7653 1018.97 14.8291C1019.14 14.9294 1019.33 15.0046 1019.54 15.0547C1019.75 15.1094 1019.98 15.1367 1020.22 15.1367C1020.69 15.1367 1021.1 15.041 1021.46 14.8496C1021.82 14.6582 1022.12 14.3939 1022.37 14.0566C1022.61 13.724 1022.79 13.3275 1022.92 12.8672C1023.04 12.4069 1023.11 11.9079 1023.11 11.3701V11.2266C1023.11 10.666 1023.04 10.1556 1022.92 9.69531C1022.79 9.23047 1022.61 8.83171 1022.36 8.49902C1022.12 8.1709 1021.81 7.91797 1021.45 7.74023C1021.09 7.55794 1020.68 7.4668 1020.21 7.4668C1019.98 7.4668 1019.77 7.49186 1019.57 7.54199C1019.37 7.58757 1019.19 7.65365 1019.03 7.74023C1018.89 7.81315 1018.76 7.89974 1018.64 8C1018.53 8.0957 1018.42 8.20508 1018.32 8.32812L1018.25 7.60352H1016.49V17.8438ZM1021.21 11.2266V11.3701C1021.21 11.6755 1021.18 11.9648 1021.13 12.2383C1021.07 12.5072 1020.98 12.7441 1020.87 12.9492C1020.75 13.1543 1020.59 13.3161 1020.4 13.4346C1020.21 13.5531 1019.99 13.6123 1019.72 13.6123C1019.55 13.6123 1019.4 13.5964 1019.26 13.5645C1019.12 13.528 1019 13.4779 1018.9 13.4141C1018.79 13.3457 1018.69 13.2637 1018.6 13.168C1018.52 13.0723 1018.45 12.9652 1018.39 12.8467V9.75684C1018.46 9.62923 1018.53 9.51758 1018.62 9.42188C1018.71 9.32617 1018.81 9.24642 1018.93 9.18262C1019.04 9.12793 1019.15 9.08691 1019.28 9.05957C1019.41 9.02767 1019.55 9.01172 1019.7 9.01172C1019.97 9.01172 1020.2 9.06868 1020.39 9.18262C1020.58 9.29655 1020.74 9.4515 1020.86 9.64746C1020.98 9.84798 1021.06 10.085 1021.12 10.3584C1021.18 10.6273 1021.21 10.9167 1021.21 11.2266ZM1035.19 9.18945V10.666H1036.23C1036.49 10.666 1036.72 10.6956 1036.92 10.7549C1037.13 10.8141 1037.31 10.9053 1037.46 11.0283C1037.61 11.1514 1037.72 11.3086 1037.8 11.5C1037.88 11.6914 1037.92 11.9215 1037.92 12.1904C1037.92 12.4046 1037.88 12.5983 1037.81 12.7715C1037.75 12.9447 1037.65 13.0905 1037.53 13.209C1037.39 13.3411 1037.23 13.4414 1037.03 13.5098C1036.84 13.5781 1036.62 13.6123 1036.37 13.6123C1036.15 13.6123 1035.95 13.5804 1035.77 13.5166C1035.59 13.4482 1035.43 13.3548 1035.3 13.2363C1035.16 13.1224 1035.06 12.9857 1034.98 12.8262C1034.91 12.6621 1034.87 12.4844 1034.87 12.293H1032.97C1032.97 12.776 1033.07 13.1953 1033.25 13.5508C1033.44 13.9062 1033.7 14.2002 1034.01 14.4326C1034.33 14.6696 1034.68 14.8473 1035.08 14.9658C1035.49 15.0798 1035.91 15.1367 1036.33 15.1367C1036.82 15.1367 1037.28 15.0729 1037.7 14.9453C1038.13 14.8132 1038.5 14.6217 1038.81 14.3711C1039.12 14.125 1039.36 13.8197 1039.54 13.4551C1039.72 13.0905 1039.81 12.6758 1039.81 12.2109C1039.81 11.9466 1039.78 11.696 1039.71 11.459C1039.65 11.222 1039.55 11.0033 1039.42 10.8027C1039.29 10.6068 1039.12 10.4313 1038.91 10.2764C1038.71 10.1214 1038.47 9.99382 1038.2 9.89355C1038.43 9.77962 1038.64 9.64518 1038.82 9.49023C1039.01 9.33073 1039.16 9.15755 1039.28 8.9707C1039.41 8.78385 1039.5 8.58789 1039.56 8.38281C1039.63 8.17318 1039.66 7.96126 1039.66 7.74707C1039.66 7.28223 1039.58 6.87435 1039.41 6.52344C1039.25 6.16797 1039.03 5.86947 1038.74 5.62793C1038.44 5.39095 1038.09 5.21322 1037.68 5.09473C1037.27 4.97168 1036.82 4.91016 1036.33 4.91016C1035.87 4.91016 1035.45 4.97624 1035.05 5.1084C1034.66 5.24056 1034.32 5.42513 1034.03 5.66211C1033.73 5.90365 1033.5 6.19076 1033.33 6.52344C1033.17 6.85612 1033.09 7.22526 1033.09 7.63086H1034.99C1034.99 7.44857 1035.03 7.28451 1035.1 7.13867C1035.17 6.99284 1035.27 6.86751 1035.4 6.7627C1035.52 6.66243 1035.67 6.58496 1035.83 6.53027C1036 6.47559 1036.18 6.44824 1036.37 6.44824C1036.6 6.44824 1036.81 6.48014 1036.98 6.54395C1037.16 6.60775 1037.3 6.69661 1037.42 6.81055C1037.53 6.92904 1037.61 7.07031 1037.67 7.23438C1037.73 7.39388 1037.76 7.57161 1037.76 7.76758C1037.76 7.9681 1037.73 8.15495 1037.67 8.32812C1037.61 8.49674 1037.53 8.6403 1037.42 8.75879C1037.29 8.89551 1037.13 9.0026 1036.93 9.08008C1036.73 9.15299 1036.5 9.18945 1036.23 9.18945H1035.19Z" fill="#6E6D6D"/>
<g filter="url(#filter2_d_6682_3527)">
<circle cx="1015.5" cy="50" r="20" fill="white"/>
</g>
<circle cx="1015.5" cy="50" r="3" fill="#603DEB"/>
<defs>
<filter id="filter0_d_6682_3527" x="132.5" y="8" width="100" height="100" filterUnits="userSpaceOnUse" color-interpolation-filters="sRGB">
<feFlood flood-opacity="0" result="BackgroundImageFix"/>
<feColorMatrix in="SourceAlpha" type="matrix" values="0 0 0 0 0 0 0 0 0 0 0 0 0 0 0 0 0 0 127 0" result="hardAlpha"/>
<feOffset dy="8"/>
<feGaussianBlur stdDeviation="15"/>
<feComposite in2="hardAlpha" operator="out"/>
<feColorMatrix type="matrix" values="0 0 0 0 0 0 0 0 0 0 0 0 0 0 0 0 0 0 0.08 0"/>
<feBlend mode="normal" in2="BackgroundImageFix" result="effect1_dropShadow_6682_3527"/>
<feBlend mode="normal" in="SourceGraphic" in2="effect1_dropShadow_6682_3527" result="shape"/>
</filter>
<filter id="filter1_d_6682_3527" x="547.5" y="8" width="100" height="100" filterUnits="userSpaceOnUse" color-interpolation-filters="sRGB">
<feFlood flood-opacity="0" result="BackgroundImageFix"/>
<feColorMatrix in="SourceAlpha" type="matrix" values="0 0 0 0 0 0 0 0 0 0 0 0 0 0 0 0 0 0 127 0" result="hardAlpha"/>
<feOffset dy="8"/>
<feGaussianBlur stdDeviation="15"/>
<feComposite in2="hardAlpha" operator="out"/>
<feColorMatrix type="matrix" values="0 0 0 0 0 0 0 0 0 0 0 0 0 0 0 0 0 0 0.08 0"/>
<feBlend mode="normal" in2="BackgroundImageFix" result="effect1_dropShadow_6682_3527"/>
<feBlend mode="normal" in="SourceGraphic" in2="effect1_dropShadow_6682_3527" result="shape"/>
</filter>
<filter id="filter2_d_6682_3527" x="965.5" y="8" width="100" height="100" filterUnits="userSpaceOnUse" color-interpolation-filters="sRGB">
<feFlood flood-opacity="0" result="BackgroundImageFix"/>
<feColorMatrix in="SourceAlpha" type="matrix" values="0 0 0 0 0 0 0 0 0 0 0 0 0 0 0 0 0 0 127 0" result="hardAlpha"/>
<feOffset dy="8"/>
<feGaussianBlur stdDeviation="15"/>
<feComposite in2="hardAlpha" operator="out"/>
<feColorMatrix type="matrix" values="0 0 0 0 0 0 0 0 0 0 0 0 0 0 0 0 0 0 0.08 0"/>
<feBlend mode="normal" in2="BackgroundImageFix" result="effect1_dropShadow_6682_3527"/>
<feBlend mode="normal" in="SourceGraphic" in2="effect1_dropShadow_6682_3527" result="shape"/>
</filter>
</defs>
</svg>
