<svg width="32" height="32" viewBox="0 0 32 32" fill="none" xmlns="http://www.w3.org/2000/svg">
<path d="M28 12.889V15.3505H4V12.889H28ZM21.1972 4.40039H25.3594V19.371C25.3594 21.012 24.9716 22.4554 24.1958 23.7011C23.42 24.9468 22.3347 25.9202 20.9399 26.6214C19.545 27.3151 17.9152 27.6619 16.0504 27.6619C14.1855 27.6619 12.5557 27.3151 11.1608 26.6214C9.76597 25.9202 8.68065 24.9468 7.9049 23.7011C7.1366 22.4554 6.75245 21.012 6.75245 19.371V4.40039H10.9035V19.0242C10.9035 19.9789 11.1124 20.8293 11.5301 21.5752C11.9552 22.3211 12.552 22.9067 13.3203 23.3319C14.096 23.7496 15.0061 23.9584 16.0504 23.9584C17.1021 23.9584 18.0121 23.7496 18.7804 23.3319C19.5562 22.9067 20.1529 22.3211 20.5706 21.5752C20.9883 20.8293 21.1972 19.9789 21.1972 19.0242V4.40039Z" fill="white"/>
</svg>
