<svg width="226" height="217" viewBox="0 0 226 217" fill="none" xmlns="http://www.w3.org/2000/svg">
<path d="M169.293 122.994C138.193 105.04 87.8069 105.04 56.7071 122.994C25.6073 140.948 25.6074 170.036 56.7071 187.99C87.8069 205.944 138.193 205.944 169.293 187.99C200.393 170.036 200.393 140.948 169.293 122.994ZM146.319 169.489L142.566 167.323L132.156 173.333C119.135 180.85 97.3033 180.529 83.5645 172.598C69.7279 164.61 69.1079 151.969 82.1287 144.452L92.5388 138.442L88.7533 136.257L95.3779 132.432L99.1634 134.618L113.065 126.592L126.967 134.618L113.065 142.643L135.289 155.473L149.191 147.447L163.093 155.473L149.191 163.499L152.943 165.665L146.319 169.489ZM96.0306 152.478C89.8628 156.038 89.8628 161.841 96.0306 165.401C102.198 168.962 112.086 168.868 118.254 165.307L128.664 159.297L106.441 146.468L96.0306 152.478Z" fill="#B54149"/>
<circle r="42.3913" transform="matrix(0.866044 0.499967 -0.866044 0.499967 113 151.492)" fill="white"/>
<path d="M169.293 118.994C138.193 101.04 87.8069 101.04 56.7071 118.994C25.6073 136.948 25.6074 166.036 56.7071 183.99C87.8069 201.944 138.193 201.944 169.293 183.99C200.393 166.036 200.393 136.948 169.293 118.994ZM146.319 165.489L142.566 163.323L132.156 169.333C119.135 176.85 97.3033 176.529 83.5645 168.598C69.7279 160.61 69.1079 147.969 82.1287 140.452L92.5388 134.442L88.7533 132.257L95.3779 128.432L99.1634 130.618L113.065 122.592L126.967 130.618L113.065 138.643L135.289 151.473L149.191 143.447L163.093 151.473L149.191 159.499L152.943 161.665L146.319 165.489ZM96.0306 148.478C89.8628 152.038 89.8628 157.841 96.0306 161.401C102.198 164.962 112.086 164.868 118.254 161.307L128.664 155.297L106.441 142.468L96.0306 148.478Z" fill="#FF6771"/>
<path d="M169.293 80.0023C138.193 62.0484 87.8069 62.0484 56.7071 80.0023C25.6073 97.9562 25.6074 127.044 56.7071 144.998C87.8069 162.952 138.193 162.952 169.293 144.998C200.393 127.044 200.393 97.9562 169.293 80.0023ZM146.319 126.498L142.566 124.331L132.156 130.341C119.135 137.858 97.3033 137.538 83.5645 129.606C69.7279 121.618 69.1079 108.977 82.1287 101.46L92.5388 95.4505L88.7533 93.2652L95.3779 89.4408L99.1634 91.6262L113.065 83.6006L126.967 91.6261L113.065 99.6517L135.289 112.481L149.191 104.456L163.093 112.481L149.191 120.507L152.943 122.673L146.319 126.498ZM96.0306 109.486C89.8628 113.046 89.8628 118.849 96.0306 122.41C102.198 125.97 112.086 125.876 118.254 122.315L128.664 116.306L106.441 103.476L96.0306 109.486Z" fill="#B54149"/>
<circle r="42.3913" transform="matrix(0.866044 0.499967 -0.866044 0.499967 113 108.5)" fill="white"/>
<path d="M169.293 76.0023C138.193 58.0484 87.8069 58.0484 56.7071 76.0023C25.6073 93.9562 25.6074 123.044 56.7071 140.998C87.8069 158.952 138.193 158.952 169.293 140.998C200.393 123.044 200.393 93.9562 169.293 76.0023ZM146.319 122.498L142.566 120.331L132.156 126.341C119.135 133.858 97.3033 133.538 83.5645 125.606C69.7279 117.618 69.1079 104.977 82.1287 97.4603L92.5388 91.4505L88.7533 89.2652L95.3779 85.4408L99.1634 87.6262L113.065 79.6006L126.967 87.6261L113.065 95.6517L135.289 108.481L149.191 100.456L163.093 108.481L149.191 116.507L152.943 118.673L146.319 122.498ZM96.0306 105.486C89.8628 109.046 89.8628 114.849 96.0306 118.41C102.198 121.97 112.086 121.876 118.254 118.315L128.664 112.306L106.441 99.4761L96.0306 105.486Z" fill="#FF6771"/>
<path d="M169.293 37.0106C138.193 19.0567 87.8069 19.0567 56.7071 37.0106C25.6073 54.9645 25.6074 84.0524 56.7071 102.006C87.8069 119.96 138.193 119.96 169.293 102.006C200.393 84.0524 200.393 54.9645 169.293 37.0106ZM146.319 83.5061L142.566 81.3396L132.156 87.3493C119.135 94.8662 97.3033 94.5459 83.5645 86.6146C69.7279 78.6267 69.1079 65.9855 82.1287 58.4686L92.5388 52.4588L88.7533 50.2735L95.3779 46.4491L99.1634 48.6345L113.065 40.6089L126.967 48.6344L113.065 56.66L135.289 69.4896L149.191 61.464L163.093 69.4896L149.191 77.5152L152.943 79.6817L146.319 83.5061ZM96.0306 66.4942C89.8628 70.0548 89.8628 75.8573 96.0306 79.4179C102.198 82.9786 112.086 82.8844 118.254 79.3238L128.664 73.314L106.441 60.4844L96.0306 66.4942Z" fill="#B54149"/>
<circle r="42.3913" transform="matrix(0.866044 0.499967 -0.866044 0.499967 113 65.5087)" fill="white"/>
<path d="M169.293 33.0106C138.193 15.0567 87.8069 15.0567 56.7071 33.0106C25.6073 50.9645 25.6074 80.0524 56.7071 98.0063C87.8069 115.96 138.193 115.96 169.293 98.0063C200.393 80.0524 200.393 50.9645 169.293 33.0106ZM146.319 79.5061L142.566 77.3396L132.156 83.3493C119.135 90.8662 97.3033 90.5459 83.5645 82.6146C69.7279 74.6267 69.1079 61.9855 82.1287 54.4686L92.5388 48.4588L88.7533 46.2735L95.3779 42.4491L99.1634 44.6345L113.065 36.6089L126.967 44.6344L113.065 52.66L135.289 65.4896L149.191 57.464L163.093 65.4896L149.191 73.5152L152.943 75.6817L146.319 79.5061ZM96.0306 62.4942C89.8628 66.0548 89.8628 71.8573 96.0306 75.4179C102.198 78.9786 112.086 78.8844 118.254 75.3238L128.664 69.314L106.441 56.4844L96.0306 62.4942Z" fill="#FF6771"/>
</svg>
