<svg width="64" height="77" viewBox="0 0 64 77" fill="none" xmlns="http://www.w3.org/2000/svg">
<path fill-rule="evenodd" clip-rule="evenodd" d="M59.2 77H4.8C2.1536 77 0 74.8392 0 72.1859V30.4776C0 27.8243 2.1536 25.6667 4.8 25.6667H12.8V19.2484C12.8 8.63362 21.4128 0 32 0C42.5872 0 51.2 8.63362 51.2 19.2484V25.6667H59.2C61.8464 25.6667 64 27.8243 64 30.4776V72.1859C64 74.8392 61.8464 77 59.2 77ZM32 3.20833C23.1776 3.20833 16 10.403 16 19.2484V25.6667H48V19.2484C48 10.403 40.8224 3.20833 32 3.20833ZM60.8 30.4776C60.8 29.5921 60.0816 28.8734 59.2 28.8734H4.8C3.9184 28.8734 3.2 29.5921 3.2 30.4776V72.1859C3.2 73.0714 3.9184 73.7917 4.8 73.7917H59.2C60.0816 73.7917 60.8 73.0714 60.8 72.1859V30.4776ZM33.6 51.0366V59.3526C33.6 60.2397 32.8832 60.9567 32 60.9567C31.1168 60.9567 30.4 60.2397 30.4 59.3526V51.0366C28.5408 50.3724 27.2 48.6079 27.2 46.5192C27.2 43.8643 29.3536 41.7067 32 41.7067C34.6464 41.7067 36.8 43.8643 36.8 46.5192C36.8 48.6079 35.4576 50.3724 33.6 51.0366ZM32 44.9151C31.1184 44.9151 30.4 45.6353 30.4 46.5192C30.4 47.4031 31.1184 48.125 32 48.125C32.8816 48.125 33.6 47.4031 33.6 46.5192C33.6 45.6353 32.8816 44.9151 32 44.9151Z" fill="#A6A6A6"/>
</svg>
