<svg width="64" height="49" viewBox="0 0 64 49" fill="none" xmlns="http://www.w3.org/2000/svg">
<path fill-rule="evenodd" clip-rule="evenodd" d="M52.192 17.2936H55.2727C60.0858 17.2936 64 13.4155 64 8.64825C64 3.87953 60.0858 0 55.2727 0H49.4545H48.7273H2.90909C1.30473 0 0 1.29558 0 2.88227V13.8637C0 13.9262 0.0158405 13.9839 0.0317478 14.0418C0.0404205 14.0733 0.0491142 14.105 0.0552731 14.1375C0.0491524 14.1699 0.0405293 14.2013 0.0319099 14.2328C0.0159473 14.291 0 14.3491 0 14.4128C0 28.716 11.7455 40.3532 26.1818 40.3532C39.6335 40.3532 50.7389 30.2451 52.192 17.2936ZM48.7273 2.88227H49.4545V13.8637C49.4545 13.9673 49.4773 14.0656 49.4996 14.1624L49.5025 14.175C49.4975 14.2062 49.4892 14.236 49.4809 14.2659C49.4677 14.3133 49.4545 14.3606 49.4545 14.4128C49.4545 21.4536 46.2524 27.7674 41.2154 32H11.1483C6.11121 27.7674 2.90909 21.4536 2.90909 14.4128C2.90909 14.3491 2.89314 14.291 2.87718 14.2327C2.86856 14.2013 2.85994 14.1699 2.85382 14.1375C2.85997 14.105 2.86867 14.0733 2.87734 14.0418C2.89325 13.9839 2.90909 13.9262 2.90909 13.8637V2.88227H48.7273ZM52.3636 2.88227H55.2727C58.4815 2.88227 61.0909 5.4691 61.0909 8.64825C61.0909 11.8259 58.4815 14.4128 55.2727 14.4128H52.3636C52.3636 14.3477 52.3469 14.2883 52.3302 14.2287C52.3217 14.1986 52.3133 14.1685 52.3069 14.1375C52.3131 14.1098 52.3208 14.0825 52.3285 14.0552C52.3461 13.993 52.3636 13.9308 52.3636 13.8637V2.88227ZM52.3636 47.5574C52.3636 46.7619 51.7135 46.1163 50.9091 46.1163H1.45455C0.650183 46.1163 0 46.7619 0 47.5574C0 48.3544 0.650183 49 1.45455 49H50.9091C51.7135 49 52.3636 48.3544 52.3636 47.5574Z" fill="#C4C4C4"/>
</svg>
