<svg xmlns="http://www.w3.org/2000/svg" width="72" height="67" viewBox="0 0 72 67">
    <path fill="#A6A6A6" fill-rule="evenodd" d="M65.9 67H6.1C2.737 67 0 64.276 0 60.926V19.491c0-3.35 2.66-6.254 6.024-6.254H9.09V5.288c0-1.651.682-3.158 1.875-4.136 1.19-.979 2.803-1.358 4.43-1.044l50.703 6.704c5.352 1.168 5.85 4.464 5.896 4.992v.006c.003.03.003.053.004.062v1.542c0 .002.002.002.002.003v47.51C72 64.275 69.263 67 65.9 67zm-.322-57.25L14.91 3.055c-.843-.158-1.535-.01-2.037.402-.505.415-.784 1.066-.784 1.832v7.949h51.074c2.779 0 5.082-.478 5.756-1.513-.197-.424-.895-1.437-3.341-1.973zm3.42 5.68c-1.393.638-3.652.792-5.835.792H6.023C4.315 16.222 3 17.79 3 19.492v41.434a3.097 3.097 0 0 0 3.1 3.087h59.8c1.71 0 3.099-1.384 3.099-3.087V15.43zM12.002 44.781c-2.483 0-4.5-2.009-4.5-4.48 0-2.47 2.017-4.481 4.5-4.481 2.48 0 4.499 2.01 4.499 4.48 0 2.472-2.018 4.48-4.5 4.48zm0-5.973c-.829 0-1.5.67-1.5 1.492 0 .825.671 1.494 1.5 1.494.827 0 1.499-.67 1.499-1.494 0-.823-.672-1.492-1.5-1.492z"/>
</svg>
