<svg width="136" height="124" viewBox="0 0 136 124" fill="none" xmlns="http://www.w3.org/2000/svg">
<path d="M90.0456 15.7666C87.3156 13.9475 81.7702 2.50393 79.4609 2.04186C76.3873 1.42785 68.0432 7.74904 65.1591 9.18937C58.0436 12.7465 51.1801 17.6461 44.5644 22.0566C42.8339 23.2097 40.6557 23.3075 38.842 24.344C34.2628 26.9603 29.6878 29.4684 25.2544 32.3491C18.1785 36.9469 11.3733 41.22 5.37396 47.2165C3.00838 49.5809 0.630315 54.2745 2.94384 57.509C10.43 67.9888 28.226 53.6126 34.9813 50.0763C38.0049 48.4924 41.4179 47.1832 44.1333 45.0726C46.7592 43.0329 49.6683 41.4802 52.4295 39.6402C63.5098 32.2575 75.4919 26.0258 86.4702 18.4828C89.3585 16.4972 93.9147 11.0147 98.0545 12.0492C99.3164 12.3635 99.8099 14.9486 100.343 15.9081C102.415 19.638 105.143 23.2159 107.065 27.0602C109.955 32.8361 114.532 37.7711 117.793 43.3576C120.981 48.8212 123.774 54.5035 126.945 59.9401C128.949 63.3702 133.009 66.6526 133.811 70.6613C134.571 74.4536 127.537 78.2751 125.23 79.8111C115.045 86.5986 103.904 91.8041 93.7647 98.6811C86.2557 103.774 77.922 107.602 70.3088 112.549C67.306 114.5 58.6912 121.447 55.147 121.841C42.9651 123.194 42.1717 115.686 35.6955 108.403C28.6467 100.477 24.7734 90.6948 18.8178 82.0986C13.5244 74.4536 7.91034 66.5839 3.8018 58.3686" stroke="#020207" stroke-width="4" stroke-miterlimit="10" stroke-linecap="round" stroke-linejoin="round"/>
<path d="M111.174 33.5173C108.869 33.5173 106.686 35.759 104.596 36.8039C98.2965 39.9509 88.8466 43.5746 86.7163 50.6722C84.484 58.109 91.8952 68.0727 100.304 64.2533C104.008 62.5695 107.663 60.4548 111.174 58.3921C115.299 55.9652 118.956 54.0441 122.331 50.6722" stroke="#020207" stroke-width="4" stroke-miterlimit="10" stroke-linecap="round" stroke-linejoin="round"/>
<path d="M95.6425 52.3666C89.1559 53.9859 97.3085 59.9803 98.789 54.7956C99.4721 52.4103 94.9262 51.5611 93.9267 53.2241C92.1483 56.1859 95.9049 56.7375 97.7895 55.7967" stroke="#020207" stroke-width="4" stroke-miterlimit="10" stroke-linecap="round" stroke-linejoin="round"/>
<path d="M11.9805 53.4166C11.512 53.8849 15.1957 52.124 15.6976 51.8451C17.4343 50.8814 19.1314 49.9656 20.8473 48.9853C25.8492 46.1296 31.2321 43.2656 36.4381 40.8366C47.0478 35.8871 56.7184 29.264 66.9012 23.5381C71.2138 21.1133 76.1636 16.2116 80.7761 14.6755" stroke="#020207" stroke-width="4" stroke-miterlimit="10" stroke-linecap="round" stroke-linejoin="round"/>
</svg>
