<svg width="265" height="302" viewBox="0 0 265 302" fill="none" xmlns="http://www.w3.org/2000/svg">
<g clip-path="url(#clip0_2666_82432)">
<rect width="265" height="302" rx="16" fill="#FFF7E8"/>
<path d="M158.017 247.832C168.923 250.966 193.505 250.911 201.245 238.245C214.665 216.279 186.306 183.15 169.415 173.021C117.369 141.798 46.4324 106.653 -10.3112 147.939C-24.8308 158.503 -37.3321 173.559 -41.2856 191.625C-52.1402 241.223 -1.84268 315.45 32.4962 348.556C47.7125 363.226 70.1165 386.595 91.8729 369.027C105.502 358.021 103.861 338.59 95.0439 325.286C94.4971 324.461 85.8384 310.564 85.6993 310.708C84.7502 311.693 96.3779 326.343 96.9068 327.082C104.115 337.095 120.07 352.814 132.25 343.326C147.454 331.482 141.475 312.333 135.379 297.317C133.087 291.667 126.013 281.605 126.013 281.605C126.013 281.605 135.591 292.54 142.146 294.921C184.472 310.319 168.175 249.431 158.017 247.832Z" fill="#F19077"/>
<path d="M81.3387 251.533C88.6954 247.861 90.9211 237.048 92.8516 229.986C96.0297 218.351 101.962 207.322 109.799 198.383C112.253 195.582 120.302 184.199 124.188 184.975C125.652 185.268 123.674 188.534 123.229 189.125C120.463 192.807 115.485 195.764 112.037 198.861C111.007 199.787 109.768 200.545 108.68 201.415C108.267 201.744 107.061 202.366 107.56 202.533C108.881 202.972 113.283 198.097 114.115 197.265C118.172 193.216 121.932 187.255 127.226 184.816C128.847 184.069 132.232 181.968 133.302 184.816C134.325 187.537 130.642 190.366 129.144 191.998C125.69 195.761 122.119 197.506 118.273 200.298C115.493 202.316 113.666 205.37 110.918 207.48C108.674 209.204 106.758 211.393 104.522 213.067C103.757 213.64 103.175 213.864 102.604 214.663C102.295 215.096 101.168 216.178 101.645 215.94C104.49 214.519 107.378 210.316 109.799 208.119C113.525 204.738 117.812 202.198 121.63 199.021C123.035 197.852 127.258 194.603 129.306 195.829C132.118 197.514 127.892 201.907 126.907 203.171C124.484 206.282 123.054 204.535 120.351 205.884C116.851 207.632 115.576 210.145 114.115 213.546C112.236 217.923 113.233 223.161 110.278 226.953C109.233 228.295 108.414 229.863 107.719 231.422C107.44 232.054 106.702 233.994 106.922 233.337C107.829 230.616 110.017 228.374 110.918 225.676C112.614 220.6 112.914 214.587 116.833 210.673C119.545 207.966 122.924 204.737 125.628 209.236C127.826 212.893 121.132 222.079 120.192 225.836C118.452 232.782 120.336 240.753 118.912 247.862C118.409 250.374 114.881 255.213 113.156 257.279C110.702 260.22 105.315 261.826 102.125 264.142C99.1787 266.28 95.0602 268.097 93.0112 271.165C92.9168 271.306 92.4175 272.174 92.2115 272.123C91.6727 271.988 91.187 266.386 90.9331 265.738C89.7301 262.683 87.9678 259.626 86.2963 256.8C85.265 255.058 84.0208 253.738 82.4575 252.491C82.3374 252.395 81.2426 251.527 81.0195 251.214C80.7964 250.902 80.3794 249.872 80.3794 250.256C80.3794 252.105 85.3216 256.173 86.2963 257.758C89.725 263.343 92.0108 270.489 91.5715 277.071C91.3707 280.092 91.2402 280.04 88.8532 281.061C88.1308 281.37 87.6949 281.819 87.0943 282.178C86.8025 282.354 85.9548 282.817 86.2963 282.817C88.1102 282.817 88.3367 287.671 86.6155 288.243C85.2924 288.684 82.612 287.65 81.0195 288.084C78.6204 288.737 75.9468 290.498 73.5049 291.436C72.6572 291.761 71.7974 292.075 70.9463 292.393C70.5207 292.553 69.3452 293.194 69.6678 292.872C70.4452 292.096 74.145 288.862 74.145 287.605C74.145 287.225 70.0659 291.114 69.8274 290.638C68.9059 288.797 70.4538 285.354 69.987 283.295C68.5764 277.055 61.6024 271.927 59.1158 265.898C58.8721 265.31 56.6739 262.823 57.1956 262.227C61.0652 257.813 68.8818 254.791 74.145 252.65C75.5075 252.096 79.2108 251.903 80.2198 250.895C80.9131 250.203 78.3973 251.615 77.5016 252.012C76.127 252.622 74.7147 253.146 73.3453 253.767C68.4992 255.966 63.3047 259.984 58.1565 261.269C57.108 261.531 55.6597 260.219 54.6386 259.992C52.8231 259.59 49.0872 259.632 47.2837 259.992C41.1471 261.217 34.8852 267.734 29.6959 271.006C28.5427 271.732 25.471 272.773 24.8995 274.198C24.6867 274.73 26.0201 273.877 26.4989 273.559C27.3809 272.972 30.0305 270.762 28.7366 269.729C26.0596 267.59 18.3202 270.207 15.1472 270.207C13.2355 270.207 11.9983 270.821 10.3491 271.644C9.94244 271.847 8.69145 271.871 9.07069 272.123C9.90126 272.676 12.0463 272.295 12.9078 272.123" stroke="#020207" stroke-width="4" stroke-miterlimit="10" stroke-linecap="round" stroke-linejoin="round"/>
<path d="M70.4229 286.987C69.8583 289.241 71.0441 292.068 69.4636 294.01C66.2787 297.923 63.9225 294.779 60.1901 295.925C56.5795 297.034 54.6987 301.091 51.3954 302.629C47.5874 304.403 43.2733 303.415 39.4053 304.864C34.3619 306.752 29.756 311.019 25.3337 313.962C24.9528 314.215 25.8468 313.202 26.1334 312.844" stroke="#020207" stroke-width="4" stroke-miterlimit="10" stroke-linecap="round" stroke-linejoin="round"/>
<path d="M66.7535 280.784C53.0474 289.905 36.1872 293.657 23.2637 304.407" stroke="#020207" stroke-width="4" stroke-miterlimit="10" stroke-linecap="round" stroke-linejoin="round"/>
<path d="M123.009 262.277C122.102 261.371 122.455 258.556 122.21 257.329C121.204 252.306 119.013 248.528 119.013 243.283" stroke="#020207" stroke-width="4" stroke-miterlimit="10" stroke-linecap="round" stroke-linejoin="round"/>
<path d="M120.211 229.128C119.365 226.594 123.195 214.615 127.566 216.36C128.752 216.833 128.205 220.36 128.205 221.308C128.205 226.033 127.966 230.685 128.685 235.353C128.778 235.961 129.629 241.259 130.284 241.259C131.434 241.259 129.71 239.033 129.485 237.907C129.33 237.142 127.863 231.385 128.685 230.565C129.032 230.218 129.244 231.397 129.644 231.682C130.986 232.64 132.743 234.358 133.481 235.832C133.845 236.557 133.867 238.64 134.441 238.067C134.863 237.646 133.907 237.003 133.641 236.471C132.042 233.277 129.987 229.517 128.845 226.096C127.781 222.912 127.933 219.267 128.366 216.04C128.644 213.949 126.375 213.068 126.607 210.295C126.924 206.484 129.141 203.136 129.963 199.441C130.435 197.322 131.283 190.75 134.121 190.183C136.634 189.682 136.289 195.31 136.2 196.728C135.826 202.688 134.921 208.789 134.921 214.764C134.921 217.125 134.921 219.429 134.921 221.787C134.921 222.746 134.76 225.619 134.76 224.66C134.76 221.843 134.688 219.015 134.76 216.2C134.938 209.249 135.345 202.221 135.88 195.291C136.033 193.305 134.116 191.075 134.6 189.385C134.983 188.05 138.065 185.266 139.397 185.076C143.397 184.506 140.836 198.106 140.836 200.399C140.836 202.561 141.996 204.373 141.476 206.623C140.725 209.874 140.684 213.061 141.156 216.36C141.216 216.776 142.232 221.308 141.315 221.308C141.013 221.308 140.419 219.533 139.717 219.392C134.487 218.348 133.962 225.814 133.962 229.448C133.962 234.192 138.803 238.227 140.517 242.217C142.117 245.943 142.053 250.585 143.074 254.666C143.851 257.768 146.518 260.301 146.911 263.445C147.186 265.639 142.983 273.433 141.476 274.937C141.001 275.411 139.951 274.913 139.397 275.097C137.765 275.64 135.458 278.873 134.441 280.045C129.874 285.305 126.773 292.209 122.77 297.921C120.53 301.114 117.642 303.82 115.415 307.019C112.247 311.565 109.287 318.761 103.902 321.064" stroke="#020207" stroke-width="4" stroke-miterlimit="10" stroke-linecap="round" stroke-linejoin="round"/>
<path d="M122.362 261.649C121.45 259.828 121.085 257.941 119.643 256.382C119.041 255.73 118.125 255.299 117.406 254.786C117.153 254.606 116.328 254.168 116.606 254.307C120.081 256.041 122.365 259.546 121.883 263.405C121.56 265.979 117.311 267.593 115.647 269.151C109.536 274.87 103.643 281.348 98.0589 287.666C93.6195 292.688 81.8182 300.066 79.6731 305.542C79.2458 306.629 76.622 313.437 76.7953 313.523" stroke="#020207" stroke-width="4" stroke-miterlimit="10" stroke-linecap="round" stroke-linejoin="round"/>
<path d="M116.642 267.849C116.244 268.645 119.925 267.661 120.319 267.53C122.444 266.823 124.582 265.874 126.555 265.136" stroke="#020207" stroke-width="4" stroke-miterlimit="10" stroke-linecap="round" stroke-linejoin="round"/>
<path d="M154.391 268.387C152.17 268.387 148.218 263.419 147.197 261.524C145.941 259.195 145.999 256.037 144.958 253.543C142.047 246.568 140.043 238.926 136.165 232.475C135.137 230.764 135.037 225.094 136.484 223.856C143.43 217.912 147.947 234.058 149.754 239.019C150.511 241.095 155.256 246.905 154.072 245.722" stroke="#020207" stroke-width="4" stroke-miterlimit="10" stroke-linecap="round" stroke-linejoin="round"/>
<path d="M143.272 222.751C142.454 223.16 142.111 216.654 142.154 215.888C142.601 207.859 141.102 200.136 143.113 192.106C143.365 191.1 143.923 184.032 145.991 184.445C147.225 184.691 147.568 189.277 147.75 190.191C148.839 195.631 147.775 201.209 149.03 206.631C149.95 210.614 151.019 214.783 151.587 218.761C151.763 219.988 152.275 221.285 152.707 222.432C152.716 222.455 153.174 224.028 153.027 224.028C152.74 224.028 152.797 223.502 152.707 223.23C151.863 220.703 150.674 218.078 150.468 215.409C149.799 206.732 147.271 197.935 147.271 189.233C147.271 187.498 145.406 182.286 147.909 181.572C149.807 181.031 150.018 186.499 150.149 187.477C151.22 195.501 153.617 202.767 155.585 210.621C156.297 213.465 156.465 216.637 157.504 219.4C157.861 220.349 158.396 221.31 158.782 222.273C159.009 222.836 159.805 224.299 159.263 224.028C157.759 223.278 157.77 219.278 157.183 217.963C154.034 210.891 151.592 203.341 150.948 195.618C150.866 194.647 150.344 185.874 153.346 187.158C154.171 187.511 158.461 198.474 158.623 199.927C159.891 211.318 160.567 222.897 164.859 233.605C165.526 235.271 170.671 246.36 170.293 247.491C168.993 251.387 165.83 257.554 162.779 260.26C160.23 262.522 156.019 264.355 154.626 267.602C154.468 267.968 143.779 273.623 147.75 274.944C149.129 275.403 151.585 271.938 152.546 271.273C153.375 270.7 154.465 271.179 155.424 270.156C160.208 265.062 163.295 258.947 168.215 254.035C169.264 252.988 171.714 247.247 173.332 247.651C179.872 249.283 181.431 259.868 186.122 263.771C188.628 265.856 192.621 268.647 195.715 269.677C197.63 270.314 200.673 268.48 202.27 269.677C203.132 270.321 201.047 271.224 201.151 271.752C201.362 272.805 203.729 270.571 204.029 272.071C204.261 273.22 200.197 277.594 199.554 278.296C196.156 281.995 193.192 285.956 189.959 289.788C187.833 292.309 185.482 294.391 183.244 296.811C182.911 297.172 179.821 301.182 179.567 300.801C178.343 298.967 179.533 295.35 177.329 293.778C176.409 293.123 175.786 295.694 175.411 295.694C173.926 295.694 172.636 289.979 171.893 288.99C170.058 286.547 166.101 284.237 163.738 282.127C160.732 279.441 157.481 277.705 153.986 275.742C152.936 275.152 151.877 274.931 150.787 274.465C150.49 274.338 149.538 274.161 149.828 274.306C153.011 275.895 156.943 275.218 160.381 277.338C163.707 279.389 166.681 283.043 170.453 284.202C172.148 284.722 168.395 282.049 171.253 282.286C174.118 282.525 177.95 285.562 180.047 287.394C183.586 290.486 181.443 293.796 181.966 297.449C182.392 300.426 188.353 304.455 189.8 307.345C190.352 308.448 190.668 310.975 191.718 311.814C193.179 312.98 195.787 312.257 197.474 312.932C200.774 314.249 201.865 319.907 203.87 322.508C205.349 324.427 207.87 324.631 209.787 325.86C212.512 327.61 214.89 331.43 216.821 334" stroke="#020207" stroke-width="4" stroke-miterlimit="10" stroke-linecap="round" stroke-linejoin="round"/>
<path d="M202.758 274.581C205.495 280.047 209.861 279.426 214.75 280.646C215.65 280.871 214.326 282.298 214.909 282.881C216.227 284.197 218.635 286.337 220.346 287.19C223.06 288.546 225.389 290.318 228.02 291.819C229.715 292.787 231.891 292.235 233.616 293.096C235.162 293.867 236.236 296.734 237.772 297.884C242.562 301.47 250.414 304.805 256 306.663" stroke="#020207" stroke-width="4" stroke-miterlimit="10" stroke-linecap="round" stroke-linejoin="round"/>
<path d="M214.365 281.489C212.374 287.454 211.369 293.399 208.29 299.046C207.379 300.72 203.875 305.26 204.932 303.675" stroke="#020207" stroke-width="4" stroke-miterlimit="10" stroke-linecap="round" stroke-linejoin="round"/>
<path d="M232.057 293.613C231.168 300.716 228.72 306.677 224.224 312.288" stroke="#020207" stroke-width="4" stroke-miterlimit="10" stroke-linecap="round" stroke-linejoin="round"/>
<path d="M101.925 207.665C104.404 202.717 103.045 193.712 103.045 188.193C103.045 187.162 102.474 182.143 104.483 181.808C108.83 181.085 105.909 195.033 105.762 196.492C105.638 197.725 105.46 198.929 105.283 200.163C105.208 200.693 104.954 202.267 105.124 201.76C106.27 198.325 105.553 193.156 108.641 190.587C109.419 189.94 110.289 189.839 111.039 190.587C111.682 191.23 111.998 193.141 111.998 193.141C111.998 193.141 111.632 191.053 110.879 190.427C110.366 190.001 107.591 188.591 107.521 188.033C107.131 184.921 105.861 178.337 109.92 177.18C111.509 176.726 111.82 186.356 111.998 187.874C112.104 188.773 111.516 191.227 112.158 190.587C113.628 189.12 110.963 183.86 112.638 182.606C113.081 182.275 113.304 182.872 113.438 183.085C115.152 185.826 114.876 188.455 114.876 191.545" stroke="#020207" stroke-width="4" stroke-miterlimit="10" stroke-linecap="round" stroke-linejoin="round"/>
<path d="M117.06 189.003C116.291 186.701 118.402 179.176 119.299 176.713C119.402 176.431 121.793 172.967 122.337 174.957C123.244 178.277 122.124 182.356 122.817 185.811" stroke="#020207" stroke-width="4" stroke-miterlimit="10" stroke-linecap="round" stroke-linejoin="round"/>
<path d="M125.523 185.501C125.523 183.858 125.008 165.611 130.321 168.263C133.537 169.869 131.759 180.399 131.759 183.107" stroke="#020207" stroke-width="4" stroke-miterlimit="10" stroke-linecap="round" stroke-linejoin="round"/>
<path d="M132.853 183.487C132.853 181.566 137.029 170.756 139.569 175.825C141.028 178.739 139.569 182.824 139.569 185.881" stroke="#020207" stroke-width="4" stroke-miterlimit="10" stroke-linecap="round" stroke-linejoin="round"/>
<path d="M97.1035 218.158C96.4755 216.589 95.8011 215.085 94.2257 214.168C90.2016 211.824 92.3072 230.034 92.3072 231.087" stroke="#020207" stroke-width="4" stroke-miterlimit="10" stroke-linecap="round" stroke-linejoin="round"/>
<path d="M105.314 262.738C105.314 265.469 107.016 268.234 107.232 271.038C107.461 273.991 106.273 276.39 106.273 279.178" stroke="#020207" stroke-width="4" stroke-miterlimit="10" stroke-linecap="round" stroke-linejoin="round"/>
<path d="M131.794 284.026C131.285 284.281 131.475 284.067 131.475 284.824C131.475 286.662 131.482 299.197 132.115 299.828" stroke="#020207" stroke-width="4" stroke-miterlimit="10" stroke-linecap="round" stroke-linejoin="round"/>
<path d="M133.982 280.644C134.598 282.799 135.975 282.81 137.979 283.995C144.131 287.635 156.728 290.409 159.882 280.963" stroke="#020207" stroke-width="4" stroke-miterlimit="10" stroke-linecap="round" stroke-linejoin="round"/>
<path d="M132.98 281.912C131.553 284.052 136.215 287.678 137.458 289.095C139.858 291.834 142.956 294.177 145.132 297.075C147.455 300.167 145.441 305.552 150.889 305.854C153.089 305.976 154.153 304.061 156.005 303.3C161.007 301.244 164.424 303.754 170.074 299.31C171.245 298.39 178.634 291.151 176.311 293.085" stroke="#020207" stroke-width="4" stroke-miterlimit="10" stroke-linecap="round" stroke-linejoin="round"/>
<path d="M167.853 287.692C166.54 291.622 165.912 293.46 162.735 296.63C161.534 297.83 158.361 301.592 158.898 299.982" stroke="#020207" stroke-width="4" stroke-miterlimit="10" stroke-linecap="round" stroke-linejoin="round"/>
<path d="M150.287 303.2C148.713 305.557 156.667 311.389 158.121 313.256C160.691 316.554 161.306 320.929 164.038 324.109" stroke="#020207" stroke-width="4" stroke-miterlimit="10" stroke-linecap="round" stroke-linejoin="round"/>
<path d="M166.605 301.227C168.165 305.896 171.585 309.504 173.321 314.155C173.673 315.101 173.96 317.986 174.281 317.028" stroke="#020207" stroke-width="4" stroke-miterlimit="10" stroke-linecap="round" stroke-linejoin="round"/>
<path d="M132.018 286.987C131.461 287.266 132.018 295.525 132.018 296.564C132.018 304.927 127.512 316.848 133.139 324.336" stroke="#020207" stroke-width="4" stroke-miterlimit="10" stroke-linecap="round" stroke-linejoin="round"/>
</g>
<defs>
<clipPath id="clip0_2666_82432">
<rect width="265" height="302" rx="16" fill="white"/>
</clipPath>
</defs>
</svg>
