<svg width="265" height="302" viewBox="0 0 265 302" fill="none" xmlns="http://www.w3.org/2000/svg">
<g clip-path="url(#clip0_2666_82423)">
<rect width="265" height="302" rx="16" fill="#FFF7E8"/>
<path d="M160.171 289.067C172.284 291.562 176.01 315.176 178.853 324.201C189.437 357.737 185.228 384.845 143.007 382.246C118.543 380.736 103.648 359.7 95.9979 338.798C92.5771 329.457 92.535 321.657 94.4952 312.144C94.7693 310.828 93.9972 307.928 95.3123 308.196C102.491 309.678 88.6084 335.149 81.7707 337.921C63.0754 345.488 41.3886 335.812 31.8461 318.565C19.2689 295.817 32.8727 270.804 52.1337 258.129C61.2782 252.119 73.439 248.807 83.5482 253.503C84.2394 253.817 91.3614 257.818 90.6311 259.078C87.5158 264.446 72.2415 235.161 71.8874 234.218C63.91 213.013 73.093 195.137 91.2428 184.294C105.299 175.898 129.299 181.692 134.957 197.841C136.34 201.788 138.549 223.497 142.377 225.716C145.684 227.632 145.817 218.834 148.13 215.789C153.362 208.901 159.647 203.795 167.12 199.536C185.613 189.015 198.795 189.625 216.354 202.285C237.292 217.392 229.093 241.46 211.685 254.833C205.586 259.517 191.102 266.438 183.407 264.223C182.116 263.851 178.783 264.572 179.46 263.412C180.978 260.784 200.545 263.678 201.985 263.942C220.23 267.257 247.717 283.371 236.517 306.048C223.542 332.326 171.399 329.154 153.253 308.628" fill="#BFB1F7"/>
<path d="M95.9069 211.84C95.8764 211.902 95.9275 208.077 96.1566 207.107C96.8497 204.169 97.823 201.291 98.655 198.387C101.002 190.193 102.347 180.733 106.649 173.227C116.023 156.866 132.174 153.818 149.244 159.898C153.761 161.507 160.268 162.694 163.608 166.501C177.124 181.903 169.948 203.344 167.355 221.431C163.303 249.717 165.349 277.756 149.119 302.768C143.443 311.515 135.255 318.806 124.886 321.7C104.384 327.425 82.746 313.506 76.0462 294.297C72.4959 284.121 73.0482 271.926 73.0482 261.29C73.0482 252.57 73.0585 244.236 75.2967 235.754C75.8245 233.754 76.8122 228.911 78.794 227.782C90.6951 221.001 105.798 225.235 118.516 226.163C126.351 226.735 134.297 226.676 142.124 226.04C148.245 225.542 155.433 224.19 161.485 225.914C164.707 226.833 167.419 230.242 170.477 231.769C175.631 234.339 190.981 241.299 191.839 247.712C192.772 254.698 188.143 263.631 186.717 270.508C184.591 280.753 182.39 293.494 177.099 302.644C170.48 314.082 156.331 322.279 142.998 319.211C131.926 316.661 122.981 308.89 114.019 302.269C110.436 299.624 105.837 296.727 104.9 292.056C103.712 286.128 107.853 280.529 109.022 274.992C110.103 269.875 98.5665 261.69 110.771 258.924C115.86 257.769 129.673 259.459 125.261 267.89C123.603 271.059 118.637 271.359 118.266 275.241C118.032 277.689 121.504 291.94 120.139 293.302C119.371 294.068 117.682 294.414 116.767 294.921" stroke="#020207" stroke-width="4" stroke-miterlimit="10" stroke-linecap="round" stroke-linejoin="round"/>
<path d="M178.972 234.852C178.972 229.943 181.31 223.706 182.25 218.71C184.069 209.042 185.834 181.149 178.972 172.937C172.215 164.852 152.998 160.684 142.907 159.246C139.68 158.787 134.32 157.555 131.432 159.859C118.396 170.259 110.338 189.181 108.276 205.631C107.904 208.598 106.227 211.243 106.227 214.213" stroke="#020207" stroke-width="4" stroke-miterlimit="10" stroke-linecap="round" stroke-linejoin="round"/>
<path d="M70 247.37C73.1523 245.797 77.0233 245.957 80.4509 245.53C91.2412 244.185 101.591 242.292 112.623 241.853C127.487 241.259 142.812 236.268 157.5 239.197C162.379 240.168 174.531 250.601 178.811 253.703C183.371 257.011 192.421 262.254 195 267.396" stroke="#020207" stroke-width="4" stroke-miterlimit="10" stroke-linecap="round" stroke-linejoin="round"/>
</g>
<defs>
<clipPath id="clip0_2666_82423">
<rect width="265" height="302" rx="16" fill="white"/>
</clipPath>
</defs>
</svg>
