<svg width="360" height="360" viewBox="0 0 360 360" fill="none" xmlns="http://www.w3.org/2000/svg">
<g clip-path="url(#clip0_2944_79419)">
<rect width="360" height="360" fill="#FFF7E8"/>
<path d="M-34.512 81.7043C-47.2573 64.5697 -59.3791 45.8596 -70.4839 27.6245C-72.1161 24.9553 -81.8687 6.92426 -86.3775 -2.1483C-87.7829 -4.9762 -89.5601 -8.20596 -91.3149 -10.8441C-94.9022 -16.2371 -90.1323 -25.4105 -85.8032 -29.7317C-71.8181 -43.6866 -56.8325 -49.0674 -39.2223 -36.9334C-8.69252 -15.8968 6.27436 22.9337 30.1094 50.1365C38.45 59.6555 55.4197 74.7805 68.1012 62.9191C86.2746 45.9161 71.528 -19.4596 60.0803 -39.2454C51.7972 -53.5628 33.9616 -78.6246 57.2771 -90.6555C75.7183 -100.17 104.909 -66.2415 113.258 -53.6902C144.373 -6.9114 160.341 53.7627 131.985 106.044C126.869 115.48 119.325 120.915 110.214 126.231C59.7934 155.654 -2.89064 124.215 -34.512 81.7043Z" fill="#F19077"/>
</g>
<defs>
<clipPath id="clip0_2944_79419">
<rect width="360" height="360" fill="white"/>
</clipPath>
</defs>
</svg>
