<svg width="360" height="360" viewBox="0 0 360 360" fill="none" xmlns="http://www.w3.org/2000/svg">
<g clip-path="url(#clip0_3223_81002)">
<rect width="360" height="360" fill="#FFF7E8"/>
<path d="M235.503 414.992C232.29 412.537 222.52 404.158 219.396 400.502C210.964 390.635 202.619 379.638 196.039 368.434C177.932 337.603 185.458 314.976 194.51 282.972C205.721 243.338 254.758 245.326 286.764 244.693C291.263 244.603 321.262 249.667 322.931 246.756C324.536 243.956 304.187 232.713 302.032 231.477C289.844 224.489 278.756 212.055 270.044 201.052C254.765 181.752 269.04 138.09 277.731 118.676C301.217 66.2214 382.239 65.293 423.028 100.924C434.595 111.03 419.589 134.671 407.252 138.016C379.202 145.621 336.001 127.128 322.813 166.496C311.761 199.493 381.885 222.839 375.5 268.109C374.326 276.432 355.375 286.145 347.93 287.454C315.724 293.119 280.579 285.196 251.212 306.696C245.632 310.781 240.084 316.578 235.824 322.04C200.431 367.405 275.264 373.864 275.999 410.987C276.615 442.113 237.967 416.875 235.503 414.992Z" fill="#F2C65E"/>
</g>
<defs>
<clipPath id="clip0_3223_81002">
<rect width="360" height="360" fill="white"/>
</clipPath>
</defs>
</svg>
