<svg width="265" height="302" viewBox="0 0 265 302" fill="none" xmlns="http://www.w3.org/2000/svg">
<g clip-path="url(#clip0_2821_79025)">
<rect width="265" height="302" rx="16" fill="#FFF7E8"/>
<path d="M-46.512 102.704C-59.2573 85.5697 -71.3791 66.8596 -82.4839 48.6245C-84.1161 45.9553 -93.8687 27.9243 -98.3775 18.8517C-99.7829 16.0238 -101.56 12.794 -103.315 10.1559C-106.902 4.76286 -102.132 -4.41046 -97.8032 -8.73168C-83.8181 -22.6866 -68.8325 -28.0674 -51.2223 -15.9334C-20.6925 5.10316 -5.72564 43.9337 18.1094 71.1365C26.45 80.6555 43.4197 95.7805 56.1012 83.9191C74.2746 66.9161 59.528 1.54036 48.0803 -18.2454C39.7972 -32.5628 21.9616 -57.6246 45.2771 -69.6555C63.7183 -79.1697 92.9092 -45.2415 101.258 -32.6902C132.373 14.0886 148.341 74.7627 119.985 127.044C114.869 136.48 107.325 141.915 98.2138 147.231C47.7934 176.654 -14.8906 145.215 -46.512 102.704Z" fill="#F19077"/>
<path d="M217.877 202.682C213.571 199.817 204.824 181.794 201.182 181.066C196.334 180.099 183.172 190.055 178.623 192.323C167.399 197.926 156.573 205.643 146.138 212.589C143.409 214.405 139.973 214.559 137.112 216.192C129.889 220.313 122.673 224.263 115.68 228.8C104.519 236.041 93.7848 242.771 84.3219 252.216C80.5905 255.94 76.8395 263.332 80.4887 268.427C92.2969 284.932 120.367 262.29 131.022 256.72C135.792 254.225 141.175 252.163 145.458 248.839C149.6 245.627 154.189 243.181 158.544 240.283C176.022 228.656 194.921 218.841 212.238 206.96C216.793 203.833 223.98 195.198 230.51 196.827C232.5 197.322 233.279 201.394 234.12 202.905C237.388 208.78 241.691 214.415 244.722 220.47C249.281 229.567 256.501 237.339 261.645 246.138C266.673 254.743 271.078 263.693 276.081 272.256C279.24 277.658 285.645 282.828 286.91 289.142C288.109 295.114 277.013 301.133 273.374 303.553C257.309 314.243 239.736 322.442 223.744 333.273C211.899 341.294 198.754 347.323 186.746 355.115C182.009 358.187 168.421 369.13 162.831 369.749C143.616 371.88 142.364 360.056 132.149 348.585C121.031 336.102 114.921 320.694 105.527 307.155C97.1778 295.114 88.3226 282.72 81.842 269.781" stroke="#020207" stroke-width="4" stroke-miterlimit="10" stroke-linecap="round" stroke-linejoin="round"/>
<path d="M251.203 230.64C247.567 230.64 244.125 234.17 240.827 235.816C230.891 240.773 215.986 246.48 212.626 257.659C209.105 269.372 220.795 285.064 234.058 279.049C239.901 276.397 245.666 273.066 251.203 269.817C257.71 265.995 263.478 262.969 268.802 257.659" stroke="#020207" stroke-width="4" stroke-miterlimit="10" stroke-linecap="round" stroke-linejoin="round"/>
<path d="M226.706 260.327C216.474 262.878 229.333 272.319 231.669 264.153C232.746 260.396 225.576 259.059 223.999 261.678C221.194 266.343 227.12 267.211 230.092 265.73" stroke="#020207" stroke-width="4" stroke-miterlimit="10" stroke-linecap="round" stroke-linejoin="round"/>
<path d="M94.7428 261.981C94.0037 262.719 99.8142 259.945 100.606 259.506C103.345 257.988 106.022 256.546 108.729 255.002C116.618 250.504 125.109 245.993 133.32 242.168C150.056 234.372 165.309 223.941 181.371 214.922C188.173 211.103 195.981 203.383 203.256 200.964" stroke="#020207" stroke-width="4" stroke-miterlimit="10" stroke-linecap="round" stroke-linejoin="round"/>
</g>
<defs>
<clipPath id="clip0_2821_79025">
<rect width="265" height="302" rx="16" fill="white"/>
</clipPath>
</defs>
</svg>
