<svg width="265" height="302" viewBox="0 0 265 302" fill="none" xmlns="http://www.w3.org/2000/svg">
<g clip-path="url(#clip0_2666_82380)">
<rect width="265" height="302" rx="16" fill="#FFF7E8"/>
<path fill-rule="evenodd" clip-rule="evenodd" d="M313.017 -39.9719C313.604 -36.4316 313.849 -31.61 313.966 -30.4867C314.321 -27.0982 314.781 -23.7197 315.03 -20.3206C315.313 -16.4619 315.366 -12.5877 315.562 -8.72248C316.224 4.20282 315.427 16.8275 315.834 29.6517C316.932 64.2553 308.857 119.087 288.51 149.004C274.779 169.194 233.59 175.962 216.218 157.229C205.511 145.682 210.175 127.913 215.15 114.488C216.919 109.714 218.688 104.942 220.457 100.168C220.811 99.2135 221.519 97.3034 221.519 97.3034C221.519 97.3034 218.318 105.941 216.716 110.264C214.169 117.135 211.19 123.536 206.424 128.845C194.819 141.774 168.366 138.831 157.017 127.96C137.802 109.552 143.803 85.4021 152.228 62.6675C168.358 19.1453 206.093 -26.9215 244.236 -53.0717C263.714 -66.4249 281.424 -71.0493 303.432 -62.8932C310.063 -60.4357 312.28 -44.4166 313.017 -39.9719Z" fill="#F2C65E"/>
<path d="M125.436 214.631C124.407 214.143 123.178 214.319 122.045 214.193C120.332 214.001 118.77 213.559 117.012 213.753C113.15 214.185 109.133 215.649 105.854 217.702C103.845 218.96 101.305 222.885 102.135 225.378C102.619 226.834 104.117 228.143 105.417 228.887C111.264 232.235 118.073 232.835 124.67 232.835C127.386 232.835 128.811 233.278 131.453 232.395C132.985 231.883 134.663 231.566 136.049 230.641C138.595 228.94 139.403 224.226 137.799 221.651C136.733 219.942 134.312 218.587 132.549 217.702C131.929 217.393 131.165 217.411 130.578 217.044C130.046 216.71 129.623 216.196 129.045 215.948C127.864 215.441 126.606 215.188 125.436 214.631Z" stroke="#020207" stroke-width="4" stroke-miterlimit="10" stroke-linecap="round" stroke-linejoin="round"/>
<path d="M179.745 234.368C177.285 232.857 174.229 233.534 171.649 234.15C170.954 234.315 168.739 234.654 167.93 235.027C167.01 235.453 166.209 236.107 165.305 236.563C164.243 237.093 162.403 237.77 161.583 238.754C159.203 241.62 159.402 249.176 162.679 251.474C163.435 252.005 164.738 252.368 165.523 252.791C166.882 253.525 167.981 254.674 169.462 255.204C172.213 256.188 175.122 256.34 177.995 256.519C181.184 256.719 184.927 257.265 188.058 256.3C195.186 254.103 198.479 247.19 193.965 240.73C192.518 238.655 189.356 237.714 187.183 236.781C186.065 236.301 185.11 235.515 183.903 235.245C182.623 234.963 180.828 235.035 179.745 234.368Z" stroke="#020207" stroke-width="4" stroke-miterlimit="10" stroke-linecap="round" stroke-linejoin="round"/>
<path d="M147.51 270.659C148.409 270.909 146.893 270.587 146.507 270.491C145.56 270.254 144.629 270.323 143.664 270.323C141.666 270.323 139.703 271.093 137.809 271.664C136.08 272.184 134.12 272.626 132.458 273.341C128.5 275.042 126.305 279.372 126.771 283.566C127.007 285.699 128.861 287.506 130.284 288.93C135.969 294.63 143.51 293.961 151.021 293.961C154.043 293.961 158.437 293.047 160.387 290.439C161.884 288.442 163.177 285.443 162.395 282.897C161.884 281.233 160.634 279.644 159.719 278.201C158.913 276.932 158.355 275.687 157.043 274.85C155.899 274.12 154.721 273.77 153.529 273.173C152.279 272.547 151.332 271.389 150.018 270.827C149.633 270.662 145.031 269.963 147.51 270.659Z" stroke="#020207" stroke-width="4" stroke-miterlimit="10" stroke-linecap="round" stroke-linejoin="round"/>
<path d="M88.707 247.32C86.6588 246.486 83.5866 247.84 81.597 248.408C75.7718 250.077 68.9039 255.063 69.8907 261.987C70.2126 264.243 71.3483 265.952 72.7342 267.687C73.7689 268.983 74.8195 270.161 76.2452 271.041C77.7747 271.982 79.0755 272.02 80.7618 272.382C84.5974 273.206 88.5474 273.22 92.4681 273.22C96.4022 273.22 99.8839 273.243 103.339 271.041C106.981 268.719 109.545 264.57 108.523 260.145C107.89 257.382 104.547 253.759 102.336 252.098C100.232 250.517 97.2905 250.243 94.8115 249.416C93.9975 249.144 93.5719 248.531 92.8032 248.24C91.7792 247.856 90.5264 247.891 89.4571 247.739C89.0687 247.683 88.6671 247.68 88.2867 247.571C88.1191 247.523 87.635 247.494 87.7867 247.403C88.05 247.243 88.9916 247.435 88.707 247.32Z" stroke="#020207" stroke-width="4" stroke-miterlimit="10" stroke-linecap="round" stroke-linejoin="round"/>
<path d="M102.244 226.07C102.244 225.902 102.127 225.686 102.244 225.569C102.332 225.481 102.401 225.779 102.412 225.902C102.457 226.459 102.412 227.022 102.412 227.579C102.412 228.195 102.412 228.808 102.412 229.424C102.412 231.49 102.412 233.559 102.412 235.625C102.412 236.183 102.279 236.932 102.412 237.47C102.72 238.702 104.428 239.654 105.423 240.153C106.62 240.753 107.716 241.64 108.934 242.166C110.176 242.696 111.504 242.952 112.78 243.339C114.23 243.773 115.805 243.893 117.297 244.008C122.771 244.432 128.849 245.176 133.855 242.667C134.56 242.315 135.198 241.894 135.86 241.494C136.839 240.907 137.914 241.027 138.539 239.985C139.773 237.921 138.981 235.199 139.207 232.943C139.43 230.693 140.111 227.787 139.374 225.569" stroke="#020207" stroke-width="4" stroke-miterlimit="10" stroke-linecap="round" stroke-linejoin="round"/>
<path d="M159.464 245.092C159.361 244.887 159.297 244.423 159.297 244.423C159.297 244.423 159.321 244.983 159.297 245.26C159.254 245.764 159.185 246.268 159.129 246.769C158.938 248.515 159.071 250.224 158.962 251.965C158.855 253.69 158.744 255.637 158.462 257.33C158.35 258.002 158.119 257.292 158.294 258.17C158.563 259.511 162.585 262.987 163.813 263.534C165.452 264.264 167.42 264.102 169.165 264.539C170.894 264.974 172.546 265.717 174.349 265.88C176.264 266.056 178.267 266.379 180.204 266.216C181.712 266.091 183.252 265.411 184.72 265.043C185.476 264.854 186.862 264.792 187.561 264.371C188.178 264 188.787 263.441 189.402 263.03C189.998 262.633 190.915 262.353 191.41 261.857C191.83 261.436 192.123 260.518 192.413 260.015C193.812 257.556 194.081 255.197 194.418 252.469C194.501 251.824 194.754 251.443 194.754 250.792" stroke="#020207" stroke-width="4" stroke-miterlimit="10" stroke-linecap="round" stroke-linejoin="round"/>
<path d="M127.01 283.947C126.536 283.71 126.542 284.928 126.507 285.456C126.401 287.195 126.507 288.912 126.34 290.653C126.244 291.671 125.744 296.057 126.34 296.857C127.539 298.459 129.553 300.208 131.191 301.381C132.412 302.256 133.825 302.565 135.205 303.058C138.716 304.317 141.033 304.399 144.738 304.399C146.691 304.399 148.672 304.509 150.593 304.066C151.925 303.757 153.133 303.117 154.439 302.725C156.514 302.099 159.535 301.64 161.129 300.04C161.48 299.688 161.408 298.64 161.464 298.198C161.706 296.238 162.139 294.289 162.467 292.33C162.791 290.378 163.735 287.664 162.802 285.792" stroke="#020207" stroke-width="4" stroke-miterlimit="10" stroke-linecap="round" stroke-linejoin="round"/>
<path d="M70.2446 261.37C70.1541 261.103 69.9387 260.501 69.7419 260.698C69.1088 261.333 69.5743 262.484 69.5743 263.38C69.5743 265.977 69.7099 268.347 69.4067 270.926C69.0902 273.634 70.335 274.863 72.0825 276.791C74.6361 279.607 77.1923 281.321 80.9481 282.323C84.7251 283.334 88.6991 282.854 92.4868 282.491C95.4686 282.206 97.8891 282.171 100.85 281.486C103.544 280.862 104.188 279.916 106.201 278.3C106.3 278.223 106.481 278.244 106.536 278.132C106.739 277.73 106.595 277.228 106.704 276.791C107.023 275.506 107.244 274.405 107.372 273.104C107.64 270.432 108.21 267.769 108.21 265.057" stroke="#020207" stroke-width="4" stroke-miterlimit="10" stroke-linecap="round" stroke-linejoin="round"/>
<path d="M111.72 208C111.438 208.565 111.217 208.168 110.717 208.669C110.145 209.242 109.504 210.205 109.044 210.85C105.927 215.225 101.769 218.795 98.3407 222.92C95.5053 226.327 92.4464 229.329 89.3103 232.475C86.935 234.856 85.1582 237.792 82.6207 240.018C76.6545 245.249 70.9888 250.643 65.5599 256.447C61.0381 261.283 56.3327 265.874 52.3481 271.199C51.356 272.524 50.425 273.841 49.5047 275.222C49.3504 275.457 49.0711 275.622 49.0019 275.894C48.9753 276.003 49.228 275.867 49.3371 275.894C49.7733 276.003 50.1059 276.363 50.5075 276.566C51.4066 277.016 52.4173 277.211 53.3509 277.571C55.3698 278.349 57.1254 279.482 58.8703 280.754C60.5407 281.973 62.2031 282.391 64.0544 283.271C67.2224 284.775 70.4542 285.767 73.7552 286.958C77.0348 288.142 80.1017 289.761 83.2883 291.15C86.3126 292.467 89.4567 293.536 92.4863 294.837C95.7181 296.226 99.2425 297.394 102.355 299.028C106.294 301.097 110.419 303.067 114.564 304.728C117.032 305.717 119.639 306.427 122.091 307.411C125.334 308.712 128.393 310.605 131.624 311.938C135 313.329 138.373 314.638 141.825 315.793C143.384 316.313 144.831 317.174 146.342 317.803C148.722 318.798 151.167 319.6 153.531 320.653C154.191 320.947 156.5 322.173 157.213 321.994C158.628 321.64 161.357 317.171 162.397 316.129C165.219 313.3 168.291 310.759 170.76 307.578C172.106 305.843 172.92 303.817 174.271 302.046C176.917 298.58 179.035 294.68 181.798 291.318C185.631 286.649 189.611 282.199 193.672 277.739C195.146 276.12 196.135 274.225 197.518 272.54C198.779 271.009 200.264 269.708 201.532 268.183C202.591 266.909 203.306 265.424 204.376 264.16C207.411 260.566 210.087 256.577 212.571 252.592C213.348 251.346 214.441 250.184 215.079 248.904" stroke="#020207" stroke-width="4" stroke-miterlimit="10" stroke-linecap="round" stroke-linejoin="round"/>
<path d="M111.824 208.663C112.199 209.415 112.705 208.564 113.33 208.495C114.686 208.345 115.849 208.468 117.008 209.167C120.184 211.076 123.624 212.153 127.044 213.526C129.119 214.358 131.021 215.512 133.064 216.376C134.694 217.061 136.434 217.557 138.083 218.218C140.98 219.381 143.975 220.618 146.946 221.572C149.052 222.247 151.234 222.617 153.303 223.415C158.051 225.246 162.599 227.619 167.35 229.451C175.372 232.544 183.597 235.127 191.603 238.334C195.665 239.963 199.551 242.104 203.645 243.701C205.347 244.365 207.11 244.917 208.829 245.544C209.847 245.914 210.808 246.576 211.84 246.885C212.824 247.181 213.747 247.255 214.683 247.725" stroke="#020207" stroke-width="4" stroke-miterlimit="10" stroke-linecap="round" stroke-linejoin="round"/>
<path d="M216 248.372C215.319 249.734 215.3 251.425 215.162 252.899C214.891 255.816 214.955 258.698 214.83 261.615C214.72 264.137 214.252 266.635 214.159 269.16C213.936 275.234 213.534 281.219 213.156 287.266C212.952 290.532 213.156 293.883 213.156 297.155C213.156 297.597 213.452 299.562 213.156 300.005C212.938 300.333 212.332 300.258 211.986 300.677C210.332 302.666 209.185 305.207 207.805 307.382C206.195 309.915 204.004 311.843 202.285 314.256C201.288 315.655 200.405 317.151 199.274 318.447C198.184 319.695 196.848 320.716 195.763 321.966C192.436 325.8 189.473 329.97 186.23 333.871C185.461 334.793 183.373 336.883 182.549 337.894C180.963 339.835 179.631 341.989 178.035 343.927C176.979 345.21 175.718 346.314 174.689 347.617C173.643 348.94 172.856 350.457 171.845 351.806C170.271 353.912 168.48 355.826 166.996 358.01C164.701 361.383 162.562 364.841 160.307 368.235C159.689 369.163 158.913 370.562 158.466 371.589C158.317 371.927 157.923 373.474 157.631 373.767C157.511 373.887 157.615 373.431 157.631 373.266C157.671 372.762 157.721 372.255 157.796 371.757C157.833 371.527 157.95 371.317 157.963 371.085C158.051 369.69 157.963 368.291 157.963 366.894C157.963 363.532 158.131 360.196 158.131 356.837C158.131 349.644 157.878 342.384 158.298 335.212C158.45 332.641 158.104 329.871 158.466 327.33C158.727 325.493 158.809 323.326 157.963 321.633" stroke="#020207" stroke-width="4" stroke-miterlimit="10" stroke-linecap="round" stroke-linejoin="round"/>
<path d="M49.852 276.936C49.195 276.608 49.5168 278.381 49.5168 279.116C49.5168 279.506 49.5009 279.898 49.5168 280.29C49.5567 281.351 49.6232 282.412 49.6844 283.473C49.8174 285.827 49.7429 288.165 49.852 290.514C49.9717 293.17 50.5196 295.719 50.5196 298.395C50.5196 306.509 50.4025 314.611 50.0168 322.703C49.9184 324.785 49.6844 326.814 49.6844 328.904C49.6844 329.403 49.4423 330.629 50.0168 330.917C50.3201 331.069 50.7031 330.965 51.0223 331.085C51.9054 331.416 52.8444 331.858 53.6982 332.258C57.9567 334.25 62.7579 336.26 67.2451 337.623C69.1071 338.188 71.0834 338.345 72.9321 338.964C76.1506 340.038 79.2999 341.238 82.4652 342.483C84.0398 343.104 85.7342 343.384 87.3142 343.992C88.0138 344.261 88.6309 344.709 89.3224 344.997C90.5593 345.515 91.9238 345.672 93.1687 346.173C94.7167 346.794 96.1611 347.831 97.6826 348.519C98.7306 348.991 99.8451 349.322 100.861 349.86C103.667 351.348 106.341 353.004 109.224 354.388C111.24 355.353 113.416 355.902 115.411 356.902C116.861 357.627 118.252 358.485 119.76 359.08C125.519 361.349 131.301 363.554 136.988 365.953C139.637 367.073 142.499 367.758 145.183 368.803C148.293 370.017 151.304 371.427 154.381 372.659C155.142 372.965 155.802 373.624 156.555 374" stroke="#020207" stroke-width="4" stroke-miterlimit="10" stroke-linecap="round" stroke-linejoin="round"/>
<path d="M104.492 230.01C104.41 229.842 104.428 229.503 104.239 229.503C104.072 229.503 104.229 229.842 104.239 230.01C104.314 231.196 104.412 232.38 104.492 233.563C104.58 234.835 104.686 236.102 104.748 237.373C104.772 237.88 104.585 238.416 104.748 238.896C104.753 238.917 105.037 237.979 105.253 237.12C105.647 235.539 105.798 233.91 106.014 232.294C106.08 231.785 106.141 231.271 106.266 230.772C106.312 230.588 106.474 230.081 106.519 230.263C106.961 232.03 106.647 235.233 106.772 237.12C106.812 237.712 106.713 238.307 106.772 238.896C106.798 239.162 106.772 239.744 107.027 239.658C107.325 239.56 107.897 237.125 108.041 236.358C108.182 235.606 108.208 234.835 108.293 234.073C108.378 233.31 108.336 232.524 108.546 231.788C108.599 231.607 108.769 232.108 108.799 232.294C108.854 232.63 108.799 232.972 108.799 233.31C108.799 235.36 108.684 237.379 109.054 239.405C109.195 240.194 109.495 241.058 109.559 240.927C110.2 239.642 110.014 236.363 110.32 234.835C110.387 234.491 110.224 233.819 110.573 233.819C111.23 233.819 111.081 235.635 111.081 235.851C111.081 236.611 111.036 237.376 111.081 238.136C111.121 238.816 111.28 239.485 111.334 240.168C111.365 240.589 111.115 241.074 111.334 241.437C111.464 241.655 111.969 241.658 112.092 241.437C112.762 240.229 113.086 236.568 113.36 235.342C113.493 234.742 113.69 234.155 113.866 233.563C113.943 233.308 113.999 232.564 114.118 232.804C114.611 233.79 113.935 235.003 113.866 236.104C113.781 237.456 113.866 238.813 113.866 240.168C113.866 240.589 113.632 241.085 113.866 241.437C114.076 241.751 114.291 240.791 114.374 240.421C114.507 239.818 114.741 239.242 114.879 238.643C115.113 237.624 115.31 236.59 115.64 235.595C115.725 235.342 115.839 234.571 115.893 234.835C116.092 235.83 115.544 241.287 116.145 241.69C116.302 241.794 116.539 241.589 116.653 241.437C117.478 240.333 117.893 238.168 118.172 236.867C118.281 236.363 118.302 235.84 118.425 235.342C118.473 235.158 118.545 234.699 118.68 234.835C118.858 235.014 118.696 235.342 118.68 235.595C118.614 236.528 118.529 237.461 118.425 238.389C118.305 239.485 118.172 240.586 118.172 241.69C118.172 241.781 117.983 243.975 118.68 243.975C119.377 243.975 119.151 242.159 119.186 241.943C119.425 240.504 119.739 239.074 119.946 237.627C120.007 237.2 120.082 236.774 120.199 236.358C120.252 236.176 120.422 235.664 120.452 235.851C120.691 237.277 120.627 239.53 120.452 240.927C120.388 241.439 120.247 241.941 120.199 242.452C120.162 242.874 119.901 244.02 120.199 243.722C120.563 243.356 120.351 242.703 120.452 242.199C120.699 240.967 120.96 236.611 121.721 235.851C121.854 235.715 121.957 236.168 121.973 236.358C122.042 237.2 121.973 238.051 121.973 238.896C121.973 239.912 121.973 240.927 121.973 241.943C121.973 242.367 121.675 242.914 121.973 243.215C122.189 243.428 122.359 242.732 122.479 242.452C122.617 242.133 122.654 241.775 122.731 241.437C123.061 240.013 123.186 238.549 123.492 237.12C123.604 236.595 123.811 236.096 124 235.595C124.067 235.419 124.226 234.902 124.253 235.089C124.442 236.414 124.253 238.528 124.253 239.912C124.253 240.421 124.253 240.927 124.253 241.437C124.253 241.69 124.173 242.439 124.253 242.199C124.952 240.096 125.415 237.739 126.027 235.595C126.144 235.182 125.849 234.326 126.28 234.326C126.487 234.326 126.564 235.728 126.532 236.104C126.399 237.709 126.28 239.317 126.28 240.927C126.28 241.437 125.772 242.452 126.28 242.452C126.846 242.452 126.785 241.437 127.04 240.927C127.123 240.759 127.248 240.605 127.293 240.421C127.814 238.328 127.838 235.515 128.812 233.563C128.897 233.396 129.03 233.886 129.065 234.073C129.115 234.321 129.065 234.579 129.065 234.835C129.065 235.512 129.107 236.19 129.065 236.867C128.958 238.597 128.639 239.984 129.065 241.69" stroke="#020207" stroke-width="4" stroke-miterlimit="10" stroke-linecap="round" stroke-linejoin="round"/>
<path d="M130.707 233.93C130.707 235.247 130.454 235.924 130.454 237.484C130.454 238.415 130.401 239.348 130.454 240.278C130.486 240.875 130.64 241.459 130.707 242.057C130.726 242.224 130.619 242.71 130.707 242.563C131.037 242.011 131.247 241.393 131.468 240.785C131.587 240.457 131.635 240.108 131.72 239.769C131.891 239.092 132.098 238.425 132.229 237.74C132.354 237.068 132.348 236.378 132.481 235.708C132.601 235.103 132.619 234.423 132.987 233.93C133.146 233.717 133.202 234.426 133.239 234.693C133.287 235.026 133.239 235.37 133.239 235.708C133.239 236.468 133.239 237.231 133.239 237.993C133.239 239.433 133.316 240.878 133.495 242.31" stroke="#020207" stroke-width="4" stroke-miterlimit="10" stroke-linecap="round" stroke-linejoin="round"/>
<path d="M71.5759 269.874C71.5759 270.962 71.5094 272.095 71.5759 273.175C71.6238 273.94 71.669 274.71 71.8313 275.46C72.1585 276.99 72.85 277.075 73.0974 275.713C73.3847 274.119 73.0788 271.503 74.1109 270.127C74.4247 269.709 74.3635 271.026 74.3635 271.396C74.3635 272.242 74.3263 273.089 74.3635 273.935C74.4327 275.46 74.2864 277.017 74.6162 278.507C74.6827 278.803 74.8609 279.424 75.1242 279.267C76.1589 278.646 76.8692 273.903 77.1511 272.919C77.2974 272.404 77.1511 271.564 77.6565 271.396C78.0661 271.26 77.8613 272.236 77.9092 272.665C77.9465 273.001 77.8853 273.343 77.9092 273.681C78.0555 275.724 78.2391 278.152 79.1753 280.029C79.2844 280.243 79.4573 280.613 79.6834 280.539C79.9361 280.453 79.8775 280.037 79.936 279.776C80.1302 278.934 80.2738 278.083 80.4441 277.235C80.8643 275.121 80.9202 274.638 81.4575 272.665C81.5267 272.407 81.4415 271.903 81.7102 271.903C82.0214 271.903 81.9629 272.247 81.9629 274.95C81.9629 276.561 81.8486 278.171 81.9629 279.776C82.0002 280.288 82.1039 280.797 82.2156 281.299C82.2741 281.56 82.2821 282.25 82.471 282.061C82.8487 281.682 82.8087 281.045 82.9763 280.539C83.3407 279.446 83.6599 278.339 83.9898 277.235C84.2424 276.39 84.5351 275.556 84.7505 274.697C84.8755 274.199 84.6388 273.537 85.0032 273.175C85.2187 272.959 85.4261 273.641 85.5086 273.935C85.6017 274.26 85.4846 274.614 85.5086 274.95C85.5671 275.716 85.724 276.47 85.7639 277.235C85.8437 278.76 85.8012 280.296 86.0166 281.808C86.0885 282.317 85.8411 283.045 86.2693 283.33C86.5832 283.541 86.6789 282.68 86.7773 282.314C87.0194 281.4 87.1498 280.459 87.2828 279.523C87.4051 278.667 87.6844 274.801 88.2961 274.191C88.4158 274.071 88.2961 274.529 88.2961 274.697C88.2961 275.289 88.2642 275.884 88.2961 276.475C88.3467 277.409 88.4983 278.334 88.5489 279.267C88.6021 280.203 88.1446 281.4 88.8042 282.061C89.0702 282.328 89.2005 281.408 89.3096 281.045C89.5091 280.376 89.7006 279.701 89.815 279.014C90.0571 277.574 89.5463 275.732 90.5757 274.697C90.8231 274.452 90.7805 275.366 90.8284 275.713C90.8656 275.964 90.8284 276.222 90.8284 276.475C90.8284 277.913 90.8284 279.352 90.8284 280.792C90.8284 282.144 90.7885 282.464 91.0837 282.314C91.3205 282.194 91.2647 281.81 91.3365 281.554C91.52 280.88 91.6663 280.197 91.8418 279.523C92.2249 278.062 92.5813 274.862 94.1241 273.935C95.2093 273.281 94.5709 279.222 94.6294 280.029C94.6667 280.544 94.7704 281.051 94.8821 281.554C94.9406 281.816 94.9753 282.53 95.1348 282.314C96.1616 280.944 96.1615 278.051 96.4036 276.475C96.494 275.884 96.4675 275.265 96.6563 274.697C96.7308 274.47 96.9941 274.02 97.1617 274.191C97.8133 274.841 97.6697 278.646 97.6697 279.523C97.6697 279.861 97.3319 280.539 97.6697 280.539C98.0181 280.539 97.8267 279.856 97.9224 279.523C98.3294 278.094 98.6486 276.867 99.1886 275.46C99.4333 274.822 99.6354 273.303 100.202 273.681C100.824 274.097 100.202 278.55 100.202 279.523C100.202 280.984 100.202 281.299 100.202 281.299C101.146 280.827 101.231 276.163 101.468 275.206C101.58 274.764 101.529 274.025 101.976 273.935C102.391 273.852 102.591 274.553 102.737 274.95C102.939 275.513 102.859 276.145 102.99 276.729C103.117 277.299 103.484 277.976 103.75 278.507" stroke="#020207" stroke-width="4" stroke-miterlimit="10" stroke-linecap="round" stroke-linejoin="round"/>
<path d="M72.341 267.626C72.0298 267.469 71.3276 267.023 71.3276 267.37C71.3276 267.826 71.583 268.261 71.8357 268.642C71.9394 268.799 72.1921 268.778 72.341 268.895C73.7162 269.967 74.9664 271.199 76.3947 272.196C80.4378 275.019 85.114 276.766 90.0747 276.766" stroke="#020207" stroke-width="4" stroke-miterlimit="10" stroke-linecap="round" stroke-linejoin="round"/>
<path d="M74.0135 273.824C74.0135 274.424 73.6411 275.016 73.7581 275.603C73.806 275.837 74.0666 275.978 74.2661 276.112C75.0854 276.658 75.8461 277.384 76.7984 277.634C79.1098 278.242 81.5144 278.434 83.8924 278.65C86.8369 278.919 89.8267 279.018 92.7579 278.65" stroke="#020207" stroke-width="4" stroke-miterlimit="10" stroke-linecap="round" stroke-linejoin="round"/>
<path d="M110.511 237.84C110.511 238.778 110.678 240.122 111.777 240.378C113.796 240.845 115.815 241.306 117.857 241.647C123.004 242.508 127.686 242.156 132.804 242.156" stroke="#020207" stroke-width="4" stroke-miterlimit="10" stroke-linecap="round" stroke-linejoin="round"/>
<path d="M108.679 231.258C108.359 231.898 108.62 232.815 109.187 233.287C110.07 234.025 110.926 234.844 111.972 235.318C113.748 236.129 115.621 236.782 117.547 237.097C119.797 237.465 122.106 237.441 124.385 237.35C127.301 237.235 130.559 236.923 133.251 235.574" stroke="#020207" stroke-width="4" stroke-miterlimit="10" stroke-linecap="round" stroke-linejoin="round"/>
<path d="M112.48 233.452C115.675 233.452 119.396 235.353 122.359 235.74C124.791 236.054 127.256 236.046 129.706 235.993C132.084 235.94 134.459 235.103 136.547 233.961" stroke="#020207" stroke-width="4" stroke-miterlimit="10" stroke-linecap="round" stroke-linejoin="round"/>
<path d="M135.684 233.452C135.684 236.289 135.923 238.872 136.698 241.579" stroke="#020207" stroke-width="4" stroke-miterlimit="10" stroke-linecap="round" stroke-linejoin="round"/>
<path d="M138.156 233.452C137.276 235.22 137.326 237.851 137.651 239.8" stroke="#020207" stroke-width="4" stroke-miterlimit="10" stroke-linecap="round" stroke-linejoin="round"/>
<path d="M84.6807 279.09C85.3456 279.759 86.0053 280.591 86.9602 280.868C89.1227 281.497 91.3198 282.049 93.5461 282.391C94.6314 282.559 95.7406 282.391 96.8391 282.391" stroke="#020207" stroke-width="4" stroke-miterlimit="10" stroke-linecap="round" stroke-linejoin="round"/>
<path d="M104.361 272.068C103.206 272.647 103.752 274.591 103.603 275.876C103.501 276.718 102.815 279.846 103.855 280.192C104.108 280.277 104.023 279.686 104.108 279.432" stroke="#020207" stroke-width="4" stroke-miterlimit="10" stroke-linecap="round" stroke-linejoin="round"/>
<path d="M105.747 270.752C104.935 273.194 105.209 277.004 106.002 279.385" stroke="#020207" stroke-width="4" stroke-miterlimit="10" stroke-linecap="round" stroke-linejoin="round"/>
<path d="M128.768 290.169C128.682 289.999 128.56 289.479 128.515 289.66C128.392 290.153 128.515 290.676 128.515 291.185C128.515 291.609 128.515 292.03 128.515 292.454C128.515 294.315 128.459 296.179 128.515 298.04C128.544 299.058 128.539 300.095 128.768 301.087C128.81 301.271 129.19 301.511 129.276 301.34C130.007 299.871 129.951 298.125 130.289 296.517C130.449 295.752 130.672 295.003 130.794 294.232C130.927 293.393 130.983 292.539 131.047 291.692C131.068 291.438 130.967 290.689 131.047 290.932C131.832 293.291 131.965 296.093 132.316 298.549C132.398 299.141 132.034 300.058 132.569 300.325C133.007 300.546 133.127 299.506 133.327 299.055C134.047 297.432 133.997 295.448 134.34 293.723C134.393 293.462 134.494 292.713 134.595 292.963C135.306 294.747 134.68 296.947 134.848 298.802C134.901 299.399 135.048 299.983 135.101 300.58C135.133 300.916 134.861 301.834 135.101 301.596C136.739 299.954 136.872 296.523 137.38 294.486C137.447 294.227 137.396 293.843 137.636 293.723C137.803 293.638 137.867 294.043 137.888 294.232C137.952 294.822 137.888 295.416 137.888 296.008C137.888 297.72 137.676 299.639 137.888 301.34C137.912 301.53 137.963 301.908 138.141 301.85C139.109 301.527 139.12 300.037 139.407 299.055C139.628 298.306 139.772 297.538 139.915 296.771C140.024 296.181 140.038 295.579 140.168 294.992C140.208 294.808 140.399 294.296 140.421 294.486C140.543 295.579 140.421 296.685 140.421 297.786C140.421 298.378 140.421 298.97 140.421 299.565C140.421 299.757 140.024 302.404 140.929 302.103C141.189 302.015 142.277 297.397 142.447 296.771C142.562 296.355 142.317 295.31 142.7 295.501C143.16 295.731 142.897 296.512 142.956 297.024C143.118 298.496 142.796 299.893 143.208 301.34C143.28 301.599 143.237 302.252 143.461 302.103C143.546 302.047 144.128 300.407 144.222 300.071C144.405 299.399 144.477 298.693 144.727 298.04C144.905 297.581 145.267 297.213 145.488 296.771C145.607 296.531 145.501 296.128 145.74 296.008C145.911 295.925 145.943 296.336 145.993 296.517C146.113 296.931 146.214 297.357 146.248 297.786C146.299 298.461 146.248 299.141 146.248 299.818C146.248 300.173 146.248 302.865 146.248 302.865C146.464 303.081 146.637 302.386 146.754 302.103C147.062 301.362 147.241 300.573 147.515 299.818C147.618 299.53 149.924 294.992 150.047 294.992C150.722 294.992 150.1 296.349 150.047 297.024C150.002 297.616 150.047 298.21 150.047 298.802C150.047 299.341 149.924 302.231 150.3 302.356C150.768 302.513 150.845 301.695 151.313 299.818C151.489 299.119 152.888 294.739 153.595 294.739C154.191 294.739 153.893 295.92 153.848 296.517C153.795 297.197 153.683 297.872 153.595 298.549C153.47 299.474 152.824 300.564 153.34 301.34C153.55 301.658 153.779 300.698 153.848 300.325C153.973 299.639 154.146 298.959 154.353 298.296C154.888 296.587 155.125 296.24 155.875 294.739C155.957 294.571 156.069 294.051 156.127 294.232C156.455 295.214 156.38 297.003 156.38 298.04C156.38 298.549 156.319 299.061 156.38 299.565C156.404 299.751 156.476 300.178 156.633 300.071C157.46 299.519 158.521 295.339 158.915 294.486C159.12 294.038 159.279 292.921 159.673 293.217C160.218 293.624 159.859 294.568 159.928 295.248C160.072 296.699 160.181 298.104 160.181 299.565" stroke="#020207" stroke-width="4" stroke-miterlimit="10" stroke-linecap="round" stroke-linejoin="round"/>
<path d="M131.744 292.255C133.531 293.151 134.018 294.289 136.303 295.302C141.202 297.467 146.301 297.603 151.504 298.35" stroke="#020207" stroke-width="4" stroke-miterlimit="10" stroke-linecap="round" stroke-linejoin="round"/>
<path d="M131.212 295.766C130.725 297.227 131.712 298.272 133.236 298.56C135.681 299.018 138.109 299.589 140.583 299.829C143.796 300.138 147.092 299.645 150.209 298.813" stroke="#020207" stroke-width="4" stroke-miterlimit="10" stroke-linecap="round" stroke-linejoin="round"/>
<path d="M160.471 251.005C160.159 251.631 160.189 252.071 160.218 252.783C160.292 254.729 160.306 256.681 160.471 258.622C160.558 259.649 160.651 260.694 160.976 261.67C161.09 262.011 161.391 262.344 161.737 262.432C161.965 262.488 162.144 261.11 162.245 260.4C162.58 258.038 162.726 255.657 163.003 253.29C163.075 252.695 162.99 252.047 163.258 251.511C163.447 251.133 163.258 252.359 163.258 252.783C163.258 253.036 163.258 253.29 163.258 253.543C163.258 254.644 163.258 255.745 163.258 256.844C163.258 258.116 163.208 259.385 163.258 260.654C163.293 261.587 163.048 262.635 163.511 263.448C163.561 263.536 164.45 262.248 164.524 261.923C164.737 261 164.846 260.059 165.03 259.131C165.317 257.697 165.657 256.268 165.79 254.815C165.814 254.562 165.612 253.871 165.79 254.052C166.463 254.727 166.07 260.411 166.296 261.67C166.344 261.933 166.29 262.496 166.551 262.432C167.684 262.147 168.187 256.966 168.323 256.084C168.389 255.657 168.517 255.241 168.578 254.815C168.602 254.647 168.578 254.138 168.578 254.306C168.578 257.137 168.618 259.883 169.083 262.685C169.155 263.112 168.98 263.714 169.336 263.954C169.389 263.989 170.054 262.875 170.097 262.685C170.496 260.88 170.943 258.945 171.11 257.1C171.142 256.761 171.11 255.745 171.11 256.084C171.11 258.198 171.11 260.315 171.11 262.432C171.11 262.939 171.054 263.451 171.11 263.954C171.139 264.221 171.15 264.877 171.363 264.717C172.052 264.197 172.126 262.933 172.376 262.176C172.605 261.491 172.922 260.835 173.137 260.147C173.345 259.481 173.475 258.793 173.642 258.116C173.728 257.777 173.704 256.809 173.898 257.1C175.199 259.057 173.233 262.208 173.898 264.208C173.938 264.333 174.299 263.32 174.403 262.939C174.587 262.267 174.781 261.595 174.911 260.907C175.129 259.731 175.039 258.489 175.417 257.353C175.496 257.113 175.417 257.86 175.417 258.116C175.417 258.707 175.417 259.299 175.417 259.891C175.417 260.992 175.417 262.093 175.417 263.192C175.417 263.616 175.119 264.162 175.417 264.464C175.765 264.81 176.443 264.133 176.683 263.701C177.563 262.112 178.388 260.067 179.47 258.622C179.571 258.486 179.497 258.963 179.47 259.131C179.412 259.475 179.292 259.806 179.218 260.147C179.149 260.451 178.617 263.954 179.218 263.954C179.271 263.954 179.766 262.768 179.976 262.176C180.516 260.664 181.026 259.142 181.497 257.606C181.598 257.273 181.75 256.241 181.75 256.59C181.75 257.609 181.588 258.622 181.497 259.638C181.404 260.664 181.104 261.662 180.989 262.685C180.952 263.021 180.989 263.363 180.989 263.701C180.989 264.04 180.71 264.528 180.989 264.717C181.244 264.885 181.625 264.488 181.75 264.208C182.072 263.498 182.058 262.677 182.258 261.923C182.774 259.953 183 258.849 183.777 257.1C183.886 256.854 183.763 256.337 184.029 256.337C184.282 256.337 184.053 256.846 184.029 257.1C183.968 257.78 183.862 258.454 183.777 259.131C183.617 260.411 183.09 262.656 183.524 263.954C183.599 264.181 183.817 264.57 184.029 264.464C184.841 264.056 184.407 263.264 184.537 262.685C184.652 262.163 184.897 261.678 185.043 261.16C185.234 260.491 185.359 259.801 185.551 259.131C185.697 258.617 185.942 258.129 186.056 257.606C186.112 257.358 186.056 256.59 186.056 256.844C186.056 258.91 185.804 260.891 185.804 262.939C185.804 263.363 185.426 264.018 185.804 264.208C185.969 264.293 186.516 262.605 186.564 262.432C187.032 260.707 187.293 258.427 188.083 256.844C188.197 256.617 188.083 257.353 188.083 257.606C188.083 258.198 188.038 258.793 188.083 259.385C188.163 260.438 188.368 261.731 188.844 262.685" stroke="#020207" stroke-width="4" stroke-miterlimit="10" stroke-linecap="round" stroke-linejoin="round"/>
<path d="M164.141 253.199C164.141 254.396 164.891 254.479 165.912 254.978C168.697 256.335 171.357 257.99 174.272 259.041C176.799 259.95 179.467 260.454 182.127 260.816C183.489 261.003 185.034 260.819 186.178 260.057" stroke="#020207" stroke-width="4" stroke-miterlimit="10" stroke-linecap="round" stroke-linejoin="round"/>
<path d="M163.265 253.638C163.265 254.536 163.97 255.109 164.784 255.413C166.635 256.109 168.436 256.981 170.356 257.445C173.016 258.087 175.756 258.327 178.464 258.714C179.895 258.919 181.334 259.069 182.77 259.223C183.861 259.341 185.082 259.714 186.063 259.223" stroke="#020207" stroke-width="4" stroke-miterlimit="10" stroke-linecap="round" stroke-linejoin="round"/>
<path d="M163.922 257.587C164.06 257.998 163.917 258.512 164.177 258.859C164.994 259.949 166.428 260.469 167.723 260.888C169.867 261.586 172.085 262.055 174.309 262.413C178.139 263.026 182.517 263.388 186.215 261.903" stroke="#020207" stroke-width="4" stroke-miterlimit="10" stroke-linecap="round" stroke-linejoin="round"/>
<path d="M177.056 263.292C179.734 264.188 182.852 264.055 185.669 264.055" stroke="#020207" stroke-width="4" stroke-miterlimit="10" stroke-linecap="round" stroke-linejoin="round"/>
<path d="M129.993 295.326C129.993 296.401 129.961 296.734 131.006 297.102C132.19 297.52 133.344 298.038 134.555 298.374C136.725 298.971 138.901 299.643 141.14 299.896C146.772 300.536 150.865 299.365 155.834 297.102" stroke="#020207" stroke-width="4" stroke-miterlimit="10" stroke-linecap="round" stroke-linejoin="round"/>
<path d="M137.654 298.398C137.654 299.417 139.027 299.811 139.934 299.921C141.785 300.145 143.644 300.315 145.506 300.427C149.004 300.643 154.117 301.787 156.651 298.398" stroke="#020207" stroke-width="4" stroke-miterlimit="10" stroke-linecap="round" stroke-linejoin="round"/>
<path d="M135.684 298.837C136.083 299.24 136.69 299.359 137.203 299.599C137.993 299.965 138.676 300.546 139.482 300.869C140.796 301.396 142.121 302.108 143.536 302.138C146.175 302.194 148.832 301.778 151.388 301.122C152.854 300.749 154.091 299.767 155.442 299.09" stroke="#020207" stroke-width="4" stroke-miterlimit="10" stroke-linecap="round" stroke-linejoin="round"/>
<path d="M129.774 290.499C129.774 292.264 131.766 292.88 133.32 293.546C134.623 294.106 136.022 294.392 137.373 294.816" stroke="#020207" stroke-width="4" stroke-miterlimit="10" stroke-linecap="round" stroke-linejoin="round"/>
</g>
<defs>
<clipPath id="clip0_2666_82380">
<rect width="265" height="302" rx="16" fill="white"/>
</clipPath>
</defs>
</svg>
