<svg width="1200" height="320" viewBox="0 0 1200 320" fill="none" xmlns="http://www.w3.org/2000/svg">
<g clip-path="url(#clip0_2183_57588)">
<rect width="1200" height="320" rx="16" fill="#FFF7E8"/>
<path d="M595.876 71.0476C581.435 132.201 604.72 170.942 642.544 202.177C710.48 258.278 781.367 227.618 837.524 151.81C854.453 128.954 869.245 104.633 875.575 78.0172C884.689 39.716 872.476 23.9012 855.416 -5.08216C834.764 -40.1676 798.118 -77.5239 750.611 -78.2409C678.49 -79.3379 605.989 7.7129 595.876 71.0476Z" fill="#D8F177"/>
<path d="M551.108 404.223C544.021 411.93 534.678 418.228 524.545 425.365C484.7 461.544 401.22 417.057 378.805 317.01C373.058 291.358 383.003 268.198 391.302 254.15C414.656 214.619 459.359 212.933 509.216 231.19C531.294 239.276 565.052 261.185 584.141 291.7C610.659 334.085 581.74 370.518 567.172 384.211C561.593 389.455 556.351 398.522 551.108 404.223Z" fill="#BFB1F7"/>
<path d="M566.934 34.5857C565.908 30.2528 557.524 51.2796 555.838 54.3731C548.785 67.296 540.346 79.009 534.846 92.7486C529.244 106.75 520.709 119.766 514.453 133.523C508.876 145.794 504.305 158.609 498.259 170.699C497.24 172.739 487.11 192.533 488.063 193.486C489.203 194.62 510.969 194.086 514.453 194.086C521.915 194.086 529.844 196.107 537.245 195.285C554.483 193.366 572.02 189.889 589.426 189.889C604.696 189.889 619.733 188.689 635.009 188.689C640.209 188.689 645.403 188.689 650.603 188.689C652.6 188.689 654.604 188.689 656.601 188.689C657.399 188.689 659 189.487 659 188.689C659 187.646 642.14 164.224 640.407 161.105C627.38 137.662 616.116 112.8 600.222 90.9498C592.557 80.4121 586.439 69.586 579.829 58.5704C575.163 50.7982 569.117 43.8276 566.934 34.5857Z" stroke="#020207" stroke-width="4" stroke-miterlimit="10" stroke-linecap="round" stroke-linejoin="round"/>
<path d="M564.015 81.1087C557.075 85.1711 561.742 101.032 561.016 108.991C560.482 114.834 559.816 120.472 559.816 126.38C559.816 132.411 556.662 150.365 566.414 150.365C568.027 150.365 568.993 149.925 570.013 148.566C572.388 145.402 571.812 137.881 571.812 134.175C571.812 120.382 570.45 107.415 568.213 94.0005C567.578 90.1725 567.638 78.9878 564.015 81.1087Z" stroke="#020207" stroke-width="4" stroke-miterlimit="10" stroke-linecap="round" stroke-linejoin="round"/>
<path d="M564.271 170.043C561.974 155.566 560.259 179.683 566.371 177.238C571.667 175.12 573.262 162.427 566.371 161.049C558.807 159.537 557.554 170.821 561.572 174.84C565.813 179.081 572.914 164.852 567.57 161.648C558.484 156.198 566.275 182.669 564.271 170.043Z" stroke="#020207" stroke-width="4" stroke-miterlimit="10" stroke-linecap="round" stroke-linejoin="round"/>
<path d="M565.103 91.6221C562.8 89.3213 563.213 97.9636 563.303 101.216C563.525 109.41 563.585 117.61 563.903 125.8C563.981 127.808 564.503 131.796 564.503 131.796C564.503 131.796 564.503 128.599 564.503 127C564.503 124.801 564.503 122.603 564.503 120.404C564.503 117.406 564.503 114.408 564.503 111.409C564.503 108.912 566.122 92.0412 563.303 89.2236C562.41 88.3302 562.188 91.5603 562.104 92.8213C561.96 95.0153 562.188 97.2201 562.104 99.4171C561.984 102.62 561.594 105.808 561.504 109.011C561.324 115.245 561.522 126.97 562.104 132.996C562.374 135.81 563.303 144.217 563.303 141.39C563.303 128.758 564.107 116.234 564.503 103.614C564.593 100.818 564.503 98.0182 564.503 95.2198C564.503 94.6202 565.103 93.4209 564.503 93.4209C562.494 93.4209 563.987 97.4102 563.903 99.4171C563.759 102.818 563.489 106.213 563.303 109.611C562.77 119.231 562.704 128.763 562.704 138.392C562.704 139.392 562.704 136.394 562.704 135.394C562.704 133.196 562.632 130.996 562.704 128.798C562.83 124.998 562.986 121.196 563.303 117.406C563.789 111.599 564.587 105.822 565.103 100.017C565.385 96.8256 565.541 93.6236 565.703 90.4228C565.745 89.6248 566.5 88.0244 565.703 88.0244C564.077 88.0244 566.782 100.121 566.902 101.816C567.754 113.704 567.502 116.166 567.502 128.798C567.502 131.197 567.502 133.595 567.502 135.994C567.502 136.593 567.772 138.329 567.502 137.793C564.167 131.123 566.902 109.358 566.902 101.816C566.902 98.8175 566.902 95.8194 566.902 92.8213C566.902 92.422 566.902 91.2227 566.902 91.6221C566.902 101.99 568.426 112.396 568.701 122.802C568.797 126.399 568.564 130.001 568.701 133.595C568.761 135.206 569.139 136.789 569.301 138.392C569.343 138.79 569.301 139.991 569.301 139.592C569.301 127.334 569.319 114.61 568.102 102.415C567.592 97.2933 565.667 92.5191 565.103 87.4248C565.037 86.8293 565.103 85.6259 565.103 85.6259C565.103 85.6259 564.503 91.2155 564.503 94.0206C564.503 95.2198 564.503 98.8175 564.503 97.6183C564.503 94.264 564.833 90.7508 564.503 87.4248C564.365 86.0186 563.903 81.8141 563.903 83.2274C563.903 85.4262 563.903 87.625 563.903 89.8232C563.903 91.2227 564.893 95.0099 563.903 94.0206C563.255 93.3742 562.146 83.2064 562.104 83.2274C560.658 83.9512 561.504 90.0973 561.504 91.6221C561.504 92.6414 561.54 95.4686 562.104 94.6202C563.04 93.2195 562.704 89.6559 562.704 88.0244C562.704 87.625 562.704 86.4258 562.704 86.8251C562.704 99.6174 562.704 112.409 562.704 125.201C562.704 129.598 562.368 134.008 562.704 138.392C562.752 139.022 562.854 140.638 563.303 140.191C564.881 138.613 563.819 124.513 563.903 122.802C563.987 121.006 563.903 119.205 563.903 117.406C563.903 116.806 563.903 115.007 563.903 115.607C563.903 123.793 563.447 131.389 562.704 139.592C562.47 142.187 562.254 144.785 562.104 147.387C562.056 148.185 562.104 150.585 562.104 149.785C562.104 144.54 562.374 139.424 562.704 134.195C562.794 132.799 562.704 131.397 562.704 129.998C562.704 129.398 562.704 127.599 562.704 128.199C562.704 134.995 562.704 141.79 562.704 148.586C562.704 149.585 562.254 152.478 562.704 151.584C565.295 146.409 564.161 137.306 564.503 131.796C564.605 130.201 564.503 127 564.503 127C564.503 127 564.503 131.397 564.503 133.595C564.503 137.393 564.503 141.191 564.503 144.988C564.503 146.388 564.503 147.786 564.503 149.185C564.503 149.985 564.251 152.342 564.503 151.584C566.758 144.822 567.502 135.915 567.502 128.798C567.502 128.399 567.502 129.598 567.502 129.998C567.502 131.796 567.502 133.595 567.502 135.394C567.502 138.356 568.462 144.869 566.902 147.986C566.278 149.238 566.794 145.184 566.902 143.789C567.148 140.575 567.61 137.381 568.102 134.195C568.258 133.188 567.982 130.477 568.701 131.197C570.501 132.999 568.917 142.073 568.701 143.789C568.48 145.585 568.102 150.996 568.102 149.185C568.102 145.402 570.495 143.211 571.7 139.592C572.222 138.028 573.638 133.321 572.9 134.795C572.828 134.933 568.737 145.666 568.102 144.388C565.289 138.76 569.913 126.412 565.703 122.203C565.073 121.571 564.857 123.78 564.503 124.601C563.681 126.519 563.112 128.551 562.704 130.597C562.224 132.989 559.405 143.49 561.504 145.588C565.415 149.498 567.526 124.29 563.303 126.4C560.347 127.879 561.06 157.293 563.903 144.988C564.407 142.811 564.827 140.61 565.103 138.392C565.427 135.807 565.475 133.194 565.703 130.597C565.757 130.005 567.046 123.997 565.703 122.203C564.011 119.949 562.77 128.312 562.704 128.798C562.518 130.204 560.071 142.716 561.504 143.789C563.657 145.405 568.731 129.146 569.301 127.599C569.889 125.997 570.465 124.388 571.101 122.802C571.269 122.387 571.844 121.179 571.7 121.603C570.153 126.246 568.57 130.585 567.502 135.394C567.1 137.193 566.686 138.989 566.302 140.791C566.086 141.787 564.857 144.354 565.703 143.789C568.174 142.142 569.403 134.885 569.901 132.396C570.177 131.01 570.225 129.585 570.501 128.199C570.627 127.579 571.101 125.768 571.101 126.4C571.101 127.597 570.039 138.392 568.701 138.392C567.97 138.392 567.682 131.299 567.502 124.001C567.244 113.753 568.606 101.849 566.902 91.6221C566.602 89.837 566.302 95.209 566.302 97.0186C566.302 100.817 566.158 104.617 566.302 108.411C566.512 113.808 567.094 119.205 566.902 124.601C566.788 127.804 566.302 134.195 566.302 134.195C566.302 134.195 566.302 129.798 566.302 127.599C566.302 124.401 566.398 121.202 566.302 118.005C566.02 108.638 565.439 99.1515 564.503 89.8232C564.323 88.0334 564.419 93.4233 564.503 95.2198C564.635 98.0224 564.857 100.82 565.103 103.614C566.068 114.541 566.494 114.99 566.902 125.201C566.992 127.398 566.902 131.796 566.902 131.796C566.902 131.796 566.548 123 566.302 118.605C565.93 111.956 567.628 92.4705 565.103 87.4248C564.569 86.3526 565.001 89.8274 565.103 91.0225C565.253 92.8261 565.541 94.6166 565.703 96.419C566.044 100.181 565.361 123.742 567.502 121.603" stroke="#020207" stroke-width="4" stroke-miterlimit="10" stroke-linecap="round" stroke-linejoin="round"/>
<path d="M564.898 166.137C565.437 168.188 564.256 177.872 566.097 176.03C567.729 174.398 567.495 169.041 567.297 167.036C567.171 165.779 566.991 162.545 566.097 163.438C564.766 164.768 562.037 177.802 564.898 177.23C569.354 176.339 568.616 162.21 566.097 162.839C563.26 163.549 561.971 176.03 565.497 176.03C565.899 176.03 566.493 176.373 566.697 176.03C567.999 173.865 568.106 156.904 563.698 159.841C558.882 163.049 561.101 181.327 566.697 177.829C571.429 174.871 572.827 158.893 564.298 159.841C558.528 160.482 554.941 174.214 561.299 176.03C567.453 177.789 571.243 165.271 566.697 162.239C561.269 158.62 557.634 173.915 563.698 175.431C568.7 176.682 571.993 165.029 570.296 161.64C567.009 155.062 558.768 172.7 564.898 174.232C566.949 174.745 568.664 164.209 567.297 162.839C565.713 161.258 564.196 163.468 564.898 166.137Z" stroke="#020207" stroke-width="4" stroke-miterlimit="10" stroke-linecap="round" stroke-linejoin="round"/>
<path d="M563.023 192.885C559.479 192.885 561.29 202.191 561.368 202.988C562.1 210.471 563.071 218.062 562.196 225.564C558.129 260.372 563.851 294.904 563.851 329.675" stroke="#020207" stroke-width="4" stroke-miterlimit="10" stroke-linecap="round" stroke-linejoin="round"/>
<path d="M577.2 192.012C574.483 193.115 575.544 194.518 575.544 196.053C575.544 198.415 575.544 200.772 575.544 203.128C575.544 211.775 575.544 220.427 575.544 229.074C575.544 263.204 574.717 297.388 574.717 331.501" stroke="#020207" stroke-width="4" stroke-miterlimit="10" stroke-linecap="round" stroke-linejoin="round"/>
<path d="M581.712 332.21C590.895 319.972 590.787 303.273 597.306 290.237C597.756 289.344 597.396 292.24 597.306 293.235C597.144 295.04 596.874 296.827 596.706 298.632C596.472 301.228 596.394 303.837 596.107 306.427C595.429 312.525 590.091 327.785 594.307 333.41C596.011 335.682 602.11 313.514 602.704 312.423C603.112 311.68 603.682 310.42 604.503 310.624C605.949 310.984 604.569 326.238 604.503 327.413C604.396 329.416 603.682 334.831 605.103 333.41C607.574 330.939 607.742 326.94 609.302 323.816C610.225 321.975 611.227 320.17 612.301 318.419C618.46 308.418 616.133 327.617 616.499 329.812C616.577 330.25 616.667 330.903 617.099 331.011C617.501 331.113 627.865 319.019 634.492 319.019" stroke="#020207" stroke-width="4" stroke-miterlimit="10" stroke-linecap="round" stroke-linejoin="round"/>
<path d="M551.297 327.36C551.297 315.397 541.689 301.324 532.992 293.673C531.115 292.024 528.938 290.729 526.748 289.512C525.273 288.696 513.289 282.029 514.687 282.029" stroke="#020207" stroke-width="4" stroke-miterlimit="10" stroke-linecap="round" stroke-linejoin="round"/>
<path d="M511.298 281.748C512.354 286.719 502.733 273.455 510.884 271.974C517.296 270.811 517.476 282.072 514.213 284.866C512.054 286.719 510.903 279.895 511.298 281.748Z" stroke="#020207" stroke-width="4" stroke-miterlimit="10" stroke-linecap="round" stroke-linejoin="round"/>
<path d="M512.055 268.191C510.321 276.363 516.127 257.733 521.207 261.121C522.425 261.931 515.509 269.324 515.797 269.438C516.919 269.887 522.209 267.891 522.875 269.438C524.368 272.928 517.189 274.852 517.465 275.68C517.579 276.016 522.581 279.727 523.289 280.669C523.702 281.22 525.028 281.844 524.536 282.33C523.786 283.079 515.575 279.895 515.797 281.916C516.025 283.919 521.627 291.48 519.96 293.147C519.156 293.95 507.55 287.726 505.397 288.152C504.318 288.368 506.747 293.41 505.817 293.147C503.58 292.505 494.847 280.453 494.997 279.835C495.633 277.305 503.106 285.699 503.736 281.916C504.024 280.189 497.81 269.444 497.078 266.53C496.946 265.99 496.586 265.114 497.078 264.863C499.111 263.849 502.8 267.345 504.15 268.191C505.001 268.718 506.651 270.853 506.651 269.852C506.651 267.021 502.656 261.103 508.312 263.615C508.876 263.867 509.584 263.969 509.973 264.449C510.879 265.552 512.355 266.793 512.055 268.191Z" stroke="#020207" stroke-width="4" stroke-miterlimit="10" stroke-linecap="round" stroke-linejoin="round"/>
<path d="M540.691 303.587C536.954 299.684 545.369 290.366 548.356 286.954C548.626 286.642 548.86 285.892 549.231 286.078C550.011 286.468 549.351 287.841 549.231 288.705C548.644 292.812 546.041 297.243 544.415 300.961C543.546 302.952 543.528 308.828 542.226 307.089C541.458 306.07 541.572 304.511 540.691 303.587Z" stroke="#020207" stroke-width="4" stroke-miterlimit="10" stroke-linecap="round" stroke-linejoin="round"/>
<path d="M545.888 310.454C544.551 305.831 538.589 304.884 533.851 304.542C532.093 304.416 528.171 303.277 528.597 304.98C529.598 309.009 546.806 313.614 545.888 310.454Z" stroke="#020207" stroke-width="4" stroke-miterlimit="10" stroke-linecap="round" stroke-linejoin="round"/>
<path d="M535.61 337C531.724 335.063 536.72 324.48 537.8 321.242C538.189 320.061 538.489 323.665 539.113 324.744C541.026 328.096 542.928 331.663 546.118 333.936C546.382 334.128 546.796 334.637 546.994 334.374C548.643 332.179 546.856 324.39 549.183 322.993C551.66 321.506 555.283 330.554 557.94 331.31C560.867 332.149 561.509 323.916 564.07 325.619C568.484 328.563 569.57 334.374 575.891 334.374" stroke="#020207" stroke-width="4" stroke-miterlimit="10" stroke-linecap="round" stroke-linejoin="round"/>
</g>
<defs>
<clipPath id="clip0_2183_57588">
<rect width="1200" height="320" rx="16" fill="white"/>
</clipPath>
</defs>
</svg>
