<svg width="360" height="360" viewBox="0 0 360 360" fill="none" xmlns="http://www.w3.org/2000/svg">
<g clip-path="url(#clip0_2944_79416)">
<rect width="360" height="360" fill="#FFF7E8"/>
<path d="M137.017 333.833C147.923 336.967 172.505 336.912 180.245 324.246C193.665 302.28 165.306 269.151 148.415 259.022C96.3687 227.799 25.4324 192.654 -31.3112 233.94C-45.8308 244.504 -58.3321 259.56 -62.2856 277.626C-73.1402 327.224 -22.8427 401.451 11.4962 434.557C26.7125 449.227 49.1165 472.596 70.8729 455.028C84.5016 444.022 82.8614 424.591 74.0439 411.287C73.4971 410.462 64.8384 396.565 64.6993 396.709C63.7502 397.694 75.3779 412.344 75.9068 413.083C83.1154 423.096 99.0696 438.815 111.25 429.327C126.454 417.483 120.475 398.334 114.379 383.318C112.087 377.668 105.013 367.606 105.013 367.606C105.013 367.606 114.591 378.541 121.146 380.922C163.472 396.32 147.175 335.432 137.017 333.833Z" fill="#F19077"/>
</g>
<defs>
<clipPath id="clip0_2944_79416">
<rect width="360" height="360" fill="white"/>
</clipPath>
</defs>
</svg>
