<svg width="360" height="360" viewBox="0 0 360 360" fill="none" xmlns="http://www.w3.org/2000/svg">
<g clip-path="url(#clip0_2944_79410)">
<rect width="360" height="360" fill="#FFF7E8"/>
<path d="M-21.7435 368.59C-14.8054 360.836 -2.09811 343.46 -1.91233 336.555C-3.81925 307.956 -13.6097 280.478 -18.3133 252.278C-18.7021 249.931 -23.0195 220.635 -22.8874 220.241C-22.729 219.766 8.44396 209.907 11.0528 209.183C15.4986 207.949 20.2505 206.301 24.4009 204.225C26.0083 203.421 30.574 199.514 30.8829 200.031C40.4355 215.955 37.9275 256.394 39.2722 274.778C39.3816 276.276 41.0714 303.269 41.1801 303.378C41.6081 303.806 44.8817 293.035 44.9936 292.701C47.1647 286.183 48.4695 279.519 50.3311 272.872C55.0109 256.157 61.1837 240.36 67.1107 224.057C69.2027 218.31 67.5567 210.041 70.926 204.988C71.752 203.748 101.797 212.953 104.865 213.761C109.838 215.07 120.328 216.317 120.504 217.191C121.389 221.632 115.217 231.391 113.637 235.498C106.085 255.135 96.1655 272.498 85.4162 290.414C80.881 297.972 74.7596 305.622 71.3083 313.674C70.9904 314.414 69.9765 315.394 70.5448 315.963C71.3277 316.746 86.9232 304.691 88.0868 303.76C104.596 290.553 124.744 284.671 143.766 276.302C144.83 275.833 157.179 267.946 157.874 268.296C158.109 268.409 173.226 294.424 174.654 296.515C175.159 297.25 188.263 310.102 188.002 310.625C186.742 313.145 172.52 315.041 170.08 315.581C151.804 319.643 134.507 326.936 116.308 331.218C108.247 333.113 100.611 335.857 92.6637 338.082C88.5764 339.228 80.0794 339.988 80.0794 339.988C80.0794 339.988 83.1122 340.66 84.6527 340.753C90.7536 341.11 97.4213 342.011 103.343 343.419C118.131 346.941 132.673 351.723 147.577 354.864C150.245 355.423 175.035 361.092 175.035 364.015C175.038 370.67 166.954 381.619 163.592 386.896C158.931 394.228 149.404 410.241 144.145 415.5C142.767 416.878 137.033 411.159 136.14 410.54C131.497 407.329 125.53 405.047 120.502 402.532C100.701 392.629 79.9718 382.086 58.7215 375.838C53.9992 374.448 46.1397 368.59 41.5617 368.591C41.2147 368.589 24.5139 388.529 23.6364 389.567C6.83905 409.418 -8.29142 429.884 -26.7019 448.295C-34.0697 455.663 -41.8047 462.635 -49.2013 470.031C-49.3956 470.226 -50.7547 471.926 -51.4901 471.558C-55.2218 469.69 -57.3329 460.251 -59.8786 457.065C-66.3834 448.933 -72.5015 442.059 -80.8533 436.09C-81.1971 435.847 -82.6393 434.578 -82.3787 433.802C-79.9729 426.583 -67.6859 419.21 -62.9312 413.592C-49.7638 398.029 -35.3478 383.795 -21.7435 368.59Z" fill="#D8F177"/>
</g>
<defs>
<clipPath id="clip0_2944_79410">
<rect width="360" height="360" fill="white"/>
</clipPath>
</defs>
</svg>
