<svg width="360" height="360" viewBox="0 0 360 360" fill="none" xmlns="http://www.w3.org/2000/svg">
<g clip-path="url(#clip0_2944_79422)">
<rect width="360" height="360" fill="#FFF7E8"/>
<path d="M85.1788 326.455C97.2922 328.949 101.017 352.564 103.861 361.589C114.445 395.125 110.235 422.233 68.0151 419.634C43.5511 418.124 28.6561 397.088 21.0057 376.185C17.5849 366.844 17.5428 359.045 19.503 349.532C19.7771 348.216 19.005 345.315 20.3201 345.584C27.4992 347.065 13.6163 372.537 6.77849 375.308C-11.9167 382.876 -33.6036 373.2 -43.1461 355.953C-55.7232 333.205 -42.1195 308.192 -22.8585 295.517C-13.714 289.507 -1.55318 286.195 8.55602 290.89C9.24719 291.205 16.3692 295.205 15.6389 296.466C12.5237 301.834 -2.75065 272.549 -3.10482 271.606C-11.0822 250.401 -1.89922 232.524 16.2506 221.681C30.3072 213.286 54.3071 219.08 59.9645 235.229C61.3475 239.176 63.5568 260.885 67.3851 263.103C70.6917 265.019 70.8252 256.222 73.1376 253.177C78.3694 246.289 84.6545 241.183 92.1279 236.924C110.621 226.402 123.803 227.013 141.362 239.673C162.3 254.78 154.1 278.847 136.693 292.221C130.593 296.904 116.11 303.826 108.415 301.611C107.124 301.239 103.791 301.959 104.468 300.799C105.986 298.172 125.552 301.066 126.992 301.33C145.238 304.644 172.725 320.759 161.524 343.436C148.55 369.714 96.4065 366.542 78.2605 346.015" fill="#BFB1F7"/>
</g>
<defs>
<clipPath id="clip0_2944_79422">
<rect width="360" height="360" fill="white"/>
</clipPath>
</defs>
</svg>
