<svg width="360" height="360" viewBox="0 0 360 360" fill="none" xmlns="http://www.w3.org/2000/svg">
<g clip-path="url(#clip0_2944_79413)">
<rect width="360" height="360" fill="#FFF7E8"/>
<path fill-rule="evenodd" clip-rule="evenodd" d="M378.017 -54.9719C378.604 -51.4316 378.849 -46.61 378.966 -45.4867C379.321 -42.0982 379.781 -38.7197 380.03 -35.3206C380.313 -31.4619 380.366 -27.5877 380.562 -23.7225C381.224 -10.7972 380.427 1.82749 380.834 14.6517C381.932 49.2553 373.857 104.087 353.51 134.004C339.779 154.194 298.59 160.962 281.218 142.229C270.511 130.682 275.175 112.913 280.15 99.488C281.919 94.7143 283.688 89.9417 285.457 85.168C285.811 84.2135 286.519 82.3034 286.519 82.3034C286.519 82.3034 283.318 90.941 281.716 95.2638C279.169 102.135 276.19 108.536 271.424 113.845C259.819 126.774 233.366 123.831 222.017 112.96C202.802 94.5525 208.803 70.4021 217.228 47.6675C233.358 4.14527 271.093 -41.9215 309.236 -68.0717C328.714 -81.4249 346.424 -86.0493 368.432 -77.8932C375.063 -75.4357 377.28 -59.4166 378.017 -54.9719Z" fill="#F2C65E"/>
</g>
<defs>
<clipPath id="clip0_2944_79413">
<rect width="360" height="360" fill="white"/>
</clipPath>
</defs>
</svg>
