<svg width="265" height="302" viewBox="0 0 265 302" fill="none" xmlns="http://www.w3.org/2000/svg">
<g clip-path="url(#clip0_2666_83007)">
<rect width="265" height="302" rx="16" fill="#FFF7E8"/>
<path d="M-17.7435 286.945C-10.8054 279.19 1.90189 261.815 2.08767 254.91C0.180754 226.31 -9.60975 198.833 -14.3133 170.633C-14.7021 168.286 -19.0195 138.989 -18.8874 138.596C-18.729 138.121 12.444 128.262 15.0528 127.537C19.4986 126.304 24.2505 124.656 28.4009 122.579C30.0083 121.775 34.574 117.868 34.8829 118.386C44.4355 134.309 41.9275 174.748 43.2722 193.132C43.3816 194.631 45.0714 221.624 45.1801 221.733C45.6081 222.161 48.8817 211.39 48.9936 211.055C51.1647 204.538 52.4695 197.873 54.3311 191.226C59.0109 174.512 65.1837 158.714 71.1107 142.412C73.2027 136.665 71.5567 128.396 74.926 123.343C75.752 122.103 105.797 131.308 108.865 132.115C113.838 133.424 124.328 134.672 124.504 135.545C125.389 139.987 119.217 149.746 117.637 153.852C110.085 173.489 100.166 190.853 89.4162 208.768C84.881 216.327 78.7596 223.976 75.3083 232.028C74.9904 232.769 73.9765 233.749 74.5448 234.317C75.3277 235.1 90.9232 223.046 92.0868 222.115C108.596 208.908 128.744 203.025 147.766 194.656C148.83 194.188 161.179 186.301 161.874 186.65C162.109 186.763 177.226 212.779 178.654 214.869C179.159 215.604 192.263 228.457 192.002 228.98C190.742 231.5 176.52 233.395 174.08 233.935C155.804 237.997 138.507 245.29 120.308 249.572C112.247 251.468 104.611 254.211 96.6637 256.436C92.5764 257.582 84.0794 258.343 84.0794 258.343C84.0794 258.343 87.1122 259.014 88.6527 259.108C94.7536 259.464 101.421 260.366 107.343 261.774C122.131 265.296 136.673 270.077 151.577 273.218C154.245 273.777 179.035 279.447 179.035 282.37C179.038 289.025 170.954 299.974 167.592 305.25C162.931 312.582 153.404 328.596 148.145 333.854C146.767 335.233 141.033 329.514 140.14 328.894C135.497 325.684 129.53 323.402 124.502 320.887C104.701 310.983 83.9718 300.441 62.7215 294.192C57.9992 292.803 50.1397 286.945 45.5617 286.945C45.2147 286.944 28.5139 306.884 27.6364 307.921C10.839 327.772 -4.29142 348.239 -22.7019 366.649C-30.0697 374.017 -37.8047 380.989 -45.2013 388.386C-45.3956 388.58 -46.7547 390.28 -47.4901 389.912C-51.2218 388.045 -53.3329 378.606 -55.8786 375.419C-62.3834 367.288 -68.5015 360.414 -76.8533 354.445C-77.1971 354.202 -78.6393 352.932 -78.3787 352.156C-75.9729 344.937 -63.6859 337.565 -58.9312 331.946C-45.7638 316.384 -31.3478 302.149 -17.7435 286.945Z" fill="#D8F177"/>
<path d="M266.795 239.638C255.433 238.5 261.186 226.124 268.556 223.818C279.238 220.476 288.006 235.708 278.214 241.836C268.422 247.959 250.044 229.316 266.354 223.379C268.058 222.76 269.839 222.343 271.628 222.06C285.383 219.887 281.564 243.192 275.141 242.274C273.715 242.071 276.252 228.81 275.582 226.455C274.998 224.427 271.628 224.58 271.628 222.06C271.628 219.637 275.85 217.12 276.893 215.03C281.478 205.859 286.79 199.727 296.659 194.376C298.401 193.433 306.997 187.969 309.83 189.103C311.352 189.711 308.585 192.165 307.638 193.498C306.662 194.857 305.599 196.141 304.565 197.453C299.215 204.227 294.706 212.735 287.872 218.105C285.737 219.789 283.45 221.279 281.286 222.94C280.128 223.833 276.74 224.54 277.774 225.576C278.08 225.883 292.428 219.223 293.146 218.985C303.666 215.474 320.426 219.504 326.954 228.653C327.806 229.836 331.788 232.995 331.788 234.365C331.788 234.693 331.233 234.804 330.907 234.804C324.896 234.804 318.473 232.699 312.462 232.168C307.025 231.687 287.087 229.356 282.167 233.046C281.43 233.603 284.043 233.398 284.799 233.926C286.254 234.929 287.403 236.302 288.753 237.441C292.553 240.661 294.62 244.514 296.219 249.305C299.751 259.916 299.732 269.968 298.411 280.945C298.411 280.985 297.827 291.492 296.659 291.492C296.362 291.492 293.5 283.583 293.146 283.142C286.637 275.008 274.854 267.676 273.82 256.337C273.399 251.66 274.155 247.597 275.141 243.154C275.237 242.725 275.448 242.146 275.141 241.836C274.538 241.231 274.261 243.3 273.82 244.032C272.901 245.566 271.925 247.081 270.748 248.427C267.962 251.619 265.761 253.148 262.411 255.897C253.978 262.801 239.754 276.504 229.034 279.187C227.885 279.473 230.096 277.066 230.785 276.111C234.222 271.394 232.116 274.901 233.867 269.959C235.964 264.008 236.796 254.893 240.893 250.185C245.679 244.672 257.749 240.69 261.09 235.683C261.903 234.458 258.151 235.899 256.696 236.123C252.552 236.761 253.327 237.023 247.479 236.123C237.648 234.61 230.182 227.085 222.448 221.622C221.635 221.045 216.389 218.003 216.734 215.909C217.165 213.349 229.646 214.59 230.355 214.59C237.246 214.59 244.588 215.81 251.432 216.787C255.251 217.334 261.97 221.622 261.97 221.622C261.97 221.622 260.439 220.836 259.769 220.303C256.045 217.318 255.27 216.567 252.743 211.514C249.795 205.616 242.511 182.21 248.79 175.92C250.092 174.625 258.352 186.155 258.888 186.906C263.645 193.569 271.571 200.476 274.701 207.999C275.716 210.445 277.774 224.768 277.774 218.545" stroke="#020207" stroke-width="4" stroke-miterlimit="10" stroke-linecap="round" stroke-linejoin="round"/>
<path d="M264.082 192.791C263.201 192.791 260.885 193.466 261.45 192.791C262.531 191.484 283.522 179.169 284.279 179.169C286.538 179.169 286.04 193.433 286.04 194.549C286.04 197.398 286.815 201.291 285.159 203.777" stroke="#020207" stroke-width="4" stroke-miterlimit="10" stroke-linecap="round" stroke-linejoin="round"/>
<path d="M260.077 260.752C256.487 259.854 264.202 271.281 264.911 272.617C266.078 274.814 267.313 276.981 268.424 279.208C268.778 279.914 268.644 281.843 269.304 281.405C271.104 280.206 271.027 277.381 272.377 275.692C273.679 274.067 274.942 272.411 276.33 270.859C277.431 269.624 278.627 268.467 279.843 267.344C284.839 262.723 274.473 272.586 275.009 275.254C275.191 276.173 283.107 279.961 284.236 280.527" stroke="#020207" stroke-width="4" stroke-miterlimit="10" stroke-linecap="round" stroke-linejoin="round"/>
<path d="M247.969 269.638C257.244 271.958 252.765 285.819 264.213 273.593C264.921 272.837 265.677 272.127 266.414 271.395" stroke="#020207" stroke-width="4" stroke-miterlimit="10" stroke-linecap="round" stroke-linejoin="round"/>
<path d="M240.792 234.307C239.366 230.018 218.059 260.933 239.911 253.641" stroke="#020207" stroke-width="4" stroke-miterlimit="10" stroke-linecap="round" stroke-linejoin="round"/>
<path d="M239.551 217.11C239.169 214.02 236.201 198.585 236.919 197.335C237.206 196.827 238.154 197.073 238.671 197.335C244.663 200.331 249.832 204.877 256.235 207.442" stroke="#020207" stroke-width="4" stroke-miterlimit="10" stroke-linecap="round" stroke-linejoin="round"/>
<path d="M274.201 279.155C274.201 278.264 274.728 275.632 274.642 276.519C273.838 284.535 269.195 291.758 266.735 299.369C262.724 311.794 260.159 324.235 258.398 337.161C256.024 354.535 256.809 374.639 258.398 392.09C259.24 401.4 262.351 411.325 262.351 420.653C262.351 421.72 261.605 418.636 261.471 417.577C261.289 416.116 261.155 414.649 261.03 413.182C260.523 407.329 260.006 401.473 259.709 395.605C259.595 393.264 259.709 390.918 259.709 388.575" stroke="#020207" stroke-width="4" stroke-miterlimit="10" stroke-linecap="round" stroke-linejoin="round"/>
<path d="M280.183 270.754C274.947 281.245 272.047 293.192 269.645 304.59C268.735 308.942 266.668 312.994 265.701 317.333C263.672 326.349 264.83 327.501 263.94 336.229C262.513 350.244 260.513 363.815 261.748 377.975C262.686 388.808 265.462 399.301 266.572 410.054C267.031 414.438 269.022 427.073 270.085 422.798" stroke="#020207" stroke-width="4" stroke-miterlimit="10" stroke-linecap="round" stroke-linejoin="round"/>
<path d="M204.069 326.809C198.201 327.826 200.833 316.054 201.695 312.361C202.748 307.849 204.298 303.404 206.442 299.299C207.629 297.025 214.205 290.793 217.517 292.173C230.497 297.586 218.082 320.289 213.162 327.403C211.841 329.322 209.888 333.553 208.022 332.153C206.634 331.11 212.272 322.517 213.162 321.465C218.139 315.578 236.393 309.362 239.666 320.278C242.643 330.218 223.155 335.64 216.723 335.319C214.301 335.198 211.104 333.951 208.816 333.34C208.165 333.167 206.366 333.42 206.835 332.944C208.96 330.821 222.226 339.592 223.452 340.465C231.904 346.504 233.09 360.555 224.638 368.173C218.398 373.793 210.702 358.007 209.209 354.715C207.878 351.786 205.945 348.032 206.442 344.82C206.557 344.077 208.711 339.624 207.237 338.882C205.935 338.232 207.333 341.788 207.237 343.236C206.931 347.405 206.5 349.955 205.255 354.319C202.049 365.535 195.856 374.391 182.312 372.131C174.568 370.839 171.352 357.513 174.003 351.549C178.674 341.047 188.763 339.643 198.134 337.298C199.292 337.008 195.751 337.48 194.573 337.694C191.931 338.176 189.299 338.749 186.667 339.277C181.718 340.268 168.452 339.462 167.676 331.757C166.796 322.915 174.846 320.231 181.919 320.673C186.121 320.936 191.549 324.48 195.368 326.215C196.66 326.803 199.321 327.798 199.321 327.798C199.321 327.798 197.885 327.154 197.34 326.61C196.392 325.657 192.199 321.466 192.199 321.465C189.787 318.867 187.404 316.236 185.078 313.548C183.403 311.605 176.961 303.546 181.517 300.882C195.167 292.915 202.604 303.447 204.069 315.923C204.375 318.508 207.026 326.296 204.069 326.809Z" stroke="#020207" stroke-width="4" stroke-miterlimit="10" stroke-linecap="round" stroke-linejoin="round"/>
<path d="M132.694 245.639C123.811 240.307 136.867 222.806 141.002 228.223C148.392 237.894 131.019 259.001 131.909 245.639C132.072 243.084 132.924 240.617 133.489 238.119C133.67 237.305 134.015 236.536 134.283 235.744" stroke="#020207" stroke-width="4" stroke-miterlimit="10" stroke-linecap="round" stroke-linejoin="round"/>
<path d="M136.255 232.714C136.255 222.9 142.63 214.457 146.545 205.797C150.45 197.141 153.992 188.131 159.591 180.464C161.304 178.119 163.238 175.936 165.133 173.735C167.028 171.533 169.201 167.013 171.853 168.193C175.145 169.657 172.762 180.044 171.46 184.818C167.727 198.519 160.826 209.458 152.872 220.839C150.756 223.867 149.99 227.679 147.329 230.339C146.87 230.806 148.105 229.27 148.516 228.756C150.287 226.548 148.516 227.209 152.47 224.401C155.81 222.033 157.782 221.052 161.18 220.047C171.901 216.869 195.964 211.708 203.899 221.235C205.967 223.727 200.377 232.176 198.357 233.109C190.489 236.743 173.384 238.655 164.339 239.443C159.304 239.88 155.408 239.552 150.89 237.464C150.46 237.265 149.282 236.885 149.703 236.672C151.465 235.792 161.62 240.897 161.965 241.026C176.438 246.457 186.9 253.835 189.656 269.922C189.896 271.301 191.044 277.427 190.049 279.818C187.838 285.13 180.352 278.03 178.974 276.651C171.661 269.33 167.373 259.761 158.404 254.484C155.81 252.954 153.226 250.43 150.498 249.338C149.34 248.876 147.09 246.139 147.329 247.36C148.2 251.73 152.498 258.027 153.656 262.005C156.911 273.155 162.357 307.816 147.329 314.651C144.965 315.726 139.883 304.177 139.816 303.963C136.15 292.685 136.753 281.503 135.47 269.922C135.106 266.698 135.862 263.574 135.862 260.422C135.862 259.228 136.255 255.664 136.255 256.86C136.255 266.286 119.15 280.517 112.526 285.755C109.109 288.453 103.433 292.95 99.0777 288.922C88.6252 279.265 108.219 260.745 113.713 255.672C115.771 253.77 117.896 251.942 120.04 250.131C120.442 249.791 123.026 248.943 122.806 248.943C110.851 248.943 98.5608 258.622 86.0217 255.276C80.9007 253.909 74.8129 249.416 72.1806 244.588C71.9126 244.111 71.3575 243.35 71.7787 243.005C81.0921 235.383 104.668 234.424 115.685 233.505C116.077 233.472 116.479 233.505 116.872 233.505C119.112 233.505 121.399 233.065 123.601 233.505C124.874 233.761 128.368 234.606 127.162 235.088C123.333 236.62 115.13 230.598 112.526 229.151C108.602 226.972 104.648 224.851 100.657 222.818C96.8761 220.892 93.0282 219.079 89.1899 217.277C85.141 215.379 75.9711 209.71 78.9001 203.422C84.2795 191.897 104.601 207.959 108.965 211.734C111.435 213.871 113.914 216.022 116.087 218.463C118.154 220.791 119.676 223.553 121.619 225.985C123.591 228.445 126.367 231.181 128.348 233.901C128.626 234.286 129.286 235.54 129.133 235.088C122.825 216.146 122.012 199.566 122.012 179.672C122.012 176.582 121.744 170.942 125.18 169.38C128.511 167.868 133.335 177.223 134.283 179.276C135.479 181.907 136.82 184.486 137.834 187.193C143.922 203.323 142.582 210.101 142.582 225.985" stroke="#020207" stroke-width="4" stroke-miterlimit="10" stroke-linecap="round" stroke-linejoin="round"/>
<path d="M133.898 270.212C131.697 262.502 130.644 272.65 129.151 276.941C127.868 280.647 126.346 284.273 125.197 288.025C121.512 300.117 119.483 313.406 118.87 326.025C118.095 341.94 118.392 359.826 121.244 375.504C124.872 395.481 134.932 414.059 139.833 433.692" stroke="#020207" stroke-width="4" stroke-miterlimit="10" stroke-linecap="round" stroke-linejoin="round"/>
<path d="M136.59 277.455C129.286 284.771 131.603 302.503 130.263 311.893C127.764 329.382 123.495 347.964 125.917 365.726C129.152 389.507 139.605 411.788 137.384 436.184" stroke="#020207" stroke-width="4" stroke-miterlimit="10" stroke-linecap="round" stroke-linejoin="round"/>
</g>
<defs>
<clipPath id="clip0_2666_83007">
<rect width="265" height="302" rx="16" fill="white"/>
</clipPath>
</defs>
</svg>
