<svg width="24" height="24" viewBox="0 0 24 24" fill="none" xmlns="http://www.w3.org/2000/svg">
<path d="M6.42438 12.8893C6.92518 12.3903 7.56844 12.0589 8.26549 11.9408C8.96254 11.8227 9.67906 11.9237 10.3163 12.2299L16.93 5.61624L18.5462 7.23249L17.7381 8.04061L19.3543 9.65685L17.7381 11.2731L16.1218 9.65685L11.9325 13.8462C12.2387 14.4834 12.3397 15.1999 12.2216 15.897C12.1035 16.594 11.7721 17.2373 11.2731 17.7381C10.6301 18.3811 9.75806 18.7423 8.84874 18.7423C7.93943 18.7423 7.06736 18.3811 6.42438 17.7381C5.78139 17.0951 5.42017 16.223 5.42017 15.3137C5.42017 14.4044 5.78139 13.5323 6.42438 12.8893ZM9.65687 16.1218C10.1021 15.6766 10.1021 14.9509 9.65687 14.5056C9.21159 14.0603 8.4859 14.0603 8.04062 14.5056C7.59535 14.9509 7.59535 15.6766 8.04062 16.1218C8.4859 16.5671 9.21159 16.5671 9.65687 16.1218Z" fill="#a6a6a6"/>
<path d="M15.3137 10.465L16.93 12.0812L15.3137 13.6975L13.6975 12.0812L15.3137 10.465Z" fill="#a6a6a6"/>
</svg>
