<svg width="1200" height="320" viewBox="0 0 1200 320" fill="none" xmlns="http://www.w3.org/2000/svg">
<g clip-path="url(#clip0_1384_20260)">
<rect width="1200" height="320" rx="16" fill="#FFF7E8"/>
<path d="M643.5 -63.5C641 -60.25 638.755 -57.1233 635.693 -53.2969C629.539 -45.6029 625.582 -29.8329 622.184 -20.8774C610.141 10.8691 601.837 47.5374 623.083 77.2816C633.331 91.6298 645.547 109.039 660.005 119.608C715.017 159.807 801.546 146.716 842.819 91.6905C892.838 24.998 865.73 -63.2879 786.982 -87.5176C751.102 -98.5582 723.777 -100.969 688.823 -89.3187C678.494 -85.8751 658.813 -80.0216 651.001 -72.2084C648.259 -69.4648 648.5 -70 643.5 -63.5Z" fill="#BFB1F7"/>
<path d="M398.414 301.184C401.407 292.541 405.808 274.137 403.61 268.473C392.337 245.925 375.049 226.961 361.643 205.685C360.529 203.914 347.063 181.617 347.036 181.253C347.003 180.814 368.943 162.241 370.814 160.768C374.001 158.259 377.297 155.31 379.958 152.218C380.989 151.02 383.365 146.302 383.791 146.617C396.957 156.29 408.675 189.94 416.018 204.394C416.616 205.572 427.167 226.892 427.292 226.943C427.785 227.145 426.778 217.298 426.755 216.989C426.3 210.966 425.092 205.119 424.342 199.096C422.455 183.951 422.091 169.044 421.356 153.811C421.099 148.44 416.952 142.292 417.967 137.05C418.216 135.764 445.724 133.035 448.488 132.649C452.968 132.024 461.904 129.476 462.343 130.125C464.572 133.427 462.883 143.436 462.997 147.303C463.548 165.792 461.404 183.24 458.775 201.418C457.666 209.088 455.301 217.369 455.239 225.071C455.232 225.779 454.743 226.918 455.397 227.186C456.299 227.555 464.853 212.487 465.481 211.337C474.384 195.023 488.731 183.416 501.319 170.174C502.024 169.433 509.361 158.846 510.044 158.894C510.273 158.905 531.386 174.876 533.256 176.087C533.915 176.512 548.918 182.49 548.884 183.003C548.719 185.474 537.824 191.837 536.028 193.103C522.581 202.598 511.026 214.383 497.716 224.031C491.821 228.303 486.558 233.12 480.866 237.621C477.94 239.937 471.304 243.437 471.304 243.437C471.304 243.437 473.993 242.953 475.275 242.506C480.346 240.725 486.063 239.193 491.346 238.326C504.543 236.165 517.968 235.108 531.129 232.599C533.484 232.147 555.525 228.334 556.519 230.705C558.785 236.101 555.95 247.724 555.017 253.145C553.728 260.673 551.443 276.893 548.965 282.943C548.315 284.529 541.718 281.835 540.783 281.636C535.924 280.608 530.306 280.782 525.372 280.448C505.937 279.134 485.533 277.617 466.166 279.76C461.862 280.235 453.493 278.151 449.779 279.704C449.497 279.821 442.727 301.661 442.368 302.8C435.49 324.599 430.174 346.333 421.497 367.512C418.024 375.988 414.119 384.267 410.633 392.775C410.542 392.999 410.017 394.839 409.295 394.79C405.632 394.542 400.71 387.602 397.56 385.882C389.517 381.494 382.216 377.995 373.409 375.987C373.048 375.907 371.446 375.367 371.393 374.649C370.89 367.978 378.352 357.829 380.3 351.659C385.691 334.569 392.547 318.132 398.414 301.184Z" fill="#D8F177"/>
<path d="M140.298 243.408C152.837 237.148 156.631 218.713 159.921 206.673C165.338 186.838 175.45 168.037 188.808 152.796C192.99 148.022 206.708 128.616 213.333 129.939C215.828 130.437 212.456 136.005 211.698 137.014C206.983 143.29 198.498 148.332 192.622 153.612C190.867 155.19 188.755 156.483 186.901 157.966C186.196 158.527 184.14 159.587 184.991 159.871C187.243 160.62 194.745 152.309 196.164 150.891C203.078 143.988 209.487 133.826 218.51 129.667C221.274 128.394 227.042 124.812 228.868 129.667C230.611 134.306 224.334 139.13 221.78 141.912C215.893 148.326 209.806 151.302 203.251 156.061C198.513 159.502 195.398 164.709 190.715 168.306C186.889 171.244 183.625 174.976 179.814 177.83C178.509 178.806 177.518 179.189 176.544 180.551C176.017 181.289 174.095 183.133 174.909 182.728C179.758 180.306 184.681 173.14 188.808 169.394C195.158 163.63 202.464 159.3 208.972 153.884C211.368 151.892 218.566 146.352 222.055 148.442C226.849 151.315 219.645 158.805 217.966 160.959C213.836 166.263 211.4 163.285 206.793 165.585C200.826 168.564 198.653 172.848 196.164 178.646C192.961 186.109 194.661 195.038 189.624 201.503C187.843 203.792 186.447 206.463 185.263 209.122C184.786 210.199 183.528 213.506 183.903 212.387C185.45 207.748 189.179 203.925 190.715 199.326C193.605 190.673 194.117 180.421 200.797 173.748C205.418 169.134 211.178 163.63 215.787 171.299C219.534 177.534 208.124 193.194 206.521 199.598C203.555 211.44 206.767 225.029 204.339 237.149C203.482 241.432 197.468 249.681 194.529 253.204C190.346 258.217 181.165 260.955 175.728 264.904C170.705 268.549 163.686 271.647 160.193 276.877C160.032 277.116 159.181 278.597 158.83 278.51C157.912 278.28 157.084 268.729 156.651 267.625C154.601 262.417 151.597 257.205 148.748 252.387C146.99 249.417 144.87 247.167 142.205 245.04C142 244.877 140.134 243.397 139.754 242.863C139.374 242.331 138.663 240.577 138.663 241.231C138.663 244.384 147.087 251.317 148.748 254.02C154.592 263.542 158.488 275.725 157.739 286.945C157.397 292.096 157.175 292.007 153.106 293.748C151.875 294.275 151.132 295.04 150.108 295.652C149.611 295.951 148.166 296.741 148.748 296.741C151.84 296.741 152.226 305.016 149.292 305.992C147.037 306.743 142.468 304.981 139.754 305.72C135.665 306.833 131.108 309.836 126.946 311.435C125.501 311.989 124.035 312.524 122.585 313.067C121.859 313.339 119.856 314.431 120.405 313.883C121.73 312.56 128.037 307.046 128.037 304.904C128.037 304.255 121.084 310.886 120.677 310.074C119.107 306.936 121.745 301.067 120.949 297.557C118.545 286.918 106.658 278.176 102.42 267.897C102.005 266.895 98.2579 262.655 99.1471 261.639C105.743 254.114 119.066 248.961 128.037 245.312C130.359 244.367 136.671 244.038 138.391 242.319C139.572 241.14 135.285 243.547 133.758 244.224C131.415 245.264 129.008 246.157 126.674 247.217C118.414 250.966 109.56 257.816 100.785 260.006C98.9979 260.452 96.5293 258.215 94.7889 257.829C91.6944 257.143 85.3268 257.215 82.2527 257.829C71.7932 259.918 61.1201 271.027 52.2752 276.605C50.3096 277.844 45.074 279.618 44.1 282.047C43.7373 282.954 46.01 281.5 46.826 280.958C48.3294 279.957 52.8455 276.19 50.6401 274.428C46.0772 270.782 32.8858 275.244 27.4776 275.244C24.2193 275.244 22.1104 276.29 19.2996 277.693C18.6063 278.04 16.4741 278.08 17.1205 278.51C18.5362 279.453 22.1923 278.803 23.6606 278.51" stroke="#020207" stroke-width="4" stroke-miterlimit="10" stroke-linecap="round" stroke-linejoin="round"/>
<path d="M121.692 303.852C120.73 307.693 122.751 312.513 120.057 315.824C114.629 322.495 110.613 317.135 104.251 319.089C98.0969 320.98 94.8912 327.896 89.2607 330.518C82.7703 333.542 75.417 331.858 68.8243 334.327C60.2279 337.546 52.3774 344.821 44.8399 349.838C44.1905 350.271 45.7144 348.542 46.2029 347.933" stroke="#020207" stroke-width="4" stroke-miterlimit="10" stroke-linecap="round" stroke-linejoin="round"/>
<path d="M115.438 293.277C92.0765 308.827 63.3391 315.222 41.3115 333.549" stroke="#020207" stroke-width="4" stroke-miterlimit="10" stroke-linecap="round" stroke-linejoin="round"/>
<path d="M211.324 261.724C209.776 260.181 210.379 255.381 209.961 253.289C208.247 244.726 204.511 238.285 204.511 229.344" stroke="#020207" stroke-width="4" stroke-miterlimit="10" stroke-linecap="round" stroke-linejoin="round"/>
<path d="M206.554 205.213C205.112 200.893 211.641 180.47 219.09 183.445C221.111 184.252 220.178 190.264 220.178 191.88C220.178 199.936 219.772 207.867 220.997 215.826C221.155 216.862 222.606 225.893 223.723 225.893C225.683 225.893 222.744 222.099 222.36 220.179C222.097 218.874 219.596 209.06 220.997 207.662C221.588 207.071 221.951 209.081 222.632 209.567C224.92 211.199 227.915 214.129 229.173 216.642C229.793 217.878 229.831 221.428 230.808 220.451C231.527 219.734 229.898 218.637 229.445 217.73C226.719 212.286 223.217 205.875 221.269 200.043C219.456 194.615 219.716 188.402 220.453 182.9C220.927 179.336 217.061 177.833 217.455 173.105C217.996 166.609 221.775 160.901 223.176 154.601C223.981 150.989 225.426 139.785 230.264 138.819C234.546 137.964 233.958 147.558 233.806 149.976C233.168 160.138 231.627 170.539 231.627 180.724C231.627 184.75 231.627 188.678 231.627 192.696C231.627 194.332 231.352 199.229 231.352 197.594C231.352 192.793 231.229 187.971 231.352 183.173C231.656 171.322 232.349 159.341 233.262 147.527C233.522 144.141 230.255 140.339 231.08 137.459C231.732 135.183 236.985 130.436 239.255 130.112C246.073 129.139 241.709 152.326 241.709 156.234C241.709 159.92 243.686 163.01 242.8 166.846C241.519 172.387 241.448 177.822 242.253 183.445C242.355 184.155 244.087 191.88 242.525 191.88C242.01 191.88 240.998 188.854 239.802 188.615C230.887 186.834 229.992 199.563 229.992 205.758C229.992 213.846 238.243 220.724 241.165 227.526C243.891 233.879 243.783 241.792 245.523 248.751C246.848 254.039 251.393 258.357 252.063 263.717C252.531 267.456 245.368 280.744 242.8 283.308C241.99 284.116 240.2 283.267 239.255 283.58C236.473 284.507 232.542 290.018 230.808 292.016C223.024 300.984 217.739 312.754 210.915 322.492C207.098 327.935 202.176 332.549 198.379 338.002C192.98 345.752 187.934 358.02 178.756 361.947" stroke="#020207" stroke-width="4" stroke-miterlimit="10" stroke-linecap="round" stroke-linejoin="round"/>
<path d="M210.219 260.654C208.666 257.55 208.043 254.333 205.586 251.675C204.56 250.564 202.998 249.828 201.772 248.954C201.342 248.646 199.935 247.901 200.409 248.137C206.332 251.094 210.225 257.07 209.403 263.648C208.853 268.036 201.611 270.787 198.774 273.443C188.358 283.194 178.314 294.237 168.797 305.008C161.23 313.571 141.115 326.149 137.459 335.484C136.731 337.338 132.258 348.943 132.554 349.089" stroke="#020207" stroke-width="4" stroke-miterlimit="10" stroke-linecap="round" stroke-linejoin="round"/>
<path d="M200.471 271.223C199.792 272.579 206.066 270.903 206.739 270.679C210.36 269.474 214.004 267.857 217.368 266.598" stroke="#020207" stroke-width="4" stroke-miterlimit="10" stroke-linecap="round" stroke-linejoin="round"/>
<path d="M264.812 272.141C261.027 272.141 254.291 263.672 252.551 260.441C250.41 256.47 250.509 251.087 248.734 246.835C243.773 234.944 240.357 221.916 233.746 210.917C231.994 208 231.825 198.335 234.29 196.223C246.131 186.09 253.829 213.616 256.909 222.073C258.199 225.614 266.286 235.518 264.268 233.502" stroke="#020207" stroke-width="4" stroke-miterlimit="10" stroke-linecap="round" stroke-linejoin="round"/>
<path d="M245.861 194.34C244.466 195.037 243.881 183.945 243.954 182.64C244.718 168.951 242.161 155.785 245.589 142.095C246.019 140.381 246.97 128.33 250.494 129.034C252.597 129.454 253.182 137.272 253.492 138.83C255.35 148.105 253.536 157.614 255.674 166.857C257.242 173.649 259.064 180.756 260.032 187.537C260.334 189.63 261.205 191.841 261.942 193.796C261.957 193.835 262.738 196.517 262.486 196.517C261.998 196.517 262.095 195.62 261.942 195.156C260.503 190.848 258.476 186.373 258.125 181.823C256.985 167.03 252.676 152.033 252.676 137.197C252.676 134.24 249.497 125.354 253.764 124.136C256.999 123.214 257.359 132.536 257.581 134.204C259.407 147.883 263.493 160.27 266.848 173.66C268.061 178.509 268.348 183.916 270.118 188.626C270.726 190.245 271.639 191.883 272.297 193.524C272.683 194.484 274.04 196.979 273.116 196.517C270.553 195.238 270.571 188.419 269.571 186.177C264.203 174.12 260.041 161.249 258.944 148.082C258.804 146.427 257.915 131.471 263.03 133.66C264.437 134.262 271.75 152.952 272.025 155.429C274.186 174.848 275.339 194.589 282.654 212.843C283.792 215.684 292.561 234.588 291.917 236.517C289.7 243.158 284.309 253.672 279.109 258.286C274.765 262.142 267.587 265.267 265.212 270.802C264.943 271.426 246.724 281.066 253.492 283.319C255.844 284.101 260.03 278.194 261.667 277.061C263.08 276.084 264.938 276.9 266.573 275.156C274.727 266.472 279.989 256.047 288.375 247.673C290.162 245.888 294.339 236.101 297.097 236.789C308.244 239.571 310.9 257.617 318.897 264.272C323.167 267.826 329.973 272.584 335.247 274.34C338.511 275.425 343.697 272.3 346.42 274.34C347.888 275.438 344.335 276.977 344.513 277.877C344.873 279.672 348.906 275.863 349.418 278.421C349.813 280.38 342.887 287.837 341.79 289.034C335.999 295.341 330.947 302.093 325.437 308.625C321.813 312.924 317.806 316.472 313.991 320.598C313.424 321.213 308.156 328.049 307.723 327.401C305.638 324.274 307.665 318.107 303.909 315.428C302.341 314.31 301.28 318.693 300.639 318.693C298.109 318.693 295.91 308.952 294.643 307.265C291.516 303.1 284.771 299.162 280.744 295.564C275.619 290.986 270.08 288.026 264.121 284.68C262.331 283.674 260.527 283.297 258.669 282.503C258.163 282.286 256.54 281.984 257.034 282.231C262.46 284.94 269.161 283.787 275.023 287.401C280.691 290.897 285.76 297.126 292.189 299.102C295.079 299.989 288.682 295.431 293.552 295.836C298.437 296.243 304.968 301.42 308.542 304.544C314.574 309.815 310.92 315.458 311.812 321.687C312.538 326.762 322.699 333.63 325.165 338.557C326.107 340.437 326.645 344.745 328.435 346.176C330.924 348.164 335.37 346.932 338.245 348.081C343.87 350.328 345.73 359.974 349.146 364.407C351.667 367.678 355.964 368.026 359.231 370.122C363.876 373.105 367.93 379.617 371.221 383.999" stroke="#020207" stroke-width="4" stroke-miterlimit="10" stroke-linecap="round" stroke-linejoin="round"/>
<path d="M347.251 282.701C351.916 292.02 359.357 290.962 367.691 293.041C369.226 293.425 366.968 295.858 367.963 296.851C370.209 299.095 374.313 302.742 377.229 304.198C381.856 306.508 385.825 309.531 390.309 312.089C393.199 313.738 396.908 312.798 399.847 314.266C402.483 315.581 404.314 320.468 406.931 322.429C415.095 328.542 428.479 334.227 438 337.395" stroke="#020207" stroke-width="4" stroke-miterlimit="10" stroke-linecap="round" stroke-linejoin="round"/>
<path d="M367.035 294.479C363.642 304.647 361.928 314.783 356.681 324.41C355.127 327.263 349.155 335.004 350.956 332.302" stroke="#020207" stroke-width="4" stroke-miterlimit="10" stroke-linecap="round" stroke-linejoin="round"/>
<path d="M397.191 315.148C395.676 327.258 391.502 337.419 383.839 346.985" stroke="#020207" stroke-width="4" stroke-miterlimit="10" stroke-linecap="round" stroke-linejoin="round"/>
<path d="M175.386 168.622C179.612 160.185 177.296 144.834 177.296 135.425C177.296 133.668 176.322 125.111 179.747 124.541C187.156 123.308 182.177 147.086 181.926 149.575C181.715 151.676 181.411 153.729 181.11 155.833C180.981 156.735 180.548 159.419 180.838 158.554C182.792 152.699 181.569 143.887 186.834 139.507C188.159 138.404 189.642 138.231 190.92 139.507C192.017 140.602 192.555 143.86 192.555 143.86C192.555 143.86 191.932 140.302 190.648 139.234C189.774 138.507 185.044 136.104 184.924 135.153C184.26 129.847 182.096 118.622 189.013 116.649C191.722 115.877 192.251 132.293 192.555 134.881C192.736 136.415 191.733 140.599 192.827 139.507C195.334 137.005 190.791 128.039 193.646 125.901C194.401 125.336 194.781 126.354 195.009 126.717C197.931 131.389 197.46 135.872 197.46 141.139" stroke="#020207" stroke-width="4" stroke-miterlimit="10" stroke-linecap="round" stroke-linejoin="round"/>
<path d="M201.183 136.808C199.872 132.883 203.47 120.055 205 115.856C205.175 115.374 209.25 109.469 210.177 112.863C211.724 118.522 209.814 125.476 210.996 131.366" stroke="#020207" stroke-width="4" stroke-miterlimit="10" stroke-linecap="round" stroke-linejoin="round"/>
<path d="M215.607 130.836C215.607 128.035 214.73 96.9276 223.785 101.448C229.267 104.186 226.236 122.137 226.236 126.754" stroke="#020207" stroke-width="4" stroke-miterlimit="10" stroke-linecap="round" stroke-linejoin="round"/>
<path d="M228.101 127.402C228.101 124.128 235.22 105.699 239.549 114.341C242.035 119.309 239.549 126.273 239.549 131.484" stroke="#020207" stroke-width="4" stroke-miterlimit="10" stroke-linecap="round" stroke-linejoin="round"/>
<path d="M167.169 186.511C166.098 183.836 164.948 181.272 162.263 179.708C155.404 175.712 158.993 206.757 158.993 208.552" stroke="#020207" stroke-width="4" stroke-miterlimit="10" stroke-linecap="round" stroke-linejoin="round"/>
<path d="M181.163 262.512C181.163 267.166 184.064 271.88 184.433 276.661C184.822 281.696 182.798 285.785 182.798 290.539" stroke="#020207" stroke-width="4" stroke-miterlimit="10" stroke-linecap="round" stroke-linejoin="round"/>
<path d="M226.297 298.805C225.428 299.239 225.753 298.874 225.753 300.165C225.753 303.299 225.765 324.668 226.844 325.743" stroke="#020207" stroke-width="4" stroke-miterlimit="10" stroke-linecap="round" stroke-linejoin="round"/>
<path d="M230.026 293.035C231.077 296.711 233.422 296.729 236.839 298.749C247.325 304.955 268.796 309.683 274.172 293.58" stroke="#020207" stroke-width="4" stroke-miterlimit="10" stroke-linecap="round" stroke-linejoin="round"/>
<path d="M228.319 295.199C225.885 298.847 233.832 305.028 235.95 307.444C240.042 312.114 245.321 316.108 249.03 321.049C252.99 326.321 249.556 335.5 258.843 336.015C262.593 336.223 264.406 332.96 267.562 331.662C276.088 328.156 281.912 332.436 291.544 324.859C293.539 323.291 306.133 310.95 302.173 314.247" stroke="#020207" stroke-width="4" stroke-miterlimit="10" stroke-linecap="round" stroke-linejoin="round"/>
<path d="M287.757 305.053C285.519 311.752 284.449 314.885 279.035 320.291C276.987 322.336 271.579 328.749 272.495 326.005" stroke="#020207" stroke-width="4" stroke-miterlimit="10" stroke-linecap="round" stroke-linejoin="round"/>
<path d="M226.679 303.852C225.729 304.327 226.679 318.406 226.679 320.178C226.679 334.435 218.998 354.759 228.589 367.525" stroke="#020207" stroke-width="4" stroke-miterlimit="10" stroke-linecap="round" stroke-linejoin="round"/>
<path fill-rule="evenodd" clip-rule="evenodd" d="M60.3252 6.34364C66.5925 8.23188 65.2622 0.785454 66.7341 -3.85311C70.9266 -21.9895 95.6184 -65.2906 133.568 -36.5236C154.206 -20.8786 157.283 5.50287 141.941 26.6461C135.278 35.8274 126.363 44.2851 117.669 51.3322C117.155 51.7486 116.324 52.5095 115.836 52.0756C114.974 51.3107 129.114 44.9971 129.188 44.9626C139.051 40.434 148.99 40.4853 159.569 41.1179C183.731 42.5631 209.569 71.1674 199.367 96.627C192.507 113.744 169.636 130.918 151.002 125.999C139.575 122.983 130.4 113.629 121.843 106.029C117.642 102.296 107.625 96.9577 107.625 96.9577C107.625 96.9577 114.314 107.193 117.2 112.577C121.573 120.733 128.758 130.268 129.274 139.902C130.43 161.528 109.38 182.315 89.2385 184.975C79.2311 186.297 46.3832 176.331 43.2515 165.472C39.3841 152.063 39.7216 135.209 43.4086 121.737C45.0131 115.874 49.352 104.487 49.352 104.487C49.352 104.487 47.3894 106.696 46.4085 107.801C42.7899 111.875 38.1325 116.051 33.2554 118.648C23.31 123.946 13.0907 127.33 1.96419 128.799C-23.2729 132.132 -52.3713 110.933 -52.2312 84.2189C-52.1547 69.7096 -32.9861 47.6844 -19.4604 43.3654C-12.7389 41.219 -5.21222 41.0696 1.68953 41.9926C2.60808 42.1158 4.24409 43.077 4.24409 43.077C4.24409 43.077 -2.4908 38.2536 -6.10823 36.2523C-12.028 32.979 -18.5611 27.4533 -23.0813 22.3623C-34.015 10.0484 -32.3241 -0.229209 -21.8021 -12.0752C-5.13588 -30.8387 19.3886 -24.7224 36.7233 -13.2962C45.8204 -7.30031 45.4222 -8.21775 52.841 -1.62813" fill="#F19077"/>
<path d="M1069.26 154.591C1054.11 125.401 1011.1 169.702 1021.06 201.197C1034.87 244.85 1128.61 293.242 1170.15 302.359C1188.47 306.38 1220.42 308.806 1234.41 292.014C1245.4 278.811 1240.05 241.424 1238.11 225.779C1231.24 170.318 1208.78 91.5298 1143.93 77.3006C1126.65 73.5073 1110.2 91.5516 1111.37 108.742C1111.49 110.642 1116.1 128.786 1115.3 128.987C1112.89 129.598 1093.51 97.113 1076.69 111.609C1068.55 118.621 1066.71 131.97 1065.95 142.252C1065.63 146.509 1072.36 160.55 1069.26 154.591Z" fill="#F2C65E"/>
<path d="M933.801 124.044C928.421 145.601 926.193 171.723 942.811 188.372C945.938 191.506 952.547 194.961 957.176 194.297C977.872 191.333 991.988 143.014 994.907 125.452C996.088 118.368 998.328 110.142 996.879 102.882C995.53 96.1118 989.893 92.6565 985.055 88.7747C982.269 86.5422 982.706 80.6413 979.141 79.7483C973.821 78.4168 963.158 75.947 958.019 77.4916C933.332 84.9091 912.864 116.261 927.325 140.408C928.305 142.049 930.955 132.954 931.268 131.944C932.858 126.759 938.198 122.825 943.096 120.939C948.175 118.98 953.775 121.228 958.862 119.531C963.029 118.139 970.24 116.651 973.789 113.887C974.805 113.095 978.294 107.681 979.984 108.525C986.978 112.029 989.415 124.885 992.655 131.377" stroke="#020207" stroke-width="4" stroke-miterlimit="10" stroke-linecap="round" stroke-linejoin="round"/>
<path d="M980.496 110.278C980.496 99.4652 981.869 102.494 971.486 106.328C970.479 106.698 958.53 109.425 958.53 109.147C958.53 108.657 974.401 105.511 976.272 104.071C981.246 100.237 985.659 86.1989 978.524 82.627" stroke="#020207" stroke-width="4" stroke-miterlimit="10" stroke-linecap="round" stroke-linejoin="round"/>
<path d="M966.971 137.248C963.719 137.248 964.458 162.256 963.591 166.592C962.9 170.056 955.284 173.99 951.201 172.236C950.462 171.918 948.949 171.387 948.949 171.387C948.949 171.387 950.306 172.469 950.92 173.081C953.995 176.166 963.049 178.986 966.686 175.337" stroke="#020207" stroke-width="4" stroke-miterlimit="10" stroke-linecap="round" stroke-linejoin="round"/>
<path d="M971.416 147.244C974.491 147.244 980.433 145.14 982.397 148.093" stroke="#020207" stroke-width="4" stroke-miterlimit="10" stroke-linecap="round" stroke-linejoin="round"/>
<path d="M954.241 144.326C949.355 141.876 944.147 142.504 939.036 141.221" stroke="#020207" stroke-width="4" stroke-miterlimit="10" stroke-linecap="round" stroke-linejoin="round"/>
<path d="M932.136 171.346C932.136 193.341 883.247 194 874.688 209.435C869.468 218.856 872.102 230.766 871.592 241.036C870.404 264.849 866.67 288.936 868.493 312.701C869.36 323.976 870.633 336.94 883.42 339.784" stroke="#020207" stroke-width="4" stroke-miterlimit="10" stroke-linecap="round" stroke-linejoin="round"/>
<path d="M980.793 174.654C979.344 177.559 990.914 181.058 992.621 182.555C1004 192.526 1022.83 193.657 1032.05 205.974C1050.63 230.792 1051.9 265.527 1057.11 295.128C1058.52 303.129 1065 313.149 1063.87 321.086C1062.75 328.946 1046.27 335.49 1040.49 339.987C1040.32 340.124 1039.53 340.848 1039.09 340.555C1038.35 340.06 1039.77 315.535 1038.52 311.774C1037.78 309.529 1028.38 302.683 1028.38 303.029C1028.38 306.516 1036.66 310.86 1037.68 315.161C1038.69 319.436 1039.31 345.333 1029.51 342.53C1025.3 341.323 1023.63 336.613 1020.22 335.474" stroke="#020207" stroke-width="4" stroke-miterlimit="10" stroke-linecap="round" stroke-linejoin="round"/>
<path d="M880.89 338.623C880.637 339.134 892.818 342.09 894.408 342.292C894.934 342.356 893.657 341.539 893.284 341.161C892.059 339.934 891.059 338.498 889.903 337.211C888.566 335.723 886.037 333.229 885.118 331.286C882.464 325.711 881.785 315.035 883.427 309.279C884.664 304.935 888.498 299.504 893.003 298.277C895.311 297.646 901.619 296.246 899.479 295.172C897.68 294.271 894.255 297.042 892.718 296.017C889.598 293.933 893.657 285.1 893.284 282.477C893.015 280.598 889.337 279.263 888.775 276.833C885.539 262.783 878.164 246.238 884.27 232.256" stroke="#020207" stroke-width="4" stroke-miterlimit="10" stroke-linecap="round" stroke-linejoin="round"/>
<path d="M1029.7 303.36C1021.4 303.36 1013.35 280.975 1011.68 274.302C1010.94 271.345 1009.47 268.614 1008.86 265.553C1008.6 264.213 1007.74 260.235 1007.74 261.603C1007.74 263.674 1007.74 265.742 1007.74 267.813C1007.74 293.179 994.815 246.784 988.588 254.27C983.205 260.742 994.896 275.038 992.812 277.122C992.322 277.612 990.604 276.023 990.56 275.995C984.256 271.973 978.058 269.161 971.132 266.683C969.976 266.269 962.958 263.888 962.681 265.553C962.022 269.527 978.451 278.477 978.451 281.072C978.451 281.426 977.443 281.369 977.327 281.353C973.918 280.975 958.939 269.302 955.362 272.89C953.495 274.756 960.521 280.79 959.585 281.353C958.578 281.961 953.426 281.715 954.796 284.459C956.048 286.965 963.195 287.64 965.499 289.253C971.409 293.401 979.989 296.18 985.212 300.541C987.344 302.323 987.516 305.364 990.279 306.747C994.916 309.072 1001.3 310.661 1005.21 314.084C1012.13 320.154 1016.04 342.334 1030.83 338.63" stroke="#020207" stroke-width="4" stroke-miterlimit="10" stroke-linecap="round" stroke-linejoin="round"/>
<path d="M1035.7 304.827C1036.58 305.048 1042.44 306.875 1042.73 305.109C1043.27 301.899 1035.13 298.809 1033.16 297.49C1027.65 293.81 1017.67 283.846 1017.67 276.613" stroke="#020207" stroke-width="4" stroke-miterlimit="10" stroke-linecap="round" stroke-linejoin="round"/>
<path d="M895.754 340.318C905.57 333.431 914.511 323.914 920.252 313.23C922.866 308.367 924.179 303.093 928.138 299.123" stroke="#020207" stroke-width="4" stroke-miterlimit="10" stroke-linecap="round" stroke-linejoin="round"/>
<path d="M898.067 297.541C901.263 297.541 905.093 295.196 908.204 294.158" stroke="#020207" stroke-width="4" stroke-miterlimit="10" stroke-linecap="round" stroke-linejoin="round"/>
<path d="M948.193 223.214C942.259 221.73 937.011 220.454 930.732 221.239C926.954 221.713 926.268 231.106 925.384 233.652C921.49 244.863 920.358 256.384 917.218 267.791C916.05 272.027 910.248 291.862 911.023 295.724C911.16 296.415 913.031 295.921 913.557 296.005C920.025 297.087 925.453 299.199 932.141 298.829C938.934 298.451 943.74 300.51 950.164 301.367C962.714 303.045 980.785 300.06 992.404 305.88" stroke="#020207" stroke-width="4" stroke-miterlimit="10" stroke-linecap="round" stroke-linejoin="round"/>
<path d="M946.306 221C961.594 221 977.653 225.397 993.054 226.362C1000.41 226.821 1010.47 225.879 1015.3 233.132C1019.07 238.808 1011.37 254.246 1009.39 260.219" stroke="#020207" stroke-width="4" stroke-miterlimit="10" stroke-linecap="round" stroke-linejoin="round"/>
<path d="M931.216 180.613C927.932 180.613 923.717 184.95 921.079 186.538C907.778 194.535 906.019 196.579 899.395 210.521C898.808 211.756 891.18 222.769 892.634 223.497C901.707 228.043 920.328 202.995 923.612 196.414C923.921 195.798 928.414 185.123 928.398 185.127C920.613 189.028 924.299 216.647 932.34 220.677" stroke="#020207" stroke-width="4" stroke-miterlimit="10" stroke-linecap="round" stroke-linejoin="round"/>
<path d="M976.368 184.034C973.265 186.105 971.808 195.188 970.455 198.422C966.893 206.946 962.276 217.143 954.403 222.404C953.56 222.967 956.121 221.314 956.936 220.711C958.494 219.568 960.076 218.414 961.445 217.042C964.894 213.587 966.295 211.93 968.764 207.449C972.41 200.844 976.204 181.005 980.873 177.26C981.038 177.131 981.23 176.938 981.439 176.978C989.38 178.571 992.986 202.091 992.986 208.86C992.986 209.271 993.857 217.151 992.986 217.324C987.887 218.346 983.366 206.491 979.187 204.629C977.633 203.937 975.814 204.17 974.116 204.066C973.365 204.017 971.526 203.39 971.864 204.066C972.711 205.763 979.95 209.87 980.592 210.272C983.559 212.119 986.691 213.889 989.043 216.479" stroke="#020207" stroke-width="4" stroke-miterlimit="10" stroke-linecap="round" stroke-linejoin="round"/>
<path d="M952.859 305.414C952.016 305.414 950.282 322.538 950.041 323.471C949.133 327.019 946.696 330.104 945.817 333.628C944.223 340.02 954.148 351.991 956.236 357.892C956.452 358.507 961.318 368.6 961.868 368.053C962.944 366.975 962.467 360.14 968.91 362.127C971.412 362.896 965.084 371.596 966.939 369.742C975.607 361.057 983.545 352.819 995.661 348.865C1005.17 345.764 998.066 355.277 1000.73 353.942" stroke="#020207" stroke-width="4" stroke-miterlimit="10" stroke-linecap="round" stroke-linejoin="round"/>
<path d="M951.521 172.156C950.124 171.456 950.662 173.39 950.927 174.251C951.433 175.908 952.714 179.935 954.81 180.534C957.532 181.315 960.968 178.048 963.172 176.942" stroke="#020207" stroke-width="4" stroke-miterlimit="10" stroke-linecap="round" stroke-linejoin="round"/>
<path d="M926.406 104.807C926.406 112.284 921.585 119.376 920.135 126.653C919.469 129.979 918.794 134.674 919.537 138.025C920.167 140.876 922.046 143.383 922.821 146.106C923.219 147.502 922.625 146.902 922.821 147.9C923.367 150.623 924.664 153.23 925.21 155.981C925.848 159.167 925.238 162.622 926.704 165.555" stroke="#020207" stroke-width="4" stroke-miterlimit="10" stroke-linecap="round" stroke-linejoin="round"/>
<path d="M940.698 221.754C940.268 221.645 939.718 221.746 939.405 221.432C939.176 221.203 940.051 221.432 940.376 221.432C940.806 221.432 941.24 221.392 941.669 221.432C942.432 221.5 943.175 221.706 943.938 221.754C944.905 221.814 945.881 221.693 946.852 221.754C949.064 221.895 951.156 222.659 953.324 223.053C956.07 223.552 959.286 223.701 962.069 223.701C968.38 223.701 974.294 225.024 980.521 225.648C983.676 225.965 987.153 226.175 990.233 226.947C991.26 227.2 992.152 228.021 993.147 228.242C998.182 229.364 1003.37 230.141 1008.36 231.81" stroke="#020207" stroke-width="4" stroke-miterlimit="10" stroke-linecap="round" stroke-linejoin="round"/>
<path d="M915.248 210.076C918.676 210.076 922.743 212.836 924.96 215.269C926.313 216.754 927.369 218.483 928.521 220.132C929.047 220.885 929.597 221.79 930.464 222.079" stroke="#020207" stroke-width="4" stroke-miterlimit="10" stroke-linecap="round" stroke-linejoin="round"/>
<path d="M962.826 221.085C963.605 217.187 969.47 214.951 972.213 213.302C974.987 211.632 977.817 209.87 980.957 209.082" stroke="#020207" stroke-width="4" stroke-miterlimit="10" stroke-linecap="round" stroke-linejoin="round"/>
<path d="M611.723 234.529C615.007 235.28 618.307 247.296 626.374 244.184C631.688 242.134 636.525 221.002 639.579 215.766C653.556 191.806 662.141 164.218 673.424 138.778C675.337 134.466 685.265 114.123 684.676 110.698C684.2 107.929 673.259 106.663 670.975 104.32C670.689 104.027 670.603 103.353 670.194 103.372C668.682 103.442 666.229 107.756 664.477 107.451C662.94 107.184 659.664 104.62 658.282 103.802C654.673 101.664 635.295 92.2371 634.813 90.9879C633.309 87.0854 637.114 85.9953 632.02 83.7357C631.145 83.3477 619.565 77.1983 619.183 77.4411C617.452 78.5414 617.552 85.9077 616.959 87.8799C614.568 95.8017 610.575 103.626 607.209 111.215C596.67 134.977 587.798 159.727 577.212 183.596C573.298 192.42 562.655 211.305 562.311 220.581C562.271 221.647 571.685 226.336 572.162 226.153C574.02 225.435 576.861 222.274 578.322 221.068C578.654 220.794 579.853 219.891 580.357 219.866C589.243 219.455 602.158 232.34 611.723 234.529Z" stroke="#020207" stroke-width="4" stroke-miterlimit="10" stroke-linecap="round" stroke-linejoin="round"/>
<path d="M621.592 228.037C622.934 228.632 618.805 227.101 617.463 226.506C614.031 224.984 610.598 223.461 607.166 221.939C598.942 218.291 585.424 214.816 578.761 208.74" stroke="#020207" stroke-width="4" stroke-miterlimit="10" stroke-linecap="round" stroke-linejoin="round"/>
<path d="M629.617 211.108C631.592 209.479 632.484 205.109 633.545 202.929C638.874 191.985 643.087 180.739 648.002 169.655C648.825 167.801 653.631 159.436 651.872 157.542C646.763 152.039 635.877 149.633 629.214 146.29C624.092 143.72 618.42 141.292 613.474 138.407C612.658 137.931 609.649 134.677 608.646 135.063C607.701 135.428 597.969 155.749 596.694 158.624C593.919 164.88 580.14 186.94 587.676 192.507C592.383 195.982 598.569 197.538 603.556 200.752C606.904 202.91 610.329 204.794 614.02 206.296C616.02 207.109 627.31 213.362 629.702 212.95C632.375 212.489 625.4 209.63 623.088 208.212C621.984 207.535 620.888 206.845 619.795 206.15C619.325 205.852 618 205.62 618.399 205.231C621.148 202.549 629.869 204.565 632.958 200.865C633.405 200.329 631.563 200.807 630.866 200.839C628.697 200.939 626.536 201.35 624.367 201.263C619.55 201.072 613.312 202.451 610.11 198.849C608.301 196.814 615.214 196.905 617.863 196.275C621.987 195.292 629.513 193.355 633.538 192.103C634.291 191.869 631.994 192.415 631.223 192.579C627.568 193.358 623.963 194.421 620.262 194.933C615.148 195.641 609.202 197.944 604.778 195.282C604.226 194.948 605.976 194.78 606.593 194.583C609.128 193.772 611.677 192.998 614.235 192.26C620.162 190.549 627.186 190.813 631.945 186.886C632.772 186.204 629.791 186.473 628.737 186.666C624.952 187.359 621.292 188.619 617.552 189.522C613.101 190.598 608.657 191.718 604.165 192.604C602.193 192.993 596.222 193.763 598.166 193.251C607.089 190.903 608.923 191.156 620.844 188.878C624.839 188.114 628.811 187.237 632.782 186.355C633.48 186.2 635.556 185.68 634.846 185.767C627.174 186.717 619.84 189.599 612.197 190.755C607.742 191.429 603.199 191.208 598.697 191.382C598 191.409 596.105 191.843 596.604 191.355C600.526 187.529 607.251 188.764 612.53 187.295C617.323 185.96 633.726 180.943 639.667 178.285C639.931 178.167 639.314 177.683 639.025 177.7C635.622 177.896 632.23 178.33 628.871 178.909C619.038 180.604 606.681 181.38 596.878 183.961C594.716 184.53 601.302 183.259 603.461 182.671C607.724 181.506 612.022 180.427 616.207 179.004C624.485 176.19 633.699 174.742 640.61 169.383C641.161 168.956 639.187 169.163 638.518 169.357C634.784 170.441 631.246 172.146 627.501 173.19C621.519 174.856 615.411 176.033 609.372 177.476C604.542 178.628 599.713 179.778 594.895 180.977C593.634 181.291 591.657 180.822 591.13 182.013C590.664 183.062 593.438 181.97 594.561 181.73C597.876 181.023 601.13 180.055 604.406 179.182C616.071 176.074 627.583 172.379 638.963 168.352C640.003 167.984 642.705 168.276 642.115 167.345C641.249 165.979 631.024 169.954 625.324 171.322C618.324 173.002 610.401 174.741 602.98 174.942C599.862 175.026 608.946 173.106 611.961 172.311C617.634 170.818 623.354 169.5 628.976 167.831C635.066 166.024 641.477 164.805 647.021 161.704C647.665 161.343 645.532 161.743 644.817 161.929C641.106 162.894 637.515 164.31 633.773 165.148C625.28 167.049 616.533 167.929 607.83 168.073C607.011 168.087 604.825 168.794 605.377 168.188C608.933 164.286 615.584 165.5 620.689 164.155C628.105 162.203 635.97 161.251 642.778 157.718C645.179 156.471 637.346 157.835 634.689 158.339C625.579 160.067 616.462 162.026 607.213 162.689C606.517 162.738 604.653 163.179 605.123 162.663C608.535 158.918 614.827 159.752 619.679 158.296C625.409 156.579 631.168 154.963 636.917 153.314C637.481 153.153 639.204 152.839 638.619 152.866C631.786 153.183 608.251 162.224 603.165 157.586C602.497 156.976 604.834 156.869 605.704 156.607C609.004 155.61 612.356 154.794 615.66 153.808C619.518 152.658 623.336 151.392 627.18 150.198C627.986 149.947 630.143 150.122 629.606 149.47C629.511 149.355 611.427 152.381 609.328 152.503C608.485 152.551 606.59 152.808 606.846 152.003C608.088 148.073 622.417 146.146 625.919 144.227C626.531 143.892 624.51 144.05 623.829 144.202C621.483 144.727 619.235 145.627 616.912 146.246C613.206 147.232 606.937 151.704 605.56 148.126C605.115 146.973 622.927 141.235 618.134 140.774C614.102 140.388 610.067 143.228 606.17 142.684C603.245 142.274 616.179 138.126 613.308 137.432C611.241 136.931 608.521 137.611 606.586 138.358" stroke="#020207" stroke-width="4" stroke-miterlimit="10" stroke-linecap="round" stroke-linejoin="round"/>
<path d="M658.795 148.165C670.779 141.334 653.86 133.613 650.934 135.058C649.131 135.949 648.8 140.679 648.79 141.924C648.739 148.795 651.818 146.986 656.8 147.581C658.673 147.805 658.053 148.588 658.795 148.165Z" stroke="#020207" stroke-width="4" stroke-miterlimit="10" stroke-linecap="round" stroke-linejoin="round"/>
<path d="M661.941 141.969C662.146 142.217 651.93 142.745 649.416 142.427" stroke="#020207" stroke-width="4" stroke-miterlimit="10" stroke-linecap="round" stroke-linejoin="round"/>
<path d="M641.301 136.811C641.339 136.828 633.867 133.514 631.506 132.467C626.317 130.166 620.034 127.994 615.406 124.725" stroke="#020207" stroke-width="4" stroke-miterlimit="10" stroke-linecap="round" stroke-linejoin="round"/>
<path d="M664.275 130.433C648.776 123.559 632.972 117.151 617.593 110.33" stroke="#020207" stroke-width="4" stroke-miterlimit="10" stroke-linecap="round" stroke-linejoin="round"/>
<path d="M599.473 254.951C601.213 252.866 620.852 268.931 629.019 262.192C634.329 257.811 637.882 249.373 640.947 243.431C651.338 223.284 659.756 202.608 667.855 181.405C675.738 160.768 686.172 141.461 695.099 121.332C699.779 110.782 705.944 99.7121 697.701 89.716C689.314 79.544 670.72 74.4077 659.444 68.2381C649.288 62.6822 639.415 59.7084 628.526 56.63C617.583 53.5369 604.456 84.4758 601.462 91.2275C587.286 123.19 570.352 154.622 558.171 187.477C555.401 194.946 543.241 217.464 545.029 225.242C546.943 233.578 579.01 246.026 585.604 248.95C587.679 249.87 598.419 256.212 599.473 254.951Z" stroke="#020207" stroke-width="4" stroke-miterlimit="10" stroke-linecap="round" stroke-linejoin="round"/>
<path d="M656.988 208.312C668.101 221.789 673.936 197.367 671.537 187.706C671.103 185.958 668.53 179.578 669.355 177.719C669.775 176.772 670.151 179.635 670.473 180.62C671.094 182.526 671.266 183.519 671.563 185.614C671.923 188.147 673.921 199.492 678.684 195.987C691.365 186.656 682.593 169.467 681.309 156.864C681.202 155.817 679.989 152.387 680.329 151.62C680.701 150.782 680.789 153.395 680.945 154.298C681.251 156.078 681.256 157.902 681.562 159.683C682.052 162.529 683.884 175.898 689.02 174.715C700.067 172.173 694.923 150.178 693.491 143.627C693.354 143.002 688.85 133.964 689.468 133.725C689.518 133.706 691.5 139.163 691.703 139.527C692.522 140.992 696.533 144.45 698.429 144.013C706.742 142.1 698.021 121.109 695.12 117.592" stroke="#020207" stroke-width="4" stroke-miterlimit="10" stroke-linecap="round" stroke-linejoin="round"/>
<path d="M568.455 160.363C564.041 165.204 535.409 183.305 530.748 171.204C529.256 167.333 556.121 138.102 559.351 130.818C564.838 118.446 571.162 106.414 575.819 93.6894C582.677 74.9488 590.129 47.481 608.536 36.6151C620.795 29.3772 644.326 35.2337 655.91 41.9925C665.959 47.8558 675.742 64.6232 679.828 75.2283C680.478 76.915 677.805 72.2266 676.924 70.6488C675.417 67.9525 674.919 64.7062 673.826 61.87C670.72 53.807 663.627 42.9665 654.534 41.3826C642.326 39.2574 613.048 32.827 602.047 38.2625C597.871 40.3244 598.689 46.1994 595.602 48.158C595.487 48.2315 593.025 32.3935 592.958 30.9401C592.027 10.7915 642.072 13.6107 652.119 21.7981C658.254 26.798 658.809 33.6891 660.566 40.7664C660.893 42.0826 661.258 44.776 661.258 44.776C661.258 44.776 661.027 42.2053 660.912 40.92C660.427 35.518 660.853 29.5909 659.639 24.3109C656.675 11.4062 658.413 -2.15869 659.499 -15.2466C659.95 -20.6445 660.006 -26.206 659.758 -31.5884C659.754 -31.6317 659.783 -36.103 660.06 -35.9801C662.203 -35.0297 660.011 -22.5648 659.878 -21.6614C658.228 -10.3178 656.82 4.16693 650.588 14.1253C646.753 20.2509 638.2 6.80228 632.298 8.07012C625.663 9.49621 595.287 24.066 591.078 19.4099C584.717 12.3716 584.916 3.41517 581.71 -4.90386C578.927 -12.1275 575.042 -19.1207 571.812 -26.1618C569.385 -31.4472 566.696 -37.1537 563.67 -42.1152C563.651 -42.1483 559.993 -48.1073 560.192 -48.1829C561.142 -48.5488 565.006 -40.8141 565.083 -40.6657C569.577 -31.9991 573.906 -24.293 579.834 -16.4326C584.22 -10.614 588.304 -4.30844 592.937 1.30968C593.214 1.64494 593.885 2.65507 594.503 2.41549C599.265 0.578358 599.349 -2.97416 594.233 -3.46362" stroke="#020207" stroke-width="4" stroke-miterlimit="10" stroke-linecap="round" stroke-linejoin="round"/>
<path d="M532.884 171.756C532.979 173.817 542.431 165.235 543.798 163.842C550.072 157.448 554.566 151.858 551.075 142.797" stroke="#020207" stroke-width="4" stroke-miterlimit="10" stroke-linecap="round" stroke-linejoin="round"/>
</g>
<defs>
<clipPath id="clip0_1384_20260">
<rect width="1200" height="320" rx="16" fill="white"/>
</clipPath>
</defs>
</svg>
