<svg width="845" height="240" viewBox="0 0 845 240" fill="none" xmlns="http://www.w3.org/2000/svg">
<g clip-path="url(#clip0_1593_36627)">
<rect width="845" height="240" rx="16" fill="#FFF7E8"/>
<path d="M583.047 135.286C577.712 167.291 621.021 161.811 630.184 131.448C642.884 89.3657 615.129 -8.48383 597.158 -42.5102C589.233 -57.5181 573.305 -80.2124 558.127 -76.6202C546.193 -73.7955 531.86 -41.9834 525.702 -28.8664C503.873 17.6325 479.638 91.9807 507.688 145.092C515.166 159.251 532.234 156.318 539.513 142.534C540.318 141.01 546.202 124.259 546.719 124.627C548.287 125.74 543.692 163 559.329 163C566.892 163 574.01 154.089 579.144 146.798C581.269 143.779 584.136 128.752 583.047 135.286Z" fill="#F2C65E"/>
<path d="M225.919 220.944C217.285 214.819 219.217 188.466 218.884 177.99C217.635 139.057 226.252 111.225 257.57 126.046C275.716 134.638 282.726 161.414 284.299 185.981C285.003 196.96 283.469 205.325 280.081 214.954C279.61 216.286 279.61 219.612 278.672 218.949C273.555 215.316 289.139 191.995 294.852 190.976C310.47 188.202 324.882 204.748 328.616 225.939C333.534 253.887 318.253 276.797 301.183 284.879C293.08 288.709 283.244 288.789 276.563 280.878C276.105 280.344 271.537 274.029 272.341 272.888C275.768 268.027 281.407 303.745 281.485 304.856C283.244 329.84 272.73 346.367 256.866 352.804C244.58 357.788 227.644 344.74 226.619 325.832C226.369 321.211 229.061 297.332 226.619 293.864C224.51 290.869 222.644 300.253 220.288 302.855C214.96 308.74 209.195 312.416 202.704 314.847C186.645 320.843 176.827 316.43 166.127 297.866C153.37 275.717 164.385 252.279 180.198 242.92C185.738 239.643 198.05 236.36 203.409 240.926C204.307 241.693 206.965 241.871 206.222 242.92C204.549 245.302 190.375 236.624 189.342 235.93C176.248 227.179 158.754 202.084 171.753 180.991C186.814 156.547 225.5 174.811 235.064 201.968" fill="#F19077"/>
<path d="M329.552 61.4708C326.65 60.0194 324.05 60.8179 321.289 61.7383C308.239 66.0886 318.894 75.3242 317.293 83.3246C316.735 86.1134 309.03 85.4565 309.03 85.4565C309.03 85.4565 312.227 87.9463 311.161 88.6543C307.783 90.9081 301.062 87.2973 298.104 90.2552C296.55 91.8089 301.416 93.221 302.635 95.05C306.218 100.427 312.943 103.42 317.824 97.4493C318.229 96.9537 322.036 90.8924 321.289 90.5227C319.503 89.6259 310.029 90.7823 307.433 90.5227C305.518 90.3299 303.744 90.4125 301.836 89.9877C301.223 89.8501 299.972 89.0948 299.972 89.7202C299.972 90.6721 306.139 93.6615 306.898 93.9841C310.631 95.5849 321.254 97.3903 322.355 90.7862C322.508 89.8697 321.56 80.6617 320.491 80.6617C319.739 80.6617 320.585 83.1279 320.758 83.5921C321.368 85.2205 324.247 86.6011 324.487 87.3209C325.403 90.0743 314.096 101.064 314.096 101.182C314.096 103.621 317.026 107.043 313.03 108.644C312.393 108.899 311.838 109.01 311.161 109.179C310.808 109.265 310.457 109.383 310.096 109.442C302.639 110.689 296.546 104.482 292.244 99.3177C289.361 95.8602 286.03 93.0204 283.981 88.9218C277.306 75.5759 282.242 43.039 298.104 37.7486C301.876 36.4939 306.186 37.4969 310.096 37.2176C314.473 36.903 319.307 35.2824 323.421 37.7486C326.953 39.8687 327.098 44.9428 329.017 48.1446C338.921 64.6529 334.374 91.5611 320.491 105.446" stroke="#020207" stroke-width="4" stroke-miterlimit="10" stroke-linecap="round" stroke-linejoin="round"/>
<path d="M293.553 60.8438C293.82 60.8438 294.088 60.8438 294.355 60.8438C295.362 60.8438 311.346 63.7072 308.746 68.0418C306.811 71.2632 294.139 63.837 292.755 69.3752C292.322 71.098 300.77 71.0587 301.549 70.9722C309.718 70.0636 308.935 72.4629 305.281 79.7672" stroke="#020207" stroke-width="4" stroke-miterlimit="10" stroke-linecap="round" stroke-linejoin="round"/>
<path d="M305.038 82.208V82.7429V83.5414L305.573 84.3399L306.104 84.6074" stroke="#020207" stroke-width="4" stroke-miterlimit="10" stroke-linecap="round" stroke-linejoin="round"/>
<path d="M321.221 69.3579C322.814 69.3579 323.852 69.0157 325.489 68.823C337.944 67.3598 311.821 70.6874 326.554 70.6874" stroke="#020207" stroke-width="4" stroke-miterlimit="10" stroke-linecap="round" stroke-linejoin="round"/>
<path d="M329.139 40.3014C329.139 36.2894 330.633 30.9007 327.806 27.5101C326.209 25.5906 322.248 25.9171 320.077 25.3783C306.98 22.1018 278.395 27.0106 276.641 44.5653C275.992 51.0592 279.245 57.1048 278.505 63.7561C277.29 74.683 278.926 84.0012 279.304 94.9359C280.24 122.045 281.522 149.102 282.238 176.227C282.482 185.474 286.092 214.408 276.641 219.136" stroke="#020207" stroke-width="4" stroke-miterlimit="10" stroke-linecap="round" stroke-linejoin="round"/>
<path d="M319.634 24.0792C317.31 20.5943 309.762 22.4076 306.572 23.0133C295.273 25.1491 282.447 32.9883 274.593 41.4018C265.823 50.8025 265.563 70.725 264.733 82.7139C262.999 107.891 256.423 132.176 255.408 157.605C255.011 167.49 254.893 176.788 257.54 186.39C258.377 189.422 259.439 192.384 260.202 195.448C260.23 195.558 261.5 200.554 261.535 200.514C263.612 198.438 261.075 194.654 261.005 191.719C260.757 181.67 261.272 171.64 261.272 161.602C261.272 137.986 263.148 115.129 266.066 91.7725C267.014 84.185 266.7 76.3104 268.733 68.8527C269.484 66.0915 277.216 43.5336 279.391 43.5336C280.858 43.5336 278.589 46.3578 278.326 47.7974C277.987 49.654 277.779 51.5263 277.527 53.3946C276.882 58.1501 276.996 58.3939 276.729 63.2556C276.088 74.7567 275.926 86.3838 275.926 97.9046C275.926 111.77 277.095 125.391 277.527 139.213C278.16 159.466 278.86 179.707 278.86 199.979" stroke="#020207" stroke-width="4" stroke-miterlimit="10" stroke-linecap="round" stroke-linejoin="round"/>
<path d="M328.477 34.4619C327.215 35.0952 335.195 45.0781 335.938 46.4548C339.289 52.6852 341.307 60.2176 341.535 67.2465C341.963 80.5531 338.727 91.362 337.802 104.291C336.839 117.81 339.789 131.494 339.403 145.068C339.049 157.415 337.952 170.151 336.205 182.38C335.399 188.017 332.792 201.461 328.741 189.311" stroke="#020207" stroke-width="4" stroke-miterlimit="10" stroke-linecap="round" stroke-linejoin="round"/>
<path d="M326.239 99.7397C325.944 98.8586 318.947 109.404 317.708 111.469C314.334 117.094 308.906 127.167 311.581 134.121C320.835 158.19 323.572 185.9 323.572 211.679" stroke="#020207" stroke-width="4" stroke-miterlimit="10" stroke-linecap="round" stroke-linejoin="round"/>
<path d="M283.718 99.04C282.806 107.277 296.745 129.111 307.171 127.026C313.92 125.673 318.392 120.3 321.294 114.498C321.554 113.983 324.594 107.103 323.961 108.366" stroke="#020207" stroke-width="4" stroke-miterlimit="10" stroke-linecap="round" stroke-linejoin="round"/>
<path d="M263.289 101.306C250.825 110.651 234.075 119.6 225.713 133.288C223.609 136.73 222.244 140.631 220.384 144.215C219.318 146.264 215.409 150.61 217.717 150.61" stroke="#020207" stroke-width="4" stroke-miterlimit="10" stroke-linecap="round" stroke-linejoin="round"/>
<path d="M341.649 87.2256C337.822 88.5039 346.023 99.777 347.513 101.354C357.778 112.226 373.896 129.12 373.896 144.794" stroke="#020207" stroke-width="4" stroke-miterlimit="10" stroke-linecap="round" stroke-linejoin="round"/>
<path d="M344.601 120.242C343.684 120.545 351.413 124.231 353.127 125.037C358.661 127.641 361.438 130.965 365.123 135.7C375.593 149.16 386.039 174.212 380.312 191.401" stroke="#020207" stroke-width="4" stroke-miterlimit="10" stroke-linecap="round" stroke-linejoin="round"/>
<path d="M283.258 106.485C281.213 118.777 293.209 125.786 302.983 128.874C306.487 129.979 314.754 130.912 316.839 126.742" stroke="#020207" stroke-width="4" stroke-miterlimit="10" stroke-linecap="round" stroke-linejoin="round"/>
<path d="M314.709 148.289C316.36 144.163 309.749 156.187 308.313 158.15C303.448 164.821 298.001 171.48 293.923 178.674C292.688 180.853 290.06 187.929 290.992 185.601C294.465 176.916 300.2 169.934 306.449 162.948" stroke="#020207" stroke-width="4" stroke-miterlimit="10" stroke-linecap="round" stroke-linejoin="round"/>
<path d="M411.44 73.8967C411.44 71.159 409.162 78.7819 408.773 79.7574C407.129 83.8678 404.903 87.0459 405.576 91.7502C406.048 95.0542 407.589 99.082 407.172 102.414C406.704 106.182 401.969 111.449 402.909 115.205C403.892 119.13 411.078 115.551 412.238 117.872C413.886 121.164 412.191 123.823 416.234 126.132C417.941 127.107 429.929 124.023 429.559 125.864C428.934 129.003 419.168 129.924 419.168 131.198C419.168 133.239 433.126 125.361 430.094 122.934C426.774 120.283 415.483 125.16 413.304 120.802C412.423 119.04 417.237 121.195 419.168 121.601C420.836 121.955 429.103 122.242 429.559 124.535C430.346 128.456 419.357 133.936 417.3 131.198C416.918 130.687 417.441 127.733 418.102 127.733C419.789 127.733 417.08 131.284 417.835 132.795C418.547 134.223 419.491 133.389 420.234 134.128C421.622 135.521 419.904 140.465 422.366 142.923C429.701 150.263 453.806 130.403 458.876 125.333" stroke="#020207" stroke-width="4" stroke-miterlimit="10" stroke-linecap="round" stroke-linejoin="round"/>
<path d="M466.403 108.363C464.472 110.495 463.775 117.323 468.534 114.762C474.308 111.651 487.472 97.1093 479.46 90.2417C475.932 87.2169 469.427 90.277 467.469 93.7069C467.311 93.9783 464.94 98.7259 465.069 98.7692C467.087 99.4418 471.787 94.3245 474.929 94.7729C478.744 95.3157 472.554 104.075 469.069 103.3C466.886 102.817 469.372 100.37 470.399 100.37C475.276 100.37 467.083 107.611 466.403 108.363Z" stroke="#020207" stroke-width="4" stroke-miterlimit="10" stroke-linecap="round" stroke-linejoin="round"/>
<path d="M413.193 93.3554C418.601 95.1569 425.385 92.0889 431.049 95.4873C431.261 95.6171 431.694 95.7941 431.579 96.0222C431.3 96.5768 430.329 96.1245 429.715 96.0222C425.609 95.3378 419.651 88.8832 415.057 92.5569C408.776 97.5838 419.729 100.955 422.518 101.883C423.934 102.355 425.361 102.744 426.785 103.216C427.399 103.421 429.294 103.751 428.649 103.751C422.722 103.751 408.033 102.949 424.386 102.949" stroke="#020207" stroke-width="4" stroke-miterlimit="10" stroke-linecap="round" stroke-linejoin="round"/>
<path d="M406.67 89.9766C409.289 93.4694 408.267 95.1883 408.267 98.2406" stroke="#020207" stroke-width="4" stroke-miterlimit="10" stroke-linecap="round" stroke-linejoin="round"/>
<path d="M413.963 115.45C410.384 115.45 411.761 114.514 415.029 115.45C415.839 115.682 417.428 117.09 417.428 116.248C417.428 113.991 412.732 111.147 413.696 108.252C414.187 106.781 415.257 110.942 416.095 112.252C416.83 113.393 417.475 114.589 418.227 115.717C420.771 119.533 426.525 122.416 429.955 125.842" stroke="#020207" stroke-width="4" stroke-miterlimit="10" stroke-linecap="round" stroke-linejoin="round"/>
<path d="M429.808 143.272C434.315 141.018 446.594 140.869 450.861 145.137C452.962 147.237 451.196 150.533 453.26 152.598C464.23 163.572 470.231 167.722 482.573 158.463C483.23 157.971 483.025 156.878 483.108 156.064C483.442 152.728 480.882 149.227 480.441 145.935C479.828 141.313 480.288 135.901 480.709 131.279C481.35 124.227 484.154 118.28 482.31 111.821C482.137 111.219 482.672 109.957 482.042 109.957C480.98 109.957 480.477 114.771 478.31 113.689C474.385 111.723 486.868 103.309 488.705 100.096C494.392 90.1403 503.206 58.3233 496.701 48.9225C494.003 45.0285 486.931 38.4558 481.775 39.0616C478.766 39.4156 479.293 41.1974 478.31 43.3254C477.96 44.0884 477.181 46.2714 476.976 45.4572C476.402 43.1483 477.822 40.214 476.713 37.9956C473.449 31.4702 463.526 35.3249 458.322 33.4644C455.459 32.4417 456.108 28.1976 452.726 27.0687C444.706 24.394 441.277 32.485 435.137 34.5304C431.027 35.9031 426.182 34.0544 421.812 35.8637C417.619 37.5983 415.622 43.1995 412.22 44.6588C410.355 45.4572 408.22 43.7816 406.355 45.4572C402.985 48.4938 397.994 75.2918 402.894 76.11C407.901 76.9439 413.572 68.6445 419.417 68.6445C423.881 68.6445 427.389 75.0755 430.075 74.7766C433.411 74.4068 437.713 70.4577 440.466 74.2416C443.2 77.998 439.853 83.5873 443.931 86.5019C448.462 89.7391 450.496 84.2127 454.326 85.1685C456.486 85.7113 454.334 92.4256 456.458 93.7C458.999 95.2222 464.198 87.3909 467.384 87.0369C470.322 86.7104 469.004 90.0656 471.116 90.7657C473.862 91.6822 478.636 89.2514 480.976 91.3006C485.967 95.6667 480.5 102.294 481.775 106.759C482.538 109.43 485.932 108.198 487.371 109.158C488.127 109.658 486.691 110.928 486.837 111.821C487.474 115.636 488.567 119.538 489.503 123.283C493.42 138.946 501.762 156.217 501.762 172.588C501.762 179.007 497.212 176.993 492.968 180.852C492.327 181.434 490.313 187.385 489.503 186.98C489.11 186.783 488.339 174.9 488.17 173.921C486.608 164.811 480.976 153.586 480.976 144.606C480.976 142.576 482.825 148.248 483.375 150.199C483.977 152.362 485.004 155.769 485.507 157.928C486.691 163.006 491.477 178.488 487.902 183.251C487.485 183.81 483.667 181.674 482.573 181.918C479.58 182.582 476.611 195.739 477.511 198.442C477.787 199.272 478.113 196.786 478.577 196.042C479.663 194.308 480.721 192.542 482.042 190.98C484.371 188.219 489.495 184.577 489.503 184.58C489.837 184.919 488.846 186.252 488.705 186.449C485.102 191.401 476.91 199.803 477.511 206.438C478.691 219.403 484.87 230.746 490.569 242.149C492.457 245.925 495.957 248.368 498.03 251.479C498.282 251.857 497.979 253.131 498.297 252.813C499.324 251.786 494.691 227.753 494.034 224.827C492.142 216.425 490.007 206.67 492.433 198.174C493.802 193.391 500.964 187.42 500.964 182.449C500.964 175.872 500.921 168.945 501.227 162.196C501.762 150.482 501.243 139.311 497.499 128.082C496.5 125.088 494.27 122.65 492.433 120.085C491.391 118.622 491.375 113.41 490.569 115.019C486.966 122.229 505.833 127.161 509.491 127.814C515.441 128.876 524.869 127.216 529.746 131.279C537.541 137.777 532.471 143.536 544.935 148.067C553.013 151.005 570.385 153.932 572.914 164.06C573.162 165.051 561.776 167.533 560.124 168.859C556.923 171.419 554.028 182.689 553.194 186.712C551.999 192.502 549.485 207.933 552.931 213.097C553.088 213.337 553.733 210.556 555.326 212.834C561.926 222.262 567.318 236.564 565.186 248.281C564.529 251.9 552.907 252.384 551.063 253.344C537.749 260.29 546.268 267.814 546.268 255.208" stroke="#020207" stroke-width="4" stroke-miterlimit="10" stroke-linecap="round" stroke-linejoin="round"/>
<path d="M570.218 159.41C567.78 164.284 576.68 170.089 578.745 172.469C586.32 181.201 599 195.4 599 207.385" stroke="#020207" stroke-width="4" stroke-miterlimit="10" stroke-linecap="round" stroke-linejoin="round"/>
<path d="M416.128 128.541C416.128 127.759 404.715 137.568 402.524 140.636C400.833 143.004 401.993 151.555 401.769 154.242C400.2 173.063 394.78 189.886 396.731 208.916C396.975 211.292 396.841 223.1 398.996 224.539C399.94 225.165 399.472 219.154 399.5 218.741C399.987 212.114 400.518 208.821 401.517 202.115C403.464 189.017 405.301 176.304 405.548 163.061C405.635 158.325 404.062 151.39 405.548 146.934C405.702 146.47 406.099 147.748 406.304 148.192C406.732 149.125 408.758 154.502 408.821 154.745C409.454 157.066 409.91 159.434 410.335 161.802C410.752 164.138 411.11 166.491 411.342 168.854C411.653 172.04 411.656 175.258 412.097 178.428C413.143 185.953 414.126 193.619 415.373 201.104" stroke="#020207" stroke-width="4" stroke-miterlimit="10" stroke-linecap="round" stroke-linejoin="round"/>
<path d="M441.455 145.189C438.863 150.369 437.628 155.888 434.147 160.808C430.018 166.65 424.873 165.863 428.354 172.652C431.26 178.324 434.124 185.164 437.927 190.289C438.371 190.887 442.265 194.533 443.217 195.579C443.421 195.804 443.937 196.551 443.72 196.335C438.308 190.922 437.612 181.671 434.147 175.173C433.325 173.631 423.45 162.055 423.567 161.819C424.649 159.648 428.908 165.296 430.619 163.581C432.008 162.193 426.627 163.345 424.826 162.575C421.227 161.029 419.288 157.032 416.008 155.518C415.155 155.125 413.656 155.856 413.235 155.015C411.859 152.261 426.281 143.313 428.606 142.416" stroke="#020207" stroke-width="4" stroke-miterlimit="10" stroke-linecap="round" stroke-linejoin="round"/>
<path d="M295.413 69.4984C296.565 68.9241 306.056 68.342 306.949 69.2349C307.397 69.6872 305.741 69.6557 305.112 69.7619C302.622 70.1749 300.042 70.1238 297.509 70.5486C296.801 70.6666 294.906 70.5604 295.413 71.0717C296.695 72.354 305.328 71.0717 306.949 71.0717" stroke="#020207" stroke-width="4" stroke-miterlimit="10" stroke-linecap="round" stroke-linejoin="round"/>
<path d="M294.68 61.0059C296.836 61.0059 298.661 62.5477 300.71 63.3659C309.004 66.6856 309.099 66.5126 307.262 75.6891" stroke="#020207" stroke-width="4" stroke-miterlimit="10" stroke-linecap="round" stroke-linejoin="round"/>
<path d="M320.502 71.033C314.555 68.3858 324.462 70.2463 327.058 70.2463C327.959 70.2463 331.318 68.9365 330.728 68.9365C326.795 68.9365 324.982 73.0272 320.502 71.033Z" stroke="#020207" stroke-width="4" stroke-miterlimit="10" stroke-linecap="round" stroke-linejoin="round"/>
<path d="M308.275 108.432C311.165 109.875 324.526 107.672 324.526 102.925C324.526 102.925 317.667 108.762 319.283 106.335" stroke="#020207" stroke-width="4" stroke-miterlimit="10" stroke-linecap="round" stroke-linejoin="round"/>
</g>
<defs>
<clipPath id="clip0_1593_36627">
<rect width="845" height="240" rx="16" fill="white"/>
</clipPath>
</defs>
</svg>
