<svg width="1200" height="320" viewBox="0 0 1200 320" fill="none" xmlns="http://www.w3.org/2000/svg">
<g clip-path="url(#clip0_1593_34063)">
<rect width="1200" height="320" rx="16" fill="#FFF7E8"/>
<path d="M391.733 186.71C388.991 190.272 386.529 193.698 383.172 197.891C376.424 206.323 372.086 223.604 368.359 233.418C355.154 268.207 346.05 308.389 369.346 340.984C380.583 356.707 393.977 375.784 409.83 387.366C470.151 431.417 565.029 417.072 610.284 356.773C665.13 283.689 635.407 186.943 549.06 160.391C509.717 148.292 479.756 145.651 441.428 158.417C430.104 162.191 408.523 168.605 399.958 177.167C396.951 180.174 397.215 179.587 391.733 186.71Z" fill="#F19077"/>
<path d="M587.5 -61.5C585 -58.25 582.755 -55.1233 579.693 -51.2969C573.539 -43.6029 569.582 -27.8329 566.184 -18.8774C554.141 12.8691 545.837 49.5374 567.083 79.2816C577.331 93.6298 589.547 111.039 604.005 121.608C659.017 161.807 745.546 148.716 786.819 93.6905C836.838 26.998 809.73 -61.2879 730.982 -85.5176C695.102 -96.5582 667.777 -98.969 632.823 -87.3187C622.494 -83.8751 602.813 -78.0216 595.001 -70.2084C592.259 -67.4648 592.5 -68 587.5 -61.5Z" fill="#BFB1F7"/>
<path d="M633.536 89.8793C629.395 87.1203 620.985 69.7643 617.482 69.0635C612.821 68.1322 600.166 77.7194 595.791 79.9039C584.999 85.2988 574.59 92.7299 564.556 99.4191C561.931 101.168 558.628 101.316 555.877 102.888C548.932 106.857 541.993 110.66 535.269 115.029C524.537 122.003 514.216 128.484 505.117 137.578C501.529 141.164 497.923 148.283 501.431 153.189C512.785 169.083 539.776 147.279 550.022 141.916C554.607 139.513 559.784 137.528 563.902 134.327C567.885 131.233 572.297 128.878 576.485 126.088C593.29 114.891 611.463 105.439 628.113 93.9989C632.494 90.9873 639.404 82.6724 645.683 84.2413C647.597 84.718 648.345 88.6387 649.154 90.094C652.296 95.7509 656.433 101.177 659.348 107.008C663.732 115.768 670.674 123.253 675.62 131.726C680.455 140.012 684.69 148.63 689.5 156.876C692.539 162.078 698.697 167.056 699.913 173.136C701.066 178.888 690.397 184.684 686.898 187.014C671.451 197.308 654.554 205.203 639.177 215.633C627.788 223.358 615.148 229.163 603.602 236.667C599.047 239.625 585.982 250.162 580.606 250.759C562.13 252.81 560.927 241.424 551.105 230.378C540.414 218.357 534.54 203.52 525.507 190.483C517.479 178.888 508.964 166.952 502.733 154.492" stroke="#020207" stroke-width="8" stroke-miterlimit="10" stroke-linecap="round" stroke-linejoin="round"/>
<path d="M665.58 116.801C662.084 116.801 658.774 120.201 655.603 121.785C646.05 126.558 631.717 132.054 628.486 142.819C625.101 154.098 636.341 169.21 649.094 163.417C654.713 160.863 660.255 157.656 665.58 154.528C671.837 150.847 677.383 147.933 682.502 142.819" stroke="#020207" stroke-width="8" stroke-miterlimit="10" stroke-linecap="round" stroke-linejoin="round"/>
<path d="M642.025 145.39C632.187 147.846 644.551 156.938 646.797 149.074C647.833 145.457 640.938 144.169 639.422 146.691C636.725 151.183 642.423 152.019 645.281 150.593" stroke="#020207" stroke-width="8" stroke-miterlimit="10" stroke-linecap="round" stroke-linejoin="round"/>
<path d="M515.137 146.982C514.427 147.692 520.014 145.021 520.775 144.598C523.409 143.137 525.983 141.748 528.585 140.261C536.171 135.93 544.335 131.586 552.231 127.902C568.323 120.395 582.99 110.35 598.434 101.666C604.974 97.9885 612.482 90.5543 619.477 88.2246" stroke="#020207" stroke-width="8" stroke-miterlimit="10" stroke-linecap="round" stroke-linejoin="round"/>
</g>
<defs>
<clipPath id="clip0_1593_34063">
<rect width="1200" height="320" rx="16" fill="white"/>
</clipPath>
</defs>
</svg>
