<svg id="Layer_1" data-name="Layer 1" xmlns="http://www.w3.org/2000/svg" viewBox="0 0 1000 1000">
  <path
    d="M714.92,581A1060.43,1060.43,0,0,1,1000,474.48L926.22,247.42q-47.4,20.7-97.6,37.1a1074.39,1074.39,0,0,1-196,44,1060.49,1060.49,0,0,1-13.22-304H380.64q5,51.48,5.12,104.3a1075,1075,0,0,1-18.73,200A1060.56,1060.56,0,0,1,73.78,247.4L0,474.46q50.52,11.12,100.77,27.36a1073.88,1073.88,0,0,1,184.44,79.62,1060.39,1060.39,0,0,1-168,253.75L310.34,975.52q26.19-44.61,57.16-87.38A1074.44,1074.44,0,0,1,500.22,737.33a1060.24,1060.24,0,0,1,189.41,238.2L882.78,835.21q-34.34-38.7-65.45-81.37A1075.78,1075.78,0,0,1,714.92,581Z" />
</svg>