<svg width="109" height="25" viewBox="0 0 109 25" fill="none" xmlns="http://www.w3.org/2000/svg">
<path d="M24.6375 9.25806V11.7977H0V9.25806H24.6375ZM17.654 0.5H21.9268V15.9459C21.9268 17.639 21.5286 19.1282 20.7322 20.4134C19.9359 21.6987 18.8217 22.703 17.3898 23.4264C15.9579 24.1421 14.2848 24.5 12.3704 24.5C10.4561 24.5 8.78297 24.1421 7.35104 23.4264C5.91912 22.703 4.80498 21.6987 4.00862 20.4134C3.21991 19.1282 2.82556 17.639 2.82556 15.9459V0.5H7.08687V15.588C7.08687 16.5731 7.30127 17.4505 7.73008 18.2201C8.16655 18.9897 8.77914 19.5938 9.56784 20.0325C10.3642 20.4634 11.2984 20.6789 12.3704 20.6789C13.4501 20.6789 14.3843 20.4634 15.173 20.0325C15.9694 19.5938 16.582 18.9897 17.0108 18.2201C17.4396 17.4505 17.654 16.5731 17.654 15.588V0.5Z" fill="#020207"/>
<path d="M31.4498 13.7525V24.1421H27.2919V6.41053H31.266V9.42352H31.4728C31.8786 8.43074 32.5256 7.6419 33.4139 7.057C34.3098 6.4721 35.4163 6.17965 36.7334 6.17965C37.9509 6.17965 39.0114 6.44132 39.915 6.96465C40.8262 7.48798 41.5307 8.24603 42.0284 9.23882C42.5338 10.2316 42.7826 11.436 42.775 12.8521V24.1421H38.6171V13.4986C38.6171 12.3134 38.3108 11.386 37.6982 10.7165C37.0932 10.0469 36.2548 9.71212 35.1827 9.71212C34.4553 9.71212 33.8083 9.87374 33.2416 10.197C32.6826 10.5125 32.2423 10.9704 31.9207 11.5707C31.6068 12.171 31.4498 12.8983 31.4498 13.7525Z" fill="#020207"/>
<path d="M50.8218 0.5V24.1421H46.6638V0.5H50.8218Z" fill="#020207"/>
<path d="M62.455 24.4885C60.7321 24.4885 59.2389 24.1075 57.9755 23.3456C56.712 22.5837 55.7319 21.5178 55.035 20.1479C54.3459 18.778 54.0013 17.1772 54.0013 15.3456C54.0013 13.514 54.3459 11.9093 55.035 10.5317C55.7319 9.15416 56.712 8.08441 57.9755 7.32251C59.2389 6.56061 60.7321 6.17965 62.455 6.17965C64.1779 6.17965 65.6711 6.56061 66.9346 7.32251C68.198 8.08441 69.1743 9.15416 69.8635 10.5317C70.5603 11.9093 70.9087 13.514 70.9087 15.3456C70.9087 17.1772 70.5603 18.778 69.8635 20.1479C69.1743 21.5178 68.198 22.5837 66.9346 23.3456C65.6711 24.1075 64.1779 24.4885 62.455 24.4885ZM62.478 21.1407C63.4122 21.1407 64.1932 20.8829 64.8211 20.3672C65.449 19.8439 65.9161 19.1436 66.2224 18.2662C66.5364 17.3889 66.6933 16.4115 66.6933 15.3341C66.6933 14.2489 66.5364 13.2677 66.2224 12.3903C65.9161 11.5053 65.449 10.8011 64.8211 10.2778C64.1932 9.75445 63.4122 9.49279 62.478 9.49279C61.5208 9.49279 60.7244 9.75445 60.0889 10.2778C59.461 10.8011 58.9901 11.5053 58.6761 12.3903C58.3698 13.2677 58.2167 14.2489 58.2167 15.3341C58.2167 16.4115 58.3698 17.3889 58.6761 18.2662C58.9901 19.1436 59.461 19.8439 60.0889 20.3672C60.7244 20.8829 61.5208 21.1407 62.478 21.1407Z" fill="#020207"/>
<path d="M81.7954 24.4885C80.0342 24.4885 78.5219 24.0998 77.2584 23.3225C76.0026 22.5452 75.034 21.4716 74.3525 20.1017C73.6786 18.7241 73.3417 17.1388 73.3417 15.3456C73.3417 13.5447 73.6863 11.9555 74.3754 10.5779C75.0646 9.19264 76.0371 8.1152 77.2929 7.3456C78.5563 6.5683 80.0495 6.17965 81.7724 6.17965C83.2043 6.17965 84.4716 6.44517 85.5743 6.97619C86.6846 7.49952 87.569 8.24218 88.2275 9.20418C88.8861 10.1585 89.2613 11.2744 89.3532 12.5519H85.379C85.2182 11.6977 84.8353 10.9858 84.2304 10.4163C83.6331 9.83911 82.833 9.5505 81.8298 9.5505C80.9799 9.5505 80.2333 9.78139 79.5901 10.2431C78.9469 10.6972 78.4453 11.3514 78.0854 12.2056C77.7332 13.0599 77.5571 14.0835 77.5571 15.2763C77.5571 16.4846 77.7332 17.5236 78.0854 18.3932C78.4376 19.2552 78.9315 19.9209 79.5671 20.3903C80.2103 20.8521 80.9646 21.083 81.8298 21.083C82.4424 21.083 82.9899 20.9675 83.4723 20.7367C83.9624 20.4981 84.3721 20.1556 84.7013 19.7092C85.0306 19.2629 85.2565 18.7203 85.379 18.0815H89.3532C89.2536 19.336 88.8861 20.4481 88.2505 21.4177C87.615 22.3797 86.7497 23.134 85.6547 23.6804C84.5597 24.2191 83.2733 24.4885 81.7954 24.4885Z" fill="#020207"/>
<path d="M95.8933 18.5779L95.8819 13.5332H96.5481L102.888 6.41053H107.747L99.9479 15.1378H99.0865L95.8933 18.5779ZM92.103 24.1421V0.5H96.2609V24.1421H92.103ZM103.175 24.1421L97.4325 16.0729L100.235 13.1291L108.149 24.1421H103.175Z" fill="#020207"/>
</svg>
