<svg width="32" height="32" viewBox="0 0 32 32" fill="none" xmlns="http://www.w3.org/2000/svg">
<path fill-rule="evenodd" clip-rule="evenodd" d="M16 32C24.8366 32 32 24.8366 32 16C32 7.16344 24.8366 0 16 0C7.16344 0 0 7.16344 0 16C0 24.8366 7.16344 32 16 32Z" fill="#4D8BE8"/>
<path d="M9.33334 14.4204V22.3694C9.33334 23.27 9.99663 24 10.8148 24H21.1852C22.0034 24 22.6667 23.27 22.6667 22.3694V14.4204M9.33334 14.4204V10.9554C9.33334 10.0549 9.99663 9.32484 10.8148 9.32484H21.1852C22.0034 9.32484 22.6667 10.0549 22.6667 10.9554V14.4204M9.33334 14.4204H16H22.6667M12.9697 8V10.6497M19.0303 8V10.6497" stroke="white" stroke-linecap="round" stroke-linejoin="round"/>
</svg>
