<svg width="32" height="32" viewBox="0 0 32 32" fill="none" xmlns="http://www.w3.org/2000/svg">
<path fill-rule="evenodd" clip-rule="evenodd" d="M16 32C24.8366 32 32 24.8366 32 16C32 7.16344 24.8366 0 16 0C7.16344 0 0 7.16344 0 16C0 24.8366 7.16344 32 16 32Z" fill="#4D8BE8"/>
<path fill-rule="evenodd" clip-rule="evenodd" d="M21.8208 15.086C22.4711 14.4357 22.8365 13.5537 22.8365 12.6341C22.8365 11.7144 22.4711 10.8324 21.8208 10.1821C21.1704 9.53179 20.2883 9.16646 19.3685 9.16646C18.9131 9.16646 18.4622 9.25615 18.0414 9.43041C17.6207 9.60467 17.2384 9.8601 16.9163 10.1821L15.2329 11.8654C15.0376 12.0607 14.721 12.0607 14.5257 11.8654C14.3304 11.6701 14.3304 11.3536 14.5257 11.1583L16.2092 9.47502C16.6241 9.06017 17.1166 8.73109 17.6587 8.50658C18.2008 8.28206 18.7818 8.1665 19.3685 8.1665C20.5535 8.1665 21.69 8.63719 22.5279 9.47502C23.3658 10.3129 23.8365 11.4492 23.8365 12.6341C23.8365 13.8189 23.3658 14.9553 22.5279 15.7931L20.8444 17.4764C20.6492 17.6717 20.3326 17.6717 20.1373 17.4764C19.942 17.2812 19.942 16.9646 20.1373 16.7693L21.8208 15.086ZM10.1825 16.9153C9.53211 17.5656 9.16674 18.4476 9.16674 19.3673C9.16674 20.287 9.53211 21.169 10.1825 21.8193C10.8328 22.4696 11.7149 22.8349 12.6347 22.8349C13.0901 22.8349 13.5411 22.7452 13.9618 22.5709C14.3826 22.3967 14.7649 22.1413 15.0869 21.8193L16.7704 20.136C16.9656 19.9407 17.2822 19.9407 17.4775 20.136C17.6728 20.3312 17.6728 20.6478 17.4775 20.843L15.794 22.5263C15.3792 22.9412 14.8866 23.2703 14.3445 23.4948C13.8024 23.7193 13.2214 23.8348 12.6347 23.8348C11.4497 23.8348 10.3132 23.3642 9.47534 22.5263C8.63742 21.6885 8.16669 20.5522 8.16669 19.3673C8.16669 18.1824 8.63742 17.0461 9.47533 16.2082L11.1588 14.5249C11.3541 14.3297 11.6707 14.3297 11.8659 14.5249C12.0612 14.7202 12.0612 15.0368 11.8659 15.232L10.1825 16.9153ZM13.4034 17.8915C13.2081 18.0868 13.2081 18.4034 13.4034 18.5986C13.5987 18.7939 13.9153 18.7939 14.1105 18.5986L18.5998 14.1098C18.7951 13.9145 18.7951 13.598 18.5998 13.4027C18.4045 13.2075 18.0879 13.2075 17.8927 13.4027L13.4034 17.8915Z" fill="white"/>
</svg>
