<?xml version="1.0" encoding="UTF-8"?>
<svg xmlns="http://www.w3.org/2000/svg" version="1.1" viewBox="0 0 240 240">
  <!-- Generator: Adobe Illustrator 29.1.0, SVG Export Plug-In . SVG Version: 2.1.0 Build 142)  -->
  <defs>
    <style>
      .st0 {
        fill: #fff9ee;
      }
    </style>
  </defs>
  <g id="Layer_2">
    <rect class="st0" width="239.7" height="239.7" />
  </g>
  <g id="Layer_3">
    <path
      d="M200.6,72.3c-5.3-6.8-14.1-10.7-22.6-11.3-14.5,0-29.1,0-43.6,0,0,17.1,0,34.2,0,51.4h-10.8c0-17.1.1-34.2,0-51.4-6,0-12.1,0-18.1,0,0,17.1,0,34.3,0,51.4-15.1,0-30.3,0-45.4,0,0-5,.2-45.4.1-51.4-6.3,0-12.2,0-18.5,0,0,17.1,0,34.3,0,51.4-3.6,0-7.4,0-10.7,0v14.4c3.5,0,7.1,0,10.6,0,.2,5.8,0,11.5.2,17.3.5,9.6,4.5,19,12,25.1,5.8,5.1,13.6,8,21.2,8.8,7.9,1,15.9,1,23.2-1.7,8.7-2.5,16.4-8.3,20.9-16.2,2.8-5.2,4.5-11.1,4.5-17.1,0-5.3,0-11,0-16.3h10.8c0,15.5.2,35.2.2,51.3,6,0,11.9,0,17.9,0,0-17,.1-34.4.1-51.3,8.1,0,16.3.3,24.4-.5,8.5-.4,16.8-3.3,22.6-9.7,5.2-5.5,7.5-13.1,8-20.5.5-8.3-1.6-17.2-6.9-23.7ZM105.4,141c-.4,5.8-2.2,11.3-6.1,15.2-7,6.9-18.8,7.8-27.5,4-7-3.3-11.6-10.5-11.6-18.2,0-5.1-.1-10.2,0-15.3,15.1,0,30.4,0,45.4,0,0,6.3.2,9.6-.1,14.3ZM187.9,101c-2,6.6-8.3,10.4-14.9,11-6.8.5-13.3.4-20.4.4,0-12.2,0-24.5,0-36.7,5.8,0,11.7,0,17.5,0,4.7.3,9.4.9,13.1,4,6,4.7,7,14.5,4.7,21.2Z" />
  </g>
</svg>