<?xml version="1.0" encoding="UTF-8" standalone="no"?>
<!DOCTYPE svg PUBLIC "-//W3C//DTD SVG 1.1//EN" "http://www.w3.org/Graphics/SVG/1.1/DTD/svg11.dtd">
<svg xmlns="http://www.w3.org/2000/svg" version="1.1" viewBox="0 0 240 240" width="240.0pt" height="240.0pt">
<path d="M 0.00 0.00 L 240.00 0.00 L 240.00 240.00 L 0.00 240.00 L 0.00 0.00 Z" fill="#fff9ee" />
<path d="M 41.71 61.07 C 47.74 60.93 53.78 60.99 59.81 61.02 C 59.91 67.02 59.64 73.00 60.10 78.99 C 60.24 90.12 60.05 101.26 60.19 112.39 C 75.27 112.38 90.34 112.39 105.41 112.38 C 105.44 95.25 105.47 78.12 105.54 60.99 C 111.57 60.99 117.60 60.97 123.63 61.00 C 123.65 78.13 123.62 95.25 123.67 112.37 C 127.23 112.39 130.80 112.39 134.37 112.37 C 134.43 95.25 134.38 78.13 134.39 61.00 C 148.92 60.98 163.48 60.98 178.01 61.00 C 186.50 61.52 195.26 65.49 200.59 72.26 C 205.91 78.84 207.97 87.67 207.51 96.00 C 207.11 103.45 204.78 111.03 199.56 116.54 C 193.78 122.93 185.55 126.34 177.01 126.70 C 168.85 127.49 160.78 127.06 152.58 127.15 C 152.62 144.11 152.51 161.06 152.48 178.01 C 146.46 178.00 140.43 178.03 134.40 177.99 C 134.46 161.02 134.30 144.03 134.46 127.06 C 130.83 126.61 127.18 126.51 123.55 127.11 C 123.70 132.41 123.66 137.72 123.61 143.02 C 123.56 148.99 121.94 154.87 119.11 160.12 C 114.60 168.02 106.94 173.82 98.21 176.32 C 90.88 179.00 83.13 177.76 74.96 177.98 C 67.34 177.13 59.61 174.22 53.78 169.14 C 46.25 162.96 42.26 153.63 41.79 144.01 C 41.58 138.26 41.86 132.49 41.63 126.73 C 38.08 126.76 34.54 126.75 30.99 126.74 C 30.99 121.96 30.99 117.18 30.99 112.40 C 34.55 112.37 38.11 112.37 41.67 112.40 C 41.78 95.29 41.71 78.18 41.71 61.07 Z" fill="#000000" />
<path d="M 152.58 75.73 C 158.40 75.74 164.22 75.69 170.04 75.73 C 174.73 76.01 179.50 76.62 183.21 79.76 C 189.23 84.48 190.16 94.21 187.88 101.01 C 185.88 107.60 179.60 111.38 173.02 112.04 C 166.25 112.54 159.40 112.11 152.61 112.29 C 152.53 100.10 152.59 87.91 152.58 75.73 Z" fill="#fff9ee" />
<path d="M 60.22 126.74 C 75.28 126.77 90.34 126.74 105.39 126.75 C 105.46 131.50 105.46 136.26 105.44 141.01 C 105.44 146.49 103.25 152.33 99.30 156.21 C 92.29 163.14 80.54 163.98 71.80 160.20 C 64.85 156.90 60.17 149.74 60.15 142.03 C 60.13 136.93 60.10 131.83 60.22 126.74 Z" fill="#fff9ee" />
</svg>