<svg width="142" height="34" viewBox="0 0 142 34" fill="none" xmlns="http://www.w3.org/2000/svg">
<path d="M39 30.1726V21.4453H40.0057V24.6669H40.0909C40.1648 24.5533 40.267 24.4084 40.3977 24.2322C40.5312 24.0533 40.7216 23.8942 40.9688 23.755C41.2188 23.6129 41.5568 23.5419 41.983 23.5419C42.5341 23.5419 43.0199 23.6797 43.4403 23.9553C43.8608 24.2308 44.1889 24.6214 44.4247 25.1271C44.6605 25.6328 44.7784 26.2294 44.7784 26.9169C44.7784 27.6101 44.6605 28.2109 44.4247 28.7195C44.1889 29.2251 43.8622 29.6172 43.4446 29.8956C43.027 30.1712 42.5455 30.3089 42 30.3089C41.5795 30.3089 41.2429 30.2393 40.9901 30.1001C40.7372 29.9581 40.5426 29.7976 40.4062 29.6186C40.2699 29.4368 40.1648 29.2862 40.0909 29.1669H39.9716V30.1726H39ZM39.9886 26.8999C39.9886 27.3942 40.0611 27.8303 40.206 28.2081C40.3509 28.5831 40.5625 28.8771 40.8409 29.0902C41.1193 29.3004 41.4602 29.4055 41.8636 29.4055C42.2841 29.4055 42.6349 29.2947 42.9162 29.0732C43.2003 28.8487 43.4134 28.5476 43.5554 28.1697C43.7003 27.7891 43.7727 27.3658 43.7727 26.8999C43.7727 26.4396 43.7017 26.0249 43.5597 25.6555C43.4205 25.2834 43.2088 24.9893 42.9247 24.7734C42.6435 24.5547 42.2898 24.4453 41.8636 24.4453C41.4545 24.4453 41.1108 24.549 40.8324 24.7564C40.554 24.9609 40.3438 25.2479 40.2017 25.6172C40.0597 25.9837 39.9886 26.4112 39.9886 26.8999Z" fill="black"/>
<path d="M46.7301 32.6271C46.5597 32.6271 46.4077 32.6129 46.2741 32.5845C46.1406 32.5589 46.0483 32.5334 45.9972 32.5078L46.2528 31.6214C46.4972 31.6839 46.7131 31.7067 46.9006 31.6896C47.0881 31.6726 47.2543 31.5888 47.3991 31.4382C47.5469 31.2905 47.6818 31.0504 47.804 30.718L47.9915 30.2067L45.571 23.6271H46.6619L48.4688 28.843H48.5369L50.3438 23.6271H51.4347L48.6562 31.1271C48.5312 31.4652 48.3764 31.745 48.1918 31.9666C48.0071 32.1911 47.7926 32.3572 47.5483 32.4652C47.3068 32.5732 47.0341 32.6271 46.7301 32.6271Z" fill="black"/>
<path d="M62.0007 21.4453H63.0575V27.2237C63.0575 27.8203 62.9169 28.353 62.6357 28.8217C62.3572 29.2876 61.9638 29.6555 61.4553 29.9254C60.9467 30.1925 60.3501 30.326 59.6655 30.326C58.9808 30.326 58.3842 30.1925 57.8757 29.9254C57.3672 29.6555 56.9723 29.2876 56.6911 28.8217C56.4126 28.353 56.2734 27.8203 56.2734 27.2237V21.4453H57.3303V27.1385C57.3303 27.5646 57.424 27.9439 57.6115 28.2763C57.799 28.6058 58.0661 28.8658 58.4126 29.0561C58.7621 29.2436 59.1797 29.3374 59.6655 29.3374C60.1513 29.3374 60.5689 29.2436 60.9183 29.0561C61.2678 28.8658 61.5348 28.6058 61.7195 28.2763C61.907 27.9439 62.0007 27.5646 62.0007 27.1385V21.4453Z" fill="black"/>
<path d="M66.0373 26.2351V30.1726H65.0316V23.6271H66.0032V24.6499H66.0884C66.2418 24.3175 66.4748 24.0504 66.7873 23.8487C67.0998 23.6442 67.5032 23.5419 67.9975 23.5419C68.4407 23.5419 68.8285 23.6328 69.1609 23.8146C69.4933 23.9936 69.7518 24.2663 69.9364 24.6328C70.1211 24.9964 70.2134 25.4567 70.2134 26.0135V30.1726H69.2077V26.0817C69.2077 25.5675 69.0742 25.1669 68.8072 24.88C68.5401 24.5902 68.1737 24.4453 67.7077 24.4453C67.3867 24.4453 67.0998 24.5149 66.8469 24.6541C66.5969 24.7933 66.3995 24.9964 66.2546 25.2635C66.1097 25.5305 66.0373 25.8544 66.0373 26.2351Z" fill="black"/>
<path d="M73.0568 21.4453V30.1726H72.0511V21.4453H73.0568Z" fill="black"/>
<path d="M77.5579 30.3089C76.967 30.3089 76.4485 30.1683 76.0025 29.8871C75.5593 29.6058 75.2127 29.2124 74.9627 28.7067C74.7156 28.201 74.592 27.6101 74.592 26.9339C74.592 26.2521 74.7156 25.657 74.9627 25.1484C75.2127 24.6399 75.5593 24.245 76.0025 23.9638C76.4485 23.6825 76.967 23.5419 77.5579 23.5419C78.1488 23.5419 78.6658 23.6825 79.109 23.9638C79.555 24.245 79.9016 24.6399 80.1488 25.1484C80.3988 25.657 80.5238 26.2521 80.5238 26.9339C80.5238 27.6101 80.3988 28.201 80.1488 28.7067C79.9016 29.2124 79.555 29.6058 79.109 29.8871C78.6658 30.1683 78.1488 30.3089 77.5579 30.3089ZM77.5579 29.4055C78.0067 29.4055 78.3761 29.2905 78.6658 29.0604C78.9556 28.8303 79.1701 28.5277 79.3093 28.1527C79.4485 27.7777 79.5181 27.3714 79.5181 26.9339C79.5181 26.4964 79.4485 26.0888 79.3093 25.7109C79.1701 25.3331 78.9556 25.0277 78.6658 24.7947C78.3761 24.5618 78.0067 24.4453 77.5579 24.4453C77.109 24.4453 76.7397 24.5618 76.4499 24.7947C76.1602 25.0277 75.9457 25.3331 75.8065 25.7109C75.6673 26.0888 75.5977 26.4964 75.5977 26.9339C75.5977 27.3714 75.6673 27.7777 75.8065 28.1527C75.9457 28.5277 76.1602 28.8303 76.4499 29.0604C76.7397 29.2905 77.109 29.4055 77.5579 29.4055Z" fill="black"/>
<path d="M84.718 30.3089C84.1044 30.3089 83.576 30.1641 83.1328 29.8743C82.6896 29.5845 82.3487 29.1854 82.1101 28.6768C81.8714 28.1683 81.7521 27.5874 81.7521 26.9339C81.7521 26.2692 81.8743 25.6825 82.1186 25.174C82.3658 24.6626 82.7095 24.2635 83.1499 23.9766C83.593 23.6868 84.1101 23.5419 84.701 23.5419C85.1612 23.5419 85.576 23.6271 85.9453 23.7976C86.3146 23.968 86.6172 24.2067 86.853 24.5135C87.0888 24.8203 87.2351 25.1783 87.2919 25.5874H86.2862C86.2095 25.2891 86.0391 25.0249 85.7749 24.7947C85.5135 24.5618 85.1612 24.4453 84.718 24.4453C84.326 24.4453 83.9822 24.5476 83.6868 24.7521C83.3942 24.9538 83.1655 25.2393 83.0007 25.6087C82.8388 25.9751 82.7578 26.4055 82.7578 26.8999C82.7578 27.4055 82.8374 27.8459 82.9964 28.2209C83.1584 28.5959 83.3857 28.8871 83.6783 29.0945C83.9737 29.3018 84.3203 29.4055 84.718 29.4055C84.9794 29.4055 85.2166 29.3601 85.4297 29.2692C85.6428 29.1783 85.8232 29.0476 85.9709 28.8771C86.1186 28.7067 86.2237 28.5021 86.2862 28.2635H87.2919C87.2351 28.6499 87.0945 28.9979 86.87 29.3075C86.6484 29.6143 86.3544 29.8587 85.9879 30.0405C85.6243 30.2195 85.201 30.3089 84.718 30.3089Z" fill="black"/>
<path d="M89.6996 27.7862L89.6825 26.5419H89.8871L92.7507 23.6271H93.995L90.9439 26.7124H90.8587L89.6996 27.7862ZM88.7621 30.1726V21.4453H89.7678V30.1726H88.7621ZM92.9212 30.1726L90.3643 26.9339L91.0803 26.2351L94.1996 30.1726H92.9212Z" fill="black"/>
<path d="M98.8008 30.1726V21.4453H99.8576V29.2351H103.914V30.1726H98.8008Z" fill="black"/>
<path d="M107.341 30.326C106.926 30.326 106.549 30.2479 106.211 30.0916C105.873 29.9325 105.605 29.7038 105.406 29.4055C105.207 29.1044 105.108 28.7408 105.108 28.3146C105.108 27.9396 105.181 27.6357 105.329 27.4027C105.477 27.1669 105.674 26.9822 105.922 26.8487C106.169 26.7152 106.441 26.6158 106.74 26.5504C107.041 26.4822 107.343 26.4283 107.647 26.3885C108.045 26.3374 108.368 26.299 108.615 26.2734C108.865 26.245 109.047 26.1982 109.16 26.1328C109.277 26.0675 109.335 25.9538 109.335 25.7919V25.7578C109.335 25.3374 109.22 25.0107 108.99 24.7777C108.762 24.5447 108.417 24.4283 107.954 24.4283C107.474 24.4283 107.098 24.5334 106.825 24.7436C106.552 24.9538 106.36 25.1783 106.25 25.4169L105.295 25.076C105.466 24.6783 105.693 24.3686 105.977 24.147C106.264 23.9226 106.576 23.7663 106.914 23.6783C107.255 23.5874 107.591 23.5419 107.92 23.5419C108.13 23.5419 108.372 23.5675 108.645 23.6186C108.92 23.6669 109.186 23.7678 109.441 23.9212C109.7 24.0746 109.914 24.3061 110.085 24.6158C110.255 24.9254 110.341 25.3402 110.341 25.8601V30.1726H109.335V29.2862H109.284C109.216 29.4283 109.102 29.5803 108.943 29.7422C108.784 29.9041 108.572 30.0419 108.308 30.1555C108.044 30.2692 107.721 30.326 107.341 30.326ZM107.494 29.4226C107.892 29.4226 108.227 29.3445 108.5 29.1882C108.775 29.032 108.983 28.8303 109.122 28.5831C109.264 28.3359 109.335 28.076 109.335 27.8033V26.8828C109.292 26.9339 109.199 26.9808 109.054 27.0234C108.912 27.0632 108.747 27.0987 108.559 27.13C108.375 27.1584 108.194 27.1839 108.018 27.2067C107.845 27.2266 107.704 27.2436 107.596 27.2578C107.335 27.2919 107.091 27.3473 106.863 27.424C106.639 27.4979 106.457 27.6101 106.318 27.7607C106.181 27.9084 106.113 28.1101 106.113 28.3658C106.113 28.7152 106.243 28.9794 106.501 29.1584C106.762 29.3345 107.093 29.4226 107.494 29.4226Z" fill="black"/>
<path d="M112.312 30.1726V21.4453H113.318V24.6669H113.403C113.477 24.5533 113.58 24.4084 113.71 24.2322C113.844 24.0533 114.034 23.8942 114.281 23.755C114.531 23.6129 114.869 23.5419 115.295 23.5419C115.847 23.5419 116.332 23.6797 116.753 23.9553C117.173 24.2308 117.501 24.6214 117.737 25.1271C117.973 25.6328 118.091 26.2294 118.091 26.9169C118.091 27.6101 117.973 28.2109 117.737 28.7195C117.501 29.2251 117.175 29.6172 116.757 29.8956C116.339 30.1712 115.858 30.3089 115.312 30.3089C114.892 30.3089 114.555 30.2393 114.303 30.1001C114.05 29.9581 113.855 29.7976 113.719 29.6186C113.582 29.4368 113.477 29.2862 113.403 29.1669H113.284V30.1726H112.312ZM113.301 26.8999C113.301 27.3942 113.374 27.8303 113.518 28.2081C113.663 28.5831 113.875 28.8771 114.153 29.0902C114.432 29.3004 114.773 29.4055 115.176 29.4055C115.597 29.4055 115.947 29.2947 116.229 29.0732C116.513 28.8487 116.726 28.5476 116.868 28.1697C117.013 27.7891 117.085 27.3658 117.085 26.8999C117.085 26.4396 117.014 26.0249 116.872 25.6555C116.733 25.2834 116.521 24.9893 116.237 24.7734C115.956 24.5547 115.602 24.4453 115.176 24.4453C114.767 24.4453 114.423 24.549 114.145 24.7564C113.866 24.9609 113.656 25.2479 113.514 25.6172C113.372 25.9837 113.301 26.4112 113.301 26.8999Z" fill="black"/>
<path d="M124.266 25.093L123.362 25.3487C123.305 25.1982 123.222 25.0518 123.111 24.9098C123.003 24.7649 122.855 24.6456 122.668 24.5518C122.48 24.4581 122.24 24.4112 121.947 24.4112C121.547 24.4112 121.213 24.5036 120.946 24.6882C120.682 24.87 120.55 25.1016 120.55 25.3828C120.55 25.6328 120.641 25.8303 120.822 25.9751C121.004 26.12 121.288 26.2408 121.675 26.3374L122.646 26.576C123.232 26.718 123.668 26.9354 123.955 27.228C124.241 27.5178 124.385 27.8913 124.385 28.3487C124.385 28.7237 124.277 29.0589 124.061 29.3544C123.848 29.6499 123.55 29.8828 123.166 30.0533C122.783 30.2237 122.337 30.3089 121.828 30.3089C121.161 30.3089 120.608 30.1641 120.17 29.8743C119.733 29.5845 119.456 29.1612 119.339 28.6044L120.294 28.3658C120.385 28.718 120.557 28.9822 120.81 29.1584C121.065 29.3345 121.399 29.4226 121.811 29.4226C122.28 29.4226 122.652 29.3232 122.928 29.1243C123.206 28.9226 123.345 28.6811 123.345 28.3999C123.345 28.1726 123.266 27.9822 123.107 27.8288C122.947 27.6726 122.703 27.5561 122.374 27.4794L121.283 27.2237C120.683 27.0817 120.243 26.8615 119.962 26.5632C119.683 26.2621 119.544 25.8857 119.544 25.4339C119.544 25.0646 119.648 24.7379 119.855 24.4538C120.065 24.1697 120.351 23.9467 120.712 23.7848C121.075 23.6229 121.487 23.5419 121.947 23.5419C122.595 23.5419 123.104 23.6839 123.473 23.968C123.845 24.2521 124.109 24.6271 124.266 25.093Z" fill="black"/>
<path d="M48.2563 5.52599C48.1934 4.8916 47.9234 4.39877 47.4463 4.0475C46.9692 3.69623 46.3217 3.52059 45.5038 3.52059C44.948 3.52059 44.4788 3.59923 44.0961 3.75652C43.7133 3.90856 43.4197 4.1209 43.2153 4.39353C43.016 4.66616 42.9164 4.97549 42.9164 5.32152C42.9059 5.60987 42.9662 5.86153 43.0973 6.07649C43.2336 6.29145 43.4197 6.47757 43.6557 6.63485C43.8916 6.7869 44.1642 6.92059 44.4736 7.03593C44.7829 7.14603 45.1132 7.24041 45.4645 7.31905L46.9115 7.66508C47.614 7.82236 48.2589 8.03208 48.8461 8.29422C49.4333 8.55636 49.9419 8.8788 50.3718 9.26153C50.8017 9.64426 51.1346 10.0951 51.3705 10.6142C51.6117 11.1332 51.7349 11.7283 51.7402 12.3994C51.7349 13.385 51.4833 14.2396 50.9852 14.9631C50.4924 15.6814 49.7793 16.2398 48.8461 16.6382C47.9181 17.0315 46.7988 17.2281 45.488 17.2281C44.1878 17.2281 43.0554 17.0288 42.0907 16.6304C41.1312 16.2319 40.3815 15.6421 39.8415 14.8609C39.3067 14.0745 39.0262 13.1019 39 11.9433H42.2951C42.3318 12.4833 42.4865 12.9342 42.7591 13.2959C43.037 13.6524 43.4066 13.9224 43.868 14.1059C44.3346 14.2842 44.8615 14.3733 45.4487 14.3733C46.0254 14.3733 46.5261 14.2894 46.9508 14.1217C47.3807 13.9539 47.7136 13.7206 47.9496 13.4217C48.1855 13.1229 48.3035 12.7795 48.3035 12.3915C48.3035 12.0298 48.196 11.7257 47.981 11.4793C47.7713 11.2328 47.462 11.0231 47.053 10.8501C46.6493 10.6771 46.1539 10.5198 45.5667 10.3783L43.813 9.93786C42.455 9.60756 41.3829 9.09114 40.5965 8.38859C39.81 7.68605 39.4194 6.73971 39.4247 5.54958C39.4194 4.57441 39.679 3.72244 40.2032 2.99368C40.7328 2.26492 41.4589 1.69607 42.3816 1.28713C43.3044 0.878185 44.353 0.673714 45.5274 0.673714C46.7227 0.673714 47.7661 0.878185 48.6574 1.28713C49.5539 1.69607 50.2512 2.26492 50.7493 2.99368C51.2473 3.72244 51.5042 4.56654 51.52 5.52599H48.2563Z" fill="url(#paint0_linear_329_5224)"/>
<path d="M53.8127 3.70147V0.893914H67.0404V3.70147H62.1095V17H58.7436V3.70147H53.8127Z" fill="url(#paint1_linear_329_5224)"/>
<path d="M70.4224 17H66.7733L72.3334 0.893914H76.7217L82.2739 17H78.6248L74.5905 4.57441H74.4646L70.4224 17ZM70.1943 10.6692H78.8136V13.3274H70.1943V10.6692Z" fill="url(#paint2_linear_329_5224)"/>
<path d="M84.6079 0.893914H88.8074L93.2429 11.7152H93.4316L97.8671 0.893914H102.067V17H98.7636V6.51689H98.6299L94.4619 16.9214H92.2127L88.0446 6.47757H87.9109V17H84.6079V0.893914Z" fill="url(#paint3_linear_329_5224)"/>
<path d="M105.268 17V0.893914H111.622C112.844 0.893914 113.884 1.12722 114.744 1.59384C115.604 2.05521 116.259 2.69746 116.71 3.52059C117.166 4.33848 117.394 5.28219 117.394 6.35174C117.394 7.42128 117.164 8.365 116.702 9.18289C116.241 10.0008 115.573 10.6378 114.697 11.0939C113.827 11.55 112.773 11.7781 111.536 11.7781H107.485V9.04919H110.985C111.64 9.04919 112.18 8.93647 112.605 8.71103C113.035 8.48034 113.355 8.16315 113.565 7.75945C113.779 7.3505 113.887 6.88127 113.887 6.35174C113.887 5.81697 113.779 5.35035 113.565 4.95189C113.355 4.54819 113.035 4.23624 112.605 4.01604C112.175 3.7906 111.63 3.67788 110.969 3.67788H108.673V17H105.268Z" fill="url(#paint4_linear_329_5224)"/>
<path d="M128.739 5.52599C128.676 4.8916 128.406 4.39877 127.929 4.0475C127.452 3.69623 126.804 3.52059 125.986 3.52059C125.431 3.52059 124.961 3.59923 124.579 3.75652C124.196 3.90856 123.902 4.1209 123.698 4.39353C123.499 4.66616 123.399 4.97549 123.399 5.32152C123.389 5.60987 123.449 5.86153 123.58 6.07649C123.716 6.29145 123.902 6.47757 124.138 6.63485C124.374 6.7869 124.647 6.92059 124.956 7.03593C125.266 7.14603 125.596 7.24041 125.947 7.31905L127.394 7.66508C128.097 7.82236 128.742 8.03208 129.329 8.29422C129.916 8.55636 130.425 8.8788 130.854 9.26153C131.284 9.64426 131.617 10.0951 131.853 10.6142C132.094 11.1332 132.218 11.7283 132.223 12.3994C132.218 13.385 131.966 14.2396 131.468 14.9631C130.975 15.6814 130.262 16.2398 129.329 16.6382C128.401 17.0315 127.281 17.2281 125.971 17.2281C124.671 17.2281 123.538 17.0288 122.573 16.6304C121.614 16.2319 120.864 15.6421 120.324 14.8609C119.789 14.0745 119.509 13.1019 119.483 11.9433H122.778C122.815 12.4833 122.969 12.9342 123.242 13.2959C123.52 13.6524 123.889 13.9224 124.351 14.1059C124.817 14.2842 125.344 14.3733 125.931 14.3733C126.508 14.3733 127.009 14.2894 127.433 14.1217C127.863 13.9539 128.196 13.7206 128.432 13.4217C128.668 13.1229 128.786 12.7795 128.786 12.3915C128.786 12.0298 128.679 11.7257 128.464 11.4793C128.254 11.2328 127.945 11.0231 127.536 10.8501C127.132 10.6771 126.637 10.5198 126.049 10.3783L124.296 9.93786C122.938 9.60756 121.866 9.09114 121.079 8.38859C120.293 7.68605 119.902 6.73971 119.907 5.54958C119.902 4.57441 120.162 3.72244 120.686 2.99368C121.215 2.26492 121.942 1.69607 122.864 1.28713C123.787 0.878185 124.836 0.673714 126.01 0.673714C127.205 0.673714 128.249 0.878185 129.14 1.28713C130.037 1.69607 130.734 2.26492 131.232 2.99368C131.73 3.72244 131.987 4.56654 132.003 5.52599H128.739Z" fill="url(#paint5_linear_329_5224)"/>
<path d="M33.0159 12.8962V16.2824H0V12.8962H33.0159ZM23.6575 1.21875H29.3834V21.8133C29.3834 24.0708 28.8498 26.0563 27.7826 27.77C26.7154 29.4836 25.2224 30.8227 23.3035 31.7873C21.3846 32.7416 19.1425 33.2187 16.5772 33.2187C14.0119 33.2187 11.7698 32.7416 9.85089 31.7873C7.93202 30.8227 6.43899 29.4836 5.37181 27.77C4.3149 26.0563 3.78644 24.0708 3.78644 21.8133V1.21875H9.49687V21.3361C9.49687 22.6496 9.78419 23.8194 10.3588 24.8455C10.9437 25.8716 11.7646 26.6771 12.8215 27.262C13.8887 27.8367 15.1406 28.124 16.5772 28.124C18.0241 28.124 19.2759 27.8367 20.3329 27.262C21.4 26.6771 22.2209 25.8716 22.7956 24.8455C23.3702 23.8194 23.6575 22.6496 23.6575 21.3361V1.21875Z" fill="#020207"/>
<defs>
<linearGradient id="paint0_linear_329_5224" x1="39" y1="9.53175" x2="112.922" y2="-21.7924" gradientUnits="userSpaceOnUse">
<stop stop-color="#603DEB"/>
<stop offset="1" stop-color="#E8AC11"/>
</linearGradient>
<linearGradient id="paint1_linear_329_5224" x1="39" y1="9.53175" x2="112.922" y2="-21.7924" gradientUnits="userSpaceOnUse">
<stop stop-color="#603DEB"/>
<stop offset="1" stop-color="#E8AC11"/>
</linearGradient>
<linearGradient id="paint2_linear_329_5224" x1="39" y1="9.53175" x2="112.922" y2="-21.7924" gradientUnits="userSpaceOnUse">
<stop stop-color="#603DEB"/>
<stop offset="1" stop-color="#E8AC11"/>
</linearGradient>
<linearGradient id="paint3_linear_329_5224" x1="39" y1="9.53175" x2="112.922" y2="-21.7924" gradientUnits="userSpaceOnUse">
<stop stop-color="#603DEB"/>
<stop offset="1" stop-color="#E8AC11"/>
</linearGradient>
<linearGradient id="paint4_linear_329_5224" x1="39" y1="9.53175" x2="112.922" y2="-21.7924" gradientUnits="userSpaceOnUse">
<stop stop-color="#603DEB"/>
<stop offset="1" stop-color="#E8AC11"/>
</linearGradient>
<linearGradient id="paint5_linear_329_5224" x1="39" y1="9.53175" x2="112.922" y2="-21.7924" gradientUnits="userSpaceOnUse">
<stop stop-color="#603DEB"/>
<stop offset="1" stop-color="#E8AC11"/>
</linearGradient>
</defs>
</svg>
