<svg width="221" height="39" viewBox="0 0 221 39" fill="none" xmlns="http://www.w3.org/2000/svg">
<path d="M39 35.1726V26.4453H40.0057V29.6669H40.0909C40.1648 29.5533 40.267 29.4084 40.3977 29.2322C40.5312 29.0533 40.7216 28.8942 40.9688 28.755C41.2188 28.6129 41.5568 28.5419 41.983 28.5419C42.5341 28.5419 43.0199 28.6797 43.4403 28.9553C43.8608 29.2308 44.1889 29.6214 44.4247 30.1271C44.6605 30.6328 44.7784 31.2294 44.7784 31.9169C44.7784 32.6101 44.6605 33.2109 44.4247 33.7195C44.1889 34.2251 43.8622 34.6172 43.4446 34.8956C43.027 35.1712 42.5455 35.3089 42 35.3089C41.5795 35.3089 41.2429 35.2393 40.9901 35.1001C40.7372 34.9581 40.5426 34.7976 40.4062 34.6186C40.2699 34.4368 40.1648 34.2862 40.0909 34.1669H39.9716V35.1726H39ZM39.9886 31.8999C39.9886 32.3942 40.0611 32.8303 40.206 33.2081C40.3509 33.5831 40.5625 33.8771 40.8409 34.0902C41.1193 34.3004 41.4602 34.4055 41.8636 34.4055C42.2841 34.4055 42.6349 34.2947 42.9162 34.0732C43.2003 33.8487 43.4134 33.5476 43.5554 33.1697C43.7003 32.7891 43.7727 32.3658 43.7727 31.8999C43.7727 31.4396 43.7017 31.0249 43.5597 30.6555C43.4205 30.2834 43.2088 29.9893 42.9247 29.7734C42.6435 29.5547 42.2898 29.4453 41.8636 29.4453C41.4545 29.4453 41.1108 29.549 40.8324 29.7564C40.554 29.9609 40.3438 30.2479 40.2017 30.6172C40.0597 30.9837 39.9886 31.4112 39.9886 31.8999Z" fill="black"/>
<path d="M46.7301 37.6271C46.5597 37.6271 46.4077 37.6129 46.2741 37.5845C46.1406 37.5589 46.0483 37.5334 45.9972 37.5078L46.2528 36.6214C46.4972 36.6839 46.7131 36.7067 46.9006 36.6896C47.0881 36.6726 47.2543 36.5888 47.3991 36.4382C47.5469 36.2905 47.6818 36.0504 47.804 35.718L47.9915 35.2067L45.571 28.6271H46.6619L48.4688 33.843H48.5369L50.3438 28.6271H51.4347L48.6562 36.1271C48.5312 36.4652 48.3764 36.745 48.1918 36.9666C48.0071 37.1911 47.7926 37.3572 47.5483 37.4652C47.3068 37.5732 47.0341 37.6271 46.7301 37.6271Z" fill="black"/>
<path d="M62.0007 26.4453H63.0575V32.2237C63.0575 32.8203 62.9169 33.353 62.6357 33.8217C62.3572 34.2876 61.9638 34.6555 61.4553 34.9254C60.9467 35.1925 60.3501 35.326 59.6655 35.326C58.9808 35.326 58.3842 35.1925 57.8757 34.9254C57.3672 34.6555 56.9723 34.2876 56.6911 33.8217C56.4126 33.353 56.2734 32.8203 56.2734 32.2237V26.4453H57.3303V32.1385C57.3303 32.5646 57.424 32.9439 57.6115 33.2763C57.799 33.6058 58.0661 33.8658 58.4126 34.0561C58.7621 34.2436 59.1797 34.3374 59.6655 34.3374C60.1513 34.3374 60.5689 34.2436 60.9183 34.0561C61.2678 33.8658 61.5348 33.6058 61.7195 33.2763C61.907 32.9439 62.0007 32.5646 62.0007 32.1385V26.4453Z" fill="black"/>
<path d="M66.0373 31.2351V35.1726H65.0316V28.6271H66.0032V29.6499H66.0884C66.2418 29.3175 66.4748 29.0504 66.7873 28.8487C67.0998 28.6442 67.5032 28.5419 67.9975 28.5419C68.4407 28.5419 68.8285 28.6328 69.1609 28.8146C69.4933 28.9936 69.7518 29.2663 69.9364 29.6328C70.1211 29.9964 70.2134 30.4567 70.2134 31.0135V35.1726H69.2077V31.0817C69.2077 30.5675 69.0742 30.1669 68.8072 29.88C68.5401 29.5902 68.1737 29.4453 67.7077 29.4453C67.3867 29.4453 67.0998 29.5149 66.8469 29.6541C66.5969 29.7933 66.3995 29.9964 66.2546 30.2635C66.1097 30.5305 66.0373 30.8544 66.0373 31.2351Z" fill="black"/>
<path d="M73.0568 26.4453V35.1726H72.0511V26.4453H73.0568Z" fill="black"/>
<path d="M77.5579 35.3089C76.967 35.3089 76.4485 35.1683 76.0025 34.8871C75.5593 34.6058 75.2127 34.2124 74.9627 33.7067C74.7156 33.201 74.592 32.6101 74.592 31.9339C74.592 31.2521 74.7156 30.657 74.9627 30.1484C75.2127 29.6399 75.5593 29.245 76.0025 28.9638C76.4485 28.6825 76.967 28.5419 77.5579 28.5419C78.1488 28.5419 78.6658 28.6825 79.109 28.9638C79.555 29.245 79.9016 29.6399 80.1488 30.1484C80.3988 30.657 80.5238 31.2521 80.5238 31.9339C80.5238 32.6101 80.3988 33.201 80.1488 33.7067C79.9016 34.2124 79.555 34.6058 79.109 34.8871C78.6658 35.1683 78.1488 35.3089 77.5579 35.3089ZM77.5579 34.4055C78.0067 34.4055 78.3761 34.2905 78.6658 34.0604C78.9556 33.8303 79.1701 33.5277 79.3093 33.1527C79.4485 32.7777 79.5181 32.3714 79.5181 31.9339C79.5181 31.4964 79.4485 31.0888 79.3093 30.7109C79.1701 30.3331 78.9556 30.0277 78.6658 29.7947C78.3761 29.5618 78.0067 29.4453 77.5579 29.4453C77.109 29.4453 76.7397 29.5618 76.4499 29.7947C76.1602 30.0277 75.9457 30.3331 75.8065 30.7109C75.6673 31.0888 75.5977 31.4964 75.5977 31.9339C75.5977 32.3714 75.6673 32.7777 75.8065 33.1527C75.9457 33.5277 76.1602 33.8303 76.4499 34.0604C76.7397 34.2905 77.109 34.4055 77.5579 34.4055Z" fill="black"/>
<path d="M84.718 35.3089C84.1044 35.3089 83.576 35.1641 83.1328 34.8743C82.6896 34.5845 82.3487 34.1854 82.1101 33.6768C81.8714 33.1683 81.7521 32.5874 81.7521 31.9339C81.7521 31.2692 81.8743 30.6825 82.1186 30.174C82.3658 29.6626 82.7095 29.2635 83.1499 28.9766C83.593 28.6868 84.1101 28.5419 84.701 28.5419C85.1612 28.5419 85.576 28.6271 85.9453 28.7976C86.3146 28.968 86.6172 29.2067 86.853 29.5135C87.0888 29.8203 87.2351 30.1783 87.2919 30.5874H86.2862C86.2095 30.2891 86.0391 30.0249 85.7749 29.7947C85.5135 29.5618 85.1612 29.4453 84.718 29.4453C84.326 29.4453 83.9822 29.5476 83.6868 29.7521C83.3942 29.9538 83.1655 30.2393 83.0007 30.6087C82.8388 30.9751 82.7578 31.4055 82.7578 31.8999C82.7578 32.4055 82.8374 32.8459 82.9964 33.2209C83.1584 33.5959 83.3857 33.8871 83.6783 34.0945C83.9737 34.3018 84.3203 34.4055 84.718 34.4055C84.9794 34.4055 85.2166 34.3601 85.4297 34.2692C85.6428 34.1783 85.8232 34.0476 85.9709 33.8771C86.1186 33.7067 86.2237 33.5021 86.2862 33.2635H87.2919C87.2351 33.6499 87.0945 33.9979 86.87 34.3075C86.6484 34.6143 86.3544 34.8587 85.9879 35.0405C85.6243 35.2195 85.201 35.3089 84.718 35.3089Z" fill="black"/>
<path d="M89.6996 32.7862L89.6825 31.5419H89.8871L92.7507 28.6271H93.995L90.9439 31.7124H90.8587L89.6996 32.7862ZM88.7621 35.1726V26.4453H89.7678V35.1726H88.7621ZM92.9212 35.1726L90.3643 31.9339L91.0803 31.2351L94.1996 35.1726H92.9212Z" fill="black"/>
<path d="M98.8008 35.1726V26.4453H99.8576V34.2351H103.914V35.1726H98.8008Z" fill="black"/>
<path d="M107.341 35.326C106.926 35.326 106.549 35.2479 106.211 35.0916C105.873 34.9325 105.605 34.7038 105.406 34.4055C105.207 34.1044 105.108 33.7408 105.108 33.3146C105.108 32.9396 105.181 32.6357 105.329 32.4027C105.477 32.1669 105.674 31.9822 105.922 31.8487C106.169 31.7152 106.441 31.6158 106.74 31.5504C107.041 31.4822 107.343 31.4283 107.647 31.3885C108.045 31.3374 108.368 31.299 108.615 31.2734C108.865 31.245 109.047 31.1982 109.16 31.1328C109.277 31.0675 109.335 30.9538 109.335 30.7919V30.7578C109.335 30.3374 109.22 30.0107 108.99 29.7777C108.762 29.5447 108.417 29.4283 107.954 29.4283C107.474 29.4283 107.098 29.5334 106.825 29.7436C106.552 29.9538 106.36 30.1783 106.25 30.4169L105.295 30.076C105.466 29.6783 105.693 29.3686 105.977 29.147C106.264 28.9226 106.576 28.7663 106.914 28.6783C107.255 28.5874 107.591 28.5419 107.92 28.5419C108.13 28.5419 108.372 28.5675 108.645 28.6186C108.92 28.6669 109.186 28.7678 109.441 28.9212C109.7 29.0746 109.914 29.3061 110.085 29.6158C110.255 29.9254 110.341 30.3402 110.341 30.8601V35.1726H109.335V34.2862H109.284C109.216 34.4283 109.102 34.5803 108.943 34.7422C108.784 34.9041 108.572 35.0419 108.308 35.1555C108.044 35.2692 107.721 35.326 107.341 35.326ZM107.494 34.4226C107.892 34.4226 108.227 34.3445 108.5 34.1882C108.775 34.032 108.983 33.8303 109.122 33.5831C109.264 33.3359 109.335 33.076 109.335 32.8033V31.8828C109.292 31.9339 109.199 31.9808 109.054 32.0234C108.912 32.0632 108.747 32.0987 108.559 32.13C108.375 32.1584 108.194 32.1839 108.018 32.2067C107.845 32.2266 107.704 32.2436 107.596 32.2578C107.335 32.2919 107.091 32.3473 106.863 32.424C106.639 32.4979 106.457 32.6101 106.318 32.7607C106.181 32.9084 106.113 33.1101 106.113 33.3658C106.113 33.7152 106.243 33.9794 106.501 34.1584C106.762 34.3345 107.093 34.4226 107.494 34.4226Z" fill="black"/>
<path d="M112.312 35.1726V26.4453H113.318V29.6669H113.403C113.477 29.5533 113.58 29.4084 113.71 29.2322C113.844 29.0533 114.034 28.8942 114.281 28.755C114.531 28.6129 114.869 28.5419 115.295 28.5419C115.847 28.5419 116.332 28.6797 116.753 28.9553C117.173 29.2308 117.501 29.6214 117.737 30.1271C117.973 30.6328 118.091 31.2294 118.091 31.9169C118.091 32.6101 117.973 33.2109 117.737 33.7195C117.501 34.2251 117.175 34.6172 116.757 34.8956C116.339 35.1712 115.858 35.3089 115.312 35.3089C114.892 35.3089 114.555 35.2393 114.303 35.1001C114.05 34.9581 113.855 34.7976 113.719 34.6186C113.582 34.4368 113.477 34.2862 113.403 34.1669H113.284V35.1726H112.312ZM113.301 31.8999C113.301 32.3942 113.374 32.8303 113.518 33.2081C113.663 33.5831 113.875 33.8771 114.153 34.0902C114.432 34.3004 114.773 34.4055 115.176 34.4055C115.597 34.4055 115.947 34.2947 116.229 34.0732C116.513 33.8487 116.726 33.5476 116.868 33.1697C117.013 32.7891 117.085 32.3658 117.085 31.8999C117.085 31.4396 117.014 31.0249 116.872 30.6555C116.733 30.2834 116.521 29.9893 116.237 29.7734C115.956 29.5547 115.602 29.4453 115.176 29.4453C114.767 29.4453 114.423 29.549 114.145 29.7564C113.866 29.9609 113.656 30.2479 113.514 30.6172C113.372 30.9837 113.301 31.4112 113.301 31.8999Z" fill="black"/>
<path d="M124.266 30.093L123.362 30.3487C123.305 30.1982 123.222 30.0518 123.111 29.9098C123.003 29.7649 122.855 29.6456 122.668 29.5518C122.48 29.4581 122.24 29.4112 121.947 29.4112C121.547 29.4112 121.213 29.5036 120.946 29.6882C120.682 29.87 120.55 30.1016 120.55 30.3828C120.55 30.6328 120.641 30.8303 120.822 30.9751C121.004 31.12 121.288 31.2408 121.675 31.3374L122.646 31.576C123.232 31.718 123.668 31.9354 123.955 32.228C124.241 32.5178 124.385 32.8913 124.385 33.3487C124.385 33.7237 124.277 34.0589 124.061 34.3544C123.848 34.6499 123.55 34.8828 123.166 35.0533C122.783 35.2237 122.337 35.3089 121.828 35.3089C121.161 35.3089 120.608 35.1641 120.17 34.8743C119.733 34.5845 119.456 34.1612 119.339 33.6044L120.294 33.3658C120.385 33.718 120.557 33.9822 120.81 34.1584C121.065 34.3345 121.399 34.4226 121.811 34.4226C122.28 34.4226 122.652 34.3232 122.928 34.1243C123.206 33.9226 123.345 33.6811 123.345 33.3999C123.345 33.1726 123.266 32.9822 123.107 32.8288C122.947 32.6726 122.703 32.5561 122.374 32.4794L121.283 32.2237C120.683 32.0817 120.243 31.8615 119.962 31.5632C119.683 31.2621 119.544 30.8857 119.544 30.4339C119.544 30.0646 119.648 29.7379 119.855 29.4538C120.065 29.1697 120.351 28.9467 120.712 28.7848C121.075 28.6229 121.487 28.5419 121.947 28.5419C122.595 28.5419 123.104 28.6839 123.473 28.968C123.845 29.2521 124.109 29.6271 124.266 30.093Z" fill="black"/>
<path d="M33.0159 17.8962V21.2824H0V17.8962H33.0159ZM23.6575 6.21875H29.3834V26.8133C29.3834 29.0708 28.8498 31.0563 27.7826 32.77C26.7154 34.4836 25.2224 35.8227 23.3035 36.7873C21.3846 37.7416 19.1425 38.2187 16.5772 38.2187C14.0119 38.2187 11.7698 37.7416 9.85089 36.7873C7.93202 35.8227 6.43899 34.4836 5.37181 32.77C4.3149 31.0563 3.78644 29.0708 3.78644 26.8133V6.21875H9.49687V26.3361C9.49687 27.6496 9.78419 28.8194 10.3588 29.8455C10.9437 30.8716 11.7646 31.6771 12.8215 32.262C13.8887 32.8367 15.1406 33.124 16.5772 33.124C18.0241 33.124 19.2759 32.8367 20.3329 32.262C21.4 31.6771 22.2209 30.8716 22.7956 29.8455C23.3702 28.8194 23.6575 27.6496 23.6575 26.3361V6.21875Z" fill="#020207"/>
<path d="M46.8594 10.7969C46.8073 10.224 46.5755 9.77865 46.1641 9.46094C45.7578 9.13802 45.1771 8.97656 44.4219 8.97656C43.9219 8.97656 43.5052 9.04167 43.1719 9.17187C42.8385 9.30208 42.5885 9.48177 42.4219 9.71094C42.2552 9.9349 42.1693 10.1927 42.1641 10.4844C42.1536 10.724 42.2005 10.9349 42.3047 11.1172C42.4141 11.2995 42.5703 11.4609 42.7734 11.6016C42.9818 11.737 43.2318 11.8568 43.5234 11.9609C43.8151 12.0651 44.1432 12.1562 44.5078 12.2344L45.8828 12.5469C46.6745 12.7188 47.3724 12.9479 47.9766 13.2344C48.5859 13.5208 49.0964 13.862 49.5078 14.2578C49.9245 14.6536 50.2396 15.1094 50.4531 15.625C50.6667 16.1406 50.776 16.7187 50.7813 17.3594C50.776 18.3698 50.5208 19.237 50.0156 19.9609C49.5104 20.6849 48.7839 21.2396 47.8359 21.625C46.8932 22.0104 45.7552 22.2031 44.4219 22.2031C43.0833 22.2031 41.9167 22.0026 40.9219 21.6016C39.9271 21.2005 39.1536 20.5911 38.6016 19.7734C38.0495 18.9557 37.7656 17.9219 37.75 16.6719H41.4531C41.4844 17.1875 41.6224 17.6172 41.8672 17.9609C42.112 18.3047 42.4479 18.5651 42.875 18.7422C43.3073 18.9193 43.8073 19.0078 44.375 19.0078C44.8958 19.0078 45.3385 18.9375 45.7031 18.7969C46.0729 18.6563 46.3568 18.4609 46.5547 18.2109C46.7526 17.9609 46.8542 17.6745 46.8594 17.3516C46.8542 17.0495 46.7604 16.7917 46.5781 16.5781C46.3958 16.3594 46.1146 16.1719 45.7344 16.0156C45.3594 15.8542 44.8802 15.7057 44.2969 15.5703L42.625 15.1797C41.2396 14.862 40.1484 14.349 39.3516 13.6406C38.5547 12.9271 38.1589 11.9635 38.1641 10.75C38.1589 9.76042 38.4245 8.89323 38.9609 8.14844C39.4974 7.40365 40.2396 6.82292 41.1875 6.40625C42.1354 5.98958 43.2161 5.78125 44.4297 5.78125C45.6693 5.78125 46.7448 5.99219 47.6562 6.41406C48.5729 6.83073 49.2839 7.41667 49.7891 8.17188C50.2943 8.92708 50.5521 9.80208 50.5625 10.7969H46.8594ZM62.4141 6H66.2734V16.3203C66.2734 17.513 65.9896 18.5521 65.4219 19.4375C64.8542 20.3177 64.0625 21 63.0469 21.4844C62.0313 21.9635 60.8516 22.2031 59.5078 22.2031C58.1484 22.2031 56.9609 21.9635 55.9453 21.4844C54.9297 21 54.1406 20.3177 53.5781 19.4375C53.0156 18.5521 52.7344 17.513 52.7344 16.3203V6H56.6016V15.9844C56.6016 16.5365 56.7214 17.0286 56.9609 17.4609C57.2057 17.8932 57.5469 18.2318 57.9844 18.4766C58.4219 18.7214 58.9297 18.8438 59.5078 18.8438C60.0859 18.8438 60.5911 18.7214 61.0234 18.4766C61.4609 18.2318 61.8021 17.8932 62.0469 17.4609C62.2917 17.0286 62.4141 16.5365 62.4141 15.9844V6ZM68.6973 22V6H75.3691C76.5671 6 77.5697 6.16927 78.377 6.50781C79.1895 6.84635 79.7988 7.32031 80.2051 7.92969C80.6165 8.53906 80.8223 9.24479 80.8223 10.0469C80.8223 10.6562 80.6947 11.2005 80.4395 11.6797C80.1842 12.1536 79.8327 12.5469 79.3848 12.8594C78.9368 13.1719 78.4186 13.3906 77.8301 13.5156V13.6719C78.4759 13.7031 79.0723 13.8776 79.6191 14.1953C80.1712 14.513 80.6139 14.9557 80.9473 15.5234C81.2806 16.0859 81.4473 16.7526 81.4473 17.5234C81.4473 18.3828 81.2285 19.151 80.791 19.8281C80.3535 20.5 79.7207 21.0312 78.8926 21.4219C78.0645 21.8073 77.0592 22 75.877 22H68.6973ZM72.5645 18.8828H74.9551C75.7936 18.8828 76.4108 18.724 76.8066 18.4062C77.2077 18.0885 77.4082 17.6458 77.4082 17.0781C77.4082 16.6667 77.3118 16.3125 77.1191 16.0156C76.9264 15.7135 76.653 15.4818 76.2988 15.3203C75.9447 15.1536 75.5202 15.0703 75.0254 15.0703H72.5645V18.8828ZM72.5645 12.5781H74.7051C75.127 12.5781 75.502 12.5078 75.8301 12.3672C76.1582 12.2266 76.4134 12.0234 76.5957 11.7578C76.7832 11.4922 76.877 11.1719 76.877 10.7969C76.877 10.2604 76.6868 9.83854 76.3066 9.53125C75.9264 9.22396 75.4134 9.07031 74.7676 9.07031H72.5645V12.5781ZM91.9551 10.7969C91.903 10.224 91.6712 9.77865 91.2598 9.46094C90.8535 9.13802 90.2728 8.97656 89.5176 8.97656C89.0176 8.97656 88.6009 9.04167 88.2676 9.17187C87.9342 9.30208 87.6842 9.48177 87.5176 9.71094C87.3509 9.9349 87.265 10.1927 87.2598 10.4844C87.2493 10.724 87.2962 10.9349 87.4004 11.1172C87.5098 11.2995 87.666 11.4609 87.8691 11.6016C88.0775 11.737 88.3275 11.8568 88.6191 11.9609C88.9108 12.0651 89.2389 12.1562 89.6035 12.2344L90.9785 12.5469C91.7702 12.7188 92.4681 12.9479 93.0723 13.2344C93.6816 13.5208 94.1921 13.862 94.6035 14.2578C95.0202 14.6536 95.3353 15.1094 95.5488 15.625C95.7624 16.1406 95.8717 16.7187 95.877 17.3594C95.8717 18.3698 95.6165 19.237 95.1113 19.9609C94.6061 20.6849 93.8796 21.2396 92.9316 21.625C91.9889 22.0104 90.8509 22.2031 89.5176 22.2031C88.179 22.2031 87.0124 22.0026 86.0176 21.6016C85.0228 21.2005 84.2493 20.5911 83.6973 19.7734C83.1452 18.9557 82.8613 17.9219 82.8457 16.6719H86.5488C86.5801 17.1875 86.7181 17.6172 86.9629 17.9609C87.2077 18.3047 87.5436 18.5651 87.9707 18.7422C88.403 18.9193 88.903 19.0078 89.4707 19.0078C89.9915 19.0078 90.4342 18.9375 90.7988 18.7969C91.1686 18.6563 91.4525 18.4609 91.6504 18.2109C91.8483 17.9609 91.9499 17.6745 91.9551 17.3516C91.9499 17.0495 91.8561 16.7917 91.6738 16.5781C91.4915 16.3594 91.2103 16.1719 90.8301 16.0156C90.4551 15.8542 89.9759 15.7057 89.3926 15.5703L87.7207 15.1797C86.3353 14.862 85.2441 14.349 84.4473 13.6406C83.6504 12.9271 83.2546 11.9635 83.2598 10.75C83.2546 9.76042 83.5202 8.89323 84.0566 8.14844C84.5931 7.40365 85.3353 6.82292 86.2832 6.40625C87.2311 5.98958 88.3118 5.78125 89.5254 5.78125C90.765 5.78125 91.8405 5.99219 92.752 6.41406C93.6686 6.83073 94.3796 7.41667 94.8848 8.17188C95.39 8.92708 95.6478 9.80208 95.6582 10.7969H91.9551ZM112.354 11.7969H108.447C108.395 11.3958 108.288 11.0339 108.127 10.7109C107.965 10.388 107.752 10.112 107.486 9.88281C107.221 9.65365 106.906 9.47917 106.541 9.35937C106.182 9.23437 105.783 9.17187 105.346 9.17187C104.57 9.17187 103.9 9.36198 103.338 9.74219C102.781 10.1224 102.351 10.6719 102.049 11.3906C101.752 12.1094 101.604 12.9792 101.604 14C101.604 15.0625 101.755 15.9531 102.057 16.6719C102.364 17.3854 102.794 17.9245 103.346 18.2891C103.903 18.6484 104.562 18.8281 105.322 18.8281C105.749 18.8281 106.137 18.7734 106.486 18.6641C106.84 18.5547 107.15 18.3958 107.416 18.1875C107.687 17.974 107.908 17.7161 108.08 17.4141C108.257 17.1068 108.38 16.7604 108.447 16.375L112.354 16.3984C112.286 17.1068 112.08 17.8047 111.736 18.4922C111.398 19.1797 110.932 19.8073 110.338 20.375C109.744 20.9375 109.02 21.3854 108.166 21.7187C107.317 22.0521 106.343 22.2187 105.244 22.2187C103.796 22.2187 102.499 21.901 101.354 21.2656C100.213 20.625 99.3118 19.6927 98.6504 18.4687C97.9889 17.2448 97.6582 15.7552 97.6582 14C97.6582 12.2396 97.9941 10.7474 98.666 9.52344C99.3379 8.29948 100.247 7.36979 101.393 6.73437C102.538 6.09896 103.822 5.78125 105.244 5.78125C106.213 5.78125 107.109 5.91667 107.932 6.1875C108.755 6.45312 109.479 6.84375 110.104 7.35937C110.729 7.86979 111.236 8.4974 111.627 9.24219C112.018 9.98698 112.26 10.8385 112.354 11.7969ZM114.566 22V6H121.176C122.374 6 123.408 6.21615 124.277 6.64844C125.152 7.07552 125.827 7.6901 126.301 8.49219C126.775 9.28906 127.012 10.2344 127.012 11.3281C127.012 12.4375 126.77 13.3802 126.285 14.1562C125.801 14.9271 125.113 15.5156 124.223 15.9219C123.332 16.3229 122.277 16.5234 121.059 16.5234H116.879V13.4766H120.34C120.923 13.4766 121.41 13.401 121.801 13.25C122.197 13.0937 122.496 12.8594 122.699 12.5469C122.902 12.2292 123.004 11.8229 123.004 11.3281C123.004 10.8333 122.902 10.4245 122.699 10.1016C122.496 9.77344 122.197 9.52865 121.801 9.36719C121.405 9.20052 120.918 9.11719 120.34 9.11719H118.434V22H114.566ZM123.574 14.6875L127.559 22H123.34L119.434 14.6875H123.574ZM133 6V22H129.133V6H133ZM135.428 22V6H142.037C143.235 6 144.269 6.23437 145.139 6.70312C146.014 7.16667 146.688 7.8151 147.162 8.64844C147.636 9.47656 147.873 10.4401 147.873 11.5391C147.873 12.6432 147.631 13.6094 147.146 14.4375C146.667 15.2604 145.982 15.8984 145.092 16.3516C144.201 16.8047 143.144 17.0312 141.92 17.0312H137.842V13.9844H141.201C141.785 13.9844 142.271 13.8828 142.662 13.6797C143.058 13.4766 143.357 13.1927 143.561 12.8281C143.764 12.4583 143.865 12.0286 143.865 11.5391C143.865 11.0443 143.764 10.6172 143.561 10.2578C143.357 9.89323 143.058 9.61198 142.662 9.41406C142.266 9.21615 141.779 9.11719 141.201 9.11719H139.295V22H135.428ZM149.256 9.14062V6H162.779V9.14062H157.928V22H154.115V9.14062H149.256ZM168.535 6V22H164.668V6H168.535ZM186.064 14C186.064 15.7604 185.726 17.2526 185.049 18.4766C184.372 19.7005 183.455 20.6302 182.299 21.2656C181.148 21.901 179.856 22.2187 178.424 22.2187C176.986 22.2187 175.692 21.8984 174.541 21.2578C173.39 20.6172 172.476 19.6875 171.799 18.4687C171.127 17.2448 170.791 15.7552 170.791 14C170.791 12.2396 171.127 10.7474 171.799 9.52344C172.476 8.29948 173.39 7.36979 174.541 6.73437C175.692 6.09896 176.986 5.78125 178.424 5.78125C179.856 5.78125 181.148 6.09896 182.299 6.73437C183.455 7.36979 184.372 8.29948 185.049 9.52344C185.726 10.7474 186.064 12.2396 186.064 14ZM182.111 14C182.111 12.9583 181.963 12.0781 181.666 11.3594C181.374 10.6406 180.952 10.0964 180.4 9.72656C179.854 9.35677 179.195 9.17187 178.424 9.17187C177.658 9.17187 176.999 9.35677 176.447 9.72656C175.895 10.0964 175.471 10.6406 175.174 11.3594C174.882 12.0781 174.736 12.9583 174.736 14C174.736 15.0417 174.882 15.9219 175.174 16.6406C175.471 17.3594 175.895 17.9036 176.447 18.2734C176.999 18.6432 177.658 18.8281 178.424 18.8281C179.195 18.8281 179.854 18.6432 180.4 18.2734C180.952 17.9036 181.374 17.3594 181.666 16.6406C181.963 15.9219 182.111 15.0417 182.111 14ZM201.939 6V22H198.658L192.291 12.7656H192.189V22H188.322V6H191.65L197.947 15.2187H198.08V6H201.939ZM213.02 10.7969C212.967 10.224 212.736 9.77865 212.324 9.46094C211.918 9.13802 211.337 8.97656 210.582 8.97656C210.082 8.97656 209.665 9.04167 209.332 9.17187C208.999 9.30208 208.749 9.48177 208.582 9.71094C208.415 9.9349 208.329 10.1927 208.324 10.4844C208.314 10.724 208.361 10.9349 208.465 11.1172C208.574 11.2995 208.73 11.4609 208.934 11.6016C209.142 11.737 209.392 11.8568 209.684 11.9609C209.975 12.0651 210.303 12.1562 210.668 12.2344L212.043 12.5469C212.835 12.7188 213.533 12.9479 214.137 13.2344C214.746 13.5208 215.257 13.862 215.668 14.2578C216.085 14.6536 216.4 15.1094 216.613 15.625C216.827 16.1406 216.936 16.7187 216.941 17.3594C216.936 18.3698 216.681 19.237 216.176 19.9609C215.671 20.6849 214.944 21.2396 213.996 21.625C213.053 22.0104 211.915 22.2031 210.582 22.2031C209.243 22.2031 208.077 22.0026 207.082 21.6016C206.087 21.2005 205.314 20.5911 204.762 19.7734C204.21 18.9557 203.926 17.9219 203.91 16.6719H207.613C207.645 17.1875 207.783 17.6172 208.027 17.9609C208.272 18.3047 208.608 18.5651 209.035 18.7422C209.467 18.9193 209.967 19.0078 210.535 19.0078C211.056 19.0078 211.499 18.9375 211.863 18.7969C212.233 18.6563 212.517 18.4609 212.715 18.2109C212.913 17.9609 213.014 17.6745 213.02 17.3516C213.014 17.0495 212.921 16.7917 212.738 16.5781C212.556 16.3594 212.275 16.1719 211.895 16.0156C211.52 15.8542 211.04 15.7057 210.457 15.5703L208.785 15.1797C207.4 14.862 206.309 14.349 205.512 13.6406C204.715 12.9271 204.319 11.9635 204.324 10.75C204.319 9.76042 204.585 8.89323 205.121 8.14844C205.658 7.40365 206.4 6.82292 207.348 6.40625C208.296 5.98958 209.376 5.78125 210.59 5.78125C211.829 5.78125 212.905 5.99219 213.816 6.41406C214.733 6.83073 215.444 7.41667 215.949 8.17188C216.454 8.92708 216.712 9.80208 216.723 10.7969H213.02Z" fill="url(#paint0_linear_1005_2475)"/>
<defs>
<linearGradient id="paint0_linear_1005_2475" x1="37" y1="2.67544" x2="56.8548" y2="-52.3052" gradientUnits="userSpaceOnUse">
<stop stop-color="#603DEB"/>
<stop offset="1" stop-color="#27C1D6"/>
</linearGradient>
</defs>
</svg>
