<svg width="206" height="33" viewBox="0 0 206 33" fill="none" xmlns="http://www.w3.org/2000/svg">
<path d="M39 29.1726V20.4453H40.0057V23.6669H40.0909C40.1648 23.5533 40.267 23.4084 40.3977 23.2322C40.5312 23.0533 40.7216 22.8942 40.9688 22.755C41.2188 22.6129 41.5568 22.5419 41.983 22.5419C42.5341 22.5419 43.0199 22.6797 43.4403 22.9553C43.8608 23.2308 44.1889 23.6214 44.4247 24.1271C44.6605 24.6328 44.7784 25.2294 44.7784 25.9169C44.7784 26.6101 44.6605 27.2109 44.4247 27.7195C44.1889 28.2251 43.8622 28.6172 43.4446 28.8956C43.027 29.1712 42.5455 29.3089 42 29.3089C41.5795 29.3089 41.2429 29.2393 40.9901 29.1001C40.7372 28.9581 40.5426 28.7976 40.4062 28.6186C40.2699 28.4368 40.1648 28.2862 40.0909 28.1669H39.9716V29.1726H39ZM39.9886 25.8999C39.9886 26.3942 40.0611 26.8303 40.206 27.2081C40.3509 27.5831 40.5625 27.8771 40.8409 28.0902C41.1193 28.3004 41.4602 28.4055 41.8636 28.4055C42.2841 28.4055 42.6349 28.2947 42.9162 28.0732C43.2003 27.8487 43.4134 27.5476 43.5554 27.1697C43.7003 26.7891 43.7727 26.3658 43.7727 25.8999C43.7727 25.4396 43.7017 25.0249 43.5597 24.6555C43.4205 24.2834 43.2088 23.9893 42.9247 23.7734C42.6435 23.5547 42.2898 23.4453 41.8636 23.4453C41.4545 23.4453 41.1108 23.549 40.8324 23.7564C40.554 23.9609 40.3438 24.2479 40.2017 24.6172C40.0597 24.9837 39.9886 25.4112 39.9886 25.8999Z" fill="black"/>
<path d="M46.7301 31.6271C46.5597 31.6271 46.4077 31.6129 46.2741 31.5845C46.1406 31.5589 46.0483 31.5334 45.9972 31.5078L46.2528 30.6214C46.4972 30.6839 46.7131 30.7067 46.9006 30.6896C47.0881 30.6726 47.2543 30.5888 47.3991 30.4382C47.5469 30.2905 47.6818 30.0504 47.804 29.718L47.9915 29.2067L45.571 22.6271H46.6619L48.4688 27.843H48.5369L50.3438 22.6271H51.4347L48.6562 30.1271C48.5312 30.4652 48.3764 30.745 48.1918 30.9666C48.0071 31.1911 47.7926 31.3572 47.5483 31.4652C47.3068 31.5732 47.0341 31.6271 46.7301 31.6271Z" fill="black"/>
<path d="M62.0007 20.4453H63.0575V26.2237C63.0575 26.8203 62.9169 27.353 62.6357 27.8217C62.3572 28.2876 61.9638 28.6555 61.4553 28.9254C60.9467 29.1925 60.3501 29.326 59.6655 29.326C58.9808 29.326 58.3842 29.1925 57.8757 28.9254C57.3672 28.6555 56.9723 28.2876 56.6911 27.8217C56.4126 27.353 56.2734 26.8203 56.2734 26.2237V20.4453H57.3303V26.1385C57.3303 26.5646 57.424 26.9439 57.6115 27.2763C57.799 27.6058 58.0661 27.8658 58.4126 28.0561C58.7621 28.2436 59.1797 28.3374 59.6655 28.3374C60.1513 28.3374 60.5689 28.2436 60.9183 28.0561C61.2678 27.8658 61.5348 27.6058 61.7195 27.2763C61.907 26.9439 62.0007 26.5646 62.0007 26.1385V20.4453Z" fill="black"/>
<path d="M66.0373 25.2351V29.1726H65.0316V22.6271H66.0032V23.6499H66.0884C66.2418 23.3175 66.4748 23.0504 66.7873 22.8487C67.0998 22.6442 67.5032 22.5419 67.9975 22.5419C68.4407 22.5419 68.8285 22.6328 69.1609 22.8146C69.4933 22.9936 69.7518 23.2663 69.9364 23.6328C70.1211 23.9964 70.2134 24.4567 70.2134 25.0135V29.1726H69.2077V25.0817C69.2077 24.5675 69.0742 24.1669 68.8072 23.88C68.5401 23.5902 68.1737 23.4453 67.7077 23.4453C67.3867 23.4453 67.0998 23.5149 66.8469 23.6541C66.5969 23.7933 66.3995 23.9964 66.2546 24.2635C66.1097 24.5305 66.0373 24.8544 66.0373 25.2351Z" fill="black"/>
<path d="M73.0568 20.4453V29.1726H72.0511V20.4453H73.0568Z" fill="black"/>
<path d="M77.5579 29.3089C76.967 29.3089 76.4485 29.1683 76.0025 28.8871C75.5593 28.6058 75.2127 28.2124 74.9627 27.7067C74.7156 27.201 74.592 26.6101 74.592 25.9339C74.592 25.2521 74.7156 24.657 74.9627 24.1484C75.2127 23.6399 75.5593 23.245 76.0025 22.9638C76.4485 22.6825 76.967 22.5419 77.5579 22.5419C78.1488 22.5419 78.6658 22.6825 79.109 22.9638C79.555 23.245 79.9016 23.6399 80.1488 24.1484C80.3988 24.657 80.5238 25.2521 80.5238 25.9339C80.5238 26.6101 80.3988 27.201 80.1488 27.7067C79.9016 28.2124 79.555 28.6058 79.109 28.8871C78.6658 29.1683 78.1488 29.3089 77.5579 29.3089ZM77.5579 28.4055C78.0067 28.4055 78.3761 28.2905 78.6658 28.0604C78.9556 27.8303 79.1701 27.5277 79.3093 27.1527C79.4485 26.7777 79.5181 26.3714 79.5181 25.9339C79.5181 25.4964 79.4485 25.0888 79.3093 24.7109C79.1701 24.3331 78.9556 24.0277 78.6658 23.7947C78.3761 23.5618 78.0067 23.4453 77.5579 23.4453C77.109 23.4453 76.7397 23.5618 76.4499 23.7947C76.1602 24.0277 75.9457 24.3331 75.8065 24.7109C75.6673 25.0888 75.5977 25.4964 75.5977 25.9339C75.5977 26.3714 75.6673 26.7777 75.8065 27.1527C75.9457 27.5277 76.1602 27.8303 76.4499 28.0604C76.7397 28.2905 77.109 28.4055 77.5579 28.4055Z" fill="black"/>
<path d="M84.718 29.3089C84.1044 29.3089 83.576 29.1641 83.1328 28.8743C82.6896 28.5845 82.3487 28.1854 82.1101 27.6768C81.8714 27.1683 81.7521 26.5874 81.7521 25.9339C81.7521 25.2692 81.8743 24.6825 82.1186 24.174C82.3658 23.6626 82.7095 23.2635 83.1499 22.9766C83.593 22.6868 84.1101 22.5419 84.701 22.5419C85.1612 22.5419 85.576 22.6271 85.9453 22.7976C86.3146 22.968 86.6172 23.2067 86.853 23.5135C87.0888 23.8203 87.2351 24.1783 87.2919 24.5874H86.2862C86.2095 24.2891 86.0391 24.0249 85.7749 23.7947C85.5135 23.5618 85.1612 23.4453 84.718 23.4453C84.326 23.4453 83.9822 23.5476 83.6868 23.7521C83.3942 23.9538 83.1655 24.2393 83.0007 24.6087C82.8388 24.9751 82.7578 25.4055 82.7578 25.8999C82.7578 26.4055 82.8374 26.8459 82.9964 27.2209C83.1584 27.5959 83.3857 27.8871 83.6783 28.0945C83.9737 28.3018 84.3203 28.4055 84.718 28.4055C84.9794 28.4055 85.2166 28.3601 85.4297 28.2692C85.6428 28.1783 85.8232 28.0476 85.9709 27.8771C86.1186 27.7067 86.2237 27.5021 86.2862 27.2635H87.2919C87.2351 27.6499 87.0945 27.9979 86.87 28.3075C86.6484 28.6143 86.3544 28.8587 85.9879 29.0405C85.6243 29.2195 85.201 29.3089 84.718 29.3089Z" fill="black"/>
<path d="M89.6996 26.7862L89.6825 25.5419H89.8871L92.7507 22.6271H93.995L90.9439 25.7124H90.8587L89.6996 26.7862ZM88.7621 29.1726V20.4453H89.7678V29.1726H88.7621ZM92.9212 29.1726L90.3643 25.9339L91.0803 25.2351L94.1996 29.1726H92.9212Z" fill="black"/>
<path d="M98.8008 29.1726V20.4453H99.8576V28.2351H103.914V29.1726H98.8008Z" fill="black"/>
<path d="M107.341 29.326C106.926 29.326 106.549 29.2479 106.211 29.0916C105.873 28.9325 105.605 28.7038 105.406 28.4055C105.207 28.1044 105.108 27.7408 105.108 27.3146C105.108 26.9396 105.181 26.6357 105.329 26.4027C105.477 26.1669 105.674 25.9822 105.922 25.8487C106.169 25.7152 106.441 25.6158 106.74 25.5504C107.041 25.4822 107.343 25.4283 107.647 25.3885C108.045 25.3374 108.368 25.299 108.615 25.2734C108.865 25.245 109.047 25.1982 109.16 25.1328C109.277 25.0675 109.335 24.9538 109.335 24.7919V24.7578C109.335 24.3374 109.22 24.0107 108.99 23.7777C108.762 23.5447 108.417 23.4283 107.954 23.4283C107.474 23.4283 107.098 23.5334 106.825 23.7436C106.552 23.9538 106.36 24.1783 106.25 24.4169L105.295 24.076C105.466 23.6783 105.693 23.3686 105.977 23.147C106.264 22.9226 106.576 22.7663 106.914 22.6783C107.255 22.5874 107.591 22.5419 107.92 22.5419C108.13 22.5419 108.372 22.5675 108.645 22.6186C108.92 22.6669 109.186 22.7678 109.441 22.9212C109.7 23.0746 109.914 23.3061 110.085 23.6158C110.255 23.9254 110.341 24.3402 110.341 24.8601V29.1726H109.335V28.2862H109.284C109.216 28.4283 109.102 28.5803 108.943 28.7422C108.784 28.9041 108.572 29.0419 108.308 29.1555C108.044 29.2692 107.721 29.326 107.341 29.326ZM107.494 28.4226C107.892 28.4226 108.227 28.3445 108.5 28.1882C108.775 28.032 108.983 27.8303 109.122 27.5831C109.264 27.3359 109.335 27.076 109.335 26.8033V25.8828C109.292 25.9339 109.199 25.9808 109.054 26.0234C108.912 26.0632 108.747 26.0987 108.559 26.13C108.375 26.1584 108.194 26.1839 108.018 26.2067C107.845 26.2266 107.704 26.2436 107.596 26.2578C107.335 26.2919 107.091 26.3473 106.863 26.424C106.639 26.4979 106.457 26.6101 106.318 26.7607C106.181 26.9084 106.113 27.1101 106.113 27.3658C106.113 27.7152 106.243 27.9794 106.501 28.1584C106.762 28.3345 107.093 28.4226 107.494 28.4226Z" fill="black"/>
<path d="M112.312 29.1726V20.4453H113.318V23.6669H113.403C113.477 23.5533 113.58 23.4084 113.71 23.2322C113.844 23.0533 114.034 22.8942 114.281 22.755C114.531 22.6129 114.869 22.5419 115.295 22.5419C115.847 22.5419 116.332 22.6797 116.753 22.9553C117.173 23.2308 117.501 23.6214 117.737 24.1271C117.973 24.6328 118.091 25.2294 118.091 25.9169C118.091 26.6101 117.973 27.2109 117.737 27.7195C117.501 28.2251 117.175 28.6172 116.757 28.8956C116.339 29.1712 115.858 29.3089 115.312 29.3089C114.892 29.3089 114.555 29.2393 114.303 29.1001C114.05 28.9581 113.855 28.7976 113.719 28.6186C113.582 28.4368 113.477 28.2862 113.403 28.1669H113.284V29.1726H112.312ZM113.301 25.8999C113.301 26.3942 113.374 26.8303 113.518 27.2081C113.663 27.5831 113.875 27.8771 114.153 28.0902C114.432 28.3004 114.773 28.4055 115.176 28.4055C115.597 28.4055 115.947 28.2947 116.229 28.0732C116.513 27.8487 116.726 27.5476 116.868 27.1697C117.013 26.7891 117.085 26.3658 117.085 25.8999C117.085 25.4396 117.014 25.0249 116.872 24.6555C116.733 24.2834 116.521 23.9893 116.237 23.7734C115.956 23.5547 115.602 23.4453 115.176 23.4453C114.767 23.4453 114.423 23.549 114.145 23.7564C113.866 23.9609 113.656 24.2479 113.514 24.6172C113.372 24.9837 113.301 25.4112 113.301 25.8999Z" fill="black"/>
<path d="M124.266 24.093L123.362 24.3487C123.305 24.1982 123.222 24.0518 123.111 23.9098C123.003 23.7649 122.855 23.6456 122.668 23.5518C122.48 23.4581 122.24 23.4112 121.947 23.4112C121.547 23.4112 121.213 23.5036 120.946 23.6882C120.682 23.87 120.55 24.1016 120.55 24.3828C120.55 24.6328 120.641 24.8303 120.822 24.9751C121.004 25.12 121.288 25.2408 121.675 25.3374L122.646 25.576C123.232 25.718 123.668 25.9354 123.955 26.228C124.241 26.5178 124.385 26.8913 124.385 27.3487C124.385 27.7237 124.277 28.0589 124.061 28.3544C123.848 28.6499 123.55 28.8828 123.166 29.0533C122.783 29.2237 122.337 29.3089 121.828 29.3089C121.161 29.3089 120.608 29.1641 120.17 28.8743C119.733 28.5845 119.456 28.1612 119.339 27.6044L120.294 27.3658C120.385 27.718 120.557 27.9822 120.81 28.1584C121.065 28.3345 121.399 28.4226 121.811 28.4226C122.28 28.4226 122.652 28.3232 122.928 28.1243C123.206 27.9226 123.345 27.6811 123.345 27.3999C123.345 27.1726 123.266 26.9822 123.107 26.8288C122.947 26.6726 122.703 26.5561 122.374 26.4794L121.283 26.2237C120.683 26.0817 120.243 25.8615 119.962 25.5632C119.683 25.2621 119.544 24.8857 119.544 24.4339C119.544 24.0646 119.648 23.7379 119.855 23.4538C120.065 23.1697 120.351 22.9467 120.712 22.7848C121.075 22.6229 121.487 22.5419 121.947 22.5419C122.595 22.5419 123.104 22.6839 123.473 22.968C123.845 23.2521 124.109 23.6271 124.266 24.093Z" fill="black"/>
<path d="M53.3823 5.82031H49.9604C49.8979 5.3776 49.7703 4.98437 49.5776 4.64062C49.3849 4.29167 49.1375 3.99479 48.8354 3.75C48.5334 3.50521 48.1844 3.31771 47.7886 3.1875C47.3979 3.05729 46.9735 2.99219 46.5151 2.99219C45.687 2.99219 44.9657 3.19792 44.3511 3.60938C43.7365 4.01562 43.2599 4.60938 42.9214 5.39063C42.5828 6.16667 42.4136 7.10938 42.4136 8.21875C42.4136 9.35938 42.5828 10.3177 42.9214 11.0938C43.2651 11.8698 43.7443 12.4557 44.3589 12.8516C44.9735 13.2474 45.6844 13.4453 46.4917 13.4453C46.9448 13.4453 47.3641 13.3854 47.7495 13.2656C48.1401 13.1458 48.4865 12.9714 48.7886 12.7422C49.0907 12.5078 49.3407 12.224 49.5386 11.8906C49.7417 11.5573 49.8823 11.1771 49.9604 10.75L53.3823 10.7656C53.2938 11.5 53.0724 12.2083 52.7183 12.8906C52.3693 13.5677 51.898 14.1745 51.3042 14.7109C50.7157 15.2422 50.0125 15.6641 49.1948 15.9766C48.3823 16.2839 47.4631 16.4375 46.437 16.4375C45.0099 16.4375 43.7339 16.1146 42.6089 15.4688C41.4891 14.8229 40.6037 13.888 39.9526 12.6641C39.3068 11.4401 38.9839 9.95833 38.9839 8.21875C38.9839 6.47396 39.312 4.98958 39.9683 3.76563C40.6245 2.54167 41.5151 1.60938 42.6401 0.96875C43.7651 0.322917 45.0308 0 46.437 0C47.3641 0 48.2235 0.130208 49.0151 0.390625C49.812 0.651042 50.5177 1.03125 51.1323 1.53125C51.7469 2.02604 52.2469 2.63281 52.6323 3.35156C53.023 4.07031 53.2729 4.89323 53.3823 5.82031Z" fill="url(#paint0_linear_14_3758)"/>
<path d="M55.8081 16.2188V0.21875H66.5894V3.00781H59.1909V6.82031H66.0347V9.60938H59.1909V13.4297H66.6206V16.2188H55.8081Z" fill="url(#paint1_linear_14_3758)"/>
<path d="M69.2788 16.2188V0.21875H75.5913C76.7996 0.21875 77.8309 0.434896 78.6851 0.867188C79.5444 1.29427 80.1981 1.90104 80.646 2.6875C81.0991 3.46875 81.3257 4.38802 81.3257 5.44531C81.3257 6.50781 81.0965 7.42188 80.6382 8.1875C80.1799 8.94792 79.5158 9.53125 78.646 9.9375C77.7814 10.3438 76.7345 10.5469 75.5054 10.5469H71.2788V7.82813H74.9585C75.6043 7.82813 76.1408 7.73958 76.5679 7.5625C76.995 7.38542 77.3127 7.11979 77.521 6.76563C77.7345 6.41146 77.8413 5.97135 77.8413 5.44531C77.8413 4.91406 77.7345 4.46615 77.521 4.10156C77.3127 3.73698 76.9924 3.46094 76.5601 3.27344C76.133 3.08073 75.5939 2.98438 74.9429 2.98438H72.6616V16.2188H69.2788ZM77.9194 8.9375L81.896 16.2188H78.1616L74.271 8.9375H77.9194Z" fill="url(#paint2_linear_14_3758)"/>
<path d="M83.1069 3.00781V0.21875H96.2476V3.00781H91.3491V16.2188H88.0054V3.00781H83.1069Z" fill="url(#paint3_linear_14_3758)"/>
<path d="M101.794 0.21875V16.2188H98.4116V0.21875H101.794Z" fill="url(#paint4_linear_14_3758)"/>
<path d="M104.578 16.2188V0.21875H115.171V3.00781H107.96V6.82031H114.468V9.60938H107.96V16.2188H104.578Z" fill="url(#paint5_linear_14_3758)"/>
<path d="M120.83 0.21875V16.2188H117.447V0.21875H120.83Z" fill="url(#paint6_linear_14_3758)"/>
<path d="M137.73 5.82031H134.308C134.246 5.3776 134.118 4.98437 133.925 4.64062C133.733 4.29167 133.485 3.99479 133.183 3.75C132.881 3.50521 132.532 3.31771 132.136 3.1875C131.746 3.05729 131.321 2.99219 130.863 2.99219C130.035 2.99219 129.313 3.19792 128.699 3.60938C128.084 4.01562 127.608 4.60938 127.269 5.39063C126.931 6.16667 126.761 7.10938 126.761 8.21875C126.761 9.35938 126.931 10.3177 127.269 11.0938C127.613 11.8698 128.092 12.4557 128.707 12.8516C129.321 13.2474 130.032 13.4453 130.839 13.4453C131.292 13.4453 131.712 13.3854 132.097 13.2656C132.488 13.1458 132.834 12.9714 133.136 12.7422C133.438 12.5078 133.688 12.224 133.886 11.8906C134.089 11.5573 134.23 11.1771 134.308 10.75L137.73 10.7656C137.641 11.5 137.42 12.2083 137.066 12.8906C136.717 13.5677 136.246 14.1745 135.652 14.7109C135.063 15.2422 134.36 15.6641 133.542 15.9766C132.73 16.2839 131.811 16.4375 130.785 16.4375C129.358 16.4375 128.082 16.1146 126.957 15.4688C125.837 14.8229 124.951 13.888 124.3 12.6641C123.654 11.4401 123.332 9.95833 123.332 8.21875C123.332 6.47396 123.66 4.98958 124.316 3.76563C124.972 2.54167 125.863 1.60938 126.988 0.96875C128.113 0.322917 129.378 0 130.785 0C131.712 0 132.571 0.130208 133.363 0.390625C134.16 0.651042 134.865 1.03125 135.48 1.53125C136.095 2.02604 136.595 2.63281 136.98 3.35156C137.371 4.07031 137.621 4.89323 137.73 5.82031Z" fill="url(#paint7_linear_14_3758)"/>
<path d="M142.613 16.2188H138.988L144.511 0.21875H148.871L154.386 16.2188H150.761L146.753 3.875H146.628L142.613 16.2188ZM142.386 9.92969H150.949V12.5703H142.386V9.92969Z" fill="url(#paint8_linear_14_3758)"/>
<path d="M153.748 3.00781V0.21875H166.888V3.00781H161.99V16.2188H158.646V3.00781H153.748Z" fill="url(#paint9_linear_14_3758)"/>
<path d="M172.435 0.21875V16.2188H169.052V0.21875H172.435Z" fill="url(#paint10_linear_14_3758)"/>
<path d="M189.921 8.21875C189.921 9.96354 189.591 11.4479 188.929 12.6719C188.273 13.8958 187.377 14.8307 186.242 15.4766C185.111 16.1172 183.841 16.4375 182.429 16.4375C181.007 16.4375 179.731 16.1146 178.601 15.4688C177.471 14.8229 176.578 13.888 175.921 12.6641C175.265 11.4401 174.937 9.95833 174.937 8.21875C174.937 6.47396 175.265 4.98958 175.921 3.76563C176.578 2.54167 177.471 1.60938 178.601 0.96875C179.731 0.322917 181.007 0 182.429 0C183.841 0 185.111 0.322917 186.242 0.96875C187.377 1.60938 188.273 2.54167 188.929 3.76563C189.591 4.98958 189.921 6.47396 189.921 8.21875ZM186.492 8.21875C186.492 7.08854 186.322 6.13542 185.984 5.35938C185.651 4.58333 185.179 3.99479 184.57 3.59375C183.96 3.19271 183.247 2.99219 182.429 2.99219C181.611 2.99219 180.898 3.19271 180.289 3.59375C179.679 3.99479 179.205 4.58333 178.867 5.35938C178.533 6.13542 178.367 7.08854 178.367 8.21875C178.367 9.34896 178.533 10.3021 178.867 11.0781C179.205 11.8542 179.679 12.4427 180.289 12.8438C180.898 13.2448 181.611 13.4453 182.429 13.4453C183.247 13.4453 183.96 13.2448 184.57 12.8438C185.179 12.4427 185.651 11.8542 185.984 11.0781C186.322 10.3021 186.492 9.34896 186.492 8.21875Z" fill="url(#paint11_linear_14_3758)"/>
<path d="M205.81 0.21875V16.2188H202.888L195.927 6.14844H195.81V16.2188H192.427V0.21875H195.396L202.302 10.2812H202.443V0.21875H205.81Z" fill="url(#paint12_linear_14_3758)"/>
<path d="M33.0159 11.8962V15.2824H0V11.8962H33.0159ZM23.6575 0.21875H29.3834V20.8133C29.3834 23.0708 28.8498 25.0563 27.7826 26.77C26.7154 28.4836 25.2224 29.8227 23.3035 30.7873C21.3846 31.7416 19.1425 32.2187 16.5772 32.2187C14.0119 32.2187 11.7698 31.7416 9.85089 30.7873C7.93202 29.8227 6.43899 28.4836 5.37181 26.77C4.3149 25.0563 3.78644 23.0708 3.78644 20.8133V0.21875H9.49687V20.3361C9.49687 21.6496 9.78419 22.8194 10.3588 23.8455C10.9437 24.8716 11.7646 25.6771 12.8215 26.262C13.8887 26.8367 15.1406 27.124 16.5772 27.124C18.0241 27.124 19.2759 26.8367 20.3329 26.262C21.4 25.6771 22.2209 24.8716 22.7956 23.8455C23.3702 22.8194 23.6575 21.6496 23.6575 20.3361V0.21875Z" fill="#020207"/>
<defs>
<linearGradient id="paint0_linear_14_3758" x1="38.9839" y1="8.79551" x2="137.541" y2="-66.4729" gradientUnits="userSpaceOnUse">
<stop stop-color="#603DEB"/>
<stop offset="1" stop-color="#27C1D6"/>
</linearGradient>
<linearGradient id="paint1_linear_14_3758" x1="38.9839" y1="8.79551" x2="137.541" y2="-66.4729" gradientUnits="userSpaceOnUse">
<stop stop-color="#603DEB"/>
<stop offset="1" stop-color="#27C1D6"/>
</linearGradient>
<linearGradient id="paint2_linear_14_3758" x1="38.9839" y1="8.79551" x2="137.541" y2="-66.4729" gradientUnits="userSpaceOnUse">
<stop stop-color="#603DEB"/>
<stop offset="1" stop-color="#27C1D6"/>
</linearGradient>
<linearGradient id="paint3_linear_14_3758" x1="38.9839" y1="8.79551" x2="137.541" y2="-66.4729" gradientUnits="userSpaceOnUse">
<stop stop-color="#603DEB"/>
<stop offset="1" stop-color="#27C1D6"/>
</linearGradient>
<linearGradient id="paint4_linear_14_3758" x1="38.9839" y1="8.79551" x2="137.541" y2="-66.4729" gradientUnits="userSpaceOnUse">
<stop stop-color="#603DEB"/>
<stop offset="1" stop-color="#27C1D6"/>
</linearGradient>
<linearGradient id="paint5_linear_14_3758" x1="38.9839" y1="8.79551" x2="137.541" y2="-66.4729" gradientUnits="userSpaceOnUse">
<stop stop-color="#603DEB"/>
<stop offset="1" stop-color="#27C1D6"/>
</linearGradient>
<linearGradient id="paint6_linear_14_3758" x1="38.9839" y1="8.79551" x2="137.541" y2="-66.4729" gradientUnits="userSpaceOnUse">
<stop stop-color="#603DEB"/>
<stop offset="1" stop-color="#27C1D6"/>
</linearGradient>
<linearGradient id="paint7_linear_14_3758" x1="38.9839" y1="8.79551" x2="137.541" y2="-66.4729" gradientUnits="userSpaceOnUse">
<stop stop-color="#603DEB"/>
<stop offset="1" stop-color="#27C1D6"/>
</linearGradient>
<linearGradient id="paint8_linear_14_3758" x1="38.9839" y1="8.79551" x2="137.541" y2="-66.4729" gradientUnits="userSpaceOnUse">
<stop stop-color="#603DEB"/>
<stop offset="1" stop-color="#27C1D6"/>
</linearGradient>
<linearGradient id="paint9_linear_14_3758" x1="38.9839" y1="8.79551" x2="137.541" y2="-66.4729" gradientUnits="userSpaceOnUse">
<stop stop-color="#603DEB"/>
<stop offset="1" stop-color="#27C1D6"/>
</linearGradient>
<linearGradient id="paint10_linear_14_3758" x1="38.9839" y1="8.79551" x2="137.541" y2="-66.4729" gradientUnits="userSpaceOnUse">
<stop stop-color="#603DEB"/>
<stop offset="1" stop-color="#27C1D6"/>
</linearGradient>
<linearGradient id="paint11_linear_14_3758" x1="38.9839" y1="8.79551" x2="137.541" y2="-66.4729" gradientUnits="userSpaceOnUse">
<stop stop-color="#603DEB"/>
<stop offset="1" stop-color="#27C1D6"/>
</linearGradient>
<linearGradient id="paint12_linear_14_3758" x1="38.9839" y1="8.79551" x2="137.541" y2="-66.4729" gradientUnits="userSpaceOnUse">
<stop stop-color="#603DEB"/>
<stop offset="1" stop-color="#27C1D6"/>
</linearGradient>
</defs>
</svg>
