<svg width="120" height="120" viewBox="0 0 120 120" fill="none" xmlns="http://www.w3.org/2000/svg">
<path d="M60 108.75C86.9239 108.75 108.75 86.9239 108.75 60C108.75 33.0761 86.9239 11.25 60 11.25C33.0761 11.25 11.25 33.0761 11.25 60C11.25 86.9239 33.0761 108.75 60 108.75Z" fill="white"/>
<path d="M111 0H9C4.02 0 0 4.02 0 9V111C0 115.98 4.02 120 9 120H111C115.98 120 120 115.98 120 111V9C120 4.02 115.98 0 111 0ZM60 101.82C36.9 101.82 18.18 83.1 18.18 60C18.18 36.9 36.9 18.18 60 18.18C83.1 18.18 101.82 36.9 101.82 60C101.82 83.1 83.1 101.82 60 101.82ZM72.09 46.71H47.91C47.25 46.71 46.71 47.25 46.71 47.91V72.09C46.71 72.75 47.25 73.29 47.91 73.29H72.09C72.75 73.29 73.29 72.75 73.29 72.09V47.91C73.29 47.25 72.75 46.71 72.09 46.71Z" fill="url(#paint0_linear)"/>
<defs>
<linearGradient id="paint0_linear" x1="60" y1="8.04546" x2="60" y2="113.754" gradientUnits="userSpaceOnUse">
<stop offset="0.00216293" stop-color="#2E66F9"/>
<stop offset="1" stop-color="#124BDC"/>
</linearGradient>
</defs>
</svg>
