<svg width="16" height="16" viewBox="0 0 16 16" fill="none" xmlns="http://www.w3.org/2000/svg">
<path fill-rule="evenodd" clip-rule="evenodd" d="M8 16C12.4183 16 16 12.4183 16 8C16 3.58172 12.4183 0 8 0C3.58172 0 0 3.58172 0 8C0 12.4183 3.58172 16 8 16Z" fill="#A6A6A6"/>
<path fill-rule="evenodd" clip-rule="evenodd" d="M7.99995 5.6C8.44178 5.6 8.79995 5.24183 8.79995 4.8C8.79995 4.35817 8.44178 4 7.99995 4C7.55812 4 7.19995 4.35817 7.19995 4.8C7.19995 5.24183 7.55812 5.6 7.99995 5.6ZM7.99995 12C8.36814 12 8.66662 11.7015 8.66662 11.3333V7.33333C8.66662 6.96514 8.36814 6.66667 7.99995 6.66667C7.63176 6.66667 7.33328 6.96514 7.33328 7.33333V11.3333C7.33328 11.7015 7.63176 12 7.99995 12Z" fill="white"/>
</svg>
