<svg width="122" height="113" viewBox="0 0 122 113" fill="none" xmlns="http://www.w3.org/2000/svg">
<path d="M115.024 1L68.2001 35.7765L76.8589 15.2588L115.024 1Z" fill="#E2761B" stroke="#E2761B" stroke-linecap="round" stroke-linejoin="round"/>
<path d="M6.9292 1L53.3763 36.1059L45.141 15.2588L6.9292 1Z" fill="#E4761B" stroke="#E4761B" stroke-linecap="round" stroke-linejoin="round"/>
<path d="M98.1763 81.6118L85.7057 100.718L112.388 108.059L120.059 82.0353L98.1763 81.6118Z" fill="#E4761B" stroke="#E4761B" stroke-linecap="round" stroke-linejoin="round"/>
<path d="M1.98804 82.0353L9.61157 108.059L36.2939 100.718L23.8233 81.6118L1.98804 82.0353Z" fill="#E4761B" stroke="#E4761B" stroke-linecap="round" stroke-linejoin="round"/>
<path d="M34.788 49.3294L27.3527 60.5765L53.8468 61.7529L52.9056 33.2823L34.788 49.3294Z" fill="#E4761B" stroke="#E4761B" stroke-linecap="round" stroke-linejoin="round"/>
<path d="M87.1645 49.3295L68.8116 32.953L68.1998 61.753L94.6469 60.5765L87.1645 49.3295Z" fill="#E4761B" stroke="#E4761B" stroke-linecap="round" stroke-linejoin="round"/>
<path d="M36.2938 100.718L52.1997 92.9529L38.4585 82.2235L36.2938 100.718Z" fill="#E4761B" stroke="#E4761B" stroke-linecap="round" stroke-linejoin="round"/>
<path d="M69.7527 92.9529L85.7056 100.718L83.4939 82.2235L69.7527 92.9529Z" fill="#E4761B" stroke="#E4761B" stroke-linecap="round" stroke-linejoin="round"/>
<path d="M85.7059 100.718L69.7529 92.953L71.0235 103.353L70.8823 107.729L85.7059 100.718Z" fill="#D7C1B3" stroke="#D7C1B3" stroke-linecap="round" stroke-linejoin="round"/>
<path d="M36.2941 100.718L51.1176 107.729L51.0235 103.353L52.2 92.953L36.2941 100.718Z" fill="#D7C1B3" stroke="#D7C1B3" stroke-linecap="round" stroke-linejoin="round"/>
<path d="M51.353 75.3529L38.0824 71.447L47.4471 67.1647L51.353 75.3529Z" fill="#233447" stroke="#233447" stroke-linecap="round" stroke-linejoin="round"/>
<path d="M70.6 75.3529L74.5059 67.1647L83.9176 71.447L70.6 75.3529Z" fill="#233447" stroke="#233447" stroke-linecap="round" stroke-linejoin="round"/>
<path d="M36.2941 100.718L38.5529 81.6117L23.8235 82.0352L36.2941 100.718Z" fill="#CD6116" stroke="#CD6116" stroke-linecap="round" stroke-linejoin="round"/>
<path d="M83.447 81.6117L85.7058 100.718L98.1764 82.0352L83.447 81.6117Z" fill="#CD6116" stroke="#CD6116" stroke-linecap="round" stroke-linejoin="round"/>
<path d="M94.6471 60.5764L68.2001 61.7529L70.6471 75.3529L74.553 67.1647L83.9648 71.447L94.6471 60.5764Z" fill="#CD6116" stroke="#CD6116" stroke-linecap="round" stroke-linejoin="round"/>
<path d="M38.0823 71.447L47.4941 67.1647L51.3529 75.3529L53.847 61.7529L27.3529 60.5764L38.0823 71.447Z" fill="#CD6116" stroke="#CD6116" stroke-linecap="round" stroke-linejoin="round"/>
<path d="M27.3529 60.5764L38.4588 82.2235L38.0823 71.447L27.3529 60.5764Z" fill="#E4751F" stroke="#E4751F" stroke-linecap="round" stroke-linejoin="round"/>
<path d="M83.9646 71.447L83.494 82.2235L94.647 60.5764L83.9646 71.447Z" fill="#E4751F" stroke="#E4751F" stroke-linecap="round" stroke-linejoin="round"/>
<path d="M53.8469 61.7529L51.3528 75.3529L54.4587 91.4L55.1645 70.2706L53.8469 61.7529Z" fill="#E4751F" stroke="#E4751F" stroke-linecap="round" stroke-linejoin="round"/>
<path d="M68.1999 61.7529L66.9293 70.2235L67.494 91.4L70.647 75.3529L68.1999 61.7529Z" fill="#E4751F" stroke="#E4751F" stroke-linecap="round" stroke-linejoin="round"/>
<path d="M70.6471 75.3529L67.4941 91.4L69.753 92.9529L83.4941 82.2235L83.9647 71.447L70.6471 75.3529Z" fill="#F6851B" stroke="#F6851B" stroke-linecap="round" stroke-linejoin="round"/>
<path d="M38.0824 71.447L38.4589 82.2235L52.2 92.9529L54.4589 91.4L51.353 75.3529L38.0824 71.447Z" fill="#F6851B" stroke="#F6851B" stroke-linecap="round" stroke-linejoin="round"/>
<path d="M70.8823 107.729L71.0235 103.353L69.847 102.318H52.1058L51.0235 103.353L51.1176 107.729L36.2941 100.718L41.4705 104.953L51.9647 112.247H69.9882L80.5294 104.953L85.7058 100.718L70.8823 107.729Z" fill="#C0AD9E" stroke="#C0AD9E" stroke-linecap="round" stroke-linejoin="round"/>
<path d="M69.753 92.953L67.4941 91.4H54.4588L52.2 92.953L51.0236 103.353L52.1059 102.318H69.8471L71.0236 103.353L69.753 92.953Z" fill="#161616" stroke="#161616" stroke-linecap="round" stroke-linejoin="round"/>
<path d="M117 38.0353L121 18.8353L115.024 1L69.7529 34.6L87.1647 49.3294L111.776 56.5294L117.235 50.1765L114.882 48.4824L118.647 45.0471L115.729 42.7882L119.494 39.9176L117 38.0353Z" fill="#763D16" stroke="#763D16" stroke-linecap="round" stroke-linejoin="round"/>
<path d="M1 18.8353L5 38.0353L2.45882 39.9176L6.22353 42.7882L3.35294 45.0471L7.11765 48.4824L4.76471 50.1765L10.1765 56.5294L34.7882 49.3294L52.2 34.6L6.92941 1L1 18.8353Z" fill="#763D16" stroke="#763D16" stroke-linecap="round" stroke-linejoin="round"/>
<path d="M111.777 56.5293L87.1647 49.3293L94.6471 60.5764L83.4941 82.2235L98.1765 82.0352H120.059L111.777 56.5293Z" fill="#F6851B" stroke="#F6851B" stroke-linecap="round" stroke-linejoin="round"/>
<path d="M34.7882 49.3293L10.1764 56.5293L1.98816 82.0352H23.8235L38.4587 82.2235L27.3529 60.5764L34.7882 49.3293Z" fill="#F6851B" stroke="#F6851B" stroke-linecap="round" stroke-linejoin="round"/>
<path d="M68.2001 61.7529L69.753 34.6L76.9059 15.2588H45.1412L52.2001 34.6L53.8471 61.7529L54.4118 70.3176L54.4589 91.4H67.4942L67.5883 70.3176L68.2001 61.7529Z" fill="#F6851B" stroke="#F6851B" stroke-linecap="round" stroke-linejoin="round"/>
</svg>
