<svg width="311" height="308" viewBox="0 0 311 308" fill="none" xmlns="http://www.w3.org/2000/svg">
<g clip-path="url(#clip0_8422_11398)">
<rect width="311" height="308" fill="#BFB1F7"/>
<path fill-rule="evenodd" clip-rule="evenodd" d="M-47.9538 243.873C-46.4252 239.306 -43.685 233.435 -43.1176 232.03C-41.4088 227.789 -39.8302 223.494 -37.9892 219.308C-35.899 214.555 -33.5264 209.929 -31.3299 205.223C-23.9901 189.483 -15.1091 175.018 -7.53086 159.559C12.9188 117.844 56.9639 57.9278 99.901 35.279C128.878 19.9944 181.985 37.919 190.813 71.071C196.254 91.5061 179.553 109.633 165.213 122.414C160.114 126.959 155.016 131.502 149.917 136.047C148.898 136.956 146.858 138.774 146.858 138.774C146.858 138.774 156.084 130.551 160.701 126.435C168.04 119.894 175.598 114.182 184.588 110.891C206.479 102.874 236.004 123.028 242.631 143.066C253.85 176.993 231.551 201.843 207.268 223.487C160.779 264.922 87.0659 295.761 25.3885 302.733C-6.10637 306.293 -30.019 300.618 -50.9946 277.084C-57.3145 269.993 -49.8737 249.606 -47.9538 243.873Z" fill="#D8F177"/>
</g>
<defs>
<clipPath id="clip0_8422_11398">
<rect width="311" height="308" fill="white"/>
</clipPath>
</defs>
</svg>
