<?xml version="1.0" encoding="utf-8"?>
<svg version="1.1" id="Layer_1" xmlns="http://www.w3.org/2000/svg" xmlns:xlink="http://www.w3.org/1999/xlink" width="32"
	height="32" viewBox="0 0 768.4 759" xml:space="preserve">
	<style type="text/css">
		.st0 {
			fill: #FFFFFF;
			stroke: #000000;
			stroke-miterlimit: 10;
		}

		.st1 {
			fill-rule: evenodd;
			clip-rule: evenodd;
			fill: #4360DF;
		}
	</style>
	<circle class="st0" cx="389.2" cy="379.4" r="278.8" />
	<path class="st1" d="M444.7,375.9c-45.6,2.6-74.2-8-119.8-5.3c-11.3,0.6-22.5,2.3-33.6,4.9c6.7-84.1,66.4-157.7,147.6-162.4
	c49.8-2.9,99.6,27.8,102.3,77.6C543.9,339.6,506.5,372.4,444.7,375.9L444.7,375.9z M322.2,548c-47.7,2.7-95.4-26-98-72.6
	c-2.5-45.8,33.3-76.4,92.5-79.8c43.7-2.5,71.1,7.5,114.7,5c10.8-0.6,21.6-2.1,32.2-4.6C457.2,474.7,400,543.6,322.2,548z M380.5,0
	C170.4,0,0,169.9,0,379.4s170.4,379.4,380.5,379.4S761,589,761,379.4S590.6,0,380.5,0" />
</svg>