<svg width="32" height="32" viewBox="0 0 32 32" fill="none" xmlns="http://www.w3.org/2000/svg">
<path d="M28 12.4886V14.9501H4V12.4886H28ZM21.1972 4H25.3594V18.9706C25.3594 20.6117 24.9716 22.055 24.1958 23.3007C23.42 24.5464 22.3347 25.5198 20.9399 26.221C19.545 26.9147 17.9152 27.2615 16.0504 27.2615C14.1855 27.2615 12.5557 26.9147 11.1608 26.221C9.76597 25.5198 8.68065 24.5464 7.9049 23.3007C7.1366 22.055 6.75245 20.6117 6.75245 18.9706V4H10.9035V18.6238C10.9035 19.5786 11.1124 20.4289 11.5301 21.1748C11.9552 21.9207 12.552 22.5063 13.3203 22.9315C14.096 23.3492 15.0061 23.558 16.0504 23.558C17.1021 23.558 18.0121 23.3492 18.7804 22.9315C19.5562 22.5063 20.1529 21.9207 20.5706 21.1748C20.9883 20.4289 21.1972 19.5786 21.1972 18.6238V4Z" fill="black"/>
</svg>
