<svg width="127" height="34" viewBox="0 0 127 34" fill="none" xmlns="http://www.w3.org/2000/svg">
<path d="M39.0161 17.1094V1.10938H49.7974V3.89844H42.3989V7.71094H49.2427V10.5H42.3989V14.3203H49.8286V17.1094H39.0161Z" fill="black"/>
<path d="M39.0161 17.1094V1.10938H49.7974V3.89844H42.3989V7.71094H49.2427V10.5H42.3989V14.3203H49.8286V17.1094H39.0161Z" fill="url(#paint0_linear_331_6388)"/>
<path d="M55.3774 1.10938L59.2446 13.2656H59.3931L63.2681 1.10938H67.0181L61.5024 17.1094H57.1431L51.6196 1.10938H55.3774Z" fill="black"/>
<path d="M55.3774 1.10938L59.2446 13.2656H59.3931L63.2681 1.10938H67.0181L61.5024 17.1094H57.1431L51.6196 1.10938H55.3774Z" fill="url(#paint1_linear_331_6388)"/>
<path d="M68.9438 17.1094V1.10938H79.7251V3.89844H72.3267V7.71094H79.1704V10.5H72.3267V14.3203H79.7563V17.1094H68.9438Z" fill="black"/>
<path d="M68.9438 17.1094V1.10938H79.7251V3.89844H72.3267V7.71094H79.1704V10.5H72.3267V14.3203H79.7563V17.1094H68.9438Z" fill="url(#paint2_linear_331_6388)"/>
<path d="M95.7974 1.10938V17.1094H92.8755L85.9146 7.03906H85.7974V17.1094H82.4146V1.10938H85.3833L92.2896 11.1719H92.4302V1.10938H95.7974Z" fill="black"/>
<path d="M95.7974 1.10938V17.1094H92.8755L85.9146 7.03906H85.7974V17.1094H82.4146V1.10938H85.3833L92.2896 11.1719H92.4302V1.10938H95.7974Z" fill="url(#paint3_linear_331_6388)"/>
<path d="M97.9829 3.89844V1.10938H111.124V3.89844H106.225V17.1094H102.881V3.89844H97.9829Z" fill="black"/>
<path d="M97.9829 3.89844V1.10938H111.124V3.89844H106.225V17.1094H102.881V3.89844H97.9829Z" fill="url(#paint4_linear_331_6388)"/>
<path d="M121.967 5.71094C121.905 5.08073 121.637 4.59115 121.163 4.24219C120.689 3.89323 120.045 3.71875 119.233 3.71875C118.681 3.71875 118.215 3.79688 117.834 3.95313C117.454 4.10417 117.163 4.3151 116.959 4.58594C116.762 4.85677 116.663 5.16406 116.663 5.50781C116.652 5.79427 116.712 6.04427 116.842 6.25781C116.978 6.47135 117.163 6.65625 117.397 6.8125C117.631 6.96354 117.902 7.09635 118.209 7.21094C118.517 7.32031 118.845 7.41406 119.194 7.49219L120.631 7.83594C121.329 7.99219 121.97 8.20052 122.553 8.46094C123.137 8.72135 123.642 9.04167 124.069 9.42188C124.496 9.80208 124.827 10.25 125.061 10.7656C125.301 11.2812 125.423 11.8724 125.428 12.5391C125.423 13.5182 125.173 14.3672 124.678 15.0859C124.189 15.7995 123.48 16.3542 122.553 16.75C121.631 17.1406 120.519 17.3359 119.217 17.3359C117.926 17.3359 116.801 17.138 115.842 16.7422C114.889 16.3464 114.144 15.7604 113.608 14.9844C113.077 14.2031 112.798 13.237 112.772 12.0859H116.045C116.082 12.6224 116.236 13.0703 116.506 13.4297C116.782 13.7839 117.15 14.0521 117.608 14.2344C118.071 14.4115 118.595 14.5 119.178 14.5C119.751 14.5 120.249 14.4167 120.67 14.25C121.097 14.0833 121.428 13.8516 121.663 13.5547C121.897 13.2578 122.014 12.9167 122.014 12.5312C122.014 12.1719 121.907 11.8698 121.694 11.625C121.486 11.3802 121.178 11.1719 120.772 11C120.371 10.8281 119.879 10.6719 119.295 10.5312L117.553 10.0938C116.204 9.76562 115.139 9.2526 114.358 8.55469C113.577 7.85677 113.189 6.91667 113.194 5.73437C113.189 4.76562 113.446 3.91927 113.967 3.19531C114.493 2.47135 115.215 1.90625 116.131 1.5C117.048 1.09375 118.09 0.890625 119.256 0.890625C120.444 0.890625 121.48 1.09375 122.366 1.5C123.256 1.90625 123.949 2.47135 124.444 3.19531C124.939 3.91927 125.194 4.75781 125.209 5.71094H121.967Z" fill="black"/>
<path d="M121.967 5.71094C121.905 5.08073 121.637 4.59115 121.163 4.24219C120.689 3.89323 120.045 3.71875 119.233 3.71875C118.681 3.71875 118.215 3.79688 117.834 3.95313C117.454 4.10417 117.163 4.3151 116.959 4.58594C116.762 4.85677 116.663 5.16406 116.663 5.50781C116.652 5.79427 116.712 6.04427 116.842 6.25781C116.978 6.47135 117.163 6.65625 117.397 6.8125C117.631 6.96354 117.902 7.09635 118.209 7.21094C118.517 7.32031 118.845 7.41406 119.194 7.49219L120.631 7.83594C121.329 7.99219 121.97 8.20052 122.553 8.46094C123.137 8.72135 123.642 9.04167 124.069 9.42188C124.496 9.80208 124.827 10.25 125.061 10.7656C125.301 11.2812 125.423 11.8724 125.428 12.5391C125.423 13.5182 125.173 14.3672 124.678 15.0859C124.189 15.7995 123.48 16.3542 122.553 16.75C121.631 17.1406 120.519 17.3359 119.217 17.3359C117.926 17.3359 116.801 17.138 115.842 16.7422C114.889 16.3464 114.144 15.7604 113.608 14.9844C113.077 14.2031 112.798 13.237 112.772 12.0859H116.045C116.082 12.6224 116.236 13.0703 116.506 13.4297C116.782 13.7839 117.15 14.0521 117.608 14.2344C118.071 14.4115 118.595 14.5 119.178 14.5C119.751 14.5 120.249 14.4167 120.67 14.25C121.097 14.0833 121.428 13.8516 121.663 13.5547C121.897 13.2578 122.014 12.9167 122.014 12.5312C122.014 12.1719 121.907 11.8698 121.694 11.625C121.486 11.3802 121.178 11.1719 120.772 11C120.371 10.8281 119.879 10.6719 119.295 10.5312L117.553 10.0938C116.204 9.76562 115.139 9.2526 114.358 8.55469C113.577 7.85677 113.189 6.91667 113.194 5.73437C113.189 4.76562 113.446 3.91927 113.967 3.19531C114.493 2.47135 115.215 1.90625 116.131 1.5C117.048 1.09375 118.09 0.890625 119.256 0.890625C120.444 0.890625 121.48 1.09375 122.366 1.5C123.256 1.90625 123.949 2.47135 124.444 3.19531C124.939 3.91927 125.194 4.75781 125.209 5.71094H121.967Z" fill="url(#paint5_linear_331_6388)"/>
<path d="M39.0161 30.0632V21.3359H40.0218V24.5575H40.107C40.1809 24.4439 40.2832 24.299 40.4138 24.1229C40.5474 23.9439 40.7377 23.7848 40.9849 23.6456C41.2349 23.5036 41.5729 23.4325 41.9991 23.4325C42.5502 23.4325 43.036 23.5703 43.4565 23.8459C43.8769 24.1214 44.205 24.5121 44.4408 25.0178C44.6766 25.5234 44.7945 26.12 44.7945 26.8075C44.7945 27.5007 44.6766 28.1016 44.4408 28.6101C44.205 29.1158 43.8783 29.5078 43.4607 29.7862C43.0431 30.0618 42.5616 30.1996 42.0161 30.1996C41.5957 30.1996 41.259 30.13 41.0062 29.9908C40.7533 29.8487 40.5587 29.6882 40.4224 29.5092C40.286 29.3274 40.1809 29.1768 40.107 29.0575H39.9877V30.0632H39.0161ZM40.0047 26.7905C40.0047 27.2848 40.0772 27.7209 40.2221 28.0987C40.367 28.4737 40.5786 28.7678 40.857 28.9808C41.1354 29.1911 41.4763 29.2962 41.8797 29.2962C42.3002 29.2962 42.6511 29.1854 42.9323 28.9638C43.2164 28.7393 43.4295 28.4382 43.5715 28.0604C43.7164 27.6797 43.7888 27.2564 43.7888 26.7905C43.7888 26.3303 43.7178 25.9155 43.5758 25.5462C43.4366 25.174 43.2249 24.88 42.9408 24.6641C42.6596 24.4453 42.3059 24.3359 41.8797 24.3359C41.4707 24.3359 41.1269 24.4396 40.8485 24.647C40.5701 24.8516 40.3599 25.1385 40.2178 25.5078C40.0758 25.8743 40.0047 26.3018 40.0047 26.7905Z" fill="black"/>
<path d="M46.7462 32.5178C46.5758 32.5178 46.4238 32.5036 46.2903 32.4751C46.1567 32.4496 46.0644 32.424 46.0133 32.3984L46.269 31.5121C46.5133 31.5746 46.7292 31.5973 46.9167 31.5803C47.1042 31.5632 47.2704 31.4794 47.4153 31.3288C47.563 31.1811 47.6979 30.9411 47.8201 30.6087L48.0076 30.0973L45.5871 23.5178H46.678L48.4849 28.7337H48.553L50.3599 23.5178H51.4508L48.6724 31.0178C48.5474 31.3558 48.3925 31.6357 48.2079 31.8572C48.0232 32.0817 47.8087 32.2479 47.5644 32.3558C47.3229 32.4638 47.0502 32.5178 46.7462 32.5178Z" fill="black"/>
<path d="M62.0168 21.3359H63.0736V27.1143C63.0736 27.7109 62.933 28.2436 62.6518 28.7124C62.3734 29.1783 61.9799 29.5462 61.4714 29.8161C60.9628 30.0831 60.3663 30.2166 59.6816 30.2166C58.9969 30.2166 58.4003 30.0831 57.8918 29.8161C57.3833 29.5462 56.9884 29.1783 56.7072 28.7124C56.4288 28.2436 56.2896 27.7109 56.2896 27.1143V21.3359H57.3464V27.0291C57.3464 27.4553 57.4401 27.8345 57.6276 28.1669C57.8151 28.4964 58.0822 28.7564 58.4288 28.9467C58.7782 29.1342 59.1958 29.228 59.6816 29.228C60.1674 29.228 60.585 29.1342 60.9344 28.9467C61.2839 28.7564 61.5509 28.4964 61.7356 28.1669C61.9231 27.8345 62.0168 27.4553 62.0168 27.0291V21.3359Z" fill="black"/>
<path d="M66.0534 26.1257V30.0632H65.0477V23.5178H66.0193V24.5405H66.1045C66.2579 24.2081 66.4909 23.9411 66.8034 23.7393C67.1159 23.5348 67.5193 23.4325 68.0136 23.4325C68.4568 23.4325 68.8446 23.5234 69.177 23.7053C69.5094 23.8842 69.7679 24.157 69.9525 24.5234C70.1372 24.8871 70.2295 25.3473 70.2295 25.9041V30.0632H69.2239V25.9723C69.2239 25.4581 69.0903 25.0575 68.8233 24.7706C68.5562 24.4808 68.1898 24.3359 67.7239 24.3359C67.4028 24.3359 67.1159 24.4055 66.8631 24.5447C66.6131 24.6839 66.4156 24.8871 66.2707 25.1541C66.1258 25.4212 66.0534 25.745 66.0534 26.1257Z" fill="black"/>
<path d="M73.0729 21.3359V30.0632H72.0672V21.3359H73.0729Z" fill="black"/>
<path d="M77.574 30.1996C76.9831 30.1996 76.4646 30.0589 76.0186 29.7777C75.5754 29.4964 75.2288 29.103 74.9788 28.5973C74.7317 28.0916 74.6081 27.5007 74.6081 26.8246C74.6081 26.1428 74.7317 25.5476 74.9788 25.0391C75.2288 24.5305 75.5754 24.1357 76.0186 23.8544C76.4646 23.5732 76.9831 23.4325 77.574 23.4325C78.1649 23.4325 78.682 23.5732 79.1251 23.8544C79.5712 24.1357 79.9177 24.5305 80.1649 25.0391C80.4149 25.5476 80.5399 26.1428 80.5399 26.8246C80.5399 27.5007 80.4149 28.0916 80.1649 28.5973C79.9177 29.103 79.5712 29.4964 79.1251 29.7777C78.682 30.0589 78.1649 30.1996 77.574 30.1996ZM77.574 29.2962C78.0229 29.2962 78.3922 29.1811 78.6819 28.951C78.9717 28.7209 79.1862 28.4183 79.3254 28.0433C79.4646 27.6683 79.5342 27.2621 79.5342 26.8246C79.5342 26.3871 79.4646 25.9794 79.3254 25.6016C79.1862 25.2237 78.9717 24.9183 78.6819 24.6854C78.3922 24.4524 78.0229 24.3359 77.574 24.3359C77.1251 24.3359 76.7558 24.4524 76.466 24.6854C76.1763 24.9183 75.9618 25.2237 75.8226 25.6016C75.6834 25.9794 75.6138 26.3871 75.6138 26.8246C75.6138 27.2621 75.6834 27.6683 75.8226 28.0433C75.9618 28.4183 76.1763 28.7209 76.466 28.951C76.7558 29.1811 77.1251 29.2962 77.574 29.2962Z" fill="black"/>
<path d="M84.7341 30.1996C84.1205 30.1996 83.5921 30.0547 83.1489 29.7649C82.7057 29.4751 82.3648 29.076 82.1262 28.5675C81.8876 28.0589 81.7682 27.478 81.7682 26.8246C81.7682 26.1598 81.8904 25.5732 82.1347 25.0646C82.3819 24.5533 82.7256 24.1541 83.166 23.8672C83.6091 23.5774 84.1262 23.4325 84.7171 23.4325C85.1773 23.4325 85.5921 23.5178 85.9614 23.6882C86.3307 23.8587 86.6333 24.0973 86.8691 24.4041C87.1049 24.7109 87.2512 25.0689 87.308 25.478H86.3023C86.2256 25.1797 86.0552 24.9155 85.791 24.6854C85.5296 24.4524 85.1773 24.3359 84.7341 24.3359C84.3421 24.3359 83.9984 24.4382 83.7029 24.6428C83.4103 24.8445 83.1816 25.13 83.0168 25.4993C82.8549 25.8658 82.7739 26.2962 82.7739 26.7905C82.7739 27.2962 82.8535 27.7365 83.0126 28.1115C83.1745 28.4865 83.4018 28.7777 83.6944 28.9851C83.9898 29.1925 84.3364 29.2962 84.7341 29.2962C84.9955 29.2962 85.2327 29.2507 85.4458 29.1598C85.6589 29.0689 85.8393 28.9382 85.987 28.7678C86.1347 28.5973 86.2398 28.3928 86.3023 28.1541H87.308C87.2512 28.5405 87.1106 28.8885 86.8861 29.1982C86.6645 29.505 86.3705 29.7493 86.004 29.9311C85.6404 30.1101 85.2171 30.1996 84.7341 30.1996Z" fill="black"/>
<path d="M89.7157 27.6768L89.6986 26.4325H89.9032L92.7668 23.5178H94.0111L90.96 26.603H90.8748L89.7157 27.6768ZM88.7782 30.0632V21.3359H89.7839V30.0632H88.7782ZM92.9373 30.0632L90.3805 26.8246L91.0964 26.1257L94.2157 30.0632H92.9373Z" fill="black"/>
<path d="M98.8169 30.0632V21.3359H99.8737V29.1257H103.931V30.0632H98.8169Z" fill="black"/>
<path d="M107.357 30.2166C106.942 30.2166 106.565 30.1385 106.227 29.9822C105.889 29.8232 105.621 29.5945 105.422 29.2962C105.223 28.995 105.124 28.6314 105.124 28.2053C105.124 27.8303 105.198 27.5263 105.345 27.2933C105.493 27.0575 105.69 26.8729 105.938 26.7393C106.185 26.6058 106.458 26.5064 106.756 26.4411C107.057 26.3729 107.36 26.3189 107.663 26.2791C108.061 26.228 108.384 26.1896 108.631 26.1641C108.881 26.1357 109.063 26.0888 109.176 26.0234C109.293 25.9581 109.351 25.8445 109.351 25.6825V25.6484C109.351 25.228 109.236 24.9013 109.006 24.6683C108.779 24.4354 108.433 24.3189 107.97 24.3189C107.49 24.3189 107.114 24.424 106.841 24.6342C106.568 24.8445 106.377 25.0689 106.266 25.3075L105.311 24.9666C105.482 24.5689 105.709 24.2592 105.993 24.0376C106.28 23.8132 106.592 23.657 106.931 23.5689C107.271 23.478 107.607 23.4325 107.936 23.4325C108.146 23.4325 108.388 23.4581 108.661 23.5092C108.936 23.5575 109.202 23.6584 109.458 23.8118C109.716 23.9652 109.931 24.1967 110.101 24.5064C110.271 24.8161 110.357 25.2308 110.357 25.7507V30.0632H109.351V29.1768H109.3C109.232 29.3189 109.118 29.4709 108.959 29.6328C108.8 29.7947 108.588 29.9325 108.324 30.0462C108.06 30.1598 107.737 30.2166 107.357 30.2166ZM107.51 29.3132C107.908 29.3132 108.243 29.2351 108.516 29.0788C108.791 28.9226 108.999 28.7209 109.138 28.4737C109.28 28.2266 109.351 27.9666 109.351 27.6939V26.7734C109.308 26.8246 109.215 26.8714 109.07 26.9141C108.928 26.9538 108.763 26.9893 108.575 27.0206C108.391 27.049 108.21 27.0746 108.034 27.0973C107.861 27.1172 107.72 27.1342 107.612 27.1484C107.351 27.1825 107.107 27.2379 106.879 27.3146C106.655 27.3885 106.473 27.5007 106.334 27.6513C106.198 27.799 106.129 28.0007 106.129 28.2564C106.129 28.6058 106.259 28.87 106.517 29.049C106.779 29.2251 107.11 29.3132 107.51 29.3132Z" fill="black"/>
<path d="M112.329 30.0632V21.3359H113.334V24.5575H113.42C113.493 24.4439 113.596 24.299 113.726 24.1229C113.86 23.9439 114.05 23.7848 114.297 23.6456C114.547 23.5036 114.885 23.4325 115.312 23.4325C115.863 23.4325 116.349 23.5703 116.769 23.8459C117.189 24.1214 117.518 24.5121 117.753 25.0178C117.989 25.5234 118.107 26.12 118.107 26.8075C118.107 27.5007 117.989 28.1016 117.753 28.6101C117.518 29.1158 117.191 29.5078 116.773 29.7862C116.356 30.0618 115.874 30.1996 115.329 30.1996C114.908 30.1996 114.572 30.13 114.319 29.9908C114.066 29.8487 113.871 29.6882 113.735 29.5092C113.599 29.3274 113.493 29.1768 113.42 29.0575H113.3V30.0632H112.329ZM113.317 26.7905C113.317 27.2848 113.39 27.7209 113.535 28.0987C113.679 28.4737 113.891 28.7678 114.17 28.9808C114.448 29.1911 114.789 29.2962 115.192 29.2962C115.613 29.2962 115.964 29.1854 116.245 28.9638C116.529 28.7393 116.742 28.4382 116.884 28.0604C117.029 27.6797 117.101 27.2564 117.101 26.7905C117.101 26.3303 117.03 25.9155 116.888 25.5462C116.749 25.174 116.537 24.88 116.253 24.6641C115.972 24.4453 115.618 24.3359 115.192 24.3359C114.783 24.3359 114.439 24.4396 114.161 24.647C113.883 24.8516 113.672 25.1385 113.53 25.5078C113.388 25.8743 113.317 26.3018 113.317 26.7905Z" fill="black"/>
<path d="M124.282 24.9837L123.378 25.2393C123.322 25.0888 123.238 24.9425 123.127 24.8004C123.019 24.6555 122.871 24.5362 122.684 24.4425C122.496 24.3487 122.256 24.3018 121.964 24.3018C121.563 24.3018 121.229 24.3942 120.962 24.5788C120.698 24.7607 120.566 24.9922 120.566 25.2734C120.566 25.5234 120.657 25.7209 120.839 25.8658C121.02 26.0107 121.304 26.1314 121.691 26.228L122.662 26.4666C123.248 26.6087 123.684 26.826 123.971 27.1186C124.258 27.4084 124.401 27.782 124.401 28.2393C124.401 28.6143 124.293 28.9496 124.077 29.245C123.864 29.5405 123.566 29.7734 123.182 29.9439C122.799 30.1143 122.353 30.1996 121.844 30.1996C121.177 30.1996 120.624 30.0547 120.187 29.7649C119.749 29.4751 119.472 29.0518 119.356 28.495L120.31 28.2564C120.401 28.6087 120.573 28.8729 120.826 29.049C121.081 29.2251 121.415 29.3132 121.827 29.3132C122.296 29.3132 122.668 29.2138 122.944 29.0149C123.222 28.8132 123.361 28.5717 123.361 28.2905C123.361 28.0632 123.282 27.8729 123.123 27.7195C122.964 27.5632 122.719 27.4467 122.39 27.37L121.299 27.1143C120.699 26.9723 120.259 26.7521 119.978 26.4538C119.699 26.1527 119.56 25.7763 119.56 25.3246C119.56 24.9553 119.664 24.6286 119.871 24.3445C120.081 24.0604 120.367 23.8374 120.728 23.6754C121.091 23.5135 121.503 23.4325 121.964 23.4325C122.611 23.4325 123.12 23.5746 123.489 23.8587C123.861 24.1428 124.125 24.5178 124.282 24.9837Z" fill="black"/>
<path d="M33.0159 12.7868V16.173H0V12.7868H33.0159ZM23.6575 1.10938H29.3834V21.7039C29.3834 23.9614 28.8498 25.947 27.7826 27.6606C26.7154 29.3742 25.2224 30.7134 23.3035 31.6779C21.3846 32.6322 19.1425 33.1094 16.5772 33.1094C14.0119 33.1094 11.7698 32.6322 9.85089 31.6779C7.93202 30.7134 6.43899 29.3742 5.37181 27.6606C4.3149 25.947 3.78644 23.9614 3.78644 21.7039V1.10938H9.49687V21.2267C9.49687 22.5402 9.78419 23.71 10.3588 24.7361C10.9437 25.7623 11.7646 26.5678 12.8215 27.1527C13.8887 27.7273 15.1406 28.0146 16.5772 28.0146C18.0241 28.0146 19.2759 27.7273 20.3329 27.1527C21.4 26.5678 22.2209 25.7623 22.7956 24.7361C23.3702 23.71 23.6575 22.5402 23.6575 21.2267V1.10938Z" fill="#020207"/>
<defs>
<linearGradient id="paint0_linear_331_6388" x1="37.6255" y1="9.95148" x2="114.857" y2="-11.5997" gradientUnits="userSpaceOnUse">
<stop stop-color="#603DEB"/>
<stop offset="1" stop-color="#F19077"/>
</linearGradient>
<linearGradient id="paint1_linear_331_6388" x1="37.6255" y1="9.95148" x2="114.857" y2="-11.5997" gradientUnits="userSpaceOnUse">
<stop stop-color="#603DEB"/>
<stop offset="1" stop-color="#F19077"/>
</linearGradient>
<linearGradient id="paint2_linear_331_6388" x1="37.6255" y1="9.95148" x2="114.857" y2="-11.5997" gradientUnits="userSpaceOnUse">
<stop stop-color="#603DEB"/>
<stop offset="1" stop-color="#F19077"/>
</linearGradient>
<linearGradient id="paint3_linear_331_6388" x1="37.6255" y1="9.95148" x2="114.857" y2="-11.5997" gradientUnits="userSpaceOnUse">
<stop stop-color="#603DEB"/>
<stop offset="1" stop-color="#F19077"/>
</linearGradient>
<linearGradient id="paint4_linear_331_6388" x1="37.6255" y1="9.95148" x2="114.857" y2="-11.5997" gradientUnits="userSpaceOnUse">
<stop stop-color="#603DEB"/>
<stop offset="1" stop-color="#F19077"/>
</linearGradient>
<linearGradient id="paint5_linear_331_6388" x1="37.6255" y1="9.95148" x2="114.857" y2="-11.5997" gradientUnits="userSpaceOnUse">
<stop stop-color="#603DEB"/>
<stop offset="1" stop-color="#F19077"/>
</linearGradient>
</defs>
</svg>
