<svg width="240" height="240" viewBox="0 0 240 240" fill="none" xmlns="http://www.w3.org/2000/svg">
<rect width="240" height="240" rx="120" fill="#FFF7E8"/>
<path d="M180 102.443V114.751H60V102.443H180ZM145.986 60H166.797V134.853C166.797 143.058 164.858 150.275 160.979 156.503C157.1 162.732 151.674 167.599 144.699 171.105C137.725 174.573 129.576 176.308 120.252 176.308C110.928 176.308 102.779 174.573 95.8042 171.105C88.8298 167.599 83.4033 162.732 79.5245 156.503C75.683 150.275 73.7622 143.058 73.7622 134.853V60H94.5175V133.119C94.5175 137.893 95.5618 142.145 97.6504 145.874C99.7762 149.604 102.76 152.531 106.601 154.657C110.48 156.746 115.03 157.79 120.252 157.79C125.51 157.79 130.061 156.746 133.902 154.657C137.781 152.531 140.765 149.604 142.853 145.874C144.942 142.145 145.986 137.893 145.986 133.119V60Z" fill="black"/>
</svg>
