<svg width="248" height="240" viewBox="0 0 248 240" fill="none" xmlns="http://www.w3.org/2000/svg">
<path d="M247.619 87.5806V112.977H0V87.5806H247.619ZM177.431 0H220.375V154.459C220.375 171.39 216.373 186.282 208.369 199.134C200.366 211.987 189.168 222.03 174.776 229.264C160.385 236.421 143.569 240 124.329 240C105.089 240 88.2732 236.421 73.8817 229.264C59.4901 222.03 48.2925 211.987 40.2886 199.134C32.3617 186.282 28.3983 171.39 28.3983 154.459V0H71.2266V150.88C71.2266 160.731 73.3814 169.505 77.6912 177.201C82.0779 184.897 88.2347 190.938 96.1616 195.325C104.165 199.634 113.555 201.789 124.329 201.789C135.18 201.789 144.57 199.634 152.496 195.325C160.5 190.938 166.657 184.897 170.967 177.201C175.277 169.505 177.431 160.731 177.431 150.88V0Z" fill="white"/>
</svg>
