<svg width="96" height="96" viewBox="0 0 96 96" fill="none" xmlns="http://www.w3.org/2000/svg">
<rect width="96" height="96" rx="48" fill="#020207"/>
<path d="M79.5 41.5825V48.044H16.5V41.5825H79.5ZM61.6427 19.3H72.5685V58.5979C72.5685 62.9056 71.5504 66.6944 69.514 69.9643C67.4776 73.2342 64.6287 75.7895 60.9671 77.6301C57.3056 79.451 53.0273 80.3615 48.1322 80.3615C43.2371 80.3615 38.9587 79.451 35.2972 77.6301C31.6357 75.7895 28.7867 73.2342 26.7504 69.9643C24.7336 66.6944 23.7252 62.9056 23.7252 58.5979V19.3H34.6217V57.6874C34.6217 60.1937 35.1699 62.4259 36.2664 64.3839C37.3825 66.3419 38.949 67.879 40.9657 68.9951C43.0021 70.0916 45.3909 70.6398 48.1322 70.6398C50.893 70.6398 53.2818 70.0916 55.2986 68.9951C57.335 67.879 58.9014 66.3419 59.9979 64.3839C61.0944 62.4259 61.6427 60.1937 61.6427 57.6874V19.3Z" fill="white"/>
</svg>
