<svg width="1091" height="240" viewBox="0 0 1091 240" fill="none" xmlns="http://www.w3.org/2000/svg">
<path d="M245.989 87.5806V112.977H0V87.5806H245.989ZM176.263 0H218.924V154.459C218.924 171.39 214.949 186.282 206.998 199.134C199.046 211.987 187.922 222.03 173.626 229.264C159.329 236.421 142.624 240 123.51 240C104.397 240 87.6921 236.421 73.3953 229.264C59.0985 222.03 47.9745 211.987 40.0234 199.134C32.1487 186.282 28.2113 171.39 28.2113 154.459V0H70.7576V150.88C70.7576 160.731 72.8983 169.505 77.1797 177.201C81.5376 184.897 87.6538 190.938 95.5285 195.325C103.48 199.634 112.807 201.789 123.51 201.789C134.29 201.789 143.618 199.634 151.492 195.325C159.444 190.938 165.56 184.897 169.841 177.201C174.123 169.505 176.263 160.731 176.263 150.88V0Z" fill="black"/>
<path d="M314.005 132.525V236.421H272.491V59.1053H312.17V89.2352H314.235C318.287 79.3074 324.747 71.419 333.615 65.57C342.561 59.721 353.608 56.7965 366.758 56.7965C378.914 56.7965 389.503 59.4132 398.524 64.6465C407.622 69.8798 414.656 77.4603 419.626 87.3882C424.671 97.316 427.156 109.36 427.08 123.521V236.421H385.566V129.986C385.566 118.134 382.507 108.86 376.391 102.165C370.351 95.469 361.98 92.1212 351.276 92.1212C344.013 92.1212 337.553 93.7374 331.895 96.9697C326.314 100.125 321.918 104.704 318.707 110.707C315.572 116.71 314.005 123.983 314.005 132.525Z" fill="black"/>
<path d="M507.421 0V236.421H465.907V0H507.421Z" fill="black"/>
<path d="M623.572 239.885C606.37 239.885 591.461 236.075 578.846 228.456C566.232 220.837 556.446 210.178 549.488 196.479C542.607 182.78 539.167 166.773 539.167 148.456C539.167 130.14 542.607 114.093 549.488 100.317C556.446 86.5416 566.232 75.8442 578.846 68.2251C591.461 60.6061 606.37 56.7965 623.572 56.7965C640.774 56.7965 655.682 60.6061 668.297 68.2251C680.912 75.8442 690.66 86.5416 697.54 100.317C704.498 114.093 707.976 130.14 707.976 148.456C707.976 166.773 704.498 182.78 697.54 196.479C690.66 210.178 680.912 220.837 668.297 228.456C655.682 236.075 640.774 239.885 623.572 239.885ZM623.801 206.407C633.128 206.407 640.927 203.829 647.196 198.672C653.465 193.439 658.129 186.436 661.187 177.662C664.321 168.889 665.889 159.115 665.889 148.341C665.889 137.489 664.321 127.677 661.187 118.903C658.129 110.053 653.465 103.011 647.196 97.7778C640.927 92.5445 633.128 89.9279 623.801 89.9279C614.244 89.9279 606.293 92.5445 599.948 97.7778C593.678 103.011 588.976 110.053 585.842 118.903C582.784 127.677 581.255 137.489 581.255 148.341C581.255 159.115 582.784 168.889 585.842 177.662C588.976 186.436 593.678 193.439 599.948 198.672C606.293 203.829 614.244 206.407 623.801 206.407Z" fill="black"/>
<path d="M816.672 239.885C799.088 239.885 783.989 235.998 771.374 228.225C758.835 220.452 749.164 209.716 742.36 196.017C735.632 182.241 732.268 166.388 732.268 148.456C732.268 130.447 735.708 114.555 742.589 100.779C749.47 86.9264 759.179 76.152 771.718 68.456C784.333 60.683 799.241 56.7965 816.443 56.7965C830.74 56.7965 843.393 59.4517 854.402 64.7619C865.488 69.9952 874.318 77.4218 880.893 87.0418C887.468 96.5849 891.214 107.744 892.132 120.519H852.453C850.847 111.977 847.024 104.858 840.985 99.1631C835.021 93.3911 827.032 90.505 817.016 90.505C808.53 90.505 801.076 92.8139 794.654 97.4315C788.232 101.972 783.224 108.514 779.631 117.056C776.114 125.599 774.355 135.835 774.355 147.763C774.355 159.846 776.114 170.236 779.631 178.932C783.148 187.552 788.079 194.209 794.424 198.903C800.846 203.521 808.377 205.83 817.016 205.83C823.133 205.83 828.599 204.675 833.416 202.367C838.309 199.981 842.399 196.556 845.686 192.092C848.974 187.629 851.229 182.203 852.453 175.815H892.132C891.138 188.36 887.468 199.481 881.123 209.177C874.777 218.798 866.138 226.34 855.205 231.804C844.272 237.191 831.428 239.885 816.672 239.885Z" fill="black"/>
<path d="M957.431 180.779L957.317 130.332H963.968L1027.27 59.1053H1075.78L997.913 146.378H989.312L957.431 180.779ZM919.587 236.421V0H961.101V236.421H919.587ZM1030.14 236.421L972.798 155.729L1000.78 126.291L1079.79 236.421H1030.14Z" fill="black"/>
</svg>
