<svg width="96" height="96" viewBox="0 0 96 96" fill="none" xmlns="http://www.w3.org/2000/svg">
<rect width="96" height="96" rx="8" fill="#020207"/>
<path d="M79.5 39.8325V46.294H16.5V39.8325H79.5ZM61.6427 17.55H72.5685V56.8479C72.5685 61.1556 71.5504 64.9444 69.514 68.2143C67.4776 71.4842 64.6287 74.0395 60.9671 75.8801C57.3056 77.701 53.0273 78.6115 48.1322 78.6115C43.2371 78.6115 38.9587 77.701 35.2972 75.8801C31.6357 74.0395 28.7867 71.4842 26.7504 68.2143C24.7336 64.9444 23.7252 61.1556 23.7252 56.8479V17.55H34.6217V55.9374C34.6217 58.4437 35.1699 60.6759 36.2664 62.6339C37.3825 64.5919 38.949 66.129 40.9657 67.2451C43.0021 68.3416 45.3909 68.8898 48.1322 68.8898C50.893 68.8898 53.2818 68.3416 55.2986 67.2451C57.335 66.129 58.9014 64.5919 59.9979 62.6339C61.0944 60.6759 61.6427 58.4437 61.6427 55.9374V17.55Z" fill="white"/>
</svg>
