<svg width="84" height="84" viewBox="0 0 84 84" fill="none" xmlns="http://www.w3.org/2000/svg">
<path d="M73.5 33.8325V40.294H10.5V33.8325H73.5ZM55.6427 11.55H66.5685V50.8479C66.5685 55.1556 65.5504 58.9444 63.514 62.2143C61.4776 65.4842 58.6287 68.0395 54.9671 69.8801C51.3056 71.701 47.0273 72.6115 42.1322 72.6115C37.2371 72.6115 32.9587 71.701 29.2972 69.8801C25.6357 68.0395 22.7867 65.4842 20.7504 62.2143C18.7336 58.9444 17.7252 55.1556 17.7252 50.8479V11.55H28.6217V49.9374C28.6217 52.4437 29.1699 54.6759 30.2664 56.6339C31.3825 58.5919 32.949 60.129 34.9657 61.2451C37.0021 62.3416 39.3909 62.8898 42.1322 62.8898C44.893 62.8898 47.2818 62.3416 49.2986 61.2451C51.335 60.129 52.9014 58.5919 53.9979 56.6339C55.0944 54.6759 55.6427 52.4437 55.6427 49.9374V11.55Z" fill="#020207"/>
</svg>
