<svg width="182" height="40" viewBox="0 0 182 40" fill="none" xmlns="http://www.w3.org/2000/svg">
<path d="M40.9936 14.5968V18.8296H0V14.5968H40.9936ZM29.374 0H36.4834V25.7431C36.4834 28.565 35.8208 31.047 34.4958 33.189C33.1707 35.3311 31.317 37.005 28.9344 38.2107C26.5519 39.4036 23.768 40 20.5828 40C17.3976 40 14.6137 39.4036 12.2312 38.2107C9.84866 37.005 7.99487 35.3311 6.66982 33.189C5.35752 31.047 4.70137 28.565 4.70137 25.7431V0H11.7916V25.1467C11.7916 26.7885 12.1484 28.2508 12.8619 29.5334C13.5881 30.8161 14.6074 31.823 15.9197 32.5541C17.2447 33.2724 18.7991 33.6316 20.5828 33.6316C22.3793 33.6316 23.9336 33.2724 25.2459 32.5541C26.571 31.823 27.5903 30.8161 28.3037 29.5334C29.0172 28.2508 29.374 26.7885 29.374 25.1467V0Z" fill="#020207"/>
<path d="M52.3284 22.0875V39.4036H45.4101V9.85089H52.0226V14.8725H52.3666C53.0419 13.2179 54.1185 11.9032 55.5964 10.9283C57.0871 9.95351 58.9282 9.46609 61.1196 9.46609C63.1454 9.46609 64.91 9.9022 66.4134 10.7744C67.9296 11.6466 69.1017 12.9101 69.9299 14.5647C70.7708 16.2193 71.1848 18.2267 71.1721 20.5868V39.4036H64.2538V21.6643C64.2538 19.689 63.7442 18.1433 62.7249 17.0274C61.7184 15.9115 60.3233 15.3535 58.5396 15.3535C57.3292 15.3535 56.2526 15.6229 55.3098 16.1616C54.3797 16.6875 53.6471 17.4507 53.112 18.4512C52.5896 19.4517 52.3284 20.6638 52.3284 22.0875Z" fill="#020207"/>
<path d="M84.5609 0V39.4036H77.6426V0H84.5609Z" fill="#020207"/>
<path d="M103.917 39.9808C101.05 39.9808 98.566 39.3458 96.4637 38.076C94.3615 36.8062 92.7307 35.0297 91.5713 32.7465C90.4246 30.4634 89.8512 27.7954 89.8512 24.7427C89.8512 21.6899 90.4246 19.0156 91.5713 16.7196C92.7307 14.4236 94.3615 12.6407 96.4637 11.3709C98.566 10.101 101.05 9.46609 103.917 9.46609C106.784 9.46609 109.268 10.101 111.371 11.3709C113.473 12.6407 115.097 14.4236 116.244 16.7196C117.403 19.0156 117.983 21.6899 117.983 24.7427C117.983 27.7954 117.403 30.4634 116.244 32.7465C115.097 35.0297 113.473 36.8062 111.371 38.076C109.268 39.3458 106.784 39.9808 103.917 39.9808ZM103.955 34.4012C105.51 34.4012 106.809 33.9715 107.854 33.1121C108.899 32.2399 109.676 31.0726 110.186 29.6104C110.708 28.1482 110.969 26.5192 110.969 24.7234C110.969 22.9149 110.708 21.2795 110.186 19.8172C109.676 18.3422 108.899 17.1685 107.854 16.2963C106.809 15.4241 105.51 14.988 103.955 14.988C102.363 14.988 101.038 15.4241 99.9802 16.2963C98.9354 17.1685 98.1519 18.3422 97.6295 19.8172C97.1199 21.2795 96.8651 22.9149 96.8651 24.7234C96.8651 26.5192 97.1199 28.1482 97.6295 29.6104C98.1519 31.0726 98.9354 32.2399 99.9802 33.1121C101.038 33.9715 102.363 34.4012 103.955 34.4012Z" fill="#020207"/>
<path d="M136.097 39.9808C133.167 39.9808 130.65 39.333 128.548 38.0375C126.459 36.742 124.847 34.9527 123.713 32.6696C122.592 30.3736 122.031 27.7313 122.031 24.7427C122.031 21.7412 122.604 19.0925 123.751 16.7965C124.898 14.4877 126.516 12.692 128.605 11.4093C130.708 10.1138 133.192 9.46609 136.059 9.46609C138.441 9.46609 140.55 9.90861 142.385 10.7937C144.232 11.6659 145.704 12.9036 146.799 14.507C147.895 16.0975 148.519 17.9574 148.672 20.0866H142.06C141.792 18.6628 141.155 17.4764 140.149 16.5272C139.155 15.5652 137.823 15.0842 136.154 15.0842C134.74 15.0842 133.498 15.469 132.428 16.2386C131.357 16.9954 130.523 18.0856 129.924 19.5094C129.338 20.9331 129.045 22.6391 129.045 24.6272C129.045 26.641 129.338 28.3726 129.924 29.822C130.51 31.2586 131.332 32.3681 132.389 33.1506C133.46 33.9202 134.715 34.305 136.154 34.305C137.174 34.305 138.085 34.1126 138.887 33.7278C139.703 33.3301 140.384 32.7593 140.932 32.0154C141.48 31.2714 141.856 30.3672 142.06 29.3026H148.672C148.507 31.3933 147.895 33.2468 146.838 34.8629C145.78 36.4663 144.34 37.7233 142.518 38.634C140.696 39.5318 138.556 39.9808 136.097 39.9808Z" fill="#020207"/>
<path d="M159.554 30.1299L159.535 21.722H160.644L171.193 9.85089H179.277L166.3 24.3963H164.867L159.554 30.1299ZM153.248 39.4036V0H160.166V39.4036H153.248ZM171.671 39.4036L162.115 25.9548L166.778 21.0486L179.946 39.4036H171.671Z" fill="#020207"/>
</svg>
