<svg xmlns="http://www.w3.org/2000/svg" viewBox="0 0 450 450">
  <title>1808-Unlock-Identity</title>
  <path d="M180.64663,248.53809a44.86368,44.86368,0,0,0,44.73242,44.73242c24.603,0,44.09375-20.1294,44.09375-44.73242V206.91235H180.64663ZM225,0C100.736,0,0,100.7359,0,225S100.736,450,225,450,450,349.2641,450,225,349.26406,0,225,0ZM340.033,206.91235H325.069v41.62574c0,52.08154-44.73291,94.57763-99.68994,94.57763-55.27685,0-100.3291-42.49609-100.3291-94.57763V206.91235h-15.083V180.49207H125.05V124.88428h55.59668v55.60779H269.4728V124.88428H325.069v55.60779h14.964Z" style="fill: #ff6771"/>
</svg>
