<svg xmlns="http://www.w3.org/2000/svg" viewBox="0 0 450 450">
  <circle cx="225" cy="225" r="225" style="fill: #ff6771"/>
  <g>
    <path d="M340.033,180.49207H325.069V124.88428H269.4728v55.60779H180.64663V124.88428H125.05v55.60779h-15.083v26.42028H125.05v41.62574c0,52.08154,45.05225,94.57763,100.3291,94.57763,54.957,0,99.68994-42.49609,99.68994-94.57763V206.91235h14.964Zm-70.56018,68.046c0,24.603-19.49072,44.73242-44.09375,44.73242a44.86368,44.86368,0,0,1-44.73242-44.73242V206.91235H269.4728Z" style="fill: #fff"/>
    <path d="M340.033,180.49207H325.069V124.88428H269.4728v55.60779H180.64663V124.88428H125.05v55.60779h-15.083v26.42028H125.05v41.62574c0,52.08154,45.05225,94.57763,100.3291,94.57763,54.957,0,99.68994-42.49609,99.68994-94.57763V206.91235h14.964Zm-70.56018,68.046c0,24.603-19.49072,44.73242-44.09375,44.73242a44.86368,44.86368,0,0,1-44.73242-44.73242V206.91235H269.4728Z" style="fill: none"/>
    <path d="M340.033,180.49207H325.069V124.88428H269.4728v55.60779H180.64663V124.88428H125.05v55.60779h-15.083v26.42028H125.05v41.62574c0,52.08154,45.05225,94.57763,100.3291,94.57763,54.957,0,99.68994-42.49609,99.68994-94.57763V206.91235h14.964Zm-70.56018,68.046c0,24.603-19.49072,44.73242-44.09375,44.73242a44.86368,44.86368,0,0,1-44.73242-44.73242V206.91235H269.4728Z" style="fill: none"/>
  </g>
</svg>
