<svg width="66" height="56" viewBox="0 0 66 56" fill="none" xmlns="http://www.w3.org/2000/svg">
<g clip-path="url(#clip0_9260_16399)">
<path fill-rule="evenodd" clip-rule="evenodd" d="M55.4156 29.6471H65.2593L32.4468 0L-0.365662 29.6471H9.47809V56H55.4156V29.6471ZM28.8156 18.2933C28.4841 17.6317 27.9401 17.1016 27.2716 16.7884C26.6031 16.4753 25.8489 16.3975 25.1309 16.5676C24.4129 16.7376 23.7729 17.1456 23.3143 17.7257C22.8556 18.3058 22.6051 19.0241 22.6031 19.7647V49.4118H29.1656V33.7186L36.0781 47.5934C36.4098 48.2554 36.9541 48.7857 37.6231 49.0988C38.2921 49.4118 39.0466 49.4893 39.7649 49.3187C40.4831 49.148 41.1231 48.7393 41.5814 48.1585C42.0397 47.5776 42.2896 46.8586 42.2906 46.1176V16.4706H35.7281V32.1638L28.8156 18.2933Z" fill="#00FF47"/>
</g>
<defs>
<clipPath id="clip0_9260_16399">
<rect width="65.625" height="56" fill="white"/>
</clipPath>
</defs>
</svg>
