<svg width="249" height="56" viewBox="0 0 249 56" fill="none" xmlns="http://www.w3.org/2000/svg">
<g clip-path="url(#clip0_9260_16262)">
<path d="M25.56 55.8074C25.5412 55.8075 25.5229 55.8132 25.5073 55.8237C25.4917 55.8342 25.4796 55.8491 25.4724 55.8665C25.4653 55.8839 25.4634 55.903 25.4671 55.9214C25.4708 55.9398 25.4799 55.9567 25.4932 55.97C25.5065 55.9833 25.5234 55.9924 25.5418 55.9961C25.5603 55.9998 25.5794 55.9979 25.5968 55.9908C25.6142 55.9836 25.629 55.9715 25.6395 55.9559C25.6501 55.9403 25.6557 55.922 25.6558 55.9032C25.6558 55.8778 25.6457 55.8534 25.6278 55.8355C25.6098 55.8175 25.5854 55.8074 25.56 55.8074ZM22.9075 54.888C22.8824 54.8878 22.8576 54.8926 22.8344 54.902C22.8112 54.9115 22.7902 54.9255 22.7725 54.9432C22.7547 54.9608 22.7407 54.9819 22.7312 55.005C22.7216 55.0282 22.7168 55.053 22.7169 55.078C22.7167 55.1158 22.7278 55.1529 22.7487 55.1845C22.7695 55.216 22.7993 55.2407 22.8343 55.2553C22.8692 55.2699 22.9077 55.2738 22.9448 55.2665C22.982 55.2592 23.0161 55.241 23.0429 55.2143C23.0697 55.1876 23.088 55.1535 23.0954 55.1164C23.1028 55.0792 23.099 55.0408 23.0844 55.0058C23.0699 54.9709 23.0454 54.941 23.0139 54.92C22.9823 54.899 22.9453 54.8879 22.9075 54.888ZM20.3564 53.6932C20.2825 53.6963 20.2126 53.7279 20.1615 53.7813C20.1103 53.8347 20.0817 53.9058 20.0817 53.9797C20.0817 54.0537 20.1103 54.1248 20.1615 54.1782C20.2126 54.2316 20.2825 54.2631 20.3564 54.2663C20.395 54.2679 20.4336 54.2617 20.4698 54.248C20.506 54.2344 20.5391 54.2135 20.567 54.1868C20.595 54.16 20.6172 54.1279 20.6324 54.0923C20.6476 54.0567 20.6554 54.0184 20.6554 53.9797C20.6554 53.941 20.6476 53.9027 20.6324 53.8671C20.6172 53.8316 20.595 53.7994 20.567 53.7726C20.5391 53.7459 20.506 53.725 20.4698 53.7114C20.4336 53.6977 20.395 53.6915 20.3564 53.6932ZM17.9353 52.2353C17.8596 52.2356 17.7858 52.2583 17.7231 52.3006C17.6604 52.3428 17.6116 52.4027 17.5829 52.4726C17.5541 52.5425 17.5468 52.6194 17.5617 52.6935C17.5767 52.7676 17.6132 52.8356 17.6668 52.889C17.7204 52.9423 17.7885 52.9786 17.8627 52.9932C17.9369 53.0079 18.0138 53.0002 18.0836 52.9712C18.1534 52.9422 18.2131 52.8932 18.2551 52.8303C18.297 52.7674 18.3194 52.6935 18.3194 52.6179C18.3195 52.5675 18.3096 52.5176 18.2903 52.4711C18.271 52.4245 18.2427 52.3822 18.207 52.3467C18.1713 52.3111 18.1289 52.283 18.0822 52.2639C18.0356 52.2448 17.9857 52.2351 17.9353 52.2353ZM15.6721 50.5326C15.5774 50.5325 15.4848 50.5605 15.4061 50.613C15.3273 50.6656 15.2659 50.7403 15.2296 50.8277C15.1934 50.9151 15.1838 51.0113 15.2023 51.1042C15.2207 51.197 15.2663 51.2823 15.3332 51.3492C15.4002 51.4162 15.4855 51.4617 15.5783 51.4802C15.6712 51.4986 15.7674 51.4891 15.8549 51.4528C15.9423 51.4166 16.017 51.3552 16.0695 51.2764C16.1221 51.1977 16.1501 51.1051 16.15 51.0105C16.15 50.8837 16.0996 50.7622 16.01 50.6726C15.9204 50.583 15.7988 50.5326 15.6721 50.5326ZM13.589 48.597C13.4757 48.5973 13.365 48.6312 13.2709 48.6943C13.1768 48.7574 13.1035 48.847 13.0603 48.9518C13.017 49.0565 13.0058 49.1718 13.028 49.2829C13.0502 49.394 13.1048 49.4961 13.1849 49.5762C13.2651 49.6563 13.3671 49.7109 13.4783 49.7331C13.5894 49.7553 13.7047 49.7441 13.8094 49.7008C13.9142 49.6576 14.0038 49.5843 14.067 49.4902C14.1301 49.3961 14.164 49.2855 14.1643 49.1721C14.1646 49.0965 14.1499 49.0216 14.1211 48.9517C14.0922 48.8818 14.0499 48.8183 13.9964 48.7648C13.9429 48.7114 13.8794 48.669 13.8095 48.6402C13.7396 48.6114 13.6647 48.5967 13.589 48.597ZM11.7121 46.4553C11.5798 46.456 11.4508 46.4959 11.3411 46.5699C11.2315 46.6438 11.1463 46.7486 11.0962 46.871C11.0461 46.9934 11.0333 47.1279 11.0595 47.2575C11.0858 47.3871 11.1498 47.506 11.2436 47.5993C11.3374 47.6925 11.4567 47.7559 11.5864 47.7814C11.7162 47.807 11.8506 47.7935 11.9728 47.7427C12.0949 47.692 12.1992 47.6062 12.2726 47.4962C12.346 47.3862 12.3852 47.2569 12.3852 47.1247C12.3852 47.0365 12.3678 46.9491 12.3339 46.8677C12.3 46.7862 12.2504 46.7123 12.1878 46.6501C12.1253 46.5878 12.0511 46.5386 11.9694 46.5052C11.8878 46.4718 11.8003 46.4548 11.7121 46.4553ZM10.0635 44.122C9.91194 44.122 9.76378 44.167 9.63776 44.2512C9.51174 44.3354 9.41352 44.455 9.35552 44.595C9.29752 44.735 9.28235 44.8891 9.31191 45.0377C9.34148 45.1863 9.41447 45.3228 9.52164 45.43C9.62881 45.5372 9.76535 45.6101 9.914 45.6397C10.0626 45.6693 10.2167 45.6541 10.3568 45.5961C10.4968 45.5381 10.6165 45.4399 10.7007 45.3139C10.7849 45.1879 10.8298 45.0398 10.8298 44.8882C10.8299 44.7876 10.8101 44.6879 10.7716 44.5949C10.7331 44.5019 10.6767 44.4175 10.6055 44.3463C10.5343 44.2751 10.4498 44.2187 10.3568 44.1802C10.2638 44.1417 10.1642 44.122 10.0635 44.122ZM9.57317 42.4613C9.57317 42.2909 9.52265 42.1244 9.428 41.9827C9.33335 41.8411 9.19882 41.7307 9.04142 41.6655C8.88401 41.6002 8.71081 41.5832 8.54369 41.6163C8.37657 41.6495 8.22305 41.7315 8.10254 41.852C7.98202 41.9724 7.89993 42.1258 7.86662 42.2929C7.83332 42.46 7.85031 42.6332 7.91544 42.7906C7.98057 42.948 8.09092 43.0826 8.23254 43.1773C8.37416 43.272 8.54069 43.3226 8.71107 43.3227C8.93949 43.3223 9.15846 43.2314 9.32003 43.07C9.4816 42.9085 9.57262 42.6897 9.57317 42.4613ZM8.64945 39.8775C8.64955 39.6882 8.59353 39.5031 8.48847 39.3457C8.3834 39.1882 8.23401 39.0655 8.05917 38.9929C7.88433 38.9203 7.6919 38.9012 7.5062 38.9379C7.3205 38.9747 7.14986 39.0657 7.01585 39.1994C6.88185 39.3331 6.7905 39.5035 6.75334 39.6891C6.71618 39.8747 6.73489 40.0671 6.8071 40.2421C6.8793 40.417 7.00177 40.5667 7.15901 40.6721C7.31626 40.7774 7.50122 40.8339 7.69053 40.8342C7.81632 40.8343 7.94091 40.8097 8.05718 40.7617C8.17344 40.7137 8.27912 40.6432 8.36816 40.5544C8.45721 40.4655 8.52788 40.36 8.57614 40.2439C8.62441 40.1277 8.64932 40.0032 8.64945 39.8775ZM8.07317 37.1829C8.07317 36.9746 8.0114 36.771 7.89568 36.5979C7.77996 36.4247 7.61548 36.2897 7.42304 36.21C7.2306 36.1303 7.01884 36.1095 6.81455 36.1501C6.61026 36.1907 6.4226 36.291 6.27532 36.4383C6.12803 36.5856 6.02772 36.7732 5.98709 36.9774C5.94645 37.1817 5.96731 37.3934 6.04702 37.5858C6.12673 37.7782 6.26172 37.9427 6.43491 38.0584C6.6081 38.1741 6.81172 38.2359 7.02001 38.2359C7.29928 38.2357 7.56708 38.1247 7.76455 37.9273C7.96203 37.7298 8.07303 37.4621 8.07317 37.1829ZM7.85622 34.4267C7.85653 34.1995 7.78942 33.9773 7.66339 33.7883C7.53737 33.5992 7.35808 33.4518 7.14823 33.3647C6.93838 33.2775 6.7074 33.2546 6.48451 33.2988C6.26162 33.3429 6.05684 33.4522 5.8961 33.6128C5.73535 33.7734 5.62586 33.978 5.58148 34.2008C5.5371 34.4237 5.55983 34.6546 5.64678 34.8645C5.73374 35.0744 5.88101 35.2538 6.06997 35.38C6.25893 35.5062 6.48108 35.5735 6.70831 35.5734C6.85902 35.5736 7.0083 35.544 7.1476 35.4865C7.28689 35.429 7.41347 35.3445 7.52009 35.238C7.62671 35.1315 7.71128 35.005 7.76896 34.8658C7.82663 34.7266 7.85629 34.5774 7.85622 34.4267ZM6.75853 32.8912C7.00431 32.8912 7.24456 32.8183 7.44892 32.6818C7.65327 32.5453 7.81255 32.3512 7.9066 32.1242C8.00066 31.8972 8.02527 31.6473 7.97732 31.4063C7.92937 31.1653 7.81102 30.9439 7.63723 30.7702C7.46344 30.5964 7.24202 30.4781 7.00096 30.4301C6.75991 30.3822 6.51005 30.4068 6.28299 30.5008C6.05592 30.5949 5.86184 30.7541 5.7253 30.9584C5.58875 31.1628 5.51587 31.403 5.51587 31.6487C5.51587 31.9782 5.64679 32.2943 5.87984 32.5273C6.11288 32.7603 6.42896 32.8912 6.75853 32.8912Z" fill="#2C56DD"/>
<path d="M5.83278 28.9023C5.83298 29.1672 5.91173 29.426 6.05906 29.6462C6.20639 29.8663 6.41569 30.0378 6.6605 30.139C6.90531 30.2402 7.17463 30.2665 7.43441 30.2147C7.69419 30.1628 7.93277 30.0352 8.11997 29.8478C8.30718 29.6604 8.43461 29.4217 8.48615 29.1619C8.53769 28.9021 8.51103 28.6328 8.40954 28.3882C8.30805 28.1435 8.13628 27.9345 7.91596 27.7874C7.69563 27.6404 7.43665 27.5619 7.17175 27.562C6.99574 27.5619 6.82144 27.5965 6.65882 27.6638C6.49621 27.7311 6.34848 27.8299 6.2241 27.9544C6.09971 28.0789 6.00112 28.2267 5.93398 28.3894C5.86683 28.552 5.83244 28.7264 5.83278 28.9023ZM46.0355 49.4134C46.0187 49.4133 46.0022 49.4182 45.9882 49.4275C45.9741 49.4368 45.9632 49.45 45.9567 49.4655C45.9502 49.4811 45.9484 49.4982 45.9517 49.5147C45.955 49.5312 45.9631 49.5464 45.975 49.5583C45.9869 49.5702 46.0021 49.5783 46.0186 49.5816C46.0351 49.5848 46.0522 49.5831 46.0677 49.5766C46.0833 49.5701 46.0965 49.5592 46.1058 49.5451C46.1151 49.5311 46.12 49.5146 46.1199 49.4978C46.1195 49.4755 46.1105 49.4543 46.0948 49.4385C46.079 49.4228 46.0578 49.4138 46.0355 49.4134ZM43.5756 50.6201C43.5533 50.6198 43.5312 50.6239 43.5105 50.6321C43.4898 50.6404 43.471 50.6527 43.4551 50.6683C43.4392 50.6839 43.4266 50.7025 43.4179 50.723C43.4093 50.7435 43.4048 50.7656 43.4047 50.7878C43.4034 50.811 43.4069 50.8341 43.4149 50.8559C43.4228 50.8776 43.4352 50.8975 43.4511 50.9143C43.467 50.9311 43.4862 50.9445 43.5074 50.9537C43.5287 50.9628 43.5516 50.9676 43.5748 50.9676C43.598 50.9676 43.6209 50.9628 43.6422 50.9537C43.6634 50.9445 43.6826 50.9311 43.6985 50.9143C43.7144 50.8975 43.7268 50.8776 43.7347 50.8559C43.7427 50.8341 43.7462 50.811 43.7449 50.7878C43.7446 50.7432 43.7266 50.7004 43.6949 50.669C43.6632 50.6376 43.6203 50.62 43.5756 50.6201ZM40.9945 51.5623C40.927 51.5623 40.8624 51.5891 40.8147 51.6368C40.767 51.6844 40.7402 51.7491 40.7402 51.8165C40.7402 51.8839 40.767 51.9486 40.8147 51.9962C40.8624 52.0439 40.927 52.0707 40.9945 52.0707C41.0619 52.0707 41.1266 52.0439 41.1742 51.9962C41.2219 51.9486 41.2487 51.8839 41.2487 51.8165C41.2487 51.7491 41.2219 51.6844 41.1742 51.6368C41.1266 51.5891 41.0619 51.5623 40.9945 51.5623ZM38.3191 52.227C38.2317 52.2305 38.1489 52.2676 38.0883 52.3307C38.0276 52.3937 37.9937 52.4778 37.9937 52.5653C37.9937 52.6529 38.0276 52.737 38.0883 52.8C38.1489 52.8631 38.2317 52.9002 38.3191 52.9037C38.3647 52.9054 38.4101 52.898 38.4527 52.8818C38.4953 52.8656 38.5342 52.841 38.5671 52.8094C38.5999 52.7778 38.6261 52.7399 38.6439 52.698C38.6618 52.656 38.671 52.6109 38.671 52.5653C38.671 52.5198 38.6618 52.4747 38.6439 52.4327C38.6261 52.3908 38.5999 52.3529 38.5671 52.3213C38.5342 52.2897 38.4953 52.2651 38.4527 52.2489C38.4101 52.2327 38.3647 52.2253 38.3191 52.227ZM35.5811 52.6044C35.4971 52.6036 35.4148 52.6278 35.3446 52.6739C35.2744 52.7199 35.2194 52.7858 35.1868 52.8632C35.1541 52.9406 35.1452 53.0259 35.1611 53.1083C35.1771 53.1908 35.2172 53.2666 35.2764 53.3262C35.3355 53.3858 35.4111 53.4265 35.4934 53.443C35.5758 53.4596 35.6612 53.4513 35.7388 53.4192C35.8164 53.3871 35.8827 53.3327 35.9293 53.2629C35.9759 53.193 36.0007 53.1109 36.0005 53.0269C36.0001 52.9155 35.9559 52.8087 35.8774 52.7297C35.7989 52.6507 35.6925 52.6057 35.5811 52.6044ZM32.8089 52.6924C32.7086 52.6924 32.6106 52.7222 32.5271 52.7779C32.4437 52.8336 32.3787 52.9128 32.3402 53.0054C32.3018 53.098 32.2917 53.2 32.3112 53.2984C32.3307 53.3968 32.3789 53.4872 32.4498 53.5582C32.5206 53.6292 32.6109 53.6776 32.7093 53.6973C32.8077 53.7169 32.9097 53.707 33.0024 53.6688C33.0951 53.6306 33.1745 53.5657 33.2303 53.4824C33.2862 53.3991 33.3161 53.3011 33.3164 53.2008C33.3167 53.1341 33.3038 53.0679 33.2784 53.0061C33.2531 52.9443 33.2157 52.8882 33.1686 52.8409C33.1214 52.7937 33.0653 52.7562 33.0036 52.7307C32.9419 52.7053 32.8757 52.6922 32.8089 52.6924ZM30.0311 52.4895C29.914 52.4898 29.7997 52.5248 29.7026 52.5901C29.6054 52.6553 29.5298 52.7479 29.4853 52.8561C29.4408 52.9643 29.4293 53.0833 29.4524 53.198C29.4755 53.3127 29.5321 53.418 29.6151 53.5006C29.698 53.5831 29.8035 53.6392 29.9184 53.6618C30.0332 53.6844 30.1521 53.6725 30.2602 53.6275C30.3682 53.5825 30.4605 53.5065 30.5253 53.4091C30.5901 53.3116 30.6246 53.1972 30.6244 53.0802C30.6244 53.0024 30.6091 52.9254 30.5792 52.8535C30.5494 52.7817 30.5056 52.7165 30.4505 52.6616C30.3953 52.6067 30.3299 52.5633 30.2579 52.5337C30.186 52.5042 30.1089 52.4892 30.0311 52.4895ZM27.2868 51.9884C27.1528 51.9884 27.0219 52.0282 26.9105 52.1027C26.7991 52.1772 26.7124 52.2831 26.6613 52.4069C26.6102 52.5308 26.597 52.667 26.6234 52.7983C26.6498 52.9297 26.7146 53.0503 26.8096 53.1447C26.9046 53.2392 27.0255 53.3034 27.1571 53.3291C27.2886 53.3548 27.4247 53.3408 27.5483 53.2891C27.6719 53.2373 27.7774 53.15 27.8513 53.0383C27.9252 52.9265 27.9643 52.7954 27.9636 52.6614C27.9629 52.4825 27.8913 52.3111 27.7644 52.185C27.6375 52.0588 27.4658 51.9881 27.2868 51.9884ZM24.6141 51.1435C24.4638 51.1437 24.3169 51.1885 24.192 51.2722C24.0671 51.3558 23.9698 51.4747 23.9125 51.6136C23.8551 51.7525 23.8403 51.9054 23.8698 52.0528C23.8994 52.2001 23.9719 52.3355 24.0784 52.4416C24.1848 52.5477 24.3204 52.6199 24.4678 52.6491C24.6153 52.6782 24.7681 52.6629 24.907 52.6052C25.0458 52.5475 25.1643 52.4499 25.2477 52.3248C25.331 52.1997 25.3754 52.0528 25.3752 51.9024C25.3747 51.701 25.2942 51.5079 25.1516 51.3657C25.0089 51.2234 24.8156 51.1435 24.6141 51.1435ZM22.0666 49.9538C21.8993 49.9535 21.7357 50.0029 21.5964 50.0956C21.4571 50.1883 21.3485 50.3203 21.2843 50.4748C21.2201 50.6292 21.2031 50.7993 21.2356 50.9634C21.2681 51.1275 21.3486 51.2783 21.4668 51.3967C21.5851 51.515 21.7358 51.5956 21.8999 51.6283C22.064 51.661 22.2341 51.6443 22.3886 51.5803C22.5432 51.5163 22.6753 51.4078 22.7682 51.2687C22.8612 51.1296 22.9107 50.966 22.9106 50.7987C22.9107 50.6878 22.8889 50.578 22.8465 50.4756C22.8041 50.3731 22.742 50.28 22.6636 50.2015C22.5852 50.1231 22.4922 50.0608 22.3898 50.0183C22.2873 49.9758 22.1775 49.9539 22.0666 49.9538ZM20.6153 49.3668C20.6153 49.1825 20.5606 49.0023 20.4582 48.8491C20.3558 48.6958 20.2103 48.5764 20.04 48.5059C19.8697 48.4353 19.6823 48.4169 19.5015 48.4528C19.3207 48.4888 19.1546 48.5775 19.0243 48.7079C18.8939 48.8382 18.8052 49.0042 18.7692 49.185C18.7332 49.3657 18.7517 49.5531 18.8222 49.7234C18.8928 49.8937 19.0122 50.0392 19.1655 50.1416C19.3188 50.244 19.499 50.2986 19.6833 50.2986C19.8058 50.299 19.9272 50.2752 20.0404 50.2285C20.1537 50.1818 20.2566 50.1132 20.3432 50.0266C20.4299 49.94 20.4985 49.8371 20.5452 49.7239C20.5919 49.6106 20.6157 49.4893 20.6153 49.3668ZM17.5143 46.6235C17.3138 46.6233 17.1176 46.6826 16.9508 46.7939C16.7839 46.9052 16.6538 47.0634 16.5769 47.2487C16.5 47.4339 16.4798 47.6378 16.5189 47.8345C16.5579 48.0312 16.6545 48.2119 16.7962 48.3537C16.938 48.4956 17.1187 48.5922 17.3154 48.6313C17.5122 48.6705 17.7161 48.6504 17.9014 48.5736C18.0867 48.4968 18.245 48.3668 18.3564 48.2C18.4678 48.0333 18.5272 47.8372 18.5271 47.6366C18.5263 47.3683 18.4193 47.1111 18.2296 46.9213C18.0399 46.7315 17.7827 46.6245 17.5143 46.6235ZM15.5851 44.5377C15.3674 44.5374 15.1545 44.6017 14.9733 44.7224C14.7922 44.8431 14.6509 45.0149 14.5674 45.2159C14.4839 45.4169 14.4619 45.6382 14.5043 45.8517C14.5466 46.0652 14.6513 46.2614 14.8052 46.4153C14.959 46.5693 15.1551 46.6742 15.3686 46.7167C15.5821 46.7593 15.8035 46.7375 16.0046 46.6542C16.2057 46.5709 16.3776 46.4298 16.4985 46.2488C16.6194 46.0678 16.6839 45.855 16.6838 45.6373C16.6838 45.3459 16.5681 45.0663 16.3621 44.8602C16.1561 44.654 15.8766 44.538 15.5851 44.5377ZM13.936 44.5885C14.1702 44.5887 14.3992 44.5194 14.5941 44.3895C14.7889 44.2595 14.9409 44.0747 15.0307 43.8584C15.1205 43.6421 15.1441 43.4041 15.0986 43.1743C15.053 42.9446 14.9404 42.7336 14.7749 42.5679C14.6094 42.4021 14.3984 42.2892 14.1687 42.2434C13.939 42.1976 13.7009 42.2209 13.4845 42.3104C13.268 42.3999 13.083 42.5516 12.9527 42.7462C12.8225 42.9409 12.753 43.1698 12.7529 43.404C12.7524 43.5595 12.7828 43.7136 12.8421 43.8574C12.9013 44.0012 12.9885 44.1318 13.0984 44.2419C13.2083 44.3519 13.3389 44.4392 13.4826 44.4987C13.6264 44.5582 13.7804 44.5887 13.936 44.5885ZM13.8557 40.976C13.8555 40.7255 13.781 40.4807 13.6417 40.2725C13.5024 40.0644 13.3045 39.9022 13.073 39.8064C12.8415 39.7107 12.5868 39.6857 12.3411 39.7347C12.0954 39.7836 11.8697 39.9043 11.6926 40.0815C11.5155 40.2586 11.3949 40.4843 11.3461 40.73C11.2972 40.9756 11.3223 41.2303 11.4181 41.4617C11.514 41.6931 11.6763 41.8909 11.8845 42.0302C12.0928 42.1694 12.3377 42.2437 12.5882 42.2438C12.9244 42.2437 13.2468 42.1101 13.4845 41.8723C13.7222 41.6346 13.8557 41.3122 13.8557 40.976ZM55.982 30.4166C55.962 30.4164 55.9428 30.4241 55.9284 30.4379C55.914 30.4518 55.9055 30.4707 55.9049 30.4906C55.9051 30.511 55.9133 30.5306 55.9277 30.5451C55.9421 30.5595 55.9616 30.5679 55.982 30.5683C55.9921 30.5681 56.002 30.566 56.0112 30.562C56.0204 30.5581 56.0287 30.5523 56.0357 30.5451C56.0427 30.5379 56.0482 30.5293 56.0518 30.52C56.0555 30.5106 56.0573 30.5007 56.0571 30.4906C56.0571 30.4808 56.0551 30.4711 56.0514 30.462C56.0476 30.453 56.042 30.4448 56.035 30.4379C56.0281 30.431 56.0198 30.4256 56.0107 30.4219C56.0016 30.4183 55.9918 30.4165 55.982 30.4166ZM55.1562 32.9932C55.1263 32.9929 55.097 33.0016 55.0721 33.0181C55.0472 33.0345 55.0277 33.058 55.0162 33.0855C55.0046 33.1131 55.0015 33.1434 55.0073 33.1727C55.013 33.202 55.0273 33.229 55.0484 33.2501C55.0695 33.2713 55.0964 33.2857 55.1257 33.2915C55.155 33.2974 55.1853 33.2944 55.2129 33.2829C55.2405 33.2715 55.264 33.2521 55.2806 33.2272C55.2971 33.2024 55.3059 33.1731 55.3058 33.1433C55.3059 33.1236 55.302 33.1041 55.2946 33.0859C55.2871 33.0677 55.2761 33.0511 55.2622 33.0372C55.2483 33.0232 55.2317 33.0121 55.2135 33.0046C55.1954 32.997 55.1759 32.9932 55.1562 32.9932ZM54.0559 35.4662C54.0109 35.4665 53.967 35.4801 53.9297 35.5054C53.8924 35.5306 53.8635 35.5663 53.8465 35.608C53.8295 35.6497 53.8252 35.6954 53.8342 35.7395C53.8432 35.7836 53.8651 35.8241 53.8971 35.8558C53.9291 35.8874 53.9697 35.9089 54.0139 35.9175C54.0581 35.9261 54.1038 35.9215 54.1453 35.9041C54.1869 35.8867 54.2223 35.8575 54.2472 35.82C54.2721 35.7825 54.2854 35.7384 54.2853 35.6934C54.2852 35.6634 54.2792 35.6338 54.2676 35.6061C54.256 35.5784 54.2391 35.5533 54.2178 35.5322C54.1965 35.511 54.1712 35.4943 54.1434 35.483C54.1156 35.4717 54.0859 35.466 54.0559 35.4662ZM52.6941 37.8139C52.6345 37.8141 52.5762 37.832 52.5267 37.8653C52.4771 37.8986 52.4386 37.9459 52.4159 38.0011C52.3933 38.0563 52.3875 38.1169 52.3993 38.1754C52.4111 38.2339 52.44 38.2876 52.4823 38.3297C52.5246 38.3718 52.5784 38.4004 52.637 38.4119C52.6955 38.4234 52.7562 38.4173 52.8113 38.3943C52.8664 38.3714 52.9134 38.3326 52.9465 38.2829C52.9795 38.2332 52.9971 38.1749 52.997 38.1152C52.997 38.0755 52.9891 38.0363 52.9738 37.9996C52.9585 37.963 52.9362 37.9298 52.9081 37.9018C52.8799 37.8738 52.8466 37.8516 52.8099 37.8365C52.7731 37.8215 52.7338 37.8138 52.6941 37.8139ZM51.0854 40.0007C51.0107 40.0013 50.9379 40.024 50.8761 40.0659C50.8143 40.1078 50.7662 40.167 50.738 40.2362C50.7098 40.3053 50.7027 40.3812 50.7176 40.4544C50.7325 40.5276 50.7687 40.5947 50.8216 40.6474C50.8746 40.7001 50.9419 40.7359 51.0152 40.7503C51.0884 40.7648 51.1644 40.7573 51.2334 40.7287C51.3023 40.7001 51.3614 40.6518 51.4029 40.5898C51.4445 40.5277 51.4668 40.4548 51.467 40.3801C51.4669 40.3301 51.457 40.2807 51.4378 40.2345C51.4186 40.1884 51.3904 40.1465 51.355 40.1112C51.3195 40.076 51.2775 40.0481 51.2312 40.0291C51.1849 40.0101 51.1354 40.0005 51.0854 40.0007ZM49.2463 42.0062C49.1563 42.0061 49.0684 42.0327 48.9936 42.0826C48.9187 42.1324 48.8604 42.2034 48.8259 42.2864C48.7914 42.3695 48.7823 42.4609 48.7998 42.5491C48.8173 42.6373 48.8605 42.7183 48.9241 42.782C48.9877 42.8456 49.0687 42.8889 49.1569 42.9065C49.2451 42.9241 49.3365 42.9151 49.4196 42.8807C49.5027 42.8463 49.5737 42.7881 49.6237 42.7133C49.6737 42.6386 49.7004 42.5507 49.7004 42.4607C49.7004 42.4011 49.6887 42.342 49.6659 42.2868C49.6431 42.2317 49.6097 42.1816 49.5675 42.1394C49.5254 42.0971 49.4753 42.0637 49.4202 42.0408C49.365 42.018 49.3059 42.0062 49.2463 42.0062ZM47.199 43.8104C47.0942 43.8108 46.992 43.8422 46.9051 43.9007C46.8182 43.9592 46.7507 44.0422 46.7109 44.1391C46.6712 44.236 46.6611 44.3425 46.6819 44.4451C46.7027 44.5478 46.7535 44.6419 46.8278 44.7157C46.9021 44.7895 46.9966 44.8396 47.0994 44.8597C47.2022 44.8798 47.3087 44.869 47.4053 44.8286C47.5019 44.7882 47.5844 44.7201 47.6424 44.6329C47.7003 44.5456 47.731 44.4431 47.7307 44.3384C47.7308 44.2687 47.7171 44.1998 47.6903 44.1354C47.6636 44.0711 47.6244 44.0127 47.5749 43.9636C47.5255 43.9145 47.4668 43.8757 47.4023 43.8494C47.3378 43.8231 47.2687 43.8098 47.199 43.8104ZM44.9637 45.38C44.8437 45.3794 44.7262 45.4144 44.6261 45.4806C44.5261 45.5468 44.4479 45.6412 44.4015 45.7518C44.3551 45.8625 44.3426 45.9844 44.3655 46.1022C44.3885 46.22 44.4459 46.3283 44.5304 46.4134C44.615 46.4986 44.7229 46.5567 44.8406 46.5804C44.9582 46.6042 45.0802 46.5925 45.1912 46.5469C45.3022 46.5013 45.3972 46.4237 45.464 46.3241C45.5309 46.2245 45.5667 46.1073 45.5669 45.9873C45.5667 45.827 45.5032 45.6733 45.3902 45.5596C45.2773 45.4459 45.124 45.3814 44.9637 45.38ZM42.538 46.6561C42.403 46.6558 42.2709 46.6956 42.1586 46.7704C42.0462 46.8451 41.9586 46.9516 41.9067 47.0762C41.8549 47.2008 41.8413 47.338 41.8675 47.4704C41.8937 47.6028 41.9586 47.7244 42.054 47.8199C42.1494 47.9153 42.271 47.9803 42.4034 48.0066C42.5358 48.033 42.673 48.0194 42.7977 47.9677C42.9224 47.916 43.0289 47.8284 43.1038 47.7161C43.1787 47.6038 43.2185 47.4719 43.2183 47.3369C43.2176 47.1566 43.1457 46.984 43.0183 46.8565C42.8909 46.729 42.7182 46.6569 42.538 46.6561ZM39.9527 47.6004C39.8025 47.5999 39.6555 47.644 39.5304 47.7271C39.4053 47.8102 39.3077 47.9285 39.2499 48.0672C39.1921 48.2058 39.1768 48.3584 39.2059 48.5058C39.235 48.6531 39.3072 48.7885 39.4134 48.8947C39.5195 49.001 39.6548 49.0734 39.8021 49.1027C39.9494 49.132 40.1021 49.1169 40.2409 49.0593C40.3796 49.0018 40.4981 48.9043 40.5814 48.7793C40.6647 48.6543 40.709 48.5075 40.7086 48.3573C40.7085 48.1568 40.6289 47.9645 40.4871 47.8226C40.3454 47.6807 40.1532 47.6008 39.9527 47.6004ZM37.2577 48.1973C37.0928 48.197 36.9315 48.2456 36.7942 48.3369C36.6569 48.4283 36.5499 48.5583 36.4865 48.7105C36.4231 48.8627 36.4063 49.0303 36.4382 49.1921C36.4702 49.3538 36.5493 49.5025 36.6657 49.6192C36.7822 49.736 36.9306 49.8156 37.0923 49.848C37.254 49.8804 37.4216 49.8642 37.5741 49.8013C37.7265 49.7384 37.8568 49.6317 37.9486 49.4948C38.0404 49.3578 38.0895 49.1967 38.0897 49.0318C38.0896 48.811 38.002 48.5992 37.846 48.4428C37.6901 48.2864 37.4785 48.1981 37.2577 48.1973ZM34.4974 48.4323C34.3177 48.4322 34.1421 48.4854 33.9926 48.5851C33.8432 48.6847 33.7266 48.8265 33.6577 48.9924C33.5888 49.1583 33.5706 49.3408 33.6054 49.5171C33.6403 49.6933 33.7266 49.8552 33.8534 49.9824C33.9803 50.1096 34.142 50.1964 34.3181 50.2317C34.4943 50.267 34.677 50.2494 34.8431 50.1809C35.0092 50.1125 35.1513 49.9964 35.2514 49.8472C35.3515 49.6981 35.4052 49.5226 35.4056 49.343C35.4059 49.1018 35.3103 48.8704 35.14 48.6997C34.9697 48.5289 34.7386 48.4328 34.4974 48.4323ZM32.7043 49.2912C32.7043 49.0967 32.6466 48.9065 32.5385 48.7447C32.4304 48.583 32.2768 48.4569 32.097 48.3825C31.9173 48.308 31.7195 48.2885 31.5286 48.3265C31.3378 48.3644 31.1625 48.4581 31.0249 48.5957C30.8873 48.7332 30.7937 48.9085 30.7557 49.0993C30.7177 49.2901 30.7372 49.4879 30.8117 49.6676C30.8861 49.8473 31.0122 50.001 31.174 50.109C31.3358 50.2171 31.526 50.2748 31.7206 50.2748C31.9813 50.2741 32.2311 50.1703 32.4154 49.986C32.5998 49.8016 32.7037 49.5519 32.7043 49.2912ZM30.0347 48.8796C30.0348 48.6701 29.9727 48.4652 29.8564 48.2908C29.74 48.1165 29.5746 47.9806 29.381 47.9003C29.1874 47.82 28.9743 47.7989 28.7687 47.8396C28.5631 47.8804 28.3742 47.9811 28.2259 48.1292C28.0776 48.2773 27.9765 48.466 27.9354 48.6715C27.8944 48.8771 27.9152 49.0901 27.9952 49.2838C28.0753 49.4775 28.211 49.6431 28.3851 49.7597C28.5593 49.8763 28.7642 49.9386 28.9738 49.9388C29.113 49.939 29.2509 49.9118 29.3796 49.8587C29.5084 49.8055 29.6253 49.7275 29.7239 49.6291C29.8224 49.5308 29.9006 49.4139 29.9539 49.2853C30.0072 49.1567 30.0347 49.0189 30.0347 48.8796ZM27.4422 48.1114C27.4422 47.8861 27.3754 47.6659 27.2502 47.4786C27.125 47.2913 26.9471 47.1453 26.739 47.0591C26.5308 46.9729 26.3018 46.9504 26.0808 46.9943C25.8599 47.0383 25.6569 47.1467 25.4976 47.306C25.3383 47.4653 25.2298 47.6682 25.1859 47.8892C25.1419 48.1101 25.1645 48.3391 25.2507 48.5472C25.3369 48.7553 25.4829 48.9332 25.6702 49.0584C25.8575 49.1835 26.0778 49.2503 26.3031 49.2503C26.4528 49.2506 26.601 49.2214 26.7394 49.1643C26.8777 49.1072 27.0035 49.0233 27.1093 48.9175C27.2151 48.8116 27.299 48.686 27.3562 48.5476C27.4133 48.4093 27.4425 48.261 27.4422 48.1114ZM24.9677 47.0025C24.9676 46.763 24.8965 46.5289 24.7633 46.3298C24.6301 46.1307 24.4409 45.9756 24.2195 45.884C23.9981 45.7925 23.7546 45.7686 23.5197 45.8155C23.2848 45.8624 23.069 45.9778 22.8997 46.1473C22.7305 46.3168 22.6152 46.5326 22.5687 46.7676C22.5221 47.0025 22.5463 47.246 22.6381 47.4672C22.7299 47.6884 22.8853 47.8774 23.0846 48.0103C23.2839 48.1432 23.5181 48.2141 23.7577 48.2139C23.9167 48.2139 24.0742 48.1826 24.2212 48.1218C24.3681 48.0609 24.5016 47.9716 24.614 47.8591C24.7264 47.7466 24.8155 47.613 24.8762 47.466C24.9369 47.319 24.968 47.1615 24.9677 47.0025ZM49.5719 10.095C49.5824 10.0959 49.5928 10.0946 49.6027 10.0912C49.6126 10.0878 49.6217 10.0824 49.6294 10.0753C49.6371 10.0682 49.6432 10.0596 49.6474 10.0501C49.6516 10.0405 49.6538 10.0302 49.6538 10.0197C49.6538 10.0092 49.6516 9.99891 49.6474 9.98934C49.6432 9.97977 49.6371 9.97117 49.6294 9.96409C49.6217 9.95701 49.6126 9.9516 49.6027 9.94821C49.5928 9.94482 49.5824 9.94351 49.5719 9.94438C49.553 9.94594 49.5354 9.95456 49.5226 9.96851C49.5097 9.98247 49.5026 10.0007 49.5026 10.0197C49.5026 10.0387 49.5097 10.0569 49.5226 10.0709C49.5354 10.0848 49.553 10.0935 49.5719 10.095ZM50.8664 12.6317C50.8964 12.6317 50.9257 12.6228 50.9506 12.6062C50.9756 12.5896 50.995 12.5659 51.0065 12.5382C51.018 12.5105 51.021 12.4801 51.0152 12.4506C51.0094 12.4212 50.995 12.3942 50.9738 12.373C50.9527 12.3517 50.9257 12.3372 50.8963 12.3313C50.8669 12.3254 50.8364 12.3284 50.8087 12.3398C50.781 12.3512 50.7572 12.3705 50.7405 12.3954C50.7238 12.4203 50.7148 12.4495 50.7147 12.4795C50.7144 12.4995 50.7181 12.5194 50.7257 12.538C50.7332 12.5565 50.7443 12.5734 50.7585 12.5876C50.7726 12.6018 50.7894 12.613 50.808 12.6206C50.8265 12.6281 50.8464 12.6319 50.8664 12.6317ZM51.8905 15.288C51.9354 15.2881 51.9793 15.2749 52.0167 15.2501C52.054 15.2252 52.0832 15.1898 52.1004 15.1484C52.1177 15.107 52.1222 15.0614 52.1136 15.0173C52.1049 14.9733 52.0833 14.9329 52.0516 14.9011C52.0199 14.8693 51.9795 14.8477 51.9355 14.8389C51.8915 14.8301 51.8459 14.8346 51.8044 14.8517C51.7629 14.8689 51.7275 14.8979 51.7025 14.9352C51.6776 14.9725 51.6643 15.0164 51.6643 15.0613C51.6642 15.091 51.67 15.1205 51.6814 15.148C51.6927 15.1755 51.7094 15.2005 51.7304 15.2216C51.7514 15.2426 51.7764 15.2593 51.8038 15.2707C51.8313 15.2821 51.8608 15.288 51.8905 15.288ZM52.6413 18.038C52.7014 18.0382 52.7602 18.0206 52.8103 17.9873C52.8603 17.9541 52.8994 17.9067 52.9225 17.8512C52.9456 17.7957 52.9517 17.7347 52.94 17.6757C52.9283 17.6168 52.8994 17.5626 52.8569 17.5201C52.8144 17.4776 52.7603 17.4487 52.7013 17.437C52.6423 17.4254 52.5813 17.4315 52.5258 17.4546C52.4703 17.4777 52.4229 17.5167 52.3896 17.5667C52.3564 17.6168 52.3387 17.6756 52.3389 17.7357C52.3389 17.7754 52.3466 17.8147 52.3618 17.8515C52.377 17.8882 52.3993 17.9215 52.4274 17.9496C52.4554 17.9777 52.4888 18 52.5255 18.0151C52.5622 18.0303 52.6016 18.0381 52.6413 18.038ZM52.7252 20.4748C52.7255 20.5496 52.748 20.6227 52.7898 20.6847C52.8316 20.7468 52.8909 20.795 52.9602 20.8234C53.0294 20.8518 53.1055 20.859 53.1789 20.8441C53.2522 20.8293 53.3195 20.793 53.3722 20.7399C53.425 20.6868 53.4608 20.6193 53.4752 20.5459C53.4895 20.4724 53.4818 20.3964 53.4529 20.3273C53.4241 20.2583 53.3754 20.1994 53.3131 20.158C53.2507 20.1166 53.1775 20.0946 53.1027 20.0948C53.0022 20.0952 52.9061 20.1355 52.8353 20.2067C52.7645 20.278 52.7249 20.3744 52.7252 20.4748ZM53.2756 22.791C53.1859 22.7912 53.0982 22.8179 53.0237 22.8679C52.9492 22.9179 52.8912 22.9888 52.8569 23.0717C52.8227 23.1546 52.8138 23.2458 52.8313 23.3338C52.8489 23.4218 52.8921 23.5026 52.9555 23.566C53.019 23.6294 53.0998 23.6727 53.1878 23.6902C53.2758 23.7078 53.367 23.6989 53.4499 23.6646C53.5329 23.6304 53.6038 23.5724 53.6538 23.4979C53.7037 23.4234 53.7305 23.3357 53.7307 23.246C53.7307 23.1253 53.6828 23.0096 53.5974 22.9242C53.5121 22.8389 53.3963 22.791 53.2756 22.791ZM53.155 25.4902C53.0499 25.4903 52.9472 25.5216 52.8599 25.5801C52.7725 25.6385 52.7045 25.7216 52.6644 25.8187C52.6243 25.9158 52.6139 26.0227 52.6346 26.1257C52.6552 26.2287 52.706 26.3233 52.7804 26.3975C52.8548 26.4717 52.9496 26.5221 53.0527 26.5425C53.1558 26.5628 53.2626 26.5521 53.3596 26.5117C53.4566 26.4714 53.5395 26.4031 53.5977 26.3157C53.6559 26.2282 53.6869 26.1254 53.6867 26.0203C53.6869 25.9505 53.6732 25.8814 53.6465 25.8169C53.6198 25.7525 53.5806 25.6939 53.5312 25.6446C53.4818 25.5953 53.4231 25.5563 53.3585 25.5298C53.2939 25.5033 53.2248 25.4899 53.155 25.4902ZM52.7402 28.1625C52.6205 28.1629 52.5035 28.1986 52.4041 28.2654C52.3047 28.3321 52.2273 28.4268 52.1816 28.5375C52.136 28.6482 52.1243 28.77 52.1478 28.8874C52.1714 29.0048 52.2292 29.1125 52.314 29.1971C52.3987 29.2816 52.5067 29.3392 52.6242 29.3624C52.7416 29.3857 52.8634 29.3736 52.974 29.3277C53.0846 29.2818 53.1791 29.2042 53.2456 29.1046C53.3121 29.005 53.3476 28.888 53.3476 28.7683C53.3477 28.6885 53.3321 28.6096 53.3016 28.5359C53.2711 28.4623 53.2263 28.3954 53.1699 28.3391C53.1134 28.2828 53.0464 28.2382 52.9727 28.2079C52.8989 28.1776 52.8199 28.1622 52.7402 28.1625ZM52.6605 31.4385C52.6604 31.3036 52.6203 31.1718 52.5452 31.0597C52.4701 30.9476 52.3635 30.8603 52.2388 30.8088C52.1141 30.7574 51.9769 30.744 51.8446 30.7705C51.7124 30.797 51.5909 30.8621 51.4957 30.9577C51.4004 31.0532 51.3356 31.1748 51.3095 31.3072C51.2834 31.4395 51.2972 31.5766 51.3491 31.7011C51.4009 31.8257 51.4886 31.932 51.6009 32.0067C51.7132 32.0814 51.8452 32.1211 51.9801 32.1208C52.0697 32.121 52.1584 32.1034 52.2411 32.0691C52.3239 32.0349 52.399 31.9846 52.4623 31.9212C52.5255 31.8578 52.5755 31.7825 52.6096 31.6996C52.6436 31.6168 52.6609 31.5281 52.6605 31.4385ZM50.8731 33.2303C50.7234 33.2303 50.577 33.2746 50.4526 33.3578C50.3281 33.441 50.231 33.5592 50.1738 33.6975C50.1165 33.8358 50.1015 33.988 50.1307 34.1348C50.1599 34.2816 50.232 34.4165 50.3378 34.5223C50.4437 34.6282 50.5786 34.7002 50.7254 34.7294C50.8723 34.7587 51.0245 34.7437 51.1628 34.6864C51.3011 34.6291 51.4194 34.5321 51.5025 34.4076C51.5857 34.2831 51.6301 34.1368 51.6301 33.9871C51.6302 33.8877 51.6108 33.7892 51.5728 33.6973C51.5348 33.6054 51.479 33.5219 51.4087 33.4516C51.3384 33.3813 51.2549 33.3256 51.163 33.2876C51.0711 33.2496 50.9726 33.2301 50.8731 33.2303ZM49.443 35.5361C49.2785 35.5363 49.1177 35.5852 48.981 35.6768C48.8443 35.7683 48.7378 35.8983 48.675 36.0504C48.6122 36.2024 48.5959 36.3696 48.6281 36.5309C48.6603 36.6922 48.7397 36.8404 48.8561 36.9566C48.9725 37.0729 49.1207 37.152 49.2821 37.184C49.4435 37.216 49.6107 37.1995 49.7627 37.1365C49.9147 37.0735 50.0446 36.9669 50.136 36.8301C50.2273 36.6933 50.2761 36.5325 50.2761 36.368C50.2761 36.2587 50.2546 36.1504 50.2127 36.0494C50.1708 35.9484 50.1094 35.8566 50.032 35.7794C49.9547 35.7021 49.8628 35.6408 49.7618 35.5991C49.6607 35.5573 49.5524 35.5359 49.443 35.5361ZM47.7116 37.6317C47.5319 37.6316 47.3562 37.6848 47.2067 37.7846C47.0573 37.8844 46.9408 38.0262 46.872 38.1922C46.8032 38.3582 46.7853 38.5409 46.8204 38.7171C46.8555 38.8933 46.9421 39.0552 47.0692 39.1822C47.1964 39.3092 47.3584 39.3956 47.5346 39.4305C47.7109 39.4654 47.8936 39.4472 48.0596 39.3782C48.2255 39.3093 48.3673 39.1927 48.4669 39.0431C48.5665 38.8936 48.6195 38.7178 48.6192 38.5382C48.6192 38.419 48.5958 38.3011 48.5501 38.191C48.5045 38.081 48.4376 37.981 48.3533 37.8968C48.269 37.8126 48.169 37.7459 48.0588 37.7004C47.9487 37.6549 47.8307 37.6316 47.7116 37.6317ZM45.7124 39.4814C45.5179 39.4814 45.3277 39.5391 45.1659 39.6472C45.0041 39.7553 44.878 39.9089 44.8036 40.0886C44.7291 40.2683 44.7096 40.4661 44.7476 40.6569C44.7855 40.8477 44.8792 41.023 45.0168 41.1606C45.1544 41.2981 45.3297 41.3918 45.5205 41.4297C45.7113 41.4677 45.9092 41.4482 46.0889 41.3738C46.2687 41.2993 46.4223 41.1733 46.5304 41.0115C46.6385 40.8497 46.6962 40.6596 46.6962 40.465C46.6962 40.2042 46.5926 39.954 46.4081 39.7695C46.2236 39.585 45.9734 39.4814 45.7124 39.4814ZM43.4798 41.0562C43.2704 41.0563 43.0656 41.1185 42.8915 41.2349C42.7174 41.3513 42.5817 41.5166 42.5016 41.7101C42.4214 41.9036 42.4004 42.1164 42.4412 42.3218C42.4821 42.5272 42.5828 42.7159 42.7309 42.864C42.8789 43.0122 43.0675 43.1131 43.2729 43.1541C43.4783 43.1951 43.6912 43.1744 43.8848 43.0944C44.0783 43.0145 44.2439 42.8789 44.3604 42.705C44.477 42.531 44.5394 42.3264 44.5397 42.117C44.5398 41.9777 44.5125 41.8398 44.4593 41.7111C44.4061 41.5824 44.328 41.4655 44.2296 41.367C44.1312 41.2685 44.0143 41.1903 43.8856 41.137C43.757 41.0837 43.6191 41.0562 43.4798 41.0562ZM41.0504 42.3246C40.8257 42.3244 40.6059 42.3908 40.419 42.5154C40.232 42.64 40.0861 42.8173 39.9999 43.0248C39.9136 43.2322 39.8908 43.4606 39.9344 43.681C39.9779 43.9015 40.0858 44.104 40.2444 44.2632C40.4031 44.4223 40.6053 44.5308 40.8257 44.575C41.046 44.6193 41.2745 44.5972 41.4822 44.5116C41.69 44.426 41.8678 44.2808 41.993 44.0942C42.1182 43.9077 42.1854 43.6882 42.1859 43.4635C42.1863 43.3141 42.1572 43.1661 42.1003 43.028C42.0435 42.8899 41.9599 42.7643 41.8544 42.6585C41.7489 42.5527 41.6236 42.4688 41.4857 42.4115C41.3477 42.3542 41.1998 42.3247 41.0504 42.3246ZM38.4651 43.2673C38.2255 43.2675 37.9913 43.3387 37.7922 43.472C37.5931 43.6053 37.438 43.7946 37.3464 44.016C37.2549 44.2374 37.2311 44.4809 37.278 44.7159C37.3249 44.9508 37.4404 45.1666 37.61 45.3358C37.7795 45.5051 37.9955 45.6204 38.2305 45.667C38.4655 45.7136 38.7091 45.6895 38.9304 45.5977C39.1517 45.5059 39.3409 45.3505 39.4739 45.1512C39.6069 44.952 39.6779 44.7178 39.6778 44.4782C39.6775 44.1569 39.5496 43.8488 39.3222 43.6217C39.0948 43.3946 38.7865 43.2672 38.4651 43.2673ZM30.5654 0.15116C30.5803 0.150955 30.5948 0.146363 30.6071 0.137957C30.6193 0.129551 30.6289 0.117707 30.6345 0.103909C30.64 0.0901115 30.6414 0.0749741 30.6384 0.0603953C30.6354 0.0458164 30.6282 0.0324448 30.6176 0.021957C30.6071 0.0114693 30.5937 0.00433213 30.5791 0.00144048C30.5645 -0.00145117 30.5493 3.13565e-05 30.5356 0.00570219C30.5218 0.011373 30.51 0.0209798 30.5017 0.0333179C30.4934 0.045656 30.4889 0.0601765 30.4888 0.0750585C30.4888 0.085096 30.4908 0.0950343 30.4946 0.104301C30.4985 0.113568 30.5041 0.121981 30.5113 0.129054C30.5184 0.136127 30.5268 0.141722 30.5361 0.145516C30.5454 0.14931 30.5554 0.151228 30.5654 0.15116ZM33.2175 1.05298C33.2474 1.05278 33.2766 1.04372 33.3014 1.02695C33.3262 1.01018 33.3455 0.986455 33.3568 0.958751C33.3682 0.931047 33.3711 0.900607 33.3651 0.871266C33.3592 0.841925 33.3447 0.814993 33.3235 0.793863C33.3023 0.772732 33.2753 0.758347 33.246 0.75252C33.2166 0.746692 33.1862 0.749682 33.1585 0.761113C33.1308 0.772545 33.1071 0.791906 33.0905 0.816759C33.0738 0.841613 33.0648 0.870847 33.0647 0.90078C33.0646 0.920831 33.0686 0.940696 33.0762 0.959227C33.0839 0.977758 33.0951 0.994587 33.1093 1.00874C33.1235 1.02289 33.1404 1.03409 33.159 1.04169C33.1775 1.04928 33.1974 1.05312 33.2175 1.05298ZM35.7691 2.22608C35.814 2.22597 35.858 2.21253 35.8953 2.18745C35.9326 2.16237 35.9617 2.12678 35.9788 2.08518C35.9959 2.04359 36.0003 1.99785 35.9913 1.95377C35.9824 1.90969 35.9606 1.86925 35.9287 1.83756C35.8968 1.80587 35.8562 1.78436 35.8121 1.77575C35.7679 1.76714 35.7222 1.77182 35.6807 1.78919C35.6392 1.80657 35.6038 1.83586 35.579 1.87336C35.5542 1.91085 35.541 1.95487 35.5412 1.99984C35.5415 2.06003 35.5657 2.11765 35.6084 2.16006C35.6511 2.20247 35.7089 2.22621 35.7691 2.22608ZM38.1902 3.66475C38.25 3.66454 38.3085 3.64661 38.3582 3.61321C38.4079 3.5798 38.4465 3.53243 38.4693 3.47708C38.4921 3.42172 38.4979 3.36086 38.4861 3.30218C38.4743 3.2435 38.4454 3.18964 38.403 3.14739C38.3606 3.10514 38.3066 3.07639 38.2479 3.06479C38.1891 3.05319 38.1283 3.05925 38.073 3.0822C38.0177 3.10515 37.9705 3.14397 37.9372 3.19375C37.904 3.24353 37.8862 3.30204 37.8862 3.3619C37.8862 3.40178 37.894 3.44127 37.9093 3.47811C37.9245 3.51496 37.9469 3.54842 37.9752 3.57657C38.0034 3.60472 38.037 3.627 38.0739 3.64213C38.1108 3.65727 38.1503 3.66495 38.1902 3.66475ZM40.4534 5.34725C40.528 5.34725 40.601 5.32512 40.6631 5.28365C40.7252 5.24218 40.7735 5.18324 40.8021 5.11428C40.8307 5.04532 40.8382 4.96944 40.8236 4.89623C40.809 4.82302 40.7731 4.75577 40.7203 4.70299C40.6675 4.65021 40.6002 4.61427 40.527 4.59971C40.4538 4.58515 40.3779 4.59262 40.3089 4.62118C40.24 4.64975 40.181 4.69812 40.1395 4.76018C40.0981 4.82225 40.0759 4.89521 40.0759 4.96986C40.0758 5.01945 40.0855 5.06859 40.1044 5.11444C40.1233 5.16029 40.1511 5.20195 40.1862 5.23702C40.2213 5.27209 40.2629 5.29989 40.3088 5.3188C40.3546 5.33772 40.4038 5.34739 40.4534 5.34725ZM42.5348 7.26324C42.6249 7.26375 42.7132 7.23751 42.7883 7.18785C42.8635 7.13818 42.9223 7.06732 42.9571 6.98425C42.992 6.90117 43.0014 6.80963 42.9842 6.7212C42.9669 6.63277 42.9238 6.55145 42.8604 6.48753C42.7969 6.42361 42.7158 6.37997 42.6275 6.36214C42.5392 6.34431 42.4475 6.3531 42.3642 6.38738C42.2809 6.42167 42.2096 6.47991 42.1594 6.55473C42.1093 6.62955 42.0824 6.71758 42.0823 6.80767C42.0823 6.92796 42.1299 7.04337 42.2147 7.12871C42.2994 7.21406 42.4145 7.26242 42.5348 7.26324ZM44.4149 9.38579C44.5199 9.38558 44.6225 9.35422 44.7097 9.29567C44.7969 9.23712 44.8648 9.15403 44.9047 9.0569C44.9447 8.95977 44.9549 8.85297 44.9341 8.75004C44.9132 8.6471 44.8624 8.55266 44.7878 8.47865C44.7133 8.40465 44.6185 8.35442 44.5154 8.33432C44.4123 8.31422 44.3056 8.32516 44.2087 8.36575C44.1119 8.40634 44.0292 8.47476 43.9712 8.56234C43.9133 8.64992 43.8826 8.75272 43.8831 8.85774C43.8837 8.99824 43.94 9.13279 44.0397 9.2318C44.1394 9.33081 44.2744 9.3862 44.4149 9.38579ZM46.0635 11.6999C46.1834 11.6998 46.3005 11.6641 46.4002 11.5975C46.4998 11.5308 46.5774 11.4362 46.6232 11.3254C46.6691 11.2147 46.681 11.0928 46.6576 10.9753C46.6342 10.8577 46.5765 10.7497 46.4917 10.665C46.4069 10.5802 46.299 10.5225 46.1814 10.4991C46.0638 10.4757 45.942 10.4877 45.8312 10.5335C45.7204 10.5793 45.6257 10.6569 45.5591 10.7565C45.4924 10.8562 45.4568 10.9733 45.4567 11.0931C45.4565 11.1729 45.4721 11.2518 45.5026 11.3255C45.533 11.3992 45.5777 11.4661 45.6341 11.5225C45.6905 11.5788 45.7574 11.6235 45.8311 11.654C45.9048 11.6844 45.9838 11.7 46.0635 11.6999ZM47.4144 14.1998C47.5489 14.1993 47.6803 14.159 47.7919 14.0838C47.9036 14.0087 47.9904 13.9022 48.0416 13.7778C48.0927 13.6533 48.1058 13.5165 48.0793 13.3847C48.0527 13.2528 47.9876 13.1317 47.8923 13.0368C47.797 12.9418 47.6757 12.8772 47.5437 12.8512C47.4117 12.8251 47.2749 12.8388 47.1506 12.8904C47.0264 12.942 46.9202 13.0292 46.8455 13.1411C46.7708 13.253 46.7309 13.3845 46.7309 13.5191C46.731 13.6086 46.7488 13.6973 46.7833 13.78C46.8177 13.8627 46.8681 13.9378 46.9315 14.001C46.995 14.0643 47.0703 14.1144 47.1532 14.1485C47.236 14.1826 47.3248 14.2 47.4144 14.1998ZM47.6769 16.1003C47.6765 16.2501 47.7205 16.3968 47.8035 16.5216C47.8865 16.6464 48.0046 16.7438 48.1429 16.8014C48.2813 16.8591 48.4336 16.8744 48.5807 16.8455C48.7278 16.8165 48.8629 16.7446 48.9691 16.6388C49.0753 16.533 49.1477 16.3981 49.1771 16.2512C49.2066 16.1042 49.1918 15.9519 49.1346 15.8133C49.0774 15.6748 48.9804 15.5564 48.8558 15.473C48.7313 15.3896 48.5848 15.3451 48.4349 15.345C48.3355 15.3446 48.237 15.3639 48.145 15.4017C48.0531 15.4395 47.9695 15.4951 47.8991 15.5653C47.8286 15.6354 47.7728 15.7188 47.7346 15.8106C47.6965 15.9024 47.6769 16.0009 47.6769 16.1003ZM48.2734 18.7985C48.2737 18.9632 48.3228 19.124 48.4145 19.2608C48.5062 19.3976 48.6364 19.5041 48.7886 19.5669C48.9408 19.6297 49.1083 19.646 49.2698 19.6138C49.4312 19.5815 49.5795 19.5021 49.6959 19.3856C49.8123 19.2691 49.8915 19.1207 49.9236 18.9592C49.9557 18.7977 49.9392 18.6303 49.8762 18.4782C49.8131 18.3261 49.7064 18.196 49.5695 18.1045C49.4326 18.013 49.2717 17.9641 49.107 17.964C48.9973 17.9636 48.8887 17.985 48.7873 18.0268C48.686 18.0687 48.5939 18.1301 48.5164 18.2077C48.4389 18.2853 48.3775 18.3774 48.3358 18.4788C48.2941 18.5802 48.2729 18.6889 48.2734 18.7985ZM48.5079 21.5573C48.508 21.7372 48.5615 21.9131 48.6616 22.0626C48.7616 22.2121 48.9038 22.3286 49.0701 22.3974C49.2364 22.4661 49.4194 22.484 49.5958 22.4487C49.7723 22.4135 49.9343 22.3267 50.0615 22.1994C50.1886 22.0721 50.2751 21.9099 50.3101 21.7334C50.345 21.5569 50.3268 21.374 50.2578 21.2078C50.1888 21.0417 50.072 20.8997 49.9223 20.7999C49.7725 20.7001 49.5966 20.647 49.4166 20.6472C49.2971 20.6472 49.1789 20.6707 49.0685 20.7165C48.9582 20.7622 48.8579 20.8293 48.7735 20.9138C48.6891 20.9984 48.6222 21.0987 48.5766 21.2091C48.5311 21.3195 48.5077 21.4378 48.5079 21.5573ZM50.3491 24.3316C50.3491 24.1371 50.2914 23.9469 50.1833 23.7851C50.0752 23.6234 49.9216 23.4973 49.7418 23.4229C49.5621 23.3484 49.3643 23.3289 49.1734 23.3669C48.9826 23.4048 48.8073 23.4985 48.6697 23.6361C48.5321 23.7737 48.4384 23.9489 48.4005 24.1397C48.3625 24.3305 48.382 24.5283 48.4565 24.708C48.5309 24.8878 48.657 25.0414 48.8188 25.1495C48.9806 25.2575 49.1708 25.3152 49.3654 25.3152C49.6263 25.3152 49.8765 25.2116 50.061 25.0271C50.2455 24.8427 50.3491 24.5925 50.3491 24.3316ZM50.0126 27.079C50.0125 26.8694 49.9502 26.6644 49.8336 26.4902C49.7169 26.3159 49.5512 26.1802 49.3574 26.1001C49.1637 26.0201 48.9505 25.9993 48.7448 26.0404C48.5392 26.0815 48.3504 26.1827 48.2023 26.3311C48.0542 26.4795 47.9535 26.6686 47.9129 26.8743C47.8723 27.0799 47.8936 27.2931 47.9741 27.4866C48.0547 27.6802 48.1908 27.8455 48.3654 27.9617C48.54 28.0779 48.7451 28.1397 48.9548 28.1393C49.2356 28.1388 49.5048 28.0269 49.7032 27.8281C49.9016 27.6293 50.0128 27.3598 50.0126 27.079ZM49.3239 29.7482C49.3239 29.5237 49.2574 29.3043 49.1327 29.1175C49.008 28.9308 48.8308 28.7852 48.6234 28.6992C48.416 28.6131 48.1877 28.5905 47.9674 28.634C47.7472 28.6776 47.5447 28.7855 47.3857 28.944C47.2268 29.1025 47.1183 29.3046 47.0741 29.5248C47.03 29.7449 47.052 29.9732 47.1375 30.1808C47.223 30.3884 47.3681 30.566 47.5545 30.6911C47.7409 30.8163 47.9603 30.8835 48.1848 30.8841C48.3342 30.8844 48.4823 30.8553 48.6204 30.7984C48.7586 30.7414 48.8842 30.6578 48.99 30.5523C49.0958 30.4468 49.1797 30.3215 49.237 30.1835C49.2943 30.0456 49.3239 29.8976 49.3239 29.7482ZM47.0778 31.0823C46.8382 31.0828 46.604 31.1542 46.405 31.2876C46.2059 31.421 46.0509 31.6104 45.9594 31.8319C45.868 32.0534 45.8443 32.297 45.8913 32.532C45.9383 32.7669 46.0539 32.9827 46.2235 33.152C46.3931 33.3212 46.6091 33.4365 46.8442 33.483C47.0792 33.5296 47.3229 33.5055 47.5442 33.4137C47.7656 33.3219 47.9548 33.1666 48.0879 32.9674C48.221 32.7681 48.292 32.5339 48.292 32.2943C48.2919 32.135 48.2605 31.9772 48.1994 31.8301C48.1383 31.6829 48.0489 31.5493 47.9361 31.4367C47.8233 31.3242 47.6895 31.2349 47.5422 31.1741C47.395 31.1133 47.2371 31.0821 47.0778 31.0823ZM10.0915 6.55711C10.1114 6.55711 10.1305 6.5492 10.1446 6.53512C10.1587 6.52104 10.1666 6.50195 10.1666 6.48204C10.1664 6.46208 10.1585 6.44295 10.1445 6.42874C10.1305 6.41452 10.1115 6.40634 10.0915 6.40594C10.0713 6.40594 10.0519 6.41396 10.0377 6.42823C10.0234 6.4425 10.0154 6.46186 10.0154 6.48204C10.0153 6.492 10.0172 6.50188 10.021 6.51109C10.0249 6.5203 10.0305 6.52865 10.0376 6.53565C10.0447 6.54264 10.0531 6.54815 10.0624 6.55184C10.0716 6.55552 10.0815 6.55731 10.0915 6.55711ZM12.5494 5.34156C12.5792 5.34135 12.6082 5.33232 12.6329 5.3156C12.6576 5.29887 12.6767 5.27521 12.6879 5.24761C12.6991 5.22 12.7019 5.18969 12.6959 5.16051C12.6899 5.13133 12.6754 5.10458 12.6541 5.08366C12.6329 5.06274 12.606 5.04857 12.5767 5.04296C12.5474 5.03735 12.5172 5.04054 12.4897 5.05213C12.4623 5.06372 12.4389 5.08319 12.4225 5.10808C12.4061 5.13297 12.3975 5.16215 12.3977 5.19195C12.3978 5.21173 12.4018 5.23129 12.4095 5.24952C12.4172 5.26774 12.4284 5.28428 12.4425 5.29817C12.4566 5.31206 12.4733 5.32304 12.4916 5.33049C12.51 5.33793 12.5296 5.3417 12.5494 5.34156ZM15.1305 4.39211C15.1758 4.39252 15.2202 4.37944 15.2581 4.35453C15.2959 4.32963 15.3255 4.29403 15.3431 4.25226C15.3606 4.21049 15.3653 4.16444 15.3566 4.11997C15.3479 4.07551 15.3262 4.03464 15.2942 4.00257C15.2622 3.97049 15.2214 3.94866 15.1769 3.93986C15.1325 3.93106 15.0864 3.93568 15.0446 3.95314C15.0028 3.97059 14.9671 4.00009 14.9421 4.03789C14.9171 4.07568 14.9039 4.12005 14.9042 4.16536C14.9042 4.22541 14.928 4.283 14.9705 4.32551C15.0129 4.36802 15.0704 4.39197 15.1305 4.39211ZM17.8053 3.71807C17.8652 3.71776 17.9237 3.6997 17.9733 3.66617C18.023 3.63264 18.0616 3.58514 18.0842 3.52968C18.1068 3.47423 18.1125 3.4133 18.1005 3.35462C18.0885 3.29593 18.0594 3.24212 18.0168 3.19998C17.9743 3.15784 17.9202 3.12928 17.8613 3.11789C17.8025 3.10651 17.7416 3.11282 17.6864 3.13602C17.6312 3.15923 17.5841 3.19829 17.5511 3.24826C17.518 3.29823 17.5006 3.35688 17.5009 3.41677C17.5008 3.45662 17.5086 3.49609 17.524 3.53288C17.5393 3.56967 17.5617 3.60305 17.5901 3.63108C17.6184 3.65912 17.652 3.68124 17.689 3.69618C17.7259 3.71111 17.7655 3.71855 17.8053 3.71807ZM20.5444 3.33032C20.6191 3.33011 20.6922 3.30777 20.7542 3.26611C20.8163 3.22445 20.8647 3.16533 20.8932 3.09623C20.9217 3.02712 20.9291 2.95112 20.9145 2.8778C20.8999 2.80449 20.8638 2.73715 20.811 2.68429C20.7581 2.63143 20.6907 2.59541 20.6174 2.58077C20.5441 2.56614 20.4681 2.57355 20.399 2.60206C20.3298 2.63057 20.2707 2.67892 20.229 2.74099C20.1874 2.80307 20.165 2.87609 20.1648 2.95085C20.1646 3.00076 20.1742 3.05023 20.1932 3.09639C20.2121 3.14255 20.2401 3.18449 20.2754 3.21979C20.3107 3.25508 20.3526 3.28302 20.3988 3.30199C20.445 3.32097 20.4944 3.33059 20.5444 3.33032ZM23.3171 3.23454C23.407 3.23434 23.4948 3.20748 23.5694 3.15737C23.6441 3.10725 23.7022 3.03613 23.7364 2.953C23.7706 2.86986 23.7794 2.77845 23.7617 2.69032C23.7439 2.60219 23.7005 2.5213 23.6367 2.45787C23.573 2.39445 23.4919 2.35135 23.4037 2.33401C23.3155 2.31667 23.2241 2.32588 23.1411 2.36047C23.0581 2.39506 22.9872 2.45348 22.9375 2.52835C22.8877 2.60321 22.8612 2.69115 22.8614 2.78105C22.8612 2.84083 22.8729 2.90007 22.8957 2.95532C22.9186 3.01057 22.9522 3.06073 22.9945 3.10291C23.0369 3.14509 23.0872 3.17845 23.1426 3.20104C23.198 3.22364 23.2573 3.23502 23.3171 3.23454ZM26.0923 3.42868C26.1971 3.42889 26.2997 3.398 26.3869 3.33993C26.4741 3.28186 26.5422 3.19922 26.5824 3.10247C26.6227 3.00571 26.6333 2.8992 26.613 2.7964C26.5927 2.69359 26.5423 2.59913 26.4683 2.52496C26.3942 2.45079 26.2999 2.40025 26.1971 2.37973C26.0943 2.35921 25.9878 2.36964 25.8909 2.40969C25.7941 2.44975 25.7113 2.51763 25.653 2.60474C25.5948 2.69186 25.5637 2.79429 25.5637 2.89908C25.5633 2.96864 25.5768 3.03757 25.6032 3.10191C25.6296 3.16625 25.6686 3.22473 25.7177 3.27396C25.7668 3.32319 25.8252 3.36221 25.8895 3.38877C25.9538 3.41532 26.0228 3.42889 26.0923 3.42868ZM28.8402 3.92049C28.9599 3.92049 29.077 3.885 29.1766 3.81852C29.2762 3.75203 29.3538 3.65752 29.3997 3.54694C29.4456 3.43635 29.4577 3.31464 29.4344 3.19719C29.4112 3.07974 29.3537 2.97181 29.2691 2.88704C29.1845 2.80227 29.0767 2.74446 28.9593 2.72091C28.8419 2.69737 28.7201 2.70914 28.6094 2.75475C28.4987 2.80035 28.404 2.87775 28.3372 2.97715C28.2705 3.07655 28.2347 3.1935 28.2344 3.31323C28.234 3.39296 28.2493 3.47199 28.2796 3.54575C28.3099 3.61951 28.3545 3.68654 28.4108 3.74299C28.4671 3.79944 28.5341 3.84419 28.6077 3.87465C28.6814 3.90512 28.7604 3.9207 28.8402 3.92049ZM31.5114 4.7576C31.6462 4.7577 31.7779 4.71785 31.89 4.64307C32.0021 4.5683 32.0896 4.46196 32.1412 4.33751C32.1929 4.21306 32.2065 4.07609 32.1803 3.94391C32.1541 3.81174 32.0893 3.69029 31.9941 3.59494C31.8989 3.49959 31.7775 3.43461 31.6453 3.40822C31.5132 3.38183 31.3762 3.39522 31.2516 3.44669C31.1271 3.49816 31.0206 3.5854 30.9456 3.69738C30.8707 3.80936 30.8306 3.94105 30.8305 4.0758C30.8312 4.25624 30.9031 4.4291 31.0306 4.55679C31.1581 4.68448 31.3309 4.75665 31.5114 4.7576ZM34.0594 5.93846C34.2093 5.93897 34.356 5.89499 34.4809 5.81208C34.6058 5.72917 34.7033 5.61106 34.761 5.47271C34.8188 5.33436 34.8342 5.182 34.8052 5.03491C34.7763 4.88782 34.7043 4.75262 34.5985 4.64644C34.4927 4.54026 34.3577 4.46787 34.2107 4.43844C34.0637 4.409 33.9112 4.42385 33.7727 4.4811C33.6341 4.53834 33.5156 4.63542 33.4323 4.76003C33.3489 4.88463 33.3044 5.03117 33.3044 5.18107C33.3042 5.28038 33.3236 5.37874 33.3614 5.47056C33.3993 5.56237 33.4548 5.64583 33.5249 5.71617C33.5951 5.7865 33.6783 5.84234 33.77 5.88048C33.8617 5.91862 33.96 5.93832 34.0594 5.93846ZM35.6075 6.61146C35.6073 6.77615 35.656 6.9372 35.7473 7.07423C35.8387 7.21126 35.9686 7.31812 36.1208 7.38129C36.2729 7.44445 36.4403 7.46108 36.6019 7.42908C36.7635 7.39708 36.9119 7.31788 37.0285 7.2015C37.145 7.08512 37.2244 6.93679 37.2566 6.77528C37.2888 6.61378 37.2724 6.44634 37.2094 6.29417C37.1464 6.142 37.0397 6.01193 36.9028 5.92041C36.7658 5.8289 36.6048 5.78005 36.4401 5.78005C36.3308 5.77998 36.2226 5.80143 36.1216 5.84318C36.0207 5.88492 35.9289 5.94614 35.8516 6.02335C35.7743 6.10055 35.7129 6.19223 35.671 6.29314C35.6292 6.39404 35.6076 6.50221 35.6075 6.61146ZM38.6132 9.2517C38.7926 9.25119 38.9679 9.19754 39.1169 9.09752C39.2659 8.9975 39.3819 8.8556 39.4503 8.68973C39.5186 8.52385 39.5364 8.34144 39.5011 8.16551C39.4659 7.98958 39.3794 7.82802 39.2524 7.70123C39.1255 7.57443 38.9638 7.48809 38.7878 7.45308C38.6118 7.41808 38.4294 7.43599 38.2636 7.50456C38.0977 7.57312 37.9559 7.68927 37.8561 7.83833C37.7562 7.98739 37.7027 8.1627 37.7024 8.34211C37.7024 8.46167 37.7259 8.58006 37.7716 8.69052C37.8174 8.80097 37.8845 8.90132 37.9691 8.98581C38.0537 9.0703 38.1541 9.13727 38.2647 9.1829C38.3752 9.22853 38.4936 9.25191 38.6132 9.2517ZM40.5419 11.3271C40.7365 11.3271 40.9267 11.2694 41.0885 11.1614C41.2503 11.0533 41.3764 10.8997 41.4508 10.7199C41.5253 10.5402 41.5448 10.3424 41.5068 10.1516C41.4688 9.96082 41.3751 9.78556 41.2376 9.648C41.1 9.51044 40.9247 9.41675 40.7338 9.3788C40.543 9.34085 40.3452 9.36033 40.1654 9.43477C39.9857 9.50922 39.832 9.63529 39.7239 9.79705C39.6158 9.95881 39.5581 10.149 39.5581 10.3435C39.5581 10.6044 39.6618 10.8546 39.8463 11.039C40.0308 11.2235 40.281 11.3271 40.5419 11.3271ZM42.1895 11.5151C41.9799 11.5151 41.7749 11.5772 41.6006 11.6937C41.4263 11.8101 41.2905 11.9756 41.2103 12.1692C41.1301 12.3629 41.1091 12.576 41.15 12.7815C41.1909 12.9871 41.2918 13.1759 41.44 13.3241C41.5883 13.4723 41.7771 13.5732 41.9827 13.6141C42.1883 13.655 42.4014 13.634 42.5951 13.5538C42.7888 13.4736 42.9543 13.3378 43.0708 13.1635C43.1872 12.9893 43.2494 12.7844 43.2494 12.5748C43.2494 12.4356 43.2221 12.2978 43.1688 12.1692C43.1156 12.0406 43.0375 11.9237 42.9391 11.8253C42.8407 11.7269 42.7238 11.6488 42.5952 11.5956C42.4665 11.5424 42.3287 11.515 42.1895 11.5151ZM42.4013 15.0054C42.4016 15.2297 42.4684 15.4489 42.5933 15.6352C42.7182 15.8216 42.8955 15.9667 43.1029 16.0523C43.3103 16.1379 43.5384 16.16 43.7584 16.116C43.9783 16.072 44.1803 15.9637 44.3388 15.8049C44.4973 15.6461 44.6051 15.4439 44.6486 15.2239C44.6921 15.0038 44.6694 14.7758 44.5834 14.5687C44.4973 14.3615 44.3517 14.1845 44.1651 14.0601C43.9784 13.9356 43.759 13.8693 43.5347 13.8695C43.3856 13.8695 43.238 13.8988 43.1003 13.9559C42.9625 14.013 42.8375 14.0967 42.7322 14.2022C42.6269 14.3077 42.5434 14.433 42.4867 14.5708C42.4299 14.7086 42.4008 14.8563 42.4013 15.0054ZM43.3415 17.5871C43.3413 17.8265 43.4121 18.0607 43.545 18.2599C43.6779 18.4591 43.8668 18.6145 44.088 18.7063C44.3091 18.7982 44.5526 18.8225 44.7875 18.776C45.0224 18.7296 45.2383 18.6145 45.4079 18.4455C45.5774 18.2764 45.6931 18.0608 45.7401 17.826C45.7871 17.5912 45.7635 17.3478 45.6722 17.1264C45.5809 16.9051 45.426 16.7157 45.2271 16.5824C45.0282 16.449 44.7942 16.3777 44.5547 16.3772C44.2334 16.3771 43.9253 16.5044 43.6978 16.7313C43.4704 16.9581 43.3422 17.2659 43.3415 17.5871ZM45.2211 18.9942C44.9664 18.9941 44.7173 19.0695 44.5055 19.2109C44.2937 19.3523 44.1286 19.5534 44.031 19.7886C43.9335 20.0239 43.9079 20.2828 43.9575 20.5326C44.0072 20.7823 44.1297 21.0118 44.3098 21.1919C44.4899 21.372 44.7193 21.4947 44.9691 21.5444C45.2189 21.5941 45.4779 21.5687 45.7132 21.4712C45.9485 21.3738 46.1497 21.2088 46.2912 20.997C46.4327 20.7853 46.5083 20.5364 46.5083 20.2817C46.5081 19.9404 46.3725 19.613 46.1311 19.3716C45.8898 19.1302 45.5625 18.9945 45.2211 18.9942ZM0.143448 25.3458C0.123992 25.3446 0.104502 25.3474 0.0861768 25.3541C0.0678512 25.3607 0.0510774 25.371 0.0368867 25.3844C0.022696 25.3977 0.0113885 25.4139 0.00365946 25.4317C-0.00406955 25.4496 -0.00805664 25.4689 -0.00805664 25.4884C-0.00805664 25.5079 -0.00406955 25.5272 0.00365946 25.5451C0.0113885 25.5629 0.022696 25.5791 0.0368867 25.5924C0.0510774 25.6058 0.0678512 25.6161 0.0861768 25.6227C0.104502 25.6294 0.123992 25.6322 0.143448 25.631C0.162903 25.6322 0.182393 25.6294 0.200719 25.6227C0.219044 25.6161 0.235818 25.6058 0.250009 25.5924C0.264199 25.5791 0.275507 25.5629 0.283236 25.5451C0.290965 25.5272 0.294952 25.5079 0.294952 25.4884C0.294952 25.4689 0.290965 25.4496 0.283236 25.4317C0.275507 25.4139 0.264199 25.3977 0.250009 25.3844C0.235818 25.371 0.219044 25.3607 0.200719 25.3541C0.182393 25.3474 0.162903 25.3446 0.143448 25.3458ZM0.970855 22.5513C0.914283 22.551 0.858893 22.5674 0.811699 22.5986C0.764505 22.6298 0.72763 22.6743 0.705744 22.7265C0.683858 22.7786 0.677945 22.8361 0.688756 22.8916C0.699566 22.9472 0.726612 22.9982 0.766469 23.0384C0.806327 23.0785 0.857202 23.1059 0.912652 23.1171C0.968102 23.1283 1.02563 23.1228 1.07796 23.1013C1.13028 23.0798 1.17505 23.0433 1.20658 22.9963C1.23812 22.9494 1.25501 22.8941 1.25511 22.8375C1.25485 22.7621 1.22488 22.6897 1.17168 22.6361C1.11849 22.5826 1.04635 22.5521 0.970855 22.5513ZM2.49881 20.2869C2.49912 20.2019 2.4742 20.1187 2.42721 20.0478C2.38022 19.977 2.31327 19.9217 2.23484 19.8889C2.1564 19.8561 2.06999 19.8473 1.98655 19.8636C1.90312 19.8799 1.82639 19.9206 1.7661 19.9806C1.7058 20.0405 1.66463 20.117 1.64781 20.2003C1.63098 20.2836 1.63925 20.37 1.67157 20.4487C1.7039 20.5273 1.75882 20.5946 1.82939 20.642C1.89996 20.6894 1.983 20.7148 2.06802 20.715C2.18187 20.7151 2.29113 20.6702 2.37188 20.5899C2.45262 20.5097 2.49827 20.4007 2.49881 20.2869ZM3.42978 18.4366C3.54242 18.4366 3.65254 18.4032 3.7462 18.3407C3.83987 18.2781 3.91287 18.1891 3.95597 18.0851C3.99908 17.981 4.01036 17.8665 3.98839 17.7561C3.96641 17.6456 3.91216 17.5441 3.83251 17.4645C3.75286 17.3849 3.65137 17.3306 3.54089 17.3086C3.43041 17.2867 3.31589 17.298 3.21182 17.3411C3.10774 17.3842 3.01879 17.4571 2.95621 17.5508C2.89362 17.6444 2.86022 17.7545 2.86022 17.8672C2.86104 18.0179 2.92131 18.1623 3.02794 18.2689C3.13458 18.3756 3.27897 18.4358 3.42978 18.4366ZM5.03954 16.3156C5.18081 16.3157 5.31892 16.2739 5.43642 16.1955C5.55392 16.1171 5.64552 16.0056 5.69962 15.8752C5.75373 15.7447 5.76791 15.6011 5.74038 15.4626C5.71285 15.3241 5.64483 15.1968 5.54494 15.0969C5.44506 14.9971 5.31778 14.9291 5.17923 14.9015C5.04068 14.874 4.89707 14.8882 4.76658 14.9423C4.63609 14.9964 4.52458 15.088 4.44616 15.2054C4.36775 15.3229 4.32594 15.461 4.32605 15.6023C4.32591 15.696 4.34427 15.7888 4.38008 15.8754C4.41589 15.962 4.46844 16.0407 4.53472 16.107C4.601 16.1733 4.67971 16.2258 4.76634 16.2616C4.85296 16.2974 4.94581 16.3158 5.03954 16.3156ZM6.87817 14.3753C7.04755 14.3753 7.21312 14.3251 7.35396 14.231C7.49479 14.1369 7.60456 14.0032 7.66938 13.8467C7.7342 13.6903 7.75116 13.5181 7.71811 13.352C7.68507 13.1859 7.6035 13.0333 7.48373 12.9136C7.36396 12.7938 7.21137 12.7123 7.04524 12.6792C6.87912 12.6462 6.70692 12.6632 6.55044 12.728C6.39395 12.7928 6.2602 12.9025 6.16609 13.0433C6.07199 13.1842 6.02176 13.3497 6.02176 13.5191C6.02176 13.7462 6.11199 13.9639 6.2726 14.1245C6.43321 14.2851 6.65103 14.3753 6.87817 14.3753ZM8.92546 12.6431C9.1236 12.6435 9.31741 12.5852 9.48235 12.4754C9.6473 12.3656 9.77597 12.2094 9.85208 12.0265C9.92819 11.8436 9.94832 11.6422 9.90992 11.4478C9.87151 11.2535 9.7763 11.0749 9.63634 10.9347C9.49638 10.7944 9.31795 10.6989 9.12365 10.6601C8.92934 10.6213 8.72789 10.641 8.54479 10.7167C8.3617 10.7924 8.20518 10.9207 8.09505 11.0854C7.98493 11.2501 7.92615 11.4438 7.92615 11.6419C7.92601 11.7732 7.95175 11.9033 8.0019 12.0247C8.05204 12.1461 8.12561 12.2565 8.21841 12.3494C8.3112 12.4424 8.4214 12.5162 8.54272 12.5666C8.66403 12.617 8.79409 12.643 8.92546 12.6431ZM11.1571 11.1351C11.3833 11.1358 11.6046 11.0694 11.793 10.9442C11.9815 10.8191 12.1285 10.6408 12.2155 10.432C12.3025 10.2233 12.3256 9.99337 12.2818 9.77147C12.2381 9.54957 12.1294 9.34565 11.9696 9.18554C11.8099 9.02543 11.6062 8.91633 11.3843 8.87207C11.1625 8.82781 10.9325 8.85037 10.7235 8.9369C10.5145 9.02343 10.3359 9.17003 10.2103 9.35813C10.0847 9.54624 10.0178 9.76738 10.018 9.99356C10.0184 10.2957 10.1384 10.5855 10.3519 10.7994C10.5654 11.0133 10.8548 11.134 11.1571 11.1351ZM13.5751 9.90814C13.8292 9.90824 14.0777 9.83299 14.2891 9.69191C14.5005 9.55083 14.6653 9.35025 14.7627 9.11554C14.86 8.88082 14.8856 8.6225 14.8362 8.37325C14.7867 8.12399 14.6645 7.89499 14.4849 7.7152C14.3053 7.53541 14.0764 7.4129 13.8271 7.36316C13.5779 7.31342 13.3195 7.33869 13.0846 7.43577C12.8498 7.53285 12.649 7.69738 12.5076 7.90855C12.3662 8.11973 12.2907 8.36808 12.2905 8.62219C12.2903 8.79097 12.3235 8.95812 12.388 9.1141C12.4525 9.27008 12.547 9.41183 12.6663 9.53125C12.7856 9.65067 12.9273 9.74541 13.0832 9.81008C13.2391 9.87475 13.4063 9.90807 13.5751 9.90814Z" fill="#2C56DD"/>
<path d="M16.1479 9.00867C16.4891 9.00722 16.8184 8.88352 17.0762 8.66002C17.3339 8.43651 17.503 8.12802 17.5526 7.79053C17.7069 8.01258 17.9161 8.19089 18.1598 8.30809C18.4035 8.42528 18.6734 8.47738 18.9433 8.45929C19.2131 8.4412 19.4736 8.35354 19.6995 8.20487C19.9254 8.05619 20.1089 7.85155 20.2321 7.61089C20.3831 7.81189 20.5766 7.9771 20.7987 8.09474C21.0209 8.21239 21.2663 8.27956 21.5174 8.29148C21.7685 8.30339 22.0192 8.25976 22.2515 8.16368C22.4838 8.0676 22.6921 7.92145 22.8614 7.73566C23.1438 8.13454 23.5723 8.4057 24.0538 8.49006C24.5352 8.57442 25.0304 8.46515 25.4316 8.18605C25.4992 8.29812 25.5791 8.4023 25.6698 8.49667C25.2132 8.54463 24.7851 8.74189 24.452 9.05785C24.2459 8.86949 24.0023 8.72677 23.7373 8.63901C23.4722 8.55125 23.1916 8.52044 22.9138 8.54858C22.636 8.57673 22.3672 8.66321 22.1251 8.80235C21.8831 8.94149 21.6731 9.13017 21.509 9.35604C21.1801 9.09628 20.7729 8.95559 20.3538 8.9569C19.9963 8.95742 19.6463 9.06 19.3451 9.25259C19.0439 9.44518 18.8039 9.71977 18.6534 10.0441C18.4158 9.8824 18.1423 9.78115 17.8567 9.74907C17.571 9.71699 17.2819 9.75505 17.0143 9.85996C16.7467 9.96487 16.5087 10.1335 16.321 10.3511C16.1334 10.5687 16.0016 10.8289 15.9372 11.109C15.6861 10.9558 15.3987 10.8723 15.1046 10.867C14.8106 10.8617 14.5204 10.9347 14.2639 11.0786C14.0073 11.2225 13.7938 11.432 13.6451 11.6857C13.4963 11.9395 13.4179 12.2282 13.4177 12.5223V12.5285C13.1826 12.3927 12.9159 12.3213 12.6444 12.3213C12.373 12.3213 12.1063 12.3928 11.8713 12.5287C11.6362 12.6645 11.4411 12.8598 11.3055 13.095C11.17 13.3301 11.0988 13.5968 11.0991 13.8683C11.0997 14.0135 11.1204 14.1579 11.1607 14.2974C10.9364 14.1575 10.6774 14.0829 10.413 14.0821C10.1288 14.0819 9.85098 14.1659 9.61458 14.3236C9.37818 14.4813 9.19386 14.7055 9.08492 14.9679C8.97598 15.2304 8.94732 15.5192 9.00256 15.7979C9.0578 16.0766 9.19446 16.3327 9.39526 16.5338C9.59606 16.7348 9.85197 16.8718 10.1307 16.9275C10.4093 16.9831 10.6982 16.9549 10.9609 16.8463C11.2235 16.7378 11.448 16.5538 11.6061 16.3177C11.7641 16.0815 11.8486 15.8038 11.8488 15.5197C11.847 15.3993 11.8307 15.2795 11.8001 15.163C12.0296 15.313 12.2949 15.3992 12.5687 15.4128C12.8426 15.4264 13.1151 15.367 13.3583 15.2405C13.6016 15.114 13.8068 14.9251 13.9529 14.6931C14.099 14.4612 14.1807 14.1945 14.1897 13.9205C14.4542 14.0892 14.7613 14.179 15.0751 14.1794C15.1041 14.1794 15.1357 14.1753 15.1662 14.1753C14.8082 14.5009 14.5885 14.9512 14.5521 15.4338C14.2894 15.3841 14.019 15.393 13.7602 15.4598C13.5013 15.5266 13.2604 15.6497 13.0545 15.8203C12.8487 15.9908 12.683 16.2047 12.5693 16.4466C12.4556 16.6885 12.3966 16.9525 12.3966 17.2198C12.3962 17.291 12.4011 17.3621 12.4111 17.4326C12.345 17.4237 12.2784 17.4196 12.2118 17.4202C11.9857 17.4201 11.7619 17.4646 11.553 17.551C11.3441 17.6374 11.1543 17.7642 10.9944 17.924C10.8346 18.0838 10.7077 18.2735 10.6212 18.4823C10.5347 18.6911 10.4902 18.915 10.4902 19.141C10.4891 19.3275 10.5198 19.5129 10.5808 19.6892C10.5456 19.6892 10.5124 19.6846 10.4772 19.6846C10.1883 19.6843 9.90452 19.7611 9.65522 19.9071C9.40591 20.0531 9.2001 20.263 9.05904 20.5151C8.91797 20.7673 8.84677 21.0524 8.85278 21.3413C8.85878 21.6301 8.94178 21.9121 9.0932 22.1581C9.07751 22.1571 9.06177 22.1571 9.04609 22.1581C8.73889 22.1577 8.43872 22.2499 8.18467 22.4226C7.93063 22.5953 7.73449 22.8404 7.62183 23.1262C7.50917 23.4119 7.48521 23.725 7.55306 24.0245C7.62092 24.3241 7.77745 24.5963 8.00225 24.8056C7.97947 24.8056 7.95875 24.7989 7.93804 24.7989C7.60418 24.7981 7.28043 24.9133 7.02213 25.1248C6.76384 25.3363 6.58704 25.631 6.52198 25.9584C6.45691 26.2858 6.50762 26.6256 6.66542 26.9198C6.82323 27.214 7.07833 27.4442 7.38712 27.5711C7.69591 27.6981 8.0392 27.7138 8.35831 27.6156C8.67742 27.5175 8.95252 27.3116 9.13658 27.0331C9.32065 26.7546 9.40224 26.4208 9.36741 26.0888C9.33258 25.7568 9.18349 25.4473 8.94564 25.213C8.97774 25.213 9.01191 25.2171 9.04609 25.2171C9.25696 25.2172 9.46556 25.1736 9.65869 25.0889C9.85182 25.0043 10.0253 24.8805 10.1681 24.7253V24.7771C10.1674 25.1558 10.2875 25.5248 10.5109 25.8306C10.2317 25.9298 9.98354 26.1007 9.79141 26.3262C9.59927 26.5517 9.46993 26.8238 9.4164 27.1152C9.36286 27.4066 9.38702 27.7069 9.48644 27.9859C9.58586 28.265 9.75703 28.513 9.98274 28.7049C9.7097 28.8297 9.47715 29.0286 9.31151 29.2789C9.14586 29.5293 9.05376 29.8211 9.04567 30.1211C9.03759 30.4212 9.11383 30.7175 9.26575 30.9764C9.41766 31.2354 9.63916 31.4465 9.90508 31.5858C9.62618 31.7269 9.39759 31.9506 9.25048 32.2263C9.10338 32.502 9.04492 32.8164 9.08308 33.1266C9.12125 33.4368 9.25417 33.7276 9.46373 33.9595C9.67328 34.1914 9.94927 34.353 10.2541 34.4223C9.96559 34.5673 9.73455 34.8054 9.59837 35.0981C9.46219 35.3909 9.42885 35.721 9.50376 36.035C9.57867 36.349 9.75743 36.6285 10.0111 36.8283C10.2647 37.028 10.5784 37.1363 10.9013 37.1355C10.9898 37.1349 11.078 37.1259 11.1648 37.1086C10.8457 37.2149 10.5783 37.4376 10.4163 37.7324C10.2542 38.0271 10.2094 38.3721 10.2906 38.6985C10.3719 39.0249 10.5734 39.3086 10.8547 39.493C11.1361 39.6773 11.4767 39.7487 11.8084 39.693C12.1402 39.6372 12.4387 39.4583 12.6443 39.1921C12.8499 38.9259 12.9474 38.5919 12.9175 38.2569C12.8875 37.9219 12.7323 37.6105 12.4827 37.385C12.2331 37.1594 11.9077 37.0363 11.5713 37.0402C11.4887 37.0405 11.4064 37.0485 11.3253 37.0641C11.6184 36.9751 11.8752 36.7945 12.0579 36.5488C12.2406 36.303 12.3395 36.0051 12.3402 35.6989C12.3402 35.6627 12.3319 35.6321 12.3288 35.5954C12.5542 35.8432 12.8502 36.016 13.1769 36.0903C12.9798 36.3212 12.8532 36.6037 12.8119 36.9044C12.7707 37.2051 12.8166 37.5114 12.9442 37.7868C13.0718 38.0622 13.2757 38.2952 13.5319 38.4582C13.788 38.6211 14.0854 38.7072 14.389 38.7062H14.4237C14.2596 38.9319 14.1613 39.1987 14.1396 39.4769C14.1178 39.755 14.1735 40.0338 14.3006 40.2823C14.4276 40.5308 14.6209 40.7392 14.8592 40.8846C15.0974 41.0299 15.3712 41.1064 15.6503 41.1057C15.7992 41.1052 15.9473 41.0832 16.0899 41.0405C15.9463 41.2571 15.8641 41.5086 15.852 41.7682C15.84 42.0278 15.8984 42.2859 16.0213 42.5149C16.1441 42.744 16.3267 42.9355 16.5496 43.0691C16.7726 43.2027 17.0276 43.2735 17.2875 43.2738C17.6136 43.2732 17.9295 43.16 18.1817 42.9533C18.0096 43.153 17.8992 43.3983 17.8639 43.6595C17.8285 43.9207 17.8698 44.1866 17.9827 44.4248C18.0956 44.663 18.2753 44.8633 18.4998 45.0013C18.7244 45.1394 18.9842 45.2093 19.2478 45.2025C19.5113 45.1957 19.7672 45.1126 19.9844 44.9632C20.2016 44.8138 20.3707 44.6045 20.4712 44.3608C20.5717 44.1172 20.5993 43.8496 20.5506 43.5905C20.5019 43.3315 20.3791 43.0921 20.1969 42.9016C20.3751 42.8983 20.5518 42.868 20.7209 42.8115V42.8301C20.721 43.1369 20.8058 43.4376 20.966 43.6992C21.1261 43.9608 21.3554 44.1732 21.6286 44.3128C21.5466 44.2951 21.4629 44.2862 21.379 44.2864C21.0612 44.2844 20.7536 44.3987 20.5142 44.6078C20.2749 44.8169 20.1203 45.1063 20.0797 45.4215C20.039 45.7367 20.1152 46.0558 20.2937 46.3188C20.4722 46.5817 20.7407 46.7703 21.0487 46.8489C21.3566 46.9275 21.6827 46.8908 21.9654 46.7455C22.2482 46.6003 22.468 46.3567 22.5834 46.0607C22.6989 45.7646 22.702 45.4365 22.5922 45.1383C22.4824 44.84 22.2673 44.5923 21.9874 44.4417C22.1178 44.4756 22.2519 44.493 22.3866 44.4935C22.6978 44.4936 23.0028 44.4062 23.2668 44.2414C23.2917 44.5463 23.4043 44.8375 23.5909 45.08C23.7775 45.3225 24.0302 45.5059 24.3186 45.6081C24.607 45.7104 24.9188 45.7271 25.2165 45.6562C25.5142 45.5854 25.7851 45.4301 25.9965 45.2089C26.0463 45.522 26.1932 45.8114 26.4164 46.0365C26.6396 46.2615 26.9279 46.4108 27.2405 46.4632C27.5532 46.5156 27.8744 46.4685 28.1588 46.3285C28.4432 46.1886 28.6765 45.9628 28.8257 45.6831C28.8935 46.0193 29.0796 46.3201 29.3501 46.5309C29.6207 46.7418 29.9578 46.8488 30.3004 46.8326C30.643 46.8164 30.9685 46.678 31.2179 46.4426C31.4673 46.2071 31.6241 45.8901 31.66 45.5491C31.6781 45.812 31.7723 46.064 31.9311 46.2743C32.0899 46.4847 32.3065 46.6443 32.5544 46.7338C32.8024 46.8233 33.071 46.8387 33.3276 46.7783C33.5841 46.7179 33.8176 46.5842 33.9995 46.3934C34.1814 46.2027 34.3039 45.9632 34.3522 45.7041C34.4004 45.445 34.3722 45.1775 34.271 44.9341C34.1699 44.6907 34.0001 44.482 33.7824 44.3334C33.5648 44.1847 33.3086 44.1026 33.045 44.0969C33.1688 43.9673 33.2725 43.8199 33.3526 43.6595C33.5684 43.8806 33.8416 44.0373 34.1414 44.1119C34.4413 44.1865 34.7561 44.1761 35.0504 44.0819C34.795 44.2546 34.6101 44.5132 34.5292 44.8107C34.4483 45.1082 34.4769 45.4248 34.6098 45.703C34.7426 45.9812 34.9708 46.2025 35.253 46.3267C35.5352 46.451 35.8526 46.4698 36.1475 46.3799C36.4424 46.2899 36.6953 46.0972 36.8601 45.8367C37.0249 45.5761 37.0908 45.2651 37.0457 44.9602C37.0007 44.6552 36.8476 44.3765 36.6145 44.1748C36.3814 43.9731 36.0836 43.8617 35.7753 43.8609C35.65 43.8621 35.5257 43.8825 35.4066 43.9214C35.5971 43.8061 35.7625 43.6539 35.8932 43.4737C36.024 43.2935 36.1173 43.0889 36.1677 42.8721C36.4536 43.1158 36.8172 43.2493 37.1929 43.2484C37.614 43.2476 38.0176 43.08 38.3153 42.7823C38.613 42.4846 38.7806 42.0811 38.7815 41.6601C38.7815 41.6482 38.7778 41.6358 38.7778 41.626C39.035 41.8136 39.3454 41.9144 39.6638 41.9138C39.8627 41.914 40.0597 41.875 40.2435 41.7991C40.4273 41.7231 40.5944 41.6117 40.7351 41.4712C40.8759 41.3307 40.9875 41.1638 41.0637 40.9801C41.14 40.7964 41.1792 40.5995 41.1793 40.4006C41.1801 40.2516 41.1579 40.1033 41.1135 39.9611C41.3984 40.1536 41.743 40.2374 42.0845 40.1972C42.426 40.1569 42.7416 39.9953 42.9739 39.7417C43.2061 39.4882 43.3395 39.1596 43.3497 38.816C43.3598 38.4723 43.2461 38.1364 43.0293 37.8696C43.2737 38.0847 43.5881 38.2032 43.9137 38.203C44.2751 38.203 44.6217 38.0594 44.8773 37.8039C45.1329 37.5484 45.2765 37.2018 45.2765 36.8404C45.2765 36.479 45.1329 36.1325 44.8773 35.8769C44.6217 35.6214 44.2751 35.4778 43.9137 35.4778C43.5633 35.4778 43.2268 35.6143 42.9755 35.8584C42.9715 35.6793 42.9415 35.5018 42.8864 35.3313H42.9019C43.2088 35.3312 43.5096 35.2464 43.7714 35.0864C44.0332 34.9264 44.2458 34.6973 44.3859 34.4243C44.3693 34.5062 44.3607 34.5894 44.36 34.6728C44.3563 34.9911 44.4692 35.2998 44.6774 35.5406C44.8856 35.7814 45.1748 35.9377 45.4904 35.98C45.8059 36.0223 46.126 35.9478 46.3904 35.7703C46.6547 35.5929 46.845 35.3249 46.9253 35.0168C47.0056 34.7088 46.9704 34.382 46.8263 34.0982C46.6822 33.8143 46.4392 33.5929 46.1432 33.4759C45.8471 33.3588 45.5184 33.3541 45.2191 33.4626C44.9198 33.5711 44.6706 33.7854 44.5184 34.0651C44.5519 33.9348 44.5693 33.8009 44.5702 33.6664C44.5687 33.3552 44.4809 33.0506 44.3165 32.7864C44.6214 32.7615 44.9127 32.649 45.1552 32.4624C45.3977 32.2759 45.5811 32.0232 45.6833 31.7349C45.7855 31.4466 45.8021 31.1348 45.7312 30.8372C45.6603 30.5397 45.5049 30.2689 45.2837 30.0576C45.5963 30.0074 45.8853 29.8604 46.11 29.6374C46.3347 29.4144 46.4838 29.1265 46.5363 28.8143C46.5888 28.5021 46.542 28.1813 46.4026 27.8971C46.2631 27.6129 46.0381 27.3796 45.759 27.2299C46.0957 27.1628 46.3972 26.9771 46.6086 26.7066C46.82 26.4361 46.9273 26.0987 46.9111 25.7558C46.8949 25.4129 46.7561 25.0872 46.5201 24.8379C46.2841 24.5886 45.9665 24.4322 45.6249 24.3971C45.9774 24.375 46.3079 24.2178 46.5474 23.9583C46.7869 23.6987 46.9171 23.3568 46.9109 23.0037C46.9046 22.6506 46.7624 22.3135 46.5139 22.0625C46.2653 21.8116 45.9295 21.6662 45.5765 21.6565C45.2234 21.6469 44.8802 21.7738 44.6183 22.0108C44.3564 22.2478 44.196 22.5766 44.1705 22.9288C44.145 23.2811 44.2563 23.6296 44.4813 23.9018C44.7063 24.1741 45.0277 24.3491 45.3785 24.3904C45.0681 24.4088 44.7723 24.5279 44.5358 24.7296C44.2992 24.9313 44.1349 25.2045 44.0676 25.508C44.0003 25.8114 44.0338 26.1285 44.163 26.4112C44.2922 26.6939 44.5101 26.9268 44.7835 27.0746C44.5107 27.1217 44.2561 27.2428 44.0475 27.4247C43.8389 27.6066 43.6842 27.8423 43.6004 28.1061C43.5166 28.3699 43.507 28.6516 43.5724 28.9205C43.6379 29.1895 43.776 29.4352 43.9717 29.631C43.7124 29.6658 43.4658 29.7642 43.2537 29.9173C43.0417 30.0705 42.8708 30.2737 42.7563 30.5088C42.6418 30.744 42.5873 31.0038 42.5975 31.2651C42.6077 31.5265 42.6824 31.7812 42.8149 32.0067C42.3893 32.0292 41.9885 32.214 41.6951 32.5231C41.4016 32.8321 41.2377 33.2418 41.2373 33.668C41.2374 33.8317 41.2627 33.9944 41.3124 34.1505C41.2871 34.1471 41.2617 34.1452 41.2362 34.1448C40.7742 34.1449 40.3311 34.3285 40.0044 34.6552C39.6777 34.9818 39.4941 35.4248 39.4939 35.8868C39.4941 35.9285 39.4965 35.9702 39.5012 36.0116C39.4107 35.9965 39.319 35.9889 39.2273 35.9888C38.7906 35.9883 38.3684 36.1455 38.0384 36.4314C37.7084 36.7173 37.4927 37.1128 37.4311 37.545C37.2693 37.5013 37.1026 37.4785 36.9351 37.4772C36.5751 37.4776 36.2227 37.5805 35.9191 37.7738C35.6155 37.9672 35.3733 38.243 35.2207 38.569C35.0233 38.408 34.7914 38.2947 34.543 38.2379C34.2947 38.1811 34.0366 38.1823 33.7888 38.2415C33.541 38.3006 33.3102 38.4161 33.1143 38.5789C32.9184 38.7418 32.7627 38.9476 32.6593 39.1804C32.4795 38.9849 32.2555 38.8353 32.0061 38.744C31.7567 38.6528 31.4891 38.6224 31.2256 38.6556C30.9621 38.6888 30.7103 38.7845 30.4914 38.9348C30.2724 39.0851 30.0925 39.2856 29.9668 39.5195C29.8179 39.3333 29.6309 39.1813 29.4183 39.0734C29.2057 38.9656 28.9725 38.9046 28.7343 38.8944C28.4961 38.8843 28.2586 38.9252 28.0376 39.0146C27.8165 39.1039 27.6172 39.2395 27.453 39.4123C27.3513 39.1884 27.2013 38.9898 27.0139 38.8306C26.8264 38.6713 26.6061 38.5554 26.3687 38.4912C26.1313 38.4269 25.8827 38.4158 25.6405 38.4587C25.3983 38.5016 25.1686 38.5974 24.9677 38.7393C24.9132 38.4977 24.8055 38.2713 24.6526 38.0764C24.4997 37.8816 24.3054 37.7232 24.0836 37.6127C23.8619 37.5022 23.6184 37.4425 23.3707 37.4378C23.1231 37.433 22.8775 37.4835 22.6517 37.5854C22.6449 37.3481 22.5874 37.115 22.483 36.9018C22.3787 36.6886 22.23 36.5002 22.0468 36.3491C21.8636 36.1981 21.6503 36.088 21.4211 36.0262C21.1919 35.9644 20.9521 35.9524 20.7178 35.9909C20.7745 35.7479 20.7758 35.4952 20.7218 35.2516C20.6678 35.0079 20.5598 34.7795 20.4058 34.5832C20.2518 34.3868 20.0556 34.2276 19.8318 34.1171C19.608 34.0066 19.3623 33.9478 19.1127 33.945C19.2078 33.7266 19.255 33.4903 19.2509 33.2521C19.2468 33.0139 19.1917 32.7794 19.0891 32.5643C18.9866 32.3493 18.839 32.1588 18.6565 32.0057C18.474 31.8526 18.2607 31.7405 18.0311 31.6769C18.1762 31.4886 18.2794 31.2715 18.3337 31.0401C18.3881 30.8087 18.3923 30.5683 18.3462 30.3351C18.3001 30.1019 18.2046 29.8812 18.0662 29.6879C17.9278 29.4946 17.7497 29.3331 17.5438 29.2143C17.7399 29.0638 17.9001 28.8718 18.0129 28.652C18.1258 28.4322 18.1885 28.1902 18.1965 27.9432C18.2045 27.6963 18.1577 27.4507 18.0593 27.224C17.961 26.9974 17.8136 26.7954 17.6277 26.6325C17.843 26.5242 18.0324 26.3708 18.1831 26.1827C18.3338 25.9947 18.4423 25.7764 18.5012 25.5428C18.5596 25.3107 18.567 25.0687 18.523 24.8335C18.4789 24.5983 18.3844 24.3754 18.2459 24.1802C18.4763 24.1284 18.693 24.0283 18.8817 23.8864C19.0704 23.7446 19.2268 23.5642 19.3405 23.3574C19.4542 23.1505 19.5227 22.9218 19.5413 22.6865C19.56 22.4512 19.5284 22.2146 19.4487 21.9924C19.6959 22.0051 19.9427 21.9626 20.1714 21.8682C20.4002 21.7738 20.605 21.6297 20.7712 21.4464C20.9374 21.263 21.0608 21.0451 21.1324 20.8083C21.204 20.5714 21.2221 20.3216 21.1854 20.077C21.4188 20.1343 21.6618 20.1406 21.8978 20.0955C22.1339 20.0503 22.3574 19.9548 22.5532 19.8155C22.749 19.6761 22.9125 19.4962 23.0324 19.288C23.1523 19.0797 23.2259 18.8481 23.2482 18.6088C23.4586 18.7192 23.6901 18.7833 23.9273 18.797C24.1645 18.8106 24.4019 18.7735 24.6236 18.688C24.8452 18.6025 25.0461 18.4707 25.2127 18.3013C25.3793 18.132 25.5078 17.929 25.5896 17.7059C25.7618 17.8623 25.9651 17.9805 26.1862 18.0528C26.4074 18.1251 26.6413 18.1498 26.8726 18.1253C27.125 18.1013 27.3684 18.0194 27.5839 17.8859C27.7995 17.7525 27.9813 17.5711 28.1153 17.356C28.2539 17.5543 28.4341 17.72 28.6433 17.8416C28.8526 17.9631 29.0859 18.0375 29.3268 18.0596C29.5678 18.0817 29.8107 18.0509 30.0386 17.9694C30.2665 17.888 30.4738 17.7578 30.6462 17.5879C30.7375 17.8174 30.8788 18.0237 31.0598 18.1917C31.2409 18.3598 31.4571 18.4855 31.6927 18.5596C31.9284 18.6337 32.1776 18.6544 32.4222 18.6202C32.6669 18.586 32.9009 18.4977 33.1072 18.3618C33.1534 18.6048 33.253 18.8345 33.3986 19.0344C33.5443 19.2342 33.7325 19.3994 33.9496 19.5179H33.9465C34.3107 19.7185 34.7369 19.7754 35.141 19.6773C35.186 19.7394 35.2342 19.7995 35.2839 19.8554C35.305 20.2246 35.4511 20.5757 35.6981 20.8509C35.7089 20.863 35.7207 20.8743 35.7333 20.8846C36.584 21.7745 38.5583 23.9348 38.1891 26.8272C38.0954 27.5478 38.4998 27.9117 39.0176 27.3547C42.1527 23.9757 41.6619 19.8254 41.5914 19.3429C41.5747 19.0339 41.5061 18.7299 41.3885 18.4436C41.4252 18.2648 41.444 18.0827 41.4444 17.9001C41.4443 17.4868 41.3489 17.0791 41.1654 16.7088C40.9819 16.3385 40.7154 16.0155 40.3866 15.7651C40.4173 15.6052 40.433 15.4428 40.4337 15.28C40.4339 14.7674 40.2807 14.2664 39.994 13.8414C39.7072 13.4164 39.2999 13.0868 38.8244 12.895C38.8135 12.3173 38.5993 11.7619 38.2195 11.3264C37.8397 10.8909 37.3186 10.6031 36.7476 10.5136C36.648 9.97598 36.3634 9.49015 35.9432 9.14031C35.5229 8.79046 34.9935 8.59866 34.4466 8.59814C34.4042 8.59814 34.3654 8.60228 34.3203 8.60383C34.176 8.15844 33.8943 7.77021 33.5156 7.49489C33.1369 7.21958 32.6807 7.07134 32.2124 7.07146C32.024 7.07142 31.8363 7.09614 31.6543 7.14497C31.5378 6.88977 31.3713 6.6605 31.1648 6.47066C30.9582 6.28082 30.7157 6.13426 30.4516 6.03964C30.1875 5.94502 29.9071 5.90425 29.6269 5.91973C29.3468 5.9352 29.0726 6.00662 28.8205 6.12977C28.6765 5.88524 28.4818 5.67441 28.2494 5.51147C28.0171 5.34852 27.7525 5.23726 27.4736 5.18516C27.1946 5.13306 26.9077 5.14134 26.6322 5.20945C26.3567 5.27756 26.099 5.4039 25.8764 5.57998C25.7096 5.34817 25.4913 5.15814 25.2387 5.02475C24.9861 4.89136 24.7061 4.81824 24.4206 4.81112C24.135 4.804 23.8517 4.86307 23.5928 4.98371C23.3339 5.10434 23.1064 5.28327 22.9282 5.50647C22.7447 5.27935 22.506 5.10304 22.235 4.99438C21.9639 4.88571 21.6696 4.84831 21.38 4.88575C21.0904 4.92318 20.8152 5.0342 20.5807 5.20821C20.3462 5.38222 20.1603 5.61341 20.0405 5.87972C19.8427 5.64495 19.5803 5.47334 19.2859 5.38614C18.9915 5.29894 18.678 5.29998 18.3841 5.38912C18.0903 5.47827 17.8291 5.65161 17.6328 5.8877C17.4365 6.12378 17.3138 6.41223 17.2798 6.71735C17.1325 6.52488 16.9385 6.37314 16.7162 6.27649C16.4939 6.17983 16.2506 6.14145 16.0094 6.16497C15.7681 6.18849 15.5369 6.27314 15.3374 6.41091C15.138 6.54868 14.977 6.73502 14.8697 6.95232C14.7623 7.16963 14.7122 7.41071 14.724 7.65278C14.7358 7.89486 14.8091 8.12993 14.9371 8.33577C15.065 8.54162 15.2434 8.71143 15.4552 8.82918C15.6671 8.94692 15.9055 9.0087 16.1479 9.00867ZM6.55092 45.8498C6.5365 45.85 6.52227 45.8531 6.50903 45.8588C6.49579 45.8645 6.4838 45.8727 6.47375 45.8831C6.4637 45.8934 6.45579 45.9056 6.45046 45.919C6.44514 45.9324 6.4425 45.9467 6.44271 45.9611C6.44269 45.9901 6.45399 46.018 6.4742 46.0388C6.49441 46.0596 6.52194 46.0716 6.55092 46.0725C6.58051 46.0722 6.60883 46.0604 6.6299 46.0397C6.65097 46.0189 6.66312 45.9907 6.6638 45.9611C6.66352 45.9314 6.65149 45.9031 6.63034 45.8822C6.60919 45.8613 6.58063 45.8497 6.55092 45.8498ZM5.26166 43.28C5.23272 43.2799 5.20403 43.2854 5.17725 43.2964C5.15046 43.3074 5.12611 43.3235 5.10557 43.3439C5.08503 43.3643 5.06872 43.3885 5.05756 43.4152C5.04641 43.4419 5.04063 43.4706 5.04057 43.4995C5.04057 43.558 5.06381 43.6141 5.10517 43.6555C5.14654 43.6968 5.20264 43.7201 5.26114 43.7201C5.31964 43.7201 5.37574 43.6968 5.41711 43.6555C5.45847 43.6141 5.48171 43.558 5.48171 43.4995C5.48178 43.4706 5.47613 43.442 5.46509 43.4153C5.45405 43.3886 5.43784 43.3644 5.41738 43.344C5.39693 43.3236 5.37264 43.3074 5.34591 43.2964C5.31918 43.2855 5.29055 43.2799 5.26166 43.28ZM4.23491 40.588C4.16931 40.5879 4.10515 40.6072 4.05054 40.6436C3.99592 40.6799 3.9533 40.7316 3.92806 40.7921C3.90281 40.8527 3.89608 40.9193 3.9087 40.9837C3.92132 41.0481 3.95274 41.1072 3.99898 41.1538C4.04522 41.2003 4.10421 41.2321 4.1685 41.2451C4.23279 41.2581 4.2995 41.2518 4.36021 41.2269C4.42091 41.2021 4.47288 41.1598 4.50956 41.1054C4.54624 41.051 4.56598 40.987 4.56628 40.9214C4.56642 40.8333 4.53162 40.7487 4.4695 40.6862C4.40739 40.6237 4.32303 40.5884 4.23491 40.588ZM3.48465 37.8038C3.39734 37.804 3.31205 37.8301 3.23956 37.8788C3.16706 37.9274 3.11061 37.9965 3.07734 38.0772C3.04407 38.1579 3.03548 38.2466 3.05263 38.3322C3.06979 38.4178 3.11194 38.4964 3.17375 38.5581C3.23556 38.6197 3.31425 38.6617 3.3999 38.6786C3.48555 38.6956 3.5743 38.6868 3.65494 38.6533C3.73558 38.6199 3.8045 38.5633 3.85298 38.4907C3.90147 38.4181 3.92735 38.3327 3.92735 38.2454C3.92742 38.1873 3.916 38.1298 3.89377 38.0761C3.87153 38.0224 3.83891 37.9737 3.79777 37.9327C3.75664 37.8916 3.7078 37.8591 3.65406 37.837C3.60033 37.8149 3.54275 37.8036 3.48465 37.8038ZM3.57267 35.5089C3.57298 35.3994 3.54077 35.2923 3.48012 35.2012C3.41948 35.11 3.33313 35.0389 3.23202 34.9968C3.13091 34.9548 3.0196 34.9437 2.91219 34.965C2.80477 34.9863 2.7061 35.039 2.62867 35.1164C2.55124 35.1938 2.49854 35.2925 2.47725 35.3999C2.45596 35.5073 2.46705 35.6186 2.50909 35.7197C2.55114 35.8207 2.62226 35.9071 2.71343 35.9677C2.80461 36.0284 2.91174 36.0606 3.02124 36.0602C3.1674 36.06 3.3075 36.0018 3.41086 35.8985C3.51421 35.7951 3.5724 35.655 3.57267 35.5089ZM3.51313 32.7351C3.51282 32.6041 3.47371 32.4761 3.40073 32.3673C3.32776 32.2585 3.22418 32.1737 3.10308 32.1237C2.98198 32.0737 2.84877 32.0607 2.72027 32.0863C2.59176 32.1119 2.47372 32.1749 2.38104 32.2675C2.28835 32.3601 2.22517 32.4781 2.19947 32.6066C2.17377 32.735 2.1867 32.8682 2.23663 32.9894C2.28656 33.1105 2.37125 33.2141 2.48002 33.2872C2.58878 33.3602 2.71676 33.3994 2.84778 33.3998C2.93521 33.4002 3.02184 33.3832 3.10268 33.3499C3.18353 33.3167 3.25699 33.2677 3.31883 33.2059C3.38067 33.1441 3.42968 33.0707 3.46303 32.9899C3.49637 32.9091 3.5134 32.8225 3.51313 32.7351ZM2.19642 29.9618C2.19652 30.1146 2.24192 30.264 2.32688 30.391C2.41184 30.518 2.53255 30.617 2.67375 30.6754C2.81495 30.7339 2.97032 30.7492 3.12021 30.7194C3.2701 30.6896 3.4078 30.616 3.5159 30.508C3.624 30.4 3.69766 30.2624 3.72756 30.1125C3.75746 29.9627 3.74227 29.8073 3.6839 29.6661C3.62554 29.5249 3.52662 29.4041 3.39964 29.3191C3.27266 29.2341 3.12332 29.1886 2.9705 29.1884C2.86879 29.188 2.76802 29.2078 2.67399 29.2465C2.57995 29.2853 2.4945 29.3422 2.42256 29.4141C2.35062 29.486 2.29361 29.5714 2.2548 29.6654C2.21599 29.7594 2.19615 29.8601 2.19642 29.9618ZM3.38575 28.0986C3.5606 28.0983 3.73143 28.0462 3.87665 27.9489C4.02188 27.8515 4.13499 27.7133 4.20169 27.5517C4.26839 27.3901 4.28568 27.2124 4.25138 27.041C4.21708 26.8695 4.13273 26.7121 4.00899 26.5886C3.88525 26.4651 3.72767 26.3811 3.55616 26.3471C3.38465 26.3131 3.20692 26.3307 3.04541 26.3976C2.88391 26.4646 2.74588 26.578 2.64877 26.7233C2.55167 26.8687 2.49984 27.0396 2.49984 27.2144C2.49977 27.3307 2.52265 27.4458 2.56717 27.5532C2.61168 27.6606 2.67696 27.7582 2.75926 27.8404C2.84156 27.9225 2.93926 27.9876 3.04676 28.0319C3.15427 28.0762 3.26947 28.0989 3.38575 28.0986ZM4.14688 23.5491C3.9501 23.5488 3.75764 23.6069 3.59386 23.716C3.43009 23.8251 3.30236 23.9803 3.22684 24.162C3.15132 24.3437 3.1314 24.5437 3.16961 24.7367C3.20781 24.9297 3.30242 25.1071 3.44146 25.2463C3.5805 25.3855 3.75773 25.4804 3.95071 25.5189C4.1437 25.5574 4.34377 25.5378 4.52561 25.4626C4.70745 25.3873 4.86288 25.2599 4.97224 25.0963C5.0816 24.9327 5.13998 24.7404 5.13998 24.5436C5.13984 24.2802 5.03522 24.0275 4.84905 23.8411C4.66288 23.6547 4.41037 23.5497 4.14688 23.5491ZM5.25027 23.1003C5.46914 23.1008 5.68324 23.0364 5.86547 22.9152C6.0477 22.7939 6.18985 22.6214 6.27394 22.4193C6.35803 22.2173 6.38027 21.9949 6.33785 21.7802C6.29543 21.5655 6.19025 21.3682 6.03563 21.2133C5.88101 21.0584 5.6839 20.9529 5.46926 20.9101C5.25461 20.8673 5.03209 20.8891 4.82986 20.9728C4.62763 21.0565 4.45478 21.1983 4.3332 21.3803C4.21163 21.5622 4.14678 21.7762 4.14688 21.995C4.14702 22.2878 4.26325 22.5685 4.47008 22.7757C4.67692 22.9829 4.95748 23.0996 5.25027 23.1003Z" fill="#2C56DD"/>
<path d="M6.68244 20.8283C6.92282 20.8278 7.15766 20.7561 7.35727 20.6221C7.55688 20.4882 7.7123 20.2981 7.80389 20.0759C7.89548 19.8537 7.91912 19.6093 7.87184 19.3737C7.82455 19.138 7.70846 18.9217 7.53823 18.752C7.368 18.5823 7.15127 18.4669 6.91544 18.4203C6.67962 18.3737 6.43527 18.3981 6.21329 18.4903C5.99132 18.5825 5.80167 18.7385 5.66832 18.9385C5.53497 19.1385 5.46391 19.3735 5.46411 19.6138C5.46397 19.7736 5.49542 19.9319 5.55664 20.0796C5.61787 20.2272 5.70766 20.3613 5.82087 20.4742C5.93407 20.587 6.06846 20.6764 6.21632 20.7372C6.36417 20.798 6.52258 20.8289 6.68244 20.8283ZM9.73887 17.4416C9.73898 17.1793 9.66131 16.923 9.51569 16.7049C9.37007 16.4868 9.16304 16.3168 8.92078 16.2164C8.67852 16.1159 8.41191 16.0896 8.15466 16.1406C7.89742 16.1917 7.66109 16.3178 7.47557 16.5032C7.29005 16.6885 7.16367 16.9247 7.1124 17.1819C7.06114 17.4391 7.08729 17.7056 7.18756 17.9479C7.28783 18.1902 7.45771 18.3974 7.67572 18.5431C7.89372 18.6889 8.15007 18.7668 8.41233 18.7669C8.76393 18.7667 9.10111 18.6271 9.34982 18.3786C9.59854 18.1301 9.73846 17.7931 9.73887 17.4416ZM77.944 38.5878C76.5356 38.5943 75.1407 38.3124 73.8453 37.7595C72.598 37.2264 71.4651 36.458 70.5088 35.4961C69.5548 34.5266 68.7938 33.3847 68.2663 32.1311C67.7197 30.8278 67.4382 29.4287 67.4382 28.0155C67.4382 26.6022 67.7197 25.2031 68.2663 23.8998C69.3244 21.3696 71.3223 19.3481 73.8401 18.26C75.1446 17.6992 76.5502 17.4112 77.9702 17.4138C79.3902 17.4164 80.7946 17.7095 82.0971 18.2751C83.3624 18.8347 84.5097 19.6297 85.4782 20.6176C85.6902 20.8379 85.8495 21.1034 85.9442 21.3942C86.0029 21.5673 86.0212 21.7515 85.9979 21.9329C85.9746 22.1142 85.9102 22.2878 85.8096 22.4404C85.5709 22.7981 85.2229 22.9949 84.774 23.0244H84.7595C84.2671 23.0244 83.9228 22.8805 83.6453 22.5968C82.8491 21.9295 81.9807 21.3535 81.0564 20.8796C80.0936 20.378 79.0234 20.1177 77.9378 20.1212C76.89 20.1177 75.8528 20.3301 74.8907 20.745C73.9611 21.1491 73.1186 21.7292 72.4095 22.4534C71.7056 23.1826 71.1438 24.0365 70.7526 24.9714C70.3474 25.9361 70.1387 26.972 70.1387 28.0183C70.1387 29.0647 70.3474 30.1005 70.7526 31.0652C71.5339 32.9486 73.0204 34.4523 74.8948 35.2554C75.856 35.6702 76.8925 35.8817 77.9394 35.8767C79.0348 35.8833 80.1195 35.6606 81.1237 35.2228C82.0867 34.7987 82.9527 34.1821 83.6686 33.4109C83.8901 33.1647 84.183 32.9937 84.5063 32.9217C84.6097 32.8962 84.7157 32.8828 84.8222 32.8818C85.0698 32.8831 85.311 32.9602 85.5134 33.1028C85.6775 33.2305 85.8092 33.395 85.8977 33.5831C85.9862 33.7712 86.0291 33.9776 86.0229 34.1853C86.0229 34.6083 85.894 34.9619 85.6402 35.243C84.6781 36.2953 83.5062 37.1345 82.2001 37.7067C80.8588 38.2953 79.4088 38.5955 77.944 38.5878Z" fill="#2C56DD"/>
<path d="M99.9355 38.553C98.5259 38.559 97.13 38.2771 95.8332 37.7247C94.5888 37.1953 93.4575 36.4325 92.5002 35.4774C91.5471 34.5198 90.7841 33.3903 90.2515 32.1487C89.7084 30.8503 89.4288 29.4569 89.4288 28.0496C89.4288 26.6422 89.7084 25.2488 90.2515 23.9504C90.7869 22.7045 91.5494 21.569 92.5002 20.602C93.4554 19.6406 94.587 18.8725 95.8332 18.3397C97.1309 17.7932 98.5248 17.5117 99.9329 17.5117C101.341 17.5117 102.735 17.7932 104.033 18.3397C106.56 19.412 108.572 21.4236 109.645 23.9504C110.192 25.2478 110.474 26.6416 110.474 28.0496C110.474 29.4575 110.192 30.8513 109.645 32.1487C109.115 33.3956 108.348 34.5279 107.387 35.4831C106.419 36.4326 105.282 37.1935 104.035 37.7268C102.739 38.2789 101.344 38.5601 99.9355 38.553ZM99.9355 20.2179C98.8898 20.2137 97.854 20.4205 96.8899 20.8256C95.9595 21.2138 95.1149 21.7819 94.4046 22.4973C93.6973 23.2196 93.1329 24.069 92.741 25.0009C91.936 26.9515 91.936 29.1414 92.741 31.092C93.5549 32.9935 95.0876 34.4963 97.005 35.2727C98.9223 36.0492 101.069 36.0364 102.977 35.2372C103.909 34.8459 104.758 34.2817 105.48 33.5744C106.574 32.4702 107.316 31.0676 107.614 29.5429C107.913 28.0182 107.754 26.4392 107.158 25.0045C106.761 24.0718 106.192 23.2225 105.48 22.5014C104.761 21.7881 103.912 21.2197 102.978 20.8272C102.015 20.4222 100.98 20.215 99.9355 20.2179Z" fill="#2C56DD"/>
<path d="M129.096 38.6201C128.918 38.6206 128.742 38.5859 128.577 38.5181C128.413 38.4503 128.263 38.3506 128.137 38.2249C128.012 38.0991 127.912 37.9498 127.844 37.7854C127.776 37.621 127.741 37.4447 127.741 37.2668V25.2118C127.746 24.5374 127.611 23.8694 127.343 23.2503C126.815 22.0258 125.837 21.0507 124.611 20.5262C123.992 20.2604 123.326 20.1234 122.652 20.1234C121.978 20.1234 121.312 20.2604 120.693 20.5262C120.092 20.7864 119.547 21.1593 119.088 21.6247C118.628 22.096 118.26 22.648 118 23.2528C117.733 23.8713 117.596 24.5381 117.597 25.2118V37.2648C117.601 37.4436 117.567 37.6212 117.498 37.7865C117.43 37.9518 117.328 38.1013 117.2 38.2256C117.075 38.3519 116.926 38.4518 116.762 38.5192C116.598 38.5866 116.422 38.6202 116.245 38.618C116.067 38.619 115.89 38.5848 115.725 38.5172C115.56 38.4496 115.41 38.35 115.284 38.2242C115.158 38.0984 115.058 37.9488 114.99 37.7841C114.922 37.6195 114.887 37.4429 114.887 37.2648V25.2118C114.883 24.1727 115.088 23.1434 115.491 22.1854C115.876 21.2587 116.44 20.4174 117.152 19.7097C117.862 18.9995 118.702 18.4327 119.626 18.0402C120.583 17.628 121.614 17.4156 122.655 17.416C123.697 17.4165 124.728 17.6297 125.684 18.0428C127.549 18.8349 129.035 20.3182 129.831 22.1817C130.245 23.138 130.457 24.1697 130.452 25.2118V37.2648C130.455 37.4426 130.423 37.6192 130.355 37.784C130.288 37.9487 130.188 38.0981 130.062 38.223C129.936 38.3505 129.785 38.4513 129.619 38.5195C129.453 38.5877 129.276 38.6219 129.096 38.6201ZM142.407 38.6201C141.409 38.6263 140.418 38.4572 139.479 38.1205C138.599 37.8038 137.782 37.3334 137.067 36.731C136.386 36.1575 135.83 35.4506 135.432 34.654C135.034 33.8607 134.829 32.9846 134.834 32.0971C134.834 31.755 134.97 31.4268 135.212 31.1849C135.454 30.943 135.782 30.807 136.124 30.807C136.467 30.807 136.795 30.943 137.037 31.1849C137.279 31.4268 137.415 31.755 137.415 32.0971C137.413 32.6216 137.541 33.1383 137.787 33.6016C138.044 34.0823 138.397 34.5051 138.825 34.844C139.301 35.2127 139.835 35.4993 140.406 35.692C141.041 35.9016 141.705 36.0065 142.373 36.0026C143.049 36.0054 143.721 35.8991 144.362 35.6879C144.948 35.4931 145.499 35.2048 145.993 34.8342C146.436 34.5067 146.8 34.0845 147.059 33.5984C147.3 33.1455 147.408 32.6336 147.37 32.122C147.331 31.6324 147.174 31.1594 146.912 30.7444C146.627 30.2913 146.267 29.8907 145.846 29.5604C145.384 29.1977 144.871 28.9045 144.324 28.6902C143.74 28.4556 143.132 28.2852 142.512 28.1818C141.617 28.1195 140.733 27.9436 139.882 27.6584C139.084 27.3969 138.327 27.0202 137.637 26.5402C137.008 26.1068 136.471 25.5524 136.059 24.9095C135.651 24.2757 135.437 23.5371 135.443 22.7838C135.439 22.0311 135.638 21.2913 136.017 20.6411C136.41 19.972 136.937 19.3915 137.565 18.9358C138.206 18.4585 138.963 18.0785 139.824 17.7969C141.612 17.2396 143.526 17.2396 145.313 17.7969C146.165 18.078 146.924 18.458 147.57 18.9358C148.231 19.4307 148.749 20.0012 149.117 20.6411C149.499 21.2904 149.699 22.0305 149.696 22.7838C149.697 22.9617 149.662 23.1379 149.594 23.3023C149.526 23.4667 149.426 23.616 149.3 23.7417C149.174 23.8673 149.025 23.9669 148.86 24.0345C148.696 24.1022 148.519 24.1367 148.341 24.136C148.161 24.1395 147.981 24.1034 147.816 24.0305C147.651 23.9575 147.503 23.8494 147.384 23.7136C147.149 23.4547 147.018 23.1069 146.989 22.6782C146.966 22.3468 146.845 22.0297 146.642 21.7671C146.387 21.4297 146.071 21.1431 145.71 20.9222C145.269 20.6506 144.791 20.4453 144.29 20.3129C143.73 20.1611 143.153 20.0846 142.572 20.0856C141.975 20.0829 141.38 20.1593 140.802 20.3129C140.301 20.4417 139.824 20.6463 139.385 20.9196C139.024 21.1513 138.714 21.4536 138.473 21.8085C138.265 22.1032 138.153 22.4545 138.152 22.8149C138.152 23.1483 138.276 23.4475 138.537 23.7333C138.848 24.0709 139.216 24.3512 139.625 24.5616C140.099 24.8138 140.596 25.02 141.11 25.1771C141.602 25.3319 142.107 25.4445 142.618 25.5136C143.595 25.6182 144.552 25.8567 145.464 26.2223C146.363 26.5925 147.153 27.0574 147.808 27.6046C148.469 28.1494 149.011 28.8245 149.399 29.5879C149.786 30.3558 149.984 31.2044 149.979 32.064C149.982 32.9557 149.777 33.8358 149.378 34.6338C148.986 35.4348 148.429 36.1439 147.744 36.7144C146.245 37.9575 144.355 38.6322 142.407 38.6201ZM156.07 38.6201C155.892 38.621 155.716 38.5866 155.551 38.5189C155.386 38.4513 155.236 38.3517 155.11 38.2259C154.984 38.1001 154.884 37.9506 154.816 37.786C154.748 37.6214 154.713 37.4449 154.714 37.2668V18.7717C154.712 18.5927 154.746 18.4152 154.814 18.2498C154.882 18.0844 154.984 17.9346 155.111 17.8093C155.236 17.6814 155.385 17.5803 155.55 17.5124C155.715 17.4444 155.892 17.411 156.07 17.4143H167.358C167.536 17.4136 167.713 17.4483 167.877 17.5163C168.042 17.5844 168.191 17.6844 168.317 17.8107C168.443 17.937 168.542 18.0869 168.609 18.2519C168.677 18.4169 168.711 18.5935 168.709 18.7717C168.712 18.9491 168.679 19.1254 168.612 19.2895C168.544 19.4536 168.443 19.6021 168.316 19.7258C168.191 19.8531 168.042 19.9538 167.878 20.0218C167.713 20.0897 167.536 20.1236 167.358 20.1213H157.425V26.5966H164.457C164.817 26.5966 165.161 26.7394 165.415 26.9934C165.669 27.2475 165.812 27.5921 165.812 27.9514C165.812 28.3108 165.669 28.6554 165.415 28.9094C165.161 29.1635 164.817 29.3062 164.457 29.3062H157.425V35.9089H167.36C167.538 35.9077 167.715 35.942 167.879 36.0098C168.044 36.0776 168.194 36.1775 168.32 36.3037C168.445 36.4299 168.545 36.5799 168.612 36.7449C168.679 36.9099 168.713 37.0866 168.711 37.2648C168.715 37.4428 168.681 37.6197 168.614 37.7845C168.546 37.9493 168.446 38.0985 168.318 38.223C168.193 38.3501 168.044 38.4507 167.879 38.5186C167.715 38.5865 167.538 38.6203 167.36 38.618L156.07 38.6201ZM186.558 38.6201C186.38 38.6208 186.204 38.5863 186.039 38.5186C185.874 38.4509 185.724 38.3513 185.598 38.2256C185.472 38.0998 185.372 37.9504 185.303 37.7859C185.235 37.6214 185.2 37.445 185.2 37.2668V25.2118C185.205 24.5374 185.069 23.8693 184.802 23.2503C184.274 22.0264 183.297 21.0515 182.072 20.5262C181.453 20.2604 180.787 20.1234 180.114 20.1234C179.441 20.1234 178.775 20.2604 178.156 20.5262C177.555 20.7844 177.009 21.1576 176.551 21.6247C176.091 22.096 175.721 22.6468 175.457 23.2503C175.193 23.8703 175.058 24.5377 175.06 25.2118V37.2648C175.06 37.6238 174.918 37.9681 174.664 38.222C174.41 38.4759 174.065 38.6185 173.706 38.6185C173.347 38.6185 173.003 38.4759 172.749 38.222C172.495 37.9681 172.352 37.6238 172.352 37.2648V25.2118C172.349 23.6834 172.797 22.1881 173.639 20.9124C174.48 19.6368 175.68 18.6374 177.086 18.0392C178.044 17.6276 179.076 17.4157 180.118 17.4163C181.161 17.417 182.193 17.6301 183.15 18.0428C184.072 18.4345 184.911 19.0005 185.619 19.7097C186.328 20.4199 186.895 21.2589 187.29 22.1817C187.704 23.1379 187.916 24.1697 187.911 25.2118V37.2648C187.912 37.4428 187.878 37.6194 187.811 37.7842C187.743 37.9489 187.644 38.0987 187.518 38.2248C187.392 38.3508 187.242 38.4507 187.078 38.5185C186.913 38.5864 186.737 38.6209 186.558 38.6201ZM199.87 38.6201C198.873 38.626 197.881 38.4569 196.942 38.1205C196.061 37.8046 195.243 37.3333 194.529 36.7289C193.849 36.154 193.291 35.4479 192.89 34.653C192.495 33.8592 192.291 32.9839 192.294 32.0971C192.293 31.928 192.325 31.7604 192.39 31.6041C192.455 31.4479 192.55 31.3062 192.671 31.1875C192.852 31.0068 193.082 30.8836 193.332 30.8335C193.583 30.7834 193.843 30.8085 194.079 30.9058C194.315 31.0031 194.518 31.1681 194.66 31.3801C194.803 31.5921 194.88 31.8416 194.881 32.0971C194.878 32.6203 195.004 33.136 195.249 33.5984C195.504 34.0801 195.856 34.5033 196.284 34.8409C196.76 35.2121 197.295 35.5001 197.867 35.6925C198.503 35.9028 199.169 36.0077 199.838 36.0031C200.514 36.0059 201.186 35.8996 201.827 35.6884C202.413 35.4942 202.963 35.2059 203.456 34.8347C203.896 34.5045 204.26 34.0827 204.522 33.5984C204.763 33.146 204.871 32.6343 204.832 32.123C204.793 31.6337 204.636 31.1611 204.375 30.7454C204.09 30.2917 203.729 29.8908 203.308 29.5604C202.847 29.1966 202.334 28.9038 201.786 28.6917C201.201 28.4558 200.592 28.2853 199.97 28.1834C199.076 28.1217 198.194 27.9458 197.345 27.66C196.545 27.3995 195.788 27.0229 195.098 26.5423C194.47 26.1082 193.933 25.554 193.521 24.9115C193.113 24.2778 192.898 23.5393 192.903 22.7859C192.903 22.0337 193.101 21.2948 193.477 20.6432C193.872 19.974 194.401 19.3935 195.03 18.9379C195.674 18.4606 196.431 18.0806 197.285 17.7989C199.072 17.2423 200.987 17.2423 202.774 17.7989C203.628 18.08 204.386 18.46 205.032 18.9379C205.66 19.393 206.187 19.9737 206.579 20.6432C206.959 21.2931 207.159 22.0328 207.158 22.7859C207.16 22.9647 207.125 23.142 207.056 23.307C206.987 23.4719 206.885 23.6212 206.756 23.7457C206.634 23.8738 206.485 23.9748 206.321 24.0424C206.157 24.11 205.981 24.1426 205.803 24.1381C205.622 24.1417 205.442 24.1056 205.276 24.0321C205.11 23.9587 204.962 23.8498 204.842 23.7131C204.61 23.4599 204.477 23.1115 204.451 22.6855C204.427 22.354 204.306 22.037 204.103 21.7743C203.846 21.4366 203.529 21.1492 203.168 20.9268C202.728 20.6545 202.25 20.4491 201.75 20.3175C201.189 20.1629 200.61 20.0864 200.028 20.0903C199.43 20.0883 198.835 20.1647 198.258 20.3175C197.758 20.445 197.282 20.6497 196.846 20.9243C196.485 21.1562 196.174 21.4585 195.933 21.8131C195.725 22.1079 195.613 22.4591 195.611 22.8195C195.611 23.154 195.739 23.4522 195.994 23.7379C196.309 24.0744 196.679 24.3546 197.088 24.5662C197.563 24.8195 198.061 25.0257 198.576 25.1818C199.066 25.3357 199.569 25.4482 200.078 25.5183C201.055 25.6221 202.013 25.8606 202.925 26.227C203.774 26.5652 204.565 27.0313 205.272 27.6092C205.93 28.1543 206.469 28.8275 206.858 29.5879C207.248 30.3566 207.448 31.2071 207.442 32.0687C207.446 32.9593 207.242 33.8384 206.846 34.6364C206.45 35.4362 205.892 36.1448 205.208 36.717C203.709 37.9574 201.821 38.6306 199.875 38.6185L199.87 38.6201ZM220.275 38.6201C220.097 38.621 219.92 38.5866 219.756 38.5189C219.591 38.4513 219.441 38.3517 219.315 38.2259C219.189 38.1001 219.089 37.9506 219.021 37.786C218.953 37.6214 218.918 37.4449 218.918 37.2668V30.3727L210.58 19.5995C210.469 19.4643 210.386 19.3086 210.336 19.1413C210.286 18.974 210.269 18.7984 210.288 18.6247C210.299 18.4488 210.347 18.2773 210.429 18.1215C210.512 17.9656 210.626 17.8289 210.765 17.7203C211.01 17.5184 211.317 17.4086 211.635 17.4096C212.105 17.4422 212.416 17.611 212.649 17.8994L220.282 27.7107L228.059 17.9004C228.168 17.7599 228.305 17.6439 228.462 17.5602C228.618 17.4765 228.791 17.427 228.969 17.4148H228.991C229.406 17.4148 229.696 17.5184 229.946 17.7156C230.087 17.8247 230.203 17.9621 230.287 18.1191C230.372 18.2761 230.422 18.449 230.435 18.6267C230.463 18.9784 230.354 19.3272 230.132 19.601L221.63 30.3753V37.2648C221.634 37.4434 221.6 37.6208 221.533 37.7861C221.465 37.9514 221.364 38.101 221.236 38.2256C221.11 38.3525 220.961 38.4529 220.796 38.5207C220.63 38.5885 220.453 38.6223 220.275 38.6201ZM240.637 38.6201C239.638 38.6258 238.645 38.4568 237.704 38.1205C236.825 37.8038 236.01 37.3333 235.295 36.731C234.616 36.1552 234.059 35.4489 233.658 34.654C233.261 33.8613 233.057 32.9861 233.063 32.0997C233.062 31.8443 233.138 31.5945 233.28 31.3821C233.422 31.1697 233.624 31.0043 233.86 30.9068C234.096 30.8093 234.356 30.7842 234.606 30.8347C234.857 30.8851 235.087 31.0088 235.267 31.1901C235.388 31.3085 235.483 31.4501 235.548 31.6064C235.613 31.7627 235.646 31.9305 235.645 32.0997C235.643 32.6237 235.769 33.1402 236.012 33.6041C236.271 34.085 236.626 34.5078 237.054 34.8466C237.529 35.2161 238.064 35.5028 238.634 35.6946C239.269 35.9048 239.934 36.0098 240.602 36.0052C241.278 36.0081 241.95 35.9018 242.592 35.6904C243.178 35.4959 243.728 35.2076 244.222 34.8368C244.663 34.506 245.027 34.0835 245.288 33.5984C245.532 33.1464 245.64 32.6338 245.599 32.122C245.558 31.6334 245.402 31.1613 245.144 30.7444C244.857 30.2927 244.495 29.8924 244.075 29.5604C243.613 29.1978 243.101 28.9051 242.554 28.6917C241.969 28.4573 241.36 28.2868 240.739 28.1834C239.844 28.122 238.961 27.9461 238.111 27.66C237.311 27.3991 236.553 27.0224 235.862 26.5418C235.234 26.1078 234.698 25.5535 234.286 24.911C233.88 24.277 233.667 23.5387 233.673 22.7859C233.67 22.034 233.867 21.2948 234.242 20.6432C234.637 19.9743 235.166 19.3939 235.795 18.9379C236.437 18.4606 237.193 18.0806 238.05 17.7989C239.839 17.2419 241.754 17.2419 243.542 17.7989C244.35 18.0542 245.111 18.4388 245.795 18.9379C246.426 19.391 246.955 19.971 247.348 20.6406C247.726 21.2914 247.925 22.0307 247.925 22.7833C247.924 23.1425 247.78 23.4867 247.526 23.7402C247.271 23.9938 246.927 24.1359 246.567 24.1355C246.387 24.1396 246.208 24.1039 246.043 24.0309C245.878 23.9579 245.731 23.8494 245.612 23.7131C245.377 23.4594 245.241 23.1115 245.212 22.6829C245.192 22.3516 245.072 22.0342 244.869 21.7717C244.614 21.4315 244.295 21.1437 243.931 20.9243C243.492 20.6526 243.015 20.4473 242.516 20.3149C241.955 20.1605 241.376 20.084 240.794 20.0877C240.197 20.0853 239.602 20.1617 239.025 20.3149C238.526 20.4421 238.049 20.6468 237.613 20.9217C237.25 21.1515 236.939 21.4541 236.699 21.8106C236.491 22.105 236.379 22.4564 236.377 22.8169C236.377 23.1503 236.499 23.4496 236.761 23.7353C237.074 24.0722 237.444 24.3524 237.853 24.5636C238.327 24.8166 238.825 25.0228 239.339 25.1792C239.83 25.333 240.334 25.4456 240.844 25.5157C241.821 25.62 242.779 25.8585 243.691 26.2244C244.589 26.5946 245.377 27.0569 246.037 27.6067C246.698 28.1514 247.239 28.8266 247.627 29.5899C248.013 30.3581 248.212 31.2064 248.209 32.0661C248.211 32.9569 248.006 33.8361 247.609 34.6338C247.215 35.4341 246.657 36.1429 245.971 36.7144C244.472 37.9564 242.583 38.6311 240.637 38.6201Z" fill="#2C56DD"/>
</g>
<defs>
<clipPath id="clip0_9260_16262">
<rect width="248.21" height="56" fill="white"/>
</clipPath>
</defs>
</svg>
