<?xml version="1.0" encoding="utf-8"?>
<!-- Generator: Adobe Illustrator 27.0.1, SVG Export Plug-In . SVG Version: 6.00 Build 0)  -->
<svg version="1.1" id="Layer_1" xmlns="http://www.w3.org/2000/svg" xmlns:xlink="http://www.w3.org/1999/xlink" x="0px" y="0px"
	 viewBox="0 0 1003.3 207" style="enable-background:new 0 0 1003.3 207;" xml:space="preserve">
<path d="M685.4,148.9h28.3V75.8h0.3l47.7,73.1h28.5V27.1h-28.3v75l-0.3,0.2L713,27.1h-27.6V148.9z M503.8,150.5
	c9.4,0.1,18.7-2,27.2-6s16-9.9,21.9-17.2l-20.9-18c-7,8.4-16.8,13.7-28.1,13.7c-19.9,0-32.8-15.3-32.8-34.8
	c0-22.3,14.9-35.3,32.6-35.3c11.8,0,21.6,6.3,28.1,14.1l20.9-18c-13.4-16.3-31.9-23.5-49.1-23.5c-40.2,0-62.8,28-62.8,62.8
	C440.8,128.7,468.8,150.5,503.8,150.5z M368.2,84.6V52.3h13.4c12.9,0,18.7,6.9,18.7,16.1c0,10.1-6.5,16.1-19.2,16.1L368.2,84.6z
	 M340.3,148.9h28v-39.3h16.1c27.6,0,45.6-13.4,45.6-40.5c0-24.4-13.4-42-43.4-42h-46.3L340.3,148.9z M263.2,84.6V52.3h13.4
	c12.9,0,18.7,6.9,18.7,16.1c0,10.1-6.5,16.1-19.2,16.1L263.2,84.6z M235.3,148.9h28v-39.3h16.1c27.6,0,45.6-13.4,45.6-40.5
	c0-24.4-13.4-42-43.4-42h-46.3V148.9z M151.2,103l13.4-41.2h0.3l13.6,41.2H151.2z M106.2,148.9h30l7.2-22H186l7.2,22H223L178.5,27.1
	H151L106.2,148.9z M28,123.4V52.7h14.9c18.7,0,32.6,15.1,32.6,35.5c0,19.7-13.7,35.2-34.7,35.2L28,123.4z M0,148.9h42.7
	c39.5,0,62.8-24.9,62.8-60.7c0-36-24.7-61.1-63.3-61.1H0V148.9z"/>
<path d="M611.4,3.3L666,93.5c0.2,0.4-54.5,31.9-54.7,31.9s-54.7-31.4-55-31.5L611.4,3.3z"/>
<path d="M556.4,106.4c0.2,0,54.9,32.2,54.9,32.2l54.6-32.2l-54.6,77.2C611.3,183.6,556.7,106.5,556.4,106.4
	C556.4,106.5,556.4,106.5,556.4,106.4"/>
<g>
	<path d="M816.6,130.4l36.6-38.9c9.7-10.2,15.1-17.7,15.1-26.5c0-7.7-5.4-13.4-12.9-13.4c-7.3,0-13.6,3.4-18.8,11.3L815.8,48
		c7.3-12.7,20.6-23.3,41.9-23.3c21.2,0,40,14,40,36.9c0,14.2-3.8,24.4-20.3,41.4l-18.8,19.5l0.2,0.5h40v26.4h-81.7L816.6,130.4z"/>
	<path d="M956.8,130H907v-17.4l55.4-86.4h22.8V106h15.8v24h-15.8v19.4h-28.3V130H956.8z M959.3,107.8V71.4l-22.6,36.4H959.3z"/>
</g>
<g>
	<path d="M686.4,198.4h3.4v-11.8h14.6v11.8h3.4v-28h-3.4v13.2h-14.6v-13.2h-3.4V198.4z"/>
	<path d="M723.1,198.8c5.7,0,9.9-4,9.9-9.8s-4.2-9.9-9.9-9.9c-6,0-9.9,4.3-9.9,9.9C713.1,194.4,717.1,198.8,723.1,198.8z
		 M723.1,195.8c-4,0-6.7-3.1-6.7-6.9c0-3.8,2.6-7,6.7-7c3.7,0,6.6,2.8,6.6,7C729.7,192.9,726.7,195.8,723.1,195.8z"/>
	<path d="M743.5,198.8c4.6,0,6.9-2.5,6.9-5.5c0-3.8-2.6-4.5-6.7-6c-2.1-0.8-3.6-1.5-3.6-3s1.5-2.3,3-2.3c1.7,0,3.4,0.5,5.1,2.1
		l1.7-2.5c-2.1-1.7-4.3-2.4-6.6-2.4c-3.6,0-6.3,2.2-6.3,5.2c0,3.5,2.6,4.8,5.8,5.9c2.8,1,4.6,1.5,4.6,3.2c0,1.5-1.3,2.6-3.7,2.6
		c-2.7,0-4.4-0.9-5.9-2.3l-1.6,2.4C737.9,197.6,740.3,198.8,743.5,198.8z"/>
	<path d="M760.4,198.8c2.3,0,3.6-0.6,4.7-1.2l-0.8-2.8c-0.9,0.5-2.1,1-3.3,1c-1.8,0-2.3-1.1-2.3-3.4V182h6.4v-2.8h-6.4v-6.9
		l-3.2,0.4v6.6H753v2.8h2.5v10.7C755.4,196.6,757,198.8,760.4,198.8z"/>
	<path d="M785.4,188.5c0-5.5-3.6-9.5-8.8-9.5c-5.5,0-9.5,4.1-9.5,9.9c0,5.9,4,9.8,9.7,9.8c3.9,0,6.3-1.5,7.9-3.6l-2.2-1.9
		c-1.2,1.5-3,2.6-5.6,2.6c-3.6,0-6.2-2.4-6.6-6h15C785.3,189.5,785.4,189,785.4,188.5z M776.5,181.9c3.2,0,5.2,2.1,5.7,5.3h-11.8
		C771,183.9,773.4,181.9,776.5,181.9z"/>
	<path d="M798.2,198.8c3.1,0,5.6-1.5,6.9-3.8l0,0v3.6h3.1v-29.1H805v13.3l0,0c-1.5-2.3-3.9-3.7-6.9-3.7c-5.4,0-9.4,4.3-9.4,10
		C788.8,194.9,792.9,198.8,798.2,198.8z M798.6,195.8c-3.9,0-6.6-2.9-6.6-6.8c0-4.3,3-7.1,6.6-7.1c3.9,0,6.5,3.1,6.5,7.1
		C805.2,193,802.3,195.8,798.6,195.8z"/>
	<path d="M835,198.8c5.3,0,9.4-3.9,9.4-9.7c0-5.7-3.9-10-9.4-10c-2.9,0-5.4,1.3-6.8,3.6l0,0v-13.2H825v29.1h3V195h0.1
		C829.5,197.4,831.9,198.8,835,198.8z M834.6,195.8c-3.7,0-6.6-2.7-6.6-6.8c0-3.9,2.6-7.1,6.5-7.1c3.6,0,6.6,2.8,6.6,7.1
		C841.2,192.9,838.5,195.8,834.6,195.8z"/>
	<path d="M850.6,206.4h3.3l10.9-27.1h-3.4l-5.8,14.6h-0.1l-6.2-14.6h-3.5l8.2,18.5L850.6,206.4z"/>
	<path d="M892.7,198.8c4.3,0,8.5-1.4,11-3.5v-12.1H892v4.8h6.3v4.1c-1.8,1.1-3.6,1.6-5.6,1.6c-5.2,0-8.5-4-8.5-9.2
		c0-5.7,3.6-9.2,8.2-9.2c3.1,0,5.5,1.2,7.2,2.9l3.9-3.4c-2.9-3.2-7.1-4.8-11.1-4.8c-8.8,0-14,6.2-14,14.4
		C878.4,193.5,884.6,198.8,892.7,198.8z"/>
	<path d="M908.6,198.4h5.2v-9.7c0-3.5,1.7-5.3,4.3-5.3c2.4,0,3.7,1.1,3.7,4.8v10.1h5.2V187c0-5.9-2.9-8.1-7-8.1
		c-2.4,0-4.6,0.9-6.2,2.8h-0.1v-2.5h-5.2L908.6,198.4L908.6,198.4z"/>
	<path d="M941,198.9c6,0,10.2-4.1,10.2-10s-4.2-10-10.2-10c-6.2,0-10.3,4.2-10.3,10C930.7,194.6,934.9,198.9,941,198.9z M941,194.1
		c-3,0-5-2.3-5-5.3s2-5.3,5-5.3c2.8,0,5,2.2,5,5.3C946,192,943.8,194.1,941,194.1z"/>
	<path d="M961.5,198.9c5,0,7.5-2.6,7.5-6c0-3.8-2.4-4.7-6.6-6.3c-1.9-0.7-2.8-1.3-2.8-2.1c0-1,1-1.4,1.8-1.4c1.4,0,3.2,0.6,4.6,2.1
		l2.5-3.8c-2.2-1.7-4.4-2.4-7-2.4c-4,0-7,2.3-7,5.7c0,3.8,2.8,5.3,6,6.3c2.5,0.8,3.5,1.3,3.5,2.1c0,0.9-0.8,1.6-2.3,1.6
		c-2.1,0-3.8-0.8-5.4-2.2l-2.5,3.6C955.8,197.9,958.4,198.9,961.5,198.9z"/>
	<path d="M975.7,176.5c1.9,0,3.3-1.4,3.3-3.2c0-1.7-1.4-3.2-3.3-3.2c-1.9,0-3.3,1.4-3.3,3.2C972.5,175.1,973.8,176.5,975.7,176.5z
		 M973.1,198.4h5.2v-19.3h-5.2V198.4z"/>
	<path d="M989.9,198.9c5,0,7.5-2.6,7.5-6c0-3.8-2.4-4.7-6.6-6.3c-1.9-0.7-2.8-1.3-2.8-2.1c0-1,1-1.4,1.8-1.4c1.4,0,3.2,0.6,4.6,2.1
		l2.5-3.8c-2.2-1.7-4.4-2.4-7-2.4c-4,0-7,2.3-7,5.7c0,3.8,2.8,5.3,6,6.3c2.5,0.8,3.5,1.3,3.5,2.1c0,0.9-0.8,1.6-2.3,1.6
		c-2.1,0-3.8-0.8-5.4-2.2l-2.5,3.6C984.2,197.9,986.8,198.9,989.9,198.9z"/>
</g>
</svg>
