<svg width="256" height="48" viewBox="0 0 256 48" fill="none" xmlns="http://www.w3.org/2000/svg">
<g clip-path="url(#clip0_9260_16609)">
<path d="M175.089 38.0368H182.318V19.3631H182.395L194.58 38.0368H201.861V6.9224H194.631V26.0815L194.555 26.1326L182.139 6.9224H175.089V38.0368ZM128.698 38.4456C131.1 38.4711 133.475 37.9346 135.647 36.9128C137.818 35.891 139.734 34.3838 141.241 32.519L135.902 27.9208C134.114 30.0666 131.61 31.4205 128.724 31.4205C123.64 31.4205 120.345 27.5121 120.345 22.5307C120.345 16.8341 124.151 13.5131 128.673 13.5131C131.687 13.5131 134.191 15.1225 135.851 17.1151L141.19 12.5169C137.767 8.35295 133.041 6.51367 128.647 6.51367C118.378 6.51367 112.605 13.6664 112.605 22.5562C112.605 32.8766 119.757 38.4456 128.698 38.4456ZM94.0585 21.6111V13.3599H97.4816C100.777 13.3599 102.259 15.1225 102.259 17.4727C102.259 20.0528 100.598 21.5855 97.3539 21.5855L94.0585 21.6111ZM86.9314 38.0368H94.0841V27.9974H98.1969C105.247 27.9974 109.846 24.5743 109.846 17.6515C109.846 11.4184 106.423 6.9224 98.7589 6.9224H86.9314V38.0368ZM67.2358 21.6111V13.3599H70.6589C73.9542 13.3599 75.4359 15.1225 75.4359 17.4727C75.4359 20.0528 73.7754 21.5855 70.5311 21.5855L67.2358 21.6111ZM60.1086 38.0368H67.2613V27.9974H71.3741C78.4247 27.9974 83.0229 24.5743 83.0229 17.6515C83.0229 11.4184 79.5998 6.9224 71.9361 6.9224H60.1086V38.0368ZM38.6248 26.3114L42.0479 15.7867H42.1245L45.5987 26.3114H38.6248ZM27.1293 38.0368H34.793L36.6323 32.4168H47.5146L49.3539 38.0368H56.9665L45.5987 6.9224H38.5737L27.1293 38.0368ZM7.15274 31.5227V13.462H10.959C15.736 13.462 19.2869 17.3194 19.2869 22.5307C19.2869 27.5632 15.7871 31.5227 10.4226 31.5227H7.15274ZM0 38.0368H10.9079C20.9984 38.0368 26.9505 31.676 26.9505 22.5307C26.9505 13.3343 20.6408 6.9224 10.7802 6.9224H0V38.0368Z" fill="#5244F3"/>
<path d="M142.135 23.9614C142.237 23.8592 142.314 23.757 142.365 23.6293C143.183 22.2754 154.448 3.70379 155.061 2.70752C155.419 2.11997 155.776 1.55797 156.109 0.970424C156.185 0.81715 156.211 0.81715 156.287 0.970424C156.696 1.63461 157.079 2.29879 157.488 2.96297C158.791 5.1088 169.341 22.5308 170.133 23.8592C170.133 23.8847 170.159 23.8847 170.159 23.9103C170.21 24.0125 170.21 24.038 170.108 24.0891C169.801 24.2679 156.696 31.8038 156.338 32.0082C156.287 32.0338 156.236 32.0593 156.185 32.0593C156.134 32.0593 156.083 32.0338 156.032 32.0082C154.193 30.9098 143.566 24.8555 142.34 24.1147C142.288 24.0636 142.212 24.038 142.135 24.0125V23.9614Z" fill="#5244F3"/>
<path d="M142.135 27.1797C142.186 27.1797 142.263 27.2052 142.314 27.2563C143.055 27.6906 143.77 28.1249 144.511 28.5591C145.967 29.4021 147.398 30.2707 148.854 31.1137C149.62 31.5735 150.412 32.0333 151.178 32.4932L155.649 35.1243C155.776 35.201 155.93 35.2776 156.057 35.3798C156.083 35.4053 156.134 35.4309 156.185 35.4309C156.236 35.4309 156.287 35.4053 156.313 35.3798C157.003 34.9711 157.667 34.5623 158.331 34.1792C160.094 33.1318 161.831 32.11 163.593 31.0626L167.86 28.5336C168.575 28.0993 169.316 27.6906 170.031 27.2563C170.056 27.2308 170.108 27.1797 170.159 27.2052C170.159 27.2563 170.133 27.2819 170.108 27.3074C169.009 28.8401 167.936 30.3729 166.838 31.8801C165.816 33.2851 164.82 34.7156 163.823 36.1206C162.827 37.5256 161.831 38.9051 160.86 40.2845C159.889 41.6384 158.944 42.9924 157.973 44.3207C157.411 45.1382 156.824 45.9301 156.262 46.7475L156.16 46.9008H156.134C156.109 46.8242 156.057 46.7475 156.006 46.6709C155.623 46.16 155.266 45.6235 154.908 45.1126L152.941 42.3282L150.999 39.5693L149.262 37.0913L147.168 34.1281C146.657 33.4128 146.171 32.7231 145.66 32.0078C145.098 31.1903 144.511 30.3984 143.949 29.581L142.263 27.2052C142.237 27.2563 142.212 27.2052 142.135 27.1797C142.135 27.2052 142.135 27.2052 142.135 27.1797Z" fill="#5244F3"/>
<path d="M208.426 33.4135L217.852 23.3741C220.356 20.7429 221.735 18.8014 221.735 16.5279C221.735 14.5353 220.356 13.0537 218.414 13.0537C216.524 13.0537 214.889 13.9222 213.56 15.9659L208.196 12.1341C210.086 8.83868 213.509 6.13086 219.027 6.13086C224.494 6.13086 229.348 9.73278 229.348 15.6593C229.348 19.3123 228.377 21.9435 224.111 26.3374L219.257 31.3698L219.308 31.4975H229.629V38.2926H208.528L208.426 33.4135Z" fill="#5244F3"/>
<path d="M244.7 38.6245C250.908 38.6245 255.455 35.1503 255.455 29.6325C255.455 26.0306 253.59 23.425 250.627 22.071V21.9433C253.054 20.4361 254.51 17.9838 254.51 14.9183C254.51 9.5282 249.963 6.48828 244.266 6.48828C239.617 6.48828 235.785 8.94065 234.431 12.3637L240.358 15.5058C241.098 13.922 242.171 13.0535 244.036 13.0535C246.003 13.0535 247.408 14.3308 247.408 16.2467C247.408 18.0348 246.259 19.3377 244.087 19.3377H241.533V25.0854H243.576C246.412 25.0854 247.817 26.6692 247.817 28.6362C247.817 30.9098 246.08 32.136 244.164 32.136C241.737 32.136 240.332 30.9864 239.642 28.8661L233.23 31.4207C234.712 35.508 238.953 38.6245 244.7 38.6245Z" fill="#5244F3"/>
</g>
<defs>
<clipPath id="clip0_9260_16609">
<rect width="255.455" height="48" fill="white"/>
</clipPath>
</defs>
</svg>
