<svg width="244" height="40" viewBox="0 0 244 40" fill="none" xmlns="http://www.w3.org/2000/svg">
<g clip-path="url(#clip0_9260_16423)">
<path d="M0 3.24616H19.2305V8.64654H5.67467V14.3639H16.8838V19.7643H5.67467V25.6401H19.2305V31.0405H0V3.24616ZM31.9025 11.0481C32.9806 11.0213 34.0503 11.244 35.0284 11.6986C36.0063 12.1532 36.8661 12.8275 37.5406 13.669V1.67969H42.9044V31.0405H37.5406V28.8462C36.8671 29.6887 36.0074 30.3639 35.0291 30.8186C34.0511 31.2732 32.9808 31.4953 31.9025 31.4671C26.6971 31.4671 22.7048 26.8104 22.7048 21.2515C22.7048 15.6926 26.6971 11.0481 31.9025 11.0481ZM33.0362 15.9243C30.0983 15.9243 28.1051 18.1917 28.1051 21.2454C28.1051 24.2991 30.0983 26.5727 33.0362 26.5727C35.9741 26.5727 37.9672 24.2991 37.9672 21.2454C37.9672 18.1917 35.9619 15.9243 33.0362 15.9243ZM52.9189 32.2473C53.5893 34.2405 55.1131 35.1426 57.344 35.1426C59.6907 35.1426 61.7691 33.6188 61.7691 30.5224V28.2184C60.7512 29.669 58.5996 30.8028 56.0945 30.8028C51.005 30.8028 46.8541 26.4203 46.8541 20.9407C46.8541 15.461 51.005 11.0481 56.0762 11.0481C58.5813 11.0481 60.733 12.1818 61.7509 13.669V11.4686H67.1147V29.8275C67.1147 36.9102 62.2994 39.5799 57.2099 39.5799C51.6876 39.5799 48.0671 36.4104 47.6587 32.2229L52.9189 32.2473ZM57.2282 15.9243C56.2349 15.911 55.2598 16.1933 54.4272 16.7354C53.5947 17.2776 52.9421 18.055 52.5524 18.9689C52.1627 19.8828 52.0535 20.8919 52.2387 21.8681C52.4238 22.8441 52.8951 23.7431 53.5924 24.4508C54.2897 25.1584 55.1817 25.6428 56.1551 25.8424C57.1284 26.0418 58.1389 25.9475 59.0585 25.5713C59.9779 25.1949 60.765 24.554 61.3192 23.7294C61.8735 22.9048 62.1701 21.9342 62.1714 20.9407C62.1905 20.2829 62.076 19.6281 61.8352 19.0158C61.5945 18.4034 61.2324 17.8461 60.7705 17.3774C60.3086 16.9087 59.7568 16.5383 59.148 16.2886C58.5392 16.0389 57.8861 15.9149 57.2282 15.9243ZM81.1642 31.4671C75.1726 31.4671 70.9059 27.1639 70.9059 21.2149C70.9059 15.3818 75.2518 11.0359 81.2008 11.0359C86.9547 11.0359 91.6907 15.1441 91.4164 22.5071H76.1783C76.4099 24.8172 78.1349 26.8104 81.4629 26.8104C83.3402 26.8104 84.9859 25.9875 85.6076 24.6588H91.2092C90.0084 28.6146 86.1318 31.4671 81.1642 31.4671ZM76.349 18.9719H85.5467C85.3385 17.9436 84.776 17.021 83.9573 16.3649C83.1387 15.7088 82.1156 15.3609 81.0667 15.3818C79.9817 15.3208 78.9107 15.6488 78.0459 16.3069C77.1811 16.965 76.5794 17.9099 76.349 18.9719Z" fill="#17203E"/>
<path d="M169.088 31.0405L158.056 14.2054V31.0405H152.381V3.24616H157.257L168.283 20.0812V3.24616H173.958V31.0405H169.088ZM187.374 31.4671C185.357 31.4515 183.39 30.8391 181.72 29.7071C180.051 28.5751 178.754 26.9742 177.992 25.1062C177.231 23.2382 177.04 21.1868 177.443 19.2104C177.847 17.234 178.826 15.4212 180.257 14.0004C181.689 12.5796 183.51 11.6145 185.489 11.2268C187.468 10.839 189.518 11.0458 191.381 11.8213C193.242 12.5968 194.832 13.9061 195.952 15.5843C197.071 17.2625 197.669 19.2344 197.669 21.2515C197.669 22.5988 197.402 23.9327 196.884 25.1765C196.368 26.4203 195.608 27.5494 194.653 28.4988C193.697 29.4483 192.564 30.1993 191.316 30.7089C190.069 31.2182 188.733 31.4759 187.386 31.4671H187.374ZM187.374 26.4568C190.19 26.4568 192.25 24.2687 192.25 21.2515C192.25 18.2344 190.214 16.0462 187.374 16.0462C184.533 16.0462 182.498 18.2404 182.498 21.2515C182.498 24.2626 184.564 26.4568 187.386 26.4568H187.374ZM209.177 11.0481C210.255 11.0204 211.324 11.2426 212.303 11.6973C213.28 12.152 214.141 12.8268 214.815 13.669V1.67969H220.179V31.0405H214.815V28.8462C214.141 29.6894 213.282 30.365 212.303 30.8199C211.326 31.2746 210.255 31.4963 209.177 31.4671C203.971 31.4671 199.979 26.8104 199.979 21.2515C199.979 15.6926 203.971 11.0481 209.177 11.0481ZM210.286 15.9243C207.354 15.9243 205.354 18.1917 205.354 21.2454C205.354 24.2991 207.354 26.5727 210.286 26.5727C213.217 26.5727 215.223 24.2991 215.223 21.2454C215.223 18.1917 213.248 15.9243 210.286 15.9243ZM233.545 31.4671C227.554 31.4671 223.288 27.1639 223.288 21.2149C223.288 15.3818 227.632 11.0359 233.581 11.0359C239.335 11.0359 244.072 15.1441 243.798 22.5071H228.56C228.791 24.8172 230.516 26.8104 233.844 26.8104C235.722 26.8104 237.368 25.9875 237.989 24.6588H243.591C242.389 28.6146 238.512 31.4671 233.545 31.4671ZM228.73 18.9719H237.928C237.72 17.9436 237.156 17.021 236.339 16.3649C235.52 15.7088 234.497 15.3609 233.448 15.3818C232.362 15.3208 231.291 15.6488 230.427 16.3069C229.562 16.965 228.96 17.9099 228.73 18.9719Z" fill="#17203E"/>
<path d="M135.253 15.9238L123.062 19.4225V24.195L127.207 22.976C127.082 24.1781 126.612 25.3185 125.854 26.2592C125.095 27.2 124.08 27.9011 122.932 28.2777C121.784 28.6545 120.551 28.6906 119.382 28.3819C118.214 28.0733 117.16 27.4329 116.347 26.5383C115.534 25.6436 114.998 24.5329 114.803 23.3402C114.608 22.1474 114.762 20.9238 115.248 19.8167C115.733 18.7099 116.528 17.767 117.537 17.1022C118.547 16.4373 119.727 16.0789 120.935 16.0701H120.972C122.695 16.0676 124.367 15.4827 125.717 14.4103C127.066 13.338 128.013 11.841 128.405 10.1625C128.796 8.48405 128.609 6.72253 127.873 5.16392C127.137 3.60531 125.897 2.3411 124.352 1.5765C122.807 0.811906 121.05 0.5918 119.364 0.951918C117.678 1.31203 116.164 2.23123 115.067 3.5603C113.97 4.88939 113.354 6.55032 113.319 8.2735C113.285 9.99668 113.834 11.6809 114.877 13.0529C113.24 14.1214 111.914 15.6033 111.033 17.3488C110.153 19.0943 109.749 21.0413 109.862 22.9929C109.976 24.9445 110.603 26.8316 111.68 28.463C112.757 30.0945 114.246 31.4125 115.996 32.2838C117.746 33.1552 119.695 33.5487 121.646 33.4249C123.598 33.3009 125.481 32.664 127.107 31.5785C128.733 30.4927 130.043 28.9969 130.905 27.2425C131.767 25.4878 132.151 23.5365 132.016 21.5863L135.259 20.6598L135.253 15.9238ZM120.941 5.65939C121.683 5.65939 122.395 5.95415 122.92 6.47883C123.444 7.0035 123.739 7.7151 123.739 8.4571C123.739 9.1991 123.444 9.91072 122.92 10.4354C122.395 10.9601 121.683 11.2548 120.941 11.2548H120.905C120.538 11.2524 120.174 11.1777 119.836 11.0349C119.497 10.8921 119.19 10.684 118.932 10.4225C118.411 9.89436 118.121 9.18081 118.125 8.43882C118.13 7.69682 118.43 6.98714 118.958 6.4659C119.486 5.94464 120.199 5.65455 120.941 5.65939Z" fill="#17203E"/>
</g>
<defs>
<clipPath id="clip0_9260_16423">
<rect width="243.81" height="40" fill="white"/>
</clipPath>
</defs>
</svg>
