<svg version="1.1" id="Layer_1" xmlns="http://www.w3.org/2000/svg" xmlns:xlink="http://www.w3.org/1999/xlink" x="0px" y="0px"
	 width="100%" viewBox="0 0 2158 754" enable-background="new 0 0 2158 754" xml:space="preserve">
<path fill="#0F283A" opacity="1.000000" stroke="none" 
	d="
M1405.000000,755.000000 
	C936.666687,755.000000 468.833344,755.000000 1.000000,755.000000 
	C1.000000,503.666656 1.000000,252.333328 1.000000,1.000000 
	C720.333313,1.000000 1439.666626,1.000000 2159.000000,1.000000 
	C2159.000000,252.333328 2159.000000,503.666656 2159.000000,755.000000 
	C1907.833374,755.000000 1656.666626,755.000000 1405.000000,755.000000 
M1092.000854,36.876587 
	C1084.310669,66.519394 1076.592896,96.155106 1068.938843,125.807259 
	C1062.783203,149.655182 1056.704712,173.523056 1049.933472,197.691772 
	C1048.154297,197.346375 1046.342407,197.119080 1044.600586,196.638229 
	C1007.246399,186.324936 969.901001,175.979721 932.551697,165.648697 
	C916.315491,161.157684 900.074341,156.684601 883.835388,152.203354 
	C884.966736,154.627045 886.814392,156.055466 888.468872,157.680557 
	C911.275635,180.082199 934.035950,202.531296 956.849487,224.926056 
	C973.242859,241.018448 989.698853,257.047150 1005.972961,273.756622 
	C1004.646423,275.233276 1003.394714,276.785950 1001.982361,278.175415 
	C965.548584,314.018433 929.088440,349.834656 892.684937,385.708344 
	C891.171936,387.199280 890.162292,389.200958 888.982544,390.990021 
	C888.982544,390.990021 888.995178,390.921967 888.295349,390.534668 
	C887.675598,391.017700 887.055786,391.500702 885.879761,392.133118 
	C885.187378,392.900665 884.494934,393.668182 883.218506,395.083099 
	C884.795166,394.780914 885.440430,394.703033 886.059998,394.532013 
	C936.544128,380.596466 987.019104,366.627625 1037.521484,352.758545 
	C1041.772949,351.591034 1046.207397,351.089661 1050.727783,351.056671 
	C1064.518555,404.350464 1078.309448,457.644287 1092.084717,511.679749 
	C1092.525269,513.395020 1092.965820,515.110229 1093.553711,517.399353 
	C1094.380127,514.620728 1095.110107,512.420288 1095.689453,510.180908 
	C1103.812988,478.775513 1111.924438,447.366943 1120.020874,415.954529 
	C1125.749756,393.727692 1131.451904,371.493988 1137.876953,349.332886 
	C1192.963745,364.577881 1248.050537,379.822845 1303.137329,395.067810 
	C1303.280029,394.797729 1303.422607,394.527618 1303.565308,394.257507 
	C1262.866699,354.195374 1222.168091,314.133270 1181.743530,273.399353 
	C1183.072388,271.914459 1184.324341,270.351410 1185.742065,268.956940 
	C1197.025635,257.858582 1208.341064,246.792877 1219.645752,235.716095 
	C1234.283081,221.373657 1248.969360,207.080780 1263.541504,192.672256 
	C1276.806885,179.555893 1289.947632,166.313553 1303.510864,152.935135 
	C1303.473999,152.721161 1303.437134,152.507187 1303.400269,152.293198 
	C1303.182129,152.441177 1302.963989,152.589157 1302.095703,152.721512 
	C1301.067505,152.988144 1300.039307,153.254761 1298.217651,153.763290 
	C1262.163086,163.719238 1226.117676,173.709030 1190.049805,183.616669 
	C1172.429321,188.456970 1154.766846,193.144226 1137.031372,197.116882 
	C1122.920532,142.756744 1108.809692,88.396614 1094.667847,33.434689 
	C1094.348145,32.596378 1094.028442,31.758068 1093.423706,30.172016 
	C1092.903442,32.737740 1092.559814,34.432690 1092.000854,36.876587 
M914.568298,461.545441 
	C913.299988,460.978638 912.031738,460.411835 909.779968,459.405518 
	C940.783264,503.109711 971.117188,545.822876 1001.400024,588.572205 
	C1031.684448,631.323792 1061.917969,674.111633 1092.468018,717.496155 
	C1093.712402,716.847839 1095.338867,716.500977 1096.131714,715.496277 
	C1098.807495,712.104553 1101.179443,708.473694 1103.681641,704.944336 
	C1132.937866,663.677124 1162.192749,622.408997 1191.455811,581.146606 
	C1215.330322,547.482300 1239.225464,513.832581 1263.087158,480.159241 
	C1267.751465,473.577179 1272.304810,466.916473 1276.909302,460.292053 
	C1276.684814,460.036011 1276.460205,459.779938 1276.235718,459.523895 
	C1271.828491,462.033691 1267.421387,464.543488 1262.231079,467.009003 
	C1260.207397,467.675812 1258.097046,468.153595 1256.172974,469.037201 
	C1216.022827,487.474854 1175.905518,505.984406 1135.754028,524.419006 
	C1121.876587,530.790466 1107.923950,536.998108 1093.248291,543.170410 
	C1092.002075,542.714600 1090.716553,542.343811 1089.515137,541.790771 
	C1038.433228,518.275452 987.367371,494.725616 936.271301,471.241241 
	C930.876526,468.761749 925.310364,466.655151 919.416565,464.177521 
	C919.416565,464.177521 918.989502,464.027008 918.806580,463.568970 
	C918.530090,463.299622 918.225281,463.262421 917.397888,463.282990 
	C917.236633,463.215668 917.075439,463.148346 916.675354,462.534149 
	C916.122681,462.341003 915.570068,462.147858 914.568298,461.545441 
M1837.000244,331.414978 
	C1837.000244,334.010895 1837.000244,336.606781 1837.000244,339.211731 
	C1805.296631,339.211731 1774.213623,339.211731 1742.626587,339.211731 
	C1742.626587,275.864655 1742.626587,212.810440 1742.626587,149.725861 
	C1713.516724,149.725861 1684.913086,149.725861 1656.071777,149.725861 
	C1656.071777,304.491119 1656.071777,459.034882 1656.071777,613.728882 
	C1684.993530,613.728882 1713.719727,613.728882 1742.915649,613.728882 
	C1742.915649,547.745850 1742.915649,482.032196 1742.915649,416.225342 
	C1774.464600,416.225342 1805.542725,416.225342 1837.039307,416.225342 
	C1837.039307,482.175964 1837.039307,547.902649 1837.039307,613.759399 
	C1866.189209,613.759399 1894.919800,613.759399 1923.764893,613.759399 
	C1923.764893,458.956635 1923.764893,304.394501 1923.764893,149.775787 
	C1894.801147,149.775787 1866.073364,149.775787 1837.000244,149.775787 
	C1837.000244,210.176025 1837.000244,270.305481 1837.000244,331.414978 
M838.496765,531.500427 
	C838.496765,404.261383 838.496765,277.022308 838.496765,149.803940 
	C809.131897,149.803940 780.546753,149.803940 751.416016,149.803940 
	C751.416016,212.992188 751.416016,275.883148 751.416016,338.737122 
	C720.767517,338.737122 690.667542,338.737122 660.067627,338.737122 
	C660.067627,275.573456 660.067627,212.670792 660.067627,149.665451 
	C630.932983,149.665451 602.300110,149.665451 573.416565,149.665451 
	C573.416565,304.067017 573.416565,458.307220 573.416565,612.748413 
	C602.367493,612.748413 631.101135,612.748413 660.305847,612.748413 
	C660.305847,546.945984 660.305847,481.393616 660.305847,415.721161 
	C690.871033,415.721161 720.964417,415.721161 751.525513,415.721161 
	C751.525513,481.505737 751.525513,547.064941 751.525513,612.735107 
	C780.755188,612.735107 809.515930,612.735107 838.497070,612.735107 
	C838.497070,585.813965 838.497070,559.157227 838.496765,531.500427 
M1412.944580,610.625977 
	C1415.955566,611.594604 1418.914307,612.791077 1421.985596,613.497253 
	C1459.602173,622.146729 1497.327026,622.557434 1534.881714,613.615845 
	C1556.514648,608.465332 1575.191650,598.000061 1587.990601,578.956482 
	C1597.673706,564.548706 1602.539062,548.280396 1604.946289,531.388672 
	C1609.193359,501.584900 1608.328491,471.559601 1607.505859,441.570770 
	C1607.493286,441.113739 1607.186768,440.664734 1607.065674,440.340729 
	C1578.199707,440.340729 1549.458130,440.340729 1521.164795,440.340729 
	C1521.164795,454.845215 1521.570068,469.022064 1521.049194,483.164795 
	C1520.541992,496.937836 1520.084717,510.847809 1517.754272,524.378845 
	C1515.624023,536.746338 1507.544922,545.329773 1494.391602,547.143616 
	C1486.690552,548.205688 1478.796997,548.989746 1471.071045,548.531555 
	C1452.298706,547.418579 1442.747192,538.915405 1438.920044,520.358826 
	C1437.687134,514.381287 1437.460693,508.129730 1437.367676,501.994537 
	C1436.769043,462.501099 1435.841675,423.003510 1435.977173,383.510529 
	C1436.131592,338.521118 1436.915161,293.524811 1438.187256,248.553024 
	C1438.672363,231.402420 1447.384155,218.187790 1466.394165,216.026230 
	C1475.039673,215.043182 1484.033936,215.147583 1492.647705,216.350677 
	C1504.314819,217.980255 1512.201172,225.213654 1515.372192,236.769043 
	C1516.683960,241.549118 1517.773560,246.552078 1517.868896,251.474869 
	C1518.204346,268.799225 1518.068726,286.132751 1518.102783,303.462799 
	C1518.115845,310.097076 1518.104858,316.731445 1518.104858,323.519897 
	C1546.845337,323.519897 1575.735840,323.519897 1605.161987,323.519897 
	C1605.161987,316.560120 1605.162842,309.910950 1605.161743,303.261749 
	C1605.157715,278.630096 1606.671143,253.953751 1602.003296,229.498199 
	C1593.962769,187.371490 1570.594604,159.563461 1528.071899,149.153656 
	C1505.969971,143.742935 1483.551514,143.059799 1461.046631,144.419357 
	C1440.502563,145.660461 1420.440186,149.313507 1401.689209,158.531967 
	C1382.431885,167.999313 1368.992676,182.701385 1360.736572,202.388199 
	C1352.728149,221.484528 1350.261475,241.611526 1350.213989,262.019501 
	C1350.029053,341.514313 1350.025879,421.010101 1350.223511,500.504852 
	C1350.268677,518.684753 1352.366699,536.697937 1357.910400,554.187317 
	C1366.712280,581.955444 1384.362061,601.046692 1412.944580,610.625977 
M286.504089,536.505127 
	C245.078232,536.505127 203.652374,536.505127 162.164322,536.505127 
	C162.164322,496.246704 162.164322,456.623260 162.164322,416.382324 
	C197.183060,416.382324 232.042145,416.382324 266.980164,416.382324 
	C266.980164,390.666260 266.980164,365.568359 266.980164,339.919006 
	C231.929108,339.919006 197.059753,339.919006 162.322800,339.919006 
	C162.322800,301.637878 162.322800,263.909454 162.322800,225.761932 
	C202.374252,225.761932 242.103546,225.761932 281.635254,225.761932 
	C281.635254,200.119690 281.635254,174.900360 281.635254,150.203293 
	C212.645508,150.203293 144.021286,150.203293 75.362953,150.203293 
	C75.362953,305.213287 75.362953,459.553253 75.362953,613.114624 
	C149.263763,613.114624 222.801239,613.114624 296.189850,613.114624 
	C296.189850,587.136902 296.189850,562.043213 296.189850,536.504456 
	C293.096466,536.504456 290.302917,536.504456 286.504089,536.505127 
M543.328003,225.993698 
	C543.940857,224.586258 545.080811,223.181396 545.087830,221.770981 
	C545.199646,199.107071 545.171021,176.442429 545.157288,153.777969 
	C545.156494,152.483505 545.009094,151.189133 544.923523,149.790543 
	C466.773987,149.790543 388.882141,149.790543 310.803467,149.790543 
	C310.803467,175.280884 310.803467,200.483521 310.803467,226.078217 
	C337.529022,226.078217 363.957428,226.078217 390.846558,226.078217 
	C390.846558,355.186371 390.846558,483.902679 390.846558,612.704407 
	C420.039307,612.704407 448.765747,612.704407 477.834351,612.704407 
	C477.834351,548.114868 477.834320,483.820587 477.834320,419.526306 
	C477.834320,355.109833 477.834351,290.693390 477.834351,225.999405 
	C499.742432,225.999405 521.048523,225.999405 543.328003,225.993698 
M1987.848389,429.499939 
	C1987.848389,490.906525 1987.848389,552.313110 1987.848389,613.786011 
	C2017.119995,613.786011 2045.847412,613.786011 2074.668213,613.786011 
	C2074.668213,459.006683 2074.668213,304.493591 2074.668213,149.945496 
	C2045.672485,149.945496 2016.944458,149.945496 1987.848633,149.945496 
	C1987.848633,242.984421 1987.848633,335.742188 1987.848389,429.499939 
z"/>
<path fill="#FFFFFF" opacity="1.000000" stroke="none" 
	d="
M1837.000244,330.924957 
	C1837.000244,270.305481 1837.000244,210.176025 1837.000244,149.775787 
	C1866.073364,149.775787 1894.801147,149.775787 1923.764893,149.775787 
	C1923.764893,304.394501 1923.764893,458.956635 1923.764893,613.759399 
	C1894.919800,613.759399 1866.189209,613.759399 1837.039307,613.759399 
	C1837.039307,547.902649 1837.039307,482.175964 1837.039307,416.225342 
	C1805.542725,416.225342 1774.464600,416.225342 1742.915649,416.225342 
	C1742.915649,482.032196 1742.915649,547.745850 1742.915649,613.728882 
	C1713.719727,613.728882 1684.993530,613.728882 1656.071777,613.728882 
	C1656.071777,459.034882 1656.071777,304.491119 1656.071777,149.725861 
	C1684.913086,149.725861 1713.516724,149.725861 1742.626587,149.725861 
	C1742.626587,212.810440 1742.626587,275.864655 1742.626587,339.211731 
	C1774.213623,339.211731 1805.296631,339.211731 1837.000244,339.211731 
	C1837.000244,336.606781 1837.000244,334.010895 1837.000244,330.924957 
z"/>
<path fill="#FFFFFF" opacity="1.000000" stroke="none" 
	d="
M838.496948,532.000488 
	C838.497070,559.157227 838.497070,585.813965 838.497070,612.735107 
	C809.515930,612.735107 780.755188,612.735107 751.525513,612.735107 
	C751.525513,547.064941 751.525513,481.505737 751.525513,415.721161 
	C720.964417,415.721161 690.871033,415.721161 660.305847,415.721161 
	C660.305847,481.393616 660.305847,546.945984 660.305847,612.748413 
	C631.101135,612.748413 602.367493,612.748413 573.416565,612.748413 
	C573.416565,458.307220 573.416565,304.067017 573.416565,149.665451 
	C602.300110,149.665451 630.932983,149.665451 660.067627,149.665451 
	C660.067627,212.670792 660.067627,275.573456 660.067627,338.737122 
	C690.667542,338.737122 720.767517,338.737122 751.416016,338.737122 
	C751.416016,275.883148 751.416016,212.992188 751.416016,149.803940 
	C780.546753,149.803940 809.131897,149.803940 838.496765,149.803940 
	C838.496765,277.022308 838.496765,404.261383 838.496948,532.000488 
z"/>
<path fill="#FEFEFE" opacity="1.000000" stroke="none" 
	d="
M1412.584717,610.468872 
	C1384.362061,601.046692 1366.712280,581.955444 1357.910400,554.187317 
	C1352.366699,536.697937 1350.268677,518.684753 1350.223511,500.504852 
	C1350.025879,421.010101 1350.029053,341.514313 1350.213989,262.019501 
	C1350.261475,241.611526 1352.728149,221.484528 1360.736572,202.388199 
	C1368.992676,182.701385 1382.431885,167.999313 1401.689209,158.531967 
	C1420.440186,149.313507 1440.502563,145.660461 1461.046631,144.419357 
	C1483.551514,143.059799 1505.969971,143.742935 1528.071899,149.153656 
	C1570.594604,159.563461 1593.962769,187.371490 1602.003296,229.498199 
	C1606.671143,253.953751 1605.157715,278.630096 1605.161743,303.261749 
	C1605.162842,309.910950 1605.161987,316.560120 1605.161987,323.519897 
	C1575.735840,323.519897 1546.845337,323.519897 1518.104858,323.519897 
	C1518.104858,316.731445 1518.115845,310.097076 1518.102783,303.462799 
	C1518.068726,286.132751 1518.204346,268.799225 1517.868896,251.474869 
	C1517.773560,246.552078 1516.683960,241.549118 1515.372192,236.769043 
	C1512.201172,225.213654 1504.314819,217.980255 1492.647705,216.350677 
	C1484.033936,215.147583 1475.039673,215.043182 1466.394165,216.026230 
	C1447.384155,218.187790 1438.672363,231.402420 1438.187256,248.553024 
	C1436.915161,293.524811 1436.131592,338.521118 1435.977173,383.510529 
	C1435.841675,423.003510 1436.769043,462.501099 1437.367676,501.994537 
	C1437.460693,508.129730 1437.687134,514.381287 1438.920044,520.358826 
	C1442.747192,538.915405 1452.298706,547.418579 1471.071045,548.531555 
	C1478.796997,548.989746 1486.690552,548.205688 1494.391602,547.143616 
	C1507.544922,545.329773 1515.624023,536.746338 1517.754272,524.378845 
	C1520.084717,510.847809 1520.541992,496.937836 1521.049194,483.164795 
	C1521.570068,469.022064 1521.164795,454.845215 1521.164795,440.340729 
	C1549.458130,440.340729 1578.199707,440.340729 1607.065674,440.340729 
	C1607.186768,440.664734 1607.493286,441.113739 1607.505859,441.570770 
	C1608.328491,471.559601 1609.193359,501.584900 1604.946289,531.388672 
	C1602.539062,548.280396 1597.673706,564.548706 1587.990601,578.956482 
	C1575.191650,598.000061 1556.514648,608.465332 1534.881714,613.615845 
	C1497.327026,622.557434 1459.602173,622.146729 1421.985596,613.497253 
	C1418.914307,612.791077 1415.955566,611.594604 1412.584717,610.468872 
z"/>
<path fill="#FFFFFF" opacity="1.000000" stroke="none" 
	d="
M287.006714,536.504761 
	C290.302917,536.504456 293.096466,536.504456 296.189850,536.504456 
	C296.189850,562.043213 296.189850,587.136902 296.189850,613.114624 
	C222.801239,613.114624 149.263763,613.114624 75.362953,613.114624 
	C75.362953,459.553253 75.362953,305.213287 75.362953,150.203293 
	C144.021286,150.203293 212.645508,150.203293 281.635254,150.203293 
	C281.635254,174.900360 281.635254,200.119690 281.635254,225.761932 
	C242.103546,225.761932 202.374252,225.761932 162.322800,225.761932 
	C162.322800,263.909454 162.322800,301.637878 162.322800,339.919006 
	C197.059753,339.919006 231.929108,339.919006 266.980164,339.919006 
	C266.980164,365.568359 266.980164,390.666260 266.980164,416.382324 
	C232.042145,416.382324 197.183060,416.382324 162.164322,416.382324 
	C162.164322,456.623260 162.164322,496.246704 162.164322,536.505127 
	C203.652374,536.505127 245.078232,536.505127 287.006714,536.504761 
z"/>
<path fill="#FEFEFF" opacity="1.000000" stroke="none" 
	d="
M542.841309,225.996552 
	C521.048523,225.999405 499.742432,225.999405 477.834351,225.999405 
	C477.834351,290.693390 477.834320,355.109833 477.834320,419.526306 
	C477.834320,483.820587 477.834351,548.114868 477.834351,612.704407 
	C448.765747,612.704407 420.039307,612.704407 390.846558,612.704407 
	C390.846558,483.902679 390.846558,355.186371 390.846558,226.078217 
	C363.957428,226.078217 337.529022,226.078217 310.803467,226.078217 
	C310.803467,200.483521 310.803467,175.280884 310.803467,149.790543 
	C388.882141,149.790543 466.773987,149.790543 544.923523,149.790543 
	C545.009094,151.189133 545.156494,152.483505 545.157288,153.777969 
	C545.171021,176.442429 545.199646,199.107071 545.087830,221.770981 
	C545.080811,223.181396 543.940857,224.586258 542.841309,225.996552 
z"/>
<path fill="#FFFFFF" opacity="1.000000" stroke="none" 
	d="
M1987.848511,428.999939 
	C1987.848633,335.742188 1987.848633,242.984421 1987.848633,149.945496 
	C2016.944458,149.945496 2045.672485,149.945496 2074.668213,149.945496 
	C2074.668213,304.493591 2074.668213,459.006683 2074.668213,613.786011 
	C2045.847412,613.786011 2017.119995,613.786011 1987.848389,613.786011 
	C1987.848389,552.313110 1987.848389,490.906525 1987.848511,428.999939 
z"/>
<path fill="#8C2827" opacity="1.000000" stroke="none" 
	d="
M919.823730,464.375549 
	C925.310364,466.655151 930.876526,468.761749 936.271301,471.241241 
	C987.367371,494.725616 1038.433228,518.275452 1089.515137,541.790771 
	C1090.716553,542.343811 1092.002075,542.714600 1093.637939,543.670532 
	C1094.027588,551.681091 1094.027588,559.191589 1094.027588,567.367126 
	C1095.997192,566.355225 1096.898315,565.949402 1097.744019,565.449707 
	C1144.967896,537.546326 1192.201660,509.659576 1239.392700,481.700775 
	C1247.361938,476.979309 1255.145142,471.943756 1263.014160,467.053314 
	C1267.421387,464.543488 1271.828491,462.033691 1276.235718,459.523895 
	C1276.460205,459.779938 1276.684814,460.036011 1276.909302,460.292053 
	C1272.304810,466.916473 1267.751465,473.577179 1263.087158,480.159241 
	C1239.225464,513.832581 1215.330322,547.482300 1191.455811,581.146606 
	C1162.192749,622.408997 1132.937866,663.677124 1103.681641,704.944336 
	C1101.179443,708.473694 1098.807495,712.104553 1096.131714,715.496277 
	C1095.338867,716.500977 1093.712402,716.847839 1092.587158,716.881958 
	C1092.818970,715.784851 1093.029785,715.302002 1093.030029,714.818970 
	C1093.054565,667.043030 1093.107422,619.266907 1092.915405,571.491760 
	C1092.907593,569.542603 1091.041382,566.860962 1089.271606,565.778381 
	C1077.515747,558.586853 1065.522461,551.784729 1053.657104,544.770508 
	C1013.772583,521.192993 973.891052,497.610046 934.060791,473.941101 
	C929.153320,471.024841 924.561707,467.577026 919.823730,464.375549 
z"/>
<path fill="#D03737" opacity="1.000000" stroke="none" 
	d="
M919.620117,464.276550 
	C924.561707,467.577026 929.153320,471.024841 934.060791,473.941101 
	C973.891052,497.610046 1013.772583,521.192993 1053.657104,544.770508 
	C1065.522461,551.784729 1077.515747,558.586853 1089.271606,565.778381 
	C1091.041382,566.860962 1092.907593,569.542603 1092.915405,571.491760 
	C1093.107422,619.266907 1093.054565,667.043030 1093.030029,714.818970 
	C1093.029785,715.302002 1092.818970,715.784851 1092.440063,716.575684 
	C1061.917969,674.111633 1031.684448,631.323792 1001.400024,588.572205 
	C971.117188,545.822876 940.783264,503.109711 909.779968,459.405518 
	C912.031738,460.411835 913.299988,460.978638 914.936279,462.008667 
	C915.841003,462.674957 916.377625,462.878021 916.914307,463.081055 
	C917.075439,463.148346 917.236633,463.215668 917.795288,463.518890 
	C918.428406,463.933044 918.693970,464.023804 918.989502,464.027008 
	C918.989502,464.027008 919.416565,464.177521 919.620117,464.276550 
z"/>
<path fill="#D64A51" opacity="1.000000" stroke="none" 
	d="
M1006.126953,273.104248 
	C989.698853,257.047150 973.242859,241.018448 956.849487,224.926056 
	C934.035950,202.531296 911.275635,180.082199 888.468872,157.680557 
	C886.814392,156.055466 884.966736,154.627045 883.835388,152.203354 
	C900.074341,156.684601 916.315491,161.157684 932.551697,165.648697 
	C969.901001,175.979721 1007.246399,186.324936 1044.600586,196.638229 
	C1046.342407,197.119080 1048.154297,197.346375 1050.399414,197.925812 
	C1056.273071,207.638275 1061.693115,217.109741 1067.085693,226.596817 
	C1075.089111,240.677002 1083.073120,254.768204 1091.013672,269.193604 
	C1090.899658,273.126465 1088.503662,273.035278 1085.833008,273.031677 
	C1059.852051,272.996552 1033.871094,273.043945 1007.595642,273.072815 
	C1006.909790,273.086639 1006.518372,273.095428 1006.126953,273.104248 
z"/>
<path fill="#D64A51" opacity="1.000000" stroke="none" 
	d="
M1181.469604,274.071136 
	C1222.168091,314.133270 1262.866699,354.195374 1303.565308,394.257507 
	C1303.422607,394.527618 1303.280029,394.797729 1303.137329,395.067810 
	C1248.050537,379.822845 1192.963745,364.577881 1137.379639,348.949829 
	C1136.520020,347.640869 1136.270630,346.649689 1135.778687,345.798767 
	C1126.710327,330.111725 1117.544189,314.480835 1108.550537,298.751251 
	C1103.890503,290.601105 1099.525391,282.282288 1095.493652,274.024567 
	C1124.463257,274.030029 1152.966431,274.050598 1181.469604,274.071136 
z"/>
<path fill="#8C2827" opacity="1.000000" stroke="none" 
	d="
M1095.027100,274.039642 
	C1099.525391,282.282288 1103.890503,290.601105 1108.550537,298.751251 
	C1117.544189,314.480835 1126.710327,330.111725 1135.778687,345.798767 
	C1136.270630,346.649689 1136.520020,347.640869 1137.024170,348.915039 
	C1131.451904,371.493988 1125.749756,393.727692 1120.020874,415.954529 
	C1111.924438,447.366943 1103.812988,478.775513 1095.689453,510.180908 
	C1095.110107,512.420288 1094.380127,514.620728 1093.553711,517.399353 
	C1092.965820,515.110229 1092.525269,513.395020 1092.367188,511.002319 
	C1092.780396,509.009979 1093.025513,507.695038 1093.025879,506.380066 
	C1093.044067,431.219391 1093.047974,356.058746 1093.000732,280.898102 
	C1092.999756,279.327850 1092.385620,277.757996 1092.034912,275.872528 
	C1091.997681,275.346802 1091.983276,275.136475 1091.972900,274.704742 
	C1091.976929,274.483307 1091.975952,274.040375 1092.327148,274.025696 
	C1093.147339,274.014984 1093.616333,274.018890 1094.320923,274.023071 
	C1094.556396,274.023315 1095.027100,274.039642 1095.027100,274.039642 
z"/>
<path fill="#8B2826" opacity="1.000000" stroke="none" 
	d="
M1091.968750,274.926147 
	C1091.983276,275.136475 1091.997681,275.346802 1091.972168,276.207703 
	C1082.621948,293.066711 1073.247437,309.238739 1064.028564,325.498871 
	C1059.392212,333.676239 1055.038330,342.013702 1050.556763,350.278748 
	C1046.207397,351.089661 1041.772949,351.591034 1037.521484,352.758545 
	C987.019104,366.627625 936.544128,380.596466 886.059998,394.532013 
	C885.440430,394.703033 884.795166,394.780914 883.218506,395.083099 
	C884.494934,393.668182 885.187378,392.900665 886.524841,392.034729 
	C887.778320,391.598175 888.386719,391.260040 888.995178,390.921936 
	C888.995178,390.921967 888.982544,390.990021 889.306519,390.938293 
	C919.443420,373.745758 949.269531,356.627594 979.065735,339.457581 
	C1008.292053,322.615906 1037.467041,305.684998 1066.710571,288.873413 
	C1075.047363,284.080719 1083.544922,279.567505 1091.968750,274.926147 
z"/>
<path fill="#8B2927" opacity="1.000000" stroke="none" 
	d="
M1095.493652,274.024567 
	C1095.027100,274.039642 1094.556396,274.023315 1094.440674,273.764984 
	C1094.910889,273.027466 1095.496582,272.548279 1096.400879,271.934998 
	C1100.046997,269.905701 1103.383667,268.026398 1106.700684,266.112976 
	C1169.720093,229.759979 1232.741455,193.410431 1295.724854,156.995087 
	C1297.047607,156.230362 1297.925659,154.696457 1299.011108,153.521362 
	C1300.039307,153.254761 1301.067505,152.988144 1302.519531,152.827423 
	C1302.943237,152.933319 1303.143311,153.126755 1303.143311,153.126740 
	C1289.947632,166.313553 1276.806885,179.555893 1263.541504,192.672256 
	C1248.969360,207.080780 1234.283081,221.373657 1219.645752,235.716095 
	C1208.341064,246.792877 1197.025635,257.858582 1185.742065,268.956940 
	C1184.324341,270.351410 1183.072388,271.914459 1181.606567,273.735229 
	C1152.966431,274.050598 1124.463257,274.030029 1095.493652,274.024567 
z"/>
<path fill="#DD5E6B" opacity="1.000000" stroke="none" 
	d="
M1298.614380,153.642334 
	C1297.925659,154.696457 1297.047607,156.230362 1295.724854,156.995087 
	C1232.741455,193.410431 1169.720093,229.759979 1106.700684,266.112976 
	C1103.383667,268.026398 1100.046997,269.905701 1096.140869,271.892700 
	C1095.388184,271.965485 1095.213989,271.946381 1095.177734,271.615173 
	C1101.260254,260.958282 1107.239624,250.633347 1113.140503,240.263824 
	C1121.166138,226.160629 1129.131836,212.023361 1137.123291,197.900742 
	C1154.766846,193.144226 1172.429321,188.456970 1190.049805,183.616669 
	C1226.117676,173.709030 1262.163086,163.719238 1298.614380,153.642334 
z"/>
<path fill="#D03737" opacity="1.000000" stroke="none" 
	d="
M1137.077393,197.508820 
	C1129.131836,212.023361 1121.166138,226.160629 1113.140503,240.263824 
	C1107.239624,250.633347 1101.260254,260.958282 1094.888916,271.322144 
	C1094.309692,269.868317 1094.024292,268.395477 1094.023926,266.922607 
	C1094.002197,190.912628 1094.000610,114.902641 1094.033691,38.892654 
	C1094.034424,37.273838 1094.467407,35.655209 1094.698730,34.036484 
	C1108.809692,88.396614 1122.920532,142.756744 1137.077393,197.508820 
z"/>
<path fill="#D03737" opacity="1.000000" stroke="none" 
	d="
M1091.972900,274.704712 
	C1083.544922,279.567505 1075.047363,284.080719 1066.710571,288.873413 
	C1037.467041,305.684998 1008.292053,322.615906 979.065735,339.457581 
	C949.269531,356.627594 919.443420,373.745758 889.274292,390.925659 
	C890.162292,389.200958 891.171936,387.199280 892.684937,385.708344 
	C929.088440,349.834656 965.548584,314.018433 1001.982361,278.175415 
	C1003.394714,276.785950 1004.646423,275.233276 1006.049927,273.430420 
	C1006.518372,273.095428 1006.909790,273.086639 1007.943787,273.312622 
	C1010.565247,273.690216 1012.543884,273.953735 1014.523071,273.957489 
	C1040.340698,274.006561 1066.158325,274.018829 1091.975952,274.040344 
	C1091.975952,274.040375 1091.976929,274.483307 1091.972900,274.704712 
z"/>
<path fill="#D03737" opacity="1.000000" stroke="none" 
	d="
M1050.642334,350.667725 
	C1055.038330,342.013702 1059.392212,333.676239 1064.028564,325.498871 
	C1073.247437,309.238739 1082.621948,293.066711 1091.994873,276.523102 
	C1092.385620,277.757996 1092.999756,279.327850 1093.000732,280.898102 
	C1093.047974,356.058746 1093.044067,431.219391 1093.025879,506.380066 
	C1093.025513,507.695038 1092.780396,509.009979 1092.374878,510.631500 
	C1078.309448,457.644287 1064.518555,404.350464 1050.642334,350.667725 
z"/>
<path fill="#DD5E6B" opacity="1.000000" stroke="none" 
	d="
M1091.065308,268.854767 
	C1083.073120,254.768204 1075.089111,240.677002 1067.085693,226.596817 
	C1061.693115,217.109741 1056.273071,207.638275 1050.728638,197.770966 
	C1056.704712,173.523056 1062.783203,149.655182 1068.938843,125.807259 
	C1076.592896,96.155106 1084.310669,66.519394 1092.334839,36.834061 
	C1092.780640,37.776161 1092.990112,38.760769 1092.990356,39.745411 
	C1093.005859,115.819489 1093.005859,191.893570 1092.989014,267.967651 
	C1092.988770,268.614655 1092.745117,269.261597 1092.567017,270.148285 
	C1091.818604,269.503632 1091.441895,269.179199 1091.065308,268.854767 
z"/>
<path fill="#DB5D6A" opacity="1.000000" stroke="none" 
	d="
M1262.622559,467.031189 
	C1255.145142,471.943756 1247.361938,476.979309 1239.392700,481.700775 
	C1192.201660,509.659576 1144.967896,537.546326 1097.744019,565.449707 
	C1096.898315,565.949402 1095.997192,566.355225 1094.027588,567.367126 
	C1094.027588,559.191589 1094.027588,551.681091 1094.016602,543.725586 
	C1107.923950,536.998108 1121.876587,530.790466 1135.754028,524.419006 
	C1175.905518,505.984406 1216.022827,487.474854 1256.172974,469.037201 
	C1258.097046,468.153595 1260.207397,467.675812 1262.622559,467.031189 
z"/>
<path fill="#B64E5A" opacity="1.000000" stroke="none" 
	d="
M1091.013672,269.193634 
	C1091.441895,269.179199 1091.818604,269.503632 1092.567017,270.148285 
	C1092.745117,269.261597 1092.988770,268.614655 1092.989014,267.967651 
	C1093.005859,191.893570 1093.005859,115.819489 1092.990356,39.745411 
	C1092.990112,38.760769 1092.780640,37.776161 1092.442505,36.459587 
	C1092.559814,34.432690 1092.903442,32.737740 1093.423706,30.172016 
	C1094.028442,31.758068 1094.348145,32.596378 1094.683228,33.735588 
	C1094.467407,35.655209 1094.034424,37.273838 1094.033691,38.892654 
	C1094.000610,114.902641 1094.002197,190.912628 1094.023926,266.922607 
	C1094.024292,268.395477 1094.309692,269.868317 1094.750854,271.634216 
	C1095.213989,271.946381 1095.388184,271.965485 1095.822266,272.026825 
	C1095.496582,272.548279 1094.910889,273.027466 1094.205322,273.764740 
	C1093.616333,274.018890 1093.147339,274.014984 1092.327148,274.025696 
	C1066.158325,274.018829 1040.340698,274.006561 1014.523071,273.957489 
	C1012.543884,273.953735 1010.565247,273.690216 1008.238220,273.307617 
	C1033.871094,273.043945 1059.852051,272.996552 1085.833008,273.031677 
	C1088.503662,273.035278 1090.899658,273.126465 1091.013672,269.193634 
z"/>
<path fill="#D03737" opacity="1.000000" stroke="none" 
	d="
M888.645264,390.728302 
	C888.386719,391.260040 887.778320,391.598175 886.802979,391.960022 
	C887.055786,391.500702 887.675598,391.017700 888.645264,390.728302 
z"/>
<path fill="#8C2827" opacity="1.000000" stroke="none" 
	d="
M916.794800,462.807617 
	C916.377625,462.878021 915.841003,462.674957 915.160889,462.213287 
	C915.570068,462.147858 916.122681,462.341003 916.794800,462.807617 
z"/>
<path fill="#8B2927" opacity="1.000000" stroke="none" 
	d="
M1302.844482,152.835220 
	C1302.963989,152.589157 1303.182129,152.441177 1303.400269,152.293213 
	C1303.437134,152.507187 1303.473999,152.721161 1303.327148,153.030945 
	C1303.143311,153.126755 1302.943237,152.933319 1302.844482,152.835220 
z"/>
<path fill="#8C2827" opacity="1.000000" stroke="none" 
	d="
M918.898071,463.797974 
	C918.693970,464.023804 918.428406,463.933044 918.042419,463.606079 
	C918.225281,463.262421 918.530090,463.299622 918.898071,463.797974 
z"/>
</svg>