<?xml version="1.0" encoding="utf-8"?>
<svg viewBox="0 0 500 500" xmlns="http://www.w3.org/2000/svg" xmlns:bx="https://boxy-svg.com">
  <defs>
    <style bx:fonts="Allerta">@import url(https://fonts.googleapis.com/css2?family=Allerta%3Aital%2Cwght%400%2C400&amp;display=swap);</style>
  </defs>
  <g id="Layer_x0020_1" transform="matrix(0.172361, 0, 0, 0.172361, 28.420084, 14.702749)" style="">
    <g id="_1705846844560">
      <g>
        <path class="st0" d="M778.4,510.8V166.7h51.4l4.5,27.9h2.7c14.4-18.9,39.6-32.4,73.9-32.4c63.1,0,114.4,51.4,114.4,127.9     S974.8,418,910.8,418c-34.2,0-57.7-14.4-70.3-30.6h-2.7v122.5h-59.5l0,0V510.8z M965.8,290.1c0-45-28.8-73-64-73s-64,27.9-64,73     s28.8,73,64,73S965.8,335.2,965.8,290.1z" style="fill: rgb(34, 20, 61);"/>
        <path class="st0" d="M1055,290.1c0-74.8,54.1-127.9,125.2-127.9c72.1,0,125.2,54.1,125.2,127.9c0,74.8-54.1,127.9-125.2,127.9     C1108.1,418,1055,364,1055,290.1z M1245.9,290.1c0-44.1-28.8-73-65.8-73c-36,0-65.8,28.8-65.8,73s29.7,73,65.8,73     S1245.9,334.3,1245.9,290.1z" style="fill: rgb(34, 20, 61);"/>
        <polygon class="st0" points="1348.6,413.5 1348.6,72.1 1408.1,72.1 1408.1,413.5    " style="fill: rgb(34, 20, 61);"/>
        <path class="st0" d="M1629.7,166.7h63.1l-107.2,300c-10.8,29.7-25.2,44.1-64,44.1H1464v-55h48.6c9,0,13.5-4.5,16.2-11.7l5.4-16.2     l-100.9-261.3h63.1l64,171.2h9.9l57.7-171.2H1629.7z" style="fill: rgb(34, 20, 61);"/>
        <path class="st0" d="M1704.5,426.2h60.4c2.7,16.2,18.9,37.8,56.8,37.8c36,0,59.5-22.5,59.5-56.8V373h-2.7     c-13.5,14.4-37.8,27-68.5,27c-63.1,0-112.6-48.6-112.6-118.9s48.6-118.9,112.6-118.9c32.4,0,56.8,13.5,72.1,31.5h2.7l4.5-27h51.4     v240.5c0,65.8-44.1,109-118.9,109C1737.8,516.2,1706.3,461.3,1704.5,426.2L1704.5,426.2z M1880.2,281.1c0-38.7-27-65.8-62.2-65.8     c-34.2,0-61.3,27-61.3,65.8s27,65.8,61.3,65.8C1852.3,346.9,1880.2,319.8,1880.2,281.1z" style="fill: rgb(34, 20, 61);"/>
        <path class="st0" d="M1981.1,290.1c0-74.8,54.1-127.9,125.2-127.9c72.1,0,125.2,54.1,125.2,127.9c0,74.8-54.1,127.9-125.2,127.9     C2034.2,418,1981.1,364,1981.1,290.1z M2172.1,290.1c0-44.1-29.7-73-65.8-73c-36,0-65.8,28.8-65.8,73s29.7,73,65.8,73     C2142.3,363.1,2172.1,334.3,2172.1,290.1z" style="fill: rgb(34, 20, 61);"/>
        <path class="st0" d="M2273,413.5V166.7h51.4l4.5,23.4h2.7c9.9-10.8,34.2-27.9,71.2-27.9c56.8,0,97.3,40.5,97.3,103.6v148.6h-59.5     V273.9c0-31.5-22.5-55-53.2-55s-55,24.3-55,55v140.5H2273l0,0V413.5z" style="fill: rgb(34, 20, 61);"/>
      </g>
      <linearGradient id="SVGID_1_" gradientUnits="userSpaceOnUse" x1="-105.8408" y1="26.1052" x2="546.1592" y2="407.1052" gradientTransform="matrix(0.9009 0 0 -0.9009 94.3423 477.153)">
        <stop offset="0" style="stop-color:#A726C1"/>
        <stop offset="0.8784" style="stop-color:#803BDF"/>
        <stop offset="1" style="stop-color:#7B3FE4"/>
      </linearGradient>
      <path class="st1" d="M457.7,384.7L603.6,300c8.1-4.5,12.6-12.6,12.6-21.6V109c0-9-4.5-17.1-12.6-21.6L457.7,2.7    c-8.1-4.5-17.1-4.5-25.2,0L286.5,87.4c-8.1,4.5-12.6,12.6-12.6,21.6v301.8l-102.7,59.5L68.5,410.8v-118l102.7-59.5l67.6,38.7    v-79.3l-55-31.5c-3.6-1.8-8.1-3.6-12.6-3.6s-9,0.9-12.6,3.6L12.6,246C4.5,250.5,0,258.6,0,267.6V437c0,9,4.5,17.1,12.6,21.6    l145.9,84.7c8.1,4.5,17.1,4.5,25.2,0l145.9-84.7c8.1-4.5,12.6-12.6,12.6-21.6V135.2l1.8-0.9L445,75.7l102.7,59.5v118L445,312.6    l-67.6-38.7v79.3l55,31.5C440.5,389.2,449.5,389.2,457.7,384.7L457.7,384.7z" style="fill: url(#SVGID_1_);"/>
    </g>
  </g>
  <text style="fill: rgb(51, 51, 51); font-family: Allerta; font-size: 32px; white-space: pre;" x="328.031" y="134.943">NYC Guild</text>
  <text style="white-space: pre; fill: rgb(51, 51, 51); font-family: Arial, sans-serif; font-size: 17.3px;" x="252.091" y="306.524"> </text>
</svg>