<svg width="245" height="56" viewBox="0 0 245 56" fill="none" xmlns="http://www.w3.org/2000/svg">
<path d="M23.4351 4.24878C26.6744 -1.41627 34.7729 -1.41625 38.0121 4.24879L60.3072 43.2386C63.5465 48.9037 59.4973 55.9849 53.0186 55.9849H8.42866C1.94993 55.9849 -2.09926 48.9037 1.14011 43.2386L23.4351 4.24878Z" fill="#4C49E4"/>
<path d="M29.8171 13.8232C32.863 8.48342 40.4779 8.48342 43.5239 13.8232L60.7203 43.9699C63.7663 49.3097 59.9588 55.9843 53.867 55.9843H19.474C13.3821 55.9843 9.57473 49.3097 12.6207 43.9699L29.8171 13.8232Z" fill="#3376E7"/>
<path d="M39.2624 23.2843C41.5194 19.3427 47.1617 19.3427 49.4187 23.2843L63.0663 47.1179C65.3233 51.0593 62.5021 55.9861 57.9881 55.9861H30.6931C26.1791 55.9861 23.3579 51.0593 25.6149 47.1179L39.2624 23.2843Z" fill="#26F3A8"/>
<path d="M91.251 22.0749C91.1437 20.9923 90.6826 20.1513 89.868 19.552C89.0535 18.9525 87.9479 18.6528 86.5514 18.6528C85.6026 18.6528 84.8013 18.7871 84.1479 19.0554C83.4944 19.3149 82.9932 19.6772 82.644 20.1424C82.3038 20.6077 82.1339 21.1355 82.1339 21.7259C82.1159 22.218 82.2188 22.6473 82.4426 23.0142C82.6754 23.3809 82.9932 23.6986 83.396 23.9669C83.7988 24.2264 84.2643 24.4546 84.7924 24.6514C85.3206 24.8392 85.8845 25.0003 86.4843 25.1345L88.9549 25.7249C90.1545 25.9933 91.2556 26.3512 92.2581 26.7985C93.2607 27.2458 94.1291 27.796 94.8631 28.4491C95.5971 29.1023 96.1655 29.8716 96.5684 30.7573C96.9801 31.643 97.1905 32.6584 97.1994 33.8036C97.1905 35.4854 96.7607 36.9437 95.9103 38.1783C95.069 39.404 93.8515 40.3568 92.2581 41.0367C90.6737 41.7077 88.7626 42.0432 86.5245 42.0432C84.3046 42.0432 82.3711 41.7033 80.7238 41.0232C79.0858 40.3433 77.8057 39.3369 76.8836 38.0038C75.9705 36.662 75.4917 35.0024 75.4468 33.0252H81.073C81.1356 33.9467 81.3997 34.7161 81.8652 35.3334C82.3397 35.9417 82.9708 36.4025 83.7585 36.7156C84.5552 37.0198 85.4549 37.1719 86.4574 37.1719C87.4422 37.1719 88.297 37.0287 89.022 36.7424C89.7561 36.4561 90.3246 36.0581 90.7274 35.548C91.1302 35.0381 91.3316 34.4521 91.3316 33.7902C91.3316 33.1728 91.1481 32.654 90.781 32.2334C90.423 31.813 89.8948 31.4551 89.1966 31.1599C88.5074 30.8647 87.6614 30.5963 86.6589 30.3547L83.6646 29.6033C81.3461 29.0395 79.5154 28.1583 78.1726 26.9595C76.83 25.7608 76.1631 24.1458 76.172 22.1151C76.1631 20.451 76.6061 18.9973 77.5014 17.7537C78.4054 16.5102 79.6453 15.5395 81.2207 14.8417C82.7962 14.1438 84.5865 13.7949 86.5918 13.7949C88.6327 13.7949 90.4141 14.1438 91.9359 14.8417C93.4666 15.5395 94.6572 16.5102 95.5076 17.7537C96.358 18.9973 96.7967 20.4376 96.8234 22.0749H91.251ZM101.003 49.3838V21.0414H106.642V24.5038H106.897C107.148 23.9491 107.511 23.3854 107.985 22.8129C108.468 22.2314 109.095 21.7483 109.865 21.3635C110.644 20.9699 111.61 20.7731 112.765 20.7731C114.269 20.7731 115.657 21.1668 116.928 21.9541C118.199 22.7324 119.215 23.9088 119.976 25.4834C120.737 27.0489 121.117 29.0127 121.117 31.3746C121.117 33.6739 120.746 35.6152 120.003 37.1987C119.269 38.7733 118.266 39.9676 116.995 40.7817C115.733 41.587 114.318 41.9895 112.752 41.9895C111.642 41.9895 110.697 41.8061 109.919 41.4394C109.149 41.0725 108.518 40.6117 108.025 40.057C107.533 39.4934 107.157 38.9254 106.897 38.3528H106.723V49.3838H101.003ZM106.602 31.3477C106.602 32.5734 106.772 33.6424 107.112 34.5551C107.452 35.4676 107.945 36.1788 108.589 36.6887C109.234 37.1898 110.017 37.4402 110.939 37.4402C111.87 37.4402 112.658 37.1852 113.302 36.6753C113.947 36.1564 114.435 35.4408 114.766 34.5282C115.106 33.6067 115.276 32.5466 115.276 31.3477C115.276 30.1579 115.111 29.1112 114.779 28.2076C114.448 27.304 113.96 26.5972 113.316 26.0873C112.671 25.5773 111.879 25.3224 110.939 25.3224C110.008 25.3224 109.22 25.5684 108.576 26.0605C107.94 26.5526 107.452 27.2503 107.112 28.1539C106.772 29.0575 106.602 30.1221 106.602 31.3477ZM124.93 41.654V21.0414H130.476V24.6379H130.691C131.067 23.3587 131.698 22.3925 132.584 21.7393C133.47 21.0773 134.491 20.7462 135.646 20.7462C135.932 20.7462 136.241 20.7642 136.572 20.7999C136.903 20.8357 137.194 20.8849 137.445 20.9475V26.0201C137.176 25.9397 136.805 25.8681 136.33 25.8055C135.856 25.7429 135.422 25.7115 135.028 25.7115C134.187 25.7115 133.435 25.8949 132.772 26.2618C132.119 26.6196 131.6 27.1206 131.215 27.7647C130.839 28.4089 130.651 29.1514 130.651 29.9924V41.654H124.93ZM153.628 32.8775V21.0414H159.349V41.654H153.856V37.9099H153.642C153.177 39.1177 152.402 40.0883 151.319 40.8219C150.244 41.5555 148.934 41.9224 147.385 41.9224C146.006 41.9224 144.793 41.6092 143.746 40.983C142.698 40.3568 141.879 39.4666 141.288 38.3126C140.707 37.1584 140.411 35.7762 140.402 34.1658V21.0414H146.122V33.1461C146.131 34.3627 146.458 35.3245 147.102 36.0312C147.747 36.738 148.611 37.0913 149.694 37.0913C150.384 37.0913 151.027 36.9348 151.628 36.6216C152.227 36.2996 152.711 35.8254 153.078 35.1992C153.454 34.5729 153.638 33.7991 153.628 32.8775ZM173.242 42.0567C171.13 42.0567 169.313 41.6092 167.791 40.7147C166.278 39.8111 165.115 38.5585 164.3 36.9572C163.494 35.3558 163.092 33.5128 163.092 31.4283C163.092 29.3169 163.498 27.4651 164.313 25.8725C165.138 24.2712 166.306 23.0231 167.818 22.1286C169.331 21.2249 171.13 20.7731 173.216 20.7731C175.015 20.7731 176.59 21.0996 177.942 21.7528C179.294 22.4058 180.364 23.3228 181.151 24.5038C181.939 25.6847 182.373 27.0713 182.453 28.6639H177.055C176.904 27.6349 176.501 26.8074 175.847 26.1812C175.203 25.546 174.357 25.2284 173.31 25.2284C172.423 25.2284 171.649 25.47 170.986 25.9531C170.333 26.4272 169.823 27.1206 169.456 28.0331C169.089 28.9456 168.906 30.0505 168.906 31.3477C168.906 32.6629 169.084 33.7812 169.442 34.7027C169.81 35.6241 170.324 36.3264 170.986 36.8096C171.649 37.2926 172.423 37.5342 173.31 37.5342C173.963 37.5342 174.55 37.4 175.068 37.1317C175.597 36.8632 176.031 36.474 176.371 35.9641C176.721 35.4452 176.949 34.8235 177.055 34.0988H182.453C182.364 35.6734 181.934 37.06 181.164 38.2589C180.404 39.4488 179.353 40.3791 178.009 41.0501C176.666 41.7211 175.078 42.0567 173.242 42.0567ZM195.516 42.0567C193.394 42.0567 191.568 41.6272 190.038 40.7684C188.515 39.9005 187.342 38.6748 186.519 37.0913C185.696 35.4989 185.284 33.6157 185.284 31.4416C185.284 29.3214 185.696 27.4606 186.519 25.8592C187.342 24.2577 188.502 23.0098 189.996 22.1151C191.5 21.2205 193.265 20.7731 195.288 20.7731C196.648 20.7731 197.914 20.9923 199.088 21.4307C200.269 21.86 201.299 22.5088 202.175 23.3765C203.062 24.2444 203.751 25.3358 204.243 26.6509C204.736 27.957 204.981 29.487 204.981 31.2405V32.8105H187.566V29.2677H199.598C199.598 28.4446 199.418 27.7155 199.06 27.0804C198.703 26.4452 198.206 25.9486 197.571 25.5908C196.943 25.2239 196.214 25.0406 195.381 25.0406C194.513 25.0406 193.743 25.2419 193.072 25.6445C192.41 26.0381 191.89 26.5704 191.515 27.2414C191.138 27.9034 190.946 28.6415 190.937 29.4557V32.824C190.937 33.8438 191.125 34.725 191.5 35.4676C191.885 36.2101 192.427 36.7827 193.125 37.1852C193.823 37.5879 194.651 37.7892 195.609 37.7892C196.244 37.7892 196.826 37.6997 197.355 37.5208C197.884 37.3419 198.335 37.0735 198.711 36.7156C199.088 36.3577 199.374 35.9193 199.57 35.4004L204.861 35.7493C204.592 37.0198 204.042 38.1292 203.21 39.0775C202.386 40.0168 201.32 40.7504 200.013 41.2783C198.716 41.7972 197.216 42.0567 195.516 42.0567ZM214.636 14.1707V41.654H208.822V14.1707H214.636ZM229.167 41.654H219.419V14.1707H229.249C232.015 14.1707 234.396 14.7209 236.393 15.8212C238.388 16.9128 239.923 18.4828 240.997 20.5315C242.081 22.5803 242.622 25.0317 242.622 27.8855C242.622 30.7484 242.081 33.2087 240.997 35.2663C239.923 37.3239 238.38 38.903 236.365 40.0035C234.36 41.1038 231.96 41.654 229.167 41.654ZM225.234 36.6753H228.926C230.646 36.6753 232.091 36.3712 233.263 35.7628C234.444 35.1455 235.331 34.1927 235.921 32.9044C236.522 31.6072 236.822 29.9342 236.822 27.8855C236.822 25.8547 236.522 24.1951 235.921 22.9068C235.331 21.6185 234.45 20.6703 233.276 20.0619C232.104 19.4535 230.659 19.1494 228.94 19.1494H225.234V36.6753Z" fill="black"/>
</svg>
