<svg version="1.1" id="Layer_1" xmlns="http://www.w3.org/2000/svg" xmlns:xlink="http://www.w3.org/1999/xlink" x="0px" y="0px"
	 width="100%" viewBox="0 0 1078 392" enable-background="new 0 0 1078 392" xml:space="preserve">
<path fill="#FBB4C7" opacity="1.000000" stroke="none" 
	d="
M832.000000,393.000000 
	C556.166687,393.000000 280.833344,392.991058 5.500035,393.093231 
	C1.750854,393.094635 0.902391,392.249481 0.905722,388.499908 
	C1.019129,260.833374 1.019129,133.166656 0.905722,5.500084 
	C0.902391,1.750519 1.750913,0.905898 5.500026,0.906950 
	C361.833344,1.006889 718.166687,1.006889 1074.500000,0.906950 
	C1078.249146,0.905898 1079.097656,1.750518 1079.094360,5.500084 
	C1078.980957,133.166656 1078.980957,260.833374 1079.094360,388.499908 
	C1079.097656,392.249481 1078.249878,393.101135 1074.499878,393.095306 
	C993.833374,392.969879 913.166687,393.000000 832.000000,393.000000 
z"/>
<path fill="#060608" opacity="1.000000" stroke="none" 
	d="
M591.133423,265.589447 
	C582.873840,270.462006 574.691895,274.803558 565.293579,276.284973 
	C551.960144,278.386627 544.927917,270.476562 548.457153,257.295471 
	C551.773560,244.908798 558.572021,234.235565 565.094116,223.449463 
	C581.982788,195.519379 603.444153,171.242020 626.166321,148.047867 
	C634.428528,139.613937 643.437500,131.911545 652.795105,123.236366 
	C626.414307,103.824593 607.858398,79.527275 587.173523,56.815220 
	C586.405151,55.967529 586.310242,55.309399 586.763794,54.307743 
	C598.468323,53.210690 609.950928,53.824173 621.426331,53.691032 
	C623.445618,53.667603 623.651855,54.546799 623.930725,56.324486 
	C627.555054,79.433167 640.154358,97.779526 655.162598,114.848190 
	C657.568542,117.584435 658.598389,114.941795 659.780823,113.811317 
	C671.087402,103.001778 682.257263,92.048996 693.588318,81.265434 
	C702.621948,72.668251 711.745300,64.158028 721.628601,56.517998 
	C723.320923,55.209812 724.928162,53.915462 727.371460,54.042912 
	C738.612427,54.629292 749.860901,55.071976 760.424805,55.536240 
	C752.111267,64.219803 743.962036,73.573914 734.933655,81.984161 
	C716.911316,98.772614 698.402893,115.039139 680.103455,131.530365 
	C675.572327,135.613739 675.560547,135.660416 680.267029,139.726379 
	C690.836365,148.857254 701.892944,157.428619 711.780701,167.340454 
	C738.232727,193.856979 756.658997,225.109436 767.370789,260.987244 
	C772.329407,277.595734 775.992310,294.412842 777.493225,311.719330 
	C777.747681,314.653625 776.750305,314.702148 774.759766,314.767517 
	C761.281189,315.209991 747.801025,315.612549 734.325867,316.144073 
	C731.491760,316.255859 730.388367,315.450012 730.853699,312.461426 
	C732.157593,304.087494 733.742004,295.721375 734.394043,287.288605 
	C736.312683,262.475433 736.511047,237.711533 729.074829,213.566696 
	C723.050598,194.006165 711.030762,178.158173 697.033325,163.768616 
	C689.507141,156.031601 681.060120,149.197311 673.219482,141.754623 
	C671.108521,139.750763 670.096863,140.549423 668.414673,142.085541 
	C648.702881,160.085327 630.416077,179.348572 614.754272,201.054123 
	C604.257874,215.600998 593.078857,229.667130 584.257568,245.358917 
	C582.624817,248.263367 581.459167,251.376984 580.759583,254.661133 
	C579.352356,261.267365 582.477417,266.808868 590.557434,264.946899 
	C591.099365,265.074249 591.209229,265.226227 591.133423,265.589447 
z"/>
<path fill="#040303" opacity="1.000000" stroke="none" 
	d="
M359.144104,89.313644 
	C361.135010,84.366501 359.523682,80.084747 357.878326,75.743752 
	C355.407288,69.224380 353.200836,62.602821 350.638397,56.120979 
	C349.672760,53.678425 350.392914,53.246521 352.629028,53.269909 
	C358.627136,53.332645 364.631042,53.427063 370.623169,53.225742 
	C373.502441,53.129005 373.680786,55.060028 374.357513,56.924614 
	C384.423981,84.660271 394.532654,112.380608 404.604767,140.114227 
	C424.317932,194.394516 444.015167,248.680588 463.712677,302.966553 
	C464.044708,303.881653 464.297089,304.825684 464.654938,305.975677 
	C435.088470,305.975677 405.788025,305.975677 375.745117,305.975677 
	C378.809509,297.365082 381.902771,289.091492 384.701721,280.719482 
	C390.113861,264.531097 397.020660,248.840576 401.166595,232.237503 
	C403.838928,221.535690 399.024292,211.469360 390.162659,208.301758 
	C380.923157,204.999100 370.196686,209.456100 365.629272,219.333908 
	C361.943817,227.304443 359.198334,235.714188 356.126862,243.962982 
	C351.083984,257.506226 346.142639,271.087341 341.106934,284.633270 
	C335.934357,298.547516 323.781952,307.224304 309.563202,307.240082 
	C293.525177,307.257874 285.038940,296.031464 289.636444,280.708313 
	C291.291809,275.191040 293.297516,269.778900 295.427856,264.090118 
	C296.158020,263.583374 296.642731,263.427643 297.535950,263.496704 
	C299.808075,265.350464 298.935089,267.308960 298.139282,269.106476 
	C296.368500,273.106079 296.580353,277.301971 297.100739,281.396210 
	C298.043274,288.812286 305.520020,291.925598 311.741821,287.662659 
	C315.621948,285.004150 317.669464,281.011383 319.335358,276.773224 
	C326.032898,259.734222 332.399414,242.570236 338.786041,225.413376 
	C341.340454,218.551239 343.866730,211.661362 347.397003,205.220306 
	C353.229889,194.578079 361.753662,187.393204 373.961884,185.261902 
	C383.252777,183.639893 391.326660,186.389389 397.917053,191.865707 
	C392.336548,176.522415 386.555786,160.410019 380.660461,144.339569 
	C374.129608,126.536621 367.983551,108.591919 360.714905,90.737335 
	C360.012695,90.278442 359.639069,89.982704 359.144104,89.313644 
z"/>
<path fill="#060505" opacity="1.000000" stroke="none" 
	d="
M586.600403,53.926804 
	C586.998474,54.656425 586.997681,55.271641 586.999756,56.194454 
	C584.103516,56.731834 585.409180,58.993862 585.385376,60.300880 
	C585.250000,67.762451 585.319702,75.227753 585.319702,83.753632 
	C577.200500,76.538223 569.250793,70.741562 560.181030,66.634796 
	C548.583984,61.383644 536.510010,58.048550 523.806519,56.904129 
	C521.346802,56.682537 520.406250,57.194183 520.666565,59.689632 
	C520.804016,61.007874 520.688477,62.352425 520.688477,63.685097 
	C520.688416,142.645844 520.644348,221.606689 520.800415,300.567139 
	C520.809570,305.201019 519.588745,306.630157 515.054443,306.229309 
	C510.591431,305.834778 506.062622,306.029877 501.570221,306.184723 
	C499.147400,306.268250 498.221252,305.397858 498.468689,303.024384 
	C498.588928,301.870880 498.487946,300.694366 498.487946,299.528290 
	C498.487823,220.234375 498.458740,140.940414 498.571442,61.646660 
	C498.577209,57.582092 497.944214,56.379066 493.461487,56.902397 
	C470.872864,59.539497 450.649750,67.323349 432.798431,83.878281 
	C432.798431,78.136787 432.653778,73.296829 432.838654,68.469482 
	C433.027374,63.541546 430.674957,57.171722 433.838867,54.092243 
	C436.747406,51.261318 443.039307,53.318203 447.833527,53.312832 
	C491.811584,53.263538 535.789734,53.285412 579.767883,53.320625 
	C581.912598,53.322342 584.057007,53.641212 586.600403,53.926804 
z"/>
<path fill="#F9B2C5" opacity="1.000000" stroke="none" 
	d="
M360.679382,89.204971 
	C363.624420,88.449516 363.237305,90.913254 363.672333,92.102066 
	C375.911377,125.550293 388.047485,159.036163 400.213776,192.511017 
	C400.788727,194.092911 401.309326,195.655258 400.827240,197.688721 
	C394.428070,189.736023 386.276733,185.917084 376.233093,186.786774 
	C366.367859,187.640991 358.878204,192.689957 352.817413,200.330383 
	C345.297729,209.809921 342.566467,221.441406 338.239777,232.326584 
	C332.245361,247.407394 326.770172,262.694427 321.055573,277.886719 
	C319.518219,281.973877 317.467010,285.804474 313.985229,288.536011 
	C310.448334,291.310791 306.484009,292.892792 301.929688,290.977295 
	C297.484070,289.107605 295.408539,285.469025 294.831299,280.914856 
	C294.109436,275.219177 295.481201,269.870239 297.953033,264.375549 
	C297.857056,263.357239 297.855621,262.719147 297.993164,261.759827 
	C298.258148,259.932465 298.834198,258.541534 299.619568,256.883850 
	C300.015778,255.771744 300.254181,254.943161 300.843384,253.911911 
	C301.041229,252.968201 301.201355,252.346527 301.496277,251.427551 
	C301.987091,250.124908 302.430420,249.144333 302.701202,247.760834 
	C303.174866,246.414841 303.583557,245.391876 304.007416,244.016220 
	C304.487823,242.862808 304.917389,242.051651 305.308502,240.843567 
	C306.219971,239.233917 305.924408,237.674469 306.671204,235.993195 
	C311.837860,223.585648 315.947266,211.185333 320.334381,198.895691 
	C331.523346,167.551682 343.106140,136.348862 354.031464,104.910713 
	C354.637360,103.167137 355.431152,101.541138 356.863861,99.817314 
	C357.053955,99.476669 357.041992,99.514351 357.025208,99.524796 
	C356.370728,98.095863 357.011169,96.834473 357.711243,95.246513 
	C357.917267,94.707596 357.973907,94.482742 358.127808,93.923935 
	C359.174683,92.315697 358.632111,90.262466 360.679382,89.204971 
z"/>
<path fill="#090707" opacity="1.000000" stroke="none" 
	d="
M648.707703,323.295502 
	C657.363770,323.089478 657.322937,323.078522 655.200500,330.993103 
	C652.321350,341.729645 649.235962,352.422913 646.801025,363.260986 
	C645.733521,368.012360 642.665283,366.753571 639.721191,367.142365 
	C636.300598,367.594086 635.668579,365.796692 635.033142,363.014587 
	C633.155762,354.795593 630.951172,346.651337 628.080688,338.442596 
	C626.052429,346.744110 623.891174,355.016602 622.070435,363.363373 
	C621.463501,366.145538 620.449707,367.528168 617.502075,367.089691 
	C614.720581,366.675873 611.388062,368.516541 610.244019,363.558899 
	C607.487671,351.615173 604.038513,339.832611 601.083618,327.931732 
	C600.737061,326.535828 598.142578,323.602783 601.727417,323.382690 
	C604.532288,323.210480 608.940125,320.681396 610.143066,326.394562 
	C611.913330,334.802307 613.954895,343.152924 616.756287,351.606110 
	C618.901672,343.311737 621.306091,335.072296 623.081604,326.699493 
	C623.950012,322.604248 626.478516,323.303497 629.249695,323.068024 
	C632.469360,322.794495 633.437683,324.102875 634.090332,327.096619 
	C635.838745,335.115753 638.041443,343.035858 641.208435,350.968872 
	C643.570862,341.783173 645.933289,332.597443 648.707703,323.295502 
z"/>
<path fill="#090707" opacity="1.000000" stroke="none" 
	d="
M321.227936,340.840698 
	C319.134674,348.402985 317.027557,355.741791 315.426514,363.189392 
	C314.696228,366.586456 313.084381,367.416718 309.951996,367.132141 
	C307.226807,366.884491 304.740387,367.715637 303.736206,363.492554 
	C300.553162,350.106415 296.749573,336.867859 293.168823,323.508423 
	C304.200195,323.059875 302.035034,321.188873 304.629333,331.553955 
	C306.224884,337.928589 307.625793,344.351959 309.376556,351.882477 
	C312.121094,346.168091 312.687103,341.052246 314.133392,336.221558 
	C314.989227,333.363007 315.671204,330.436493 316.194061,327.498322 
	C316.785675,324.173828 318.358368,323.087952 321.910736,322.960907 
	C325.966736,322.815826 327.047546,324.691925 327.789825,327.934937 
	C329.589020,335.795349 331.539948,343.621002 334.561096,351.601685 
	C336.352631,344.026245 338.439606,336.504547 339.830170,328.856232 
	C340.734833,323.880310 343.159485,322.413605 347.861420,323.065857 
	C349.725586,323.324493 350.622528,323.519562 350.049408,325.634186 
	C346.487671,338.775818 342.995178,351.936249 339.441284,365.080017 
	C338.406738,368.906219 335.270935,366.542633 333.139832,367.008026 
	C331.154114,367.441650 329.403748,367.229370 328.766052,364.409515 
	C327.122437,357.141388 325.102051,349.958435 323.099945,342.377014 
	C322.264679,341.776825 322.815613,340.105164 321.227936,340.840698 
z"/>
<path fill="#050404" opacity="1.000000" stroke="none" 
	d="
M414.952515,367.063141 
	C409.981354,367.884796 408.371979,366.155823 408.814362,361.537750 
	C409.241089,357.083588 408.941101,352.555389 408.882812,348.060699 
	C408.838989,344.679230 408.154236,341.465332 403.972504,341.274017 
	C399.641510,341.075897 397.552155,343.955322 397.315796,347.831848 
	C396.992096,353.140625 396.994385,358.492554 397.262360,363.805542 
	C397.429108,367.111298 395.759583,367.275452 393.336792,367.082825 
	C391.194977,366.912506 388.660126,367.964478 388.781860,363.942719 
	C389.038666,355.459167 388.887360,346.962341 388.839661,338.471313 
	C388.828308,336.447937 388.899658,334.651642 391.662201,335.137146 
	C393.863647,335.524109 397.501892,333.462799 397.156006,338.514130 
	C403.300049,334.353882 409.358673,331.959412 415.361664,338.387634 
	C416.809265,339.937744 417.279541,338.186523 417.992188,337.549835 
	C422.262054,333.734985 427.211151,333.843872 431.988922,335.790863 
	C436.697235,337.709473 437.258179,342.209778 437.231384,346.737244 
	C437.197906,352.397888 436.974365,358.073761 437.310638,363.714569 
	C437.538269,367.532257 435.317902,367.009003 432.965637,367.106384 
	C430.363342,367.214142 428.557495,367.132965 428.786591,363.559814 
	C429.116211,358.419800 428.947113,353.240723 428.833069,348.081787 
	C428.754120,344.509705 427.843872,341.287659 423.378815,341.234833 
	C419.078186,341.183960 417.587952,344.190948 417.398560,347.786133 
	C417.127350,352.934021 417.348145,358.106171 417.190399,363.262817 
	C417.148041,364.647156 418.273895,366.860687 414.952515,367.063141 
z"/>
<path fill="#0A090B" opacity="1.000000" stroke="none" 
	d="
M616.767822,257.349365 
	C620.246094,257.358459 620.972961,259.583771 621.025330,262.319611 
	C621.084595,265.414398 619.736694,268.123322 618.546326,270.840881 
	C612.633606,284.339569 606.578430,297.776642 600.774841,311.321716 
	C599.627136,314.000305 598.291992,314.993347 595.307129,315.083893 
	C586.878967,315.339569 578.499512,317.059998 569.333435,315.956543 
	C572.368225,311.253143 576.539062,308.277954 580.083740,304.766449 
	C590.583740,294.364655 601.754150,284.612518 611.287598,273.278778 
	C614.700195,269.221802 618.957092,265.155670 617.021851,258.487976 
	C616.794495,257.966400 616.672180,257.782562 616.767822,257.349365 
z"/>
<path fill="#090707" opacity="1.000000" stroke="none" 
	d="
M718.495483,365.731018 
	C715.840515,367.388000 713.298828,367.995544 710.562988,367.768646 
	C706.031677,367.392761 701.855286,364.163239 696.863586,366.926361 
	C694.499695,368.234894 692.858521,366.704895 692.915771,363.402191 
	C693.126038,351.260986 693.151550,339.110870 692.905151,326.971008 
	C692.829834,323.260040 694.525024,323.194122 697.356812,323.045685 
	C700.695801,322.870667 701.756592,323.998718 701.530579,327.241486 
	C701.289307,330.702728 701.476196,334.193787 701.476196,337.629333 
	C703.382080,338.096741 704.055481,336.617249 705.137329,336.050568 
	C711.679626,332.623474 719.189087,334.823425 722.714233,341.302521 
	C726.975769,349.134979 725.353271,359.232697 718.495483,365.731018 
z"/>
<path fill="#0A0809" opacity="1.000000" stroke="none" 
	d="
M756.847412,330.634949 
	C755.293640,331.422699 753.976624,332.090515 753.737793,333.504181 
	C752.694031,339.681549 748.353088,338.150757 744.380066,337.791443 
	C745.955383,328.562927 749.896790,324.063446 757.027771,323.210876 
	C764.011169,322.375946 770.551758,325.625183 772.871765,331.081635 
	C774.953979,335.978699 773.756897,339.680481 768.840942,343.546326 
	C775.349670,349.347046 776.767273,353.784729 774.003784,359.708282 
	C771.326050,365.448242 763.748901,368.787781 756.077515,367.609100 
	C749.202881,366.552795 744.492798,362.060333 743.770386,355.800781 
	C743.615173,354.455200 742.627380,352.267456 744.997925,352.347290 
	C747.313232,352.425232 750.443481,350.380035 751.928467,354.035980 
	C752.236816,354.795166 752.206482,355.700500 752.553406,356.433929 
	C754.188171,359.890656 756.991089,361.348541 760.706116,360.599762 
	C764.523254,359.830444 766.218018,357.373932 766.084595,353.415680 
	C765.945435,349.285461 763.449158,348.079865 759.922913,347.746185 
	C758.043152,347.568268 755.866516,347.931000 755.986572,344.697632 
	C756.072449,342.382782 756.678955,341.553192 759.050171,341.387421 
	C762.635559,341.136810 766.023743,339.695923 765.370300,335.397552 
	C764.712585,331.070740 761.503723,329.484985 756.847412,330.634949 
z"/>
<path fill="#0A0708" opacity="1.000000" stroke="none" 
	d="
M454.966736,360.378723 
	C459.190247,361.522888 462.874023,361.828461 465.816559,358.285614 
	C467.616791,356.118164 470.343079,356.874329 472.350677,357.374390 
	C474.445892,357.896301 472.921875,359.709869 472.257965,360.895630 
	C469.285522,366.204498 462.975708,368.760651 455.815948,367.586700 
	C449.086884,366.483368 444.201996,361.531128 443.071594,354.666626 
	C440.967804,341.891052 450.221924,332.696625 462.913452,334.952850 
	C469.398438,336.105713 475.889832,345.317963 474.720154,351.507721 
	C474.330536,353.569336 472.892365,353.098206 471.688873,353.112427 
	C466.860199,353.169617 462.026398,353.022919 457.203186,353.195282 
	C455.378540,353.260498 452.693573,351.970306 451.872589,354.233002 
	C451.046661,356.509155 452.553345,358.689789 454.966736,360.378723 
z"/>
<path fill="#0A0808" opacity="1.000000" stroke="none" 
	d="
M658.334839,360.440186 
	C655.947021,355.445038 655.215149,350.688965 656.867920,345.634521 
	C659.544861,337.448334 666.351257,333.504761 675.678711,334.917725 
	C682.312134,335.922577 687.727722,343.020325 687.894165,350.550598 
	C687.949890,353.069275 686.665222,353.163574 684.834106,353.151154 
	C679.182861,353.112854 673.525208,353.295135 667.881836,353.080322 
	C664.324280,352.944885 664.479065,354.761932 665.319580,357.073822 
	C666.811829,361.178619 673.584473,363.083893 677.143127,359.794128 
	C680.000000,357.153137 682.800415,356.872742 686.512451,357.388550 
	C685.613281,362.710327 682.254211,365.654419 677.432068,367.116394 
	C670.066772,369.349426 663.239441,366.976440 658.334839,360.440186 
z"/>
<path fill="#0C090A" opacity="1.000000" stroke="none" 
	d="
M549.210938,365.621948 
	C549.167480,356.490936 549.116150,347.827423 549.203308,339.165314 
	C549.217834,337.729065 548.219543,335.284119 550.821655,335.241272 
	C552.933167,335.206482 556.148682,333.631805 557.078613,336.282806 
	C558.273071,339.688110 559.283813,337.430389 560.357666,336.708710 
	C564.632874,333.835449 569.263916,333.872131 573.674011,335.757904 
	C578.094971,337.648285 578.818359,342.007202 578.907471,346.294434 
	C579.028625,352.122955 578.713135,357.969299 579.046509,363.781525 
	C579.268311,367.649323 576.956604,367.110718 574.656128,367.089722 
	C572.398804,367.069092 569.938293,367.760468 570.130920,363.850189 
	C570.392761,358.533875 570.177673,353.192291 570.111816,347.862244 
	C570.065674,344.127075 568.907715,341.186798 564.466858,341.257843 
	C560.161133,341.326660 558.173462,343.954407 557.990112,347.951050 
	C557.791809,352.274200 557.890076,356.611420 557.880920,360.942566 
	C557.866516,367.818359 556.354980,368.724701 549.210938,365.621948 
z"/>
<path fill="#0A0808" opacity="1.000000" stroke="none" 
	d="
M380.748352,342.468811 
	C384.081238,350.902954 382.911133,358.994720 377.903625,363.667419 
	C373.187653,368.067963 365.073456,369.125031 358.724274,366.165985 
	C352.146088,363.100250 348.640198,355.594177 350.101868,347.705414 
	C351.483551,340.248291 356.514313,335.537415 363.874359,334.786530 
	C370.832886,334.076599 376.788788,335.629517 380.748352,342.468811 
z"/>
<path fill="#050404" opacity="1.000000" stroke="none" 
	d="
M479.914734,340.165771 
	C480.316498,337.903137 478.634766,335.204956 482.498505,335.052612 
	C487.098724,334.871246 487.489014,334.868958 488.403137,338.577423 
	C490.638184,337.545349 492.148193,335.438507 494.731598,334.915588 
	C503.850952,333.069733 508.928619,336.763794 509.311584,346.061157 
	C509.557892,352.039368 509.233215,358.041412 509.490112,364.018768 
	C509.665161,368.091003 506.922333,366.897400 504.834778,367.067535 
	C502.534821,367.254944 500.675201,367.307434 500.852661,363.902313 
	C501.129242,358.595062 501.002991,353.259033 500.857391,347.940430 
	C500.765564,344.586578 499.867828,341.525085 495.717560,341.249786 
	C491.494171,340.969666 488.953247,343.163666 488.669281,347.259369 
	C488.290558,352.721375 488.118164,358.229523 488.377960,363.693054 
	C488.556915,367.456360 486.433258,367.043732 484.045654,367.105072 
	C481.504059,367.170349 479.680786,367.217468 479.823547,363.596039 
	C480.124756,355.956909 479.914886,348.297607 479.914734,340.165771 
z"/>
<path fill="#1D1618" opacity="1.000000" stroke="none" 
	d="
M356.781738,99.009262 
	C353.164673,113.012985 347.871368,126.060226 343.132904,139.299057 
	C331.601471,171.516678 319.964264,203.696457 308.135681,236.119629 
	C307.549652,236.445175 307.197662,236.542572 306.403503,236.316467 
	C309.994629,222.141449 315.466644,208.793411 320.300751,195.223999 
	C331.204742,164.616455 342.290039,134.073318 353.402557,103.540749 
	C354.052826,101.754211 353.757568,99.120804 356.781738,99.009262 
z"/>
<path fill="#040303" opacity="1.000000" stroke="none" 
	d="
M542.333862,347.013611 
	C542.334167,352.991150 542.124695,358.482574 542.404236,363.949005 
	C542.609863,367.970886 539.985291,366.961121 537.844238,367.066345 
	C535.635315,367.174988 533.681396,367.455750 533.775513,363.974213 
	C534.008789,355.344208 533.980957,346.700989 533.794006,338.068756 
	C533.715515,334.446472 536.001404,335.126068 538.059753,335.132446 
	C540.112183,335.138824 542.597534,334.432892 542.367065,338.048889 
	C542.187866,340.860809 542.332886,343.693390 542.333862,347.013611 
z"/>
<path fill="#140F11" opacity="1.000000" stroke="none" 
	d="
M324.252136,48.402573 
	C323.797638,49.835705 323.758789,51.061695 322.404541,52.016647 
	C320.590942,47.675858 319.633728,42.626625 312.301971,41.378788 
	C318.969208,39.676659 321.379974,35.872467 322.520813,30.720379 
	C324.644073,35.321281 325.690765,40.345440 331.914246,41.004726 
	C328.235962,42.586330 325.508514,44.492504 324.252136,48.402573 
z"/>
<path fill="#0C090A" opacity="1.000000" stroke="none" 
	d="
M533.832397,326.125488 
	C534.709290,320.544952 538.665283,323.421997 540.961121,323.401001 
	C543.402832,323.378632 542.246338,326.301300 542.294067,327.907013 
	C542.399597,331.459839 539.542480,329.771973 537.911438,330.039368 
	C535.354126,330.458618 533.152893,330.138367 533.832397,326.125488 
z"/>
<path fill="#35292D" opacity="1.000000" stroke="none" 
	d="
M616.644409,256.909729 
	C616.985962,257.275818 616.986206,257.451630 616.951599,257.888794 
	C612.993713,257.031891 609.386353,258.132599 605.825439,259.685059 
	C601.122314,261.735413 596.400391,263.742584 591.317139,265.784515 
	C590.947754,265.800720 590.882446,265.357422 590.935974,265.139862 
	C597.370544,260.510895 604.454407,257.792450 612.007812,256.213562 
	C613.487183,255.904327 614.945374,255.923706 616.644409,256.909729 
z"/>
<path fill="#35292D" opacity="1.000000" stroke="none" 
	d="
M786.177856,380.034821 
	C785.463684,380.665527 786.090942,383.681000 784.576294,381.474182 
	C783.390686,379.746704 782.682068,377.735260 780.302246,376.419098 
	C783.344299,375.406494 784.044922,372.829956 785.352783,369.463165 
	C785.937622,372.901917 786.571594,375.275208 789.423340,376.111084 
	C788.274597,377.436218 787.274658,378.589722 786.177856,380.034821 
z"/>
<path fill="#1D1618" opacity="1.000000" stroke="none" 
	d="
M339.207703,62.499413 
	C334.595062,58.922295 338.352020,56.446552 340.242340,53.741859 
	C341.607147,55.159840 341.803253,57.928509 344.649048,58.326019 
	C342.649963,59.860939 341.590759,61.523365 340.719086,63.632915 
	C339.977386,65.427818 339.879211,63.010921 339.207703,62.499413 
z"/>
<path fill="#040303" opacity="1.000000" stroke="none" 
	d="
M300.523376,256.777527 
	C300.195770,258.484283 299.691284,259.933716 299.039551,261.683746 
	C298.376617,262.397461 297.794312,262.541962 296.759583,262.151550 
	C297.006042,259.963226 297.638245,258.041138 298.547241,255.856903 
	C299.507874,255.613113 299.976471,255.985550 300.523376,256.777527 
z"/>
<path fill="#1D1618" opacity="1.000000" stroke="none" 
	d="
M360.626007,89.003601 
	C360.511505,90.508598 360.067657,92.024414 359.362000,93.761040 
	C358.709381,94.370750 358.241180,94.525070 357.375183,94.226608 
	C357.542603,92.505852 358.030518,91.003410 358.748779,89.248230 
	C359.418274,89.001801 359.857483,89.008118 360.626007,89.003601 
z"/>
<path fill="#040303" opacity="1.000000" stroke="none" 
	d="
M305.241638,243.831390 
	C304.837524,245.302994 304.535065,246.352982 304.080627,247.696167 
	C303.353149,248.566742 302.672333,248.696274 301.638184,248.211197 
	C301.884491,246.519608 302.399261,245.081802 303.035950,243.333298 
	C304.024811,242.369888 304.745514,242.542862 305.241638,243.831390 
z"/>
<path fill="#1D1618" opacity="1.000000" stroke="none" 
	d="
M301.182556,248.299698 
	C302.009369,247.973358 302.649017,247.989304 303.608673,247.997314 
	C303.631531,248.888702 303.334381,249.788025 302.899048,250.942444 
	C302.338867,251.308624 301.916931,251.419678 300.924683,251.209549 
	C300.568085,250.139557 300.781738,249.390762 301.182556,248.299698 
z"/>
<path fill="#1D1618" opacity="1.000000" stroke="none" 
	d="
M305.402893,244.053467 
	C304.680237,243.877029 304.220459,243.501038 303.459259,243.073822 
	C303.466003,242.121017 303.774200,241.219452 304.256958,240.082336 
	C305.125244,239.564926 305.711395,239.711960 306.142151,240.789734 
	C305.951447,242.145798 305.808624,242.999878 305.402893,244.053467 
z"/>
<path fill="#040303" opacity="1.000000" stroke="none" 
	d="
M306.367188,241.019073 
	C305.761505,240.924774 305.428741,240.557816 304.763733,240.018799 
	C304.784180,238.735886 305.136810,237.625000 305.725433,236.253540 
	C306.286499,236.042511 306.611633,236.092041 307.419220,236.244675 
	C307.481171,237.813995 307.060638,239.280212 306.367188,241.019073 
z"/>
<path fill="#B0828E" opacity="1.000000" stroke="none" 
	d="
M321.310242,341.057037 
	C321.088989,339.947845 321.142883,338.875916 321.201965,337.701233 
	C323.266449,338.395325 322.911011,339.976349 323.032166,341.657867 
	C322.506927,341.706482 322.046143,341.400391 321.310242,341.057037 
z"/>
<path fill="#1D1618" opacity="1.000000" stroke="none" 
	d="
M358.536560,94.771172 
	C358.435974,96.353882 358.015442,97.727165 357.301636,99.317841 
	C354.986023,99.542519 354.986023,99.542519 356.503235,95.288559 
	C357.213226,94.586304 357.684387,94.460068 358.536560,94.771172 
z"/>
<path fill="#1D1618" opacity="1.000000" stroke="none" 
	d="
M300.865112,256.749786 
	C300.174469,256.735352 299.648621,256.435852 298.973419,255.865540 
	C298.895081,255.137329 298.966125,254.679901 299.191650,254.044922 
	C299.873322,253.570175 300.437592,253.455688 301.417603,253.749039 
	C301.540863,254.804443 301.285400,255.634583 300.865112,256.749786 
z"/>
<path fill="#1D1618" opacity="1.000000" stroke="none" 
	d="
M296.202759,262.089417 
	C296.933228,261.917999 297.492615,261.950653 298.472168,261.983826 
	C298.736145,262.528595 298.579956,263.072815 298.197266,263.806030 
	C297.468414,263.972626 296.966095,263.950287 296.088074,263.894714 
	C295.818817,263.338806 295.925232,262.816193 296.202759,262.089417 
z"/>
<path fill="#040303" opacity="1.000000" stroke="none" 
	d="
M301.973877,253.647430 
	C301.251770,253.956161 300.707153,253.938004 299.754333,253.893616 
	C299.574738,253.055466 299.803314,252.243546 300.193176,251.159988 
	C300.756592,250.930740 301.158752,250.973145 302.160858,251.106537 
	C302.557678,251.905228 302.354523,252.612885 301.973877,253.647430 
z"/>
<path fill="#040303" opacity="1.000000" stroke="none" 
	d="
M358.967957,94.743240 
	C358.399933,94.984818 357.943359,94.989037 357.144958,94.966843 
	C356.803101,94.940422 356.827271,94.446938 356.940979,94.227615 
	C357.508667,93.999466 357.962708,93.990639 358.758484,93.981827 
	C359.093323,94.156525 359.086365,94.331207 358.967957,94.743240 
z"/>
<path fill="#F8B2C4" opacity="1.000000" stroke="none" 
	d="
M407.650177,213.853394 
	C418.404846,242.889587 428.908295,271.736084 439.458313,300.565582 
	C440.254272,302.740540 440.363403,303.996765 437.408905,303.851562 
	C428.429749,303.410248 419.396606,303.322052 410.657684,300.941498 
	C392.192322,295.911377 386.301300,283.956055 392.831573,264.906250 
	C396.539948,254.088348 400.397827,243.321640 404.198547,232.535446 
	C406.210327,226.826172 407.163544,220.962784 406.869965,214.457504 
	C407.072174,213.892700 407.241364,213.776077 407.650177,213.853394 
z"/>
<path fill="#B0828E" opacity="1.000000" stroke="none" 
	d="
M407.892639,213.676544 
	C407.889771,214.047333 407.395142,214.059738 407.149048,214.034515 
	C405.837280,212.853790 405.628571,211.568771 406.292999,210.087051 
	C407.611420,210.817825 407.315918,212.280182 407.892639,213.676544 
z"/>
<path fill="#F6B0C3" opacity="1.000000" stroke="none" 
	d="
M711.368286,360.877838 
	C706.325134,361.918976 703.307068,360.128967 701.843506,355.607269 
	C700.196350,350.518494 701.671265,344.247955 705.109192,342.005951 
	C708.280701,339.937714 712.582581,340.936920 714.660400,344.224365 
	C717.728333,349.078400 716.361816,356.877380 711.368286,360.877838 
z"/>
<path fill="#EEABBD" opacity="1.000000" stroke="none" 
	d="
M465.440430,346.562012 
	C461.477570,349.250275 457.082001,347.669159 452.851654,347.778717 
	C450.848358,347.830627 451.732605,345.787659 452.252808,344.731415 
	C453.635803,341.923126 456.044861,340.817932 459.135864,340.943207 
	C462.597870,341.083557 464.583954,342.873047 465.440430,346.562012 
z"/>
<path fill="#EEABBD" opacity="1.000000" stroke="none" 
	d="
M672.857239,347.950592 
	C671.252197,347.950439 670.081482,348.084991 668.956665,347.915283 
	C667.625549,347.714447 665.695129,348.845947 665.071655,347.045410 
	C664.406616,345.124603 665.838196,343.592773 667.238953,342.428833 
	C671.679443,338.739105 677.203918,341.278351 678.672363,347.950653 
	C676.835510,347.950653 675.073730,347.950653 672.857239,347.950592 
z"/>
<path fill="#F6B0C3" opacity="1.000000" stroke="none" 
	d="
M371.899902,358.902771 
	C364.984009,363.523102 359.440216,360.915375 358.809998,353.118530 
	C358.664185,351.314514 358.693359,349.447083 358.989288,347.666595 
	C359.664886,343.601807 361.923889,341.027069 366.305511,340.977600 
	C370.718750,340.927765 373.122772,343.566162 373.749634,347.555450 
	C374.336700,351.291412 374.671082,355.199036 371.899902,358.902771 
z"/>
</svg>