<svg width="486" height="652" viewBox="0 0 486 652" fill="none" xmlns="http://www.w3.org/2000/svg">
<ellipse opacity="0.4" cx="283.5" cy="326" rx="155.5" ry="208" fill="url(#paint0_linear_155_4055)"/>
<path d="M240.17 104.306C232.514 119.625 230.775 136.943 228.04 153.36C226.955 159.848 223.476 166.439 221.841 172.981C216.762 193.295 221.494 218.074 229.071 237.009C236.31 255.103 253.242 255.27 269.861 252.5C273.364 251.917 276.422 249.645 279.93 249.144C290.301 247.663 299.929 242.735 307.817 235.977C312.45 232.005 314.973 225.016 317.624 219.711" stroke="#020207" stroke-width="3" stroke-miterlimit="10" stroke-linecap="round" stroke-linejoin="round"/>
<path d="M319.174 216.355L319.432 215.581L319.69 215.064L340.402 204.191" stroke="#020207" stroke-width="3" stroke-miterlimit="10" stroke-linecap="round" stroke-linejoin="round"/>
<path d="M257.052 140.47C257.052 140.983 251.671 137.141 250.298 136.112C247.008 133.647 236.335 132.089 232.648 133.933" stroke="#020207" stroke-width="3" stroke-miterlimit="10" stroke-linecap="round" stroke-linejoin="round"/>
<path d="M279.93 147.225C286.54 147.225 294.042 144.488 300.632 146.136C305.216 147.281 309.254 151.551 313.927 153.109" stroke="#020207" stroke-width="3" stroke-miterlimit="10" stroke-linecap="round" stroke-linejoin="round"/>
<path d="M231.875 151.377C232.668 151.773 236.91 149.534 238.317 149.3C241.26 148.808 255.07 154.088 253.896 157.609C253.767 157.996 249.902 157.402 249.327 157.402C245.358 157.402 241.969 155.954 238.317 154.493C236.498 153.765 233.332 151.377 233.332 151.377C233.332 151.377 233.882 151.654 234.159 151.792C235.101 152.263 238.317 155.842 239.352 155.324C240.18 154.912 240.393 149.3 241.642 149.923C241.701 149.954 241.701 154.645 242.885 155.532C244.223 156.536 246.592 154.039 246.835 152.831C247.276 150.625 242.876 150.154 242.053 152.208C241.221 154.295 245.685 155.813 246.835 154.285C250.501 149.394 239.868 153.039 245.586 153.039" stroke="#020207" stroke-width="3" stroke-miterlimit="10" stroke-linecap="round" stroke-linejoin="round"/>
<path d="M255.144 156.363C255.144 148.227 242.088 148.899 237.484 146.599" stroke="#020207" stroke-width="3" stroke-miterlimit="10" stroke-linecap="round" stroke-linejoin="round"/>
<path d="M281.734 163.01C283.894 158.686 303.67 162.425 305.83 166.75" stroke="#020207" stroke-width="3" stroke-miterlimit="10" stroke-linecap="round" stroke-linejoin="round"/>
<path d="M282.774 162.803C281.372 162.803 288.091 166.389 289.419 166.958C293.75 168.813 299.483 166.542 303.962 166.542" stroke="#020207" stroke-width="3" stroke-miterlimit="10" stroke-linecap="round" stroke-linejoin="round"/>
<path d="M290.876 162.907C286.897 158.598 289.88 168.494 292.536 167.165C294.914 165.977 293.552 160.736 291.495 161.764C289.478 162.774 291.609 166.52 293.576 166.127C295.712 165.699 293.794 162.68 292.328 162.388C290.529 162.028 292.838 165.034 290.876 162.907Z" stroke="#020207" stroke-width="3" stroke-miterlimit="10" stroke-linecap="round" stroke-linejoin="round"/>
<path d="M282.982 159.687C282.982 158.44 287.927 158.44 289.211 158.44C295.682 158.44 300.429 161.486 306.247 163.426" stroke="#020207" stroke-width="3" stroke-miterlimit="10" stroke-linecap="round" stroke-linejoin="round"/>
<path d="M244.134 185.239C244.045 185.239 247.018 185.552 247.87 186.693C249.615 189.016 249.278 191.378 252.86 192.094C255.655 192.653 259.287 190.919 262.206 190.432C265.808 189.832 269.301 191.679 272.8 191.679" stroke="#020207" stroke-width="3" stroke-miterlimit="10" stroke-linecap="round" stroke-linejoin="round"/>
<path d="M275.5 181.084C277.329 181.084 276.749 186.193 276.749 187.94" stroke="#020207" stroke-width="3" stroke-miterlimit="10" stroke-linecap="round" stroke-linejoin="round"/>
<path d="M248.287 175.475C240.111 183.651 227.723 186.915 227.723 200.82" stroke="#020207" stroke-width="3" stroke-miterlimit="10" stroke-linecap="round" stroke-linejoin="round"/>
<path d="M281.317 189.394C281.317 193.149 287.417 198.643 289.419 201.651C291.639 204.978 291.703 208.421 291.703 212.245" stroke="#020207" stroke-width="3" stroke-miterlimit="10" stroke-linecap="round" stroke-linejoin="round"/>
<path d="M253.192 202.801C251.398 203.699 248.951 201.027 247.315 200.617C242.157 199.328 236.915 199.442 231.528 199.442" stroke="#020207" stroke-width="3" stroke-miterlimit="10" stroke-linecap="round" stroke-linejoin="round"/>
<path d="M254.034 201.625C253.628 201.828 256.854 202.129 257.726 202.129C260.253 202.129 262.869 202.297 265.451 202.297C271.987 202.297 278.815 206.46 284.598 209.35" stroke="#020207" stroke-width="3" stroke-miterlimit="10" stroke-linecap="round" stroke-linejoin="round"/>
<path d="M237.326 202.633C237.098 202.087 236.756 201.593 236.399 201.121C235.948 200.519 237.405 202.296 238.079 202.633C239.546 203.365 240.903 204.238 242.444 204.816C246.617 206.38 251.666 206.269 256.046 206.999C261.601 207.925 267.453 207.735 273.008 208.846C273.949 209.034 281.848 208.967 281.407 209.854C278.998 214.664 270.877 214.243 266.794 215.059C254.277 217.563 242.672 215.467 237.326 202.633Z" stroke="#020207" stroke-width="3" stroke-miterlimit="10" stroke-linecap="round" stroke-linejoin="round"/>
<path d="M233.714 201.961C233.714 205.286 237.301 206.432 238.753 208.846C239.897 210.759 240.309 213.497 241.607 215.228C245.665 220.643 256.021 225.401 262.597 222.113" stroke="#020207" stroke-width="3" stroke-miterlimit="10" stroke-linecap="round" stroke-linejoin="round"/>
<path d="M274.018 219.761C274.777 218.242 282.536 214.769 284.429 212.876" stroke="#020207" stroke-width="3" stroke-miterlimit="10" stroke-linecap="round" stroke-linejoin="round"/>
<path d="M250.675 207.167C250.323 208.579 250.611 210.079 250.675 211.533" stroke="#020207" stroke-width="3" stroke-miterlimit="10" stroke-linecap="round" stroke-linejoin="round"/>
<path d="M256.215 207.502C256.215 209.69 255.878 211.864 255.878 214.052" stroke="#020207" stroke-width="3" stroke-miterlimit="10" stroke-linecap="round" stroke-linejoin="round"/>
<path d="M262.428 208.846C261.883 209.937 262.26 212.999 262.26 214.22" stroke="#020207" stroke-width="3" stroke-miterlimit="10" stroke-linecap="round" stroke-linejoin="round"/>
<path d="M268.305 209.35C268.305 210.414 268.305 211.477 268.305 212.54" stroke="#020207" stroke-width="3" stroke-miterlimit="10" stroke-linecap="round" stroke-linejoin="round"/>
<path d="M337.499 78.2426C332.038 61.8587 320.963 65.5961 306.371 62.6775C298.849 61.1735 291.579 58.0073 284.32 56.192C279.39 54.9602 259.148 59.936 254.916 63.1099C248.485 67.9345 236.028 77.8844 234.596 86.4572C234.016 89.958 234.164 93.6308 234.164 97.2663C234.164 98.8639 234.918 99.6542 234.164 101.158C233.877 101.734 233.302 103.532 233.302 102.887C233.302 97.7053 247.533 91.6457 251.458 91.6457" stroke="#020207" stroke-width="3" stroke-miterlimit="10" stroke-linecap="round" stroke-linejoin="round"/>
<path d="M242.811 96.8341C249.659 103.682 250.13 88.4673 252.756 86.8896C254.495 85.8456 256.349 86.5244 257.944 87.3222C258.886 87.7915 262.022 88.1869 260.972 88.1869C256.725 88.1869 256.195 84.5776 264.43 87.3222" stroke="#020207" stroke-width="3" stroke-miterlimit="10" stroke-linecap="round" stroke-linejoin="round"/>
<path d="M274.375 84.7278C276.159 85.6212 282.1 88.7826 283.889 88.1869C286.223 87.408 286.391 85.5815 289.939 86.025C293.002 86.4076 296.772 89.1735 299.453 90.781" stroke="#020207" stroke-width="3" stroke-miterlimit="10" stroke-linecap="round" stroke-linejoin="round"/>
<path d="M319.343 94.6721C316.608 93.3065 320.582 102.081 322.802 99.8606C324.412 98.2478 323.629 93.2921 325.824 91.6455C328.743 89.4584 328.634 95.464 330.15 95.9694C332.187 96.6477 333.604 87.3316 334.04 86.457" stroke="#020207" stroke-width="3" stroke-miterlimit="10" stroke-linecap="round" stroke-linejoin="round"/>
<path d="M342.687 79.1072C345.967 79.1072 345.967 95.5215 348.311 99.4281C360.124 119.119 366.912 134.405 361.278 156.932C360.386 160.515 343.97 175.719 340.526 177.686C338.385 178.909 331.448 182.479 331.448 178.551" stroke="#020207" stroke-width="3" stroke-miterlimit="10" stroke-linecap="round" stroke-linejoin="round"/>
<path d="M329.283 113.264C328.312 111.313 326.468 105.803 328.421 106.779C330.229 107.683 334.471 115.184 334.471 117.155C334.471 117.978 332.994 119.794 333.609 120.614C334.516 121.825 337.459 122.985 337.067 124.938C336.379 128.371 330.606 131.499 331.879 135.315C332.776 138.013 336.557 139.605 337.067 142.665C337.494 145.215 334.565 148.213 334.907 149.583C335.665 152.626 339.357 153.829 338.366 157.798C337.315 161.999 332.742 165.574 332.742 169.904" stroke="#020207" stroke-width="3" stroke-miterlimit="10" stroke-linecap="round" stroke-linejoin="round"/>
<path d="M353.063 169.903C352.002 169.903 355.178 170.669 356.09 172.497C357.626 175.569 358.127 179.669 356.526 182.874C354.633 186.658 350.332 190.613 349.604 194.98C348.439 201.981 345.769 208.384 337.067 208.384C334.075 208.384 331.24 206.655 327.99 206.655" stroke="#020207" stroke-width="3" stroke-miterlimit="10" stroke-linecap="round" stroke-linejoin="round"/>
<path d="M350.04 176.821C349.525 175.797 349.485 181.442 348.742 183.307C346.973 187.724 344.242 190.465 340.526 193.251C340.041 193.615 336.527 195.304 336.205 194.98C335.913 194.693 336.815 194.434 337.067 194.116C338.455 192.382 339.282 190.092 340.095 188.063C340.363 187.394 340.814 185.901 340.095 185.901C337.766 185.901 334.907 193.476 334.907 195.413" stroke="#020207" stroke-width="3" stroke-miterlimit="10" stroke-linecap="round" stroke-linejoin="round"/>
<path d="M357.334 185.312C357.334 179.914 354.173 200.226 353.88 202.597C352.622 212.642 354.728 226.944 356.903 236.735C357.329 238.654 359.99 253.402 357.765 252.291" stroke="#020207" stroke-width="3" stroke-miterlimit="10" stroke-linecap="round" stroke-linejoin="round"/>
<path d="M331.409 209.079C331.409 202.253 331.716 216.515 331.84 218.153C332.355 224.836 331.755 236.843 336.161 242.352C337.731 244.316 336.815 234.581 336.161 233.278" stroke="#020207" stroke-width="3" stroke-miterlimit="10" stroke-linecap="round" stroke-linejoin="round"/>
<path d="M334 212.535C334 221.203 338.054 229.593 340.913 237.599C341.909 240.383 342.87 242.937 343.509 245.809C343.777 247.011 344.252 250.367 344.802 249.266C346.576 245.724 341.745 227.261 343.94 225.067C345.1 223.906 345.006 228.195 345.233 229.82C345.615 232.482 346.101 234.576 346.963 237.167C349.341 244.305 349.926 253.481 353.88 260.069C355.545 262.844 354.718 249.258 357.334 250.13C357.933 250.33 359.549 254.707 359.93 255.316C361.452 257.753 363.726 259.246 365.976 260.934" stroke="#020207" stroke-width="3" stroke-miterlimit="10" stroke-linecap="round" stroke-linejoin="round"/>
<path d="M327.955 211.844C323.357 221.042 322.529 231.308 320.091 241.049C315.969 257.546 313.407 275.925 306.985 291.969C296.084 319.227 287.016 346.725 276.66 374.342C269.831 392.545 261.68 412.309 261.68 432.002" stroke="#020207" stroke-width="3" stroke-miterlimit="10" stroke-linecap="round" stroke-linejoin="round"/>
<path d="M235.101 248.537C235.101 252.426 232.688 256.593 231.355 260.144C226.856 272.139 220.835 282.871 215.627 294.591C209.993 307.267 201.822 319.894 198.032 333.155C194.157 346.724 191.996 361.329 185.674 373.967C174.599 396.117 156.845 416.617 156.845 442.86" stroke="#020207" stroke-width="3" stroke-miterlimit="10" stroke-linecap="round" stroke-linejoin="round"/>
<path d="M231.726 247.039C228.907 252.686 219.983 255.356 214.879 258.272C204.097 264.434 192.403 271.277 182.304 278.491C179.049 280.818 172.775 281.764 170.699 285.23C166.259 292.632 169.53 308.511 170.699 316.681C171.219 320.331 173.93 323.983 172.944 327.914C171.908 332.064 169.327 336.108 168.078 340.27C165.65 348.363 164.307 356.807 160.962 364.607C157.727 372.155 152.935 380.966 151.602 388.944C149.536 401.349 149.357 413.596 149.357 426.386C149.357 437.053 149.466 452.071 154.223 461.581" stroke="#020207" stroke-width="3" stroke-miterlimit="10" stroke-linecap="round" stroke-linejoin="round"/>
<path d="M158.718 438.742C156.696 442.782 159.416 452.442 160.962 457.089" stroke="#020207" stroke-width="3" stroke-miterlimit="10" stroke-linecap="round" stroke-linejoin="round"/>
<path d="M205.895 263.139C198.993 263.139 193.121 268.631 186.798 271.002C176.17 274.989 168.236 279.145 158.718 284.855C155.75 286.635 152.712 287.495 150.482 290.472C148.946 292.518 149.035 295.925 148.233 298.335C146.682 302.993 143.5 307.108 142.99 312.188C141.127 330.854 146.062 349.039 143.738 367.603C140.651 392.302 134.859 416.048 139.997 441.737" stroke="#020207" stroke-width="3" stroke-miterlimit="10" stroke-linecap="round" stroke-linejoin="round"/>
<path d="M150.854 291.221C146.697 299.539 145.156 308.514 141.494 317.056C132 339.206 126.356 364.286 121.648 387.821C119.374 399.205 121.975 411.8 120.529 423.391C118.928 436.164 120.756 449.351 118.656 461.956C118.244 464.421 116.014 470.907 117.154 473.188C117.427 473.73 118.715 473.563 119.027 473.563C125.707 473.563 131.237 472.365 137.376 475.435" stroke="#020207" stroke-width="3" stroke-miterlimit="10" stroke-linecap="round" stroke-linejoin="round"/>
<path d="M120.529 475.435C124.934 477.64 133.922 472.649 136.999 478.805" stroke="#020207" stroke-width="3" stroke-miterlimit="10" stroke-linecap="round" stroke-linejoin="round"/>
<path d="M323.837 230.939C323.837 237.843 334.01 241.25 338.44 244.793C346.869 251.538 354.713 260.784 353.043 272.5C351.16 285.678 342.434 298.076 339.188 311.065C338.668 313.147 336.597 322.662 334.317 323.421C333.564 323.672 331.285 322.83 330.2 323.047C325.349 324.017 321.221 327.611 316.722 329.411C316.097 329.661 314.849 329.488 314.849 330.16C314.849 330.535 315.602 330.099 315.973 330.16C317.752 330.457 325.71 334.684 325.71 336.525C325.71 339.451 318.278 352.952 316.722 356.37C314.229 361.857 312.455 368 310.354 373.593C307.208 381.987 301.544 389.346 297.625 397.182C295.464 401.504 295.187 407.129 294.255 411.784" stroke="#020207" stroke-width="3" stroke-miterlimit="10" stroke-linecap="round" stroke-linejoin="round"/>
<path d="M354.163 260.893C360.579 263.031 367.195 267.222 373.26 270.253C382.674 274.96 397.703 277.742 408.079 277.742" stroke="#020207" stroke-width="3" stroke-miterlimit="10" stroke-linecap="round" stroke-linejoin="round"/>
<path d="M408.456 279.239C401.93 275.977 388.571 287.001 382.997 290.098C358.409 303.756 342.929 342.055 335.071 367.603C332.088 377.294 329.02 386.958 326.83 396.807C326.097 400.123 326.082 403.551 325.71 406.917C325.552 408.303 325.582 412.283 324.957 411.035C322.163 405.441 334.496 378.241 336.567 373.967C342.052 362.628 348.93 352.237 354.539 341.018C355.079 339.94 356.784 337.528 356.784 336.151C356.784 335.201 356.016 337.89 355.664 338.772C355.193 339.941 354.648 341.013 354.163 342.142C352.443 346.155 351.408 350.954 350.793 355.246C348.534 371.083 342.558 387.97 342.558 403.921C342.558 409.151 341.17 414.49 340.308 419.647C340.184 420.393 338.064 427.775 338.064 424.514" stroke="#020207" stroke-width="3" stroke-miterlimit="10" stroke-linecap="round" stroke-linejoin="round"/>
<path d="M355.287 354.498C354.113 356.844 356.739 349.346 357.16 348.507C359.103 344.62 361.684 341.2 364.648 338.023C373.507 328.532 384.151 322.904 395.35 316.681" stroke="#020207" stroke-width="3" stroke-miterlimit="10" stroke-linecap="round" stroke-linejoin="round"/>
<path d="M416.32 278.116C416.32 293.126 426.72 302.788 429.421 316.307C432.463 331.504 428.083 347.811 426.428 362.735C423.534 388.782 420.556 414.424 412.197 439.491C408.555 450.428 404.794 467.491 396.474 475.81" stroke="#020207" stroke-width="3" stroke-miterlimit="10" stroke-linecap="round" stroke-linejoin="round"/>
<path d="M352.666 411.784C352.666 406.089 369.509 411.968 372.135 413.656C382.427 420.273 390.499 429.552 396.846 439.865C399.314 443.871 400.216 447.165 400.216 451.847C400.216 452.72 400.216 454.467 400.216 454.467C400.216 454.467 400.29 453.464 400.216 452.97C399.864 450.491 398.709 447.704 397.594 445.482C394.582 439.449 389.324 432.893 384.116 428.633C381.758 426.702 378.592 424.857 375.504 424.514C375.386 424.5 369.578 423.359 370.262 423.016C373.299 421.498 383.621 434.499 384.865 436.121C394.314 448.404 395.171 464.903 392.728 479.554C392.188 482.796 391.995 491.341 388.611 493.033" stroke="#020207" stroke-width="3" stroke-miterlimit="10" stroke-linecap="round" stroke-linejoin="round"/>
<path d="M343.683 424.514C342.057 423.973 349.797 420.148 355.287 425.637C359.316 429.667 366.987 434.481 369.142 439.865C370.653 443.649 370.356 448.284 371.015 452.221C373.726 468.494 368.572 475.475 358.657 487.042C354.985 491.325 349.673 495.803 344.431 497.9C344.114 498.027 342.929 498.59 342.929 499.023C342.929 499.823 344.163 498.005 344.802 497.526C345.407 497.073 346.363 495.929 347.052 495.654C349.064 494.848 354.936 497.526 357.532 497.526C365.683 497.526 384.612 495.038 388.987 486.293" stroke="#020207" stroke-width="3" stroke-miterlimit="10" stroke-linecap="round" stroke-linejoin="round"/>
<path d="M382.243 494.156C386.718 496.391 392.763 513.046 396.098 519.24C400.761 527.902 404.259 537.351 409.204 545.824C418.644 562.013 429.153 578.479 436.16 596" stroke="#020207" stroke-width="3" stroke-miterlimit="10" stroke-linecap="round" stroke-linejoin="round"/>
<path d="M268.048 493.033C266.338 493.887 270.486 511.223 271.04 514.751C273.473 530.151 277.888 545.606 282.65 560.427C285.44 569.104 289.389 578.013 290.886 587.011" stroke="#020207" stroke-width="3" stroke-miterlimit="10" stroke-linecap="round" stroke-linejoin="round"/>
<path d="M346.675 423.391C344.153 423.391 341.735 425.212 339.188 425.637C334.184 426.471 328.282 425.478 323.461 424.514C311.212 422.064 300.459 409.121 287.145 411.784C279.717 413.268 268.053 428.434 265.426 434.998C263.42 440.019 264.227 447.556 270.669 448.477C277.908 449.511 291.039 434.736 298.75 430.879" stroke="#020207" stroke-width="3" stroke-miterlimit="10" stroke-linecap="round" stroke-linejoin="round"/>
<path d="M301.371 430.879C304.438 433.944 301.153 441.58 298.75 443.984" stroke="#020207" stroke-width="3" stroke-miterlimit="10" stroke-linecap="round" stroke-linejoin="round"/>
<path d="M269.921 434.249C271.516 435.048 273.241 435.862 274.415 437.244C281.63 445.734 270.099 448.392 274.038 442.486" stroke="#020207" stroke-width="3" stroke-miterlimit="10" stroke-linecap="round" stroke-linejoin="round"/>
<path d="M274.038 434.623C271.308 433.258 264.202 442.86 271.041 442.86" stroke="#020207" stroke-width="3" stroke-miterlimit="10" stroke-linecap="round" stroke-linejoin="round"/>
<path d="M278.904 488.914C279.752 486.37 297.476 488.914 301.371 488.914C307.694 488.914 311.677 481.086 317.47 479.928C321.593 479.104 322.732 482.928 326.459 483.672C334.164 485.213 341.507 488.105 349.297 489.663" stroke="#020207" stroke-width="3" stroke-miterlimit="10" stroke-linecap="round" stroke-linejoin="round"/>
<path d="M208.14 309.567C205.89 311.818 209.617 315.031 211.138 317.056C212.818 319.301 212.739 322.223 214.131 324.544C214.869 325.772 225.587 330.458 227.985 331.658C232.049 333.691 236.731 333.36 241.092 333.905C260.684 336.354 273.137 335.163 291.262 327.914" stroke="#020207" stroke-width="3" stroke-miterlimit="10" stroke-linecap="round" stroke-linejoin="round"/>
<path d="M229.482 269.879C231.687 274.286 228.709 282.772 227.985 287.851C225.374 306.14 221.122 351.502 249.699 351.502" stroke="#020207" stroke-width="3" stroke-miterlimit="10" stroke-linecap="round" stroke-linejoin="round"/>
<path d="M241.84 351.876C248.514 351.876 255.461 345.966 260.56 342.142C277.874 329.154 285.346 308.696 296.505 290.846C299.285 286.393 302.803 282.216 305.488 277.742C306.192 276.57 307.148 271.447 308.486 271.002C310.914 270.192 308.67 278.317 308.486 278.865C305.781 286.973 303.665 295.241 299.874 302.828C290.737 321.102 275.545 339.141 258.687 350.379" stroke="#020207" stroke-width="3" stroke-miterlimit="10" stroke-linecap="round" stroke-linejoin="round"/>
<path d="M316.722 258.272C312.123 260.57 304.824 287.504 302.496 293.093C291.961 318.374 274.177 356.148 244.833 363.484" stroke="#020207" stroke-width="3" stroke-miterlimit="10" stroke-linecap="round" stroke-linejoin="round"/>
<path d="M226.861 273.997C223.957 273.997 223.412 296.474 223.119 300.581C221.578 322.115 221.707 356.555 245.581 366.105C251.398 368.431 260.645 370.181 266.551 367.228" stroke="#020207" stroke-width="3" stroke-miterlimit="10" stroke-linecap="round" stroke-linejoin="round"/>
<path d="M213.383 296.088C209.785 299.684 211.51 309.346 211.51 314.435C211.51 329.318 215.573 342.875 224.616 354.498C228.213 359.127 231.211 365.388 237.346 367.228C255.303 372.616 275.446 357.021 286.396 344.388C293.071 336.686 296.911 326.486 302.119 317.805" stroke="#020207" stroke-width="3" stroke-miterlimit="10" stroke-linecap="round" stroke-linejoin="round"/>
<path d="M224.988 226.82C224.988 234.567 221.544 242.226 217.129 248.537C215.771 250.476 214.691 252.564 213.383 254.528C212.669 255.597 210.226 257.897 211.51 257.897C214.047 257.897 231.88 225.277 225.736 242.172C225.186 243.697 224.507 245.174 223.868 246.665C222.847 249.046 222.034 251.455 220.87 253.779" stroke="#020207" stroke-width="3" stroke-miterlimit="10" stroke-linecap="round" stroke-linejoin="round"/>
<path d="M124.859 475.866C115.202 478.28 110.123 486.223 110.123 495.511C110.123 496.602 109.355 498.013 110.123 498.785C111.981 500.64 113.036 494.419 114.488 492.236C117.199 488.174 120.281 484.265 123.764 480.777C127.996 476.549 128.269 485.314 131.95 486.234C134.804 486.947 134.002 480.32 135.771 479.139C136.43 478.7 137.782 481.509 138.501 481.868" stroke="#020207" stroke-width="3" stroke-miterlimit="10" stroke-linecap="round" stroke-linejoin="round"/>
<path d="M170.149 449.672C170.149 449.398 167.766 453.184 167.424 454.038C162.454 466.463 150.116 475.066 139.591 482.959C126.529 492.756 113.943 502.277 99.7567 510.792C85.0498 519.612 69.0795 527.5 58.2823 541.895C55.8741 545.111 37 557.979 37 559.357C37 559.763 37.6938 558.891 38.0902 558.812C40.9195 558.247 43.9818 557.984 46.8211 557.177C52.1825 555.646 58.2179 552.955 63.7379 552.261C72.885 551.122 82.8498 550.626 92.1159 550.626C95.9908 550.626 100.386 551.919 104.122 551.171C108.825 550.23 113.537 548.034 118.309 547.351C142.747 543.862 167.82 543.738 191.976 539.71C197.308 538.823 201.307 535.206 205.623 532.619C209.602 530.231 214.131 529.041 218.174 526.613C224.611 522.753 230.096 517.308 236.726 513.517C247.434 507.399 265.337 502.654 272.74 492.782C275.128 489.6 280.891 487.129 284.201 485.143C296.079 478.016 308.848 469.246 319.67 460.586C324.744 456.528 330.219 453.129 336.042 450.218C338.46 449.008 343.683 447.489 343.683 447.489C343.683 447.489 341.785 447.358 340.952 446.944C337.756 445.345 332.548 446.398 328.951 446.398C320.334 446.398 310.795 444.421 302.208 445.852C274.767 450.426 245.081 448.035 217.079 448.035C206.53 448.035 195.98 448.035 185.431 448.035C180.818 448.035 176.274 449.672 171.789 449.672C171.244 449.672 170.149 450.218 170.149 449.672Z" stroke="#020207" stroke-width="3" stroke-miterlimit="10" stroke-linecap="round" stroke-linejoin="round"/>
<path d="M292.932 440.122C291.966 438.591 292.625 433.705 291.297 434.938C289.097 436.98 289.875 440.768 289.112 443.669C288.829 444.739 287.462 446.943 288.567 446.943C289.979 446.943 292.674 442.015 293.477 440.941C293.968 440.29 294.206 438.031 294.567 438.758C295.861 441.344 294.651 442.837 292.932 440.122Z" stroke="#020207" stroke-width="3" stroke-miterlimit="10" stroke-linecap="round" stroke-linejoin="round"/>
<path d="M327.311 545.715C326.622 545.369 325.096 544.586 325.676 544.075C331.424 539.046 337.652 534.581 343.683 529.889C352.929 522.699 363.216 516.49 374.241 512.427C378.492 510.861 382.605 509.19 386.792 507.516C387.862 507.089 390.429 505.333 390.067 506.424C388.09 512.348 368.493 524.602 363.33 528.799C362.586 529.398 352.869 537.619 355.689 534.799" stroke="#020207" stroke-width="3" stroke-miterlimit="10" stroke-linecap="round" stroke-linejoin="round"/>
<path d="M262.919 543.53C262.676 543.045 262.756 544.65 262.919 545.17C265.005 551.751 267.458 558.212 269.47 564.812C271.328 570.932 273.285 578.672 273.285 585.005C273.285 585.55 273.805 586.471 273.285 586.64C270.282 587.641 250.977 566.131 247.637 568.633C240.933 573.662 266.14 587.705 268.375 588.825" stroke="#020207" stroke-width="3" stroke-miterlimit="10" stroke-linecap="round" stroke-linejoin="round"/>
<path d="M302.208 88.9664C302.208 92.1873 304.408 99.1229 307.669 100.426C309.269 101.068 310.166 88.6215 312.034 87.8753C315.864 86.3427 320.493 98.7934 321.855 101.518" stroke="#020207" stroke-width="3" stroke-miterlimit="10" stroke-linecap="round" stroke-linejoin="round"/>
<path d="M330.041 175.187C328.312 176.051 332.92 172.604 334.406 171.367C338.187 168.214 341.596 164.736 345.318 161.544C349.861 157.653 345.759 161.651 348.593 158.816C348.96 158.452 349.916 157.264 349.683 157.724C347.552 161.99 342.974 166.644 339.862 170.276C338.678 171.657 334.862 175.216 336.587 174.641C343.42 172.364 351.68 160.095 356.779 154.996" stroke="#020207" stroke-width="3" stroke-miterlimit="10" stroke-linecap="round" stroke-linejoin="round"/>
<path d="M345.863 85.1465C351.863 103.138 358.964 122.712 358.964 141.899" stroke="#020207" stroke-width="3" stroke-miterlimit="10" stroke-linecap="round" stroke-linejoin="round"/>
<path d="M236.181 100.972C230.329 112.678 229.63 117.716 229.63 130.985" stroke="#020207" stroke-width="3" stroke-miterlimit="10" stroke-linecap="round" stroke-linejoin="round"/>
<path d="M235.636 100.426C232.529 101.98 226.36 128.052 226.36 134.259" stroke="#020207" stroke-width="3" stroke-miterlimit="10" stroke-linecap="round" stroke-linejoin="round"/>
<path d="M328.401 90.058C317.445 90.058 306.876 82.4182 295.117 82.4182C293.73 82.4182 279.073 84.4919 283.656 86.7837" stroke="#020207" stroke-width="3" stroke-miterlimit="10" stroke-linecap="round" stroke-linejoin="round"/>
<path d="M256.373 142.991C251.993 134.236 240.938 132.077 232.361 132.077" stroke="#020207" stroke-width="3" stroke-miterlimit="10" stroke-linecap="round" stroke-linejoin="round"/>
<path d="M286.386 148.993C284.558 148.993 279.291 148.721 280.926 149.539C284.751 151.45 291.728 144.427 296.208 145.174C305.558 146.731 309.844 152.538 318.035 156.633" stroke="#020207" stroke-width="3" stroke-miterlimit="10" stroke-linecap="round" stroke-linejoin="round"/>
<path d="M324.581 214.477C322.103 215.716 322.034 219.442 321.31 222.117C320.136 226.461 319.066 230.833 318.035 235.214C314.869 248.678 312.55 262.082 309.849 275.595" stroke="#020207" stroke-width="3" stroke-miterlimit="10" stroke-linecap="round" stroke-linejoin="round"/>
<path d="M310.939 326.345C309.829 325.789 320.716 334.49 323.49 336.713C324.516 337.532 327.692 339.823 326.766 338.896C319.888 332.015 307.426 319.558 322.945 335.076" stroke="#020207" stroke-width="3" stroke-miterlimit="10" stroke-linecap="round" stroke-linejoin="round"/>
<path d="M322.128 329.346C318.575 330.336 333.525 326.785 336.587 325.253C336.953 325.071 337.682 325.114 337.682 324.708C337.682 323.662 327.271 328.076 326.221 328.527C319.625 331.354 325.601 328.377 322.128 329.346Z" stroke="#020207" stroke-width="3" stroke-miterlimit="10" stroke-linecap="round" stroke-linejoin="round"/>
<path d="M167.969 290.329C167.969 300.763 171.205 309.801 173.424 319.796C174.356 323.987 175.065 328.049 175.065 332.347C175.065 333.257 175.065 335.076 175.065 335.076C175.065 335.076 175.065 328.527 175.065 325.253C175.065 324.162 175.065 320.888 175.065 321.979C175.065 326.89 175.065 331.802 175.065 336.713C175.065 337.804 175.065 339.987 175.065 339.987C175.065 339.987 174.643 336.713 173.424 336.713C171.229 336.713 168.494 343.292 167.424 344.898" stroke="#020207" stroke-width="3" stroke-miterlimit="10" stroke-linecap="round" stroke-linejoin="round"/>
<path d="M404.799 279.96C401.97 278.545 409.749 278.183 414.075 283.235C419.882 290.008 425.536 297.376 425.536 306.7" stroke="#020207" stroke-width="3" stroke-miterlimit="10" stroke-linecap="round" stroke-linejoin="round"/>
<path d="M119.949 479.685C114.895 477.158 110.886 489.399 109.578 493.328C109.469 493.658 107.244 501.589 108.488 500.968C109.112 500.656 114.092 484.997 116.673 482.414C120.474 478.611 142.866 468.377 142.866 480.777C142.866 483.216 131.643 477.97 129.77 478.594C124.988 480.187 113.562 493.814 112.853 498.785C112.774 499.354 112.883 500.165 113.398 500.422C117.402 502.424 133.045 481.105 133.045 490.054" stroke="#020207" stroke-width="3" stroke-miterlimit="10" stroke-linecap="round" stroke-linejoin="round"/>
<path d="M156.508 478.048C178.88 478.048 199.419 481.273 221.99 478.048" stroke="#020207" stroke-width="3" stroke-miterlimit="10" stroke-linecap="round" stroke-linejoin="round"/>
<path d="M107.943 522.793C132.674 522.793 156.414 524.998 181.065 520.068" stroke="#020207" stroke-width="3" stroke-miterlimit="10" stroke-linecap="round" stroke-linejoin="round"/>
<path d="M247.915 478.867C233.386 476.627 250.516 453.471 262.374 460.586C275.55 468.491 253.717 493.687 242.182 480.231C230.215 466.269 254.153 451.154 264.009 464.951C277.819 484.286 239.551 492.264 236.726 475.32C234.695 463.12 270.272 455.226 266.739 476.411C264.584 489.353 234.893 488.853 237.816 474.228C241.315 456.733 273.449 460.184 267.83 474.228C264.351 482.93 238.228 490.618 236.726 478.594C235.24 466.711 261.948 458.06 268.375 468.771C273.617 477.503 253.524 487.265 247.092 484.051C244.828 482.918 248.95 479.027 247.915 478.867Z" stroke="#020207" stroke-width="3" stroke-miterlimit="10" stroke-linecap="round" stroke-linejoin="round"/>
<path d="M268.375 464.406C272.22 462.484 275.733 460.862 279.836 459.494C281.62 458.901 282.095 458.667 284.201 458.403C284.741 458.335 286.387 458.403 285.837 458.403C282.016 458.403 278.414 460.26 274.925 461.131C273.047 461.601 271.387 462.994 269.47 463.314C268.93 463.404 267.443 462.929 267.83 463.314C268.608 464.092 269.792 464.328 270.832 464.679C272.651 465.29 281.223 460.339 281.471 460.586C281.749 460.862 277.299 463.188 277.106 463.314C275.946 464.089 267.275 469.307 266.194 468.226C265.441 467.475 267.973 467.063 268.92 466.589C272.8 464.65 280.515 461.543 283.656 458.403C283.944 458.116 282.963 458.869 282.566 458.949C280.718 459.318 278.959 459.346 277.106 460.04C275.005 460.829 265.154 467.433 263.464 466.589C263.003 466.359 264.153 465.818 264.554 465.497C266.333 464.078 268.637 462.878 270.56 461.677C273.677 459.729 281.545 455.129 285.291 455.129C286.679 455.129 282.745 456.22 281.471 456.766C276.561 458.871 272.958 462.661 268.375 464.951C267.864 465.208 266.739 465.497 266.739 465.497C266.739 465.497 270.471 463.846 272.195 462.769C276.987 459.774 282.873 457.312 288.567 457.312C289.112 457.312 287.467 457.222 286.932 457.312C285.623 457.53 284.395 458.082 283.111 458.403C277.621 459.775 273.355 461.918 268.375 464.406ZM268.375 464.406C267.503 464.844 265.649 465.497 265.649 465.497" stroke="#020207" stroke-width="3" stroke-miterlimit="10" stroke-linecap="round" stroke-linejoin="round"/>
<path d="M256.373 458.949C257.315 458.949 257.523 453.312 257.463 453.492C257.087 454.617 257.672 455.955 257.191 457.039C256.74 458.05 258.103 454.679 257.463 454.038C256.274 452.852 256.373 458.949 256.373 458.949ZM256.373 458.949C254.907 458.949 256.918 453.117 256.918 454.583C256.918 456.05 256.373 458.949 256.373 458.949Z" stroke="#020207" stroke-width="3" stroke-miterlimit="10" stroke-linecap="round" stroke-linejoin="round"/>
<path d="M262.374 457.858C264.47 457.324 261.299 452.65 260.739 453.492C259.981 454.629 260.189 459.108 260.189 460.586C260.189 461.132 260.189 462.769 260.189 462.223C260.189 455.209 259.44 458.605 262.374 457.858Z" stroke="#020207" stroke-width="3" stroke-miterlimit="10" stroke-linecap="round" stroke-linejoin="round"/>
<path d="M115.549 450.991C110.618 446.058 109.806 434.089 108.884 427.668C106.183 408.74 104.523 389.835 101.387 371.026C92.4974 317.66 105.856 269.83 138.04 226.92C142.187 221.392 144.501 214.482 148.034 208.595C156.894 193.829 171.72 176.464 185.52 166.113C197.338 157.251 210.132 150.817 222.173 142.79" stroke="#020207" stroke-width="3" stroke-miterlimit="10" stroke-linecap="round" stroke-linejoin="round"/>
<path d="M367.11 141.957C365.386 138.507 374.687 145.371 376.272 146.954C381.847 152.531 388.14 158.058 392.931 164.447C407.286 183.588 425.506 201.546 430.417 226.087C432.974 238.879 438.756 251.15 440.411 264.404C444.841 299.855 448.037 341.782 442.909 377.689C441.477 387.734 444.579 398.506 442.909 408.509C440.273 424.326 440.729 440.942 438.746 456.822C436.541 474.451 437.161 492.313 432.914 509.3C431.626 514.449 432.567 523.145 429.584 527.624C426.904 531.648 412.128 529.289 407.926 529.289" stroke="#020207" stroke-width="3" stroke-miterlimit="10" stroke-linecap="round" stroke-linejoin="round"/>
<path d="M113.051 455.156C104.529 452.315 101.268 441.229 99.7221 433.499C95.2823 411.294 100.554 389.089 100.554 366.86C100.554 353.482 93.5282 341.185 96.3922 326.877C99.6775 310.435 110.618 295.717 113.884 279.398C116.342 267.118 108.344 251.617 118.883 241.081C122.149 237.815 128.923 239.389 133.04 236.916C141.464 231.863 145.626 219.585 151.369 211.926C155.333 206.641 161.403 202.421 164.694 196.933C173.529 182.212 175.094 164.876 187.185 152.785C192.655 147.315 204.711 150.544 211.341 146.121" stroke="#020207" stroke-width="3" stroke-miterlimit="10" stroke-linecap="round" stroke-linejoin="round"/>
<path d="M382.937 145.288C380.123 146.696 386.822 152.691 388.764 155.284C392.694 160.519 392.01 167.913 395.429 173.609C400.245 181.633 412.063 178.287 416.255 185.271C418.594 189.174 417.653 195.758 419.585 200.265C421.8 205.428 426.408 208.524 429.585 212.76C433.355 217.791 438.573 230.872 439.579 236.916C440.847 244.53 439.143 252.631 440.411 260.239C442.498 272.754 447.646 284.29 445.411 297.723C443.474 309.332 438.702 321.567 440.411 333.542C441.348 340.098 447.601 345.867 448.741 352.7C450.247 361.74 441.244 368.947 441.244 378.522C441.244 394.224 437.389 411.526 439.579 426.835C440.887 435.997 443.122 447.43 441.244 456.822C439.901 463.543 435.432 469.682 432.914 475.981C427.414 489.728 442.012 521.411 426.25 529.289" stroke="#020207" stroke-width="3" stroke-miterlimit="10" stroke-linecap="round" stroke-linejoin="round"/>
<path d="M415.839 532.208C414.04 531.995 411.702 531.341 410.423 532.624C408.283 534.765 420.1 532.703 415.839 532.208Z" stroke="#020207" stroke-width="3" stroke-miterlimit="10" stroke-linecap="round" stroke-linejoin="round"/>
<defs>
<linearGradient id="paint0_linear_155_4055" x1="128" y1="340.597" x2="417.975" y2="324.284" gradientUnits="userSpaceOnUse">
<stop stop-color="#603DEB"/>
<stop offset="1" stop-color="#27C1D6"/>
</linearGradient>
</defs>
</svg>
