<svg width="1440" height="320" viewBox="0 0 1440 320" fill="none" xmlns="http://www.w3.org/2000/svg">
<g clip-path="url(#clip0_155_4150)">
<path d="M3.86294 301.184C11.2553 294.962 25.2457 280.704 26.3954 274.493C28.7307 248.471 23.7589 222.581 23.5019 196.607C23.4829 194.445 23.7318 167.525 23.9075 167.185C24.1186 166.774 53.7828 161.363 56.251 161.002C60.4572 160.385 64.9997 159.43 69.0577 158.02C70.6294 157.474 75.3241 154.459 75.5306 154.961C81.9286 170.399 73.908 206.611 72.5146 223.351C72.4008 224.715 70.097 249.263 70.1801 249.373C70.5073 249.807 75.006 240.454 75.155 240.165C78.0496 234.526 80.1797 228.658 82.8121 222.868C89.4304 208.308 97.2719 194.743 104.962 180.694C107.676 175.742 107.358 168.096 111.131 163.913C112.057 162.886 137.989 174.553 140.656 175.625C144.979 177.362 154.312 179.661 154.347 180.469C154.519 184.576 147.536 192.692 145.52 196.221C135.882 213.097 124.421 227.657 112.129 242.622C106.943 248.935 100.306 255.154 96.0328 262.034C95.6394 262.667 94.5808 263.438 95.0154 264.014C95.6139 264.808 111.467 255.674 112.654 254.964C129.499 244.893 148.602 241.838 167.038 236.413C168.069 236.109 180.386 230.373 180.966 230.766C181.164 230.894 191.173 256.062 192.17 258.108C192.523 258.827 202.578 271.892 202.267 272.334C200.767 274.467 187.603 274.587 185.314 274.802C168.167 276.423 151.447 281.07 134.339 282.899C126.761 283.707 119.448 285.329 111.926 286.448C108.058 287.025 100.246 286.761 100.246 286.761C100.246 286.761 102.9 287.706 104.283 287.963C109.764 288.967 115.681 290.526 120.85 292.459C133.757 297.292 146.263 303.233 159.329 307.734C161.668 308.537 183.338 316.426 182.923 319.063C181.98 325.069 173.095 334.046 169.297 338.431C164.029 344.526 153.115 357.911 147.6 362.069C146.155 363.158 141.769 357.356 141.047 356.697C137.294 353.281 132.208 350.554 128.007 347.722C111.461 336.571 94.1656 324.739 75.7868 316.723C71.7028 314.941 65.4095 308.776 61.2588 308.264C60.9444 308.224 42.9688 324.35 42.0258 325.188C23.9754 341.223 7.34882 358 -11.9595 372.555C-19.6865 378.38 -27.6902 383.806 -35.4475 389.654C-35.6513 389.807 -37.1252 391.19 -37.7396 390.775C-40.8576 388.673 -41.4302 379.919 -43.2855 376.758C-48.0275 368.693 -52.5976 361.806 -59.3216 355.485C-59.5987 355.227 -60.7259 353.92 -60.3794 353.249C-57.1723 347.004 -44.9845 341.725 -39.8752 337.187C-25.7254 324.616 -10.6322 313.383 3.86294 301.184Z" fill="#BFB1F7"/>
<path d="M506.528 210.546C468.528 245.047 463.578 285.446 470.821 328.91C483.831 406.973 540.411 426.064 610.074 405.166C631.077 398.864 651.525 390.316 668.09 375.326C691.931 353.758 692.355 335.718 696.27 305.701C701.009 269.363 697.412 222.293 669.746 194.632C627.749 152.633 543.028 172.046 506.528 210.546Z" fill="#F2C65E"/>
<path d="M863.525 472.576C865.598 469.721 875.299 461.702 876.087 460.788C883.559 452.126 888.692 440.489 894.39 430.62C914.85 395.183 943.487 349.823 914.614 311.228C902.803 295.442 877.756 301.861 864.484 310.625C835.14 330 820.804 369.408 803.876 398.728C797.32 410.083 790.518 439.371 773.233 422.66C751.526 401.67 774.316 370.166 785.827 350.229C813.127 302.943 858.25 236.518 921.559 247.048C951.922 252.099 965.404 278.963 974.097 304.835C991.268 355.929 975.647 425.44 936.768 463.056C922.338 477.017 901.769 488.936 881.749 492.396C869.123 494.579 856.581 482.14 863.525 472.576Z" fill="#F19077"/>
<path d="M1225.42 319.196C1234.54 314.534 1185.6 333.169 1197.32 350.999C1216.26 379.827 1286.81 400.862 1320.09 408.485C1416.17 430.491 1526.5 404.949 1488.4 315.4C1464.46 259.12 1390.41 219.113 1326.96 189.947C1308.9 181.644 1282.71 165.288 1263.25 166.801C1243.16 168.363 1250.54 199.053 1259.76 210.176C1264.85 216.316 1273.62 223.584 1281.41 227.902C1283.36 228.984 1287.4 230.934 1287.4 230.934C1287.4 230.934 1269.62 220.746 1260 217.379C1243.33 211.545 1216.51 212.761 1209.08 223.592C1199.61 237.417 1207.04 254.293 1225.78 268.784C1233.02 274.383 1241.02 279.593 1249.28 283.997C1250.6 284.703 1253.21 286.174 1253.21 286.174C1253.21 286.174 1235.67 276.652 1226.3 273.37C1214.26 269.158 1201.84 274.669 1195.96 280.467C1187.13 289.189 1216.11 323.95 1225.42 319.196Z" fill="#D8F177"/>
<path d="M464.179 77.1442C464.179 92.6514 474.739 105.711 463.862 120.214C460.155 125.157 454.431 126.565 448.028 124.964C441.221 123.263 435.86 117.425 429.026 115.147" stroke="#1E1D18" stroke-width="3" stroke-miterlimit="10" stroke-linecap="round" stroke-linejoin="round"/>
<path d="M452.462 81.2612C450.758 82.9648 453.416 80.2444 453.728 79.9943C456.111 78.0879 459.394 76.335 462.279 77.7774" stroke="#1E1D18" stroke-width="3" stroke-miterlimit="10" stroke-linecap="round" stroke-linejoin="round"/>
<path d="M454.045 86.803C451.857 84.4964 460.705 83.0624 461.329 83.4782C462.827 84.4769 455.287 88.1133 454.045 86.803Z" stroke="#1E1D18" stroke-width="3" stroke-miterlimit="10" stroke-linecap="round" stroke-linejoin="round"/>
<path d="M454.995 85.5366C451.823 89.0258 456.065 82.5281 460.062 82.5281C460.48 82.5281 463.279 81.9778 462.279 83.4782C462.279 83.4782 458.839 82.7845 458.479 82.8445C457.067 83.0799 455.801 84.6495 454.995 85.5366Z" stroke="#1E1D18" stroke-width="3" stroke-miterlimit="10" stroke-linecap="round" stroke-linejoin="round"/>
<path d="M455.945 84.4282V85.0614L456.579 85.6946L457.212 86.3283H457.845H455.945" stroke="#1E1D18" stroke-width="3" stroke-miterlimit="10" stroke-linecap="round" stroke-linejoin="round"/>
<path d="M429.026 87.9115C428.83 88.0095 440.706 81.8193 442.327 85.0614" stroke="#1E1D18" stroke-width="3" stroke-miterlimit="10" stroke-linecap="round" stroke-linejoin="round"/>
<path d="M430.768 93.137C430.445 91.4967 439.9 87.7019 442.011 89.8116C443.781 91.582 431.547 97.0907 430.768 93.137Z" stroke="#1E1D18" stroke-width="3" stroke-miterlimit="10" stroke-linecap="round" stroke-linejoin="round"/>
<path d="M436.31 90.1285C433.474 91.8306 436.191 93.7712 437.577 92.6622C439.035 91.4953 438.982 88.5257 436.31 90.1285Z" stroke="#1E1D18" stroke-width="3" stroke-miterlimit="10" stroke-linecap="round" stroke-linejoin="round"/>
<path d="M449.928 83.7946C449.928 86.923 456.659 98.2026 456.262 98.9957" stroke="#1E1D18" stroke-width="3" stroke-miterlimit="10" stroke-linecap="round" stroke-linejoin="round"/>
<path d="M451.828 101.529C444.012 101.814 450.631 102.877 453.412 102.479C455.608 102.165 457.096 101.337 451.828 101.529Z" stroke="#1E1D18" stroke-width="3" stroke-miterlimit="10" stroke-linecap="round" stroke-linejoin="round"/>
<path d="M447.078 100.896L446.444 101.529L445.494 102.796H443.189" stroke="#1E1D18" stroke-width="3" stroke-miterlimit="10" stroke-linecap="round" stroke-linejoin="round"/>
<path d="M444.228 101.846C441.89 104.184 438.721 111.224 441.694 114.197" stroke="#1E1D18" stroke-width="3" stroke-miterlimit="10" stroke-linecap="round" stroke-linejoin="round"/>
<path d="M446.444 110.713C445.394 111.238 461.624 104.471 461.962 104.696C462.938 105.346 459.153 108.772 458.795 109.13C455.934 111.99 451.846 111.663 448.028 111.663C447.723 111.663 445.811 111.875 445.811 111.346C445.811 111.164 451.322 111.419 451.828 111.346C453.006 111.178 461.264 107.733 460.379 105.963C460.206 105.618 459.155 106.254 459.112 106.279C457.543 107.221 453.069 112.807 450.878 111.346C448.877 110.013 454.572 109.025 455.628 108.496" stroke="#1E1D18" stroke-width="3" stroke-miterlimit="10" stroke-linecap="round" stroke-linejoin="round"/>
<path d="M459.429 100.263L460.062 100.896L461.962 102.48" stroke="#1E1D18" stroke-width="3" stroke-miterlimit="10" stroke-linecap="round" stroke-linejoin="round"/>
<path d="M446.128 62.8932C457.979 62.8932 463.506 75.4411 466.713 85.0614" stroke="#1E1D18" stroke-width="3" stroke-miterlimit="10" stroke-linecap="round" stroke-linejoin="round"/>
<path d="M442.011 63.2096C437.989 63.2096 435.099 66.8986 433.46 70.1772" stroke="#1E1D18" stroke-width="3" stroke-miterlimit="10" stroke-linecap="round" stroke-linejoin="round"/>
<path d="M436.627 66.6934C432.736 66.6934 431.41 78.1445 430.61 80.9444C426.131 96.6208 428.71 117.407 428.71 133.515" stroke="#1E1D18" stroke-width="3" stroke-miterlimit="10" stroke-linecap="round" stroke-linejoin="round"/>
<path d="M429.66 52.1254C429.66 55.4971 435.07 57.5848 437.26 59.4094C437.395 59.522 441.201 63.2095 440.744 63.2095C440.059 63.2095 439.445 61.037 438.844 60.6763C436.312 59.1574 433.297 57.8218 430.927 55.9261C429.623 54.8834 429.745 51.8091 428.076 51.8091C426.931 51.8091 425.565 51.8125 423.643 51.4922C419.924 50.8727 417.504 55.2412 416.676 58.1425C416.456 58.9117 415.359 61.0419 416.676 59.7262" stroke="#1E1D18" stroke-width="3" stroke-miterlimit="10" stroke-linecap="round" stroke-linejoin="round"/>
<path d="M417.309 56.2423C414.387 57.7032 412.106 66.3306 410.658 69.227C400.79 88.9618 406.213 118.244 409.708 139.215" stroke="#1E1D18" stroke-width="3" stroke-miterlimit="10" stroke-linecap="round" stroke-linejoin="round"/>
<path d="M423.009 59.4094C417.812 59.4094 417.184 72.8913 416.359 76.1943C411.795 94.4478 410.658 114.434 410.658 133.198" stroke="#1E1D18" stroke-width="3" stroke-miterlimit="10" stroke-linecap="round" stroke-linejoin="round"/>
<path d="M426.81 72.3934C422.486 74.5558 422.189 84.4754 421.426 88.5451C419.613 98.2102 414.955 130.211 422.376 137.632" stroke="#1E1D18" stroke-width="3" stroke-miterlimit="10" stroke-linecap="round" stroke-linejoin="round"/>
<path d="M432.193 51.4923C435.92 53.3553 441 50.7592 444.861 53.0755C448.691 55.3739 453.514 57.2696 457.212 60.0431C466.183 66.7709 471.146 85.2652 471.146 95.8292" stroke="#1E1D18" stroke-width="3" stroke-miterlimit="10" stroke-linecap="round" stroke-linejoin="round"/>
<path d="M470.513 93.2954C469.007 93.2954 470.105 100.391 470.196 101.846C470.632 108.817 470.795 115.975 472.73 122.748C473.474 125.352 475.58 128.634 475.58 131.298" stroke="#1E1D18" stroke-width="3" stroke-miterlimit="10" stroke-linecap="round" stroke-linejoin="round"/>
<path d="M468.613 119.264C467.3 121.889 471.999 124.08 473.996 126.231" stroke="#1E1D18" stroke-width="3" stroke-miterlimit="10" stroke-linecap="round" stroke-linejoin="round"/>
<path d="M466.396 120.531C468.9 120.531 471.29 125.425 473.046 127.181C480.041 134.175 483.18 135.385 483.18 145.866" stroke="#1E1D18" stroke-width="3" stroke-miterlimit="10" stroke-linecap="round" stroke-linejoin="round"/>
<path d="M464.812 121.481C466.114 120.83 467.887 128.985 468.296 130.348C471.278 140.289 472.26 150.841 473.046 161.067C475.24 189.588 475.524 218.41 478.113 246.892C479.504 262.183 476.053 280.136 483.18 294.394" stroke="#1E1D18" stroke-width="3" stroke-miterlimit="10" stroke-linecap="round" stroke-linejoin="round"/>
<path d="M477.163 144.916C475.41 144.916 478.811 145.638 479.38 145.866C481.035 146.528 483.042 147.739 484.764 148.083C486.549 148.44 488.468 144.629 488.881 145.866C493.621 160.088 495.739 175.144 494.581 190.202C492.417 218.342 485.714 245.6 485.714 274.126C485.714 283.085 484.185 296.402 488.248 304.528" stroke="#1E1D18" stroke-width="3" stroke-miterlimit="10" stroke-linecap="round" stroke-linejoin="round"/>
<path d="M430.927 128.448C430.927 144.667 441.895 160.374 444.544 176.271C445.885 184.313 448.708 192.527 449.611 200.653C452.781 229.188 453.16 260.307 449.611 288.696C448.759 295.51 449.71 302.549 448.028 309.281" stroke="#1E1D18" stroke-width="3" stroke-miterlimit="10" stroke-linecap="round" stroke-linejoin="round"/>
<path d="M424.91 131.932C421.955 131.932 422.155 143.929 421.743 146.816C419.291 163.977 425.719 173.209 428.393 189.251C429.136 193.711 431.877 197.884 431.877 202.554" stroke="#1E1D18" stroke-width="3" stroke-miterlimit="10" stroke-linecap="round" stroke-linejoin="round"/>
<path d="M438.211 231.055C437.247 232.98 438.955 235.3 439.477 237.392C440.371 240.965 441.17 244.567 442.011 248.159C445.302 262.222 445.851 276.543 448.661 290.592" stroke="#1E1D18" stroke-width="3" stroke-miterlimit="10" stroke-linecap="round" stroke-linejoin="round"/>
<path d="M423.643 134.465C425.485 133.544 424.091 134.296 427.443 131.615" stroke="#1E1D18" stroke-width="3" stroke-miterlimit="10" stroke-linecap="round" stroke-linejoin="round"/>
<path d="M431.56 130.031C427.322 132.15 423.422 135.691 418.892 137.632C415.506 139.083 411.068 140.426 407.808 142.382C404.419 144.416 400.652 144.738 397.041 146.183C396.602 146.358 395.774 146.344 395.774 146.816C395.774 147.084 399.826 152.702 400.208 154.1C401.983 160.612 403.637 168.076 404.958 174.686C407.97 189.744 408.758 206.385 408.758 221.871" stroke="#1E1D18" stroke-width="3" stroke-miterlimit="10" stroke-linecap="round" stroke-linejoin="round"/>
<path d="M395.774 145.866C392.813 145.866 391.34 152.284 391.34 154.733C391.34 156.169 391.591 159.866 392.607 158.85C392.851 158.606 392.499 155.576 392.29 155.367C391.856 154.932 389.878 160.661 389.757 161.067C387.855 167.404 387.003 173.819 386.273 180.384C385.25 189.592 382.577 200.224 383.74 209.519C384.69 217.123 387.314 224.362 389.757 231.688" stroke="#1E1D18" stroke-width="3" stroke-miterlimit="10" stroke-linecap="round" stroke-linejoin="round"/>
<path d="M394.824 164.552C392.958 165.483 396.502 172.283 397.041 174.053C399.128 180.911 401.474 187.599 401.474 193.37" stroke="#1E1D18" stroke-width="3" stroke-miterlimit="10" stroke-linecap="round" stroke-linejoin="round"/>
<path d="M480.647 130.348C481.776 129.784 501.402 138.65 504.399 139.849C505.387 140.245 510.732 141.506 510.732 142.382C510.732 151.181 508.818 160.53 507.566 169.3C507.302 171.142 505.032 185.873 505.032 180.068" stroke="#1E1D18" stroke-width="3" stroke-miterlimit="10" stroke-linecap="round" stroke-linejoin="round"/>
<path d="M508.516 164.869C508.516 178.596 504.375 192.995 503.132 206.673C502.853 209.739 500.396 217.553 502.815 219.97" stroke="#1E1D18" stroke-width="3" stroke-miterlimit="10" stroke-linecap="round" stroke-linejoin="round"/>
<path d="M511.683 142.699C511.683 147.429 513.954 152.007 514.533 156.633C516.773 174.559 523.083 190.904 523.083 209.202" stroke="#1E1D18" stroke-width="3" stroke-miterlimit="10" stroke-linecap="round" stroke-linejoin="round"/>
<path d="M521.183 188.617C517.526 195.934 515.243 204.221 512.633 212.054C512.536 212.346 510.53 218.444 509.782 218.069C509.09 217.723 511.351 213.984 511.366 213.955" stroke="#1E1D18" stroke-width="3" stroke-miterlimit="10" stroke-linecap="round" stroke-linejoin="round"/>
<path d="M500.915 157.267C499.388 166.434 499.084 179.146 500.915 188.301" stroke="#1E1D18" stroke-width="3" stroke-miterlimit="10" stroke-linecap="round" stroke-linejoin="round"/>
<path d="M502.499 224.406C500.874 225.22 505.463 221.048 505.982 220.604C509.091 217.943 511.689 214.204 515.483 212.688C517.651 211.82 533.561 209.115 535.118 210.153C539.23 212.897 530.743 215.539 529.417 215.539" stroke="#1E1D18" stroke-width="3" stroke-miterlimit="10" stroke-linecap="round" stroke-linejoin="round"/>
<path d="M528.467 215.539C531.404 218.474 530.092 224.64 528.467 227.891" stroke="#1E1D18" stroke-width="3" stroke-miterlimit="10" stroke-linecap="round" stroke-linejoin="round"/>
<path d="M529.417 216.49C528.21 214.072 525.983 215.924 525.617 217.752C525.505 218.313 525.944 224.406 525.3 224.406C524.966 224.406 525.089 223.772 524.983 223.456C524.164 220.999 523.233 212.454 518.333 214.906C517.559 215.291 517.804 221.023 518.016 221.871C518.024 221.905 518.937 223.456 518.333 223.456C516.523 223.456 516.806 213.356 512.633 216.49C511.199 217.562 511.581 238.289 512.949 238.971C518.916 241.954 517.787 229.763 517.383 226.941C517.26 226.078 516.75 224.406 516.75 224.406C516.75 224.406 517.262 226.288 517.383 227.258C517.76 230.275 516.803 237.377 521.5 236.441C527.167 235.305 522.767 225.259 522.767 221.238" stroke="#1E1D18" stroke-width="3" stroke-miterlimit="10" stroke-linecap="round" stroke-linejoin="round"/>
<path d="M510.732 223.139C505.607 225.703 509.047 233.263 507.566 237.709" stroke="#1E1D18" stroke-width="3" stroke-miterlimit="10" stroke-linecap="round" stroke-linejoin="round"/>
<path d="M502.182 223.139C496.324 226.068 500.446 244.591 512.316 238.654" stroke="#1E1D18" stroke-width="3" stroke-miterlimit="10" stroke-linecap="round" stroke-linejoin="round"/>
<path d="M524.667 231.688C521.601 237.821 522.539 245.761 514.216 247.842C510.375 248.803 507.826 243.221 505.032 241.823C503.88 241.247 501.865 238.318 501.865 239.605C501.865 240.731 503.337 241.301 504.082 242.139C508.881 247.54 515.354 247.969 520.55 242.773" stroke="#1E1D18" stroke-width="3" stroke-miterlimit="10" stroke-linecap="round" stroke-linejoin="round"/>
<path d="M526.884 227.891C531.338 236.797 526.184 249.13 516.75 252.274C515.499 252.693 514.167 253.2 512.949 252.59" stroke="#1E1D18" stroke-width="3" stroke-miterlimit="10" stroke-linecap="round" stroke-linejoin="round"/>
<path d="M503.449 235.49C496.093 246.521 500.087 249.641 509.149 254.174C510.917 255.057 513.336 256.612 515.483 256.075C521.319 254.613 522.895 248.408 525.934 244.357" stroke="#1E1D18" stroke-width="3" stroke-miterlimit="10" stroke-linecap="round" stroke-linejoin="round"/>
<path d="M504.082 248.159C503.314 246.619 505.112 251.567 505.349 252.274C506.172 254.745 506.999 257.128 507.882 259.556C509.642 264.396 518.939 285.376 511.999 287.112C507.203 288.311 509.401 272.766 504.715 271.591C501.274 270.733 507.566 285.961 507.566 286.478C507.566 287.477 507.063 284.523 506.615 283.626C506.088 282.568 505.52 281.535 505.032 280.458C504.174 278.571 503.303 276.441 502.182 274.76C501.84 274.248 500.681 273.453 501.232 273.175C502.019 272.781 504.138 272.142 505.349 271.591C505.436 271.552 508.694 270.139 509.149 270.007C510.306 269.68 513.484 268.208 512.633 269.056C510.057 271.635 504.885 274.014 501.865 276.027C501.587 276.212 501.214 276.49 500.915 276.344C499.658 275.715 510.778 268.608 511.999 267.794C512.562 267.419 510.667 268.432 510.416 269.056C509.76 270.699 510.533 269.359 509.466 270.957" stroke="#1E1D18" stroke-width="3" stroke-miterlimit="10" stroke-linecap="round" stroke-linejoin="round"/>
<path d="M486.664 299.458C485.086 300.248 487.825 309.992 487.931 310.543C489.473 318.566 489.898 312.688 492.054 320.594C492.512 322.271 503.642 322.266 505.621 323.256C505.642 323.266 505.425 338.342 506.201 337.86C509.104 336.046 522.085 330.592 523.717 327.331" stroke="#1E1D18" stroke-width="3" stroke-miterlimit="10" stroke-linecap="round" stroke-linejoin="round"/>
<path d="M513.899 287.428C512.986 290.168 515.195 299.356 515.483 301.043C517.123 310.65 518.644 320.326 520.233 329.866" stroke="#1E1D18" stroke-width="3" stroke-miterlimit="10" stroke-linecap="round" stroke-linejoin="round"/>
<path d="M453.412 266.526C452.744 266.526 452.179 267.16 451.512 267.16C450.331 267.16 453.507 265.722 454.678 265.576C457.032 265.279 459.591 265.576 461.962 265.576C465.768 265.576 480.831 268.374 483.18 263.675" stroke="#1E1D18" stroke-width="3" stroke-miterlimit="10" stroke-linecap="round" stroke-linejoin="round"/>
<path d="M452.462 271.908C461.776 271.908 474.625 272.122 483.814 269.056" stroke="#1E1D18" stroke-width="3" stroke-miterlimit="10" stroke-linecap="round" stroke-linejoin="round"/>
<path d="M461.329 265.259C460.021 266.132 458.268 272.015 459.429 273.175C460.069 273.814 463.221 268.042 463.546 267.477C463.944 266.775 464.136 264.538 464.496 265.259C465.564 267.394 462.316 271.294 465.446 272.858" stroke="#1E1D18" stroke-width="3" stroke-miterlimit="10" stroke-linecap="round" stroke-linejoin="round"/>
<path d="M431.243 131.932C429.913 130.602 432.839 134.354 433.46 135.098C435.261 137.259 437.344 139.962 439.794 141.432C446.491 145.45 465.743 156.355 471.463 144.916" stroke="#1E1D18" stroke-width="3" stroke-miterlimit="10" stroke-linecap="round" stroke-linejoin="round"/>
<path d="M465.763 127.815C465.174 128.403 464.189 140.175 465.763 141.749C466.506 142.493 469.136 141.749 470.196 141.749" stroke="#1E1D18" stroke-width="3" stroke-miterlimit="10" stroke-linecap="round" stroke-linejoin="round"/>
<path d="M405.591 229.154C404.858 227.686 408.396 224.464 409.392 223.139C410.817 221.238 421.216 207.409 423.326 207.935C425.085 208.379 424.549 211.649 426.176 212.054C427.413 212.361 428.788 211.123 429.66 210.47C430.082 210.153 431.138 209.202 430.61 209.202C428.011 209.202 427.041 217.694 426.493 219.336C426.045 220.682 424.593 224.557 424.593 223.139C424.593 220.175 433.879 205.108 435.36 205.405C436.5 205.629 438.191 202.227 438.844 202.554C439.049 202.656 439.033 207.93 439.161 208.569C440.837 216.958 442.696 221.452 438.527 229.787" stroke="#1E1D18" stroke-width="3" stroke-miterlimit="10" stroke-linecap="round" stroke-linejoin="round"/>
<path d="M434.094 214.589C432.388 215.442 429.707 228.501 423.959 231.372" stroke="#1E1D18" stroke-width="3" stroke-miterlimit="10" stroke-linecap="round" stroke-linejoin="round"/>
<path d="M435.36 218.069C433.463 221.866 432.126 227.321 429.026 230.421" stroke="#1E1D18" stroke-width="3" stroke-miterlimit="10" stroke-linecap="round" stroke-linejoin="round"/>
<path d="M437.577 220.921C435.919 224.24 434.87 227.672 432.827 230.738" stroke="#1E1D18" stroke-width="3" stroke-miterlimit="10" stroke-linecap="round" stroke-linejoin="round"/>
<path d="M432.985 230.582C432.56 230.665 430.112 231.118 429.343 231.372C428.71 231.581 426.971 231.532 427.443 232.005C428.18 232.741 439.335 229.31 432.985 230.582Z" stroke="#1E1D18" stroke-width="3" stroke-miterlimit="10" stroke-linecap="round" stroke-linejoin="round"/>
<path d="M436.31 229.154C427.856 233.385 426.402 244.401 418.259 248.471" stroke="#1E1D18" stroke-width="3" stroke-miterlimit="10" stroke-linecap="round" stroke-linejoin="round"/>
<path d="M415.725 222.666C414.861 222.227 413.877 221.925 413.192 221.238C412.503 220.55 412.881 223.85 413.825 224.089C415.185 224.431 418.188 223.909 415.725 222.666Z" stroke="#1E1D18" stroke-width="3" stroke-miterlimit="10" stroke-linecap="round" stroke-linejoin="round"/>
<path d="M423.009 213.955L422.376 213.638L421.109 216.807L417.842 218.747" stroke="#1E1D18" stroke-width="3" stroke-miterlimit="10" stroke-linecap="round" stroke-linejoin="round"/>
<path d="M407.491 228.52C406.53 226.6 404.512 240.487 405.275 242.773C407.441 249.276 413.502 250.533 419.526 247.526" stroke="#1E1D18" stroke-width="3" stroke-miterlimit="10" stroke-linecap="round" stroke-linejoin="round"/>
<path d="M406.541 226.624C404.237 226.624 401.601 230.207 398.941 230.738C397.606 231.006 396.132 231.265 394.824 230.738C394.196 230.489 393.845 229.168 393.24 229.471C392.474 229.856 393.24 231.996 393.24 232.639" stroke="#1E1D18" stroke-width="3" stroke-miterlimit="10" stroke-linecap="round" stroke-linejoin="round"/>
<path d="M395.457 242.773C396.415 246.604 401.487 257.908 407.491 256.709C411.477 255.91 415.794 251.791 419.209 249.739C419.657 249.471 425.58 247.097 425.543 247.209C425.101 248.53 422.086 250.348 421.109 251.323C420.526 251.908 418.626 253.492 419.209 252.907C420.703 251.416 428.833 241.242 428.71 240.872C428.108 239.068 415.456 254.126 421.426 248.159" stroke="#1E1D18" stroke-width="3" stroke-miterlimit="10" stroke-linecap="round" stroke-linejoin="round"/>
<path d="M391.34 250.056C390.569 253.141 391.914 256.051 393.557 258.606C397.248 264.348 404.525 260.516 408.758 257.977" stroke="#1E1D18" stroke-width="3" stroke-miterlimit="10" stroke-linecap="round" stroke-linejoin="round"/>
<path d="M409.708 254.808C409.547 254.808 403.53 269.066 402.424 271.274C400.782 274.56 398.677 277.557 396.091 280.141C395.717 280.516 395.513 281.784 395.141 281.408C394.571 280.843 395.35 279.298 393.874 280.775C393.455 281.194 392.29 281.988 392.29 282.676C392.29 284.825 401.148 288.067 402.108 288.696C404.094 289.987 406.003 291.435 408.125 292.493" stroke="#1E1D18" stroke-width="3" stroke-miterlimit="10" stroke-linecap="round" stroke-linejoin="round"/>
<path d="M404.958 269.373C409.939 270.372 417.124 276.188 421.426 278.562C422.046 278.903 428.649 280.701 428.393 281.725C428.112 282.851 422.611 283.914 421.743 284.26C418.874 285.405 402.723 299.166 407.808 292.81" stroke="#1E1D18" stroke-width="3" stroke-miterlimit="10" stroke-linecap="round" stroke-linejoin="round"/>
<path d="M399.891 289.013C396.943 289.013 395.453 295.671 394.824 297.562C391.495 307.545 387.133 305.488 387.133 316.017" stroke="#1E1D18" stroke-width="3" stroke-miterlimit="10" stroke-linecap="round" stroke-linejoin="round"/>
<path d="M449.928 290.275C449.928 303.626 450.623 301.74 448.021 314.75C447.526 317.231 449.286 317.533 446.749 320.068" stroke="#1E1D18" stroke-width="3" stroke-miterlimit="10" stroke-linecap="round" stroke-linejoin="round"/>
<path d="M336.849 42.4325C336.849 47.5005 339.962 52.841 340.789 57.7974C342.841 70.1123 336.173 80.9883 333.303 92.4682C331.717 98.8138 332.278 107.519 329.363 113.349" stroke="#1E1D18" stroke-width="3" stroke-miterlimit="10" stroke-linecap="round" stroke-linejoin="round"/>
<path d="M326.211 73.557C326.211 80.9058 326.965 88.3189 328.181 95.6199C328.338 96.5593 328.417 97.0252 327.393 97.1958C322.751 97.9694 320.945 91.1613 316.756 93.2558" stroke="#1E1D18" stroke-width="3" stroke-miterlimit="10" stroke-linecap="round" stroke-linejoin="round"/>
<path d="M320.301 73.1626C317.879 71.9518 307.57 71.0578 308.088 70.799" stroke="#1E1D18" stroke-width="3" stroke-miterlimit="10" stroke-linecap="round" stroke-linejoin="round"/>
<path d="M310.846 76.3144C303.111 72.447 316.756 76.0034 316.756 77.4964C316.756 80.136 308.876 74.0687 308.876 76.7087C308.876 78.8671 318.331 77.8903 319.513 77.8903" stroke="#1E1D18" stroke-width="3" stroke-miterlimit="10" stroke-linecap="round" stroke-linejoin="round"/>
<path d="M334.485 75.1329C333.194 75.4083 331.855 75.363 330.545 75.5268C329.88 75.6096 331.852 75.2275 332.515 75.1329C333.087 75.051 338.576 74.2599 334.485 75.1329Z" stroke="#1E1D18" stroke-width="3" stroke-miterlimit="10" stroke-linecap="round" stroke-linejoin="round"/>
<path d="M330.545 79.8607H331.333L334.879 80.6484L330.545 79.8607Z" stroke="#1E1D18" stroke-width="3" stroke-miterlimit="10" stroke-linecap="round" stroke-linejoin="round"/>
<path d="M333.697 76.7088C329.303 75.0899 334.171 76.3144 335.272 76.3144C335.535 76.3144 336.061 76.0522 336.061 76.3144C336.061 77.1134 334.446 76.9846 333.697 76.7088Z" stroke="#1E1D18" stroke-width="3" stroke-miterlimit="10" stroke-linecap="round" stroke-linejoin="round"/>
<path d="M312.816 104.287C311.265 103.512 324.635 101.302 324.635 105.469M324.635 105.469C324.635 108.792 316.529 104.669 315.574 104.287C314.621 103.907 312.237 102.642 313.209 102.317C314.87 101.764 321.065 104.435 322.665 105.075C323.287 105.324 324.635 105.469 324.635 105.469ZM324.635 105.469C324.635 105.469 316.334 103.948 317.543 101.53C317.669 101.278 325.216 103.693 325.817 103.893" stroke="#1E1D18" stroke-width="3" stroke-miterlimit="10" stroke-linecap="round" stroke-linejoin="round"/>
<path d="M324.635 36.1287C325.583 36.602 334.879 39.3556 334.879 40.4621C334.879 41.9888 331.05 39.6188 330.939 39.6744C329.23 40.5289 340.451 48.3705 333.303 44.796" stroke="#1E1D18" stroke-width="3" stroke-miterlimit="10" stroke-linecap="round" stroke-linejoin="round"/>
<path d="M323.453 36.5226C322.291 34.1985 323.43 41.6442 321.877 41.6442C319.272 41.6442 308.684 33.2333 307.694 34.5528C304.119 39.3191 301.281 47.0949 299.42 52.6757C298.579 55.1987 296.663 60.1615 296.663 60.1615C296.663 60.1615 293.557 53.0466 291.147 54.2516C288.554 55.5482 291.735 68.6289 290.359 67.2533C289.363 66.257 288.473 65.1286 287.207 64.4954" stroke="#1E1D18" stroke-width="3" stroke-miterlimit="10" stroke-linecap="round" stroke-linejoin="round"/>
<path d="M286.419 66.4652C284.05 67.6497 281.519 56.862 276.57 60.1615C276.351 60.3073 276.633 60.6948 276.57 60.9497C275.905 63.6088 275.876 93.5547 284.055 85.3763" stroke="#1E1D18" stroke-width="3" stroke-miterlimit="10" stroke-linecap="round" stroke-linejoin="round"/>
<path d="M284.843 69.617C282.643 68.5168 283.267 77.0248 283.267 78.6787" stroke="#1E1D18" stroke-width="3" stroke-miterlimit="10" stroke-linecap="round" stroke-linejoin="round"/>
<path d="M288.783 71.981C287.355 71.981 287.626 79.9853 287.601 80.2544C286.96 86.9822 284.928 92.8316 283.661 99.1655C283.346 100.739 284.843 101.137 284.843 102.711" stroke="#1E1D18" stroke-width="3" stroke-miterlimit="10" stroke-linecap="round" stroke-linejoin="round"/>
<path d="M283.661 102.318C280.87 103.713 280.696 112.292 282.873 113.743" stroke="#1E1D18" stroke-width="3" stroke-miterlimit="10" stroke-linecap="round" stroke-linejoin="round"/>
<path d="M291.147 77.4966C289.458 80.8746 291.807 87.617 293.116 90.8921C295.088 95.8193 297.106 102.367 300.996 106.258C302.437 107.698 304.508 107.011 305.724 108.227C306.689 109.192 305.831 110.497 307.3 111.379C310.298 113.178 313.632 111.936 316.756 112.561C319.772 113.164 316.361 118.779 316.361 115.319" stroke="#1E1D18" stroke-width="3" stroke-miterlimit="10" stroke-linecap="round" stroke-linejoin="round"/>
<path d="M282.085 109.409C281.244 111.932 283.441 114.635 284.843 116.895C295.218 133.61 293.125 116.505 304.148 121.229C307.482 122.658 311.804 123.433 314.786 125.563C316.928 127.093 317.15 132.162 317.15 130.29" stroke="#1E1D18" stroke-width="3" stroke-miterlimit="10" stroke-linecap="round" stroke-linejoin="round"/>
<path d="M317.937 130.093C316.763 123.668 317.643 137.912 317.937 134.23C318.047 132.856 318.185 131.45 317.937 130.093Z" stroke="#1E1D18" stroke-width="3" stroke-miterlimit="10" stroke-linecap="round" stroke-linejoin="round"/>
<path d="M300.602 122.804C296.202 120.604 309.404 131.145 311.634 132.26C315.197 134.042 311.499 128.979 314.392 127.532C316.146 126.655 319.366 133.836 322.271 133.836" stroke="#1E1D18" stroke-width="3" stroke-miterlimit="10" stroke-linecap="round" stroke-linejoin="round"/>
<path d="M326.999 125.563C325.626 126.249 325.075 130.07 325.423 129.896C326.016 129.6 330.777 115.921 330.545 114.531C330.496 114.242 330.436 113.814 330.151 113.743C328.254 113.269 325.638 119.17 324.241 118.471C321.763 117.232 323.453 110.197 323.453 110.197C323.453 110.197 320.391 115.713 322.271 115.713C323.107 115.713 323.202 113.852 323.453 113.349" stroke="#1E1D18" stroke-width="3" stroke-miterlimit="10" stroke-linecap="round" stroke-linejoin="round"/>
<path d="M336.848 44.4023C336.02 44.8166 333.842 37.3981 331.727 36.1288C327.234 33.4327 322.621 32.254 318.332 29.0369C306.568 20.215 288.298 26.8536 282.085 39.2806C279.328 44.7937 279.327 53.9066 279.327 60.1615" stroke="#1E1D18" stroke-width="3" stroke-miterlimit="10" stroke-linecap="round" stroke-linejoin="round"/>
<path d="M304.936 29.825C312.501 29.825 321.329 30.1028 327.787 34.9466C329.385 36.1452 330.003 38.4182 331.727 39.2805" stroke="#1E1D18" stroke-width="3" stroke-miterlimit="10" stroke-linecap="round" stroke-linejoin="round"/>
<path d="M315.968 26.6731C324.137 30.7579 328.644 34.6215 334.879 40.8564" stroke="#1E1D18" stroke-width="3" stroke-miterlimit="10" stroke-linecap="round" stroke-linejoin="round"/>
<path d="M278.933 90.104C276.928 89.1018 275.468 98.2166 274.205 100.742" stroke="#1E1D18" stroke-width="3" stroke-miterlimit="10" stroke-linecap="round" stroke-linejoin="round"/>
<path d="M275.388 97.1957C271.44 95.222 280.301 108.613 283.267 110.591" stroke="#1E1D18" stroke-width="3" stroke-miterlimit="10" stroke-linecap="round" stroke-linejoin="round"/>
<path d="M271.053 103.106C271.053 102.585 269.918 97.9378 269.871 97.9836C268.299 99.5566 273.431 110.327 273.811 111.773C274.23 113.364 278.966 135.305 281.691 134.624C284.08 134.027 288.639 129.253 290.359 127.532" stroke="#1E1D18" stroke-width="3" stroke-miterlimit="10" stroke-linecap="round" stroke-linejoin="round"/>
<path d="M290.359 126.745C290.359 132.406 296.023 139.179 301.784 140.14C304.794 140.641 310.452 132.051 310.452 135.412" stroke="#1E1D18" stroke-width="3" stroke-miterlimit="10" stroke-linecap="round" stroke-linejoin="round"/>
<path d="M307.694 140.534C313.752 149.62 314.15 159.297 317.15 169.295C326.127 199.219 324.611 214.048 324.611 245.186" stroke="#1E1D18" stroke-width="3" stroke-miterlimit="10" stroke-linecap="round" stroke-linejoin="round"/>
<path d="M332.909 120.047C329.507 120.047 337.547 121.629 340 123.593C345.732 128.178 352.408 129.796 358.912 133.048C361.032 134.108 365.723 135.079 366.397 137.776C367.998 144.179 366.397 152.89 366.397 159.445C366.397 169.963 366.688 180.652 365.216 190.962C364.268 197.596 360.592 202.261 359.306 208.691C357.489 217.777 357.336 229.217 357.336 238.24" stroke="#1E1D18" stroke-width="3" stroke-miterlimit="10" stroke-linecap="round" stroke-linejoin="round"/>
<path d="M321.877 129.108C320.387 129.853 322.091 144.567 322.271 147.625C323.125 162.133 325.706 175.953 326.999 190.177C329.027 212.483 326.191 235.715 328.969 257.942C334.225 299.99 335.24 342.154 348.668 382.437" stroke="#1E1D18" stroke-width="3" stroke-miterlimit="10" stroke-linecap="round" stroke-linejoin="round"/>
<path d="M358.912 287.487C358.912 295.037 359.7 302.344 359.7 309.948C359.7 311.221 358.942 321.311 359.7 319.795" stroke="#1E1D18" stroke-width="3" stroke-miterlimit="10" stroke-linecap="round" stroke-linejoin="round"/>
<path d="M359.7 314.672C355.784 314.672 351.752 318.289 349.062 320.979C348.537 321.501 346.961 322.027 347.486 322.554C347.683 322.749 361.718 316.69 362.458 317.431C363.503 318.479 359.996 324.08 358.517 323.344C358.282 323.222 358.517 322.817 358.517 322.554C358.517 319.59 359.739 320.146 360.093 323.344C361.1 332.405 359.7 341.847 359.7 350.919C359.7 353.76 358.576 353.863 356.942 356.042C356.413 356.748 354.972 358.011 355.76 358.406C357.919 359.488 358.306 354.355 358.912 359.195C359.272 362.081 358.755 365.011 358.517 367.862C358.154 372.23 358.742 376.929 358.124 381.257C358.065 381.667 358.145 382.437 357.73 382.437C356.942 382.437 357.73 380.863 357.73 380.073" stroke="#1E1D18" stroke-width="3" stroke-miterlimit="10" stroke-linecap="round" stroke-linejoin="round"/>
<path d="M368.761 141.322C368.761 150.252 370.816 159.338 371.913 168.111C373.061 177.294 371.698 186.736 373.489 195.69C374.464 200.57 379.284 204.128 381.369 208.301" stroke="#1E1D18" stroke-width="3" stroke-miterlimit="10" stroke-linecap="round" stroke-linejoin="round"/>
<path d="M376.838 207.316C374.483 201.808 372.391 206.01 368.367 208.691C368.113 208.861 365.351 210.406 365.609 210.665C365.903 210.957 366.428 210.47 366.791 210.27C369.232 208.915 374.241 202.783 377.035 202.783C378.455 202.783 375.485 205.166 374.671 206.326C374.049 207.219 367.161 217.314 367.185 217.362C367.305 217.601 373.326 211.898 373.883 211.45C378.812 207.506 378.253 210.626 376.838 207.316Z" stroke="#1E1D18" stroke-width="3" stroke-miterlimit="10" stroke-linecap="round" stroke-linejoin="round"/>
<path d="M371.125 232.727C372.316 230.343 373.204 218.342 376.641 216.968C381.756 214.92 379.216 235.695 382.156 238.635C384.771 241.247 395.932 240.268 395.552 241.789C392.2 255.193 378.39 241.452 373.883 237.845C372.88 237.046 367.751 234.399 367.185 236.665C365.445 243.626 379.794 258.532 385.703 255.578C387.283 254.784 387.665 248.091 386.096 248.091" stroke="#1E1D18" stroke-width="3" stroke-miterlimit="10" stroke-linecap="round" stroke-linejoin="round"/>
<path d="M367.579 244.547C367.579 241.72 350.957 234.594 360.488 247.301C364.047 252.049 368.27 253.56 373.095 255.968C375.931 257.387 376.171 259.439 377.823 261.091C381.149 264.416 386.096 258.513 386.096 255.578" stroke="#1E1D18" stroke-width="3" stroke-miterlimit="10" stroke-linecap="round" stroke-linejoin="round"/>
<path d="M362.851 250.06C359.258 250.06 357.362 252.478 359.306 256.363C361.193 260.141 371.111 270.002 376.641 267.789C379.446 266.668 382.368 263.246 384.521 261.091" stroke="#1E1D18" stroke-width="3" stroke-miterlimit="10" stroke-linecap="round" stroke-linejoin="round"/>
<path d="M358.124 252.425C357.424 251.026 357.73 258.615 357.73 259.912C357.73 264.279 358.124 268.535 358.124 272.912C358.124 286.434 357.73 299.97 357.73 313.492" stroke="#1E1D18" stroke-width="3" stroke-miterlimit="10" stroke-linecap="round" stroke-linejoin="round"/>
<path d="M271.054 97.5897C269.77 98.0177 252.669 111.505 252.142 114.137C251.725 116.226 253.618 117.582 254.9 118.865C256.24 120.205 258.148 120.835 260.022 120.835" stroke="#1E1D18" stroke-width="3" stroke-miterlimit="10" stroke-linecap="round" stroke-linejoin="round"/>
<path d="M258.84 116.895C256.904 116.895 255.218 119.114 254.112 120.441C246.124 130.026 252.865 138.761 256.476 149.595C260.624 162.04 269.038 172.605 274.205 184.659C282.676 204.425 288.273 215.373 295.096 235.846" stroke="#1E1D18" stroke-width="3" stroke-miterlimit="10" stroke-linecap="round" stroke-linejoin="round"/>
<path d="M269.872 98.3779C269.872 106.863 273.192 115.932 274.599 124.38C276.45 135.483 277.105 146.757 279.328 157.869C282.117 171.815 286.789 185.322 289.571 199.239C291.353 208.145 292.912 217.016 294.299 226.029C295.045 230.879 293.167 232.356 295.382 236.787" stroke="#1E1D18" stroke-width="3" stroke-miterlimit="10" stroke-linecap="round" stroke-linejoin="round"/>
<path d="M256.257 111.285C253.973 110.143 229.595 118.291 224.863 119.238C222.218 119.767 219.092 119.888 216.491 119.238C215.933 119.098 214.816 118.82 214.816 118.82C214.816 118.82 218.068 122.763 219.002 125.098C220.652 129.222 224.025 135.769 224.025 140.167C224.025 141.016 223.813 138.479 223.607 137.656C223.514 137.287 222.621 130.959 221.933 130.959C221.095 130.959 221.703 132.665 221.933 133.47C223.735 139.78 226.162 145.842 227.374 152.306C228.672 159.227 229.31 185.269 226.537 190.816" stroke="#1E1D18" stroke-width="3" stroke-miterlimit="10" stroke-linecap="round" stroke-linejoin="round"/>
<path d="M214.398 119.238C208.848 122.013 200.309 150.871 203.933 156.911C206.52 161.222 207.282 142.783 207.282 153.563C207.282 156.319 213.169 184.342 214.398 184.957C215.034 185.274 214.817 183.577 214.817 182.866" stroke="#1E1D18" stroke-width="3" stroke-miterlimit="10" stroke-linecap="round" stroke-linejoin="round"/>
<path d="M205.608 152.725C200.941 152.725 198.748 161.085 197.236 164.864C194.16 172.556 196.547 176.958 197.236 184.537C197.894 191.781 195.98 198.776 195.98 205.888" stroke="#1E1D18" stroke-width="3" stroke-miterlimit="10" stroke-linecap="round" stroke-linejoin="round"/>
<path d="M231.142 187.886C227.519 191.508 223.188 216.324 223.188 222.632" stroke="#1E1D18" stroke-width="3" stroke-miterlimit="10" stroke-linecap="round" stroke-linejoin="round"/>
<path d="M227.793 233.931C228.904 236.153 231.586 237.158 233.653 238.537C238.416 241.71 242.751 245.439 247.466 248.583C248.339 249.163 255.295 252.01 255.001 253.185C254.342 255.822 250.369 256.563 248.723 258.21C244.12 262.812 239.94 266.97 238.258 273.697C236.809 279.493 237.839 286.556 237.839 292.532C237.839 293.092 237.839 291.415 237.839 290.86" stroke="#1E1D18" stroke-width="3" stroke-miterlimit="10" stroke-linecap="round" stroke-linejoin="round"/>
<path d="M217.747 275.374C215.01 276.739 221.545 280.277 224.025 282.071C228.81 285.527 235.045 286.785 240.769 287.93" stroke="#1E1D18" stroke-width="3" stroke-miterlimit="10" stroke-linecap="round" stroke-linejoin="round"/>
<path d="M197.654 209.237C193.259 213.628 193.163 224.567 192.213 230.582C191.872 232.737 187.625 248.618 188.027 249.422C189.501 252.366 192.811 254.326 194.724 256.953C199.828 263.972 206.025 277.046 216.491 277.046" stroke="#1E1D18" stroke-width="3" stroke-miterlimit="10" stroke-linecap="round" stroke-linejoin="round"/>
<path d="M255.419 252.766C258.696 252.766 267.766 257.163 270.489 259.882C271.205 260.599 274.55 266.161 272.582 266.161C269.341 266.161 263.315 262.992 260.443 261.559C259.993 261.335 259.187 260.58 259.606 260.302C260.149 259.941 261.251 260.385 261.698 260.721C266.866 264.596 271.252 267.506 277.605 269.095C279.089 269.466 294.815 271.879 293.93 274.535C292.596 278.537 283.184 274.852 280.953 274.535C276.159 273.848 271.417 275.037 266.721 273.697C264.669 273.112 260.443 272.444 260.443 272.444C260.443 272.444 265.73 273.278 268.396 273.278C272.756 273.278 278.437 275.159 282.628 276.207C284.647 276.714 291.448 275.671 290.581 279.142C289.342 284.099 269.613 281.359 265.466 279.975C263.282 279.249 258.768 278.303 258.768 278.303C258.768 278.303 265.03 279.288 267.977 280.394C270.617 281.384 274.01 282.49 276.768 282.49C277.36 282.49 280.951 282.066 281.372 282.49C282.759 283.875 275.385 286.253 274.675 286.253C269.569 286.253 265.758 285.561 260.861 284.582C258.902 284.192 255.001 283.324 255.001 283.324C255.001 283.324 257.247 283.524 258.35 283.743C261.68 284.411 265.068 285.098 268.396 285.839C269.919 286.175 273 285.113 273 286.673C273 286.931 269.194 288.389 268.815 288.769C263.511 294.072 243.699 291.523 243.699 284.162" stroke="#1E1D18" stroke-width="3" stroke-miterlimit="10" stroke-linecap="round" stroke-linejoin="round"/>
<path d="M231.979 186.629C229.773 188.837 230.432 195.72 230.304 198.771C230.058 204.694 231.369 234.062 234.909 239.376" stroke="#1E1D18" stroke-width="3" stroke-miterlimit="10" stroke-linecap="round" stroke-linejoin="round"/>
<path d="M218.703 280C216.498 282.208 217.156 289.091 217.029 292.142C216.782 298.065 217.029 328.5 210.5 341" stroke="#1E1D18" stroke-width="3" stroke-miterlimit="10" stroke-linecap="round" stroke-linejoin="round"/>
<path d="M273 265.327C272.161 265.747 276.746 258.147 277.605 256.534C279.764 252.488 286.548 237.28 292.674 237.28C305.915 237.28 317.34 245.23 329.929 247.326C342.619 249.441 355.71 255.125 367.602 259.883C372.991 262.042 380.617 265.415 386.439 266.58C386.871 266.668 390.566 266.882 390.624 266.999C391 267.75 386.111 272.147 385.601 272.858C383.187 276.241 372.971 291.611 369.276 292.532C364.068 293.838 357.312 288.998 352.114 288.35C340.824 286.936 329.861 283.675 318.627 282.071C310.243 280.872 298.618 281.691 291 277.884" stroke="#1E1D18" stroke-width="3" stroke-miterlimit="10" stroke-linecap="round" stroke-linejoin="round"/>
<path d="M291.837 280.394C288.816 286.439 291.994 296.353 290.581 303.417C288.425 314.199 284.803 325.522 281.791 336.066C281.582 336.797 278.345 345.693 277.186 345.693C275.994 345.693 279.285 341.506 278.442 342.344C273.135 347.653 272.07 356.237 265.884 361.184C260.962 365.123 257.245 358.274 252.489 356.159C243.754 352.279 218.729 349.071 212 342.344C211.204 341.55 221.725 341.93 222.77 342.344C223.756 342.739 224.713 343.207 225.7 343.602C228.309 344.645 229.076 344.869 231.56 345.693" stroke="#1E1D18" stroke-width="3" stroke-miterlimit="10" stroke-linecap="round" stroke-linejoin="round"/>
<path d="M291.837 284.582C299.1 284.582 308.376 284.791 315.278 287.092" stroke="#1E1D18" stroke-width="3" stroke-miterlimit="10" stroke-linecap="round" stroke-linejoin="round"/>
<path d="M290.162 295.047C298.987 295.047 306.637 301.545 316.115 299.649" stroke="#1E1D18" stroke-width="3" stroke-miterlimit="10" stroke-linecap="round" stroke-linejoin="round"/>
<path d="M305.232 286.253C302.91 286.253 303.574 297.977 306.906 297.977C308.432 297.977 308.581 291.571 308.581 290.441C308.581 289.602 309.172 287.336 308.581 287.93C307.614 288.895 306.737 299.839 308.162 300.906C311.58 303.47 314.921 293.672 319.045 295.047C321.46 295.851 320.244 300.131 322.394 301.745C323.676 302.705 326.998 302.032 326.998 300.068C326.998 298.483 323.568 300.526 322.813 300.906C322.176 301.223 320.72 300.614 320.72 301.325C320.72 302.676 322.678 301.35 322.813 301.325C326.04 300.677 333.632 301.033 335.37 297.557" stroke="#1E1D18" stroke-width="3" stroke-miterlimit="10" stroke-linecap="round" stroke-linejoin="round"/>
<path d="M324.487 287.93C328.341 287.93 330.896 288.393 334.533 289.602" stroke="#1E1D18" stroke-width="3" stroke-miterlimit="10" stroke-linecap="round" stroke-linejoin="round"/>
<path d="M307.743 303.417C307.743 311.391 307.698 319.337 308.581 327.277C309.232 333.141 311.546 338.328 310.673 344.44C308.769 357.767 304.813 370.543 304.813 384.206" stroke="#1E1D18" stroke-width="3" stroke-miterlimit="10" stroke-linecap="round" stroke-linejoin="round"/>
<path d="M296.284 139.501C296.284 147.894 292.624 156.7 293.708 166.458C295.607 183.543 294.169 200.667 295.597 217.801C296.02 222.88 296.971 228.198 296.971 233.258" stroke="#1E1D18" stroke-width="3" stroke-miterlimit="10" stroke-linecap="round" stroke-linejoin="round"/>
<path d="M307.789 186.034C306.215 190.757 307.503 196.592 307.617 201.491C307.744 206.936 307.429 212.351 307.617 217.801C307.731 221.106 307.648 224.021 306.93 227.248C306.688 228.34 306.141 229.48 305.728 230.509C305.604 230.821 305.363 231.669 305.213 231.367C304.726 230.397 307.077 225.985 307.445 225.186C309.77 220.15 312.162 215.31 315.345 210.762C315.625 210.363 317.942 206.663 318.607 207.331C319.978 208.7 313.962 223.982 315.345 224.674C316.031 225.015 316.177 223.353 316.375 222.612C316.631 221.652 318.518 212.995 320.324 212.995C320.966 212.995 319.834 219.692 319.809 220.034C319.462 224.903 319.518 229.943 319.981 234.803C320.128 236.353 321.183 244.586 321.183 243.217" stroke="#1E1D18" stroke-width="3" stroke-miterlimit="10" stroke-linecap="round" stroke-linejoin="round"/>
<path d="M372.085 314.36C375.511 314.36 379.322 316.295 382.809 316.797C393.187 318.279 406.565 317.601 416.931 316.31C433.671 314.214 453.557 316.68 470.062 318.747C476.271 319.522 500.496 319.931 504.671 324.109C506.026 325.464 504.994 337.406 505.159 339.22C506.14 350.017 507.041 361.17 508.571 371.879C509.835 380.731 509.816 390.017 511.983 398.689C512.55 400.955 515.016 407.541 513.445 409.9C513.244 410.202 512.823 410.3 512.471 410.387C507.468 411.635 499.659 408.944 493.947 409.9C483.592 411.625 475.371 408.969 465.188 407.95C452.702 406.697 440.063 405.82 427.654 404.05C417.566 402.608 406.689 403.563 396.458 403.563C394.07 403.563 381.389 402.988 381.834 402.101" stroke="#1E1D18" stroke-width="3" stroke-miterlimit="10" stroke-linecap="round" stroke-linejoin="round"/>
<path d="M1064.05 104.052C1063.96 104.062 1055.56 104.586 1055.1 102.26C1054.98 101.676 1054.56 100.74 1055.1 100.473C1056.8 99.6219 1055.83 109.288 1058.08 107.037C1059.93 105.185 1061.52 93.9432 1064.05 93.3089C1064.37 93.2283 1073.59 102.879 1064.05 104.052Z" stroke="#1E1D18" stroke-width="3" stroke-miterlimit="10" stroke-linecap="round" stroke-linejoin="round"/>
<path d="M1190.56 84.3583C1190.15 84.1504 1197.19 85.6108 1201.9 90.3285C1209.02 97.4471 1212.79 105.532 1214.43 115.389" stroke="#1E1D18" stroke-width="3" stroke-miterlimit="10" stroke-linecap="round" stroke-linejoin="round"/>
<path d="M1182.21 83.7616C1209.7 70.0159 1231.74 96.4955 1231.74 121.954" stroke="#1E1D18" stroke-width="3" stroke-miterlimit="10" stroke-linecap="round" stroke-linejoin="round"/>
<path d="M1223.98 91.5216C1226.57 95.398 1230.55 98.2575 1232.94 102.26C1245.72 123.746 1245.02 152.477 1240.69 176.26" stroke="#1E1D18" stroke-width="3" stroke-miterlimit="10" stroke-linecap="round" stroke-linejoin="round"/>
<path d="M1184.6 199.533C1189.88 202.176 1192.42 209.959 1194.74 215.054" stroke="#1E1D18" stroke-width="3" stroke-miterlimit="10" stroke-linecap="round" stroke-linejoin="round"/>
<path d="M1244.27 184.017C1238.34 186.988 1234.16 215.618 1226.37 223.406" stroke="#1E1D18" stroke-width="3" stroke-miterlimit="10" stroke-linecap="round" stroke-linejoin="round"/>
<path d="M1226.96 215.648C1221.51 215.648 1222.19 238.278 1222.19 245.487" stroke="#1E1D18" stroke-width="3" stroke-miterlimit="10" stroke-linecap="round" stroke-linejoin="round"/>
<path d="M1232.34 225.198C1229.03 228.506 1239.33 239.682 1241.89 243.695" stroke="#1E1D18" stroke-width="3" stroke-miterlimit="10" stroke-linecap="round" stroke-linejoin="round"/>
<path d="M1180.42 249.066C1178.43 249.066 1183.42 246.393 1185.19 245.487C1192.08 241.963 1199 238.474 1206.08 235.343C1211.72 232.851 1218.57 230.58 1224.58 228.778C1224.58 228.778 1232.94 226.105 1232.94 226.986C1232.94 228.929 1223.46 232.025 1221.59 232.956C1220.24 233.631 1216.74 236.103 1217.42 234.744C1218.92 231.733 1223.15 230.525 1225.77 228.778C1245.5 215.628 1245.13 230.827 1256.8 242.501C1259.72 245.421 1260.61 240.488 1263.37 246.68C1265.82 252.208 1265.79 258.178 1266.95 263.988" stroke="#1E1D18" stroke-width="3" stroke-miterlimit="10" stroke-linecap="round" stroke-linejoin="round"/>
<path d="M1240.69 232.357C1247.62 239.285 1250.13 249.741 1252.63 259.215C1255.93 271.701 1257.04 284.669 1259.19 297.406C1262.84 319.003 1262.77 340.626 1262.77 362.455" stroke="#1E1D18" stroke-width="3" stroke-miterlimit="10" stroke-linecap="round" stroke-linejoin="round"/>
<path d="M1004.64 118.788C1004.64 122.906 1005.48 138.769 1002.91 141.342C999.116 145.138 992.044 146.155 989.461 151.32C988.052 154.139 997.601 155.327 999.005 153.923C999.499 153.429 995.952 154.924 997.701 156.092C999.343 157.185 1002.09 155.851 1005.08 154.355" stroke="#1E1D18" stroke-width="3" stroke-miterlimit="10" stroke-linecap="round" stroke-linejoin="round"/>
<path d="M999.871 156.525C998.618 157.15 996.038 163.075 998.134 164.334C1000.51 165.758 1002.3 166.936 1005.08 166.936C1005.69 166.936 1009.01 166.267 1006.81 167.369" stroke="#1E1D18" stroke-width="3" stroke-miterlimit="10" stroke-linecap="round" stroke-linejoin="round"/>
<path d="M1003.12 167.369C1002.45 166.972 1000.52 166.503 1001.17 166.07C1001.94 165.557 1009.55 167.369 1002.04 167.369C1000.88 167.369 999.725 167.369 998.567 167.369C997.832 167.369 1000.01 167.681 1000.74 167.802C1001.82 167.983 1006.57 169.393 1003.12 167.369Z" stroke="#1E1D18" stroke-width="3" stroke-miterlimit="10" stroke-linecap="round" stroke-linejoin="round"/>
<path d="M999.438 167.369C995.45 169.363 991.628 179.512 998.134 180.816C1002.19 181.627 1008.29 184.808 1012.45 183.419C1014.06 182.88 1015.49 181.163 1017.22 180.816C1019.43 180.373 1022.11 180.972 1024.16 179.95" stroke="#1E1D18" stroke-width="3" stroke-miterlimit="10" stroke-linecap="round" stroke-linejoin="round"/>
<path d="M1004.21 117.056C1010.27 119.075 1019.56 118.224 1025.03 120.958C1026.03 121.456 1025.92 123.359 1027.2 123.993" stroke="#1E1D18" stroke-width="3" stroke-miterlimit="10" stroke-linecap="round" stroke-linejoin="round"/>
<path d="M1002.91 118.355C994.144 118.355 1011.73 105.422 1015.05 104.475C1017.99 103.635 1025.6 106.65 1026.76 105.774C1028.96 104.128 1030.58 98.8369 1034.14 98.8369C1036.39 98.8369 1035.14 104.984 1037.18 104.475C1040.8 103.569 1043.13 93.3897 1045.85 98.8369" stroke="#1E1D18" stroke-width="3" stroke-miterlimit="10" stroke-linecap="round" stroke-linejoin="round"/>
<path d="M1050.18 100.136C1053.8 100.136 1057.38 101.007 1061.03 101.007" stroke="#1E1D18" stroke-width="3" stroke-miterlimit="10" stroke-linecap="round" stroke-linejoin="round"/>
<path d="M1070.14 104.042C1073.42 104.697 1077.64 104.324 1080.55 105.774" stroke="#1E1D18" stroke-width="3" stroke-miterlimit="10" stroke-linecap="round" stroke-linejoin="round"/>
<path d="M1050.62 99.7027C1047.62 93.1329 1049.1 105.235 1049.75 103.609C1050.25 102.371 1051.18 100.916 1050.62 99.7027Z" stroke="#1E1D18" stroke-width="3" stroke-miterlimit="10" stroke-linecap="round" stroke-linejoin="round"/>
<path d="M1081.85 108.377C1085.39 119.004 1091.83 124.331 1091.83 136.141" stroke="#1E1D18" stroke-width="3" stroke-miterlimit="10" stroke-linecap="round" stroke-linejoin="round"/>
<path d="M1081.85 109.681C1078.3 108.493 1084.52 110.28 1086.62 115.319C1089.87 123.107 1091.44 132.975 1088.79 140.909" stroke="#1E1D18" stroke-width="3" stroke-miterlimit="10" stroke-linecap="round" stroke-linejoin="round"/>
<path d="M1081.85 107.511C1083.29 110.381 1086.15 111.569 1087.92 114.886C1094.34 126.923 1088.86 132.678 1087.06 143.512C1086.45 147.152 1087.85 151.904 1086.19 155.227" stroke="#1E1D18" stroke-width="3" stroke-miterlimit="10" stroke-linecap="round" stroke-linejoin="round"/>
<path d="M1089.23 133.971C1089.23 147.217 1097.72 167.112 1086.19 178.646" stroke="#1E1D18" stroke-width="3" stroke-miterlimit="10" stroke-linecap="round" stroke-linejoin="round"/>
<path d="M1086.62 172.575C1084.42 176.975 1086.7 199.785 1092.26 201.638" stroke="#1E1D18" stroke-width="3" stroke-miterlimit="10" stroke-linecap="round" stroke-linejoin="round"/>
<path d="M1026.33 126.163C1026.33 133.866 1029.71 141.352 1030.23 149.15C1030.67 155.7 1028.5 161.509 1028.5 167.802" stroke="#1E1D18" stroke-width="3" stroke-miterlimit="10" stroke-linecap="round" stroke-linejoin="round"/>
<path d="M1036.74 146.547C1034.92 146.547 1033.9 162.904 1033.27 165.632C1032.52 168.885 1031.6 172.111 1030.23 175.177C1029.6 176.602 1026.94 179.517 1028.5 179.517C1028.72 179.517 1032.01 173.531 1032.4 173.008C1037.58 166.095 1042.43 159.254 1046.72 151.753" stroke="#1E1D18" stroke-width="3" stroke-miterlimit="10" stroke-linecap="round" stroke-linejoin="round"/>
<path d="M1048.89 147.418C1048.89 155.926 1042.16 168.98 1038.04 176.043C1037.78 176.496 1033.63 182.91 1034.14 183.419C1034.6 183.882 1037.85 178.898 1038.04 178.646C1039.4 176.834 1052.24 159.103 1053.23 163.03C1054.32 167.43 1039.61 186.983 1042.81 193.397" stroke="#1E1D18" stroke-width="3" stroke-miterlimit="10" stroke-linecap="round" stroke-linejoin="round"/>
<path d="M1046.28 189.49C1047.72 188.77 1048.08 187.844 1049.75 186.887C1054.01 184.456 1048.29 197.062 1049.32 198.602C1050.71 200.691 1054.77 193.714 1057.13 196.865C1058.2 198.295 1056.42 202.871 1058.43 203.37C1061.07 204.029 1065.35 195.743 1068.4 195.128C1072.51 194.308 1068.34 202.378 1070.57 202.937C1073.45 203.657 1078.38 197.731 1080.98 196.865C1083.41 196.055 1084.15 200.888 1084.89 200.334C1086.41 199.191 1087.77 194.283 1088.35 192.526" stroke="#1E1D18" stroke-width="3" stroke-miterlimit="10" stroke-linecap="round" stroke-linejoin="round"/>
<path d="M1064.07 117.922C1075.45 140.687 1083.41 168.975 1069.71 192.959" stroke="#1E1D18" stroke-width="3" stroke-miterlimit="10" stroke-linecap="round" stroke-linejoin="round"/>
<path d="M1006.81 138.744C1010.2 139.59 1013.9 144.246 1015.49 147.418" stroke="#1E1D18" stroke-width="3" stroke-miterlimit="10" stroke-linecap="round" stroke-linejoin="round"/>
<path d="M1006.38 142.213C1007.3 144.971 1006.51 143.169 1009.85 146.985" stroke="#1E1D18" stroke-width="3" stroke-miterlimit="10" stroke-linecap="round" stroke-linejoin="round"/>
<path d="M1005.51 140.909C1007.28 144.458 1011.56 146.925 1014.62 149.15" stroke="#1E1D18" stroke-width="3" stroke-miterlimit="10" stroke-linecap="round" stroke-linejoin="round"/>
<path d="M1016.79 182.553C1015.48 185.166 1020.11 191.549 1021.13 194.263C1021.64 195.632 1021.99 197.147 1021.99 198.602C1021.99 199.468 1021.99 202.071 1021.99 201.2C1021.99 198.562 1022.25 193.487 1021.56 199.035C1020.67 206.149 1018.83 213.232 1017.65 220.29C1017.59 220.678 1016.52 222.973 1017.22 223.326C1017.43 223.427 1018.37 221.448 1018.52 221.156" stroke="#1E1D18" stroke-width="3" stroke-miterlimit="10" stroke-linecap="round" stroke-linejoin="round"/>
<path d="M1020.69 221.589C1020.34 222.636 1018.4 225.118 1019.39 224.625C1021.96 223.341 1022.77 219.037 1024.16 216.816C1027.93 210.785 1032.42 205.56 1037.61 200.767C1039.88 198.673 1042.19 197.092 1044.55 195.129C1045.1 194.665 1046.6 193.18 1046.28 193.83C1043.75 198.904 1035.71 203.219 1031.97 207.709C1030.45 209.532 1025.26 213.348 1027.63 213.348C1029.06 213.348 1032.63 208.782 1033.27 208.142C1037.45 203.959 1041.82 199.896 1045.85 195.561C1047.39 193.91 1048.7 192.058 1050.18 190.361C1050.59 189.898 1052.1 189.057 1051.49 189.057C1049 189.057 1043.88 195.803 1042.38 197.298C1040.79 198.889 1039.2 200.48 1037.61 202.071" stroke="#1E1D18" stroke-width="3" stroke-miterlimit="10" stroke-linecap="round" stroke-linejoin="round"/>
<path d="M1021.13 198.602C1018.92 197.495 1016.39 203.465 1015.05 205.107C1013.99 206.405 1006.57 214.778 1007.25 216.816C1007.49 217.557 1008.86 217.134 1009.41 217.687C1011.63 219.897 1014.18 229.261 1014.18 232.433" stroke="#1E1D18" stroke-width="3" stroke-miterlimit="10" stroke-linecap="round" stroke-linejoin="round"/>
<path d="M1027.2 231.134C1025.28 231.768 1026.31 231.361 1024.16 232.433C1022.51 233.259 1027.19 230.273 1028.5 228.964C1030.09 227.374 1031.68 225.783 1033.27 224.192C1035.85 221.614 1047 212.381 1047.58 209.446C1048.39 205.434 1030 222.269 1029.8 222.455C1028.29 223.844 1024.06 226.311 1025.9 227.228C1027.07 227.817 1033.82 219.938 1035.01 218.986C1036.48 217.808 1040.82 214.38 1039.78 215.951C1037.96 218.679 1033.9 220.522 1031.54 222.888C1029.52 224.907 1027.35 226.835 1025.46 228.964C1024.09 230.51 1020.89 235.257 1022.86 234.603C1024.34 234.109 1022.14 232.287 1021.56 232.433C1019.51 232.947 1015.6 239.058 1014.18 240.674C1012.68 242.396 1006.67 253.114 1008.98 255.42C1009.28 255.717 1012.25 245.714 1012.45 245.014C1012.78 243.866 1013.32 240.352 1013.32 241.54C1013.32 254.363 1007.36 264.839 1002.47 276.242C998.713 285.017 998.134 295.498 998.134 304.872" stroke="#1E1D18" stroke-width="3" stroke-miterlimit="10" stroke-linecap="round" stroke-linejoin="round"/>
<path d="M1081.85 199.901C1086.55 209.3 1100.83 216.278 1102.67 225.491C1103.47 229.513 1102.38 236.189 1101.8 240.241C1100.42 249.912 1102.32 260.051 1100.94 269.738C1099.97 276.473 1098.78 284.1 1099.64 290.992C1100.38 296.973 1103.18 315.575 1100.5 320.922" stroke="#1E1D18" stroke-width="3" stroke-miterlimit="10" stroke-linecap="round" stroke-linejoin="round"/>
<path d="M1080.11 215.951C1078.65 215.951 1061.74 233.274 1062.33 235.036C1062.72 236.209 1065.8 233.732 1065.8 233.732C1065.8 233.732 1065.51 234.311 1065.37 234.603C1064.13 237.07 1063.14 239.773 1062.33 242.411C1060.43 248.573 1059.43 254.725 1058.43 261.063C1058.12 263.012 1054.24 275.522 1056.26 277.546C1056.79 278.08 1059.53 270.337 1059.73 269.738C1060.01 268.902 1060.56 266.349 1060.16 267.135C1056.56 274.344 1056.18 283.839 1053.23 291.426C1051.45 295.977 1047.58 302.441 1047.58 307.475C1047.58 309.297 1051.66 308.089 1050.62 312.243C1049.03 318.601 1045.04 314.412 1047.58 314.412C1049.83 314.412 1055.22 318.475 1057.13 319.618C1058.62 320.514 1062.77 323.086 1061.03 323.086C1059.18 323.086 1050.83 314.201 1052.35 312.68C1054.72 310.314 1063.22 318.48 1064.5 319.618C1068.85 323.479 1074.18 326.011 1077.08 331.328C1078.6 334.112 1083.65 344.221 1081.85 347.81C1081.7 348.102 1081.29 348.349 1080.98 348.248C1078.46 347.402 1076.41 337.369 1075.35 335.234" stroke="#1E1D18" stroke-width="3" stroke-miterlimit="10" stroke-linecap="round" stroke-linejoin="round"/>
<path d="M1060.6 253.688C1066.93 245.235 1076.8 240.141 1083.59 232C1084.8 230.55 1088.27 218.866 1084.45 221.156C1080.21 223.699 1075.98 232.232 1072.31 235.902" stroke="#1E1D18" stroke-width="3" stroke-miterlimit="10" stroke-linecap="round" stroke-linejoin="round"/>
<path d="M1065.37 201.638C1053.08 226.206 1043.59 250.713 1032.84 275.809C1028.9 284.992 1031.95 297.542 1027.63 306.171" stroke="#1E1D18" stroke-width="3" stroke-miterlimit="10" stroke-linecap="round" stroke-linejoin="round"/>
<path d="M1019.39 199.035C1014.17 200.772 1007.42 205.107 1002.04 205.107C1001.75 205.107 1002.75 204.865 1002.91 205.107C1003.78 206.416 1001.47 211.692 1001.17 212.482C998.92 218.488 996.672 224.952 993.798 230.696" stroke="#1E1D18" stroke-width="3" stroke-miterlimit="10" stroke-linecap="round" stroke-linejoin="round"/>
<path d="M1000.74 218.986C997.616 220.547 995.262 230.007 993.798 233.299C993.273 234.482 992.573 235.58 992.063 236.773C991.756 237.488 990.645 239.491 991.196 238.937C995.5 234.633 998.809 228.406 1002.91 223.759C1003.58 222.999 1011.35 215.498 1010.72 214.214C1010.39 213.569 1009.31 214.868 1008.98 215.518C1007.04 219.394 1003.25 222.239 1001.61 226.362C1001.39 226.915 1000.58 228.093 1001.17 228.093C1002.5 228.093 1004.21 224.162 1004.21 225.491C1004.21 229.267 997.269 236.838 995.533 239.808C989.482 250.179 976.078 285.047 981.653 296.193" stroke="#1E1D18" stroke-width="3" stroke-miterlimit="10" stroke-linecap="round" stroke-linejoin="round"/>
<path d="M993.364 235.902C993.364 242.557 986.868 251.498 983.822 257.59C982.346 260.545 981.421 268.519 980.785 267.568C980.625 267.326 980.159 267.407 979.918 267.568C978.589 268.454 974.721 280.44 972.978 279.277C972.362 278.87 972.751 274.943 971.677 274.943C970.937 274.943 968.724 286.386 969.074 287.086C969.64 288.218 974.555 287.519 975.58 287.519" stroke="#1E1D18" stroke-width="3" stroke-miterlimit="10" stroke-linecap="round" stroke-linejoin="round"/>
<path d="M1192.89 81.4855C1186.11 81.4855 1179 84.0902 1172.5 85.3896C1166.45 86.5999 1159.97 85.2371 1153.86 86.257C1142.02 88.2295 1126.92 101.641 1129.57 114.886C1130.5 119.578 1135.82 116.578 1137.81 119.221C1143.52 126.843 1143.01 136.63 1143.01 145.681" stroke="#1E1D18" stroke-width="3" stroke-miterlimit="10" stroke-linecap="round" stroke-linejoin="round"/>
<path d="M1146.91 151.753C1152.51 157.346 1151.12 164.515 1154.29 170.838C1154.59 171.452 1153.54 163.901 1155.59 163.901C1156.98 163.901 1155.32 169.735 1156.02 169.972C1157.49 170.46 1159.48 163.629 1159.93 162.597C1162.48 156.636 1164.83 149.165 1169.91 144.816C1177.96 137.908 1170.15 148.808 1169.47 152.186C1169.35 152.775 1168.5 153.656 1169.04 153.923C1169.66 154.235 1181.15 142.933 1182.05 147.418C1182.64 150.394 1176.53 156.601 1175.54 159.561" stroke="#1E1D18" stroke-width="3" stroke-miterlimit="10" stroke-linecap="round" stroke-linejoin="round"/>
<path d="M1172.07 157.391C1171.78 157.537 1171.49 157.683 1171.2 157.829" stroke="#1E1D18" stroke-width="3" stroke-miterlimit="10" stroke-linecap="round" stroke-linejoin="round"/>
<path d="M1168.17 158.262C1166.48 157.416 1171.37 158.474 1172.5 159.994C1174.99 163.306 1177.19 167.49 1177.71 171.709C1178.45 177.614 1177.41 184.123 1175.11 189.49C1174.55 190.789 1171.81 196.342 1170.77 194.263" stroke="#1E1D18" stroke-width="3" stroke-miterlimit="10" stroke-linecap="round" stroke-linejoin="round"/>
<path d="M1170.34 171.709C1169.14 169.307 1171.47 173.713 1171.64 174.312C1172.49 177.277 1173.26 181.017 1171.64 183.852C1169.26 188.025 1165.05 183.243 1170.77 180.383" stroke="#1E1D18" stroke-width="3" stroke-miterlimit="10" stroke-linecap="round" stroke-linejoin="round"/>
<path d="M1131.73 115.319C1130.16 118.466 1132.58 122.347 1131.73 125.73C1130.43 130.936 1126.46 138.91 1127.83 144.382C1129.15 149.663 1130.43 153.011 1130.43 158.695" stroke="#1E1D18" stroke-width="3" stroke-miterlimit="10" stroke-linecap="round" stroke-linejoin="round"/>
<path d="M1133.03 154.788C1131.48 157.89 1128.89 183.318 1130 187.758C1131.09 192.133 1134.11 195.28 1134.77 199.901C1135.49 204.935 1130.17 215.125 1133.03 219.419C1137.57 226.226 1147.83 221.05 1152.99 218.986" stroke="#1E1D18" stroke-width="3" stroke-miterlimit="10" stroke-linecap="round" stroke-linejoin="round"/>
<path d="M1130.43 157.391C1128.64 158.287 1127.9 162.501 1126.53 164.333C1123.55 168.306 1115.12 178.888 1126.96 176.914" stroke="#1E1D18" stroke-width="3" stroke-miterlimit="10" stroke-linecap="round" stroke-linejoin="round"/>
<path d="M1161.88 213.564C1155.46 216.736 1164.06 212.633 1166 211.178C1168.98 208.938 1169.54 207.327 1171.2 204.674C1171.27 204.568 1172.91 202.927 1171.64 202.504C1170.56 202.146 1162.93 213.046 1161.88 213.564Z" stroke="#1E1D18" stroke-width="3" stroke-miterlimit="10" stroke-linecap="round" stroke-linejoin="round"/>
<path d="M1157.33 218.553C1157.33 223.12 1158.86 225.712 1158.62 230.696C1158.55 232.342 1157.33 235.469 1157.33 235.469C1157.33 235.469 1160.1 231.512 1162.1 230.263C1166.51 227.504 1171.71 225.984 1176.41 223.759C1181.69 221.257 1187.03 218.991 1192.46 216.817C1195.22 215.714 1198.53 214.612 1198.53 214.647C1198.53 216.177 1171.64 228.909 1171.64 232C1171.64 233.561 1174.29 230.334 1175.54 229.397C1177.51 227.917 1179.31 226.226 1181.18 224.625C1186.14 220.376 1193.38 217.184 1197.23 212.044" stroke="#1E1D18" stroke-width="3" stroke-miterlimit="10" stroke-linecap="round" stroke-linejoin="round"/>
<path d="M1156.46 229.83C1154.68 233.38 1155.02 238.092 1154.72 241.978C1154.5 244.918 1153.45 247.994 1152.12 250.652C1151.85 251.186 1151.12 252.198 1151.69 252.384C1152.82 252.767 1174.33 237.608 1176.41 236.335C1181.84 233.022 1193.85 229.206 1196.79 223.326" stroke="#1E1D18" stroke-width="3" stroke-miterlimit="10" stroke-linecap="round" stroke-linejoin="round"/>
<path d="M1193.76 225.929C1193.47 226.216 1193.18 226.503 1192.89 226.795" stroke="#1E1D18" stroke-width="3" stroke-miterlimit="10" stroke-linecap="round" stroke-linejoin="round"/>
<path d="M1178.15 237.639C1180.57 235.207 1183.04 233.385 1185.95 231.567" stroke="#1E1D18" stroke-width="3" stroke-miterlimit="10" stroke-linecap="round" stroke-linejoin="round"/>
<path d="M1160.36 245.014C1157.29 246.549 1154.69 250.869 1152.12 253.255C1146.95 258.053 1140.85 262.468 1135.2 266.702C1134.13 267.507 1128.76 271.504 1126.96 270.603C1126.67 270.457 1129.37 268.932 1129.57 268.866C1131.35 268.272 1134.77 266.702 1134.77 266.702C1134.77 266.702 1129.29 270.442 1126.96 272.773C1122.48 277.254 1118.97 281.81 1116.12 287.519" stroke="#1E1D18" stroke-width="3" stroke-miterlimit="10" stroke-linecap="round" stroke-linejoin="round"/>
<path d="M1113.08 290.554C1115.91 282.067 1140.61 273.428 1149.08 270.603" stroke="#1E1D18" stroke-width="3" stroke-miterlimit="10" stroke-linecap="round" stroke-linejoin="round"/>
<path d="M1123.06 287.086C1122.42 287.403 1131.58 283.184 1134.33 282.313C1143.98 279.268 1157.76 275.522 1166.43 282.751C1177.19 291.712 1177.71 308.885 1177.71 321.788C1177.71 326.414 1177.71 331.041 1177.71 335.667C1177.71 336.392 1177.71 337.837 1177.71 337.837C1177.71 337.837 1177.61 336.327 1177.28 335.667" stroke="#1E1D18" stroke-width="3" stroke-miterlimit="10" stroke-linecap="round" stroke-linejoin="round"/>
<path d="M1175.98 302.703C1175.98 319.417 1180.47 341.437 1172.5 357.355" stroke="#1E1D18" stroke-width="3" stroke-miterlimit="10" stroke-linecap="round" stroke-linejoin="round"/>
<path d="M1114.82 286.22C1104.18 296.852 1089.63 313.738 1087.06 329.163C1086.18 334.434 1089.23 338.658 1089.23 343.475" stroke="#1E1D18" stroke-width="3" stroke-miterlimit="10" stroke-linecap="round" stroke-linejoin="round"/>
<path d="M1159.49 257.59C1163.64 254.826 1168.91 254.212 1173.81 253.255C1176.65 252.696 1182.48 250.793 1182.48 253.688C1182.48 254.906 1175.95 257.564 1175.11 258.023C1168.92 261.396 1138.76 273.095 1162.96 268.001C1164.41 267.699 1165.84 267.341 1167.3 267.135C1171.12 266.586 1174.81 266.339 1178.58 265.398" stroke="#1E1D18" stroke-width="3" stroke-miterlimit="10" stroke-linecap="round" stroke-linejoin="round"/>
<path d="M1057.99 349.114C1056.21 352.693 1051.97 336.151 1050.18 334.363C1045.64 329.817 1046.3 320.932 1041.51 316.149C1039.71 314.347 1038.43 311.236 1036.3 309.64C1033.83 307.782 1030.56 307.173 1028.06 305.305C1026.2 303.906 1024.36 301.127 1021.99 300.533C1018.94 299.772 998.844 302.345 1000.74 304.872C1004.51 309.906 1013.35 307.304 1018.52 308.341C1022.74 309.187 1025.08 319.291 1026.76 322.653" stroke="#1E1D18" stroke-width="3" stroke-miterlimit="10" stroke-linecap="round" stroke-linejoin="round"/>
<path d="M1003.34 307.037C1008.52 310.495 1017.17 312.63 1021.56 317.015C1027.83 323.283 1033.57 329.057 1040.64 334.363C1044.47 337.233 1049.2 340.485 1048.02 345.207C1047.8 346.083 1047.73 348.248 1046.28 348.248C1045.96 348.248 1045.67 348.006 1045.42 347.81C1043.13 346.098 1031.82 340.344 1031.1 339.136C1030.11 337.49 1029.69 335.526 1028.5 333.93C1024.26 328.282 1016.71 329.968 1011.58 326.122C1008.18 323.575 1007.62 318.072 1003.77 316.149" stroke="#1E1D18" stroke-width="3" stroke-miterlimit="10" stroke-linecap="round" stroke-linejoin="round"/>
<path d="M991.629 296.631C991.629 301.373 978.719 295.02 976.882 293.59C975.656 292.639 974.809 292.196 973.846 290.993C973.462 290.509 972.544 289.074 972.544 289.689C972.544 300.417 993.269 293.741 994.232 296.631C994.629 297.819 993.298 299.969 994.232 301.837C1007.64 328.659 1022.35 356.414 1043.68 377.739" stroke="#1E1D18" stroke-width="3" stroke-miterlimit="10" stroke-linecap="round" stroke-linejoin="round"/>
<path d="M973.846 291.858C971 293.278 977.546 299.344 978.617 300.532C985.644 308.341 990.807 316.748 997.268 324.823C1007.38 337.459 1015.78 351.128 1026.33 363.426C1031.59 369.563 1035.48 376.244 1042.81 379.909" stroke="#1E1D18" stroke-width="3" stroke-miterlimit="10" stroke-linecap="round" stroke-linejoin="round"/>
<path d="M980.785 303.135C972.788 307.133 975.839 319.925 974.713 320.484C974.003 320.841 967.339 319.864 967.339 320.922C967.339 322.155 970.035 320.297 969.074 322.221C966.99 326.389 965.725 328.121 964.736 333.064C964.502 334.238 961.19 337.288 962.134 338.703C965.07 343.108 967.99 348.968 971.677 353.887C974.756 357.99 975.928 365.596 982.954 365.596" stroke="#1E1D18" stroke-width="3" stroke-miterlimit="10" stroke-linecap="round" stroke-linejoin="round"/>
<path d="M969.942 287.952C965.276 287.952 961.948 292.397 957.363 293.157C954.439 293.646 951.767 293.157 948.688 293.157C948.254 293.157 947.386 293.157 947.386 293.157C947.386 293.157 951.761 293.167 953.893 293.59C958.89 294.592 965.837 296.43 969.508 300.1" stroke="#1E1D18" stroke-width="3" stroke-miterlimit="10" stroke-linecap="round" stroke-linejoin="round"/>
<path d="M972.11 302.053C972.399 301.122 969.507 299.229 969.942 300.1C970.901 302.018 974.239 303.855 976.015 304.872C977.199 305.547 980.449 308.003 979.484 307.037C978.083 305.637 962.337 299.027 961.7 299.667C961.015 300.351 963.412 300.583 964.303 300.965C966.849 302.058 971.076 305.381 972.11 302.053Z" stroke="#1E1D18" stroke-width="3" stroke-miterlimit="10" stroke-linecap="round" stroke-linejoin="round"/>
<path d="M972.544 305.305C956.634 299.999 948.68 287.695 930.036 291.425C926.506 292.13 916.146 305.728 918.758 308.341C919.143 308.723 921.719 307.918 921.795 307.908C927.693 307.062 930.949 301.388 936.109 300.1C938.531 299.495 940.502 300.966 942.181 300.966" stroke="#1E1D18" stroke-width="3" stroke-miterlimit="10" stroke-linecap="round" stroke-linejoin="round"/>
<path d="M927.867 305.738C924.866 305.738 929.778 310.198 931.337 310.511C934.44 311.13 939.699 307.787 941.747 305.738" stroke="#1E1D18" stroke-width="3" stroke-miterlimit="10" stroke-linecap="round" stroke-linejoin="round"/>
<path d="M934.373 310.078C928.013 313.254 930.844 320.247 938.278 319.185C942.747 318.546 945.714 314.166 949.555 312.242" stroke="#1E1D18" stroke-width="3" stroke-miterlimit="10" stroke-linecap="round" stroke-linejoin="round"/>
<path d="M939.578 317.881C932.944 337.787 950.235 319.744 955.194 322.22" stroke="#1E1D18" stroke-width="3" stroke-miterlimit="10" stroke-linecap="round" stroke-linejoin="round"/>
<path d="M934.59 289.256C936.916 289.487 932.093 284.594 931.771 284.916C930.327 286.361 934.095 289.205 934.59 289.256Z" stroke="#1E1D18" stroke-width="3" stroke-miterlimit="10" stroke-linecap="round" stroke-linejoin="round"/>
<path d="M913.119 266.702C910.393 263.973 928.735 298.544 928.735 290.993" stroke="#1E1D18" stroke-width="3" stroke-miterlimit="10" stroke-linecap="round" stroke-linejoin="round"/>
<path d="M911.818 264.099C916.312 273.085 924.604 281.654 931.771 288.823" stroke="#1E1D18" stroke-width="3" stroke-miterlimit="10" stroke-linecap="round" stroke-linejoin="round"/>
<path d="M922.662 294.894C919.046 294.894 911.129 299.078 907.047 300.1C906.733 300.175 906.408 300.306 906.18 300.533C905.27 301.444 905.746 303.75 905.746 304.872C905.746 312.57 913.336 312.897 919.192 310.944" stroke="#1E1D18" stroke-width="3" stroke-miterlimit="10" stroke-linecap="round" stroke-linejoin="round"/>
<path d="M907.047 297.497C907.047 302.269 899.951 288.193 898.372 286.22C891.482 277.606 894.273 266.893 901.842 259.326" stroke="#1E1D18" stroke-width="3" stroke-miterlimit="10" stroke-linecap="round" stroke-linejoin="round"/>
<path d="M919.192 295.327C911.816 287.952 910.737 285.349 899.673 285.349" stroke="#1E1D18" stroke-width="3" stroke-miterlimit="10" stroke-linecap="round" stroke-linejoin="round"/>
<path d="M896.637 287.086C895.443 287.484 886.079 294.884 886.661 296.631C887.467 299.048 894.034 298.353 894.034 302.702C894.034 304.626 891.018 303.468 890.564 305.738C889.41 311.508 895.336 312.444 895.336 312.681C895.336 313.134 893.744 314.261 894.034 315.716C895.096 321.022 904.73 319.114 907.915 318.319" stroke="#1E1D18" stroke-width="3" stroke-miterlimit="10" stroke-linecap="round" stroke-linejoin="round"/>
<path d="M893.6 301.399C893.6 302.456 903.349 307.702 905.312 305.738C905.934 305.114 903.589 305.305 902.709 305.305C901.289 305.305 894.442 304.308 894.902 306.604C895.461 309.398 905.111 308.341 907.047 308.341" stroke="#1E1D18" stroke-width="3" stroke-miterlimit="10" stroke-linecap="round" stroke-linejoin="round"/>
<path d="M899.673 315.278L900.541 314.845L902.276 314.412L858 321.163" stroke="#1E1D18" stroke-width="3" stroke-miterlimit="10" stroke-linecap="round" stroke-linejoin="round"/>
<path d="M903.143 288.823C902.068 290.972 908.851 297.316 907.481 296.631C904.25 295.015 903.927 282.62 911.818 294.461" stroke="#1E1D18" stroke-width="3" stroke-miterlimit="10" stroke-linecap="round" stroke-linejoin="round"/>
<path d="M913.987 314.845C911.25 315.761 920.215 312.917 922.229 312.242C928.413 310.183 930.17 312.962 934.807 315.278" stroke="#1E1D18" stroke-width="3" stroke-miterlimit="10" stroke-linecap="round" stroke-linejoin="round"/>
</g>
<defs>
<clipPath id="clip0_155_4150">
<rect width="1440" height="320" fill="white"/>
</clipPath>
</defs>
</svg>
