<svg width="390" height="290" viewBox="0 0 390 290" fill="none" xmlns="http://www.w3.org/2000/svg">
<g clip-path="url(#clip0_155_5507)">
<path d="M301.886 83.3871C299.548 81.0477 298.521 77.484 296.301 75.2639C292.543 71.5048 282.209 73.3609 277.771 74.2484C273.62 75.0785 269.238 74.9396 265.078 75.7716C263.598 76.0673 262.295 77.4169 261.016 78.0563C254.899 81.115 248.528 87.6452 246.801 94.5567C246.281 96.6354 246.298 98.8502 245.784 100.903C244.666 105.382 245.445 112.87 247.054 116.896C249.34 122.608 256.657 127.691 254.417 134.412" stroke="#020207" stroke-width="2" stroke-miterlimit="10" stroke-linecap="round" stroke-linejoin="round"/>
<path d="M298.84 82.6255C297.192 81.801 284.565 78.5485 283.863 81.3562C283.267 83.7437 286.3 87.8038 286.909 90.2413" stroke="#020207" stroke-width="2" stroke-miterlimit="10" stroke-linecap="round" stroke-linejoin="round"/>
<path d="M287.164 91.5104C287.541 94.1474 287.671 96.9783 287.671 99.6339" stroke="#020207" stroke-width="2" stroke-miterlimit="10" stroke-linecap="round" stroke-linejoin="round"/>
<path d="M283.101 109.28C277.268 103.447 269.88 105.367 271.678 114.357C272.421 118.076 276.496 122.22 279.041 124.765C280.538 126.263 285.132 124.831 285.132 127.304" stroke="#020207" stroke-width="2" stroke-miterlimit="10" stroke-linecap="round" stroke-linejoin="round"/>
<path d="M280.817 114.357C278.881 112.422 279.016 115.655 279.548 116.896C280.254 118.546 282.602 121.215 284.118 121.973" stroke="#020207" stroke-width="2" stroke-miterlimit="10" stroke-linecap="round" stroke-linejoin="round"/>
<path d="M301.379 83.8948C301.379 85.3132 303.65 87.177 304.425 88.2104C306.402 90.8453 315.115 102.539 310.771 104.711" stroke="#020207" stroke-width="2" stroke-miterlimit="10" stroke-linecap="round" stroke-linejoin="round"/>
<path d="M310.771 97.8569C309.959 96.2327 304.936 96.0784 303.41 96.8415" stroke="#020207" stroke-width="2" stroke-miterlimit="10" stroke-linecap="round" stroke-linejoin="round"/>
<path d="M310.771 102.68C310.529 102.004 309.963 101.222 309.249 101.157C308.294 101.07 307.895 102.511 307.218 103.188C306.795 103.611 305.948 103.859 305.948 104.457C305.948 104.943 307.191 104.209 307.218 104.203C308.901 103.866 311.481 104.664 310.771 102.68Z" stroke="#020207" stroke-width="2" stroke-miterlimit="10" stroke-linecap="round" stroke-linejoin="round"/>
<path d="M307.725 103.949L311.026 102.426" stroke="#020207" stroke-width="2" stroke-miterlimit="10" stroke-linecap="round" stroke-linejoin="round"/>
<path d="M312.04 103.442C313.633 104.238 323.037 111.993 321.18 113.85C319.698 115.333 315.972 113.915 314.072 114.865" stroke="#020207" stroke-width="2" stroke-miterlimit="10" stroke-linecap="round" stroke-linejoin="round"/>
<path d="M314.326 112.327L313.817 114.611" stroke="#020207" stroke-width="2" stroke-miterlimit="10" stroke-linecap="round" stroke-linejoin="round"/>
<path d="M317.88 114.865C317.88 119.739 321.05 121.149 315.848 123.75" stroke="#020207" stroke-width="2" stroke-miterlimit="10" stroke-linecap="round" stroke-linejoin="round"/>
<path d="M314.579 115.88C313.873 117.294 311.564 130.619 313.564 131.62" stroke="#020207" stroke-width="2" stroke-miterlimit="10" stroke-linecap="round" stroke-linejoin="round"/>
<path d="M314.326 128.065C315.709 130.832 318.401 133.53 321.18 134.919" stroke="#020207" stroke-width="2" stroke-miterlimit="10" stroke-linecap="round" stroke-linejoin="round"/>
<path d="M321.433 141.774C321.433 143.393 321.636 145.237 321.433 146.851C320.586 153.636 312.854 155.391 306.963 154.213C305.739 153.968 304.497 153.436 303.155 153.705C298.823 154.571 287.926 167.75 287.926 171.982" stroke="#020207" stroke-width="2" stroke-miterlimit="10" stroke-linecap="round" stroke-linejoin="round"/>
<path d="M293.763 126.035C292.162 129.235 292.494 132.076 292.494 135.681C292.494 136.141 292.376 139.208 293.51 138.981C294.987 138.686 295.674 131.873 296.301 131.873C296.633 131.873 296.556 135.587 296.556 135.935C296.556 138.071 296.983 140.474 297.571 142.535C298.59 146.103 300.768 140.146 302.648 142.028C302.915 142.295 303.093 142.67 303.155 143.043C303.195 143.275 303.845 154.104 306.203 149.389" stroke="#020207" stroke-width="2" stroke-miterlimit="10" stroke-linecap="round" stroke-linejoin="round"/>
<path d="M307.98 146.851C307.381 148.646 307.263 150.567 306.963 152.435C306.804 153.442 306.251 155.804 307.218 155.482C307.965 155.233 309.013 149.957 309.249 149.135C309.469 148.363 309.442 146.283 310.011 146.851C310.189 147.03 310.011 147.358 310.011 147.612C310.011 149.135 310.011 150.658 310.011 152.182C310.011 152.273 310.003 154.85 310.264 154.72C310.941 154.381 311.796 145.616 313.31 150.912C313.407 151.248 313.469 151.592 313.564 151.928C313.763 152.624 314.001 153.312 314.326 153.959" stroke="#020207" stroke-width="2" stroke-miterlimit="10" stroke-linecap="round" stroke-linejoin="round"/>
<path d="M332.096 145.327C331.134 143.402 320.7 131.31 318.387 135.935C317.486 137.739 320.925 142.344 322.195 143.297C328.968 148.376 328.295 159.673 335.65 163.351" stroke="#020207" stroke-width="2" stroke-miterlimit="10" stroke-linecap="round" stroke-linejoin="round"/>
<path d="M331.334 144.566C329.736 139.775 332.2 127.043 334.126 122.227C335.397 119.048 340.874 112.912 342.503 119.434C342.936 121.165 341.209 122.399 340.979 124.004C340.536 127.117 340.727 130.443 340.727 133.65" stroke="#020207" stroke-width="2" stroke-miterlimit="10" stroke-linecap="round" stroke-linejoin="round"/>
<path d="M342.249 120.45C342.249 118.283 342.006 114.092 343.773 112.327C344.771 111.328 347.746 110.868 348.088 112.58C349.467 119.469 345.313 126.341 347.581 133.143" stroke="#020207" stroke-width="2" stroke-miterlimit="10" stroke-linecap="round" stroke-linejoin="round"/>
<path d="M348.85 116.134C347.686 113.807 352.393 113.041 353.42 117.15C354.921 123.161 351.357 130.006 353.42 136.189" stroke="#020207" stroke-width="2" stroke-miterlimit="10" stroke-linecap="round" stroke-linejoin="round"/>
<path d="M353.672 133.143C353.672 131.864 355.681 119.423 358.242 120.704C361.464 122.315 359.735 130.504 359.257 132.889C358.607 136.145 358.868 140.076 359.512 143.297C360.338 147.431 358.963 152.343 357.988 156.243C357.281 159.073 357.219 162.598 354.942 164.874" stroke="#020207" stroke-width="2" stroke-miterlimit="10" stroke-linecap="round" stroke-linejoin="round"/>
<path d="M355.196 166.397C355.196 169.447 354.689 172.444 354.689 175.536" stroke="#020207" stroke-width="2" stroke-miterlimit="10" stroke-linecap="round" stroke-linejoin="round"/>
<path d="M358.242 160.559C359.878 160.559 361.379 164.16 362.05 165.128C364.877 169.211 365.256 177.329 359.257 178.328C355.927 178.884 353.229 177.428 350.119 176.805C342.537 175.289 340.717 176.875 336.412 169.697C335.9 168.845 330.966 165.497 332.096 164.367C332.215 164.247 332.438 164.325 332.604 164.367C335.447 165.078 337.869 167.729 340.727 168.682" stroke="#020207" stroke-width="2" stroke-miterlimit="10" stroke-linecap="round" stroke-linejoin="round"/>
<path d="M335.142 161.067L334.38 165.636" stroke="#020207" stroke-width="2" stroke-miterlimit="10" stroke-linecap="round" stroke-linejoin="round"/>
<path d="M333.111 162.59C331.103 163.594 328.289 167.994 328.289 170.205C328.289 171.15 328.856 175.162 329.303 174.267" stroke="#020207" stroke-width="2" stroke-miterlimit="10" stroke-linecap="round" stroke-linejoin="round"/>
<path d="M329.303 171.221C327.647 172.048 327.845 176.676 327.019 178.328C325.686 180.995 324.116 181.23 322.195 183.152C320.213 185.133 323.174 190.477 324.481 191.783" stroke="#020207" stroke-width="2" stroke-miterlimit="10" stroke-linecap="round" stroke-linejoin="round"/>
<path d="M326.257 182.136C325.702 183.798 329.177 188.967 330.318 190.767C332.115 193.602 333.993 196.385 335.902 199.144C336.544 200.069 336.989 200.484 337.681 201.175" stroke="#020207" stroke-width="2" stroke-miterlimit="10" stroke-linecap="round" stroke-linejoin="round"/>
<path d="M364.334 165.128C364.334 167.551 364.841 170.464 364.081 172.744C362.878 176.352 359.396 178.875 357.987 182.39C357.333 184.026 357.31 187.892 356.211 188.99C355.405 189.796 353.989 187.419 353.165 187.214C351.836 186.881 350.477 187.156 349.105 186.96C348.233 186.835 347.421 186.594 346.566 186.452C346.378 186.421 346.057 186.009 346.057 186.198C346.057 186.933 352.397 193.295 353.42 194.829" stroke="#020207" stroke-width="2" stroke-miterlimit="10" stroke-linecap="round" stroke-linejoin="round"/>
<path d="M354.434 191.529C353.099 188.858 356.478 194.823 353.927 196.098C350.552 197.786 348.982 201.731 347.581 205.237C346.264 208.53 342.768 210.887 340.979 213.868C340.066 215.39 339.683 218.212 338.441 219.453C337.724 220.17 333.811 214.723 332.856 216.153C332.053 217.36 335.515 220.749 335.142 222.245C334.852 223.399 330.233 220.046 330.065 220.214C329.245 221.033 331.649 221.23 333.873 221.23" stroke="#020207" stroke-width="2" stroke-miterlimit="10" stroke-linecap="round" stroke-linejoin="round"/>
<path d="M337.172 221.484C336.867 222.095 327.692 224.443 327.019 223.768C326.713 223.463 326.901 222.909 326.765 222.499" stroke="#020207" stroke-width="2" stroke-miterlimit="10" stroke-linecap="round" stroke-linejoin="round"/>
<path d="M296.301 160.305C294.715 160.305 302.845 167.608 303.665 168.428C307.849 172.614 310.129 179.834 312.802 185.183C319.519 198.618 322.59 212.54 325.495 227.069C326.646 232.82 329.048 238.607 329.048 244.584" stroke="#020207" stroke-width="2" stroke-miterlimit="10" stroke-linecap="round" stroke-linejoin="round"/>
<path d="M291.986 174.521C293.657 177.862 296.709 180.168 298.84 183.152C303.638 189.867 307.048 197.317 311.026 204.476C313.432 208.808 316.809 213.195 318.387 217.93C320.321 223.729 319.656 230.817 319.656 236.969C319.656 238.878 320.443 240.596 320.163 242.554C319.969 243.919 319.403 245.208 319.403 246.615" stroke="#020207" stroke-width="2" stroke-miterlimit="10" stroke-linecap="round" stroke-linejoin="round"/>
<path d="M252.131 132.889C252.771 134.168 254.742 134.236 255.939 134.919C259.221 136.795 263.403 138.728 265.84 141.774C269.168 145.935 272.589 149.756 275.74 153.959C279.565 159.059 281.788 165.322 285.64 170.459C287.387 172.789 287.971 176.121 289.448 178.582C297.807 192.514 303.186 209.433 306.711 225.292C308.386 232.831 308.326 241.309 310.771 248.646" stroke="#020207" stroke-width="2" stroke-miterlimit="10" stroke-linecap="round" stroke-linejoin="round"/>
<path d="M253.4 135.681C251.11 135.681 247.161 140.463 248.323 142.789C249.536 145.214 253.266 147.476 255.177 149.389C257.825 152.036 262.335 155.224 264.316 158.528C265.648 160.747 267.528 163.263 269.394 165.128C271.381 167.117 276.092 166.75 277.009 167.667C278.051 168.709 278.651 170.95 279.293 172.236C280.521 174.692 282.673 176.863 283.356 179.598C284.633 184.713 286.041 190.807 288.433 195.591C296.558 211.842 300.273 228.83 305.948 245.854" stroke="#020207" stroke-width="2" stroke-miterlimit="10" stroke-linecap="round" stroke-linejoin="round"/>
<path d="M249.085 143.043L245.024 144.312" stroke="#020207" stroke-width="2" stroke-miterlimit="10" stroke-linecap="round" stroke-linejoin="round"/>
<path d="M247.561 143.551C245.192 144.736 242.204 143.212 239.947 144.566C237.483 146.044 237.032 149.512 235.123 151.42C232.808 153.735 231.383 156.323 229.538 158.782C228.248 160.503 225.318 162.146 224.461 163.859" stroke="#020207" stroke-width="2" stroke-miterlimit="10" stroke-linecap="round" stroke-linejoin="round"/>
<path d="M220.401 168.936C219.893 167.922 223.063 166.303 223.954 165.636C225.349 164.589 226.637 163.407 228.014 162.336C232.168 159.106 239.481 158.824 244.515 159.543C246.805 159.87 249.331 161.267 251.369 162.082C254.034 163.148 257.173 163.583 259.747 165.128C267.367 169.7 278.533 181.377 281.325 189.752" stroke="#020207" stroke-width="2" stroke-miterlimit="10" stroke-linecap="round" stroke-linejoin="round"/>
<path d="M223.446 164.874C222.349 164.874 218.941 175.917 217.862 178.075C216.286 181.224 215.748 184.075 215.069 187.467C214.512 190.254 212.828 192.827 212.275 195.591C211.426 199.841 211.209 204.029 210.499 208.283C209.745 212.812 211.255 217.717 210.499 222.245C210.101 224.638 208.604 226.767 208.215 229.1C208.136 229.573 208.428 230.704 208.215 231.13C207.931 231.697 205.929 232.627 205.929 233.415C205.929 234.195 207.155 232.443 207.708 231.892C208.258 231.34 208.931 230.92 209.484 230.369C211.694 228.158 213.984 225.996 217.1 225.038C217.328 224.967 222.43 224.245 222.43 224.53C222.43 224.998 220.616 224.995 220.401 225.038C218.719 225.374 216.791 226.09 215.323 227.069C212.309 229.078 210.348 232.539 207.96 235.192C207.795 235.376 204.633 238.21 204.662 238.238C204.929 238.506 205.374 237.957 205.676 237.731C207.544 236.329 209.304 234.719 211.261 233.415C212.627 232.504 214.108 231.61 215.576 230.876" stroke="#020207" stroke-width="2" stroke-miterlimit="10" stroke-linecap="round" stroke-linejoin="round"/>
<path d="M220.653 197.875C218.713 195.935 223.552 188.202 224.968 186.452C227.308 183.563 229.845 180.838 232.331 178.075C238.842 170.839 249.114 168.333 258.477 170.205C262.61 171.032 263.9 173.575 266.855 175.79C267.081 175.96 268.888 178.201 268.632 178.328C268.075 178.607 265.437 176.815 264.824 176.552C262.755 175.665 259.91 175.305 257.715 175.536C252.336 176.102 246.865 179.275 242.231 181.883C238.394 184.041 234.669 186.403 230.808 188.483C230.646 188.569 228.19 189.609 227.762 189.752C227.254 189.921 225.861 189.881 226.238 190.26C226.554 190.577 227.246 190.137 227.507 190.006" stroke="#020207" stroke-width="2" stroke-miterlimit="10" stroke-linecap="round" stroke-linejoin="round"/>
<path d="M220.908 199.145C220.908 194.854 227.018 190.657 230.3 188.737C233.344 186.955 236.382 185.164 239.438 183.406C249.725 177.491 261.668 179.943 269.139 188.483C269.789 189.225 270.742 189.655 271.17 190.514" stroke="#020207" stroke-width="2" stroke-miterlimit="10" stroke-linecap="round" stroke-linejoin="round"/>
<path d="M227.254 193.306C229.103 197.007 226.749 206.49 226.238 210.568C225.894 213.318 226.832 215.969 226.492 218.691C226.277 220.415 225.374 221.987 225.73 223.768C225.911 224.665 226.778 225.419 227 226.307C227.12 226.786 222.562 228.977 223.447 229.861C223.67 230.085 225.306 228.255 225.478 228.084C227.163 226.396 228.114 224.294 229.284 222.245C229.646 221.613 230.553 220.468 230.553 220.468C230.553 220.468 230.433 220.842 230.3 220.976C230.062 221.213 226.996 224.143 226.745 223.768C226.012 222.669 228.236 220.129 228.776 219.453C231.779 215.702 235.769 212.853 240.707 212.853" stroke="#020207" stroke-width="2" stroke-miterlimit="10" stroke-linecap="round" stroke-linejoin="round"/>
<path d="M226.238 228.084C223.602 229.403 225.068 239.901 225.73 242.554C227.08 247.955 225.991 257.031 230.3 261.34C231.936 262.976 235.123 262.05 236.899 263.116C239.512 264.684 239.059 268.701 242.993 268.701" stroke="#020207" stroke-width="2" stroke-miterlimit="10" stroke-linecap="round" stroke-linejoin="round"/>
<path d="M275.485 194.575C275.485 199.685 274.527 204.484 273.964 209.553C273.752 211.447 275.879 212.924 275.485 214.884C275.133 216.641 273.75 218.189 273.454 219.961C273.144 221.83 275.175 223.181 274.471 225.292C274.065 226.506 272.183 226.815 271.17 226.815C267.091 226.815 262.356 225.02 258.225 226.053C255.34 226.774 256.639 227.322 258.985 227.322" stroke="#020207" stroke-width="2" stroke-miterlimit="10" stroke-linecap="round" stroke-linejoin="round"/>
<path d="M272.44 230.369C266.571 230.369 260.56 227.849 254.669 230.115C253.168 230.692 251.388 231.399 250.1 232.399C249.131 233.155 242.463 239.517 247.054 237.477C248.404 236.877 249.785 236.111 251.116 235.446" stroke="#020207" stroke-width="2" stroke-miterlimit="10" stroke-linecap="round" stroke-linejoin="round"/>
<path d="M269.394 227.576C264.604 229.971 262.192 234.939 258.732 238.746C258.243 239.283 255.431 241.745 255.431 242.554C255.431 243.352 256.862 241.81 257.463 241.284C258.272 240.575 258.985 239.761 259.747 239C260.751 237.995 267.973 230.657 268.632 230.876C269.211 231.07 268.729 231.698 268.632 231.892C267.723 233.709 266.389 235.947 265.078 237.477C264.051 238.673 264.557 237.753 263.809 239C263.712 239.162 263.422 239.641 263.554 239.507C264.461 238.601 265.176 237.378 266.093 236.461C266.729 235.825 267.489 235.32 268.124 234.684" stroke="#020207" stroke-width="2" stroke-miterlimit="10" stroke-linecap="round" stroke-linejoin="round"/>
<path d="M270.408 233.415C271.939 234.18 274.1 234.356 275.74 234.684C279.96 235.528 283.751 238.673 287.926 239.507C289.491 239.821 291.206 240.009 292.748 240.523" stroke="#020207" stroke-width="2" stroke-miterlimit="10" stroke-linecap="round" stroke-linejoin="round"/>
<path d="M292.748 240.269C291.251 243.264 294.171 248.184 293.001 251.693C292.117 254.347 290.872 256.817 289.195 259.054C288.462 260.031 287.164 262.1 287.164 262.1C287.164 262.1 287.398 261.195 287.671 260.83C288.562 259.646 289.435 258.312 290.21 257.022C291.85 254.289 293.332 251.446 294.27 248.392C294.821 246.603 295.393 245.306 294.525 243.569C294.183 242.887 293.618 242.254 293.001 241.792C292.85 241.679 292.326 241.623 292.494 241.538C295.579 239.995 296.049 247.664 296.049 248.9" stroke="#020207" stroke-width="2" stroke-miterlimit="10" stroke-linecap="round" stroke-linejoin="round"/>
<path d="M294.27 241.284C295.169 242.182 304.238 244.658 306.203 244.331C307.305 244.147 308.326 243.119 309.502 243.315C313.219 243.935 315.157 246.961 319.404 244.838" stroke="#020207" stroke-width="2" stroke-miterlimit="10" stroke-linecap="round" stroke-linejoin="round"/>
<path d="M314.834 245.346C316.01 247.701 317.695 249.489 318.641 251.945C320.213 256.033 319.633 260.897 320.163 265.148C320.375 266.823 321.443 272.498 320.163 273.778C319.582 274.36 306.887 271.117 305.441 270.985C303.3 270.79 299.677 271.91 297.825 270.985" stroke="#020207" stroke-width="2" stroke-miterlimit="10" stroke-linecap="round" stroke-linejoin="round"/>
<path d="M318.641 273.271C317.358 273.911 318.509 276.143 318.641 277.331C319.056 281.058 319.014 285.038 314.326 285.709C311.053 286.177 306.373 282.257 303.665 280.632C295.981 276.023 279.801 275.511 279.801 263.116" stroke="#020207" stroke-width="2" stroke-miterlimit="10" stroke-linecap="round" stroke-linejoin="round"/>
<path d="M295.794 277.079C289.837 280.056 284.375 274.73 278.786 274.031C275.382 273.606 272.535 275.613 269.139 275.047C262.699 273.973 257.214 271.304 250.862 269.715C247.426 268.856 242.844 268.806 240.2 266.162" stroke="#020207" stroke-width="2" stroke-miterlimit="10" stroke-linecap="round" stroke-linejoin="round"/>
<path d="M256.955 258.292C258.831 260.168 262.428 260.381 264.824 261.34C267.785 262.524 270.553 263.903 273.454 265.148C274.581 265.628 277.361 266.728 278.024 265.4" stroke="#020207" stroke-width="2" stroke-miterlimit="10" stroke-linecap="round" stroke-linejoin="round"/>
<path d="M269.394 262.1C271.709 261.174 273.373 258.969 275.74 258.292C275.984 258.223 276.452 258.043 276.502 258.292C276.751 259.54 273.402 268.85 277.262 264.638C277.836 264.015 278.273 263.28 278.786 262.609C279.372 261.841 279.946 261.064 280.563 260.323C281.215 259.54 281.917 258.801 282.594 258.039" stroke="#020207" stroke-width="2" stroke-miterlimit="10" stroke-linecap="round" stroke-linejoin="round"/>
<path d="M317.103 244.987C326.299 244.987 342.22 243.412 347.183 253.343C349.158 257.292 341.994 257.093 341.454 259.789C341.199 261.066 342.12 262.514 341.454 263.847C341.083 264.591 337.157 266.338 337.157 265.995C337.157 265.914 338.544 264.618 337.635 265.756C336.399 267.301 335.689 269.374 334.293 270.769C333.856 271.206 332.144 272.229 332.144 272.919C332.144 273.855 333.536 274.087 332.62 275.306C332.003 276.128 323.717 277.201 322.594 276.977C320.855 276.629 319.068 275.403 317.343 274.828" stroke="#020207" stroke-width="2" stroke-miterlimit="10" stroke-linecap="round" stroke-linejoin="round"/>
<path d="M329.757 277.453C328.328 277.453 328.771 284.278 328.564 286.765C327.794 295.99 327.926 306.821 324.982 315.65" stroke="#020207" stroke-width="2" stroke-miterlimit="10" stroke-linecap="round" stroke-linejoin="round"/>
<path d="M207.049 235.915C205.751 236.564 206.65 241.963 206.333 243.793C205.96 245.962 205.598 248.151 204.902 250.239C204.482 251.5 202.115 255.886 202.753 257.161C203.214 258.087 205.995 258.52 206.811 258.356C208.097 258.099 208.149 256.399 206.811 256.207C204.235 255.84 198.616 257.683 200.127 261.46C202.181 266.593 211.42 260.706 214.211 259.311" stroke="#020207" stroke-width="2" stroke-miterlimit="10" stroke-linecap="round" stroke-linejoin="round"/>
<path d="M202.753 263.607C202.208 263.607 202.038 269.096 200.127 270.531C199.299 271.152 195.671 270.846 195.352 271.486C192.025 278.139 190.521 285.444 187.235 292.016C184.655 297.176 180.272 297.961 178.402 304.191C177.491 307.229 174.934 313.01 176.493 316.129" stroke="#020207" stroke-width="2" stroke-miterlimit="10" stroke-linecap="round" stroke-linejoin="round"/>
<path d="M229.012 257.64C227.275 257.64 225.91 260.13 224.716 261.22C221.216 264.415 218.649 267.527 215.406 270.769C210.859 275.314 206.89 279.381 204.185 285.332C199.473 295.7 197.727 306.479 191.294 316.129" stroke="#020207" stroke-width="2" stroke-miterlimit="10" stroke-linecap="round" stroke-linejoin="round"/>
<path d="M304.213 283.661C303.191 282.64 303.663 291.387 303.735 292.254C304.17 297.485 304.812 302.862 305.884 308.012C306.28 309.917 308.042 313.959 307.077 315.89" stroke="#020207" stroke-width="2" stroke-miterlimit="10" stroke-linecap="round" stroke-linejoin="round"/>
<path d="M309.464 286.883C310.286 282.721 306.116 287.461 307.555 291.778C308.433 294.414 311.357 292.457 310.181 290.107C309.307 288.357 308.936 289.558 309.464 286.883Z" stroke="#020207" stroke-width="2" stroke-miterlimit="10" stroke-linecap="round" stroke-linejoin="round"/>
<path d="M308.868 270.053C305.518 269.763 303.099 263.412 307.555 261.698C308.787 261.224 311.759 270.304 308.868 270.053Z" stroke="#020207" stroke-width="2" stroke-miterlimit="10" stroke-linecap="round" stroke-linejoin="round"/>
<path d="M326.176 174.562C324.421 174.562 330.27 179.759 330.949 180.291C333.318 182.147 335.691 183.997 338.112 185.782C341.748 188.461 343.696 188.408 347.661 188.408" stroke="#020207" stroke-width="2" stroke-miterlimit="10" stroke-linecap="round" stroke-linejoin="round"/>
<path d="M332.144 179.336C332.144 179.496 332.026 179.707 332.144 179.814C333.898 181.414 335.554 183.204 337.635 184.35C342.599 187.085 350.279 187.213 355.778 187.931" stroke="#020207" stroke-width="2" stroke-miterlimit="10" stroke-linecap="round" stroke-linejoin="round"/>
<path d="M310.659 103.182C310.133 103.425 308.409 102.704 308.986 102.704C309.164 102.704 310.173 104.857 310.181 104.853C311.167 104.359 309.773 101.342 310.181 101.749C312.007 103.576 312.082 102.523 310.659 103.182Z" stroke="#020207" stroke-width="2" stroke-miterlimit="10" stroke-linecap="round" stroke-linejoin="round"/>
<path d="M311.015 102.585C307.412 103.256 311.885 101.544 312.33 101.988C312.728 102.387 308.978 104.356 308.51 103.42C308.224 102.848 311.423 102.509 311.015 102.585Z" stroke="#020207" stroke-width="2" stroke-miterlimit="10" stroke-linecap="round" stroke-linejoin="round"/>
<path d="M309.943 98.1683C308.288 97.3415 298.968 96.5797 301.586 97.452" stroke="#020207" stroke-width="2" stroke-miterlimit="10" stroke-linecap="round" stroke-linejoin="round"/>
<path d="M308.032 96.736C304.292 94.8656 298.65 101.639 302.064 99.362" stroke="#020207" stroke-width="2" stroke-miterlimit="10" stroke-linecap="round" stroke-linejoin="round"/>
<path d="M303.257 97.9295C302.004 97.9295 307.646 96.736 308.986 96.736C309.305 96.736 309.943 96.4176 309.943 96.736C309.943 96.9139 309.638 96.9398 309.464 96.9748C307.458 97.3759 305.655 96.2585 303.735 96.2585C303.576 96.2585 304.054 96.2585 304.213 96.2585C304.938 96.2585 305.648 96.3954 306.361 96.4973C307.533 96.6644 308.775 97.2133 309.943 97.2133" stroke="#020207" stroke-width="2" stroke-miterlimit="10" stroke-linecap="round" stroke-linejoin="round"/>
<path d="M317.103 113.447C317.343 113.368 317.581 113.288 317.819 113.208" stroke="#020207" stroke-width="2" stroke-miterlimit="10" stroke-linecap="round" stroke-linejoin="round"/>
<path d="M286.309 101.033C285.474 101.588 280.057 109.095 282.25 105.808" stroke="#020207" stroke-width="2" stroke-miterlimit="10" stroke-linecap="round" stroke-linejoin="round"/>
<path d="M287.501 100.317C285.443 100.317 283.205 108.1 283.205 110.582" stroke="#020207" stroke-width="2" stroke-miterlimit="10" stroke-linecap="round" stroke-linejoin="round"/>
<path d="M88.614 83.3871C90.9517 81.0477 91.9787 77.484 94.1985 75.2639C97.9566 71.5048 108.291 73.3609 112.729 74.2484C116.88 75.0785 121.262 74.9396 125.421 75.7716C126.902 76.0673 128.204 77.4169 129.484 78.0563C135.601 81.115 141.972 87.6452 143.699 94.5567C144.219 96.6354 144.202 98.8502 144.716 100.903C145.834 105.382 145.055 112.87 143.446 116.896C141.16 122.608 133.843 127.691 136.083 134.412" stroke="#020207" stroke-width="2" stroke-miterlimit="10" stroke-linecap="round" stroke-linejoin="round"/>
<path d="M91.6598 82.6255C93.308 81.801 105.935 78.5485 106.637 81.3562C107.233 83.7437 104.2 87.8038 103.591 90.2413" stroke="#020207" stroke-width="2" stroke-miterlimit="10" stroke-linecap="round" stroke-linejoin="round"/>
<path d="M103.336 91.5104C102.959 94.1474 102.829 96.9783 102.829 99.6339" stroke="#020207" stroke-width="2" stroke-miterlimit="10" stroke-linecap="round" stroke-linejoin="round"/>
<path d="M107.399 109.28C113.232 103.447 120.62 105.367 118.822 114.357C118.079 118.076 114.004 122.22 111.459 124.765C109.962 126.263 105.367 124.831 105.367 127.304" stroke="#020207" stroke-width="2" stroke-miterlimit="10" stroke-linecap="round" stroke-linejoin="round"/>
<path d="M109.683 114.357C111.619 112.422 111.484 115.655 110.952 116.896C110.246 118.546 107.898 121.215 106.382 121.973" stroke="#020207" stroke-width="2" stroke-miterlimit="10" stroke-linecap="round" stroke-linejoin="round"/>
<path d="M89.1212 83.8948C89.1212 85.3132 86.8497 87.177 86.0753 88.2104C84.0979 90.8453 75.3847 102.539 79.7289 104.711" stroke="#020207" stroke-width="2" stroke-miterlimit="10" stroke-linecap="round" stroke-linejoin="round"/>
<path d="M79.7289 97.8569C80.5406 96.2327 85.5639 96.0784 87.09 96.8415" stroke="#020207" stroke-width="2" stroke-miterlimit="10" stroke-linecap="round" stroke-linejoin="round"/>
<path d="M79.7288 102.68C79.971 102.004 80.5363 101.222 81.2507 101.157C82.2053 101.07 82.6049 102.511 83.282 103.188C83.7044 103.611 84.5513 103.859 84.5513 104.457C84.5513 104.943 83.3089 104.209 83.282 104.203C81.5986 103.866 79.0185 104.664 79.7288 102.68Z" stroke="#020207" stroke-width="2" stroke-miterlimit="10" stroke-linecap="round" stroke-linejoin="round"/>
<path d="M82.7748 103.949L79.4742 102.426" stroke="#020207" stroke-width="2" stroke-miterlimit="10" stroke-linecap="round" stroke-linejoin="round"/>
<path d="M78.4595 103.442C76.8672 104.238 67.4624 111.993 69.3197 113.85C70.8023 115.333 74.5274 113.915 76.4282 114.865" stroke="#020207" stroke-width="2" stroke-miterlimit="10" stroke-linecap="round" stroke-linejoin="round"/>
<path d="M76.1736 112.327L76.683 114.611" stroke="#020207" stroke-width="2" stroke-miterlimit="10" stroke-linecap="round" stroke-linejoin="round"/>
<path d="M72.6203 114.865C72.6203 119.739 69.4502 121.149 74.6516 123.75" stroke="#020207" stroke-width="2" stroke-miterlimit="10" stroke-linecap="round" stroke-linejoin="round"/>
<path d="M75.9209 115.88C76.6269 117.294 78.9357 130.619 76.9354 131.62" stroke="#020207" stroke-width="2" stroke-miterlimit="10" stroke-linecap="round" stroke-linejoin="round"/>
<path d="M76.1736 128.065C74.7904 130.832 72.0986 133.53 69.3198 134.919" stroke="#020207" stroke-width="2" stroke-miterlimit="10" stroke-linecap="round" stroke-linejoin="round"/>
<path d="M69.0672 141.774C69.0672 143.393 68.8643 145.237 69.0672 146.851C69.9141 153.636 77.6458 155.391 83.5368 154.213C84.7605 153.968 86.0029 153.436 87.3446 153.705C91.6764 154.571 102.574 167.75 102.574 171.982" stroke="#020207" stroke-width="2" stroke-miterlimit="10" stroke-linecap="round" stroke-linejoin="round"/>
<path d="M96.737 126.035C98.3376 129.235 98.0063 132.076 98.0063 135.681C98.0063 136.141 98.1243 139.208 96.9896 138.981C95.5132 138.686 94.8258 131.873 94.1984 131.873C93.8671 131.873 93.9437 135.587 93.9437 135.935C93.9437 138.071 93.5171 140.474 92.9291 142.535C91.9103 146.103 89.732 140.146 87.8519 142.028C87.5848 142.295 87.4067 142.67 87.3446 143.043C87.3053 143.275 86.6551 154.104 84.2966 149.389" stroke="#020207" stroke-width="2" stroke-miterlimit="10" stroke-linecap="round" stroke-linejoin="round"/>
<path d="M82.5201 146.851C83.1185 148.646 83.2365 150.567 83.5368 152.435C83.6962 153.442 84.2491 155.804 83.2821 155.482C82.5346 155.233 81.4869 149.957 81.2508 149.135C81.0313 148.363 81.0582 146.283 80.4888 146.851C80.3107 147.03 80.4888 147.358 80.4888 147.612C80.4888 149.135 80.4888 150.658 80.4888 152.182C80.4888 152.273 80.4971 154.85 80.2362 154.72C79.5591 154.381 78.7039 145.616 77.1903 150.912C77.093 151.248 77.0308 151.592 76.9356 151.928C76.7368 152.624 76.4987 153.312 76.1736 153.959" stroke="#020207" stroke-width="2" stroke-miterlimit="10" stroke-linecap="round" stroke-linejoin="round"/>
<path d="M58.4034 145.327C59.3662 143.402 69.8001 131.31 72.113 135.935C73.0137 137.739 69.5744 142.344 68.3051 143.297C61.5321 148.376 62.2051 159.673 54.8502 163.351" stroke="#020207" stroke-width="2" stroke-miterlimit="10" stroke-linecap="round" stroke-linejoin="round"/>
<path d="M59.1654 144.566C60.7639 139.775 58.2999 127.043 56.3742 122.227C55.1028 119.048 49.626 112.912 47.9964 119.434C47.5637 121.165 49.2906 122.399 49.5204 124.004C49.9636 127.117 49.7731 130.443 49.7731 133.65" stroke="#020207" stroke-width="2" stroke-miterlimit="10" stroke-linecap="round" stroke-linejoin="round"/>
<path d="M48.2512 120.45C48.2512 118.283 48.4935 114.092 46.7272 112.327C45.7292 111.328 42.7537 110.868 42.4121 112.58C41.033 119.469 45.1867 126.341 42.9194 133.143" stroke="#020207" stroke-width="2" stroke-miterlimit="10" stroke-linecap="round" stroke-linejoin="round"/>
<path d="M41.65 116.134C42.8136 113.807 38.1071 113.041 37.0801 117.15C35.5789 123.161 39.1424 130.006 37.0801 136.189" stroke="#020207" stroke-width="2" stroke-miterlimit="10" stroke-linecap="round" stroke-linejoin="round"/>
<path d="M36.8275 133.143C36.8275 131.864 34.819 119.423 32.2576 120.704C29.0357 122.315 30.7647 130.504 31.243 132.889C31.8932 136.145 31.6323 140.076 30.9884 143.297C30.1622 147.431 31.537 152.343 32.5123 156.243C33.2184 159.073 33.2805 162.598 35.5582 164.874" stroke="#020207" stroke-width="2" stroke-miterlimit="10" stroke-linecap="round" stroke-linejoin="round"/>
<path d="M35.3035 166.397C35.3035 169.447 35.8108 172.444 35.8108 175.536" stroke="#020207" stroke-width="2" stroke-miterlimit="10" stroke-linecap="round" stroke-linejoin="round"/>
<path d="M32.2576 160.559C30.6218 160.559 29.1206 164.16 28.4497 165.128C25.6233 169.211 25.2444 177.329 31.243 178.328C34.5725 178.884 37.2705 177.428 40.3806 176.805C47.9633 175.289 49.7833 176.875 54.0882 169.697C54.5996 168.845 59.5339 165.497 58.4034 164.367C58.2854 164.247 58.0617 164.325 57.8961 164.367C55.0531 165.078 52.6305 167.729 49.773 168.682" stroke="#020207" stroke-width="2" stroke-miterlimit="10" stroke-linecap="round" stroke-linejoin="round"/>
<path d="M55.3575 161.067L56.1195 165.636" stroke="#020207" stroke-width="2" stroke-miterlimit="10" stroke-linecap="round" stroke-linejoin="round"/>
<path d="M57.3889 162.59C59.3974 163.594 62.2113 167.994 62.2113 170.205C62.2113 171.15 61.644 175.162 61.1967 174.267" stroke="#020207" stroke-width="2" stroke-miterlimit="10" stroke-linecap="round" stroke-linejoin="round"/>
<path d="M61.1967 171.221C62.8532 172.048 62.6545 176.676 63.4807 178.328C64.8141 180.995 66.3837 181.23 68.3052 183.152C70.2868 185.133 67.3258 190.477 66.0192 191.783" stroke="#020207" stroke-width="2" stroke-miterlimit="10" stroke-linecap="round" stroke-linejoin="round"/>
<path d="M64.2425 182.136C64.7975 183.798 61.323 188.967 60.1821 190.767C58.3848 193.602 56.5067 196.385 54.5975 199.144C53.9556 200.069 53.5105 200.484 52.8189 201.175" stroke="#020207" stroke-width="2" stroke-miterlimit="10" stroke-linecap="round" stroke-linejoin="round"/>
<path d="M26.1659 165.128C26.1659 167.551 25.6586 170.464 26.4185 172.744C27.6216 176.352 31.1044 178.875 32.5124 182.39C33.1667 184.026 33.1895 187.892 34.289 188.99C35.0945 189.796 36.5108 187.419 37.3349 187.214C38.6642 186.881 40.0225 187.156 41.3954 186.96C42.2671 186.835 43.0788 186.594 43.9339 186.452C44.1224 186.421 44.4434 186.009 44.4434 186.198C44.4434 186.933 38.1031 193.295 37.0802 194.829" stroke="#020207" stroke-width="2" stroke-miterlimit="10" stroke-linecap="round" stroke-linejoin="round"/>
<path d="M36.0655 191.529C37.4011 188.858 34.0218 194.823 36.5729 196.098C39.948 197.786 41.5175 201.731 42.9193 205.237C44.2362 208.53 47.7315 210.887 49.5205 213.868C50.4336 215.39 50.8167 218.212 52.059 219.453C52.7755 220.17 56.689 214.723 57.6436 216.153C58.447 217.36 54.9849 220.749 55.3576 222.245C55.6475 223.399 60.2671 220.046 60.4348 220.214C61.2547 221.033 58.8507 221.23 56.6269 221.23" stroke="#020207" stroke-width="2" stroke-miterlimit="10" stroke-linecap="round" stroke-linejoin="round"/>
<path d="M53.3284 221.484C53.6328 222.095 62.8077 224.443 63.4807 223.768C63.7871 223.463 63.5987 222.909 63.7354 222.499" stroke="#020207" stroke-width="2" stroke-miterlimit="10" stroke-linecap="round" stroke-linejoin="round"/>
<path d="M94.1984 160.305C95.7845 160.305 87.6553 167.608 86.8353 168.428C82.6505 172.614 80.3708 179.834 77.6976 185.183C70.9805 198.618 67.9097 212.54 65.0046 227.069C63.8534 232.82 61.4515 238.607 61.4515 244.584" stroke="#020207" stroke-width="2" stroke-miterlimit="10" stroke-linecap="round" stroke-linejoin="round"/>
<path d="M98.5135 174.521C96.8426 177.862 93.7905 180.168 91.6598 183.152C86.8621 189.867 83.4518 197.317 79.4741 204.476C77.0681 208.808 73.6909 213.195 72.1131 217.93C70.1791 223.729 70.8438 230.817 70.8438 236.969C70.8438 238.878 70.0569 240.596 70.3364 242.554C70.5311 243.919 71.0964 245.208 71.0964 246.615" stroke="#020207" stroke-width="2" stroke-miterlimit="10" stroke-linecap="round" stroke-linejoin="round"/>
<path d="M138.369 132.889C137.729 134.168 135.758 134.236 134.561 134.919C131.279 136.795 127.097 138.728 124.659 141.774C121.332 145.935 117.911 149.756 114.76 153.959C110.935 159.059 108.711 165.322 104.86 170.459C103.112 172.789 102.529 176.121 101.052 178.582C92.693 192.514 87.3136 209.433 83.7894 225.292C82.1142 232.831 82.1743 241.309 79.7289 248.646" stroke="#020207" stroke-width="2" stroke-miterlimit="10" stroke-linecap="round" stroke-linejoin="round"/>
<path d="M137.1 135.681C139.39 135.681 143.339 140.463 142.177 142.789C140.964 145.214 137.234 147.476 135.323 149.389C132.675 152.036 128.165 155.224 126.183 158.528C124.852 160.747 122.972 163.263 121.106 165.128C119.118 167.117 114.408 166.75 113.49 167.667C112.449 168.709 111.848 170.95 111.207 172.236C109.979 174.692 107.827 176.863 107.144 179.598C105.866 184.713 104.458 190.807 102.067 195.591C93.9417 211.842 90.227 228.83 84.5514 245.854" stroke="#020207" stroke-width="2" stroke-miterlimit="10" stroke-linecap="round" stroke-linejoin="round"/>
<path d="M141.415 143.043L145.475 144.312" stroke="#020207" stroke-width="2" stroke-miterlimit="10" stroke-linecap="round" stroke-linejoin="round"/>
<path d="M142.939 143.551C145.308 144.736 148.296 143.212 150.553 144.566C153.017 146.044 153.468 149.512 155.377 151.42C157.692 153.735 159.117 156.323 160.962 158.782C162.252 160.503 165.182 162.146 166.039 163.859" stroke="#020207" stroke-width="2" stroke-miterlimit="10" stroke-linecap="round" stroke-linejoin="round"/>
<path d="M170.099 168.936C170.607 167.922 167.436 166.303 166.546 165.636C165.151 164.589 163.863 163.407 162.486 162.336C158.332 159.106 151.018 158.824 145.985 159.543C143.695 159.87 141.169 161.267 139.131 162.082C136.466 163.148 133.327 163.583 130.753 165.128C123.133 169.7 111.966 181.377 109.175 189.752" stroke="#020207" stroke-width="2" stroke-miterlimit="10" stroke-linecap="round" stroke-linejoin="round"/>
<path d="M167.053 164.874C168.151 164.874 171.559 175.917 172.638 178.075C174.214 181.224 174.752 184.075 175.431 187.467C175.988 190.254 177.672 192.827 178.224 195.591C179.073 199.841 179.291 204.029 180.001 208.283C180.755 212.812 179.245 217.717 180.001 222.245C180.399 224.638 181.896 226.767 182.285 229.1C182.364 229.573 182.072 230.704 182.285 231.13C182.569 231.697 184.571 232.627 184.571 233.415C184.571 234.195 183.345 232.443 182.792 231.892C182.242 231.34 181.569 230.92 181.016 230.369C178.806 228.158 176.516 225.996 173.4 225.038C173.172 224.967 168.07 224.245 168.07 224.53C168.07 224.998 169.884 224.995 170.099 225.038C171.781 225.374 173.708 226.09 175.177 227.069C178.191 229.078 180.152 232.539 182.54 235.192C182.705 235.376 185.867 238.21 185.838 238.238C185.571 238.506 185.126 237.957 184.824 237.731C182.956 236.329 181.196 234.719 179.239 233.415C177.872 232.504 176.392 231.61 174.924 230.876" stroke="#020207" stroke-width="2" stroke-miterlimit="10" stroke-linecap="round" stroke-linejoin="round"/>
<path d="M169.847 197.875C171.787 195.935 166.948 188.202 165.531 186.452C163.192 183.563 160.655 180.838 158.168 178.075C151.658 170.839 141.386 168.333 132.022 170.205C127.89 171.032 126.599 173.575 123.645 175.79C123.419 175.96 121.611 178.201 121.868 178.328C122.425 178.607 125.063 176.815 125.676 176.552C127.745 175.665 130.59 175.305 132.784 175.536C138.164 176.102 143.635 179.275 148.269 181.883C152.105 184.041 155.831 186.403 159.692 188.483C159.854 188.569 162.31 189.609 162.738 189.752C163.245 189.921 164.639 189.881 164.262 190.26C163.945 190.577 163.254 190.137 162.993 190.006" stroke="#020207" stroke-width="2" stroke-miterlimit="10" stroke-linecap="round" stroke-linejoin="round"/>
<path d="M169.592 199.145C169.592 194.854 163.482 190.657 160.2 188.737C157.156 186.955 154.118 185.164 151.062 183.406C140.775 177.491 128.832 179.943 121.361 188.483C120.711 189.225 119.758 189.655 119.33 190.514" stroke="#020207" stroke-width="2" stroke-miterlimit="10" stroke-linecap="round" stroke-linejoin="round"/>
<path d="M163.245 193.306C161.396 197.007 163.751 206.49 164.262 210.568C164.606 213.318 163.668 215.969 164.007 218.691C164.223 220.415 165.126 221.987 164.769 223.768C164.589 224.665 163.722 225.419 163.5 226.307C163.38 226.786 167.937 228.977 167.053 229.861C166.83 230.085 165.194 228.255 165.022 228.084C163.337 226.396 162.386 224.294 161.216 222.245C160.854 221.613 159.947 220.468 159.947 220.468C159.947 220.468 160.067 220.842 160.2 220.976C160.438 221.213 163.504 224.143 163.755 223.768C164.488 222.669 162.264 220.129 161.724 219.453C158.721 215.702 154.731 212.853 149.793 212.853" stroke="#020207" stroke-width="2" stroke-miterlimit="10" stroke-linecap="round" stroke-linejoin="round"/>
<path d="M164.262 228.084C166.898 229.403 165.432 239.901 164.77 242.554C163.42 247.955 164.509 257.031 160.2 261.34C158.564 262.976 155.377 262.05 153.601 263.116C150.987 264.684 151.441 268.701 147.507 268.701" stroke="#020207" stroke-width="2" stroke-miterlimit="10" stroke-linecap="round" stroke-linejoin="round"/>
<path d="M115.014 194.575C115.014 199.685 115.973 204.484 116.536 209.553C116.747 211.447 114.621 212.924 115.014 214.884C115.366 216.641 116.749 218.189 117.046 219.961C117.356 221.83 115.325 223.181 116.029 225.292C116.435 226.506 118.317 226.815 119.33 226.815C123.409 226.815 128.144 225.02 132.275 226.053C135.159 226.774 133.861 227.322 131.515 227.322" stroke="#020207" stroke-width="2" stroke-miterlimit="10" stroke-linecap="round" stroke-linejoin="round"/>
<path d="M118.06 230.369C123.928 230.369 129.939 227.849 135.83 230.115C137.332 230.692 139.112 231.399 140.4 232.399C141.369 233.155 148.037 239.517 143.446 237.477C142.096 236.877 140.715 236.111 139.384 235.446" stroke="#020207" stroke-width="2" stroke-miterlimit="10" stroke-linecap="round" stroke-linejoin="round"/>
<path d="M121.106 227.576C125.896 229.971 128.308 234.939 131.768 238.746C132.257 239.283 135.068 241.745 135.068 242.554C135.068 243.352 133.638 241.81 133.037 241.284C132.228 240.575 131.515 239.761 130.753 239C129.749 237.995 122.527 230.657 121.868 230.876C121.288 231.07 121.771 231.698 121.868 231.892C122.777 233.709 124.111 235.947 125.421 237.477C126.448 238.673 125.943 237.753 126.691 239C126.788 239.162 127.078 239.641 126.945 239.507C126.038 238.601 125.324 237.378 124.407 236.461C123.771 235.825 123.011 235.32 122.376 234.684" stroke="#020207" stroke-width="2" stroke-miterlimit="10" stroke-linecap="round" stroke-linejoin="round"/>
<path d="M120.092 233.415C118.561 234.18 116.4 234.356 114.76 234.684C110.54 235.528 106.748 238.673 102.574 239.507C101.009 239.821 99.2942 240.009 97.7516 240.523" stroke="#020207" stroke-width="2" stroke-miterlimit="10" stroke-linecap="round" stroke-linejoin="round"/>
<path d="M97.7516 240.269C99.2486 243.264 96.329 248.184 97.4989 251.693C98.3831 254.347 99.6276 256.817 101.305 259.054C102.038 260.031 103.336 262.1 103.336 262.1C103.336 262.1 103.102 261.195 102.829 260.83C101.938 259.646 101.065 258.312 100.29 257.022C98.6502 254.289 97.1676 251.446 96.2297 248.392C95.6789 246.603 95.1074 245.306 95.975 243.569C96.3166 242.887 96.8819 242.254 97.4989 241.792C97.6501 241.679 98.174 241.623 98.0063 241.538C94.921 239.995 94.451 247.664 94.451 248.9" stroke="#020207" stroke-width="2" stroke-miterlimit="10" stroke-linecap="round" stroke-linejoin="round"/>
<path d="M96.2296 241.284C95.331 242.182 86.2616 244.658 84.2966 244.331C83.195 244.147 82.1742 243.119 80.9981 243.315C77.2813 243.935 75.3432 246.961 71.0964 244.838" stroke="#020207" stroke-width="2" stroke-miterlimit="10" stroke-linecap="round" stroke-linejoin="round"/>
<path d="M75.6663 245.346C74.4902 247.701 72.8047 249.489 71.8584 251.945C70.2868 256.033 70.8666 260.897 70.3365 265.148C70.1253 266.823 69.0568 272.498 70.3365 273.778C70.9183 274.36 83.6134 271.117 85.0587 270.985C87.1997 270.79 90.8233 271.91 92.6744 270.985" stroke="#020207" stroke-width="2" stroke-miterlimit="10" stroke-linecap="round" stroke-linejoin="round"/>
<path d="M71.8584 273.271C73.1422 273.911 71.9909 276.143 71.8584 277.331C71.4443 281.058 71.4857 285.038 76.1736 285.709C79.4473 286.177 84.1269 282.257 86.8352 280.632C94.5193 276.023 110.699 275.511 110.699 263.116" stroke="#020207" stroke-width="2" stroke-miterlimit="10" stroke-linecap="round" stroke-linejoin="round"/>
<path d="M94.7057 277.079C100.663 280.056 106.125 274.73 111.714 274.031C115.118 273.606 117.965 275.613 121.361 275.047C127.8 273.973 133.286 271.304 139.638 269.715C143.073 268.856 147.656 268.806 150.3 266.162" stroke="#020207" stroke-width="2" stroke-miterlimit="10" stroke-linecap="round" stroke-linejoin="round"/>
<path d="M133.544 258.292C131.668 260.168 128.072 260.381 125.676 261.34C122.715 262.524 119.947 263.903 117.046 265.148C115.919 265.628 113.138 266.728 112.476 265.4" stroke="#020207" stroke-width="2" stroke-miterlimit="10" stroke-linecap="round" stroke-linejoin="round"/>
<path d="M121.106 262.1C118.791 261.174 117.126 258.969 114.76 258.292C114.515 258.223 114.047 258.043 113.998 258.292C113.749 259.54 117.097 268.85 113.238 264.638C112.664 264.015 112.227 263.28 111.714 262.609C111.128 261.841 110.554 261.064 109.937 260.323C109.285 259.54 108.583 258.801 107.906 258.039" stroke="#020207" stroke-width="2" stroke-miterlimit="10" stroke-linecap="round" stroke-linejoin="round"/>
<path d="M73.3969 244.987C64.2012 244.987 48.2801 243.412 43.3168 253.343C41.3415 257.292 48.5059 257.093 49.0463 259.789C49.301 261.066 48.3796 262.514 49.0463 263.847C49.4169 264.591 53.3429 266.338 53.3429 265.995C53.3429 265.914 51.9555 264.618 52.8645 265.756C54.1007 267.301 54.8109 269.374 56.2065 270.769C56.6434 271.206 58.3558 272.229 58.3558 272.919C58.3558 273.855 56.9644 274.087 57.8796 275.306C58.4966 276.128 66.7833 277.201 67.9055 276.977C69.6449 276.629 71.4318 275.403 73.1567 274.828" stroke="#020207" stroke-width="2" stroke-miterlimit="10" stroke-linecap="round" stroke-linejoin="round"/>
<path d="M60.7434 277.453C62.1721 277.453 61.729 284.278 61.936 286.765C62.7063 295.99 62.5738 306.821 65.5182 315.65" stroke="#020207" stroke-width="2" stroke-miterlimit="10" stroke-linecap="round" stroke-linejoin="round"/>
<path d="M183.451 235.915C184.749 236.564 183.85 241.963 184.167 243.793C184.54 245.962 184.902 248.151 185.598 250.239C186.018 251.5 188.385 255.886 187.747 257.161C187.286 258.087 184.505 258.52 183.689 258.356C182.403 258.099 182.351 256.399 183.689 256.207C186.265 255.84 191.884 257.683 190.373 261.46C188.319 266.593 179.08 260.706 176.288 259.311" stroke="#020207" stroke-width="2" stroke-miterlimit="10" stroke-linecap="round" stroke-linejoin="round"/>
<path d="M187.747 263.607C188.292 263.607 188.462 269.096 190.373 270.531C191.201 271.152 194.829 270.846 195.148 271.486C198.475 278.139 199.978 285.444 203.265 292.016C205.845 297.176 210.228 297.961 212.098 304.191C213.009 307.229 215.566 313.01 214.007 316.129" stroke="#020207" stroke-width="2" stroke-miterlimit="10" stroke-linecap="round" stroke-linejoin="round"/>
<path d="M161.487 257.64C163.225 257.64 164.589 260.13 165.784 261.22C169.283 264.415 171.851 267.527 175.094 270.769C179.641 275.314 183.61 279.381 186.314 285.332C191.027 295.7 192.773 306.479 199.206 316.129" stroke="#020207" stroke-width="2" stroke-miterlimit="10" stroke-linecap="round" stroke-linejoin="round"/>
<path d="M86.2865 283.661C87.3094 282.64 86.8373 291.387 86.7648 292.254C86.33 297.485 85.6881 302.862 84.6155 308.012C84.22 309.917 82.4579 313.959 83.4228 315.89" stroke="#020207" stroke-width="2" stroke-miterlimit="10" stroke-linecap="round" stroke-linejoin="round"/>
<path d="M81.0355 286.883C80.2135 282.721 84.3837 287.461 82.9446 291.778C82.0667 294.414 79.143 292.457 80.3191 290.107C81.1929 288.357 81.5635 289.558 81.0355 286.883Z" stroke="#020207" stroke-width="2" stroke-miterlimit="10" stroke-linecap="round" stroke-linejoin="round"/>
<path d="M81.6318 270.053C84.9821 269.763 87.4006 263.412 82.9446 261.698C81.7126 261.224 78.7412 270.304 81.6318 270.053Z" stroke="#020207" stroke-width="2" stroke-miterlimit="10" stroke-linecap="round" stroke-linejoin="round"/>
<path d="M64.3235 174.562C66.0794 174.562 60.2298 179.759 59.5507 180.291C57.1819 182.147 54.8089 183.997 52.3884 185.782C48.7523 188.461 46.8039 188.408 42.8387 188.408" stroke="#020207" stroke-width="2" stroke-miterlimit="10" stroke-linecap="round" stroke-linejoin="round"/>
<path d="M58.3559 179.336C58.3559 179.496 58.4739 179.707 58.3559 179.814C56.602 181.414 54.9455 183.204 52.8646 184.35C47.9013 187.085 40.2213 187.213 34.7217 187.931" stroke="#020207" stroke-width="2" stroke-miterlimit="10" stroke-linecap="round" stroke-linejoin="round"/>
<path d="M79.8406 103.182C80.3665 103.425 82.0913 102.704 81.5136 102.704C81.3356 102.704 80.3272 104.857 80.3189 104.853C79.3333 104.359 80.7268 101.342 80.3189 101.749C78.4926 103.576 78.4181 102.523 79.8406 103.182Z" stroke="#020207" stroke-width="2" stroke-miterlimit="10" stroke-linecap="round" stroke-linejoin="round"/>
<path d="M79.4845 102.585C83.0874 103.256 78.6148 101.544 78.1697 101.988C77.7721 102.387 81.522 104.356 81.99 103.42C82.2757 102.848 79.0766 102.509 79.4845 102.585Z" stroke="#020207" stroke-width="2" stroke-miterlimit="10" stroke-linecap="round" stroke-linejoin="round"/>
<path d="M80.5571 98.1683C82.2115 97.3415 91.5314 96.5797 88.9141 97.452" stroke="#020207" stroke-width="2" stroke-miterlimit="10" stroke-linecap="round" stroke-linejoin="round"/>
<path d="M82.4683 96.736C86.2078 94.8656 91.8503 101.639 88.4358 99.362" stroke="#020207" stroke-width="2" stroke-miterlimit="10" stroke-linecap="round" stroke-linejoin="round"/>
<path d="M87.2432 97.9295C88.4959 97.9295 82.8534 96.736 81.5137 96.736C81.1948 96.736 80.5571 96.4176 80.5571 96.736C80.5571 96.9139 80.8615 96.9398 81.0354 96.9748C83.0419 97.3759 84.8454 96.2585 86.7648 96.2585C86.9243 96.2585 86.446 96.2585 86.2865 96.2585C85.5618 96.2585 84.8516 96.3954 84.1393 96.4973C82.9673 96.6644 81.7249 97.2133 80.5571 97.2133" stroke="#020207" stroke-width="2" stroke-miterlimit="10" stroke-linecap="round" stroke-linejoin="round"/>
<path d="M73.3969 113.447C73.1567 113.368 72.9185 113.288 72.6804 113.208" stroke="#020207" stroke-width="2" stroke-miterlimit="10" stroke-linecap="round" stroke-linejoin="round"/>
<path d="M104.191 101.033C105.026 101.588 110.443 109.095 108.25 105.808" stroke="#020207" stroke-width="2" stroke-miterlimit="10" stroke-linecap="round" stroke-linejoin="round"/>
<path d="M102.999 100.317C105.057 100.317 107.295 108.1 107.295 110.582" stroke="#020207" stroke-width="2" stroke-miterlimit="10" stroke-linecap="round" stroke-linejoin="round"/>
<g opacity="0.4">
<path d="M39.3721 70.0002H34.3964V55.9799H39.3721V70.0002ZM36.8816 54.0674C35.2905 54.0674 34 52.9143 34 51.5221C34 50.8534 34.3036 50.212 34.844 49.7392C35.3844 49.2663 36.1174 49.0007 36.8816 49.0007C37.6459 49.0007 38.3788 49.2663 38.9192 49.7392C39.4596 50.212 39.7632 50.8534 39.7632 51.5221C39.7632 52.9143 38.4721 54.0674 36.8816 54.0674ZM57.9946 70.0002H53.0296V63.1752C53.0296 61.5486 52.9921 59.4627 50.4427 59.4627C47.8557 59.4627 47.4593 61.2299 47.4593 63.058V70.0002H42.4889V55.9799H47.2611V57.8924H47.3307C47.995 56.7908 49.6177 55.6283 52.0386 55.6283C57.0743 55.6283 58 58.5299 58 62.2986V70.0002H57.9946Z" fill="url(#paint0_linear_155_5507)"/>
</g>
<g opacity="0.4" clip-path="url(#clip1_155_5507)">
<path d="M360.372 248H355.396V233.98H360.372V248ZM357.882 232.067C356.291 232.067 355 230.914 355 229.522C355 228.853 355.304 228.212 355.844 227.739C356.384 227.266 357.117 227.001 357.882 227.001C358.646 227.001 359.379 227.266 359.919 227.739C360.46 228.212 360.763 228.853 360.763 229.522C360.763 230.914 359.472 232.067 357.882 232.067ZM378.995 248H374.03V241.175C374.03 239.549 373.992 237.463 371.443 237.463C368.856 237.463 368.459 239.23 368.459 241.058V248H363.489V233.98H368.261V235.892H368.331C368.995 234.791 370.618 233.628 373.039 233.628C378.074 233.628 379 236.53 379 240.299V248H378.995Z" fill="url(#paint1_linear_155_5507)"/>
</g>
<g opacity="0.4" clip-path="url(#clip2_155_5507)">
<path d="M201.857 71C200.646 71 199.533 71.3665 198.654 71.9795L193.164 68.9769C193.326 68.3334 193.326 67.6666 193.164 67.023L198.654 64.0205C199.533 64.6335 200.646 65 201.857 65C204.697 65 207 62.9853 207 60.5C207 58.0147 204.697 56 201.857 56C199.017 56 196.714 58.0147 196.714 60.5C196.714 60.8355 196.757 61.1623 196.836 61.4769L191.346 64.4795C190.467 63.8665 189.354 63.5 188.143 63.5C185.303 63.5 183 65.5147 183 68C183 70.4853 185.303 72.5 188.143 72.5C189.354 72.5 190.467 72.1335 191.346 71.5205L196.836 74.5231C196.755 74.8439 196.714 75.1714 196.714 75.5C196.714 77.9853 199.017 80 201.857 80C204.697 80 207 77.9853 207 75.5C207 73.0147 204.697 71 201.857 71Z" fill="url(#paint2_linear_155_5507)"/>
</g>
<g opacity="0.4" clip-path="url(#clip3_155_5507)">
<path d="M357.857 25C356.646 25 355.533 25.3665 354.654 25.9795L349.164 22.9769C349.326 22.3334 349.326 21.6666 349.164 21.023L354.654 18.0205C355.533 18.6335 356.646 19 357.857 19C360.697 19 363 16.9853 363 14.5C363 12.0147 360.697 10 357.857 10C355.017 10 352.714 12.0147 352.714 14.5C352.714 14.8355 352.757 15.1623 352.836 15.4769L347.346 18.4795C346.467 17.8665 345.354 17.5 344.143 17.5C341.303 17.5 339 19.5147 339 22C339 24.4853 341.303 26.5 344.143 26.5C345.354 26.5 346.467 26.1335 347.346 25.5205L352.836 28.5231C352.755 28.8439 352.714 29.1714 352.714 29.5C352.714 31.9853 355.017 34 357.857 34C360.697 34 363 31.9853 363 29.5C363 27.0147 360.697 25 357.857 25Z" fill="url(#paint3_linear_155_5507)"/>
</g>
<rect opacity="0.4" x="26" y="284" width="334" height="6" rx="3" fill="url(#paint4_linear_155_5507)"/>
</g>
<defs>
<linearGradient id="paint0_linear_155_5507" x1="34" y1="60.2373" x2="56.2835" y2="58.3209" gradientUnits="userSpaceOnUse">
<stop stop-color="#603DEB"/>
<stop offset="1" stop-color="#27C1D6"/>
</linearGradient>
<linearGradient id="paint1_linear_155_5507" x1="355" y1="238.237" x2="377.283" y2="236.321" gradientUnits="userSpaceOnUse">
<stop stop-color="#603DEB"/>
<stop offset="1" stop-color="#27C1D6"/>
</linearGradient>
<linearGradient id="paint2_linear_155_5507" x1="183" y1="68.8421" x2="205.322" y2="67.1624" gradientUnits="userSpaceOnUse">
<stop stop-color="#603DEB"/>
<stop offset="1" stop-color="#27C1D6"/>
</linearGradient>
<linearGradient id="paint3_linear_155_5507" x1="339" y1="22.8421" x2="361.322" y2="21.1624" gradientUnits="userSpaceOnUse">
<stop stop-color="#603DEB"/>
<stop offset="1" stop-color="#27C1D6"/>
</linearGradient>
<linearGradient id="paint4_linear_155_5507" x1="26" y1="287.211" x2="42.8447" y2="216.651" gradientUnits="userSpaceOnUse">
<stop stop-color="#603DEB"/>
<stop offset="1" stop-color="#27C1D6"/>
</linearGradient>
<clipPath id="clip0_155_5507">
<rect width="390" height="290" rx="16" fill="white"/>
</clipPath>
<clipPath id="clip1_155_5507">
<rect width="24" height="24" fill="white" transform="translate(355 227)"/>
</clipPath>
<clipPath id="clip2_155_5507">
<rect width="24" height="24" fill="white" transform="translate(183 56)"/>
</clipPath>
<clipPath id="clip3_155_5507">
<rect width="24" height="24" fill="white" transform="translate(339 10)"/>
</clipPath>
</defs>
</svg>
