<svg width="390" height="290" viewBox="0 0 390 290" fill="none" xmlns="http://www.w3.org/2000/svg">
<g clip-path="url(#clip0_155_5813)">
<rect opacity="0.4" x="98" y="197" width="198" height="36" rx="18" fill="url(#paint0_linear_155_5813)"/>
<path d="M222.232 188.631C220.534 187.783 223.887 190.824 224.516 191.295C226.415 192.72 228.1 195.258 229.845 197.007" stroke="#020207" stroke-width="2" stroke-miterlimit="10" stroke-linecap="round" stroke-linejoin="round"/>
<path d="M211.639 75.2081C210.597 73.1248 208.592 72.9237 206.69 72.1629C198.856 69.0291 194.083 74.979 195.651 82.8212C195.934 84.2343 197.155 86.3235 196.793 87.77C196.441 89.1778 195.157 90.2807 194.51 91.5763" stroke="#020207" stroke-width="2" stroke-miterlimit="10" stroke-linecap="round" stroke-linejoin="round"/>
<path d="M210.878 75.9695C210.878 72.2661 205.638 76.7538 205.168 78.6342C204.704 80.4887 203.274 98.0569 200.219 95.0024" stroke="#020207" stroke-width="2" stroke-miterlimit="10" stroke-linecap="round" stroke-linejoin="round"/>
<path d="M197.935 90.0537C197.352 89.5985 198.667 88.7661 199.077 88.1506C199.488 87.535 198.519 90.5093 197.935 90.0537Z" stroke="#020207" stroke-width="2" stroke-miterlimit="10" stroke-linecap="round" stroke-linejoin="round"/>
<path d="M209.355 77.8728C209.355 78.1834 207.848 95.4152 205.168 90.0538" stroke="#020207" stroke-width="2" stroke-miterlimit="10" stroke-linecap="round" stroke-linejoin="round"/>
<path d="M197.935 90.4346C196.444 89.6889 200.568 92.687 201.361 93.4799C203.88 95.998 208.727 98.1427 210.497 101.093C212.879 105.063 209.421 108.442 208.594 111.751C207.126 117.623 208.594 125.831 208.594 131.926" stroke="#020207" stroke-width="2" stroke-miterlimit="10" stroke-linecap="round" stroke-linejoin="round"/>
<path d="M197.174 92.3378C194.943 91.2223 194.411 99.6795 194.129 101.093C192.65 108.485 197.576 114.546 198.696 121.268C198.916 122.585 199.034 128.838 199.838 129.642C201.916 131.719 202.884 124.706 202.884 124.313C202.884 117.643 201.742 110.727 201.742 104.138" stroke="#020207" stroke-width="2" stroke-miterlimit="10" stroke-linecap="round" stroke-linejoin="round"/>
<path d="M201.171 130.594C203.611 127.332 204.803 132.93 204.026 133.449C201.169 135.354 199.888 132.309 201.171 130.594Z" stroke="#020207" stroke-width="2" stroke-miterlimit="10" stroke-linecap="round" stroke-linejoin="round"/>
<path d="M194.89 136.113C194.382 136.367 192.8 136.875 193.367 136.875C198.942 136.875 202.532 130.333 208.594 131.545C210.717 131.97 213.273 145.788 212.4 147.533C211.474 149.385 193.005 149.127 192.606 147.533C191.737 144.055 193.459 139.461 194.129 136.113C194.161 135.952 193.979 134.591 194.509 134.591C196.732 134.591 194.4 141.04 196.413 141.442C200.165 142.193 205.553 140.908 208.974 139.539C209.347 139.39 210.116 139.56 210.116 139.158C210.116 138.397 208.594 139.158 207.832 139.158" stroke="#020207" stroke-width="2" stroke-miterlimit="10" stroke-linecap="round" stroke-linejoin="round"/>
<path d="M198.316 113.654C197.688 112.398 191.845 123.624 191.845 126.216C191.845 128.045 199.458 129.137 199.458 131.165C199.458 132.335 197.524 129.794 196.793 128.881C196.491 128.502 193.93 124.512 193.368 125.074C192.184 126.258 191.108 137.255 192.606 137.255" stroke="#020207" stroke-width="2" stroke-miterlimit="10" stroke-linecap="round" stroke-linejoin="round"/>
<path d="M209.355 147.533C208.113 150.016 214.488 156.013 212.781 158.573C211.922 159.862 208.049 157.922 207.452 159.714C207.003 161.059 209.403 161.296 207.452 162.758C205.053 164.559 193.709 162.7 192.225 160.476C190.778 158.305 193.254 148.788 194.89 147.152" stroke="#020207" stroke-width="2" stroke-miterlimit="10" stroke-linecap="round" stroke-linejoin="round"/>
<path d="M205.168 163.141C205.168 170.453 210.306 176.649 211.639 183.314C211.734 183.792 212.12 189.026 212.781 189.026C213.062 189.026 212.58 187.323 212.401 187.502C211.792 188.11 213.039 190.312 213.162 190.928C213.493 192.588 211.954 193.461 212.401 194.355C213.381 196.313 214.277 192.07 214.684 192.07C215.967 192.07 214.07 196.575 215.446 192.452" stroke="#020207" stroke-width="2" stroke-miterlimit="10" stroke-linecap="round" stroke-linejoin="round"/>
<path d="M208.594 160.855C207.866 163.039 209.351 164.908 210.116 166.947C211.333 170.191 221.094 191.555 220.394 194.355C219.886 196.384 217.006 192.905 216.587 192.07C216.347 191.588 215.446 190.389 215.446 190.928C215.446 191.336 218.42 195.185 218.11 195.496C217.579 196.027 213.898 191.258 215.065 193.593" stroke="#020207" stroke-width="2" stroke-miterlimit="10" stroke-linecap="round" stroke-linejoin="round"/>
<path d="M197.935 162.379C197.179 162.632 187.637 184.797 187.277 184.076" stroke="#020207" stroke-width="2" stroke-miterlimit="10" stroke-linecap="round" stroke-linejoin="round"/>
<path d="M193.748 158.573C192.133 157.765 191.018 162.508 190.322 163.902C188.229 168.088 187.784 172.785 185.754 176.843C185.566 177.22 182.029 182.962 183.09 183.314C183.47 183.44 183.851 183.061 184.232 182.934" stroke="#020207" stroke-width="2" stroke-miterlimit="10" stroke-linecap="round" stroke-linejoin="round"/>
<path d="M188.038 182.552C186.652 185.325 186.135 194.053 186.135 186.361C186.135 185.346 186.135 188.39 186.135 189.405C186.135 190.179 186.629 193.861 186.135 194.355C185.332 195.157 185.12 192.322 184.612 191.308C184.269 190.623 183.137 184.076 182.328 184.076C182.236 184.076 183.059 188.082 183.09 188.264C183.353 189.843 183.47 191.598 183.47 193.211" stroke="#020207" stroke-width="2" stroke-miterlimit="10" stroke-linecap="round" stroke-linejoin="round"/>
<path d="M182.709 184.458C182.412 184.606 178.179 192.659 179.283 193.211C180.469 193.806 184.232 186.531 184.232 191.69C184.232 192.322 184.232 192.958 184.232 193.593" stroke="#020207" stroke-width="2" stroke-miterlimit="10" stroke-linecap="round" stroke-linejoin="round"/>
<path d="M202.429 138.935C202.483 138.986 200.763 139.448 201.514 140.949C202.043 142.006 203.605 141.944 204.443 141.315C208.588 138.206 200.25 136.86 202.429 138.935Z" stroke="#020207" stroke-width="2" stroke-miterlimit="10" stroke-linecap="round" stroke-linejoin="round"/>
<path d="M290.038 200.643C287.084 200.643 284.055 210.226 284.909 212.36C285.77 214.509 290.038 213.834 290.769 216.755C291.534 219.811 286.55 222.041 287.108 223.712C287.784 225.739 291.377 225.43 289.671 228.841" stroke="#020207" stroke-width="2" stroke-miterlimit="10" stroke-linecap="round" stroke-linejoin="round"/>
<path d="M295.531 198.811C311.47 198.811 327.18 199.163 343.137 197.713C358.046 196.356 373.581 198.444 388.548 198.444C421.406 198.444 454.196 198.081 487.057 198.081" stroke="#020207" stroke-width="2" stroke-miterlimit="10" stroke-linecap="round" stroke-linejoin="round"/>
<path d="M292.601 202.108C290.47 202.108 293.638 208.625 294.433 210.531C295.695 213.557 296.876 220.665 299.192 222.982C299.914 223.703 307.945 223.703 309.447 224.079C319.266 226.534 329.493 229.298 339.11 232.502" stroke="#020207" stroke-width="2" stroke-miterlimit="10" stroke-linecap="round" stroke-linejoin="round"/>
<path d="M329.953 217.489C331.711 222.759 334.659 227.308 337.277 232.135C344.821 246.032 352.325 258.677 360.35 272.053" stroke="#020207" stroke-width="2" stroke-miterlimit="10" stroke-linecap="round" stroke-linejoin="round"/>
<path d="M112.792 195.882C121.96 195.882 132.586 193.994 141.723 195.515C148.752 196.687 156.231 195.601 163.329 196.616C179.169 198.876 197.806 197.476 213.5 195.515C217.699 194.99 222.129 196.113 226.317 195.515C242.192 193.248 257.297 196.646 272.459 198.811C277.329 199.508 285.335 198.475 289.671 200.643" stroke="#020207" stroke-width="2" stroke-miterlimit="10" stroke-linecap="round" stroke-linejoin="round"/>
<path d="M260.374 196.616C251.355 193.609 250.58 213.742 251.219 218.22C251.585 220.779 252.549 223.179 254.149 225.177C254.744 225.924 257.3 227.009 256.346 227.009C250.189 227.009 254.921 206.787 256.346 203.937C257.329 201.973 258.677 200.375 259.642 198.444C259.764 198.201 260.008 197.713 260.008 197.713C260.008 197.713 257.314 203.231 256.346 206.136C254.071 212.961 251.402 224.539 259.276 228.474" stroke="#020207" stroke-width="2" stroke-miterlimit="10" stroke-linecap="round" stroke-linejoin="round"/>
<path d="M255.98 229.939C255.98 228.126 261.368 228.107 262.938 228.107C271.521 228.107 279.778 226.278 288.206 226.278" stroke="#020207" stroke-width="2" stroke-miterlimit="10" stroke-linecap="round" stroke-linejoin="round"/>
<path d="M258.544 229.939C255.804 229.939 262.97 229.853 264.037 229.939C266.482 230.134 268.922 230.402 271.361 230.67C277.832 231.392 284.219 231.771 290.769 231.771" stroke="#020207" stroke-width="2" stroke-miterlimit="10" stroke-linecap="round" stroke-linejoin="round"/>
<path d="M112.06 197.346C109.893 199.515 109.202 210.54 108.764 213.461C108.487 215.305 107.445 231.478 108.764 232.135C110.786 233.147 117.833 231.771 120.483 231.771C130.409 231.771 140.519 231.404 150.512 231.404" stroke="#020207" stroke-width="2" stroke-miterlimit="10" stroke-linecap="round" stroke-linejoin="round"/>
<path d="M203.612 215.29C206.311 209.893 221.189 221.517 224.852 222.248C228.425 222.963 230.837 224.937 233.275 227.376C236.471 230.572 242.57 230.05 246.092 232.869C247.64 234.106 247.226 235.238 247.557 236.897C248.084 239.531 250.035 241.881 250.487 244.589C251.618 251.377 250.487 260.367 250.487 267.294" stroke="#020207" stroke-width="2" stroke-miterlimit="10" stroke-linecap="round" stroke-linejoin="round"/>
<path d="M205.077 216.391C201.707 214.704 206.139 224.493 207.274 225.911C210.72 230.217 217.141 231.901 221.556 235.432C223.285 236.817 224.833 239.084 226.683 240.194C227.792 240.857 228.267 240.431 228.881 241.659" stroke="#020207" stroke-width="2" stroke-miterlimit="10" stroke-linecap="round" stroke-linejoin="round"/>
<path d="M208.373 228.107C192.017 228.107 176.299 222.247 160.033 222.247C155.62 222.247 150.752 223.379 146.484 224.446C146.219 224.511 145.817 224.548 145.751 224.813C144.965 227.956 154.484 232.117 156.737 232.869C170.707 237.526 185.66 234.057 199.95 237.631" stroke="#020207" stroke-width="2" stroke-miterlimit="10" stroke-linecap="round" stroke-linejoin="round"/>
<path d="M153.808 231.404C148.274 231.404 146.857 231.861 141.357 233.236C139.993 233.575 138.17 233.06 136.962 233.967C133.258 236.746 136.737 241.32 140.258 242.023C148.356 243.645 157.408 240.768 165.526 242.39C177.916 244.869 190.685 244.589 203.612 244.589" stroke="#020207" stroke-width="2" stroke-miterlimit="10" stroke-linecap="round" stroke-linejoin="round"/>
<path d="M147.582 240.558C140.82 240.558 147.557 244.308 150.146 244.953C157.079 246.686 164.866 246.785 172.118 246.785C179.736 246.785 186.855 249.005 194.091 250.812C198.067 251.809 202.1 251.889 205.809 253.742C208.449 255.062 213.095 255.278 214.965 257.77C217.429 261.058 216.335 267.149 218.627 270.588" stroke="#020207" stroke-width="2" stroke-miterlimit="10" stroke-linecap="round" stroke-linejoin="round"/>
<path d="M215.697 271.686C226.802 273.909 238.543 275.954 249.754 273.151C250.242 273.03 257.442 269.851 257.079 269.123C255.91 266.788 248.507 270.927 247.191 271.322C241.288 273.092 227.841 278.397 224.12 270.955" stroke="#020207" stroke-width="2" stroke-miterlimit="10" stroke-linecap="round" stroke-linejoin="round"/>
<path d="M215.697 273.518C210.613 276.059 209.346 284.056 216.429 285.237C219.094 285.681 220.979 284.127 223.387 283.405C228.789 281.786 233.297 281.219 238.402 283.772" stroke="#020207" stroke-width="2" stroke-miterlimit="10" stroke-linecap="round" stroke-linejoin="round"/>
<path d="M258.91 268.759C256.499 273.579 261.094 281.271 260.008 286.702C259.879 287.347 259.57 285.459 259.276 284.87" stroke="#020207" stroke-width="2" stroke-miterlimit="10" stroke-linecap="round" stroke-linejoin="round"/>
<path d="M217.528 284.139C215.133 281.743 214.232 301.333 214.232 303.914" stroke="#020207" stroke-width="2" stroke-miterlimit="10" stroke-linecap="round" stroke-linejoin="round"/>
<path d="M215.331 284.139C211.138 284.139 213.5 297.24 213.5 298.055C213.5 308.655 214.747 318.684 215.331 329.183C215.574 333.574 215.394 337.796 216.795 342" stroke="#020207" stroke-width="2" stroke-miterlimit="10" stroke-linecap="round" stroke-linejoin="round"/>
<path d="M262.206 287.433C259.599 288.303 261.038 297.808 261.107 300.618C261.432 313.947 262.572 327.206 262.572 340.535" stroke="#020207" stroke-width="2" stroke-miterlimit="10" stroke-linecap="round" stroke-linejoin="round"/>
<path d="M245.36 231.037C244.994 230.917 244.261 231.059 244.261 230.67C244.261 230.229 245.815 230.306 246.092 230.306C249.988 230.306 253.848 229.208 257.811 229.208" stroke="#020207" stroke-width="2" stroke-miterlimit="10" stroke-linecap="round" stroke-linejoin="round"/>
<path d="M255.98 206.503C264.077 204.477 278.128 207.728 286.01 208.332C288.475 208.523 290.618 209.14 292.968 207.968" stroke="#020207" stroke-width="2" stroke-miterlimit="10" stroke-linecap="round" stroke-linejoin="round"/>
<path d="M261.107 210.164C265.926 212.573 286.214 212.674 291.867 211.262" stroke="#020207" stroke-width="2" stroke-miterlimit="10" stroke-linecap="round" stroke-linejoin="round"/>
<path d="M257.811 215.657C267.13 218.762 279.833 218.762 289.671 217.122" stroke="#020207" stroke-width="2" stroke-miterlimit="10" stroke-linecap="round" stroke-linejoin="round"/>
<path d="M262.206 222.614C271.033 218.201 284.616 219.253 294.433 218.22" stroke="#020207" stroke-width="2" stroke-miterlimit="10" stroke-linecap="round" stroke-linejoin="round"/>
<path d="M106.201 198.811C96.3538 198.811 86.7335 196.409 76.9039 195.514C61.2478 194.093 44.8073 195.888 29.2968 197.713C24.9337 198.225 2.7356 201.547 0 198.811" stroke="#020207" stroke-width="2" stroke-miterlimit="10" stroke-linecap="round" stroke-linejoin="round"/>
<path d="M106.933 196.249C104.116 194.839 104.862 199.089 105.102 201.007C105.326 202.805 107.425 221.39 106.933 221.884C106.547 222.269 106.007 221.239 105.468 221.15C100.405 220.308 94.6999 221.464 89.7209 222.248C74.8608 224.595 56.7494 226.467 43.2124 233.236" stroke="#020207" stroke-width="2" stroke-miterlimit="10" stroke-linecap="round" stroke-linejoin="round"/>
<path d="M78.3688 222.247C74.6096 222.247 67.3215 230.001 65.1852 232.135C54.1975 243.124 45.0124 255.972 34.0574 266.927" stroke="#020207" stroke-width="2" stroke-miterlimit="10" stroke-linecap="round" stroke-linejoin="round"/>
<path d="M298.047 71.431C296.404 71.431 302.482 66.5319 305.005 67.0365C307.087 67.4528 306.837 71.0692 306.837 72.5295" stroke="#020207" stroke-width="2" stroke-miterlimit="10" stroke-linecap="round" stroke-linejoin="round"/>
<path d="M305.739 71.431C302.449 72.5274 299.873 75.4314 300.61 79.1215M300.61 79.1215C300.666 79.3892 300.703 79.854 300.977 79.854C301.832 79.854 301.119 76.558 300.61 76.558C299.756 76.558 300.61 79.1215 300.61 79.1215ZM300.61 79.1215C300.61 79.1215 299.913 71.6509 298.048 72.8959C296.172 74.1459 297.597 83.582 299.146 84.6146" stroke="#020207" stroke-width="2" stroke-miterlimit="10" stroke-linecap="round" stroke-linejoin="round"/>
<path d="M307.204 71.431C307.204 75.7089 309.376 80.6811 308.302 84.9807C307.707 87.3588 302.658 83.9484 302.075 82.7835" stroke="#020207" stroke-width="2" stroke-miterlimit="10" stroke-linecap="round" stroke-linejoin="round"/>
<path d="M302.624 86.4456C305.187 86.4456 306.221 90.8013 305.005 91.2062C304.287 91.4458 302.473 89.0396 302.076 88.6427C300.728 87.2947 297.681 84.9807 297.681 84.9807C297.681 84.9807 300.907 86.4456 302.624 86.4456Z" stroke="#020207" stroke-width="2" stroke-miterlimit="10" stroke-linecap="round" stroke-linejoin="round"/>
<path d="M298.048 85.7131C299.204 83.4004 294.035 85.4464 293.286 86.4456C290.926 89.5942 289.585 94.5821 287.793 98.1643C285.841 102.07 288.259 105.359 287.426 109.517C286.331 114.999 283.75 121.505 280.835 126.362C279.845 128.011 276.188 133.543 277.174 135.518C280.003 141.174 288.225 120.963 288.891 119.404C289.039 119.06 290.748 114.277 291.09 114.277C291.463 114.277 290.063 119.699 289.992 120.137C289.085 125.575 287.75 130.982 286.695 136.25C286.572 136.86 285.89 137.641 286.328 138.081C286.448 138.2 291.33 137.738 292.188 138.081C296.388 139.76 299.25 143.975 303.54 145.405" stroke="#020207" stroke-width="2" stroke-miterlimit="10" stroke-linecap="round" stroke-linejoin="round"/>
<path d="M308.666 88.6428C307.007 88.6428 310.017 102.259 310.131 103.657C310.951 113.501 311.963 122.943 311.963 132.954C311.963 136.624 311.232 143.94 311.232 143.94C311.232 143.94 310.427 139.842 309.033 138.447C306.72 136.134 299.506 137.715 302.075 137.715" stroke="#020207" stroke-width="2" stroke-miterlimit="10" stroke-linecap="round" stroke-linejoin="round"/>
<path d="M303.173 89.3753C302.902 88.8294 302.35 87.3647 302.075 87.9106C301.724 88.6147 307.183 108.548 307.568 110.615C307.938 112.587 308.114 114.538 308.666 116.475C308.873 117.189 309.033 119.415 309.033 118.672C309.033 112.253 305.091 104.369 303.54 98.1643C303.355 97.4242 302.109 91.5727 300.977 91.5727C299.75 91.5727 300.956 94.0708 301.344 95.2347C302.603 99.0106 304.098 102.772 305.372 106.587C307.682 113.52 308.256 121.104 310.498 127.827" stroke="#020207" stroke-width="2" stroke-miterlimit="10" stroke-linecap="round" stroke-linejoin="round"/>
<path d="M303.173 116.109C300.903 120.652 301.351 129.91 300.977 135.151C300.795 137.708 299.83 145.135 300.977 142.842" stroke="#020207" stroke-width="2" stroke-miterlimit="10" stroke-linecap="round" stroke-linejoin="round"/>
<path d="M289.625 141.743C284.456 152.078 274.976 167.218 274.976 179.462" stroke="#020207" stroke-width="2" stroke-miterlimit="10" stroke-linecap="round" stroke-linejoin="round"/>
<path d="M302.442 145.039C298.97 148.512 297.03 155.144 294.751 159.323C289.172 169.556 284.003 181.309 280.468 191.912" stroke="#020207" stroke-width="2" stroke-miterlimit="10" stroke-linecap="round" stroke-linejoin="round"/>
<path d="M276.807 177.997C275.133 178.555 271.123 186.453 270.582 188.618C270.457 189.115 277.174 190.626 277.174 191.548C277.174 192.773 272.394 190.805 274.611 191.912" stroke="#020207" stroke-width="2" stroke-miterlimit="10" stroke-linecap="round" stroke-linejoin="round"/>
<path d="M273.147 189.716C271.742 189.716 269.661 192.091 270.948 193.377C273.791 196.221 280.502 197.057 284.132 198.873" stroke="#020207" stroke-width="2" stroke-miterlimit="10" stroke-linecap="round" stroke-linejoin="round"/>
<path d="M280.104 191.181C282.997 194.074 285.134 194.787 284.499 199.237" stroke="#020207" stroke-width="2" stroke-miterlimit="10" stroke-linecap="round" stroke-linejoin="round"/>
<path d="M302.075 140.278C300.629 143.171 304.031 151.532 304.638 154.928C306.554 165.589 308.185 176.664 313.061 186.419" stroke="#020207" stroke-width="2" stroke-miterlimit="10" stroke-linecap="round" stroke-linejoin="round"/>
<path d="M313.795 139.546C309.934 141.476 313.567 150.03 314.526 154.194C316.515 162.808 319.445 171.036 321.851 179.462C322.896 183.116 323.14 187.9 324.781 191.181" stroke="#020207" stroke-width="2" stroke-miterlimit="10" stroke-linecap="round" stroke-linejoin="round"/>
<path d="M312.33 187.884C315.732 191.289 320.818 191.613 324.05 194.842C324.241 195.037 323.559 194.599 323.316 194.478C322.366 194 321.622 193.535 320.753 193.013C319.525 192.276 316.034 191.955 315.26 191.181C315.245 191.166 318.767 191.74 319.288 191.912" stroke="#020207" stroke-width="2" stroke-miterlimit="10" stroke-linecap="round" stroke-linejoin="round"/>
<path d="M315.627 191.912C313.422 191.912 311.161 198.337 313.061 199.604C314.584 200.619 320.435 198.139 322.585 198.139C324.537 198.139 326.489 198.139 328.441 198.139C328.808 198.139 329.542 198.506 329.542 198.139C329.542 196.082 322.323 191.277 329.175 192.646" stroke="#020207" stroke-width="2" stroke-miterlimit="10" stroke-linecap="round" stroke-linejoin="round"/>
<path d="M278.821 137.715C278.201 135.141 275.343 133.47 275.343 137.349C275.343 139.637 278.676 136.654 279.003 136.982C279.006 136.985 279.796 141.756 278.821 137.715Z" stroke="#020207" stroke-width="2" stroke-miterlimit="10" stroke-linecap="round" stroke-linejoin="round"/>
<path d="M269.117 136.982C270.82 133.647 279.734 142.839 281.933 145.039C283.13 146.234 284.623 146.963 285.964 147.969C286.451 148.335 287.858 148.636 287.426 149.067C285.724 150.77 283.901 151.107 282.667 154.194C282.226 155.298 281.267 159.687 280.104 159.687C278.661 159.687 263.749 146.764 263.624 146.138C262.788 141.958 267.963 139.243 269.117 136.982Z" stroke="#020207" stroke-width="2" stroke-miterlimit="10" stroke-linecap="round" stroke-linejoin="round"/>
<path d="M266.92 142.476C266.92 143.754 285.791 153.182 283.765 154.194" stroke="#020207" stroke-width="2" stroke-miterlimit="10" stroke-linecap="round" stroke-linejoin="round"/>
<path d="M274.976 144.673L275.71 146.138" stroke="#020207" stroke-width="2" stroke-miterlimit="10" stroke-linecap="round" stroke-linejoin="round"/>
<path d="M130.364 69.2558C130.729 70.3495 131.606 72.4836 131.606 72.4836C131.606 72.4836 131.253 71.3863 130.861 70.9937C129.711 69.8437 124.77 67.7989 122.915 68.2627C119.66 69.0766 117.034 76.6114 118.446 79.4355C119.067 80.6778 121.293 76.2077 121.922 76.2077C123.484 76.2077 121.106 80.9255 122.171 80.9255C122.955 80.9255 123.631 76.9528 124.157 76.9528C124.337 76.9528 124.461 78.8425 125.15 79.1873" stroke="#020207" stroke-width="2" stroke-miterlimit="10" stroke-linecap="round" stroke-linejoin="round"/>
<path d="M126.143 75.9594C125.673 76.9004 125.895 76.2712 125.895 77.9459C125.895 85.4378 127.772 74.608 127.137 73.9733C126.996 73.8323 126.888 75.8829 126.888 75.9594C126.888 76.8698 126.888 77.7803 126.888 78.6907C126.888 81.962 127.338 82.019 129.62 83.1599" stroke="#020207" stroke-width="2" stroke-miterlimit="10" stroke-linecap="round" stroke-linejoin="round"/>
<path d="M130.861 73.2284C131.438 74.3837 133.23 83.7523 131.854 83.4081C130.507 83.0713 131.933 80.7163 131.854 80.6768C131.258 80.3789 127.013 83.5937 130.861 81.6702C131.192 81.5046 131.523 81.339 131.854 81.1737" stroke="#020207" stroke-width="2" stroke-miterlimit="10" stroke-linecap="round" stroke-linejoin="round"/>
<path d="M122.419 80.6769C122.419 81.8612 120.821 84.8204 121.178 85.8912C121.46 86.7368 122.965 86.3273 123.661 86.8843C123.969 87.1313 126.361 89.305 126.64 89.1187C127.664 88.4365 127.796 84.5712 128.378 83.4082" stroke="#020207" stroke-width="2" stroke-miterlimit="10" stroke-linecap="round" stroke-linejoin="round"/>
<path d="M121.177 84.6494C116.868 82.4949 124.909 95.5289 125.15 96.0708C127.752 101.924 128.253 109.85 133.095 114.692" stroke="#020207" stroke-width="2" stroke-miterlimit="10" stroke-linecap="round" stroke-linejoin="round"/>
<path d="M128.875 87.3807C128.875 90.7048 131.14 95.3467 132.102 98.5535C133.476 103.132 133.84 107.729 133.84 112.458" stroke="#020207" stroke-width="2" stroke-miterlimit="10" stroke-linecap="round" stroke-linejoin="round"/>
<path d="M125.399 89.367C124.752 91.3072 126.788 95.0735 127.385 97.064C127.927 98.8716 128.306 100.727 128.875 102.526C129.042 103.056 129.619 104.571 129.619 104.016C129.619 99.3601 127.841 93.4667 126.392 89.1187C126.309 88.8704 126.405 88.3739 126.143 88.3739C125.279 88.3739 126.567 90.0544 126.888 90.8569C127.537 92.4779 127.578 94.1674 128.13 95.8226C129.271 99.2469 130.14 102.763 131.109 106.251C131.754 108.571 131.326 107.668 132.102 109.478C132.321 109.989 132.455 111.361 132.847 110.968C133.198 110.617 132.847 109.975 132.847 109.478" stroke="#020207" stroke-width="2" stroke-miterlimit="10" stroke-linecap="round" stroke-linejoin="round"/>
<path d="M128.875 89.3669C128.875 96.1763 131.028 104.103 134.089 110.223" stroke="#020207" stroke-width="2" stroke-miterlimit="10" stroke-linecap="round" stroke-linejoin="round"/>
<path d="M118.447 85.6429C117.153 84.9961 116.115 86.8827 115.219 87.629C113.752 88.8516 111.826 89.7802 110.502 91.1051C110.002 91.605 110.689 93.0876 110.502 93.8361C110.124 95.3445 109.51 97.058 109.012 98.5535C107.278 103.755 98.0872 110.629 98.0872 116.43C98.0872 121.459 96.4208 136.188 98.5837 140.514C98.9711 141.289 100.223 138.626 100.57 138.28C101.226 137.624 102.747 137.803 103.053 137.038C103.538 135.825 103.053 133.129 103.053 131.824C103.053 127.7 103.731 123.334 105.039 119.41" stroke="#020207" stroke-width="2" stroke-miterlimit="10" stroke-linecap="round" stroke-linejoin="round"/>
<path d="M104.046 121.893C105.353 116.664 109.782 110.438 112.984 106.25C114.618 104.115 117.327 101.912 118.198 99.2986" stroke="#020207" stroke-width="2" stroke-miterlimit="10" stroke-linecap="round" stroke-linejoin="round"/>
<path d="M106.529 114.941C110.117 107.764 116.914 102.86 120.433 95.8226" stroke="#020207" stroke-width="2" stroke-miterlimit="10" stroke-linecap="round" stroke-linejoin="round"/>
<path d="M104.667 114.32C103.344 115.113 104.355 116.927 105.536 116.927C106.452 116.927 105.452 113.849 104.667 114.32Z" stroke="#020207" stroke-width="2" stroke-miterlimit="10" stroke-linecap="round" stroke-linejoin="round"/>
<path d="M107.77 116.43C107.491 117.268 107.029 138.036 108.018 139.025C109.186 140.192 113.597 139.974 115.219 140.514" stroke="#020207" stroke-width="2" stroke-miterlimit="10" stroke-linecap="round" stroke-linejoin="round"/>
<path d="M128.378 106.25C126.147 110.713 129.151 125.71 129.62 131.328C129.75 132.896 131.423 143.592 129.371 140.514" stroke="#020207" stroke-width="2" stroke-miterlimit="10" stroke-linecap="round" stroke-linejoin="round"/>
<path d="M116.957 140.018C113.544 137.742 124.269 139.521 125.647 139.521" stroke="#020207" stroke-width="2" stroke-miterlimit="10" stroke-linecap="round" stroke-linejoin="round"/>
<path d="M132.351 111.713C130.988 111.713 132.063 117.942 132.102 118.665C132.407 124.299 132.847 130.179 132.847 135.797" stroke="#020207" stroke-width="2" stroke-miterlimit="10" stroke-linecap="round" stroke-linejoin="round"/>
<path d="M132.599 114.444C131.939 116.423 134.676 120.235 135.578 122.141C137.339 125.858 137.787 130.386 140.544 124.872" stroke="#020207" stroke-width="2" stroke-miterlimit="10" stroke-linecap="round" stroke-linejoin="round"/>
<path d="M135.082 112.21C135.082 115.425 140.388 124.065 142.034 127.355" stroke="#020207" stroke-width="2" stroke-miterlimit="10" stroke-linecap="round" stroke-linejoin="round"/>
<path d="M139.799 127.852C139.748 127.75 139.15 126.266 138.806 126.61C138.439 126.977 138.98 128.226 139.054 128.596C140.109 133.869 140.701 135.457 144.517 139.273" stroke="#020207" stroke-width="2" stroke-miterlimit="10" stroke-linecap="round" stroke-linejoin="round"/>
<path d="M140.792 126.61C141.464 128.624 143.33 130.003 144.02 132.072C144.841 134.537 144.765 137.445 144.765 140.018" stroke="#020207" stroke-width="2" stroke-miterlimit="10" stroke-linecap="round" stroke-linejoin="round"/>
<path d="M101.563 137.783C100.216 139.13 101.067 145.991 101.067 145.976" stroke="#020207" stroke-width="2" stroke-miterlimit="10" stroke-linecap="round" stroke-linejoin="round"/>
<path d="M98.087 139.521C97.2839 139.923 94.7669 142.72 95.1074 143.742C95.2487 144.166 99.1211 144.88 99.8248 145.232" stroke="#020207" stroke-width="2" stroke-miterlimit="10" stroke-linecap="round" stroke-linejoin="round"/>
<path d="M88.9004 144.239C88.1035 144.637 92.1218 144.592 93.1213 144.735C94.6674 144.956 107.274 149.07 107.274 149.949C107.274 150.487 103.388 162.524 103.053 162.86C102.58 163.332 102.532 163.048 102.06 162.86C99.0246 161.645 96.3334 159.909 93.3696 158.638C92.0271 158.064 89.5148 158.262 88.4039 157.148C86.3129 155.057 88.0554 147.667 89.1487 145.48C89.3143 145.149 89.2751 144.487 89.6452 144.487C89.7782 144.487 90.3327 147.348 90.6383 147.714C92.0184 149.371 93.5605 150.74 95.3558 151.936C99.778 154.885 101.472 152.433 106.032 152.433" stroke="#020207" stroke-width="2" stroke-miterlimit="10" stroke-linecap="round" stroke-linejoin="round"/>
<path d="M97.4661 153.673C93.9348 150.04 95.6203 156.442 97.3421 156.155C97.6363 156.106 98.0721 155.958 98.0869 155.659C98.1215 154.968 97.9497 154.172 97.4661 153.673Z" stroke="#020207" stroke-width="2" stroke-miterlimit="10" stroke-linecap="round" stroke-linejoin="round"/>
<path d="M109.012 140.266C109.012 148.079 110.253 155.637 110.253 163.357C110.253 165.013 110.253 168.322 110.253 168.322C110.253 168.322 110.459 166.308 109.756 165.839C108.954 165.306 108.479 167.4 108.267 167.825C108.101 168.155 107.439 168.985 107.77 168.819C108.479 168.464 114.861 161.756 115.467 162.364C115.522 162.419 109.976 168.563 109.756 168.819C109.293 169.358 108.012 171.061 108.515 170.558C109.178 169.895 112.216 165.593 111.495 165.593C109.571 165.593 108.396 171.718 108.019 173.041C107.113 176.211 104.677 179.073 104.046 182.225C103.571 184.603 103.701 187.027 103.301 189.426C103.17 190.216 101.704 193.294 102.308 193.895C103.496 195.083 107.435 194.836 108.763 194.392" stroke="#020207" stroke-width="2" stroke-miterlimit="10" stroke-linecap="round" stroke-linejoin="round"/>
<path d="M122.916 140.018C120.823 140.018 120.461 150.192 120.185 152.679C118.696 166.074 114.043 179.298 109.756 192.159" stroke="#020207" stroke-width="2" stroke-miterlimit="10" stroke-linecap="round" stroke-linejoin="round"/>
<path d="M105.287 194.642C107.85 194.642 110.965 195.302 113.481 195.882C114.41 196.097 115.334 196.027 116.212 196.378C116.555 196.517 117.205 197.245 117.205 196.875C117.205 196.838 114.911 193.818 116.212 194.145C116.607 194.244 118.714 196.474 118.446 196.875C117.326 198.555 110.998 192.868 110.998 197.868" stroke="#020207" stroke-width="2" stroke-miterlimit="10" stroke-linecap="round" stroke-linejoin="round"/>
<path d="M120.681 140.266C119.788 142.947 123.393 146.913 124.654 149.204C126.249 152.103 130.806 159.909 131.606 163.107C132.068 164.954 130.672 169.287 130.861 171.551C131.45 178.62 133.096 186.164 133.096 193.152" stroke="#020207" stroke-width="2" stroke-miterlimit="10" stroke-linecap="round" stroke-linejoin="round"/>
<path d="M129.123 139.521C128.123 137.521 131.026 143.824 131.605 144.983C133.698 149.169 138.12 153.839 138.806 158.638C138.865 159.057 139.353 159.582 139.054 159.881C138.531 160.405 137.068 158.888 137.068 158.888C137.068 158.888 138.004 162.175 138.309 163.853C138.818 166.65 139.101 169.469 139.302 172.294C139.776 178.922 137.683 188.541 139.799 194.888" stroke="#020207" stroke-width="2" stroke-miterlimit="10" stroke-linecap="round" stroke-linejoin="round"/>
<path d="M132.102 193.649C133.344 193.649 134.585 193.649 135.827 193.649C136.654 193.649 137.482 193.649 138.31 193.649C139.111 193.649 142.904 194.207 140.296 194.642C139.484 194.777 127.277 193.044 131.357 197.124C134.988 200.754 157.034 197.272 141.537 193.399" stroke="#020207" stroke-width="2" stroke-miterlimit="10" stroke-linecap="round" stroke-linejoin="round"/>
<path opacity="0.4" d="M61.2087 49.3785C62.2484 49.6389 63.0701 50.4343 63.3644 51.4649L66.1198 61.1151C66.4141 62.1457 66.1362 63.255 65.3908 64.0252L58.4112 71.2366C57.6658 72.0067 56.5662 72.3207 55.5265 72.0603L45.7914 69.6215C44.7518 69.361 43.93 68.5657 43.6358 67.5351L40.8803 57.8849C40.586 56.8543 40.8639 55.7449 41.6093 54.9748L48.5889 47.7634C49.3343 46.9932 50.434 46.6792 51.4736 46.9397L61.2087 49.3785Z" fill="url(#paint1_linear_155_5813)"/>
<path opacity="0.4" d="M189.798 22.9678C190.838 23.2283 191.659 24.0236 191.954 25.0542L194.709 34.7045C195.003 35.7351 194.726 36.8444 193.98 37.6145L187.001 44.8259C186.255 45.5961 185.156 45.9101 184.116 45.6496L174.381 43.2108C173.341 42.9504 172.519 42.155 172.225 41.1244L169.47 31.4742C169.175 30.4436 169.453 29.3343 170.199 28.5641L177.178 21.3527C177.924 20.5826 179.023 20.2686 180.063 20.529L189.798 22.9678Z" fill="url(#paint2_linear_155_5813)"/>
<path opacity="0.4" d="M365.798 121.968C366.838 122.228 367.659 123.024 367.954 124.054L370.709 133.704C371.003 134.735 370.726 135.844 369.98 136.615L363.001 143.826C362.255 144.596 361.156 144.91 360.116 144.65L350.381 142.211C349.341 141.95 348.519 141.155 348.225 140.124L345.47 130.474C345.175 129.444 345.453 128.334 346.199 127.564L353.178 120.353C353.924 119.583 355.023 119.269 356.063 119.529L365.798 121.968Z" fill="url(#paint3_linear_155_5813)"/>
</g>
<defs>
<linearGradient id="paint0_linear_155_5813" x1="98" y1="216.263" x2="256.116" y2="150.825" gradientUnits="userSpaceOnUse">
<stop stop-color="#603DEB"/>
<stop offset="1" stop-color="#27C1D6"/>
</linearGradient>
<linearGradient id="paint1_linear_155_5813" x1="43.1406" y1="50.792" x2="62.4994" y2="66.8987" gradientUnits="userSpaceOnUse">
<stop stop-color="#603DEB"/>
<stop offset="1" stop-color="#27C1D6"/>
</linearGradient>
<linearGradient id="paint2_linear_155_5813" x1="171.73" y1="24.3813" x2="191.089" y2="40.4881" gradientUnits="userSpaceOnUse">
<stop stop-color="#603DEB"/>
<stop offset="1" stop-color="#27C1D6"/>
</linearGradient>
<linearGradient id="paint3_linear_155_5813" x1="347.73" y1="123.381" x2="367.089" y2="139.488" gradientUnits="userSpaceOnUse">
<stop stop-color="#603DEB"/>
<stop offset="1" stop-color="#27C1D6"/>
</linearGradient>
<clipPath id="clip0_155_5813">
<rect width="390" height="290" rx="16" fill="white"/>
</clipPath>
</defs>
</svg>
