<svg width="388" height="291" viewBox="0 0 388 291" fill="none" xmlns="http://www.w3.org/2000/svg">
<g clip-path="url(#clip0_4_3525)">
<rect width="388" height="291" rx="24" fill="#FFF9ED"/>
<ellipse cx="195" cy="255.5" rx="158" ry="18.5" fill="url(#paint0_linear_4_3525)" fill-opacity="0.4"/>
<path d="M237.877 26.0211C237.877 27.4236 238.016 28.8943 237.877 30.2887C237.771 31.3428 237.136 32.0534 236.74 32.8491C235.938 34.4505 235.673 40.8865 237.022 42.2374C238.665 43.879 243.064 42.7968 244.989 42.5219C247.21 42.2046 249.446 43.1775 251.674 42.8064C254.548 42.3273 258.127 41.6059 261.064 42.0951C264.645 42.6922 271.157 43.4071 274.149 45.6513C275.134 46.3888 278.64 48.6059 279.981 48.0695C280.929 47.6907 281.947 44.8503 282.401 43.9443C284.149 40.4454 283.787 36.8668 284.533 33.1336C284.843 31.5913 285.773 30.5142 285.956 28.8662C286.153 27.0838 286.133 25.0598 284.818 23.7452" stroke="#020207" stroke-width="2" stroke-miterlimit="10" stroke-linecap="round" stroke-linejoin="round"/>
<path d="M239.867 30.2889C244.723 31.9073 249.208 31.7217 254.234 32.2803C264.069 33.3729 273.67 34.1295 283.538 34.1295" stroke="#020207" stroke-width="2" stroke-miterlimit="10" stroke-linecap="round" stroke-linejoin="round"/>
<path d="M234.178 26.8745C233.722 26.6467 234.178 28.4772 234.178 29.0083C234.178 30.336 234.178 31.6636 234.178 32.9912C234.178 37.9703 233.398 40.4615 237.307 44.3709" stroke="#020207" stroke-width="2" stroke-miterlimit="10" stroke-linecap="round" stroke-linejoin="round"/>
<path d="M239.299 45.0831C239.299 44.7668 238.872 47.7493 238.872 48.7815C238.872 51.467 238.284 54.8991 239.014 57.4587C241.633 66.6224 241.855 78.5459 253.097 81.356C262.61 83.7343 270.52 71.6873 274.148 64.4287C275.14 62.4468 277.413 60.061 277.848 57.8854C278.463 54.8136 279.908 48.8557 282.115 46.6478" stroke="#020207" stroke-width="2" stroke-miterlimit="10" stroke-linecap="round" stroke-linejoin="round"/>
<path d="M285.388 33.4187C286.22 33.0019 286.24 35.3601 286.24 35.9791C286.24 38.8668 285.542 41.0043 284.106 43.5182" stroke="#020207" stroke-width="2" stroke-miterlimit="10" stroke-linecap="round" stroke-linejoin="round"/>
<path d="M255.231 53.1906C254.039 52.7932 253.18 51.8162 252.101 51.1992C249.218 49.5512 246.471 48.4965 243.139 48.4965" stroke="#020207" stroke-width="2" stroke-miterlimit="10" stroke-linecap="round" stroke-linejoin="round"/>
<path d="M263.909 54.1861C262.311 54.1861 266.2 53.552 266.894 53.4749C269.535 53.1817 272.211 52.6214 274.861 52.6214" stroke="#020207" stroke-width="2" stroke-miterlimit="10" stroke-linecap="round" stroke-linejoin="round"/>
<path d="M264.191 57.1738C267.134 57.1738 269.991 57.6136 272.869 56.4626" stroke="#020207" stroke-width="2" stroke-miterlimit="10" stroke-linecap="round" stroke-linejoin="round"/>
<path d="M246.412 52.1943C245.832 53.3545 251.261 55.1847 252.387 55.466" stroke="#020207" stroke-width="2" stroke-miterlimit="10" stroke-linecap="round" stroke-linejoin="round"/>
<path d="M254.519 67.4153C254.291 67.3391 253.239 66.8866 253.239 66.704C253.239 66.2213 254.312 67.4926 254.377 67.5575C255.126 68.3064 255.579 69.7323 256.796 69.9757C258.96 70.4087 260.752 68.1527 262.059 66.8463" stroke="#020207" stroke-width="2" stroke-miterlimit="10" stroke-linecap="round" stroke-linejoin="round"/>
<path d="M251.532 71.3983C251.449 71.4404 254.308 72.2622 255.232 72.394C257.722 72.75 260.169 72.9294 262.627 72.1095" stroke="#020207" stroke-width="2" stroke-miterlimit="10" stroke-linecap="round" stroke-linejoin="round"/>
<path d="M240.437 66.8463C239.672 66.8463 238.422 66.6446 237.735 66.9885C236.764 67.4733 237.403 70.875 237.592 71.5404C238.713 75.4633 240.376 77.8796 243.139 80.6442C244.558 82.0625 247.216 82.4614 249.114 82.7778C251.045 83.0998 253.2 84.3218 255.231 83.916C265.213 81.9197 273.31 75.3375 276.568 65.5661" stroke="#020207" stroke-width="2" stroke-miterlimit="10" stroke-linecap="round" stroke-linejoin="round"/>
<path d="M239.157 67.6994C238.115 67.1782 235.016 69.1569 233.895 69.4063C228.885 70.5195 223.905 71.1878 219.1 73.247C217.033 74.1332 206.001 76.9767 205.161 79.0791C203.301 83.7298 204.127 90.4502 204.733 95.2953C205.317 99.963 204.861 104.711 205.443 109.378C206.143 114.978 205.085 121.139 204.306 126.59C203.659 131.117 205.043 135.408 205.443 139.819C205.863 144.412 205.812 149.048 206.726 153.617" stroke="#020207" stroke-width="2" stroke-miterlimit="10" stroke-linecap="round" stroke-linejoin="round"/>
<path d="M279.981 66.1354C282.448 66.1354 285.268 67.8098 287.806 68.1268C296.29 69.1873 304.55 67.9427 310.993 74.3856C311.874 75.268 314.729 76.8506 314.975 78.084C315.588 81.1508 312.938 83.3121 311.418 85.3388C310.679 86.3247 310.75 87.8892 309.995 88.8949C308.129 91.3833 305.16 93.5136 305.16 97.1452C305.16 97.7449 305.584 96.0201 305.728 95.4382C305.974 94.4574 306.092 93.4592 306.155 92.4511C306.341 89.4951 306.432 86.1446 306.013 83.2051C305.779 81.5716 304.837 83.5793 304.733 84.2008C303.921 89.0728 304.544 94.0646 304.163 98.9944C303.426 108.58 303.148 118.691 304.023 128.297C304.226 130.541 304.367 133.099 305.018 135.267C305.852 138.047 307.783 140.467 308.148 143.376C308.569 146.749 307.053 149.765 306.725 153.048C306.42 156.097 306.052 159.008 305.303 162.01" stroke="#020207" stroke-width="2" stroke-miterlimit="10" stroke-linecap="round" stroke-linejoin="round"/>
<path d="M316.397 78.7945C316.397 80.4107 317.423 82.0865 317.535 83.7733C317.665 85.7204 317.472 87.8321 317.82 89.7477C318.166 91.6551 319.305 93.3026 319.81 95.153C321.91 102.847 325.565 109.929 328.347 117.344C329.242 119.736 334.664 129.005 333.467 130.999C332.195 133.119 328.266 134.728 326.07 135.551C320.115 137.784 314.177 138.937 308.43 141.81" stroke="#020207" stroke-width="2" stroke-miterlimit="10" stroke-linecap="round" stroke-linejoin="round"/>
<path d="M314.405 81.9242C314.405 85.9679 314.165 89.7844 315.685 93.5886" stroke="#020207" stroke-width="2" stroke-miterlimit="10" stroke-linecap="round" stroke-linejoin="round"/>
<path d="M205.443 80.2169C204.938 79.2049 203.144 83.1892 202.883 83.7733C200.757 88.5569 199.879 93.9377 198.616 98.9936C196.853 106.047 194.397 113.358 193.211 120.473C192.936 122.118 190.398 128.392 190.793 129.577C190.934 130.001 200.791 132.862 201.603 133.133" stroke="#020207" stroke-width="2" stroke-miterlimit="10" stroke-linecap="round" stroke-linejoin="round"/>
<path d="M206.44 112.081C205.39 109.983 204.444 107.712 203.026 105.822C202.995 105.781 201.402 103.892 201.176 104.115C201.143 104.149 202.663 110.429 202.741 110.801C203.565 114.755 203.929 118.602 204.163 122.608C204.212 123.411 204.796 126.038 204.448 126.733C204.249 127.133 203.919 126.004 203.738 125.595C203.445 124.936 203.364 124.288 203.168 123.603C203.099 123.358 202.883 122.637 202.883 122.892C202.883 123.897 204.049 125.694 204.448 126.59" stroke="#020207" stroke-width="2" stroke-miterlimit="10" stroke-linecap="round" stroke-linejoin="round"/>
<path d="M329.342 134.271C329.342 136.51 330.646 138.918 331.192 141.099C332.474 146.229 332.749 151.444 333.609 156.604C333.927 158.512 334.464 160.57 334.177 162.578C333.902 164.513 332.826 166.49 331.475 167.841C329.37 169.946 327.86 172.355 325.502 174.243C319.568 178.989 308.17 180.308 301.035 181.497C297.787 182.038 292.58 180.603 289.656 182.066" stroke="#020207" stroke-width="2" stroke-miterlimit="10" stroke-linecap="round" stroke-linejoin="round"/>
<path d="M308.858 142.237C308.546 142.862 309.952 145.947 309.995 146.078C310.846 148.626 311.56 151.483 311.56 154.186" stroke="#020207" stroke-width="2" stroke-miterlimit="10" stroke-linecap="round" stroke-linejoin="round"/>
<path d="M309.285 155.893C313.469 153.103 318.901 152.052 323.795 152.052" stroke="#020207" stroke-width="2" stroke-miterlimit="10" stroke-linecap="round" stroke-linejoin="round"/>
<path d="M312.557 154.755C303.809 159.128 295.304 163.895 285.528 165.85C283.135 166.329 279.004 167.048 276.568 166.561C275.378 166.323 274.344 165.234 273.154 164.997C269.859 164.337 265.207 165.262 262.769 167.699C261.776 168.693 261.524 170.334 260.921 171.54" stroke="#020207" stroke-width="2" stroke-miterlimit="10" stroke-linecap="round" stroke-linejoin="round"/>
<path d="M263.196 174.527C265.465 173.393 267.159 171.967 269.739 171.967" stroke="#020207" stroke-width="2" stroke-miterlimit="10" stroke-linecap="round" stroke-linejoin="round"/>
<path d="M268.744 173.674C267.435 174.328 266.927 175.926 265.757 176.803C264.991 177.377 263.547 177.573 262.627 177.941C261.546 178.373 260.913 179.34 259.924 179.933C258.559 180.753 256.664 180.78 255.232 181.639C254.387 182.146 252.299 183.742 252.954 185.053C253.805 186.755 258.427 185.4 259.641 185.053C262.299 184.294 265.36 184.069 267.749 182.635C270.333 181.084 272.745 179.026 275.571 178.083" stroke="#020207" stroke-width="2" stroke-miterlimit="10" stroke-linecap="round" stroke-linejoin="round"/>
<path d="M255.942 186.618C256.027 186.448 256.994 188.512 257.649 189.036C258.396 189.634 260.217 189.348 261.064 189.179C267.6 187.871 273.856 185.059 279.838 182.066" stroke="#020207" stroke-width="2" stroke-miterlimit="10" stroke-linecap="round" stroke-linejoin="round"/>
<path d="M260.636 189.178C260.482 189.178 262.574 189.556 263.339 189.747C265.384 190.259 267.641 190.032 269.739 190.032C273.082 190.032 278.61 189.567 281.404 187.472C282.5 186.649 283.866 185.387 285.103 184.769" stroke="#020207" stroke-width="2" stroke-miterlimit="10" stroke-linecap="round" stroke-linejoin="round"/>
<path d="M285.671 185.196C289.234 184.484 292.293 182.81 295.486 181.213" stroke="#020207" stroke-width="2" stroke-miterlimit="10" stroke-linecap="round" stroke-linejoin="round"/>
<path d="M248.687 166.419C248.677 166.424 246.892 163.614 246.269 163.147C243.614 161.155 239.214 158.644 235.885 158.168C227.429 156.96 219.548 163.151 210.993 161.724C208.131 161.248 205.549 160.821 203.026 159.306C200.881 158.019 199.241 156.006 196.768 155.181" stroke="#020207" stroke-width="2" stroke-miterlimit="10" stroke-linecap="round" stroke-linejoin="round"/>
<path d="M206.866 149.776C205.991 148.024 203.079 156.775 202.884 157.457" stroke="#020207" stroke-width="2" stroke-miterlimit="10" stroke-linecap="round" stroke-linejoin="round"/>
<path d="M192.216 130.431C191.526 130.086 191.162 132.993 190.936 133.56C189.53 137.076 188.624 140.933 187.949 144.656C186.638 151.865 180.283 163.982 184.391 170.829C185.454 172.599 187.902 173.769 189.371 175.239" stroke="#020207" stroke-width="2" stroke-miterlimit="10" stroke-linecap="round" stroke-linejoin="round"/>
<path d="M188.659 176.092C190.838 177.182 193.457 179.299 195.913 179.791C200.346 180.677 206.068 180.576 210.565 179.933C212.924 179.596 215.696 178.821 218.105 179.222C223.103 180.055 227.1 183.142 231.902 184.343C239.224 186.173 250.866 186.549 257.222 181.782C259.236 180.272 262.437 179.461 263.624 177.088" stroke="#020207" stroke-width="2" stroke-miterlimit="10" stroke-linecap="round" stroke-linejoin="round"/>
<path d="M262.769 175.665C262.342 174.808 261.615 173.136 260.352 173.389C257.71 173.917 256.44 176.642 254.519 178.083C252.458 179.629 240.254 180.196 238.02 179.079" stroke="#020207" stroke-width="2" stroke-miterlimit="10" stroke-linecap="round" stroke-linejoin="round"/>
<path d="M234.747 164.997C235.124 166.501 236.497 167.339 237.307 168.553C240.751 173.716 241.182 172.657 246.98 173.817C249.448 174.31 252.765 172.75 254.947 174.386C256.807 175.78 250.553 179.013 249.967 179.364" stroke="#020207" stroke-width="2" stroke-miterlimit="10" stroke-linecap="round" stroke-linejoin="round"/>
<path d="M234.462 164.57C234.273 164.475 233.703 164.38 233.895 164.286C234.395 164.035 234.692 164.485 235.032 164.713C236.937 165.982 240.366 166.206 241.859 167.7" stroke="#020207" stroke-width="2" stroke-miterlimit="10" stroke-linecap="round" stroke-linejoin="round"/>
<path d="M240.152 170.545C240.435 169.698 241.752 169.162 242.429 168.553C242.826 168.194 243.154 167.406 243.567 167.131C245.555 165.804 253.681 167.562 255.799 168.269C257.14 168.715 258.648 169.407 260.067 169.407C260.577 169.407 262.313 169.326 262.059 169.833" stroke="#020207" stroke-width="2" stroke-miterlimit="10" stroke-linecap="round" stroke-linejoin="round"/>
<path d="M209.711 182.209C210.661 185.059 210.614 197.36 213.553 199.563" stroke="#020207" stroke-width="2" stroke-miterlimit="10" stroke-linecap="round" stroke-linejoin="round"/>
<path d="M311.845 182.067C311.668 181.802 311.737 181.213 311.417 181.213C310.943 181.213 311.417 182.162 311.417 182.636C311.417 185.438 311.401 188.229 311.56 191.028C311.877 196.58 312.415 202.113 312.415 207.671" stroke="#020207" stroke-width="2" stroke-miterlimit="10" stroke-linecap="round" stroke-linejoin="round"/>
<path d="M303.168 123.461C302.781 123.461 301.43 132.482 301.177 133.845C299.46 143.116 298.048 152.27 298.048 161.725" stroke="#020207" stroke-width="2" stroke-miterlimit="10" stroke-linecap="round" stroke-linejoin="round"/>
<path d="M298.333 183.062C297.724 183.366 297.942 184.376 297.905 185.054C297.797 186.997 297.702 188.941 297.62 190.886C297.458 194.743 297.433 198.561 296.198 202.266" stroke="#020207" stroke-width="2" stroke-miterlimit="10" stroke-linecap="round" stroke-linejoin="round"/>
<path d="M215.4 86.7609C214.719 86.4196 216.342 91.9772 216.54 92.7352C217.578 96.7385 218.53 100.845 218.957 104.968C220.223 117.201 222.059 129.149 224.362 141.242" stroke="#020207" stroke-width="2" stroke-miterlimit="10" stroke-linecap="round" stroke-linejoin="round"/>
<path d="M277.279 65.8507C275.539 64.1104 280.557 65.9952 280.978 66.1352" stroke="#020207" stroke-width="2" stroke-miterlimit="10" stroke-linecap="round" stroke-linejoin="round"/>
<path d="M280.408 66.2773C279.91 66.0279 279.55 68.7189 279.413 69.2645C278.925 71.2193 277.384 73.1619 276.283 74.8121C272.806 80.0288 268.034 84.2001 262.059 86.192C252.177 89.4858 240.699 84.9879 234.747 76.8036C233.557 75.1674 231.902 73.1021 231.902 70.9715" stroke="#020207" stroke-width="2" stroke-miterlimit="10" stroke-linecap="round" stroke-linejoin="round"/>
<path d="M275.003 63.8594C274.908 63.6697 274.718 63.0784 274.718 63.2904C274.718 64.8415 277.441 65.816 278.558 66.1353" stroke="#020207" stroke-width="2" stroke-miterlimit="10" stroke-linecap="round" stroke-linejoin="round"/>
<path d="M313.526 205.302C312.999 205.04 313.096 204.943 312.984 205.844C312.512 209.617 313.039 213.43 313.345 217.187C314.053 225.909 316.955 234.315 320.186 242.396" stroke="#020207" stroke-width="2" stroke-miterlimit="10" stroke-linecap="round" stroke-linejoin="round"/>
<path d="M214.493 239.155C214.074 238.945 213.744 237.924 213.412 238.253C213.142 238.524 216.3 245.378 216.833 246.178" stroke="#020207" stroke-width="2" stroke-miterlimit="10" stroke-linecap="round" stroke-linejoin="round"/>
<path d="M211.612 193.239C211.137 194.663 211.459 196.239 211.433 197.74C211.333 203.129 211.591 206.859 213.231 211.786" stroke="#020207" stroke-width="2" stroke-miterlimit="10" stroke-linecap="round" stroke-linejoin="round"/>
<path d="M162.096 48.8315C162.096 58.492 159.32 70.0699 149.851 75.1201C147.596 76.3228 145.157 75.9646 142.828 76.7406C141.343 77.2359 139.804 78.4573 138.148 78.1809C137.255 78.0322 139.225 76.2074 139.408 75.8403C140.621 73.4125 142.108 71.336 142.108 68.4577C142.108 68.0978 142.458 67.4649 142.108 67.3776C141.333 67.1834 139.908 69.8912 139.587 70.2585C138.411 71.6028 131.08 79.0662 130.045 78.7212C129.994 78.7039 130.03 77.3704 130.045 77.2807C130.423 75.0116 132.886 69.8983 128.604 69.8983C128.252 69.8983 127.464 69.7481 127.163 69.8983C126.618 70.1712 126.439 72.8491 126.264 73.3193C124.908 76.9341 122.843 82.2237 122.843 86.1036C122.843 87.5684 121.652 96.3661 121.652 95.8518" stroke="#020207" stroke-width="2" stroke-miterlimit="10" stroke-linecap="round" stroke-linejoin="round"/>
<path d="M159.393 41.9894C158.128 39.4578 156.925 34.5297 154.353 32.9863C152.055 31.6076 152.175 32.6919 150.211 33.3463C148.091 34.0533 144.849 32.6369 142.828 32.0861C140.075 31.3347 137.346 29.7143 134.546 29.2051C128.931 28.1844 121.628 29.4813 115.999 30.2855C112.8 30.7426 108.16 29.0975 105.376 31.1858C102.261 33.5228 100.672 38.7873 98.7139 41.9894C98.1461 42.9198 97.2589 43.6524 96.9129 44.6902" stroke="#020207" stroke-width="2" stroke-miterlimit="10" stroke-linecap="round" stroke-linejoin="round"/>
<path d="M86.2902 75.3003C85.4457 76.5679 85.9301 79.9326 85.9301 81.2423C85.9301 85.748 86.276 90.4295 85.9301 94.9268C84.9899 107.141 78.655 118.078 78.0078 130.399C77.7555 135.18 76.2537 140.553 79.0884 144.803" stroke="#020207" stroke-width="2" stroke-miterlimit="10" stroke-linecap="round" stroke-linejoin="round"/>
<path d="M122.123 75.3004C119.372 73.9253 117.681 69.3708 113.66 70.9791C107.18 73.571 114.842 86.797 117.801 89.165" stroke="#020207" stroke-width="2" stroke-miterlimit="10" stroke-linecap="round" stroke-linejoin="round"/>
<path d="M122.662 96.7883C122.379 102.448 121.616 112.759 122.662 118.335C123.791 124.361 127.025 129.967 127.884 135.98" stroke="#020207" stroke-width="2" stroke-miterlimit="10" stroke-linecap="round" stroke-linejoin="round"/>
<path d="M95.6532 128.958C95.6532 125.244 104.514 132.843 105.195 132.919C108.447 133.28 109.902 130.565 112.399 129.138C113.919 128.269 118.553 129.202 120.14 129.678C122.963 130.524 125.118 135.62 127.704 135.62" stroke="#020207" stroke-width="2" stroke-miterlimit="10" stroke-linecap="round" stroke-linejoin="round"/>
<path d="M163.716 66.1172C162.22 66.8654 161.433 69.8451 160.834 71.3388C159.721 74.1212 158.594 77.601 159.214 80.702C160.02 84.7345 162.544 85.483 161.555 90.4252C161.146 92.4713 153.993 92.578 153.993 91.3254" stroke="#020207" stroke-width="2" stroke-miterlimit="10" stroke-linecap="round" stroke-linejoin="round"/>
<path d="M157.234 93.6659C157.234 92.918 158.008 98.0369 156.874 98.8875C155.627 99.8232 149.766 100.286 148.411 99.6079" stroke="#020207" stroke-width="2" stroke-miterlimit="10" stroke-linecap="round" stroke-linejoin="round"/>
<path d="M153.993 100.148C153.036 99.6694 154.676 102.958 153.812 103.389C152.151 104.22 149.277 101.47 147.872 100.148" stroke="#020207" stroke-width="2" stroke-miterlimit="10" stroke-linecap="round" stroke-linejoin="round"/>
<path d="M136.347 124.996C136.203 124.707 136.276 124.241 135.987 124.096C135.12 123.662 135.283 125.903 134.906 126.797C134.149 128.593 133.431 130.286 132.566 132.019" stroke="#020207" stroke-width="2" stroke-miterlimit="10" stroke-linecap="round" stroke-linejoin="round"/>
<path d="M124.823 124.096C126.451 127.353 130.409 129.604 133.286 131.659" stroke="#020207" stroke-width="2" stroke-miterlimit="10" stroke-linecap="round" stroke-linejoin="round"/>
<path d="M55.6801 198.641C55.6801 206.657 54.3112 214.132 53.5194 222.048C53.0181 227.06 53.7412 232.367 54.2398 237.353C54.6856 241.812 54.952 248.505 57.4807 252.298" stroke="#020207" stroke-width="2" stroke-miterlimit="10" stroke-linecap="round" stroke-linejoin="round"/>
<path d="M85.9303 147.324C85.9303 145.674 94.1985 140.307 96.0137 139.581C99.9738 137.997 103.618 136.189 107.898 135.8C110.603 135.554 113.256 136.332 115.999 136.16C118.586 135.998 121.25 135.343 123.743 136.34C125.896 137.201 127.178 139.056 128.785 140.661" stroke="#020207" stroke-width="2" stroke-miterlimit="10" stroke-linecap="round" stroke-linejoin="round"/>
<path d="M88.4518 145.883C86.7281 145.883 85.4562 151.412 85.0309 152.905C82.9756 160.094 85.6272 167.839 87.19 174.873C90.0187 187.602 95.2364 199.144 101.956 210.345C103.558 213.015 104.762 216.46 105.916 219.348C107.784 224.018 110.973 228.265 112.939 232.852C113.673 234.563 115.251 235.908 116.181 237.534C117.446 239.748 118.616 242.522 120.141 244.555C122.007 247.044 124.404 249.099 126.264 251.578" stroke="#020207" stroke-width="2" stroke-miterlimit="10" stroke-linecap="round" stroke-linejoin="round"/>
<path d="M135.267 198.281C136.093 200.759 134.943 203.938 136.166 206.383" stroke="#020207" stroke-width="2" stroke-miterlimit="10" stroke-linecap="round" stroke-linejoin="round"/>
<path d="M132.745 179.735C132.745 181.749 133.417 183.685 133.647 185.676C134.249 190.906 134.443 196.13 135.267 201.342C135.645 203.746 136.203 206.104 136.347 208.544C136.413 209.672 136.223 210.844 136.347 211.965C136.368 212.154 136.526 212.695 136.526 212.506C136.526 207.989 130.143 198.898 128.065 195.22C126.522 192.493 124.813 190.036 123.022 187.477C122.774 187.123 122.609 186.091 122.302 186.397C121.976 186.722 124.113 189.546 124.282 189.818C126.502 193.368 128.757 196.467 130.765 200.261C132.32 203.201 133.765 206.859 134.365 210.164C134.398 210.341 134.848 213.046 135.267 213.046C135.973 213.046 134.713 209.444 135.987 209.444C137.025 209.444 136.323 215.728 136.526 216.647C137.208 219.714 140.747 215.241 141.028 216.647C141.567 219.338 135.778 228.583 134.186 231.411C133.966 231.802 133.466 232.152 133.466 232.673C133.466 233.44 134.479 231.511 134.907 230.872C135.637 229.775 136.209 228.581 136.887 227.451C138.458 224.832 140.334 222.374 142.108 219.887C142.507 219.332 142.959 218.815 143.37 218.267C143.58 217.986 144.066 217.054 143.909 217.368C141.185 222.818 138.018 228.249 135.267 233.752C135.012 234.258 135.853 232.783 136.166 232.313C136.714 231.493 137.422 230.791 137.967 229.971C138.425 229.283 141.795 224.014 142.29 223.849C142.87 223.656 142.084 225.058 141.929 225.65C141.166 228.548 141.659 227.311 140.849 229.971C140.503 231.106 135.393 246.574 137.247 239.154" stroke="#020207" stroke-width="2" stroke-miterlimit="10" stroke-linecap="round" stroke-linejoin="round"/>
<path d="M143.189 220.608C145.615 221.821 148.258 220.83 150.751 221.328C154.398 222.059 160.747 223.803 164.255 222.049" stroke="#020207" stroke-width="2" stroke-miterlimit="10" stroke-linecap="round" stroke-linejoin="round"/>
<path d="M163.177 220.788C165.088 222.701 167.522 224.673 169.117 226.909C172.334 231.413 172.599 237.298 173.079 242.575C173.386 245.959 173.618 249.258 173.618 252.658C173.618 253.198 173.618 251.578 173.618 251.038" stroke="#020207" stroke-width="2" stroke-miterlimit="10" stroke-linecap="round" stroke-linejoin="round"/>
<path d="M163.895 220.429C166.368 222.075 180.525 220.575 184.782 220.247C185.889 220.162 188.356 219.334 189.465 219.887C190.551 220.431 190.731 223.52 190.906 224.389C191.583 227.777 193.177 230.978 193.425 234.472C193.468 235.066 193.653 241.181 192.346 239.875" stroke="#020207" stroke-width="2" stroke-miterlimit="10" stroke-linecap="round" stroke-linejoin="round"/>
<path d="M194.145 234.653C192.883 234.653 193.189 236.741 192.885 237.714C192.143 240.093 190.486 242.343 189.104 244.376C188.014 245.98 186.87 247.693 185.683 249.238C185.317 249.714 184.003 250.679 184.603 250.679" stroke="#020207" stroke-width="2" stroke-miterlimit="10" stroke-linecap="round" stroke-linejoin="round"/>
<path d="M107.538 230.872C105.078 229.641 100.43 230.432 97.8148 230.33C94.6768 230.21 91.5104 229.348 88.4518 228.711C86.2296 228.247 84.0399 228.047 81.7892 227.811C80.9203 227.72 78.6492 227.707 79.2679 227.091C80.2487 226.108 85.265 227.876 85.7493 227.99C89.7135 228.916 93.696 229.858 97.6337 230.872C99.4693 231.344 101.339 231.684 103.216 231.952C103.403 231.979 103.757 232.131 103.757 232.131C103.757 232.131 102.715 231.631 102.316 231.232" stroke="#020207" stroke-width="2" stroke-miterlimit="10" stroke-linecap="round" stroke-linejoin="round"/>
<path d="M105.556 231.051C101.832 231.051 98.0201 229.557 94.5729 228.351C91.382 227.233 88.0039 226.708 84.8497 225.469C81.4736 224.144 78.3051 222.337 74.9474 220.968C69.6623 218.815 64.8782 217.561 60.7218 213.406" stroke="#020207" stroke-width="2" stroke-miterlimit="10" stroke-linecap="round" stroke-linejoin="round"/>
<path d="M84.1287 150.025C82.633 149.277 81.5362 151.401 81.0681 152.545C79.4462 156.508 77.9668 160.631 76.9269 164.789" stroke="#020207" stroke-width="2" stroke-miterlimit="10" stroke-linecap="round" stroke-linejoin="round"/>
<path d="M71.7061 163.889C75.8108 172.1 79.5308 180.584 83.7697 188.737C89.1055 198.998 97.1253 207.695 103.037 217.547" stroke="#020207" stroke-width="2" stroke-miterlimit="10" stroke-linecap="round" stroke-linejoin="round"/>
<path d="M190.724 222.949C191.335 221.728 194.654 221.724 195.946 221.508C199.314 220.947 208.026 220.59 210.352 218.267" stroke="#020207" stroke-width="2" stroke-miterlimit="10" stroke-linecap="round" stroke-linejoin="round"/>
<path d="M209.631 218.446C210.104 217.032 212.389 215.569 213.591 214.665C218.111 211.277 221.811 206.792 226.196 203.502C227.777 202.316 228.758 199.009 231.418 199.541C233.61 199.979 232.006 204.521 231.778 205.662C230.97 209.698 223.172 210.923 228.176 215.927" stroke="#020207" stroke-width="2" stroke-miterlimit="10" stroke-linecap="round" stroke-linejoin="round"/>
<path d="M193.425 243.114C195.704 242.355 197.269 240.377 199.548 239.694C205.324 237.962 210.871 235.107 216.834 234.112C219.803 233.617 223.445 234.653 226.557 234.653C235.136 234.653 243.368 234.496 251.585 232.852C255.505 232.069 255.861 228.003 257.888 225.469C258.875 224.236 260.264 223.147 261.487 222.229C262.257 221.653 263.647 219.704 262.749 218.806C261.433 217.492 257.369 219.291 255.547 218.988C250.368 218.125 245.1 218.957 239.882 218.088C235.914 217.427 232.523 216.647 228.358 216.647" stroke="#020207" stroke-width="2" stroke-miterlimit="10" stroke-linecap="round" stroke-linejoin="round"/>
<path d="M231.418 213.227C231.418 211.44 234.562 211.884 235.559 210.885C236.391 210.052 237.659 208.628 238.98 208.363C240.964 207.968 242.934 208.98 244.922 209.265C248.768 209.814 253.355 209.794 256.986 211.245C259.096 212.089 261.1 212.968 263.288 213.406C263.42 213.432 263.605 213.459 263.648 213.585C263.691 213.713 263.548 213.839 263.469 213.945C262.102 215.769 258.933 216.536 257.887 218.628" stroke="#020207" stroke-width="2" stroke-miterlimit="10" stroke-linecap="round" stroke-linejoin="round"/>
<path d="M238.08 226.91C237.417 225.584 245.349 225.079 246.542 224.93C249.769 224.527 254.183 224.407 257.167 223.129C258.601 222.515 259.749 221.298 261.127 220.608" stroke="#020207" stroke-width="2" stroke-miterlimit="10" stroke-linecap="round" stroke-linejoin="round"/>
<path d="M241.681 231.411C247.991 231.411 256.623 227.996 259.688 221.869" stroke="#020207" stroke-width="2" stroke-miterlimit="10" stroke-linecap="round" stroke-linejoin="round"/>
<path d="M210.531 221.869C211.394 223.594 212.163 225.591 213.412 227.091C214.9 228.875 217.033 230.371 218.093 232.491" stroke="#020207" stroke-width="2" stroke-miterlimit="10" stroke-linecap="round" stroke-linejoin="round"/>
<path d="M211.251 215.747C209.9 219.802 217.68 225.396 219.894 228.351" stroke="#020207" stroke-width="2" stroke-miterlimit="10" stroke-linecap="round" stroke-linejoin="round"/>
<path d="M136.167 125.35C136.743 126.712 140.682 130.165 141.317 131.437" stroke="#020207" stroke-width="2" stroke-miterlimit="10" stroke-linecap="round" stroke-linejoin="round"/>
<path d="M141.209 131.299C141.209 133.187 141.52 135.373 141.209 137.241C140.728 140.117 139.349 143.608 139.947 146.604C141.196 152.849 142.25 159.633 144.269 165.69C146.917 173.631 152.946 181.27 153.992 189.638C154.77 195.865 156.679 205.551 155.433 211.786C154.774 215.081 154.353 219.006 154.353 222.409" stroke="#020207" stroke-width="2" stroke-miterlimit="10" stroke-linecap="round" stroke-linejoin="round"/>
<path d="M157.491 35.3266C161.152 41.9143 163.791 48.1882 165.798 55.496C166.823 59.2372 168.158 62.8843 167.662 66.8521C167.346 69.3798 165.462 71.7259 164.44 73.9707C163.85 75.2711 163.258 77.187 162.238 78.208" stroke="#020207" stroke-width="2" stroke-miterlimit="10" stroke-linecap="round" stroke-linejoin="round"/>
<path d="M151.559 103.802C151.559 104.792 150.22 113.282 149.526 113.802C148.751 114.383 146.282 114.008 145.458 113.802C140.82 112.643 136.217 110.778 131.559 109.226C129.819 108.645 123.643 106.041 123.056 104.28" stroke="#020207" stroke-width="2" stroke-miterlimit="10" stroke-linecap="round" stroke-linejoin="round"/>
<path d="M123.423 116.852C121.056 116.852 126.516 118.313 127.662 118.886C131.099 120.605 133.682 122.872 136.305 125.496" stroke="#020207" stroke-width="2" stroke-miterlimit="10" stroke-linecap="round" stroke-linejoin="round"/>
<path d="M129.864 108.547C129.143 109.898 127.27 117.098 127.27 118.327" stroke="#020207" stroke-width="2" stroke-miterlimit="10" stroke-linecap="round" stroke-linejoin="round"/>
<path d="M134.949 135.835C134.332 134.604 135.747 138.255 135.798 138.378C136.671 140.501 137.833 142.451 138.848 144.479" stroke="#020207" stroke-width="2" stroke-miterlimit="10" stroke-linecap="round" stroke-linejoin="round"/>
<path d="M127.322 137.87C126.966 137.158 127.864 139.955 128 140.412C128.647 142.568 129.695 144.544 129.695 146.853C129.695 153.479 129.133 159.324 127.831 165.836" stroke="#020207" stroke-width="2" stroke-miterlimit="10" stroke-linecap="round" stroke-linejoin="round"/>
<path d="M63.9495 145.835C62.3999 147.385 63.0873 152.145 62.9326 154.31C62.8657 155.249 62.6532 156.275 62.4241 157.191C62.3543 157.471 61.9752 158.109 62.2548 158.039C63.4499 157.74 64.2761 155.373 64.7971 154.48C66.8422 150.973 68.4841 147.539 71.2378 144.479C71.6119 144.064 72.0286 143.688 72.4242 143.293C76.0192 139.698 74.9427 146.852 76.1529 146.852C77.0233 146.852 83.4169 138.572 84.4588 137.53" stroke="#020207" stroke-width="2" stroke-miterlimit="10" stroke-linecap="round" stroke-linejoin="round"/>
<path d="M63.0848 153.462C62.5805 153.21 61.7843 160.644 61.5596 161.768C60.5486 166.822 59.2307 171.798 58.5087 176.852C57.3978 184.628 57.3237 192.777 55.7967 200.412C55.0175 204.308 54.8801 210.097 55.4579 214.14C55.8657 216.995 56.9554 219.85 57.3221 222.785C58.13 229.246 57.2247 236.232 56.6443 242.616C56.2981 246.421 56.8138 250.339 56.8138 254.14" stroke="#020207" stroke-width="2" stroke-miterlimit="10" stroke-linecap="round" stroke-linejoin="round"/>
<path d="M156.614 74.1264C153.49 72.565 147.55 70.8139 144.091 71.9671" stroke="#020207" stroke-width="2" stroke-miterlimit="10" stroke-linecap="round" stroke-linejoin="round"/>
<path d="M150.136 80.6041C149.921 80.3886 148.38 79.122 148.84 78.6609C148.858 78.6428 150.049 79.0707 150.136 79.0927C152.576 79.7026 154.898 79.7404 157.476 79.7404" stroke="#020207" stroke-width="2" stroke-miterlimit="10" stroke-linecap="round" stroke-linejoin="round"/>
<path d="M237.8 211.019C235.594 212.124 234.222 213.412 232.619 215.339C232.22 215.817 231.233 216.786 230.675 217.065C230.409 217.199 229.601 217.492 229.81 217.28C232.491 214.602 235.183 212.331 238.447 210.372C238.622 210.268 238.88 210.144 238.88 209.94C238.88 209.879 236.424 211.354 236.288 211.452C234.743 212.555 233.484 213.988 231.97 215.121C231.233 215.675 229.81 216.849 229.81 216.849C229.81 216.849 230.356 216.24 230.675 215.986C231.677 215.184 232.566 214.311 233.482 213.396C235.826 211.049 238.349 209.641 241.471 208.86C243.709 208.3 245.236 210.935 247.301 211.452C249.163 211.918 251.418 212.099 253.347 212.099C254.566 212.099 264.332 211.529 263.494 214.043C263.18 214.985 259.973 216.269 259.175 217.065" stroke="#020207" stroke-width="2" stroke-miterlimit="10" stroke-linecap="round" stroke-linejoin="round"/>
<path d="M243.199 211.452C241.882 210.795 233.913 214.034 233.913 214.474C233.913 215.434 235.803 214.11 236.721 213.827C238.856 213.169 241.05 212.714 243.199 212.099C244.35 211.769 245.519 211.397 246.652 211.018C246.957 210.917 247.745 210.815 247.517 210.587C247.149 210.221 242.476 211.839 242.334 211.883C239.454 212.793 233.86 213.407 231.97 215.77C231.473 216.391 233.557 216.084 234.344 215.986C235.604 215.829 237.395 215.404 238.663 215.121C242.065 214.366 246.652 214.042 249.892 212.746C250.36 212.559 248.866 212.614 248.38 212.746C247.063 213.106 245.797 213.635 244.493 214.042C244.21 214.13 243.905 214.148 243.63 214.258C240.71 215.426 237.845 216.613 234.994 217.929C234.757 218.037 234.228 218.129 234.344 218.361C234.475 218.619 234.922 218.389 235.209 218.361C237.344 218.147 239.609 217.502 241.687 217.064C244.159 216.545 246.589 216.004 249.027 215.339C250.105 215.044 252.267 214.474 252.267 214.474C252.267 214.474 250.091 214.838 249.027 215.121C246.919 215.685 244.979 216.232 242.983 217.064C242.149 217.412 240.203 217.555 240.606 218.361C240.769 218.682 241.331 218.412 241.687 218.361C244.821 217.913 247.877 216.714 250.97 215.986C251.974 215.75 253.003 215.622 253.994 215.339C254.367 215.231 255.461 214.905 255.073 214.905C254.169 214.905 253.429 215.569 252.698 215.986C245.632 220.023 256.18 216.21 258.097 215.339C258.39 215.204 258.96 215.229 258.96 214.905C258.96 214.712 256.646 215.955 256.585 215.986C256.389 216.084 252.822 217.744 252.914 217.929C253.433 218.965 258.152 216.686 258.96 216.417" stroke="#020207" stroke-width="2" stroke-miterlimit="10" stroke-linecap="round" stroke-linejoin="round"/>
<path d="M236.503 212.1C241.273 213.292 246.298 213.931 251.188 214.474C253.516 214.733 252.777 214.69 254.641 214.69C255.221 214.69 256.78 214.885 256.369 214.474C256.363 214.468 243.943 212.753 243.846 212.747C242.617 212.665 241.404 212.411 240.175 212.315C239.529 212.266 237.584 212.315 238.231 212.315C242.826 212.315 247.462 212.108 252.051 212.315C253.652 212.389 255.423 212.458 257.016 212.747C257.517 212.838 258.984 212.737 258.528 212.962C255.362 214.548 245.376 213.105 242.334 212.315C241.208 212.024 239.096 212.183 239.096 211.019C239.096 210.002 241.117 211.275 242.118 211.452C243.897 211.766 245.535 211.994 247.301 212.315C250.842 212.96 254.48 213.201 257.881 214.474C258.032 214.531 258.312 214.529 258.312 214.69C258.312 215.339 257.012 214.772 256.369 214.69C255.486 214.58 254.651 214.218 253.778 214.043C251.027 213.494 242.435 211.227 240.824 209.078C240.453 208.585 241.975 209.503 242.549 209.725C243.878 210.236 245.704 210.858 247.085 211.237C250.793 212.248 254.729 212.352 258.312 213.827C258.85 214.047 260.233 214.281 259.824 214.69C259.023 215.492 254.806 214.955 253.778 214.906C248.194 214.641 241.532 213.681 236.072 212.315C235.293 212.12 237.653 212.623 238.447 212.747C239.745 212.952 241.027 213.27 242.334 213.396C246.481 213.791 250.571 213.937 254.641 214.906C256.094 215.252 256.357 215.494 257.881 215.771C258.093 215.809 258.528 215.555 258.528 215.771C258.528 215.999 258.105 215.954 257.881 215.986C256.157 216.233 253.968 216.17 252.266 215.771C247.869 214.735 243.874 213.827 239.312 213.827C238.927 213.827 235.913 213.526 235.425 214.259C234.991 214.908 237.509 215.504 239.096 215.986C240.897 216.534 253.404 218.418 253.994 219.008C254.35 219.364 252.983 219.071 252.482 219.008C251.544 218.892 250.614 218.695 249.676 218.577C246.428 218.172 243.087 217.527 239.959 216.634C239.731 216.568 237.234 215.687 237.368 215.555C237.844 215.077 241.41 215.96 241.902 215.986C246.343 216.22 250.934 216.314 255.288 217.281" stroke="#020207" stroke-width="2" stroke-miterlimit="10" stroke-linecap="round" stroke-linejoin="round"/>
<path d="M247.517 167.619C246.857 166.303 241.255 170.215 241.255 171.722C241.255 172.241 242.151 171.191 242.549 170.858C242.785 170.663 242.983 170.426 243.199 170.211C243.675 169.733 245.474 167.619 246.221 167.619C246.884 167.619 245.25 168.529 244.709 168.915C243.675 169.654 243.087 170.699 242.118 171.506C241.919 171.672 241.288 171.754 241.471 171.938C241.817 172.285 247.537 168.831 248.164 168.483C248.842 168.107 250.323 166.844 250.323 167.619C250.323 167.879 249.888 167.9 249.676 168.051C247.61 169.527 245.608 171.04 243.846 172.801C243.52 173.127 242.383 173.41 242.765 173.665C243.89 174.414 249.245 171.182 250.323 170.642C251.218 170.195 252.914 168.131 252.914 169.131C252.914 170.359 250.01 172.036 249.245 172.801C248.956 173.089 248.015 173.483 248.38 173.665C249.356 174.154 253.485 170.91 254.21 170.426C254.776 170.05 256.418 168.867 255.938 169.347C255.539 169.746 251.288 173.005 251.619 173.665C251.76 173.945 256.493 171.228 256.8 171.074C257.148 170.901 258.154 170.368 257.881 170.642C257.391 171.131 254.348 172.786 254.641 173.665C254.822 174.21 259.367 172.263 259.609 172.154C260.022 171.965 260.903 171.267 260.903 171.722C260.903 171.994 258.624 173.57 258.312 173.881C257.936 174.256 255.875 176.719 257.665 175.824" stroke="#020207" stroke-width="2" stroke-miterlimit="10" stroke-linecap="round" stroke-linejoin="round"/>
<path d="M247.301 169.347C247.034 169.214 246.155 169.037 246.436 169.131C250.498 170.485 254.914 170.693 258.959 171.938C259.822 172.203 262.085 172.733 261.334 173.233C259.617 174.379 246.867 172.2 246.867 169.779C246.867 169.521 252.604 170.412 252.698 170.427C253.957 170.615 260.817 171.205 261.55 171.938C261.705 172.091 261.118 171.938 260.903 171.938C259.895 171.938 258.888 171.938 257.881 171.938C256.755 171.938 250.762 171.074 254.857 171.074" stroke="#020207" stroke-width="2" stroke-miterlimit="10" stroke-linecap="round" stroke-linejoin="round"/>
<path d="M237.368 68.5122C237.301 68.479 236.274 67.4326 236.721 67.4326C237.484 67.4326 237.128 72.3699 237.153 72.8306C237.381 77.3909 237.482 81.8933 238.016 86.4336C239.554 99.5039 242.014 113.001 247.948 124.867" stroke="#020207" stroke-width="2" stroke-miterlimit="10" stroke-linecap="round" stroke-linejoin="round"/>
<path d="M281.2 66.7849C279.93 68.688 280.058 71.2211 279.688 73.4783C278.886 78.3762 278.117 83.1037 277.097 87.9449C273.552 104.779 270.844 123.297 262.415 138.47" stroke="#020207" stroke-width="2" stroke-miterlimit="10" stroke-linecap="round" stroke-linejoin="round"/>
<path d="M235.856 66.7849C234.751 66.7849 235.209 72.4364 235.209 72.8306C235.209 77.4191 235.81 81.8763 236.288 86.4335C236.829 91.5637 236.703 96.9099 237.584 101.98C238.815 109.057 241.485 116.494 243.63 123.356C245.303 128.709 249.096 135.959 254.641 138.038" stroke="#020207" stroke-width="2" stroke-miterlimit="10" stroke-linecap="round" stroke-linejoin="round"/>
<path d="M282.063 66.3526C281.033 66.8677 281.829 70.5946 281.847 71.1029C282.047 76.4904 280.801 82.0491 279.688 87.297C277.999 95.2607 275.225 102.761 273.211 110.616C270.996 119.253 269.006 128.742 265.005 136.743" stroke="#020207" stroke-width="2" stroke-miterlimit="10" stroke-linecap="round" stroke-linejoin="round"/>
<path d="M248.164 135.015C248.04 135.015 253.471 135.232 254.857 135.232C258.611 135.232 262.335 135.015 266.086 135.015C267.165 135.015 269.324 135.015 269.324 135.015C269.324 135.015 268.86 135.264 268.677 135.447C267.519 136.606 267.234 138.745 267.165 140.413C266.971 145.075 267.165 149.783 267.165 154.448C267.165 156.263 267.165 162.354 267.165 160.278" stroke="#020207" stroke-width="2" stroke-miterlimit="10" stroke-linecap="round" stroke-linejoin="round"/>
<path d="M250.107 134.368C248.833 134.368 249.645 137.805 249.676 138.254C249.94 142.217 249.891 146.162 249.891 150.13C249.891 150.983 249.497 159.378 250.754 158.119" stroke="#020207" stroke-width="2" stroke-miterlimit="10" stroke-linecap="round" stroke-linejoin="round"/>
<path d="M250.755 135.663C248.571 134.208 254.959 134.584 255.506 134.584C259.298 134.584 262.952 135.663 266.733 135.663C267.853 135.663 270.569 135.563 270.62 135.663C270.832 136.087 269.379 139.718 269.324 140.413C268.982 144.863 269.755 149.347 269.755 153.801C269.755 156.11 269.867 158.42 269.54 160.71C269.448 161.355 268.864 163.114 269.324 162.653C269.534 162.443 269.468 162.078 269.54 161.79" stroke="#020207" stroke-width="2" stroke-miterlimit="10" stroke-linecap="round" stroke-linejoin="round"/>
<path d="M251.835 161.574C254.794 162.165 266.18 163.794 268.893 162.437" stroke="#020207" stroke-width="2" stroke-miterlimit="10" stroke-linecap="round" stroke-linejoin="round"/>
<path d="M269.324 137.822C266.434 137.822 263.211 142.649 261.55 144.516C259.422 146.911 258.99 147.568 259.175 147.754C260.787 149.365 266.546 145.302 267.812 144.731C268.398 144.468 269.723 143.908 270.405 143.652C270.616 143.572 271.052 143.208 271.052 143.436C271.052 144.465 255.15 154.342 265.006 153.584C265.728 153.529 266.447 153.44 267.165 153.368" stroke="#020207" stroke-width="2" stroke-miterlimit="10" stroke-linecap="round" stroke-linejoin="round"/>
<path d="M155.151 33.9941C155.151 35.3877 157.42 37.3321 158.203 38.4711C159.971 41.0441 161.553 43.7836 162.883 46.6111C166.88 55.1043 167.7 66.5528 164.715 75.5079" stroke="#020207" stroke-width="2" stroke-miterlimit="10" stroke-linecap="round" stroke-linejoin="round"/>
<path d="M105.089 33.1795C98.5387 29.9042 92.3585 39.1791 89.6234 43.965C81.7155 57.8043 78.5856 80.7548 81.687 96.2643" stroke="#020207" stroke-width="2" stroke-miterlimit="10" stroke-linecap="round" stroke-linejoin="round"/>
<path d="M81.8913 72.252C80.3182 73.0381 80.4241 76.2981 80.2633 77.7464C79.663 83.1542 78.3586 88.2686 77.4143 93.6194C73.7357 114.463 65.3719 134.146 60.9305 154.873" stroke="#020207" stroke-width="2" stroke-miterlimit="10" stroke-linecap="round" stroke-linejoin="round"/>
<path d="M110.992 130.656C112.143 130.574 113.295 130.453 114.451 130.453" stroke="#020207" stroke-width="2" stroke-miterlimit="10" stroke-linecap="round" stroke-linejoin="round"/>
<path d="M122.12 93.0427C122.12 96.9757 122.727 99.4338 122.591 103.387C122.365 109.952 122.137 117.115 123.812 123.533C126.229 132.806 133.181 141.806 131.138 152.023" stroke="#020207" stroke-width="2" stroke-miterlimit="10" stroke-linecap="round" stroke-linejoin="round"/>
<path d="M238.007 24.9258C238.491 23.5271 238.719 22.2178 239.206 20.8559C239.747 19.3412 240.42 17.9383 241.269 16.5908C242.523 14.5993 244.056 11.9281 245.91 10.4859C246.417 10.0916 246.722 9.54969 247.276 9.13395C247.681 8.8304 248.478 8.58187 248.781 8.22797C249.385 7.5241 250.368 7.18676 251.179 6.75054C252.15 6.22769 253.524 6.13483 254.593 5.71912C256.123 5.12422 258.535 4.90188 260.224 4.85496C262.826 4.78271 265.152 5.50449 267.361 6.66691C270.408 8.2705 274.182 9.05696 276.992 11.1271C279.443 12.9328 282.401 15.1065 284.282 17.5247C284.877 18.2906 284.432 20.5219 284.658 21.5388C284.92 22.7194 285.949 23.2157 286.428 24.1731" stroke="#020207" stroke-width="2" stroke-linecap="round"/>
<path fill-rule="evenodd" clip-rule="evenodd" d="M38.0566 259H37V337H354V259H353.943C351.68 268.986 281.833 277 196 277C110.167 277 40.3196 268.986 38.0566 259Z" fill="url(#paint1_linear_4_3525)" fill-opacity="0.4"/>
</g>
<rect x="0.5" y="0.5" width="387" height="290" rx="23.5" stroke="#BFB1F7"/>
<defs>
<linearGradient id="paint0_linear_4_3525" x1="21.897" y1="261.548" x2="202.472" y2="418.25" gradientUnits="userSpaceOnUse">
<stop stop-color="#603DEB"/>
<stop offset="1" stop-color="#F19077"/>
</linearGradient>
<linearGradient id="paint1_linear_4_3525" x1="21.8492" y1="310.75" x2="293.148" y2="422.783" gradientUnits="userSpaceOnUse">
<stop stop-color="#603DEB"/>
<stop offset="1" stop-color="#F19077"/>
</linearGradient>
<clipPath id="clip0_4_3525">
<rect width="388" height="291" rx="24" fill="white"/>
</clipPath>
</defs>
</svg>
