<svg width="280" height="120" viewBox="0 0 280 120" fill="none" xmlns="http://www.w3.org/2000/svg">
<path fill-rule="evenodd" clip-rule="evenodd" d="M92.38 23.625L92.6114 47.2509L96.5245 47.3214L100.438 47.3927L100.872 36.6654L101.307 25.9381L104.147 23.4042C108.307 19.6927 113.068 19.8484 117.047 23.8268C123.364 30.1435 119.216 39.4872 110.158 39.3498C106.702 39.2977 106.433 39.4803 104.999 42.8386C104.166 44.7874 103.695 46.5918 103.952 46.8483C104.207 47.1048 106.88 47.4709 109.891 47.6631C120.323 48.3275 126.999 42.3125 127.679 31.6374C127.978 26.9469 127.673 25.3503 125.715 21.3484C124.244 18.3414 122.308 15.9387 120.412 14.7665C116.299 12.2247 109.176 11.5882 104.891 13.3786C103.042 14.1508 101.382 14.783 101.201 14.783C101.02 14.783 100.872 11.4569 100.872 7.39152V0H96.5106H92.1487L92.38 23.625ZM133.917 3.88446V7.76892L143.49 8.01501L153.063 8.26111L149.143 13.0378C145.856 17.0405 145.222 18.4136 145.222 21.5163C145.222 24.6685 145.486 25.2181 147.004 25.2181C149.467 25.2181 153.595 27.4704 154.247 29.1704C155.048 31.2574 154.902 34.6827 153.936 36.4889C152.911 38.4037 148.365 40.1333 146.284 39.4003C143.822 38.5324 140.874 35.4602 140.874 33.7627C140.874 32.4375 140.155 32.1748 136.526 32.1748C132.806 32.1748 132.178 32.4183 132.178 33.8575C132.178 38.2394 136.254 44.0969 141.048 46.6005C144.8 48.5605 152.269 48.1788 155.724 45.85C164.505 39.9333 165.709 29.6122 158.545 21.6824C155.118 17.8892 154.957 18.6423 160.643 11.8003C162.985 8.98287 163.483 7.64718 163.483 4.19143V0H148.7H133.917V3.88446ZM63.9149 13.3265C60.2061 15.0222 55.0616 21.0345 53.9772 24.939C52.5476 30.087 52.8554 33.1914 55.2738 38.0454C58.4643 44.4474 63.7679 47.8275 70.6203 47.8275C75.8039 47.8275 81.1302 45.877 83.3937 43.1499C85.1059 41.0864 79.2058 38.8681 72.4734 39.0446C67.8863 39.1655 66.7637 38.8733 64.6471 37.0124L62.1757 34.8384L75.3283 34.8114L88.4808 34.7836L88.9695 32.3392C90.1104 26.6364 86.7181 19.2675 81.151 15.3552C76.8857 12.3569 68.255 11.3412 63.9149 13.3265ZM0 14.1369C0 15.6996 10.3925 45.5126 11.2325 46.3579C11.6169 46.7457 13.8143 46.9413 16.1152 46.7926L20.2997 46.5231L23.7572 36.1376L27.2147 25.7512L28.4886 30.0504C29.1895 32.4149 30.6296 37.088 31.6887 40.4359L33.6149 46.5231L37.7994 46.7926C40.1003 46.9413 42.3047 46.7413 42.6986 46.3474C43.0917 45.9544 45.9091 38.3002 48.9588 29.3382L54.5033 13.0439H49.9467H45.3891L42.1569 23.0441C40.3785 28.5443 38.6646 33.0444 38.3472 33.0444C38.0298 33.0444 36.2897 28.5443 34.4793 23.0441L31.1879 13.0439H26.9703H22.7528L19.5684 22.6007C17.817 27.8573 16.0483 32.3653 15.6378 32.6183C15.2274 32.8722 13.4343 28.5721 11.6525 23.0615L8.41328 13.0439H4.20621C1.40874 13.0439 0 13.41 0 14.1369ZM76.8413 22.6728C78.1014 23.6633 79.1327 24.8372 79.1327 25.2816C79.1327 25.7251 75.4152 26.0877 70.8716 26.0877C66.328 26.0877 62.6105 25.7251 62.6105 25.2816C62.6105 23.3763 67.3037 20.8702 70.8716 20.8702C73.276 20.8702 75.3439 21.4945 76.8413 22.6728ZM138.265 66.9811V74.8291L135.459 73.3786C131.086 71.1168 124.376 71.4864 119.663 74.2491C107.139 81.5884 108.503 100.867 121.944 106.483C126.27 108.291 131.123 108.18 135.038 106.184C137.587 104.884 138.265 104.793 138.265 105.749C138.265 106.622 139.477 106.96 142.613 106.96H146.961V83.0459V59.1321H142.613H138.265V66.9811ZM14.3482 72.1012C1.13482 75.4126 -3.97924 91.2704 4.84362 101.577C10.1386 107.763 20.2997 109.653 26.4834 105.6C28.5017 104.279 28.6965 104.274 28.6965 105.555C28.6965 106.64 29.5869 106.96 32.6096 106.96H36.5228V89.5678V72.176H32.6096C29.6817 72.176 28.6965 72.5099 28.6965 73.503C28.6965 74.6674 28.4034 74.6795 26.3051 73.6056C23.1433 71.9873 17.5901 71.2881 14.3482 72.1012ZM54.0216 72.1777C49.4806 73.2499 44.2508 77.4266 42.0482 81.7415C35.6584 94.2566 46.0396 109.21 59.9722 107.56C63.7001 107.119 70.4368 104.044 70.4368 102.785C70.4368 102.496 69.2142 100.999 67.7211 99.4576C65.0471 96.6984 64.9601 96.6758 62.1653 98.0089C58.2208 99.8898 53.7476 98.915 50.9232 95.5584C44.5552 87.9895 53.1563 77.1805 62.1392 81.4641L65.2732 82.9589L68.0724 80.1232L70.8716 77.2874L68.3307 75.2326C66.9332 74.1021 64.1184 72.756 62.0757 72.2412C57.9599 71.2055 58.1347 71.2064 54.0216 72.1777ZM83.5807 72.5838C69.5472 77.0622 66.9906 97.4472 79.4936 105.174C84.1476 108.051 90.9722 108.479 95.4854 106.176C98.5976 104.589 99.1333 104.517 99.1333 105.685C99.1333 106.777 99.9724 107.001 103.264 106.79L107.394 106.525V89.5678V72.6108L103.264 72.3456C99.9933 72.136 99.1333 72.3621 99.1333 73.4326C99.1333 75.0813 99.1342 75.0813 96.0062 73.5447C92.04 71.5968 87.7217 71.2629 83.5807 72.5838ZM163.226 72.536C155.964 74.5048 150.439 81.9093 150.439 89.6713C150.439 95.1967 154.075 102.116 158.526 105.061C161.525 107.046 162.971 107.392 168.202 107.38C173.418 107.367 174.915 107.002 178.049 104.977C180.082 103.664 181.744 102.257 181.744 101.849C181.744 100.232 174.357 98.2898 170.005 98.7637C166.565 99.1376 165.066 98.8655 162.831 97.4585C161.277 96.4802 160.005 95.2836 160.005 94.7984C160.005 94.241 164.806 93.9157 173.048 93.9157H186.092V89.6243C186.092 84.1242 185.162 81.7719 181.291 77.4874C176.767 72.4795 170.136 70.662 163.226 72.536ZM203.919 71.9299C202.962 72.1803 201.408 72.9247 200.464 73.5847C198.237 75.143 197.397 75.1013 197.397 73.4326C197.397 72.3621 196.537 72.136 193.266 72.3456L189.136 72.6108L188.9 89.7852L188.665 106.96H192.963H197.262L197.547 95.2488C197.865 82.1658 198.515 80.5823 203.566 80.5823C208.099 80.5823 208.702 82.3189 208.702 95.3862V106.96H213.05H217.398L217.411 95.4375C217.418 89.1008 217.711 83.485 218.063 82.9589C220.299 79.6092 225.891 79.8527 227.78 83.3815C228.289 84.3346 228.702 89.993 228.702 96.0323V106.96H233.128H237.554L237.247 93.6983C236.913 79.2666 236.077 76.2387 231.625 73.3212C228.309 71.149 221.529 71.3655 218.307 73.7482C215.177 76.0622 215.279 76.0587 212.363 73.956C209.692 72.0316 206.478 71.2603 203.919 71.9299ZM239.757 72.7151C239.461 73.0125 240.358 75.5143 241.753 78.2762C243.147 81.038 245.718 86.7634 247.468 90.9983C249.218 95.2332 251.568 100.52 252.692 102.746L254.735 106.794L253.012 108.984C252.066 110.188 250.121 111.431 248.691 111.745C246.803 112.16 245.951 112.95 245.577 114.638C245.295 115.915 244.877 117.645 244.651 118.482C244.299 119.777 244.859 120.003 248.427 120C253.319 119.996 257.032 118.03 260.341 113.691C261.593 112.051 262.616 110.496 262.616 110.236C262.616 109.977 265.591 103.557 269.228 95.9706C278.243 77.1596 279.936 73.2638 279.351 72.6777C279.074 72.4021 277.051 72.176 274.854 72.176H270.859L265.064 84.4798L259.269 96.7828L257.99 93.8279C257.287 92.2018 254.721 86.6651 252.289 81.5241L247.867 72.176H244.082C242 72.176 240.054 72.4186 239.757 72.7151ZM25.3546 83.2233C30.0217 87.6008 29.2687 95.2297 23.9198 97.768C17.7049 100.717 11.2908 98.2785 9.49505 92.2835C8.59242 89.273 8.67416 88.4565 10.129 85.9372C13.5673 79.9823 20.5702 78.7336 25.3546 83.2233ZM92.5714 81.2336C96.1175 82.7154 98.0602 85.4538 98.5889 89.7139C99.2298 94.881 94.7453 99.1333 88.6547 99.1333C84.6242 99.1333 80.0023 94.2862 80.0023 90.0591C80.0023 86.1199 82.1545 82.7311 85.6129 81.225C88.9756 79.7606 89.0443 79.7606 92.5714 81.2336ZM131.571 80.9302C135.575 82.0424 138.257 85.9399 138.261 90.6548C138.269 98.1246 127.97 102.015 122.545 96.5915C120.429 94.4749 120.003 93.3375 120.003 89.7974C120.003 86.2781 120.416 85.1607 122.395 83.3172C124.475 81.3797 126.278 80.3032 127.83 80.0762C128.069 80.0406 129.752 80.4249 131.571 80.9302ZM171.554 81.1719C173.094 81.8154 174.89 82.9893 175.546 83.7807C176.642 85.1024 176.061 85.2198 168.4 85.2198C161.726 85.2198 160.15 84.9833 160.512 84.0381C160.941 82.9207 163.181 81.5284 166.092 80.5693C168.163 79.8866 168.594 79.9345 171.554 81.1719Z" fill="white"/>
</svg>
