<svg width="135" height="168" viewBox="0 0 135 168" fill="none" xmlns="http://www.w3.org/2000/svg">
<g clip-path="url(#clip0_155_5999)" filter="url(#filter0_d_155_5999)">
<path d="M12.8748 156.262C12.8748 158.141 11.2689 160.019 8.50788 160.019C6.95446 159.927 5.43634 159.518 4.047 158.817L4.98613 156.704C5.98211 157.33 7.09888 157.74 8.2637 157.906C9.44701 157.906 10.0011 157.408 10.0011 156.629C10.0011 155.849 9.37188 155.004 8.12283 154.553C5.56839 153.614 4.51656 152.449 4.51656 150.487C4.51656 148.524 6.3197 146.984 8.75205 146.984C10.0989 147.025 11.4226 147.345 12.6401 147.923L11.7854 149.876C10.8603 149.417 9.85657 149.136 8.82718 149.05C8.07587 149.05 7.41848 149.425 7.41848 150.149C7.41848 151.088 8.07588 151.83 9.50336 152.384C11.6164 153.201 12.8748 154.13 12.8748 156.262Z" fill="white"/>
<path d="M20.1437 160C16.3027 160 14.6498 157.586 14.6498 153.633C14.6498 149.876 16.528 146.965 20.3691 146.965C24.2101 146.965 25.8536 149.369 25.8536 153.351C25.8536 157.117 23.9754 160 20.1437 160ZM20.3879 157.887C22.3225 157.887 22.7733 156.009 22.7733 153.605C22.7733 151.2 22.2755 149.068 20.1155 149.068C18.1809 149.068 17.7301 150.947 17.7301 153.379C17.7301 155.811 18.2373 157.887 20.3879 157.887Z" fill="white"/>
<path d="M33.3291 149.162C32.296 149.162 30.6901 149.519 30.6901 153.426C30.6901 157.333 32.2772 157.868 33.4511 157.868C34.2906 157.812 35.1184 157.641 35.9117 157.361L36.6066 159.174C35.5038 159.695 34.2949 159.952 33.0755 159.925C29.2157 159.925 27.6097 157.464 27.6097 153.802C27.6097 149.388 30.1172 146.965 33.3478 146.965C34.0107 146.938 34.6695 147.08 35.2625 147.377C35.8555 147.674 36.3632 148.117 36.7381 148.665L35.1322 150.195C34.9332 149.894 34.6665 149.644 34.3533 149.465C34.0402 149.285 33.6894 149.182 33.3291 149.162Z" fill="white"/>
<path d="M39.95 145.152C39.7265 145.166 39.5027 145.132 39.2932 145.053C39.0837 144.974 38.8934 144.851 38.7346 144.694C38.5758 144.536 38.4523 144.346 38.372 144.137C38.2918 143.928 38.2567 143.704 38.269 143.481C38.248 143.243 38.2787 143.005 38.3591 142.78C38.4395 142.556 38.5677 142.352 38.7347 142.183C38.9018 142.013 39.1037 141.882 39.3265 141.798C39.5493 141.714 39.7877 141.679 40.0252 141.696C40.2505 141.683 40.4761 141.719 40.6864 141.801C40.8967 141.883 41.0868 142.009 41.2437 142.172C41.4006 142.334 41.5207 142.528 41.5956 142.741C41.6706 142.954 41.6987 143.181 41.678 143.406C41.6961 143.638 41.6639 143.871 41.5837 144.09C41.5035 144.309 41.3772 144.508 41.2132 144.674C41.0493 144.84 40.8517 144.968 40.6337 145.051C40.4158 145.133 40.1826 145.168 39.95 145.152ZM38.5413 147.265H41.3587V156.76C41.3587 157.511 41.5841 157.699 42.0631 157.699C42.3167 157.699 42.7111 157.652 42.7111 157.652L43.021 159.455C42.4645 159.719 41.8517 159.841 41.2367 159.812C40.8648 159.834 40.4926 159.775 40.1455 159.64C39.7984 159.505 39.4844 159.297 39.2251 159.029C38.9657 158.762 38.767 158.442 38.6426 158.091C38.5181 157.74 38.4708 157.366 38.5038 156.995L38.5413 147.265Z" fill="white"/>
<path d="M56.3379 159.042L54.1122 159.981C53.3089 159.129 52.8533 158.006 52.8349 156.835C52.6766 157.737 52.1875 158.548 51.4634 159.109C50.7392 159.67 49.8319 159.941 48.9188 159.869C45.7821 159.869 44.3076 157.408 44.3076 153.651C44.3076 149.895 46.74 147.078 50.2993 147.078C51.9329 147.149 53.5543 147.395 55.1358 147.81V153.727C55.1358 157.662 56.3379 159.042 56.3379 159.042ZM52.2809 149.322C51.7429 149.165 51.1879 149.074 50.628 149.05C48.1205 149.05 47.388 150.928 47.388 153.407C47.388 155.746 47.5664 157.868 49.3977 157.868C51.0506 157.868 52.2809 155.389 52.2809 152.938V149.322Z" fill="white"/>
<path d="M58.3663 142.072L61.1837 141.546V156.76C61.1837 157.511 61.4842 157.793 62.0571 157.793C62.5088 157.784 62.9573 157.714 63.3907 157.586L63.7382 159.399C62.8981 159.714 62.0057 159.867 61.1086 159.85C60.7292 159.888 60.3461 159.841 59.9869 159.713C59.6278 159.585 59.3016 159.379 59.032 159.109C58.7624 158.839 58.556 158.513 58.4279 158.154C58.2998 157.795 58.2531 157.412 58.2912 157.032L58.3663 142.072Z" fill="white"/>
<path d="M78.877 151.923C78.877 150.75 78.7549 149.97 78.0506 149.97C77.3462 149.97 76.3977 151.219 76.3977 153.126V159.699H72.4064V151.877C72.4064 150.703 72.3125 149.923 71.5799 149.923C70.8474 149.923 69.9271 151.2 69.9271 153.21V159.699H65.9827V153.182C65.9827 149.219 64.6116 147.942 64.6116 147.942L67.7952 146.937C68.3514 147.597 68.7439 148.379 68.941 149.219C69.3274 148.494 69.9126 147.894 70.6278 147.49C71.3431 147.086 72.1588 146.894 72.9792 146.937C73.5811 146.889 74.183 147.028 74.7037 147.333C75.2243 147.639 75.6386 148.097 75.8906 148.646C76.2947 148.087 76.8319 147.638 77.4534 147.34C78.075 147.041 78.7612 146.903 79.4499 146.937C82.0325 146.937 82.8589 148.665 82.8589 151.304V159.699H78.877V151.923Z" fill="white"/>
<path d="M95.603 150.693C95.603 153.126 93.1143 155.032 89.1324 155.389C89.157 155.634 89.2298 155.872 89.3465 156.09C89.4632 156.307 89.6216 156.499 89.8125 156.655C90.0035 156.811 90.2234 156.928 90.4596 157C90.6957 157.071 90.9436 157.095 91.189 157.07C92.4082 156.974 93.607 156.702 94.7484 156.262L95.4997 158.873C93.9473 159.582 92.2661 159.966 90.5598 160C86.4746 160 84.8405 157.521 84.8405 153.83C84.8405 149.341 87.6579 146.937 91.2078 146.937C94.3445 146.909 95.603 148.543 95.603 150.693ZM91.6586 150.797C91.6746 150.664 91.6622 150.53 91.6223 150.402C91.5823 150.275 91.5157 150.158 91.4268 150.058C91.338 149.959 91.2289 149.879 91.1069 149.825C90.985 149.771 90.8529 149.744 90.7195 149.745C89.4423 149.745 88.9915 151.398 88.9351 152.825C90.9073 152.778 91.6586 151.595 91.6586 150.797Z" fill="white"/>
<path d="M105.126 157.436C104.921 158.178 104.468 158.826 103.842 159.274C103.217 159.722 102.457 159.942 101.689 159.897C98.411 159.897 96.8521 157.417 96.8521 153.651C96.8521 149.886 99.4065 146.984 103.144 146.984C103.445 146.984 103.82 147.04 104.168 147.059V141.593L108.131 142.25V153.708C108.131 157.662 109.483 158.92 109.512 158.948L106.365 159.944C105.712 159.25 105.28 158.377 105.126 157.436ZM104.187 150.092C103.858 149.974 103.512 149.907 103.163 149.895C101.538 149.895 101.088 151.369 101.088 153.407C101.088 155.286 101.163 156.985 102.365 156.985C103.388 156.985 104.187 155.107 104.187 153.003V150.092Z" fill="white"/>
<path d="M113.052 145.566C112.763 145.584 112.473 145.542 112.202 145.441C111.93 145.34 111.683 145.183 111.477 144.98C111.27 144.777 111.109 144.533 111.003 144.263C110.897 143.993 110.85 143.704 110.864 143.415C110.836 143.106 110.875 142.795 110.98 142.503C111.084 142.211 111.25 141.945 111.467 141.723C111.684 141.502 111.947 141.33 112.236 141.22C112.526 141.11 112.837 141.064 113.146 141.086C113.437 141.069 113.729 141.115 114.001 141.22C114.273 141.325 114.52 141.487 114.725 141.695C114.929 141.903 115.087 142.152 115.187 142.426C115.287 142.7 115.328 142.992 115.306 143.283C115.331 143.587 115.29 143.893 115.186 144.179C115.082 144.465 114.918 144.726 114.704 144.943C114.489 145.159 114.231 145.327 113.946 145.435C113.661 145.542 113.356 145.587 113.052 145.566ZM111.117 147.124H115.081V155.896C115.081 156.647 115.306 156.835 115.776 156.835C115.998 156.829 116.219 156.795 116.433 156.732L116.78 159.221C116.014 159.616 115.164 159.822 114.301 159.822C112.423 159.822 111.117 158.77 111.117 157.004V147.124Z" fill="white"/>
<path d="M130.295 158.948L127.111 159.944C126.47 159.246 126.052 158.373 125.909 157.436C125.704 158.178 125.251 158.826 124.625 159.274C124 159.722 123.24 159.942 122.472 159.897C119.185 159.897 117.635 157.417 117.635 153.651C117.635 149.886 120.189 146.984 123.927 146.984C125.609 147.066 127.279 147.312 128.914 147.716V153.708C128.905 157.662 130.295 158.948 130.295 158.948ZM124.951 150.092C124.622 149.974 124.276 149.908 123.927 149.895C122.293 149.895 121.842 151.369 121.842 153.407C121.842 155.286 121.917 156.985 123.129 156.985C124.153 156.985 124.951 155.107 124.951 153.003V150.092Z" fill="white"/>
<path d="M105.06 85.0384C102.083 85.461 100.853 83.733 100.233 81.4509C106.807 80.3428 110.507 76.6144 109.944 72.9988C109.474 70.0029 107.305 67.9556 102.844 68.66C101.148 68.8959 99.5527 69.6055 98.2419 70.7073C96.2984 70.5625 94.3484 70.5218 92.4005 70.5852C89.9964 70.9608 88.1463 72.6701 87.5828 75.7128C87.1424 74.2902 86.3051 73.0228 85.1692 72.0596L82.0043 73.9379C82.0043 73.9379 84.1643 75.6753 85.0941 81.6388L85.7045 85.029C82.1076 86.9824 77.2523 89.5369 75.8906 89.7247C72.9323 90.1849 71.6927 88.4193 71.0634 86.1372C77.6374 85.029 81.3376 81.3007 80.7741 77.685C80.3045 74.6798 78.1351 72.6419 73.6742 73.3368C68.5747 74.1351 65.222 78.3142 66.2363 84.9915C66.4155 86.9816 67.1619 88.8786 68.3869 90.4572L63.5034 91.2367L62.0666 82.3619C61.4373 78.3988 59.437 76.1636 55.5678 76.7271C54.4483 76.8598 53.3762 77.2558 52.4392 77.8826C51.5022 78.5094 50.727 79.3493 50.1771 80.3334L48.4773 69.4958L44.317 70.9139L47.7542 92.8896C47.6133 92.9647 43.1243 95.1153 41.7249 95.3407C40.8609 95.4722 39.9969 95.3407 39.7903 94.0635L38.0529 82.9348L42.1476 82.2962L42.1945 79.1782L37.5834 79.892L35.8272 68.9887L34.1837 58.5079C33.6484 55.0989 35.7615 52.3848 37.8275 52.0655C39.6213 51.7837 40.5041 53.0046 40.8328 55.0895L42.1851 63.7013L42.7486 67.317L57.2958 65.2697H57.5399C60.733 64.7719 62.3295 62.95 62.6864 59.8227C63.01 61.5314 63.9448 63.0637 65.316 64.1333L77.1584 62.2551C78.4802 62.1028 79.7325 61.5817 80.7721 60.7514C81.8117 59.921 82.5967 58.8149 83.0374 57.5594C83.6838 58.6303 84.1264 59.8116 84.3428 61.0436C84.756 63.6638 83.845 65.7393 81.0746 66.1619C79.175 66.2933 77.2672 66.0866 75.4398 65.5514L74.9045 68.9793C77.1957 69.6121 79.589 69.7876 81.948 69.4958C86.5216 68.782 89.0384 65.7393 88.2214 60.4519C87.7518 57.4467 86.3431 55.7563 85.8642 52.7886L84.3428 41.6693L79.957 42.3549L81.5442 52.5257C82.0513 55.7469 79.8631 58.4704 77.9097 58.7803C76.116 59.062 75.2332 57.8412 74.9139 55.7938L72.9793 43.4536L68.7062 44.1392L70.6784 56.5733C70.8057 57.4356 71.0326 58.2802 71.3546 59.0902L66.8843 59.7945C66.1542 58.1101 65.6551 56.3347 65.4005 54.5166L64.02 45.6606C61.555 45.4222 59.072 45.4379 56.6102 45.7076C51.2853 46.5434 48.2989 51.3424 49.191 56.9771C49.4154 58.8558 50.0159 60.6699 50.9566 62.3114L46.4394 63.0252L45.0401 54.1222C44.4203 50.1403 42.4199 47.9239 38.5601 48.4874C37.4397 48.6171 36.3663 49.0119 35.4289 49.639C34.4915 50.2662 33.7169 51.1076 33.1694 52.0937L30.3521 34.9827L26.8115 39.4435L31.5072 69.7118L33.254 80.6057L29.8825 81.1316L30.3614 84.165L33.7799 83.5828L35.5924 95.1717C36.0714 98.252 38.2783 99.0503 41.0488 98.6277C42.5514 98.3929 45.6505 97.0311 48.2144 95.8103C50.3744 94.7866 52.1587 93.8569 52.2808 93.7818L51.182 86.7477C50.6467 83.3292 52.7598 80.6151 54.8165 80.2958C56.629 80.0141 57.5024 81.2349 57.8311 83.3198L59.7093 95.5285L63.9824 94.8618L75.9845 92.899C78.2196 92.7017 82.8026 90.2694 86.1553 88.3254L86.6437 91.0958L90.9261 90.4291L90.2217 85.9306L89.9494 84.212L89.3202 80.1549C88.8976 77.4878 90.5598 75.3466 92.363 75.0648C93.4654 74.9216 94.5758 74.8494 95.6875 74.8488C95.2036 76.6466 95.1235 78.5292 95.4527 80.3615C96.3073 85.8367 99.2092 89.1424 104.985 88.2409C107.422 87.8026 109.735 86.8414 111.765 85.4235L113.878 80.4085C113.878 80.4085 108.065 84.6064 105.06 85.0384ZM57.5305 48.6283C58.3728 48.5275 59.224 48.5275 60.0662 48.6283L60.9114 54.0283C61.4843 57.7097 60.2352 61.7104 57.7559 62.0954C55.0137 62.5274 54.253 59.3719 53.7083 55.8878C53.126 52.1312 53.774 49.2199 57.5305 48.6283ZM73.7494 76.3515C74.0632 76.2865 74.3873 76.2891 74.7 76.3593C75.0127 76.4295 75.3069 76.5655 75.5629 76.7584C75.8188 76.9513 76.0307 77.1965 76.1844 77.4777C76.3381 77.759 76.43 78.0698 76.4541 78.3894C76.7264 80.1549 75.2144 82.5403 70.4812 83.4701C70.0774 80.3897 70.453 76.868 73.7494 76.3515ZM102.966 71.6558C103.279 71.5923 103.602 71.5961 103.914 71.667C104.225 71.7379 104.518 71.8742 104.773 72.0669C105.028 72.2596 105.239 72.5043 105.392 72.7848C105.545 73.0653 105.637 73.3751 105.661 73.6937C105.943 75.4499 104.431 77.8447 99.6976 78.7744C99.2844 75.6753 99.66 72.1629 102.966 71.6464V71.6558Z" fill="white"/>
<path d="M4 74.5389C4 46.0832 20.9044 6.91202 71.6175 0C76.8955 0 74.8857 7.98263 70.3685 8.45219C41.1803 11.7392 12.7527 38.5044 12.7527 70.3504C13.6261 94.2044 27.3374 129.074 85.0096 96.8433C89.987 94.0259 93.8562 93.7442 93.3866 98.7216C93.0579 102.347 91.884 112.743 88.691 117.598C94.2225 112.405 122.18 88.6823 122.18 63.6638C122.19 39.5469 85.0471 8.86541 47.8293 29.1131C44.4672 30.935 43.0116 23.8915 47.5757 20.6609C71.6175 3.83166 130.727 15.9653 130.727 63.4384C130.727 93.4906 102.205 119.73 80.2106 134.23C76.0878 136.944 72.6975 134.503 74.4255 130.333C76.6137 125.139 84.3334 111.823 84.6715 105.117C21.6745 142.401 4 96.6273 4 74.5389Z" fill="white"/>
<path d="M118.924 8.12852L118.74 9.23372H116.677V16.4421H115.228V9.23372H113.128V8.12852H118.924ZM118.531 31.4421H117.5L116.112 28.2861C116.071 28.1961 116.018 28.0733 115.952 27.9177C115.895 27.7622 115.83 27.5903 115.756 27.402C115.682 27.2137 115.604 27.0172 115.523 26.8125C115.441 26.5997 115.363 26.3868 115.289 26.174C115.289 26.3868 115.285 26.5997 115.277 26.8125C115.277 27.0172 115.273 27.2137 115.265 27.402C115.256 27.5821 115.248 27.7458 115.24 27.8932C115.24 28.0323 115.24 28.1429 115.24 28.2247L115.117 31.4421H113.742L114.233 23.104H115.375L117.475 28.3107C117.549 28.499 117.631 28.7036 117.721 28.9247C117.819 29.1457 117.909 29.3627 117.991 29.5755C118.073 29.3627 118.159 29.1498 118.249 28.937C118.339 28.7159 118.425 28.5072 118.507 28.3107L120.619 23.104H121.736L122.227 31.4421H120.864L120.729 28.2616C120.721 28.0569 120.709 27.7663 120.692 27.3897C120.684 27.0049 120.676 26.616 120.668 26.2231C120.594 26.4277 120.516 26.6324 120.435 26.8371C120.361 27.0417 120.291 27.2341 120.226 27.4142C120.16 27.5943 120.099 27.7581 120.042 27.9054C119.984 28.0528 119.939 28.1674 119.906 28.2493L118.531 31.4421Z" fill="white"/>
</g>
<defs>
<filter id="filter0_d_155_5999" x="0" y="0" width="134.727" height="168" filterUnits="userSpaceOnUse" color-interpolation-filters="sRGB">
<feFlood flood-opacity="0" result="BackgroundImageFix"/>
<feColorMatrix in="SourceAlpha" type="matrix" values="0 0 0 0 0 0 0 0 0 0 0 0 0 0 0 0 0 0 127 0" result="hardAlpha"/>
<feOffset dy="4"/>
<feGaussianBlur stdDeviation="2"/>
<feComposite in2="hardAlpha" operator="out"/>
<feColorMatrix type="matrix" values="0 0 0 0 0 0 0 0 0 0 0 0 0 0 0 0 0 0 0.25 0"/>
<feBlend mode="normal" in2="BackgroundImageFix" result="effect1_dropShadow_155_5999"/>
<feBlend mode="normal" in="SourceGraphic" in2="effect1_dropShadow_155_5999" result="shape"/>
</filter>
<clipPath id="clip0_155_5999">
<rect width="126.727" height="160" fill="white" transform="translate(4)"/>
</clipPath>
</defs>
</svg>
