<svg width="160" height="160" viewBox="0 0 160 160" fill="none" xmlns="http://www.w3.org/2000/svg">
<path fill-rule="evenodd" clip-rule="evenodd" d="M0 80V160H80H160V80V0H80H0V80ZM154.928 80V154.928H80H5.07205V80V5.07205H80H154.928V80ZM46.3401 24.2504C41.1887 25.4746 38.1197 27.1783 34.246 30.9639C29.2712 35.8257 27.408 41.0246 27.7828 48.996C27.9995 53.6014 28.148 54.2303 29.8508 57.7568C36.4726 71.4693 53.2104 75.5952 66.6674 66.832C68.2107 65.8273 69.9578 64.4897 70.5494 63.8594L71.6261 62.714L68.4606 59.3683C66.72 57.5285 65.1541 55.8515 64.9812 55.6417C64.8078 55.4315 63.568 56.0913 62.2252 57.1076C54.7274 62.7822 46.0261 61.4953 41.6443 54.0639C40.7751 52.5897 40.4279 51.2088 40.2411 48.4874C39.9313 43.9668 40.8171 41.019 43.3503 38.1413C48.178 32.6571 56.6515 32.6225 62.6725 38.0625C64.3057 39.538 64.6907 39.7049 65.1882 39.153C65.5115 38.7947 67.0916 36.9923 68.6995 35.1484L71.6224 31.7948L70.3769 30.4945C68.3624 28.3919 62.7371 25.4474 58.8205 24.4459C54.637 23.3761 50.3046 23.3079 46.3401 24.2504ZM87.147 47.5255V71.0737L99.9424 70.9095C112.28 70.7514 112.865 70.7025 116.299 69.5465C126.973 65.9537 132.857 57.2242 132.214 45.9366C131.726 37.3635 127.327 30.5001 119.924 26.7633C115.253 24.4058 112.016 23.9769 98.8749 23.9769H87.147V47.5255ZM112.08 34.6771C114.54 35.7404 117.025 38.1289 118.413 40.7654C119.502 42.8325 119.65 43.6348 119.652 47.4928C119.655 52.4311 118.758 54.9662 116.053 57.6673C113.351 60.3656 111.118 61.0476 104.899 61.0725L99.366 61.0951L99.2438 47.3217L99.1216 33.5484L104.777 33.7568C108.436 33.8914 111.014 34.2165 112.08 34.6771ZM44.462 91.6288C43.4697 93.8564 37.8518 106.85 30.5508 123.804C27.9133 129.929 26.7435 132.764 26.7435 133.031C26.7435 133.17 29.3598 133.226 32.5575 133.155L38.371 133.026L39.8995 129.337L41.428 125.648H50.9625H60.4966L61.9744 129.337L63.4522 133.026L69.5359 133.155C72.8821 133.225 75.6196 133.183 75.6196 133.06C75.6196 132.8 71.9682 124.049 70.3142 120.346C69.3464 118.178 67.5887 114 60.6151 97.2911C60.0327 95.8963 59.0317 93.5101 58.3908 91.9885L57.2247 89.2219L51.437 89.0928L45.6489 88.9637L44.462 91.6288ZM102.799 91.1682C102.248 92.3799 101.323 94.513 100.744 95.9078C100.165 97.3026 98.8182 100.415 97.7522 102.824C96.6861 105.233 95.3356 108.346 94.7514 109.741C94.1676 111.135 92.924 114.04 91.9885 116.196C91.0529 118.352 89.8135 121.256 89.2348 122.651C88.6557 124.046 87.561 126.548 86.8021 128.21C84.2711 133.753 83.8889 133.257 90.6896 133.251L96.5994 133.246L98.026 129.447L99.4522 125.648H109.063H118.673L120.101 129.337L121.529 133.026L127.623 133.155C130.975 133.225 133.718 133.144 133.718 132.974C133.718 132.664 131.54 127.39 129.077 121.729C128.359 120.081 126.426 115.516 124.782 111.585C123.137 107.654 120.341 101.014 118.569 96.83L115.346 89.2219L109.574 89.0933L103.802 88.9641L102.799 91.1682ZM54.2022 109.197L57.0047 116.427L54.1132 116.563C52.5229 116.637 49.8015 116.637 48.065 116.563L44.9084 116.427L47.8672 108.91C49.4949 104.776 50.9552 101.522 51.1129 101.68C51.2705 101.837 52.6607 105.22 54.2022 109.197ZM110.594 104.669C111.136 106.063 112.389 109.28 113.378 111.816L115.177 116.427L112.249 116.563C110.638 116.637 107.904 116.637 106.173 116.563L103.025 116.427L105.992 108.912C107.624 104.779 109.105 101.563 109.284 101.765C109.462 101.967 110.051 103.274 110.594 104.669Z" fill="white"/>
</svg>
