<svg width="273" height="188" viewBox="0 0 273 188" fill="none" xmlns="http://www.w3.org/2000/svg">
<g opacity="0.1">
<rect width="147" height="95.5745" rx="8" transform="matrix(0.843332 -0.537393 0.843332 0.537393 0.548828 135.72)" fill="#7D7D7D"/>
</g>
<rect width="147" height="95.5745" rx="8" transform="matrix(0.843332 -0.537393 0.843332 0.537393 12.1724 78.997)" fill="#74CE63"/>
<rect width="24.2575" height="22.802" rx="8" transform="matrix(0.843332 -0.537393 0.843332 0.537393 134.097 40.411)" fill="#F6C61B"/>
<rect opacity="0.1" width="147" height="15.5248" transform="matrix(0.843332 -0.537393 0.843332 0.537393 19.9463 83.9506)" fill="white"/>
<rect width="57.0391" height="57.0391" rx="28.5196" transform="matrix(0.843332 0.537393 -0.843332 0.537393 222.66 91.8112)" fill="#EBEBEA"/>
<rect width="57.3089" height="57.3089" rx="28.6544" transform="matrix(0.843332 0.537393 -0.843332 0.537393 224.472 88.8978)" fill="#A9C8C7"/>
<rect width="57.3089" height="57.3089" rx="28.6544" transform="matrix(0.843332 0.537393 -0.843332 0.537393 224.472 87.6544)" fill="#62A7A5"/>
<path fill-rule="evenodd" clip-rule="evenodd" d="M233.426 110.36L224.472 104.654L219.995 107.507L228.949 113.213L233.426 110.36ZM245.962 118.348L237.008 112.642L232.531 115.495L241.485 121.201L245.962 118.348ZM219.995 123.483L224.472 126.336L228.949 123.483L233.426 126.336L228.949 129.189L224.472 132.042L219.995 129.189L215.518 126.336L219.995 123.483ZM216.413 121.201L211.936 118.348L216.413 115.495L211.936 112.642L207.459 115.495L202.982 118.348L207.459 121.201L211.936 124.054L216.413 121.201Z" fill="white"/>
<rect width="57.3089" height="57.3089" rx="28.6544" transform="matrix(0.843332 0.537393 -0.843332 0.537393 224.472 73.2813)" fill="#9A78D2"/>
<rect width="57.3089" height="57.3089" rx="28.6544" transform="matrix(0.843332 0.537393 -0.843332 0.537393 224.472 72.038)" fill="#8247E5"/>
<path d="M236.003 100.184C235.423 99.8179 234.543 99.6676 233.656 99.7829L227.317 100.901L223.051 101.573L216.809 102.707C216.02 102.839 215.14 102.689 214.462 102.306L210.938 99.9709C210.358 99.6052 210.078 99.024 210.313 98.4642L211.621 95.3538C211.831 94.8561 212.431 94.4252 213.344 94.2478L218.203 93.4106C218.992 93.2786 219.872 93.4289 220.55 93.8113L224.075 96.1467C224.655 96.5124 224.935 97.0936 224.699 97.6534L223.836 99.7063L228.128 98.9722L229.017 96.8571C229.226 96.3595 229.044 95.795 228.393 95.3504L221.799 91.0908C221.219 90.7251 220.339 90.5749 219.452 90.6901L210.177 92.3069C209.29 92.4222 208.69 92.853 208.481 93.3507L206.022 99.1982C205.813 99.6959 205.994 100.26 206.646 100.705L213.338 104.981C213.918 105.347 214.798 105.497 215.685 105.382L221.9 104.31L226.192 103.576L232.407 102.503C233.197 102.371 234.077 102.522 234.754 102.904L238.306 105.177C238.885 105.543 239.165 106.124 238.93 106.684L237.622 109.794C237.413 110.292 236.812 110.723 235.899 110.9L231.138 111.754C230.349 111.886 229.469 111.736 228.791 111.354L225.24 109.08C224.66 108.715 224.38 108.133 224.616 107.574L225.453 105.583L221.161 106.317L220.298 108.37C220.089 108.868 220.27 109.432 220.922 109.877L227.614 114.153C228.194 114.519 229.074 114.669 229.961 114.554L239.111 112.982C239.9 112.85 240.599 112.436 240.834 111.876L243.319 105.967C243.528 105.469 243.346 104.904 242.695 104.46L236.003 100.184Z" fill="white"/>
<rect width="57.3089" height="57.3089" rx="28.6544" transform="matrix(0.843332 0.537393 -0.843332 0.537393 224.472 58.2433)" fill="#A6A6A6"/>
<rect width="57.3089" height="57.3089" rx="28.6544" transform="matrix(0.843332 0.537393 -0.843332 0.537393 224.472 57)" fill="#7D7D7D"/>
<path opacity="0.45" d="M244.364 80.6467L217.708 80.3274L217.545 90.5137L230.006 85.929L244.364 80.6467Z" fill="white"/>
<path opacity="0.45" d="M205.534 94.9326L215.287 91.3443L215.447 81.1593L205.534 94.9326Z" fill="white"/>
<path opacity="0.5" d="M217.709 80.3273L217.545 90.5136L230.007 85.9288L217.709 80.3273Z" fill="white"/>
<path opacity="0.8" d="M205.541 94.933L229.213 96.3527L215.291 91.3457L205.541 94.933Z" fill="white"/>
<path opacity="0.75" d="M217.549 90.5152L231.47 95.5162L244.36 80.6512L217.549 90.5152Z" fill="white"/>
<path opacity="0.6" d="M217.545 90.5136L231.47 95.5161L230.007 85.9288L217.545 90.5136Z" fill="white"/>
</svg>
