<svg width="541" height="527" viewBox="0 0 541 527" fill="none" xmlns="http://www.w3.org/2000/svg">
<g clip-path="url(#clip0_9260_16257)">
<path d="M471.008 318.362C483.818 320.851 495.103 325.583 503.426 317.937C516.17 306.254 525.204 288.802 528.485 272.065C538.558 220.779 476.236 145.366 443.454 113.01C344.928 15.7855 217.831 -20.0431 90.4321 39.6217C67.4902 50.3602 46.5745 60.7969 31.9059 82.2316C0.325155 128.385 25.5313 194.582 42.8614 239.886C75.2767 324.647 119.842 377.527 176.923 446.213C199.514 473.404 224.83 522.109 265.22 512.887C299.934 504.953 281.768 420.325 276.066 401.747C252.125 323.75 140.674 222.383 218.046 145.309C280.876 82.7267 379.071 220.019 409.842 260.774C421.804 276.603 434.149 299.808 451.487 310.167C456.756 313.311 458.199 315.873 471.008 318.362Z" fill="#F19077"/>
</g>
<defs>
<clipPath id="clip0_9260_16257">
<rect width="541" height="527" fill="white"/>
</clipPath>
</defs>
</svg>
