<svg width="383" height="224" viewBox="0 0 383 224" fill="none" xmlns="http://www.w3.org/2000/svg">
<path d="M153.069 199.789C144.525 199.234 135.388 197.016 125.308 194.728C81.2089 188.855 54.9824 130.262 96.4026 80.6271C107.022 67.9008 125.802 63.9295 138.569 62.6466C174.496 59.037 202.572 80.5966 222.808 112.392C231.768 126.472 240.217 151.674 235.025 172.9C227.815 202.385 190.212 202.037 173.832 200.069C167.56 199.315 159.389 200.2 153.069 199.789Z" fill="#F2C65E"/>
<path d="M224.992 19.9193C224.151 20.3426 224.073 26.5717 224.073 27.9771C224.073 34.2062 224.024 37.3663 218.786 41.5605C211.612 47.3093 211.495 37.8105 208.212 36.4952C206.169 35.6754 202.132 37.6654 203.158 33.0419C203.552 31.2668 204.613 29.5637 205.916 29.1282C206.004 29.098 206.986 25.065 207.293 24.5238C207.448 24.2578 208.304 19.9193 208.445 19.9193C209.141 19.9193 211.456 22.8821 212.351 21.7612C212.93 21.0393 211.198 18.9981 212.122 18.9981C213.411 18.9981 214.277 21.3003 215.799 21.3003C216.753 21.3003 217.346 19.1623 218.329 18.9981C220.337 18.663 222.015 23.8252 224.763 21.7612C227.56 19.6602 217.045 15.0908 215.799 14.6241C207.58 11.5366 201.437 22.5752 196.952 27.5168C194.297 30.4406 189.55 33.1418 186.145 35.1142C184.224 36.2293 180.8 38.6372 178.334 37.8768C173.392 36.354 168.995 32.4973 163.621 35.5745C158.776 38.3469 152.482 48.7045 151.437 54.4527C151.048 56.6098 150.537 58.7503 150.06 60.8991C149.905 61.5898 149.759 62.282 149.598 62.9713C149.525 63.2797 149.058 63.9544 149.37 63.8921C151.018 63.5618 156.539 55.6964 158.791 58.5968C160.128 60.3135 155.571 65.865 161.091 66.6546C164.282 67.1111 166.515 62.0502 169.365 62.0502" stroke="#020207" stroke-width="2" stroke-miterlimit="10" stroke-linecap="round" stroke-linejoin="round"/>
<path d="M210.047 37.2048C208.792 35.947 208.5 44.6785 207.98 46.6441C207.707 47.6671 207.513 45.0361 206.141 45.723C203.812 46.8877 201.628 48.3311 199.244 49.4067C192.654 52.3758 185.67 54.1086 179.016 56.7737C177.985 57.1864 175.11 57.1415 174.42 57.6949C172.459 59.263 169.925 67.7407 169.59 67.8245C168.661 68.0569 167.683 66.0518 166.37 67.3642C165.752 67.9868 168.364 70.306 168.671 70.8175C169.731 72.5878 169.828 74.4087 170.509 76.1127C171.015 77.3783 176.458 74.2032 176.715 74.0405C180.757 71.4835 185.139 69.8618 189.128 67.3642C189.959 66.8449 191.423 64.6771 192.576 65.062C193.671 65.4278 191.2 67.0212 191.428 67.3642C191.647 67.6911 193.724 67.4845 193.724 68.055C193.724 68.6337 190.616 72.0169 190.28 72.429C187.771 75.4999 185.563 78.1008 182.922 80.9476C181.341 82.6526 179.191 85.2447 182.002 86.9331C185.183 88.8427 189.026 84.8097 192.119 85.0912C193.85 85.2491 195.475 85.933 197.172 86.2424C199.916 86.7417 202.771 85.2452 205.451 85.782C205.888 85.8697 206.151 86.4728 206.598 86.4728C208.991 86.4728 211.55 81.4162 213.033 80.0264C217.615 75.7469 223.923 71.7957 226.827 65.9827C227.887 63.8602 226.326 58.2391 226.827 57.2341C227.703 55.477 233.719 53.4529 235.1 52.8601C239.03 51.1726 244.755 45.2723 244.755 40.6581C244.755 40.5987 242.678 40.2684 242.459 39.0467C242.367 38.5537 243.004 35.8671 242.459 35.5933C239.181 33.9531 236.068 36.9744 233.724 36.9744C233.208 36.9744 233.67 35.4569 232.571 35.8233C229.789 36.7537 227.411 40.7658 225.446 42.73C224.205 43.9741 222.455 45.8165 220.621 46.1833C219.77 46.3538 217.075 45.891 216.715 44.8023C216.613 44.5017 217.26 43.8811 216.944 43.8811C214.784 43.8811 215.29 55.6597 215.105 56.7737C215.076 56.9433 214.804 57.068 214.643 57.0042C213.773 56.6539 207.284 47.0899 206.827 45.723C206.637 45.1545 207.678 46.5867 207.98 47.1045C208.408 47.8454 208.743 48.639 209.128 49.4067C210.305 51.7698 210.631 53.7681 212.114 55.853" stroke="#020207" stroke-width="2" stroke-miterlimit="10" stroke-linecap="round" stroke-linejoin="round"/>
<path d="M241.137 35.8581C246.185 31.6453 251 27.3224 256.307 23.4262C257.552 22.5128 258.714 21.1332 259.755 19.9724C260.188 19.4887 261.496 18.0496 261.136 18.5913C258.452 22.621 254.171 26.2536 250.791 29.6421C249.677 30.7587 242.493 38.7921 241.827 40.4625C241.594 41.0369 243.058 40.8142 243.666 40.6929C245.441 40.3373 247.562 38.529 248.719 37.2396C254.181 31.1644 259.04 24.4429 264.351 18.3609C266.735 15.6325 268.753 10.1087 265.733 7.08019C264.911 6.25644 263.938 6.87171 262.975 6.38944C262.445 6.12444 261.034 4.89002 260.446 5.00791C259.565 5.18426 260.173 8.39111 260.212 8.69168C260.767 12.5542 262.051 15.6032 260.212 19.2821" stroke="#020207" stroke-width="2" stroke-miterlimit="10" stroke-linecap="round" stroke-linejoin="round"/>
<path d="M168.857 70.0171C168.142 68.5829 161.182 73.4446 159.893 74.1607C158.497 74.9387 145.224 83.1485 142.884 82.6793C142.583 82.6185 142.656 81.4264 142.656 81.2978C142.656 79.2221 142.753 77.2833 141.965 75.3118C141.411 73.923 135.744 69.3931 134.611 70.247C133.847 70.8199 138.04 76.7582 138.517 77.8445C139.168 79.3371 140.185 85.9982 141.965 86.593C142.982 86.9326 149.883 83.6429 150.7 83.3701C158.069 80.91 164.903 77.4952 172.077 74.6215" stroke="#020207" stroke-width="2" stroke-miterlimit="10" stroke-linecap="round" stroke-linejoin="round"/>
<path d="M189.779 86.3805C190.027 86.2567 190.435 85.4944 190.241 85.6902C187.853 88.0777 185.834 91.2183 183.572 93.748C181.865 95.659 176.218 103.372 176.218 105.95C176.218 106.988 177.201 108.069 177.595 108.943C180.236 114.76 182.95 119.867 186.33 125.288C187.488 127.143 190.211 131.205 188.859 133.577C186.846 137.103 183.232 139.38 181.043 142.786C177.974 147.571 174.234 152.048 170.698 156.599C168.937 158.869 167.872 161.502 165.873 163.506C165.557 163.822 164.983 164.257 165.182 164.657C165.226 164.746 167.712 164.427 167.94 164.427C171.35 164.427 174.321 163.881 177.366 162.355C179.764 161.153 180.528 159.292 182.191 157.751C184.793 155.345 187.196 153.167 189.55 150.613C193.222 146.627 198.149 144.842 202.42 141.634C204.603 139.997 210.464 137.929 210.464 134.498C210.464 132.486 210.596 128.246 209.779 126.44C209.107 124.961 207.429 123.69 206.559 122.296C204.56 119.091 203.183 115.53 201.5 112.166C201.053 111.265 199.886 111.118 199.433 110.324C198.105 107.997 204.302 103.266 201.962 98.5824C201.685 98.029 202.225 99.8066 202.191 100.424C202.133 101.576 202.264 102.764 201.962 103.878C201.189 106.71 199.983 108.68 197.823 110.554C197.386 110.937 195.805 111.658 196.213 111.245C199.74 107.714 205.246 104.851 203.801 98.5824C203.178 95.8831 202.206 89.96 203.801 87.3016C203.927 87.0936 203.786 86.6109 204.03 86.6109C204.127 86.6109 203.777 90.8529 204.258 91.2153C204.633 91.4945 206.841 91.5739 207.249 91.6757C208.927 92.0966 211.184 94.3452 212.536 95.3594C219.419 100.529 227.507 103.787 234.375 108.943C236.724 110.709 239.53 112.67 240.119 115.619C240.523 117.649 242.911 121.141 241.729 123.217C240.785 124.874 239.136 126.237 238.052 127.821C234.958 132.322 232.118 137.05 228.854 141.404C226.875 144.051 222.979 145.584 221.5 148.541" stroke="#020207" stroke-width="2" stroke-miterlimit="10" stroke-linecap="round" stroke-linejoin="round"/>
<path d="M199.169 109.237C199.68 108.215 202.666 110.212 203.08 110.388C204.758 111.1 206.523 111.611 208.138 112.46C212.934 114.988 218.104 117.275 222.618 120.287C224.665 121.654 227.428 121.209 229.743 121.209C230.584 121.209 231.431 121.152 232.272 121.209C232.588 121.23 233.333 121.156 233.191 121.439C232.939 121.941 228.649 122.438 228.133 122.59C227.506 122.775 226.912 123.056 226.295 123.28C226.066 123.363 225.375 123.434 225.604 123.511C226.173 123.701 229.32 122.626 229.286 122.59C227.447 120.75 224.15 126.703 223.765 127.655C220.711 135.301 216.407 142.401 212.734 149.756" stroke="#020207" stroke-width="2" stroke-miterlimit="10" stroke-linecap="round" stroke-linejoin="round"/>
<path d="M214.234 149.436C214.273 149.901 213.319 149.666 212.857 149.666C212.39 149.666 214.195 148.971 214.234 149.436Z" stroke="#020207" stroke-width="2" stroke-miterlimit="10" stroke-linecap="round" stroke-linejoin="round"/>
<path d="M132.686 175.49C132.351 175.716 131.884 175.666 131.538 175.874C130.95 176.228 132.92 175.799 133.581 175.618C134.958 175.242 136.319 174.802 137.672 174.339C142.467 172.692 147.146 171.011 151.976 169.476C163.245 165.898 174.554 163.724 185.959 160.776C191.674 159.299 197 156.493 202.569 154.634C228.206 146.074 252.842 135.073 278.197 125.717C289.378 121.591 300.556 118.877 312.18 116.249C315.196 115.567 318.97 115.326 321.888 114.201C323.527 113.57 327 112.922 327 112.922C327 112.922 323.406 114.593 321.635 115.481C318.381 117.11 315.278 119.106 311.922 120.599C302.287 124.888 292.88 129.971 283.561 134.929C268.561 142.911 253.907 151.599 238.595 158.984C224.447 165.806 210.011 172.096 196.436 179.969C186.738 185.593 176.694 191.605 167.565 198.138C164.87 200.066 162.92 202.645 160.152 204.536C156.767 206.848 153.416 209.863 149.933 211.957C149.802 212.036 149.136 212.439 148.912 212.213C146.305 209.6 143.985 204.598 142.015 201.209C141.524 200.369 139.987 199.849 140.225 198.906C140.244 198.828 149.568 195.742 149.933 195.579C162.404 189.98 175.079 185.354 187.749 180.225C193.635 177.841 199.471 175.39 205.381 173.059C207.083 172.386 208.776 171.672 210.488 171.012C211.169 170.75 213.221 170.475 212.53 170.244C209.928 169.375 204.165 173.032 202.312 173.827C196.611 176.274 191.183 179.11 185.449 181.504C179.529 183.975 173.829 186.888 167.817 189.181C163.683 190.759 159.238 191.452 155.045 192.764C137.706 198.191 120.386 203.251 103.43 209.91C94.9965 213.222 85.8623 215.396 77.1123 217.588C76.2903 217.792 72.161 219.482 71.2368 218.864C70.0744 218.089 73.5423 216.901 74.0481 216.563C75.4246 215.644 76.767 214.676 78.1386 213.748C81.4897 211.477 84.3351 209.496 87.589 207.094C98.659 198.926 109.714 190.63 121.062 182.784C122.715 181.64 124.296 180.394 125.916 179.201C127.453 178.07 135.862 173.353 132.686 175.49Z" stroke="#020207" stroke-width="2" stroke-miterlimit="10" stroke-linecap="round" stroke-linejoin="round"/>
<path d="M323.245 115.996C320.487 114.614 316.421 119.793 314.816 121.114C312.943 122.652 311.085 124.206 309.193 125.72C300.215 132.916 292.209 141.188 283.133 148.24C266.645 161.044 248.61 171.5 232.287 184.578C227.053 188.772 222.078 193.288 216.956 197.629C216.222 198.25 213.629 200.496 212.613 200.7C210.74 201.076 205.711 197.297 204.69 196.606C200.74 193.919 197.068 190.299 192.939 187.905C191.368 186.994 189.456 186.672 187.827 185.858" stroke="#020207" stroke-width="2" stroke-miterlimit="10" stroke-linecap="round" stroke-linejoin="round"/>
<path d="M145.861 150.03C152.923 144.369 160.968 140.094 169.11 136.211" stroke="#020207" stroke-width="2" stroke-miterlimit="10" stroke-linecap="round" stroke-linejoin="round"/>
<path d="M208.129 15.9919C206.202 15.0283 202.817 17.8265 201.485 18.8066C195.449 23.2396 191.29 29.6031 184.364 33.6493C177.73 37.5264 170.23 30.8955 162.905 37.7437C160.663 39.8399 161.076 38.9275 160.604 40.8147" stroke="#020207" stroke-width="2" stroke-miterlimit="10" stroke-linecap="round" stroke-linejoin="round"/>
<path d="M201.534 19.0069C200.362 16.6672 210.231 15.101 212.006 14.6562" stroke="#020207" stroke-width="2" stroke-miterlimit="10" stroke-linecap="round" stroke-linejoin="round"/>
<path d="M214.286 33.6497C215.789 32.9126 218.77 33.9644 220.161 34.8013C220.589 35.057 219.203 35.1871 218.887 35.569C218.265 36.3163 217.637 37.0631 217.097 37.8722C216.737 38.413 216.912 39.3731 216.329 39.6635C215.818 39.9192 215.784 38.6565 215.565 38.128C215.079 36.9656 213.104 34.2284 214.286 33.6497Z" stroke="#020207" stroke-width="2" stroke-miterlimit="10" stroke-linecap="round" stroke-linejoin="round"/>
<path d="M214.678 26.2169L213.915 25.4492L214.425 27.2404V28.2639L214.168 27.7524" stroke="#020207" stroke-width="2" stroke-miterlimit="10" stroke-linecap="round" stroke-linejoin="round"/>
<path d="M227.32 54.396C226.435 54.0024 226.401 51.6578 225.535 52.0928C224.664 52.5278 226.099 53.9561 226.299 54.9075C226.654 56.5959 226.727 58.334 227.067 60.0259C227.184 60.6173 226.858 58.8353 226.809 58.2347C226.634 56.1029 226.556 55.21 226.556 52.6043C226.556 52.0928 226.192 50.7074 226.556 51.0693C227.359 51.8741 228.361 54.8563 227.32 54.396Z" stroke="#020207" stroke-width="2" stroke-miterlimit="10" stroke-linecap="round" stroke-linejoin="round"/>
<path d="M135.653 158.626C141.801 154.52 148.479 150.944 154.738 147.004" stroke="#020207" stroke-width="2" stroke-miterlimit="10" stroke-linecap="round" stroke-linejoin="round"/>
<path d="M221.854 27.2564C221.854 26.7396 221.854 28.2891 221.854 28.806" stroke="#020207" stroke-width="2" stroke-miterlimit="10" stroke-linecap="round" stroke-linejoin="round"/>
</svg>
