<svg width="383" height="224" viewBox="0 0 383 224" fill="none" xmlns="http://www.w3.org/2000/svg">
<g clip-path="url(#clip0_9260_16794)">
<path d="M102.379 93.9767C104.435 89.5842 105.523 88.605 108.867 85.0419C116.272 77.1522 124.972 70.7701 128.651 68.7521C146.993 58.6919 169.334 53.9574 189.763 62.2804C224.551 76.4572 264.419 156.284 240.108 190.101C215.588 224.207 129.004 221.335 104.104 189.585C88.4028 169.564 88.1406 143.139 94.5131 119.368C96.9213 110.384 98.4218 102.436 102.379 93.9767Z" fill="#D8F177"/>
<path d="M189.984 15C189.984 18.1824 195.2 21.995 196.8 24.7243C201.139 32.131 205.212 39.8222 209.714 47.0547C210.755 48.7268 217.675 59.4531 217.248 60.7404C216.857 61.9174 207.644 61.0163 207.203 61.1006C203.494 61.8099 199.076 64.4601 195.724 66.1432C187.722 70.1598 179.761 75.132 173.841 81.9897C171.564 84.6268 170.485 88.5999 168.102 90.9937C167.304 91.7946 169.248 89.0406 169.895 88.1127C170.72 86.9299 173.595 83.3307 173.841 83.0708C176.612 80.1418 178.387 79.113 181.374 76.5877C187.718 71.2242 206.256 58.7815 215.813 60.3803C225.432 61.99 226.586 73.5404 231.596 79.8289C234.756 83.794 240.069 85.9206 243.794 89.1931C255.645 99.6042 267.165 113.236 270.339 129.171C270.624 130.6 270.775 143.14 270.698 143.217C270.427 143.489 266.411 141.539 265.676 141.417C260.893 140.616 254.709 140.212 249.892 140.696C239.289 141.761 227.273 150.482 219.041 156.543C208.206 164.52 198.23 174.235 188.191 183.195C180.442 190.109 173.787 196.886 163.079 197.961C158.35 198.436 146.062 201.113 142.632 196.52C140.978 194.307 140.491 191.922 140.121 189.318C139.531 185.173 138.055 178.996 140.838 175.271C144.027 171.003 148.659 172.197 152.676 169.509C157.926 165.995 164.51 159.913 167.026 154.022C169.453 148.336 170.934 142.794 171.689 136.734C172.027 134.014 170.513 130.981 170.971 128.45C171.196 127.21 174.566 123.43 174.2 122.328C173.634 120.624 171.689 120.425 171.689 117.646C171.689 112.583 174.024 107.582 173.124 102.159C172.611 99.0706 170.839 96.8147 170.254 93.8755C169.634 90.7636 172.422 87.8484 172.047 85.5918C170.673 77.3094 164.068 70.8946 159.133 64.7026C155.857 60.5901 153.844 55.451 150.524 51.3763C145.803 45.5837 140.376 39.7475 135.098 34.4486C132.844 32.1861 130.057 29.7567 127.206 28.3264C124.698 27.0673 121.979 27.0688 119.673 25.0852C118.186 23.8051 116.875 22.3333 115.368 21.123C114.639 20.537 112.281 19.3223 113.216 19.3223C121.215 19.3223 127.104 29.3966 132.229 33.7283C136.19 37.0777 139.914 40.2761 143.708 43.8128C146.388 46.3119 149.348 48.8292 151.6 51.7364C152.456 52.8415 152.766 56.3281 153.752 55.3384C155.154 53.9306 152.766 49.3701 154.47 47.4148C159.099 42.1036 174.012 35.7556 180.657 33.0081C184.853 31.2735 188.572 28.4839 193.212 27.9662C194.717 27.7985 196.359 27.9662 197.876 27.9662C198.235 27.9662 199.311 27.9662 198.952 27.9662C185.532 27.9662 173.884 33.801 163.438 41.2919C160.156 43.6451 157.273 45.9438 154.828 49.2155C154.052 50.2545 153.393 51.3763 152.676 52.4567C152.528 52.6803 152.317 53.4456 152.317 53.1769C152.317 50.6712 162.176 42.288 163.797 40.9317C171.006 34.9002 189.758 22.8459 199.311 28.3264C202.795 30.3252 206.099 42.325 208.279 45.9743C212.029 52.249 214.844 59.4037 219.041 65.4229C222.705 70.6775 229.03 75.2575 233.749 79.4688C244.855 89.3811 256.217 97.6097 263.883 110.802C264.601 112.039 269.555 124.196 268.904 124.849C268.244 125.512 261.071 124.375 259.936 124.489C256.338 124.851 252.477 126.542 248.816 125.929C246.103 125.476 243.468 124.76 240.565 125.209C233.127 126.358 224.906 133.038 219.041 137.454C211.375 143.227 204.65 150.822 197.876 157.623C189.222 166.312 178.663 171.234 168.819 178.152C161.809 183.079 143.697 188.232 135.816 184.275" stroke="#020207" stroke-width="2" stroke-miterlimit="10" stroke-linecap="round" stroke-linejoin="round"/>
<path d="M141.671 193.872C141.671 200.593 163.969 196.355 167.14 196.753C169.681 197.073 172.092 198.626 174.674 198.915C183.838 199.937 204.886 200.02 212.699 195.313C216.779 192.855 218.887 188.421 222.385 185.228C229.706 178.546 235.282 171.336 243.908 166.14C250.076 162.424 259.45 156.179 263.639 150.293C265.206 148.091 267.528 146.027 269.378 144.17C270.135 143.411 271.498 140.464 270.813 141.289C267.21 145.63 264.032 150.618 260.051 154.615C258.572 156.099 254.671 157.856 254.671 157.856C254.671 157.856 256.234 156.916 255.747 156.775C250.848 155.371 235.059 156.545 234.223 163.259C233.54 168.742 246.28 160.364 247.496 159.296C247.697 159.12 248.084 158.715 247.855 158.576C244.645 156.643 237.817 162.576 235.658 163.979C235.232 164.255 234.111 164.87 234.582 165.059C236.481 165.822 248.187 160.269 247.855 158.936C247.511 157.556 240.005 161.265 240.68 163.979C241.528 167.386 257.953 156.898 245.703 161.818C244.506 162.298 243.295 162.74 242.115 163.259C241.38 163.581 240.68 163.979 239.963 164.339C238.954 164.846 241.823 163.044 242.832 162.538C244.703 161.599 248.213 159.296 248.213 159.296C248.213 159.296 244.796 160.693 243.908 162.178C242.854 163.943 243.191 168.695 243.191 170.822C243.191 179.25 245.588 190.596 244.268 198.554C244.037 199.942 241.922 198.894 240.321 200.355C239.459 201.142 235.004 206.181 236.017 207.198C236.321 207.504 236.734 206.718 237.093 206.477C238.853 205.3 240.261 203.657 241.756 202.156C242.713 201.195 243.721 200.284 244.626 199.275C244.966 198.896 245.344 197.833 245.703 198.194C246.502 198.997 245.344 205.137 245.344 206.117C245.344 206.598 245.344 208.038 245.344 207.558C245.344 204.712 244.268 201.98 244.268 199.275C244.268 199.006 244.466 199.78 244.626 199.995C245.344 200.955 246.144 201.858 246.779 202.876C247.289 203.696 247.746 204.551 248.213 205.397C248.473 205.867 249.465 206.838 248.931 206.838C247.605 206.838 243.908 198.53 243.908 197.473C243.908 196.129 248.213 206.975 248.213 206.477C248.213 204.5 246.552 201.7 245.703 199.995C245.509 199.608 244.985 198.481 244.985 198.915C244.985 200.222 248.806 210.857 247.137 203.596C245.43 196.168 240.007 201.255 237.452 204.677C237.193 205.023 236.429 205.451 236.734 205.757C237.083 206.107 237.701 205.554 238.169 205.397C241.844 204.168 245.378 203.236 249.29 203.236C250.372 203.236 247.075 203.258 246.061 202.876C246.004 202.855 243.649 201.734 243.55 201.436C243.361 200.866 244.846 201.102 245.344 201.436C246.308 202.081 248.499 204.111 249.29 205.037C249.464 205.241 249.878 205.896 249.648 205.757C248.723 205.2 243.772 199.772 244.985 198.554C245.24 198.299 250.132 203.742 250.366 203.956C251.124 204.654 253.797 206.219 252.877 205.757C251.584 205.109 250.087 204.467 248.931 203.596C248.318 203.135 246.372 202.156 247.137 202.156C249.065 202.156 252.159 205.037 252.159 205.037C252.159 205.037 250.341 203.646 249.29 203.236C247.911 202.698 246.464 202.156 244.985 202.156C242.632 202.156 235.513 202.854 232.788 204.677C232.191 205.077 234.232 204.789 234.941 204.677C236.863 204.372 238.762 203.928 240.68 203.596C245.858 202.7 245.978 202.667 251.801 202.876C253.255 202.928 257.407 202.944 256.106 203.596C253.945 204.681 242.945 206.411 240.68 206.838C239.018 207.15 237.34 207.389 235.658 207.558C234.944 207.63 232.788 207.558 233.505 207.558C237.381 207.558 241.496 207.621 245.344 207.919C246.794 208.03 248.222 208.352 249.648 208.639C250.019 208.713 251.103 208.999 250.724 208.999C248.493 208.999 245.703 206.616 245.703 204.317C245.703 202.363 246.966 200.984 246.779 198.915C246.015 190.48 244.985 182.352 244.985 173.703C244.985 170.438 245.703 167.217 245.703 163.979C245.703 163.139 245.703 161.458 245.703 161.458C245.703 161.458 245.703 162.178 245.703 162.538C245.703 164.355 245.083 166.127 244.985 167.94C244.723 172.804 245.185 182.794 245.344 187.389" stroke="#020207" stroke-width="2" stroke-miterlimit="10" stroke-linecap="round" stroke-linejoin="round"/>
<path d="M156.849 61.1246C163.295 49.7986 175.044 44.0227 185.907 38.0747C188.695 36.547 191.749 35.7164 194.874 35.1936C196.543 34.9141 199.897 34.4727 199.897 34.4727C199.897 34.4727 198.676 34.6237 198.103 34.8328C195.615 35.7411 193.062 36.4606 190.57 37.3544C186.946 38.6541 184.77 40.372 181.601 42.3963C177.695 44.8918 173.377 46.2924 169.763 49.2395C164.971 53.1487 162.225 58.9689 157.926 63.2854C157.736 63.4756 158.124 62.7801 158.284 62.5651C158.79 61.8877 160.442 60.7303 160.795 60.4043C161.668 59.6013 162.469 58.7235 163.306 57.8834C166.153 55.0249 169.336 52.2513 172.633 49.9598C177.813 46.3599 185.233 43.3344 191.287 41.676C192.537 41.3341 202.943 39.4238 201.69 38.795" stroke="#020207" stroke-width="2" stroke-miterlimit="10" stroke-linecap="round" stroke-linejoin="round"/>
<path d="M172.047 115.318C174.873 114.373 181.832 115.057 183.885 117.119C184.317 117.551 182.693 117.374 182.092 117.479C179.942 117.854 177.782 118.168 175.634 118.559C173.835 118.888 172.016 119.148 170.254 119.64C169.839 119.756 168.781 120.19 169.178 120.36C172.163 121.645 175.678 120.801 178.863 121.441C191.796 124.037 171.135 125.808 167.026 128.283C166.717 128.469 167.743 128.265 168.102 128.283C170.016 128.385 171.935 128.439 173.841 128.644C175.802 128.855 178.487 128.437 179.581 130.084C179.723 130.298 176.52 130.449 173.841 131.525C173.123 131.814 164.19 135.137 169.178 136.567C170.238 136.871 171.341 137.002 172.406 137.287C173.137 137.484 173.841 137.768 174.558 138.008" stroke="#020207" stroke-width="2" stroke-miterlimit="10" stroke-linecap="round" stroke-linejoin="round"/>
</g>
<defs>
<clipPath id="clip0_9260_16794">
<rect width="383" height="224" rx="16" fill="white"/>
</clipPath>
</defs>
</svg>
