<svg width="645" height="624" viewBox="0 0 645 624" fill="none" xmlns="http://www.w3.org/2000/svg">
<g clip-path="url(#clip0_9260_16252)">
<path d="M147.466 382.408C163.877 365.883 194.063 328.222 194.771 312.167C191.492 245.077 169.875 178.84 160.091 112.055C159.283 106.498 150.439 37.2442 150.761 36.3567C151.148 35.2846 223.883 19.2693 229.966 18.1642C240.332 16.2817 251.425 13.5027 261.14 9.59004C264.902 8.07496 275.654 -0.0119009 276.35 1.26358C297.879 40.5152 290.437 134.217 292.82 177.369C293.014 180.887 295.853 244.185 296.101 244.463C297.076 245.556 305.105 221.181 305.378 220.426C310.678 205.719 313.973 190.477 318.56 175.398C330.09 137.483 345.048 102.039 359.456 65.3636C364.541 52.4341 361.053 32.7923 369.074 21.7666C371.041 19.0609 440.393 47.2314 447.481 49.7997C458.969 53.9625 483.262 59.2139 483.634 61.2893C485.51 71.8403 470.797 93.2086 466.965 102.427C448.652 146.513 424.937 184.77 399.274 224.129C388.446 240.734 373.934 257.197 365.602 275.195C364.835 276.85 362.443 278.908 363.739 280.359C365.524 282.359 402.198 257.746 404.936 255.835C443.776 228.74 490.766 219.53 535.244 204.274C537.734 203.42 566.705 187.794 568.304 188.764C568.846 189.08 602.883 253.101 606.113 258.293C607.254 260.118 637.149 293.006 636.521 294.166C633.497 299.759 600.417 300.999 594.733 301.713C552.16 307.096 511.728 320.231 469.323 326.145C450.543 328.762 432.711 333.451 414.18 336.861C404.649 338.619 384.901 338.493 384.901 338.493C384.901 338.493 391.912 340.736 395.483 341.298C409.626 343.492 425.063 347.084 438.748 351.689C472.923 363.204 506.479 377.599 540.938 388.251C547.107 390.15 604.405 408.906 604.288 415.718C604.029 431.232 584.83 454.947 576.817 466.496C565.707 482.544 542.956 517.742 530.542 528.824C527.288 531.73 514.211 517.117 512.165 515.474C501.519 506.953 487.762 500.3 476.196 493.314C430.643 465.805 382.963 436.597 333.9 417.284C322.998 412.99 304.994 397.578 294.371 396.556C293.565 396.475 254.01 439.223 251.932 441.445C212.157 483.963 176.224 528.289 132.763 567.089C115.37 582.617 97.1408 597.139 79.6798 612.728C79.2209 613.137 75.9989 616.797 74.3072 615.775C65.7222 610.588 61.2021 588.114 55.4221 580.117C40.6536 559.709 26.7318 542.319 7.59007 526.539C6.80214 525.896 3.50628 522.614 4.14208 520.863C10.0144 504.574 38.8231 490.135 50.0821 478.101C81.2621 444.768 115.286 414.809 147.466 382.408Z" fill="#D8F177"/>
</g>
<defs>
<clipPath id="clip0_9260_16252">
<rect width="645" height="624" fill="white"/>
</clipPath>
</defs>
</svg>
