<svg width="383" height="224" viewBox="0 0 383 224" fill="none" xmlns="http://www.w3.org/2000/svg">
<path d="M179.483 36.8139C157.247 62.2405 156.163 90.1781 162.927 119.651C175.076 172.586 211.742 183.052 254.645 165.484C267.579 160.186 280.051 153.374 289.747 142.324C303.702 126.425 303.059 114.033 304.014 93.2633C305.17 68.121 300.524 36.0058 281.671 18.3193C253.051 -8.53542 200.571 8.71383 179.483 36.8139Z" fill="#F19077"/>
<path d="M147.555 46.6996C128.065 42.8285 131.503 63.125 131.503 76.6762C131.503 105.595 135.151 137.062 140.208 165.645C141.325 171.957 143.794 197.58 150.55 199.823C177.423 208.755 226.924 196.669 254.481 190.331C263.236 188.317 278.89 187.594 284.681 178.937C286.727 175.874 286.349 168.356 286.584 164.831C287.972 144.122 285.512 122.931 284.681 102.171C283.987 84.9576 282.426 68.2219 280.869 51.176C280.446 46.5165 280.676 38.7758 277.063 35.1728C272.339 30.4655 246.613 35.9995 240.879 37.0718C218.378 41.277 195.255 41.7369 172.586 44.3952C167.045 45.0464 152.902 47.7627 147.555 46.6996Z" stroke="#020207" stroke-width="2" stroke-miterlimit="10" stroke-linecap="round" stroke-linejoin="round"/>
<path d="M137.306 47.374C124.77 44.2456 121.617 70.5902 119.892 78.0221C113.234 106.803 104.106 137.355 102.754 166.996C102.274 177.515 106.525 192.765 119.892 192.765" stroke="#020207" stroke-width="2" stroke-miterlimit="10" stroke-linecap="round" stroke-linejoin="round"/>
<path d="M133.731 52.1406C127.563 52.1406 124.654 88.5317 123.935 94.4579C121.012 118.513 119.853 142.63 119.853 166.884C119.853 173.766 117.894 187.715 123.389 193.193C129.354 199.145 141.354 198.621 149.237 198.621" stroke="#020207" stroke-width="2" stroke-miterlimit="10" stroke-linecap="round" stroke-linejoin="round"/>
<path d="M133.536 48.373C131.516 48.8766 126.618 48.2154 125.098 49.7313C116.643 58.1601 116.801 70.6381 113.944 81.4679C107.475 105.971 101.082 130.657 97.3468 155.791C96.0662 164.414 92.3671 188.612 107.413 188.612" stroke="#020207" stroke-width="2" stroke-miterlimit="10" stroke-linecap="round" stroke-linejoin="round"/>
<path d="M133.316 83.2141C131.499 83.2141 136.943 83.2141 138.755 83.2141C142.188 83.2141 145.949 82.4968 149.367 81.8559C160.158 79.8415 171.363 79.5312 182.286 77.7864C196.899 75.4566 212.119 76.3519 226.634 73.7169C234.068 72.374 241.329 70.319 248.946 69.9222C257.268 69.4847 273.324 70.9243 280.779 67.2109" stroke="#020207" stroke-width="2" stroke-miterlimit="10" stroke-linecap="round" stroke-linejoin="round"/>
<path d="M270.077 38.7477C268.97 38.6744 260.266 41.1369 267.899 44.3081C272.853 46.3682 275.144 39.0824 270.077 38.7477Z" stroke="#020207" stroke-width="2" stroke-miterlimit="10" stroke-linecap="round" stroke-linejoin="round"/>
<path d="M258.103 40.4591C254.787 40.8406 254.318 45.7483 259.057 45.7483C262.853 45.7483 263.068 39.8883 258.103 40.4591Z" stroke="#020207" stroke-width="2" stroke-miterlimit="10" stroke-linecap="round" stroke-linejoin="round"/>
<path d="M241.256 40.9971C238.389 42.1376 234.139 42.1783 237.445 45.4745C238.078 46.1002 239.021 46.3749 239.894 46.558C250.175 48.7148 244.925 39.5321 241.256 40.9971Z" stroke="#020207" stroke-width="2" stroke-miterlimit="10" stroke-linecap="round" stroke-linejoin="round"/>
<path d="M230.538 42.6228C227.068 41.6853 225.216 46.9771 229.451 47.5061C233.247 47.9792 234.793 43.7775 230.538 42.6228Z" stroke="#020207" stroke-width="2" stroke-miterlimit="10" stroke-linecap="round" stroke-linejoin="round"/>
<path d="M214.37 44.6056C209.747 44.6259 206.763 50.1604 212.599 50.4351C217.161 50.6538 220.579 44.5751 214.37 44.6056Z" stroke="#020207" stroke-width="2" stroke-miterlimit="10" stroke-linecap="round" stroke-linejoin="round"/>
<path d="M201.441 45.8767C201.278 47.423 199.66 45.8461 198.722 47.0975C197.293 48.9949 201.921 51.4365 203.344 50.8922C208.972 48.7354 201.87 41.7716 201.441 45.8767Z" stroke="#020207" stroke-width="2" stroke-miterlimit="10" stroke-linecap="round" stroke-linejoin="round"/>
<path d="M184.546 47.0885C181.837 48.4517 181.322 54.0981 186.041 52.6484C189.766 51.5089 188.551 45.069 184.546 47.0885Z" stroke="#020207" stroke-width="2" stroke-miterlimit="10" stroke-linecap="round" stroke-linejoin="round"/>
<path d="M174.995 48.4145C172.505 48.7654 169.561 54.0812 173.5 54.3813C177.418 54.6814 179.48 47.7786 174.995 48.4145Z" stroke="#020207" stroke-width="2" stroke-miterlimit="10" stroke-linecap="round" stroke-linejoin="round"/>
<path d="M156.875 50.5659C153.656 49.7672 151.727 53.9995 154.288 55.9884C157.151 58.2063 161.676 51.746 156.875 50.5659Z" stroke="#020207" stroke-width="2" stroke-miterlimit="10" stroke-linecap="round" stroke-linejoin="round"/>
<path d="M146.299 52.4205C142.891 51.047 140.212 55.0656 144.125 57.1665C147.457 58.9571 149.039 53.5243 146.299 52.4205Z" stroke="#020207" stroke-width="2" stroke-miterlimit="10" stroke-linecap="round" stroke-linejoin="round"/>
<path d="M132.238 46.7587C131.049 42.0178 138.411 34.9146 143.396 35.9085C154.284 38.0801 147.983 50.0804 145.029 55.9811" stroke="#020207" stroke-width="2" stroke-miterlimit="10" stroke-linecap="round" stroke-linejoin="round"/>
<path d="M148.065 37.008C148.065 32.2075 157.244 34.373 159.219 36.7368C162.958 41.2102 157.795 49.3455 155.683 53.5523" stroke="#020207" stroke-width="2" stroke-miterlimit="10" stroke-linecap="round" stroke-linejoin="round"/>
<path d="M161.187 41.0862C159.355 42.915 162.896 37.4995 163.095 37.2884C165.768 34.4144 171.223 29.7808 175.61 32.4061C183.458 37.1007 175.61 46.8166 175.61 52.4782" stroke="#020207" stroke-width="2" stroke-miterlimit="10" stroke-linecap="round" stroke-linejoin="round"/>
<path d="M177.457 32.6928C179.523 28.5684 185.988 29.3126 187.248 33.5067C189.146 39.8052 185.345 44.4108 185.345 50.0521" stroke="#020207" stroke-width="2" stroke-miterlimit="10" stroke-linecap="round" stroke-linejoin="round"/>
<path d="M189.214 38.3544C189.214 33.6933 198.362 27.7376 202.816 29.4031C210.117 32.1316 205.699 43.1924 203.362 47.8469" stroke="#020207" stroke-width="2" stroke-miterlimit="10" stroke-linecap="round" stroke-linejoin="round"/>
<path d="M206.16 29.4154C204.844 26.7896 212.558 26.372 213.778 26.7032C221.313 28.7526 217.543 44.1036 213.502 48.1324" stroke="#020207" stroke-width="2" stroke-miterlimit="10" stroke-linecap="round" stroke-linejoin="round"/>
<path d="M218.607 35.2058C227.658 17.1532 238.444 30.9049 231.117 45.5117" stroke="#020207" stroke-width="2" stroke-miterlimit="10" stroke-linecap="round" stroke-linejoin="round"/>
<path d="M233.753 27.929C233.202 27.929 240.161 20.4661 243.544 24.4023C248.774 30.4826 245.498 38.6805 242.457 44.748" stroke="#020207" stroke-width="2" stroke-miterlimit="10" stroke-linecap="round" stroke-linejoin="round"/>
<path d="M245.775 28.2645C244.433 29.6049 248.045 26.8901 248.77 26.3656C251.26 24.5593 254.857 20.5127 258.29 22.5683C265.959 27.1535 260.296 38.0007 258.29 43.9986" stroke="#020207" stroke-width="2" stroke-miterlimit="10" stroke-linecap="round" stroke-linejoin="round"/>
<path d="M262.906 24.3315C260.646 25.0828 265.146 23.0776 265.625 22.9753C268.355 22.3924 270.886 23.6987 272.156 26.2304C274.825 31.5502 270.406 39.4846 268.074 44.1345" stroke="#020207" stroke-width="2" stroke-miterlimit="10" stroke-linecap="round" stroke-linejoin="round"/>
<path d="M194.166 99.0236C188.477 97.8841 190.916 87.6546 196.07 89.1247C202.264 90.8898 202.08 100.611 194.166 99.0236Z" stroke="#020207" stroke-width="2" stroke-miterlimit="10" stroke-linecap="round" stroke-linejoin="round"/>
<path d="M212.127 96.0351C206.745 95.1398 210 85.073 215.393 87.7588C219.944 90.0275 217.153 96.8693 212.127 96.0351Z" stroke="#020207" stroke-width="2" stroke-miterlimit="10" stroke-linecap="round" stroke-linejoin="round"/>
<path d="M227.676 93.402C223.737 90.2888 224.727 84.6984 230.803 86.3466C238.962 88.5695 233.533 98.0361 227.676 93.402Z" stroke="#020207" stroke-width="2" stroke-miterlimit="10" stroke-linecap="round" stroke-linejoin="round"/>
<path d="M243.818 90.9883C244.599 93.8827 243.145 81.7964 248.446 84.8841C249.63 85.5708 250.65 88.1804 250.895 89.2232C252.727 96.9755 243.328 89.157 243.818 90.9883Z" stroke="#020207" stroke-width="2" stroke-miterlimit="10" stroke-linecap="round" stroke-linejoin="round"/>
<path d="M261.549 90.0525C257.508 87.5701 260.957 81.237 265.355 81.9135C272.386 82.992 267.33 93.6031 261.549 90.0525Z" stroke="#020207" stroke-width="2" stroke-miterlimit="10" stroke-linecap="round" stroke-linejoin="round"/>
<path d="M161.572 121.566C161.378 117.4 161.317 113.529 165.113 116.276C175.46 123.779 161.817 126.831 161.572 121.566Z" stroke="#020207" stroke-width="2" stroke-miterlimit="10" stroke-linecap="round" stroke-linejoin="round"/>
<path d="M178.785 120.515C174.311 119.396 177.03 106.562 184.5 114.68C188.831 119.396 183.602 121.721 178.785 120.515Z" stroke="#020207" stroke-width="2" stroke-miterlimit="10" stroke-linecap="round" stroke-linejoin="round"/>
<path d="M194.473 119.39C192.957 122.926 189.881 104.766 197.6 107.726C200.478 108.83 202.391 112.467 200.866 115.321C199.677 117.544 195.463 117.071 194.473 119.39Z" stroke="#020207" stroke-width="2" stroke-miterlimit="10" stroke-linecap="round" stroke-linejoin="round"/>
<path d="M212.586 118.489C205.779 117.975 207.927 102.969 216.121 107.369C221.178 110.086 218.708 118.952 212.586 118.489Z" stroke="#020207" stroke-width="2" stroke-miterlimit="10" stroke-linecap="round" stroke-linejoin="round"/>
<path d="M229.377 116.202C226.423 116.65 224.249 97.4673 235.499 104.945C243.591 110.322 235.387 115.292 229.377 116.202Z" stroke="#020207" stroke-width="2" stroke-miterlimit="10" stroke-linecap="round" stroke-linejoin="round"/>
<path d="M245.759 112.76C244.596 112.632 238.581 100.154 248.892 102.723C255.397 104.346 252.265 113.472 245.759 112.76Z" stroke="#020207" stroke-width="2" stroke-miterlimit="10" stroke-linecap="round" stroke-linejoin="round"/>
<path d="M263.123 111.112C258.225 112.303 258.256 97.7545 265.975 100.125C272.552 102.139 268.082 109.902 263.123 111.112Z" stroke="#020207" stroke-width="2" stroke-miterlimit="10" stroke-linecap="round" stroke-linejoin="round"/>
<path d="M164.82 144.936C157.723 147.627 158.647 135.367 164.682 135.037C172.254 134.614 170.157 148.72 163.05 145.887C158.687 144.142 165.228 138.582 165.228 136.39C165.228 133.984 159.575 144.188 161.147 142.357C162.264 141.059 163.932 137.122 165.774 136.39C168.336 135.367 159.825 144.656 162.509 143.984C163.534 143.73 167.05 137.026 168.494 137.748C169.468 138.236 164.126 144.234 164.412 144.798C164.688 145.353 169.218 140.551 169.851 139.915C170.535 139.238 168.631 141.405 167.948 142.087C166.948 143.084 166.142 144.432 164.82 144.936Z" stroke="#020207" stroke-width="2" stroke-miterlimit="10" stroke-linecap="round" stroke-linejoin="round"/>
<path d="M180.939 142.905C176.684 145.85 173.347 130.03 182.163 133.413C189.817 136.348 181.373 142.604 180.939 142.905Z" stroke="#020207" stroke-width="2" stroke-miterlimit="10" stroke-linecap="round" stroke-linejoin="round"/>
<path d="M196.74 139.377C196.74 137.871 193.893 136.767 194.291 134.768C194.801 132.245 198.097 130.424 200.551 130.424C201.327 130.424 202.107 130.775 202.724 131.238C210.388 136.971 196.74 141.828 196.74 139.377Z" stroke="#020207" stroke-width="2" stroke-miterlimit="10" stroke-linecap="round" stroke-linejoin="round"/>
<path d="M214.862 136.777C217.29 135.653 211.948 123.923 219.214 130.134C226.5 136.36 211.678 138.253 214.862 136.777Z" stroke="#020207" stroke-width="2" stroke-miterlimit="10" stroke-linecap="round" stroke-linejoin="round"/>
<path d="M230.917 134.366C229.519 129.93 227.029 120.611 236.223 125.55C244.59 130.042 233.044 141.116 230.917 134.366Z" stroke="#020207" stroke-width="2" stroke-miterlimit="10" stroke-linecap="round" stroke-linejoin="round"/>
<path d="M248.557 131.891C249.818 132.959 239.598 123.966 250.736 123.35C251.374 123.315 252.16 123.193 252.639 123.62C261.206 131.311 246.425 130.09 248.557 131.891Z" stroke="#020207" stroke-width="2" stroke-miterlimit="10" stroke-linecap="round" stroke-linejoin="round"/>
<path d="M265.005 128.65C262.484 131.778 261.372 118.324 268.954 120.648C270.908 121.249 271.5 124.794 270.586 126.346C269.566 128.075 266.27 127.088 265.005 128.65Z" stroke="#020207" stroke-width="2" stroke-miterlimit="10" stroke-linecap="round" stroke-linejoin="round"/>
<path d="M165.105 163.408C165.646 163.571 158.625 158.235 165.105 156.083C166.421 155.645 168.401 155.121 169.733 156.083C172.789 158.301 169.957 164.578 166.738 165.036C165.641 165.188 161.753 162.375 165.105 163.408Z" stroke="#020207" stroke-width="2" stroke-miterlimit="10" stroke-linecap="round" stroke-linejoin="round"/>
<path d="M182.545 162.61C184.427 163.892 179.973 162.285 179.417 160.169C178.412 156.318 180.05 150.173 185.402 152.844C187.575 153.927 189.754 157.3 188.397 159.624C186.994 162.015 181.637 161.99 182.545 162.61Z" stroke="#020207" stroke-width="2" stroke-miterlimit="10" stroke-linecap="round" stroke-linejoin="round"/>
<path d="M199.776 159.757C197.704 161.995 194.505 145.859 204.674 150.534C213.501 154.598 200.011 159.507 199.776 159.757Z" stroke="#020207" stroke-width="2" stroke-miterlimit="10" stroke-linecap="round" stroke-linejoin="round"/>
<path d="M218.118 157.837C219.45 158.793 212.909 144.759 221.246 147.531C223.761 148.366 226.822 152.064 225.328 154.856C224.103 157.145 216.006 156.321 218.118 157.837Z" stroke="#020207" stroke-width="2" stroke-miterlimit="10" stroke-linecap="round" stroke-linejoin="round"/>
<path d="M235.014 155.424C233.407 157.082 228.294 143.699 236.922 144.711C239.856 145.052 242.519 149.854 241.004 152.575C238.886 156.375 235.422 155.002 235.014 155.424Z" stroke="#020207" stroke-width="2" stroke-miterlimit="10" stroke-linecap="round" stroke-linejoin="round"/>
<path d="M250.438 153.302C251.571 155.744 246.535 154.207 246.356 152.356C245.871 147.289 250.218 141.516 255.336 144.761C258.433 146.725 256.688 150.871 254.79 152.895C253.8 153.958 249.826 151.985 250.438 153.302Z" stroke="#020207" stroke-width="2" stroke-miterlimit="10" stroke-linecap="round" stroke-linejoin="round"/>
<path d="M267.248 151.041C264.763 151.789 264.773 144.728 264.799 144.53C265.212 141.355 267.482 139.453 270.784 139.646C272.233 139.733 273.539 141.666 274.049 142.632C276.136 146.559 274.738 149.81 270.513 151.041C266.472 152.216 268.865 150.552 267.248 151.041Z" stroke="#020207" stroke-width="2" stroke-miterlimit="10" stroke-linecap="round" stroke-linejoin="round"/>
<path d="M168.218 183.104C167.585 189.849 165.279 169.99 172.708 175.916C180.045 181.766 168.708 177.885 168.218 183.104Z" stroke="#020207" stroke-width="2" stroke-miterlimit="10" stroke-linecap="round" stroke-linejoin="round"/>
<path d="M185.122 181.51C186.586 188.087 178.244 165.548 188.658 172.964C192.341 175.589 189.719 185.178 185.668 183C185.198 182.751 185.004 180.996 185.122 181.51Z" stroke="#020207" stroke-width="2" stroke-miterlimit="10" stroke-linecap="round" stroke-linejoin="round"/>
<path d="M201.314 178.74C203.748 180.877 199.804 179.656 199.411 177.926C198.579 174.264 202.197 165.947 206.758 170.876C209.432 173.76 207.666 180.266 203.763 181.182C202.319 181.523 198.926 176.644 201.314 178.74Z" stroke="#020207" stroke-width="2" stroke-miterlimit="10" stroke-linecap="round" stroke-linejoin="round"/>
<path d="M219.392 177.501C219.678 177.501 213.459 165.069 223.612 167.602C225.015 167.948 226.112 170.298 226.331 171.397C228.571 182.552 217.959 177.506 219.392 177.501Z" stroke="#020207" stroke-width="2" stroke-miterlimit="10" stroke-linecap="round" stroke-linejoin="round"/>
<path d="M235.36 175.662C232.457 178.948 228.539 163.138 238.08 164.404C246.616 165.539 238.738 171.836 235.36 175.662Z" stroke="#020207" stroke-width="2" stroke-miterlimit="10" stroke-linecap="round" stroke-linejoin="round"/>
</svg>
