<svg width="583" height="395" viewBox="0 0 583 395" fill="none" xmlns="http://www.w3.org/2000/svg">
<g clip-path="url(#clip0_9260_16886)">
<path fill-rule="evenodd" clip-rule="evenodd" d="M339.646 120.463C345.264 117.862 339.646 113.432 337.773 109.227C329.346 93.7692 319.609 47.6405 364.514 44.1468C388.936 42.2471 407.682 58.9695 410.113 83.5573C411.169 94.2344 410.176 105.815 408.455 116.259C408.354 116.876 408.244 117.936 407.626 117.936C406.536 117.936 412.57 104.59 412.6 104.52C416.73 95.1225 423.791 88.916 431.669 82.7187C449.663 68.5644 485.902 72.5625 494.679 96.9737C500.58 113.387 495.194 139.896 478.926 148.122C468.951 153.167 456.587 152.315 445.763 152.315C440.447 152.315 430.011 154.831 430.011 154.831C430.011 154.831 441.17 157.868 446.592 159.862C454.808 162.883 465.878 165.112 472.294 171.601C486.695 186.167 484.866 214.087 472.294 228.62C466.047 235.84 436.559 249.425 427.523 243.713C416.366 236.66 406.019 224.53 400.164 212.688C397.616 207.534 393.532 196.756 393.532 196.756C393.532 196.756 393.532 199.551 393.532 200.948C393.532 206.102 392.861 211.981 391.044 216.881C387.339 226.874 382.237 235.685 375.292 243.713C359.539 261.921 325.646 265.207 308.966 246.229C299.906 235.92 299.627 208.306 306.479 196.756C309.884 191.017 315.113 186.183 320.573 182.501C321.3 182.011 323.061 181.663 323.061 181.663C323.061 181.663 315.269 182.483 311.453 183.34C305.211 184.743 297.12 184.939 290.726 184.178C275.26 182.338 270 174.009 270 159.023C270 135.287 291.184 124.208 310.62 121.4C320.819 119.926 319.961 119.527 329.346 119.527" fill="#F19077"/>
<path d="M238.37 322.789C219.88 298.735 212.787 293.734 192.891 271.137C172.207 275.651 146.907 284.758 126.77 291.069C118.942 293.523 111.292 293.701 103.79 296.362C100.983 297.362 98.8814 278.509 97.9765 275.336C96.2695 269.336 94.8442 263.415 92.7529 257.524C92.6351 257.191 89.8872 250.336 90.0405 250.201C90.786 249.545 96.8266 249.376 98.0544 249.122C113.511 245.944 127.566 243.488 143.343 242.862C147.078 242.716 150.847 242.482 154.522 241.983C156.374 241.735 159.993 243.409 160.111 241.544C160.119 241.431 150.285 238.323 149.605 238.095C138.134 234.285 126.016 226.268 113.858 225.496C112.708 225.425 93.9639 225.985 94.1253 223.447C94.2468 221.537 97.0122 218.12 97.7435 216.527C100.931 209.59 103.046 199.713 107.166 193.29C108.262 191.583 129.653 200.581 131.665 201.6C140.693 206.169 149.764 208.998 159.178 212.485C162.61 213.758 166.372 215.073 169.635 216.724C171.502 217.669 175.088 222.632 174.552 220.612C171.412 208.719 161.612 198.71 157.623 186.961C153.907 176.013 153.189 165.046 147.766 154.554C146.713 152.515 136.124 134.38 136.363 133.967C136.634 133.505 145.486 130.662 146.531 130.243C154.019 127.263 161.329 123.862 168.602 120.522C169.858 119.944 173.126 116.304 174.443 116.126C176.46 115.854 178.847 134.546 179.145 135.89C180.145 140.378 181.641 144.743 182.667 149.224C185.444 161.335 186.783 173.704 189.478 185.807C190.126 188.719 192.719 194.376 193.585 198.978C193.682 198.438 193.787 197.959 193.891 197.608C195.099 193.567 196.125 189.532 197.441 185.518C201.66 172.669 204.701 159.443 208.662 146.505C209.345 144.282 209.191 137.822 210.898 136.319C213.691 133.86 227.015 143.605 228.646 144.597C232.468 146.92 236.542 149.293 240.534 151.311C243.082 152.6 248.901 150.972 248.717 153.817C248.395 158.882 240.296 169.919 238.233 175.001C230.479 194.127 221.426 216.644 217.219 236.83C216.594 239.829 228.345 250.314 230.137 252.349C244.464 268.622 260.581 283.277 273.115 301.161C277.431 307.318 283.666 311.545 289.25 316.093C289.685 316.447 290.571 316.835 290.362 317.356C289.157 320.321 278.06 323.705 275.514 325.947C270.777 330.118 264.884 334.116 260.785 338.915C259.943 339.897 258.651 344.406 257.638 344.674C256.193 345.056 239.78 324.627 238.37 322.789Z" fill="#D8F177"/>
<path d="M308.965 149.37C305.447 149.382 318.786 142.288 322.322 140.818C331.595 136.962 342.197 131.903 352.221 130.469C375.381 127.172 395.226 156.975 401.255 175.031C418.041 225.288 387.397 270.761 354.612 305.527C344.362 316.394 332.334 331.51 316.341 334.17C300.408 336.824 285.458 326.237 272.089 319.054C224.158 293.292 201.43 241.577 211.896 189.355C218.201 157.886 239.287 143.133 270.098 141.211C278.78 140.669 290.473 142.818 298.804 145.591C301.219 146.394 313.628 149.352 308.965 149.37Z" stroke="#020207" stroke-width="3" stroke-miterlimit="10" stroke-linecap="round" stroke-linejoin="round"/>
<path d="M308.023 164.867C311.249 161.874 316.956 162.624 321.178 160.69C326.801 158.119 330.736 152.275 336.33 149.948C365.197 137.944 388.757 162.969 390.945 191.326C394.159 233.049 376.545 257.312 352.275 288.8C343.289 300.464 329.961 318.383 314.004 319.835C291.565 321.87 272.74 305.736 259.388 289.996C248.941 277.671 238.935 265.001 233.079 249.814C224.296 227.027 222.25 207.245 229.49 183.768C234.719 166.801 250.873 153.881 268.959 155.518C278.321 156.369 287.015 160.279 296.067 162.284C297.618 162.63 307.188 165.647 308.023 164.867Z" stroke="#020207" stroke-width="3" stroke-miterlimit="10" stroke-linecap="round" stroke-linejoin="round"/>
<path d="M300.985 236.664C295.433 233.897 303.286 223.072 307.359 226.321C324.056 239.646 279.911 238.229 302.177 227.119" stroke="#020207" stroke-width="3" stroke-miterlimit="10" stroke-linecap="round" stroke-linejoin="round"/>
<path d="M311.027 229.444C308.708 231.759 314.39 223.815 316.209 221.089C318.857 217.126 320.92 212.966 323.788 209.151C333.514 196.207 344.271 184.507 353.687 171.355" stroke="#020207" stroke-width="3" stroke-miterlimit="10" stroke-linecap="round" stroke-linejoin="round"/>
<path d="M301.579 230.762C300.696 230.762 256.909 209.665 254.536 208.088" stroke="#020207" stroke-width="3" stroke-miterlimit="10" stroke-linecap="round" stroke-linejoin="round"/>
<path d="M361.824 172.072C356.601 164.253 369.29 168.192 369.004 170.483C368.557 174.018 355.867 182.463 356.642 184.01C357.167 185.058 367.346 184.469 368.205 183.612" stroke="#020207" stroke-width="3" stroke-miterlimit="10" stroke-linecap="round" stroke-linejoin="round"/>
<path d="M327.164 163.52C327.164 166.721 327.564 169.869 327.564 173.071" stroke="#020207" stroke-width="3" stroke-miterlimit="10" stroke-linecap="round" stroke-linejoin="round"/>
<path d="M357.41 212.164C355.371 209.111 367.774 208.141 367.774 212.563C367.774 216.538 356.402 220.651 356.611 221.716C357.07 223.989 369.688 220.038 367.774 227.685C367.023 230.702 358.65 231.88 356.611 230.863" stroke="#020207" stroke-width="3" stroke-miterlimit="10" stroke-linecap="round" stroke-linejoin="round"/>
<path d="M351.299 248.49C349.689 245.277 339.576 253.525 338.944 256.048C338.688 257.066 361.687 255.65 355.289 255.65" stroke="#020207" stroke-width="3" stroke-miterlimit="10" stroke-linecap="round" stroke-linejoin="round"/>
<path d="M350.537 247.758C347.424 249.311 349.339 264.225 349.339 268.051" stroke="#020207" stroke-width="3" stroke-miterlimit="10" stroke-linecap="round" stroke-linejoin="round"/>
<path d="M327.46 273.376C324.359 267.187 324.067 280.696 324.27 280.934C326.077 283.035 335.057 278.22 335.832 280.535C336.81 283.469 326.613 293.586 328.659 288.492" stroke="#020207" stroke-width="3" stroke-miterlimit="10" stroke-linecap="round" stroke-linejoin="round"/>
<path d="M328.39 271.147C326.38 268.136 337.364 266.368 339.553 266.368" stroke="#020207" stroke-width="3" stroke-miterlimit="10" stroke-linecap="round" stroke-linejoin="round"/>
<path d="M304.753 288.241C297.854 281.356 293.626 303.893 299.571 305.75C303.524 306.982 311.509 301.709 309.935 296.996C308.247 291.931 297.198 300.179 298.778 300.179" stroke="#020207" stroke-width="3" stroke-miterlimit="10" stroke-linecap="round" stroke-linejoin="round"/>
<path d="M269.526 281.708C267.075 280.482 282.216 278.024 282.287 278.125C282.925 279.083 278.125 301.495 279.097 297.621" stroke="#020207" stroke-width="3" stroke-miterlimit="10" stroke-linecap="round" stroke-linejoin="round"/>
<path d="M270.239 289.54C275.075 289.54 279.863 286.903 284.592 285.957" stroke="#020207" stroke-width="3" stroke-miterlimit="10" stroke-linecap="round" stroke-linejoin="round"/>
<path d="M252.051 262.047C259.541 258.577 236.601 262.945 246.07 268.611C249.38 270.598 258.807 264.183 257.633 260.261C256.279 255.768 245.307 265.171 252.051 262.047Z" stroke="#020207" stroke-width="3" stroke-miterlimit="10" stroke-linecap="round" stroke-linejoin="round"/>
<path d="M254.898 267.715C249.602 271.542 248.1 282.855 256.889 278.261C265.029 274.006 260.235 263.859 254.898 267.715Z" stroke="#020207" stroke-width="3" stroke-miterlimit="10" stroke-linecap="round" stroke-linejoin="round"/>
<path d="M231.003 232.096C230.562 231.876 236.829 235.268 237.377 239.654C237.491 240.571 234.622 252.485 232.994 247.611" stroke="#020207" stroke-width="3" stroke-miterlimit="10" stroke-linecap="round" stroke-linejoin="round"/>
<path d="M230.399 238.941L229.999 239.739L231.591 240.536L237.572 240.138" stroke="#020207" stroke-width="3" stroke-miterlimit="10" stroke-linecap="round" stroke-linejoin="round"/>
<path d="M233.604 187.522C228.989 189.682 226.496 203.709 232.805 205.429C236.717 206.494 240.11 196.764 239.979 194.289C239.681 188.635 233.801 187.433 233.604 187.522Z" stroke="#020207" stroke-width="3" stroke-miterlimit="10" stroke-linecap="round" stroke-linejoin="round"/>
<path d="M251.188 163.52C247.7 163.52 250.574 184.17 254.778 181.028" stroke="#020207" stroke-width="3" stroke-miterlimit="10" stroke-linecap="round" stroke-linejoin="round"/>
<path d="M262.501 163.52C257.868 163.52 259.138 179.998 262.102 182.218" stroke="#020207" stroke-width="3" stroke-miterlimit="10" stroke-linecap="round" stroke-linejoin="round"/>
<path d="M284.171 169.887C283.587 173.398 284.219 185.8 287.761 185.8" stroke="#020207" stroke-width="3" stroke-miterlimit="10" stroke-linecap="round" stroke-linejoin="round"/>
<path d="M295.414 170.69C291.866 167.149 304.221 167.476 305.378 169.095C310.405 176.111 283.458 179.64 300.995 181.824C302.182 181.973 303.386 181.824 304.579 181.824" stroke="#020207" stroke-width="3" stroke-miterlimit="10" stroke-linecap="round" stroke-linejoin="round"/>
<path d="M281.036 133.208C288.012 130.429 294.363 124.567 301.37 122.466C313.707 118.77 352.705 125.406 365.15 131.619" stroke="#020207" stroke-width="3" stroke-miterlimit="10" stroke-linecap="round" stroke-linejoin="round"/>
<path d="M280.694 134.312C273.943 132.069 264.784 138.579 257.175 137.496C249.733 136.437 244.641 132.122 236.841 132.723C194.536 135.967 173.62 180.493 177.445 218.657C182.62 270.307 218.04 297.397 260.366 318.518C288.696 332.657 305.208 340.132 335.309 326.474" stroke="#020207" stroke-width="3" stroke-miterlimit="10" stroke-linecap="round" stroke-linejoin="round"/>
<path d="M372.315 289.386C372.315 299.776 383.352 300.139 388.659 306.495C391.432 309.816 388.958 314.535 393.841 317.63C394.306 317.927 398.421 319.028 397.026 320.415C382.708 334.71 383.167 317.481 371.516 311.667C368.779 310.298 352.559 303.419 359.154 300.128" stroke="#020207" stroke-width="3" stroke-miterlimit="10" stroke-linecap="round" stroke-linejoin="round"/>
<path d="M264.014 314.427C264.014 313.118 255.69 319.688 254.444 320.789C252.166 322.812 251.945 330.703 249.262 333.917C248.844 334.423 246.513 334.709 246.471 334.715C240.723 335.536 237.025 351.794 232.118 349.836C231.396 349.545 224.223 345.367 224.145 345.058C223.161 341.13 243.442 309.214 246.87 304.078" stroke="#020207" stroke-width="3" stroke-miterlimit="10" stroke-linecap="round" stroke-linejoin="round"/>
<path d="M352.474 126.952C352.582 127.024 366.976 103.957 349.284 109.843C348.688 110.039 346.064 123.483 345.694 124.959C345.372 126.256 344.186 129.678 345.295 128.94C349.171 126.363 349.326 115.74 351.675 111.83C352.087 111.152 351.83 113.437 351.675 114.217C351.246 116.365 350.596 118.46 350.083 120.584C349.433 123.239 347.221 131.136 348.085 128.541C350.268 122.019 354.066 115.716 356.857 109.444C357.03 109.063 357.418 107.867 357.257 108.254C355.79 111.765 348.592 124.369 352.474 126.952Z" stroke="#020207" stroke-width="3" stroke-miterlimit="10" stroke-linecap="round" stroke-linejoin="round"/>
<path d="M243.269 129.353C240.657 128.05 245.32 138.066 245.26 138.107C236.065 144.225 236.888 127.901 236.888 137.709" stroke="#020207" stroke-width="3" stroke-miterlimit="10" stroke-linecap="round" stroke-linejoin="round"/>
<path d="M196.582 104.57C191.399 109.741 193.197 131.6 201.765 134.807C212.271 138.741 264.871 122.911 268.741 111.336C271.311 103.641 264.519 93.9292 258.371 90.2454C256.999 89.4242 255.914 85.9368 254.787 87.0616C240.189 101.63 231.525 105.641 209.737 108.152C205.973 108.587 196.583 110.146 195.386 104.171C192.799 91.2571 281.227 64.6258 242.426 95.8157C238.138 99.2673 237.232 99.8029 233.654 102.183" stroke="#020207" stroke-width="3" stroke-miterlimit="10" stroke-linecap="round" stroke-linejoin="round"/>
<path d="M340.754 79.0062C341.863 82.0829 349.884 82.0115 352.114 82.7851C357.314 84.5883 362.227 86.201 367.66 87.1592C372.156 87.9507 378.9 88.1411 382.812 90.7418C389.109 94.9373 397.028 115.04 389.586 120.979C388.465 121.872 361.744 109.839 357.296 108.643C352.46 107.345 316.914 100.311 315.042 97.5082C309.842 89.7241 338.142 71.7755 340.754 79.0062Z" stroke="#020207" stroke-width="3" stroke-miterlimit="10" stroke-linecap="round" stroke-linejoin="round"/>
<path d="M361.303 80.1622C353.181 84.215 365.507 74.3718 368.077 71.8069C368.345 71.5391 368.608 70.7476 368.876 71.0094C371.959 74.0861 372.156 86.4288 367.678 87.3215" stroke="#020207" stroke-width="3" stroke-miterlimit="10" stroke-linecap="round" stroke-linejoin="round"/>
<path d="M220.603 80.6364C220.335 82.5348 219.237 88.3074 219.81 90.5807C224.521 109.392 237.818 73.501 222.6 78.25C214.294 80.8387 216.715 91.89 222.6 94.5621" stroke="#020207" stroke-width="3" stroke-miterlimit="10" stroke-linecap="round" stroke-linejoin="round"/>
<path d="M225.344 82.8642C223.025 82.8642 222.589 94.0762 223.746 96.3911C226.173 101.229 227.509 86.1909 228.528 80.8766C228.66 80.222 228.946 78.3652 228.528 78.883C227.229 80.5136 224.998 90.19 224.945 90.4221C224.623 91.7373 222.792 94.4035 224.146 94.4035C229.178 94.4035 228.528 76.812 228.528 93.6061" stroke="#020207" stroke-width="3" stroke-miterlimit="10" stroke-linecap="round" stroke-linejoin="round"/>
<path d="M230.981 91.2707C248.154 84.415 243.11 59.3548 258.089 51.8802C270.206 45.8398 321.607 41.6145 333.438 48.7023C346.497 56.5221 344.07 77.5236 364.529 80.9277" stroke="#020207" stroke-width="3" stroke-miterlimit="10" stroke-linecap="round" stroke-linejoin="round"/>
<path d="M367.408 78.4193C366.215 72.5515 357.527 83.1921 361.624 83.1921C364.17 83.1921 368.404 75.6936 368.404 73.6405C368.404 72.5752 367.205 75.4318 366.806 76.4257C366.329 77.6159 364.45 82.8707 364.015 84.3823C363.83 85.0369 362.977 86.5902 363.621 86.3759C366.836 85.3047 366.937 78.2229 368.404 76.0269C368.881 75.3128 367.581 79.2643 367.408 78.4193Z" stroke="#020207" stroke-width="3" stroke-miterlimit="10" stroke-linecap="round" stroke-linejoin="round"/>
<path d="M240.946 133.426C241.149 134.896 241.888 138.454 242.938 137.407C244.011 136.336 243.272 129.385 242.538 128.653C240.159 126.278 244.136 135.241 244.136 138.597C244.136 140.448 242.908 135.11 242.139 133.426C240.887 130.67 240.565 130.664 240.946 133.426Z" stroke="#020207" stroke-width="3" stroke-miterlimit="10" stroke-linecap="round" stroke-linejoin="round"/>
<path d="M249.777 307.996C244.071 310.841 242.3 318.315 238.614 323.511C236.647 326.284 229.831 333.872 232.234 331.467C234.816 328.896 237.142 325.945 239.414 323.112C242.622 319.113 244.649 316.381 247.386 311.971C250.326 307.228 231.435 331.396 231.435 335.449C231.435 336.573 233.152 333.961 233.832 333.062C235.204 331.235 236.444 329.313 237.815 327.492C241.739 322.273 245.353 317.006 248.978 311.579C250.296 309.603 246.849 315.822 245.788 317.94C243.82 321.868 242.24 325.98 240.207 329.878C239.163 331.878 235.084 337.008 237.016 335.847C242.371 332.64 251.369 318.232 251.369 312.37C251.369 309.639 249.199 317.393 248.179 319.934C246.277 324.677 244.494 329.676 242.198 334.252C241.113 336.431 244.518 329.968 245.788 327.891C247.189 325.594 249.288 321.297 250.57 318.738C251.107 317.679 252.169 314.37 252.169 315.554C252.169 317.155 251.447 319.154 250.97 320.726C248.173 330.027 249.294 325.766 250.97 318.738C252.699 311.489 251.34 303.574 258.543 313.168C259.604 314.572 253.79 311.906 252.968 313.965C250.391 320.392 246.987 333.854 246.987 333.854C246.987 333.854 247.708 323.154 251.769 321.124C252.031 320.993 250.201 331.426 249.378 332.664C248.943 333.312 248.442 330.676 246.587 330.676C243.993 330.676 240.427 333.669 238.614 335.05C236.599 336.591 230.493 340.221 233.033 340.221C234.524 340.221 237.022 334.33 237.416 333.461C237.887 332.426 239.497 329.569 238.614 330.277C233.14 334.645 231.214 342.828 226.253 347.779C225.496 348.535 227.344 345.935 227.851 344.994C229.563 341.822 233.433 337.276 233.433 333.461C233.433 332.646 228.477 347.381 228.644 347.381C230.362 347.381 234.238 334.544 236.223 333.062C239.008 330.979 231.113 347.381 232.234 347.381C233.922 347.381 237.225 338.627 239.014 337.436C239.581 337.055 233.755 347.404 237.016 346.589" stroke="#020207" stroke-width="3" stroke-miterlimit="10" stroke-linecap="round" stroke-linejoin="round"/>
<path d="M375.21 298.202C370.619 289.037 368.09 299.731 363.248 304.563C362.324 305.486 364.286 302.165 364.84 300.987C366.26 297.976 368.83 291.834 368.83 291.834C368.83 291.834 361.913 302.016 363.248 307.349C363.499 308.354 364.709 305.849 365.24 304.962C366.528 302.82 369.802 297.363 368.43 294.619C367.303 292.364 367.739 299.755 368.43 302.177C369.832 307.081 373.183 315.543 377.202 318.888C377.363 319.025 374.191 312.794 374.012 312.52C371.161 308.253 369.253 303.403 366.039 299.392C365.508 298.731 367.029 300.785 367.631 301.38C371.018 304.766 371.781 305.7 376.003 308.943C379.468 311.598 384.465 313.704 387.166 317.299C387.566 317.829 386.039 316.573 385.574 316.103C383.779 314.311 381.841 312.663 379.993 310.931C377.643 308.735 372.843 305.629 371.62 302.576C370.493 299.767 377.226 305.063 379.593 306.95C382.557 309.318 387.279 312.806 388.764 316.501C389.05 317.222 387.315 315.853 386.767 315.305C386.522 315.061 381.585 310.134 381.585 310.134C375.502 303.427 378.329 306.075 372.813 299.791C372.318 299.225 370.547 297.863 371.221 298.202C377.279 301.219 382.259 308.515 386.767 313.318C387.989 314.621 390.756 318.685 390.756 316.9C390.756 311.681 371.424 304.546 372.813 298.993C372.867 298.785 377.834 301.284 377.995 301.38C383.69 304.849 389.134 309.961 391.155 316.501C391.269 316.882 391.525 317.549 391.155 317.692C387.482 319.162 379.194 307.932 379.194 305.361C379.194 302.742 382.312 309.658 383.183 312.121C384.364 315.502 384.9 322.197 387.566 324.857C389.378 326.666 385.92 319.983 384.775 317.692C383.445 315.037 381.245 308.432 377.995 307.349C376.957 307.003 378.245 309.586 378.794 310.532C380.732 313.841 382.402 317.192 384.375 320.477C385.079 321.649 386.367 325.428 386.367 324.059C386.367 321.643 383.648 317.918 382.783 315.704C377.178 301.326 385.532 325.904 390.756 327.642C392.271 328.148 390.303 324.22 391.155 322.869C391.352 322.548 395.938 318.632 395.938 319.685C395.938 322.417 389.557 327.588 389.557 324.857C389.557 323.357 394.34 322.887 394.34 321.274C394.34 320.459 388.878 321.905 387.965 320.084C387.745 319.638 384.602 310.413 384.375 311.33C383.791 313.675 387.464 320.001 385.574 318.489C383.081 316.501 369.694 300.124 367.232 302.576C366.934 302.873 372.264 308.301 371.62 308.943C371.597 308.967 361.573 303.004 360.857 302.576C360.446 302.332 359.181 301.778 359.659 301.778C362.443 301.778 366.212 304.343 368.031 306.158" stroke="#020207" stroke-width="3" stroke-miterlimit="10" stroke-linecap="round" stroke-linejoin="round"/>
</g>
<defs>
<clipPath id="clip0_9260_16886">
<rect width="583" height="395" rx="24" fill="white"/>
</clipPath>
</defs>
</svg>
