<svg width="583" height="400" viewBox="0 0 583 400" fill="none" xmlns="http://www.w3.org/2000/svg">
<path fill-rule="evenodd" clip-rule="evenodd" d="M338.635 242.845C344.574 240.094 338.635 235.41 336.655 230.965C327.745 214.621 317.45 165.849 364.927 162.155C390.747 160.147 410.567 177.827 413.137 203.824C414.253 215.113 413.204 227.357 411.384 238.399C411.277 239.051 411.161 240.172 410.507 240.172C409.355 240.172 415.734 226.062 415.766 225.987C420.133 216.052 427.598 209.49 435.928 202.937C454.952 187.972 493.266 192.199 502.546 218.009C508.785 235.362 503.09 263.391 485.891 272.088C475.345 277.422 462.273 276.521 450.829 276.521C445.209 276.521 434.175 279.181 434.175 279.181C434.175 279.181 445.972 282.392 451.706 284.5C460.391 287.695 472.095 290.052 478.879 296.912C494.105 312.313 492.171 341.833 478.879 357.198C472.274 364.832 441.098 379.195 431.544 373.156C419.749 365.699 408.808 352.874 402.618 340.353C399.924 334.904 395.606 323.509 395.606 323.509C395.606 323.509 395.606 326.464 395.606 327.941C395.606 333.39 394.898 339.606 392.976 344.786C389.059 355.352 383.665 364.668 376.322 373.156C359.667 392.407 323.833 395.881 306.197 375.816C296.619 364.917 296.324 335.72 303.568 323.509C307.168 317.44 312.696 312.33 318.469 308.437C319.238 307.919 321.1 307.551 321.1 307.551C321.1 307.551 312.861 308.418 308.827 309.324C302.228 310.808 293.674 311.015 286.913 310.21C270.561 308.265 265 299.458 265 283.613C265 258.517 287.398 246.803 307.946 243.835C318.729 242.276 317.822 241.855 327.745 241.855" fill="#D8F177"/>
<path d="M78.6319 146.118C87.8943 143.946 41.2285 149.986 41.8721 168.186C42.9119 197.611 87.5569 231.119 109.705 244.899C173.647 284.681 271.069 285.58 283.894 198.577C291.957 143.897 253.565 92.9264 218.248 53.7575C208.199 42.6087 195.658 22.6355 179.892 19.8411C163.611 16.9547 154.823 45.5674 156.702 57.3267C157.742 63.8181 161.088 72.0827 165.078 77.542C166.075 78.9092 168.282 81.486 168.282 81.486C168.282 81.486 159.339 68.7344 153.481 63.725C143.345 55.0469 122.014 50.4262 111.156 58.3973C97.2974 68.5709 95.0761 85.0214 102.73 101.769C105.686 108.239 109.412 114.527 113.723 120.161C114.414 121.065 115.735 122.914 115.735 122.914C115.735 122.914 106.663 110.801 100.961 105.92C93.6398 99.6539 81.423 101.874 74.1399 105.738C63.187 111.55 69.1855 148.334 78.6319 146.118Z" fill="#F2C65E"/>
<path d="M195.07 102.845C191.483 101.049 188.271 102.037 184.86 103.176C168.735 108.56 181.9 119.989 179.922 129.889C179.232 133.34 169.712 132.527 169.712 132.527C169.712 132.527 173.663 135.608 172.346 136.485C168.172 139.274 159.867 134.805 156.212 138.466C154.293 140.388 160.304 142.136 161.81 144.399C166.238 151.053 174.548 154.757 180.578 147.368C181.079 146.755 185.783 139.254 184.86 138.797C182.653 137.687 170.947 139.118 167.739 138.797C165.373 138.558 163.181 138.66 160.824 138.135C160.066 137.964 158.52 137.03 158.52 137.804C158.52 138.982 166.14 142.681 167.078 143.08C171.69 145.061 184.816 147.295 186.177 139.123C186.366 137.989 185.195 126.594 183.873 126.594C182.945 126.594 183.99 129.646 184.204 130.22C184.957 132.235 188.514 133.944 188.811 134.834C189.943 138.242 175.971 151.842 175.971 151.988C175.971 155.006 179.592 159.24 174.654 161.221C173.867 161.538 173.182 161.674 172.346 161.883C171.909 161.991 171.476 162.137 171.029 162.21C161.815 163.753 154.288 156.072 148.971 149.681C145.409 145.402 141.293 141.888 138.761 136.816C130.514 120.3 136.613 80.0357 156.212 73.4888C160.873 71.9361 166.199 73.1773 171.029 72.8317C176.438 72.4423 182.41 70.4369 187.494 73.4888C191.858 76.1124 192.037 82.3916 194.409 86.3538C206.645 106.783 201.028 140.082 183.873 157.264" stroke="#100E0E" stroke-width="3" stroke-miterlimit="10" stroke-linecap="round" stroke-linejoin="round"/>
<path d="M150.589 102.069C150.919 102.069 151.25 102.069 151.58 102.069C152.824 102.069 172.574 105.613 169.362 110.977C166.971 114.963 151.313 105.774 149.602 112.627C149.068 114.759 159.506 114.71 160.469 114.603C170.562 113.479 169.595 116.448 165.08 125.487" stroke="#100E0E" stroke-width="3" stroke-miterlimit="10" stroke-linecap="round" stroke-linejoin="round"/>
<path d="M164.78 128.507V129.169V130.157L165.441 131.145L166.097 131.476" stroke="#100E0E" stroke-width="3" stroke-miterlimit="10" stroke-linecap="round" stroke-linejoin="round"/>
<path d="M184.776 112.605C186.744 112.605 188.027 112.181 190.049 111.943C205.439 110.132 173.162 114.25 191.366 114.25" stroke="#100E0E" stroke-width="3" stroke-miterlimit="10" stroke-linecap="round" stroke-linejoin="round"/>
<path d="M194.559 76.6476C194.559 71.6827 196.406 65.0142 192.912 60.8184C190.939 58.443 186.045 58.847 183.363 58.1802C167.18 54.1255 131.86 60.2002 129.693 81.9241C128.891 89.9604 132.91 97.4418 131.996 105.673C130.495 119.195 132.516 130.726 132.983 144.258C134.139 177.805 135.724 211.289 136.608 244.855C136.909 256.299 141.371 292.105 129.693 297.955" stroke="#100E0E" stroke-width="3" stroke-miterlimit="10" stroke-linecap="round" stroke-linejoin="round"/>
<path d="M182.815 56.573C179.943 52.2604 170.617 54.5043 166.676 55.2539C152.714 57.897 136.867 67.598 127.162 78.0097C116.325 89.6431 116.005 114.297 114.979 129.133C112.836 160.291 104.711 190.343 103.457 221.812C102.966 234.044 102.82 245.551 106.091 257.432C107.126 261.185 108.438 264.85 109.381 268.642C109.415 268.778 110.984 274.96 111.028 274.912C113.594 272.341 110.46 267.659 110.372 264.028C110.066 251.591 110.703 239.179 110.703 226.757C110.703 197.532 113.021 169.247 116.627 140.343C117.798 130.954 117.409 121.209 119.921 111.98C120.85 108.563 130.404 80.6479 133.091 80.6479C134.904 80.6479 132.1 84.1428 131.774 85.9243C131.356 88.2218 131.099 90.5388 130.788 92.8509C129.991 98.7357 130.131 99.0375 129.801 105.054C129.009 119.286 128.81 133.675 128.81 147.932C128.81 165.09 130.253 181.946 130.788 199.051C131.57 224.114 132.435 249.162 132.435 274.25" stroke="#100E0E" stroke-width="3" stroke-miterlimit="10" stroke-linecap="round" stroke-linejoin="round"/>
<path d="M193.741 69.4219C192.181 70.2055 202.042 82.5594 202.96 84.263C207.101 91.9732 209.594 101.295 209.875 109.993C210.405 126.46 206.406 139.836 205.264 155.835C204.073 172.565 207.718 189.499 207.242 206.297C206.804 221.576 205.448 237.337 203.291 252.471C202.294 259.446 199.072 276.083 194.067 261.047" stroke="#100E0E" stroke-width="3" stroke-miterlimit="10" stroke-linecap="round" stroke-linejoin="round"/>
<path d="M190.976 150.203C190.611 149.113 181.966 162.163 180.435 164.718C176.266 171.679 169.56 184.145 172.864 192.75C184.299 222.535 187.681 256.827 187.681 288.729" stroke="#100E0E" stroke-width="3" stroke-miterlimit="10" stroke-linecap="round" stroke-linejoin="round"/>
<path d="M138.437 149.337C137.31 159.53 154.533 186.549 167.415 183.969C175.755 182.295 181.28 175.646 184.866 168.466C185.187 167.829 188.944 159.315 188.161 160.878" stroke="#100E0E" stroke-width="3" stroke-miterlimit="10" stroke-linecap="round" stroke-linejoin="round"/>
<path d="M113.195 152.142C97.7947 163.707 77.0975 174.781 66.766 191.72C64.1661 195.979 62.4797 200.807 60.1811 205.242C58.8642 207.778 54.0338 213.156 56.8864 213.156" stroke="#100E0E" stroke-width="3" stroke-miterlimit="10" stroke-linecap="round" stroke-linejoin="round"/>
<path d="M210.017 134.716C205.288 136.298 215.421 150.248 217.262 152.2C229.946 165.654 249.861 186.56 249.861 205.957" stroke="#100E0E" stroke-width="3" stroke-miterlimit="10" stroke-linecap="round" stroke-linejoin="round"/>
<path d="M213.664 175.575C212.531 175.95 222.081 180.511 224.199 181.509C231.037 184.731 234.468 188.844 239.021 194.705C251.958 211.361 264.865 242.363 257.789 263.634" stroke="#100E0E" stroke-width="3" stroke-miterlimit="10" stroke-linecap="round" stroke-linejoin="round"/>
<path d="M137.869 158.551C135.342 173.762 150.164 182.436 162.24 186.257C166.57 187.625 176.785 188.778 179.361 183.619" stroke="#100E0E" stroke-width="3" stroke-miterlimit="10" stroke-linecap="round" stroke-linejoin="round"/>
<path d="M176.729 210.283C178.77 205.177 170.601 220.057 168.827 222.486C162.816 230.741 156.085 238.982 151.046 247.885C149.52 250.581 146.274 259.338 147.425 256.457C151.716 245.709 158.802 237.069 166.524 228.424" stroke="#100E0E" stroke-width="3" stroke-miterlimit="10" stroke-linecap="round" stroke-linejoin="round"/>
<path d="M296.25 118.221C296.25 114.834 293.436 124.267 292.955 125.474C290.924 130.561 288.173 134.494 289.004 140.315C289.588 144.404 291.493 149.388 290.977 153.511C290.399 158.174 284.548 164.692 285.71 169.34C286.924 174.198 295.803 169.769 297.237 172.641C299.273 176.715 297.178 180.005 302.174 182.862C304.283 184.07 319.095 180.253 318.638 182.531C317.866 186.416 305.799 187.555 305.799 189.132C305.799 191.658 323.046 181.908 319.299 178.905C315.198 175.624 301.246 181.66 298.553 176.267C297.465 174.086 303.413 176.754 305.799 177.255C307.86 177.693 318.075 178.048 318.638 180.886C319.61 185.739 306.033 192.52 303.491 189.132C303.02 188.499 303.666 184.843 304.482 184.843C306.567 184.843 303.219 189.239 304.152 191.108C305.031 192.875 306.198 191.843 307.116 192.758C308.832 194.481 306.708 200.6 309.75 203.642C318.813 212.725 348.598 188.148 354.862 181.874" stroke="#100E0E" stroke-width="3" stroke-miterlimit="10" stroke-linecap="round" stroke-linejoin="round"/>
<path d="M364.162 160.873C361.776 163.511 360.916 171.961 366.796 168.793C373.93 164.942 390.196 146.947 380.296 138.448C375.937 134.705 367.899 138.492 365.479 142.737C365.285 143.072 362.355 148.948 362.515 149.001C365.008 149.833 370.815 143.501 374.698 144.056C379.412 144.727 371.763 155.567 367.457 154.608C364.76 154.01 367.831 150.982 369.1 150.982C375.126 150.982 365.003 159.943 364.162 160.873Z" stroke="#100E0E" stroke-width="3" stroke-miterlimit="10" stroke-linecap="round" stroke-linejoin="round"/>
<path d="M298.416 142.302C305.098 144.531 313.481 140.735 320.479 144.94C320.741 145.101 321.276 145.32 321.135 145.602C320.79 146.289 319.59 145.729 318.832 145.602C313.758 144.755 306.396 136.768 300.72 141.314C292.959 147.535 306.493 151.706 309.938 152.855C311.688 153.439 313.452 153.921 315.211 154.505C315.969 154.758 318.312 155.167 317.515 155.167C310.191 155.167 292.04 154.174 312.247 154.174" stroke="#100E0E" stroke-width="3" stroke-miterlimit="10" stroke-linecap="round" stroke-linejoin="round"/>
<path d="M290.356 138.121C293.593 142.443 292.329 144.571 292.329 148.348" stroke="#100E0E" stroke-width="3" stroke-miterlimit="10" stroke-linecap="round" stroke-linejoin="round"/>
<path d="M299.368 169.645C294.946 169.645 296.646 168.487 300.685 169.645C301.686 169.933 303.649 171.675 303.649 170.634C303.649 167.84 297.847 164.32 299.037 160.738C299.645 158.917 300.967 164.067 302.002 165.688C302.911 167.1 303.708 168.579 304.636 169.976C307.78 174.698 314.89 178.266 319.127 182.505" stroke="#100E0E" stroke-width="3" stroke-miterlimit="10" stroke-linecap="round" stroke-linejoin="round"/>
<path d="M318.946 204.074C324.515 201.285 339.687 201.1 344.96 206.381C347.555 208.981 345.373 213.06 347.924 215.615C361.477 229.196 368.893 234.331 384.143 222.873C384.954 222.264 384.702 220.911 384.804 219.903C385.217 215.776 382.053 211.444 381.509 207.37C380.751 201.65 381.319 194.952 381.839 189.233C382.631 180.506 386.096 173.146 383.817 165.153C383.603 164.409 384.264 162.846 383.487 162.846C382.175 162.846 381.553 168.804 378.875 167.465C374.025 165.032 389.449 154.62 391.719 150.643C398.746 138.323 409.636 98.9498 401.599 87.3164C398.265 82.4975 389.527 74.3638 383.156 75.1134C379.439 75.5515 380.09 77.7566 378.875 80.3899C378.442 81.3342 377.48 84.0357 377.227 83.0281C376.518 80.1708 378.272 76.5396 376.902 73.7944C372.868 65.7191 360.608 70.4893 354.178 68.1869C350.64 66.9214 351.442 61.6693 347.263 60.2723C337.354 56.9624 333.117 66.975 325.531 69.5061C320.452 71.2049 314.465 68.9171 309.066 71.1561C303.886 73.3027 301.417 80.2341 297.214 82.04C294.91 83.0281 292.271 80.9545 289.968 83.0281C285.803 86.7858 279.636 119.948 285.691 120.961C291.878 121.993 298.885 111.722 306.107 111.722C311.622 111.722 315.957 119.681 319.276 119.311C323.397 118.853 328.714 113.966 332.115 118.649C335.493 123.297 331.357 130.214 336.397 133.821C341.995 137.827 344.508 130.988 349.241 132.171C351.909 132.843 349.251 141.151 351.875 142.729C355.014 144.612 361.439 134.921 365.375 134.483C369.005 134.079 367.377 138.231 369.987 139.097C373.379 140.231 379.278 137.223 382.17 139.759C388.337 145.162 381.582 153.364 383.156 158.889C384.099 162.194 388.293 160.67 390.071 161.858C391.004 162.476 389.231 164.048 389.411 165.153C390.198 169.875 391.549 174.703 392.705 179.337C397.546 198.72 407.853 220.093 407.853 240.352C407.853 248.296 402.23 245.804 396.987 250.579C396.195 251.299 393.707 258.664 392.705 258.162C392.219 257.919 391.267 243.214 391.058 242.002C389.129 230.729 382.17 216.837 382.17 205.724C382.17 203.213 384.454 210.232 385.134 212.646C385.878 215.323 387.146 219.538 387.768 222.211C389.231 228.495 395.145 247.653 390.728 253.548C390.212 254.239 385.494 251.596 384.143 251.898C380.445 252.72 376.776 269.002 377.888 272.346C378.229 273.373 378.632 270.297 379.205 269.377C380.547 267.231 381.854 265.045 383.487 263.113C386.364 259.696 392.696 255.188 392.705 255.193C393.119 255.612 391.894 257.262 391.719 257.505C387.268 263.633 377.145 274.031 377.888 282.242C379.346 298.285 386.981 312.323 394.022 326.435C396.355 331.107 400.68 334.13 403.241 337.98C403.552 338.448 403.178 340.025 403.572 339.63C404.84 338.36 399.115 308.619 398.304 304.998C395.966 294.601 393.327 282.529 396.326 272.015C398.017 266.096 406.866 258.707 406.866 252.555C406.866 244.416 406.813 235.845 407.192 227.492C407.853 212.996 407.211 199.173 402.585 185.276C401.351 181.572 398.595 178.554 396.326 175.38C395.038 173.569 395.019 167.12 394.022 169.111C389.571 178.033 412.883 184.137 417.402 184.945C424.755 186.259 436.403 184.205 442.429 189.233C452.061 197.274 445.797 204.4 461.197 210.008C471.179 213.644 492.644 217.265 495.769 229.799C496.075 231.026 482.006 234.097 479.965 235.738C476.009 238.906 472.433 252.852 471.402 257.831C469.925 264.996 466.82 284.092 471.077 290.483C471.271 290.78 472.068 287.338 474.036 290.157C482.191 301.824 488.853 319.523 486.219 334.023C485.408 338.501 471.048 339.1 468.768 340.288C452.319 348.884 462.844 358.195 462.844 342.595" stroke="#100E0E" stroke-width="3" stroke-miterlimit="10" stroke-linecap="round" stroke-linejoin="round"/>
<path d="M492.437 224.045C489.424 230.076 500.422 237.26 502.973 240.205C512.333 251.011 528 268.583 528 283.414" stroke="#100E0E" stroke-width="3" stroke-miterlimit="10" stroke-linecap="round" stroke-linejoin="round"/>
<path d="M302.043 185.845C302.043 184.876 287.941 197.016 285.234 200.813C283.144 203.743 284.578 214.325 284.301 217.649C282.362 240.941 275.665 261.759 278.076 285.308C278.377 288.248 278.212 302.861 280.875 304.642C282.041 305.416 281.463 297.978 281.497 297.467C282.099 289.266 282.755 285.191 283.99 276.892C286.395 260.683 288.665 244.951 288.971 228.562C289.078 222.702 287.134 214.12 288.971 208.605C289.16 208.031 289.651 209.613 289.904 210.163C290.434 211.317 292.936 217.971 293.014 218.272C293.797 221.144 294.36 224.075 294.885 227.005C295.4 229.896 295.842 232.807 296.129 235.732C296.513 239.675 296.518 243.657 297.062 247.58C298.355 256.892 299.57 266.378 301.11 275.641" stroke="#100E0E" stroke-width="3" stroke-miterlimit="10" stroke-linecap="round" stroke-linejoin="round"/>
<path d="M333.337 206.446C330.134 212.857 328.609 219.686 324.308 225.775C319.205 233.004 312.849 232.03 317.15 240.431C320.741 247.45 324.279 255.915 328.978 262.258C329.527 262.997 334.338 267.51 335.514 268.804C335.767 269.082 336.403 270.007 336.136 269.739C329.449 263.041 328.589 251.593 324.308 243.552C323.292 241.643 311.09 227.318 311.235 227.026C312.572 224.339 317.835 231.329 319.949 229.207C321.664 227.489 315.016 228.915 312.79 227.961C308.344 226.048 305.948 221.102 301.895 219.228C300.841 218.742 298.989 219.647 298.469 218.605C296.768 215.198 314.589 204.124 317.461 203.015" stroke="#100E0E" stroke-width="3" stroke-miterlimit="10" stroke-linecap="round" stroke-linejoin="round"/>
<path d="M152.887 112.78C154.311 112.069 166.037 111.349 167.141 112.454C167.695 113.013 165.649 112.974 164.871 113.106C161.795 113.617 158.607 113.554 155.477 114.079C154.603 114.225 152.26 114.094 152.887 114.727C154.472 116.314 165.138 114.727 167.141 114.727" stroke="#100E0E" stroke-width="3" stroke-miterlimit="10" stroke-linecap="round" stroke-linejoin="round"/>
<path d="M151.982 102.27C154.645 102.27 156.9 104.178 159.432 105.19C169.681 109.298 169.798 109.084 167.528 120.44" stroke="#100E0E" stroke-width="3" stroke-miterlimit="10" stroke-linecap="round" stroke-linejoin="round"/>
<path d="M183.887 114.678C176.54 111.403 188.781 113.705 191.988 113.705C193.101 113.705 197.251 112.084 196.522 112.084C191.663 112.084 189.422 117.146 183.887 114.678Z" stroke="#100E0E" stroke-width="3" stroke-miterlimit="10" stroke-linecap="round" stroke-linejoin="round"/>
<path d="M168.779 160.959C172.351 162.745 188.859 160.02 188.859 154.145C188.859 154.145 180.384 161.368 182.381 158.365" stroke="#100E0E" stroke-width="3" stroke-miterlimit="10" stroke-linecap="round" stroke-linejoin="round"/>
</svg>
