<svg viewBox="13 7 64 89" fill="none" xmlns="http://www.w3.org/2000/svg">
<rect width="50.8541" height="50.8541" rx="25.427" transform="matrix(0.866044 0.499967 -0.866044 0.499967 44.9443 51.5713)" fill="#A9C8C7"/>
<rect width="50.8541" height="50.8541" rx="25.427" transform="matrix(0.866044 0.499967 -0.866044 0.499967 44.9443 50.8793)" fill="#62A7A5"/>
<path fill-rule="evenodd" clip-rule="evenodd" d="M53.1336 69.6922L44.9443 64.9645L40.8497 67.3283L49.039 72.056L53.1336 69.6922ZM64.5985 76.3109L56.4093 71.5832L52.3147 73.9471L60.5039 78.6747L64.5985 76.3109ZM40.8497 80.5658L44.9443 82.9296L49.039 80.5658L53.1336 82.9296L49.039 85.2934L44.9443 87.6573L40.8497 85.2934L36.7551 82.9296L40.8497 80.5658ZM37.574 78.6747L33.4794 76.3109L37.574 73.9471L33.4794 71.5832L29.3848 73.9471L25.2901 76.3109L29.3848 78.6747L33.4794 81.0385L37.574 78.6747Z" fill="white"/>
<rect width="50.8541" height="50.8541" rx="25.427" transform="matrix(0.866044 0.499967 -0.866044 0.499967 44.9443 26.1721)" fill="#9A78D2"/>
<rect width="50.8541" height="50.8541" rx="25.427" transform="matrix(0.866044 0.499967 -0.866044 0.499967 44.9443 25.4802)" fill="#8247E5"/>
<path d="M55.4903 48.8006C54.96 48.4976 54.155 48.3731 53.3438 48.4686L47.5459 49.3947L43.6449 49.9514L37.9363 50.8914C37.2146 51.0008 36.4096 50.8763 35.7898 50.5594L32.566 48.6244C32.0356 48.3214 31.7798 47.8398 31.9952 47.376L33.1913 44.7988C33.3827 44.3864 33.9319 44.0294 34.767 43.8824L39.2109 43.1887C39.9326 43.0794 40.7376 43.2039 41.3574 43.5208L44.5812 45.4558C45.1115 45.7588 45.3673 46.2403 45.152 46.7042L44.3626 48.4051L48.2875 47.7969L49.1009 46.0444C49.2923 45.6321 49.1259 45.1644 48.53 44.796L42.4994 41.2667C41.9691 40.9637 41.1641 40.8392 40.3529 40.9347L31.8707 42.2743C31.0595 42.3698 30.5104 42.7268 30.319 43.1391L28.0702 47.9842C27.8788 48.3965 28.0452 48.8642 28.6411 49.2326L34.7611 52.7758C35.2915 53.0788 36.0964 53.2033 36.9076 53.1078L42.5922 52.2193L46.5172 51.6111L52.2018 50.7226C52.9235 50.6133 53.7285 50.7378 54.3483 51.0547L57.596 52.9381C58.1264 53.2412 58.3822 53.7227 58.1669 54.1866L56.9707 56.7637C56.7793 57.1761 56.2302 57.5331 55.395 57.6801L51.0406 58.3876C50.3188 58.497 49.5139 58.3725 48.8941 58.0556L45.6464 56.1721C45.116 55.8691 44.8602 55.3876 45.0755 54.9237L45.8411 53.2743L41.9161 53.8825L41.1266 55.5835C40.9353 55.9958 41.1016 56.4635 41.6975 56.8319L47.8175 60.375C48.3479 60.6781 49.1528 60.8026 49.964 60.7071L58.3329 59.4052C59.0546 59.2958 59.6932 58.9527 59.9085 58.4888L62.1812 53.5922C62.3726 53.1798 62.2063 52.7121 61.6104 52.3438L55.4903 48.8006Z" fill="white"/>
<rect width="50.8541" height="50.8541" rx="25.427" transform="matrix(0.866044 0.499967 -0.866044 0.499967 44.9443 0.77301)" fill="#A6A6A6"/>
<rect width="50.8541" height="50.8541" rx="25.427" transform="matrix(0.866044 0.499967 -0.866044 0.499967 44.9443 0.0811157)" fill="#7D7D7D"/>
<path opacity="0.45" d="M57.163 21.7003L40.7901 21.5226L40.6895 27.191L48.344 24.6397L57.163 21.7003Z" fill="white"/>
<path opacity="0.45" d="M33.3121 29.6499L39.303 27.6531L39.4014 21.9855L33.3121 29.6499Z" fill="white"/>
<path opacity="0.5" d="M40.7907 21.5226L40.6901 27.1909L48.3446 24.6396L40.7907 21.5226Z" fill="white"/>
<path opacity="0.8" d="M33.3163 29.6502L47.8566 30.4402L39.3054 27.654L33.3163 29.6502Z" fill="white"/>
<path opacity="0.75" d="M40.6918 27.1918L49.2426 29.9747L57.1602 21.7028L40.6918 27.1918Z" fill="white"/>
<path opacity="0.6" d="M40.6902 27.1909L49.2437 29.9747L48.3447 24.6396L40.6902 27.1909Z" fill="white"/>
</svg>
