<svg width="28" height="24" viewBox="0 0 28 24" fill="none" xmlns="http://www.w3.org/2000/svg">
<path fill-rule="evenodd" clip-rule="evenodd" d="M28 2.84117C26.9712 3.32308 25.8635 3.64897 24.7015 3.79458C25.8881 3.04572 26.7986 1.85829 27.2276 0.44377C26.1166 1.13716 24.8889 1.6416 23.5774 1.91203C22.5321 0.734995 21.0382 0 19.3849 0C16.2146 0 13.6425 2.71289 13.6425 6.05851C13.6425 6.53348 13.6918 6.99458 13.7905 7.43835C9.01614 7.18527 4.78418 4.77573 1.94917 1.10596C1.45448 2.0039 1.1718 3.04572 1.1718 4.15515C1.1718 6.25612 2.18583 8.11094 3.72742 9.19783C2.78735 9.16836 1.89986 8.89274 1.12414 8.44204V8.51658C1.12414 11.4531 3.10454 13.9025 5.73411 14.4572C5.25257 14.5993 4.74473 14.6704 4.22046 14.6704C3.85068 14.6704 3.48911 14.634 3.13905 14.5629C3.8704 16.969 5.99049 18.7216 8.50502 18.7684C6.53941 20.3944 4.06104 21.3634 1.37066 21.3634C0.907202 21.3634 0.44867 21.3356 0 21.2802C2.54247 22.9963 5.56319 24 8.80578 24C19.3734 24 25.1502 14.7692 25.1502 6.7623C25.1502 6.49881 25.1453 6.23532 25.1354 5.97703C26.2579 5.12243 27.2325 4.05634 28 2.84117Z" fill="#1DA1F2"/>
</svg>
