<svg width="481" height="48" viewBox="0 0 481 48" fill="none" xmlns="http://www.w3.org/2000/svg">
<path fill-rule="evenodd" clip-rule="evenodd" d="M117.939 44.3676C117.474 43.7445 116.977 42.8573 116.846 42.6547C116.452 42.0439 116.032 41.4423 115.663 40.8222C115.243 40.1182 114.879 39.3953 114.48 38.6841C113.145 36.3061 112.194 33.8832 110.93 31.5065C107.521 25.0934 104.522 14.2491 106.79 7.22459C108.32 2.48395 117.793 -1.64802 123.747 0.657755C127.417 2.0791 127.888 5.73552 127.888 8.59901C127.888 9.6172 127.888 10.6352 127.888 11.6534C127.888 11.8569 127.888 12.2644 127.888 12.2644C127.888 12.2644 127.888 10.422 127.888 9.5C127.888 8.0345 128.036 6.62687 128.722 5.3C130.39 2.06881 137.136 0.782162 140.902 2.03218C147.278 4.1488 148 9.09494 148 13.9441C148 23.227 142.94 34.4889 135.972 42.0439C132.414 45.9018 128.497 48 122.367 48C120.52 48 118.523 45.1499 117.939 44.3676Z" fill="#F19077"/>
<path d="M337.208 44.0062C332.645 39.9242 331.929 38.8386 329.279 32.9283C326.733 27.2477 324.675 20.7213 327.045 14.5362C330.375 5.84407 345.567 -2.36857 354.529 0.630005C359.376 2.25167 363.17 5.24153 367.042 8.48023C370.693 11.5344 372.522 15.85 373.522 20.3678C374.212 23.485 375.405 26.9723 374.863 30.2367C372.159 46.519 352.409 51.785 339.489 45.3005" fill="#F19077"/>
<path d="M290.068 41.8826C290.454 35.8201 290.068 34.1296 290.068 28.1C286.528 26.0412 281.744 24.0617 278.055 22.3454C276.62 21.6781 275.499 20.6924 274.086 20.0997C273.556 19.8784 275.638 16.7665 275.909 16.1698C276.423 15.0422 276.967 13.9635 277.411 12.8013C277.436 12.7356 277.908 11.3417 277.947 11.3417C278.137 11.3417 279.026 12.1156 279.234 12.2399C281.855 13.8079 284.184 15.2988 286.528 17.2927C287.083 17.7651 287.654 18.2286 288.244 18.6401C288.542 18.8478 288.85 19.5784 289.103 19.3138C289.118 19.2977 288.099 17.5293 288.03 17.4049C286.865 15.3141 286.138 12.5054 284.49 10.7803C284.334 10.6175 281.572 8.22101 281.916 7.86091C282.175 7.58982 283.004 7.44225 283.31 7.29949C284.645 6.67873 286.197 5.4741 287.601 5.05384C287.974 4.94236 289.908 9.12569 290.068 9.54515C290.787 11.4267 291.731 13.0524 292.642 14.8224C292.974 15.4681 293.348 16.1634 293.608 16.8435C293.756 17.2325 293.644 18.4532 293.822 18.0786C294.875 15.8755 294.733 13.074 295.646 10.7803C296.496 8.64288 297.779 6.89929 298.327 4.60471C298.434 4.15878 299.206 0.0315858 299.293 0.00110903C299.39 -0.0325758 301.02 0.711703 301.223 0.787093C302.675 1.33006 304.155 1.78641 305.621 2.24677C305.875 2.32617 306.804 2.21148 307.015 2.35905C307.34 2.58522 305.319 5.71069 305.192 5.95209C304.768 6.75893 304.431 7.61308 304.012 8.42232C302.88 10.6102 301.508 12.6466 300.365 14.8224C300.09 15.346 299.747 16.5395 299.29 17.3458C299.372 17.2774 299.448 17.2193 299.507 17.1804C300.191 16.7329 300.849 16.2621 301.545 15.833C303.775 14.4599 305.884 12.8743 308.088 11.454C308.467 11.2101 309.262 10.2188 309.697 10.2188C310.409 10.2188 311.09 13.447 311.199 13.8119C311.454 14.6668 311.739 15.5627 312.057 16.3944C312.26 16.9253 313.301 17.4507 312.915 17.8541C312.228 18.5727 309.67 19.1598 308.732 19.6506C305.2 21.4993 301.054 23.6856 297.898 26.163C297.429 26.5311 297.791 29.6622 297.791 30.2052C297.791 34.5473 298.252 38.883 297.791 43.23C297.632 44.7266 297.993 46.187 298.22 47.6098C298.238 47.7205 298.316 47.8961 298.22 47.9467C297.672 48.233 295.651 47.273 295.002 47.273C293.795 47.273 292.443 47.0941 291.248 47.273C291.003 47.3091 290.247 47.8159 290.068 47.7221C289.812 47.5882 290.038 42.3454 290.068 41.8826Z" fill="#D8F177"/>
<path d="M233.72 2.33583C233.138 1.27166 232.801 0.180294 231.78 0.0502188C230.22 -0.150273 228.478 0.263417 227.124 1.04387C222.976 3.43413 221.421 12.4485 221.11 16.7468C220.176 29.6644 225.182 40.8978 236.824 46.3649C238.92 47.3498 240.876 48.2085 243.226 47.9551C248.286 47.4094 251.389 41.6 253.508 37.6186C257.473 30.17 258.513 23.7875 259.91 15.5546C260.464 12.2959 262.348 7.53885 259.329 5.21803C256.734 3.22386 251.938 9.64841 250.986 11.181C246.991 17.6153 246.532 31.7055 236.63 30.8605C228.59 30.1739 232.321 14.8514 233.332 10.1873C233.725 8.37505 234.606 6.08845 234.302 4.22436C234.21 3.65809 234.302 3.4 233.72 2.33583Z" fill="#F2C65E"/>
<path fill-rule="evenodd" clip-rule="evenodd" d="M175.42 17.6483C176.583 17.116 175.42 16.2094 175.032 15.3489C173.288 12.1853 171.271 2.74504 180.569 2.03005C185.625 1.64126 189.507 5.06352 190.01 10.0955C190.229 12.2805 190.023 14.6505 189.667 16.7878C189.646 16.9141 189.623 17.1311 189.495 17.1311C189.27 17.1311 190.519 14.3998 190.525 14.3854C191.38 12.4623 192.842 11.1921 194.473 9.92382C198.199 7.02713 205.702 7.84536 207.519 12.8411C208.741 16.2001 207.626 21.6253 204.258 23.3088C202.193 24.3412 199.633 24.1667 197.391 24.1667C196.291 24.1667 194.13 24.6816 194.13 24.6816C194.13 24.6816 196.44 25.3031 197.563 25.7112C199.264 26.3295 201.556 26.7858 202.885 28.1136C205.866 31.0946 205.488 36.8086 202.885 39.7827C201.591 41.2603 195.486 44.0404 193.615 42.8714C191.305 41.4281 189.162 38.9457 187.95 36.5221C187.423 35.4674 186.577 33.2617 186.577 33.2617C186.577 33.2617 186.577 33.8338 186.577 34.1197C186.577 35.1744 186.438 36.3775 186.062 37.3802C185.295 39.4254 184.239 41.2286 182.801 42.8714C179.539 46.5978 172.521 47.2702 169.068 43.3863C167.192 41.2767 167.134 35.6254 168.553 33.2617C169.258 32.0871 170.341 31.098 171.471 30.3444C171.622 30.2442 171.986 30.173 171.986 30.173C171.986 30.173 170.373 30.3407 169.583 30.516C168.29 30.8033 166.615 30.8434 165.291 30.6877C162.089 30.3111 161 28.6064 161 25.5396C161 20.6819 165.386 18.4146 169.41 17.8399C171.522 17.5383 171.344 17.4567 173.288 17.4567" fill="#D8F177"/>
<path d="M0.0864794 28.4683C-0.0288274 29.3738 -0.0288215 30.5057 0.0864794 31.6376C0.56811 36.3656 3.14729 39.6837 8.49882 38.7296C17.264 37.1642 11.8426 22.1745 22.7499 24.3159C25.9662 24.9474 26.9524 38.4595 33.5462 36.6098C40.4556 34.6713 37.583 23.0334 44.1263 24.1039C51.6699 25.3381 50.2448 39.4439 60.3209 37.2459C67.0819 35.7711 63.1794 21.5071 72.6286 22.8323C80.2769 23.9047 74.5634 40 85.368 40C91.9156 40 93.3737 28.9445 92.9255 24.1039C91.9815 13.9127 79.2436 11.3427 70.6853 12.8703C67.1527 13.5007 63.1808 15.7466 61.4004 18.8051C61.0121 19.4721 58.6606 25.8216 57.9457 25.5876C57.7929 25.5377 57.7894 25.3104 57.7297 25.1636C56.3796 21.8504 56.6466 18.5878 54.4907 15.4136C49.8328 8.55524 41.8221 8.12365 36.3531 14.5659C34.7812 16.4175 33.7261 21.1718 32.8983 21.9844C32.2606 22.6103 31.3733 20.5452 31.104 19.7529C30.6809 18.5078 29.8713 17.2276 29.2276 15.8376C27.2796 11.6309 25.4769 9.92944 21.0225 9.05489C16.0033 8.06964 1.47983 20.6137 0.509623 25.3756C0.15032 27.1393 0.163703 27.3365 0.0864794 28.4683Z" fill="#BFB1F7"/>
<path d="M388.086 28.4683C387.971 29.3738 387.971 30.5057 388.086 31.6376C388.568 36.3656 391.147 39.6837 396.499 38.7296C405.264 37.1642 399.843 22.1745 410.75 24.3159C413.966 24.9474 414.952 38.4595 421.546 36.6098C428.456 34.6713 425.583 23.0334 432.126 24.1039C439.67 25.3381 438.245 39.4439 448.321 37.2459C455.082 35.7711 451.179 21.5071 460.629 22.8323C468.277 23.9047 462.563 40 473.368 40C479.916 40 481.374 28.9445 480.926 24.1039C479.982 13.9127 467.244 11.3427 458.685 12.8703C455.153 13.5007 451.181 15.7466 449.4 18.8051C449.012 19.4721 446.661 25.8216 445.946 25.5876C445.793 25.5377 445.789 25.3104 445.73 25.1636C444.38 21.8504 444.647 18.5878 442.491 15.4136C437.833 8.55524 429.822 8.12365 424.353 14.5659C422.781 16.4175 421.726 21.1718 420.898 21.9844C420.261 22.6103 419.373 20.5452 419.104 19.7529C418.681 18.5078 417.871 17.2276 417.228 15.8376C415.28 11.6309 413.477 9.92944 409.022 9.05489C404.003 8.06964 389.48 20.6137 388.51 25.3756C388.15 27.1393 388.164 27.3365 388.086 28.4683Z" fill="#BFB1F7"/>
</svg>
