<svg width="32" height="32" viewBox="0 0 32 32" fill="none" xmlns="http://www.w3.org/2000/svg">
<g clip-path="url(#clip0_1507_2688)">
<mask id="mask0_1507_2688" style="mask-type:alpha" maskUnits="userSpaceOnUse" x="0" y="0" width="32" height="33">
<path d="M0 0.00012207H32V32.0001H0V0.00012207Z" fill="white"/>
</mask>
<g mask="url(#mask0_1507_2688)">
<path fill-rule="evenodd" clip-rule="evenodd" d="M16 0.00012207C24.8367 0.00012207 32 7.16339 32 16.0001C32 24.8361 24.8367 32.0001 16 32.0001C7.16327 32.0001 0 24.8361 0 16.0001C0 7.16339 7.16327 0.00012207 16 0.00012207Z" fill="#2775CA"/>
</g>
<path fill-rule="evenodd" clip-rule="evenodd" d="M13.0007 27.1244C13.0007 27.5007 12.706 27.7145 12.342 27.6009C7.50434 26.0576 3.99689 21.5214 3.99689 16.1691C3.99689 10.8169 7.50434 6.28054 12.342 4.73727C12.706 4.62436 13.0007 4.83745 13.0007 5.21381V6.1429C13.0007 6.39345 12.8065 6.68836 12.5678 6.76999C8.74034 8.17545 5.99852 11.8524 5.99852 16.1627C5.99852 20.4731 8.74034 24.1507 12.5678 25.5554C12.8065 25.6434 13.0007 25.9318 13.0007 26.1833V27.1244Z" fill="white"/>
<path fill-rule="evenodd" clip-rule="evenodd" d="M16.9976 23.667C16.9976 23.9433 16.7717 24.1692 16.4957 24.1692H15.4979C15.2219 24.1692 14.9961 23.9433 14.9961 23.667V22.0861C12.8125 21.7913 11.7461 20.5675 11.4574 18.905C11.407 18.6223 11.6328 18.3652 11.9216 18.3652H13.0636C13.3019 18.3652 13.5028 18.5348 13.553 18.7728C13.7665 19.7643 14.3374 20.5235 16.0877 20.5235C17.3803 20.5235 18.2966 19.8019 18.2966 18.7232C18.2966 17.6435 17.7568 17.2359 15.8619 16.9219C13.0636 16.5455 11.7397 15.6983 11.7397 13.5023C11.7397 11.8083 13.0199 10.4908 15.0025 10.2083V8.65843C15.0025 8.38225 15.2285 8.15625 15.5043 8.15625H16.5021C16.7781 8.15625 17.0039 8.38225 17.0039 8.65843V10.2523C18.6165 10.5413 19.6392 11.4568 19.9719 12.9752C20.0345 13.2643 19.8086 13.5335 19.5139 13.5335H18.4596C18.2337 13.5335 18.0456 13.3828 17.9766 13.1633C17.6943 12.1975 17.0039 11.7835 15.8054 11.7835C14.4816 11.7835 13.7976 12.4233 13.7976 13.3204C13.7976 14.2679 14.1868 14.7444 16.2199 15.0399C18.9677 15.4163 20.3861 16.2004 20.3861 18.5413C20.3861 20.3168 19.0683 21.7537 17.0039 22.0861V23.667H16.9976Z" fill="white"/>
<path fill-rule="evenodd" clip-rule="evenodd" d="M19.6581 27.6009C19.2944 27.7146 18.9993 27.5007 18.9993 27.1244V26.196C18.9993 25.9198 19.1688 25.6627 19.4322 25.5682C23.2597 24.1627 26.0015 20.4858 26.0015 16.1755C26.0015 11.8651 23.2597 8.18819 19.4322 6.78273C19.1939 6.69473 18.9993 6.40637 18.9993 6.15491V5.22655C18.9993 4.85019 19.2944 4.63073 19.6581 4.74928C24.4957 6.29346 28.0031 10.8296 28.0031 16.1818C27.9971 21.5213 24.4957 26.0513 19.6581 27.6009Z" fill="white"/>
</g>
<defs>
<clipPath id="clip0_1507_2688">
<rect width="32" height="32" fill="white"/>
</clipPath>
</defs>
</svg>
