<svg width="32" height="32" viewBox="0 0 32 32" fill="none" xmlns="http://www.w3.org/2000/svg">
<g clip-path="url(#clip0_1507_2700)">
<path d="M31.9713 15.9944C31.9713 24.7872 24.8438 31.9148 16.051 31.9148C7.25843 31.9148 0.130554 24.7872 0.130554 15.9944C0.130554 7.2017 7.25843 0.0739746 16.051 0.0739746C24.8438 0.0739746 31.9713 7.2017 31.9713 15.9944Z" fill="#1BA27A"/>
<path d="M23.5229 8.10205H8.44788V11.7415H14.1657V17.0907H17.8051V11.7415H23.5229V8.10205Z" fill="white"/>
<path d="M16.0199 17.6604C11.2899 17.6604 7.45519 16.9118 7.45519 15.9883C7.45519 15.0649 11.2898 14.3162 16.0199 14.3162C20.7498 14.3162 24.5844 15.0649 24.5844 15.9883C24.5844 16.9118 20.7498 17.6604 16.0199 17.6604ZM25.6366 16.2671C25.6366 15.0762 21.3311 14.111 16.0199 14.111C10.7088 14.111 6.40302 15.0762 6.40302 16.2671C6.40302 17.3157 9.74168 18.1894 14.1658 18.383V26.0621H17.8049V18.3861C22.2631 18.1985 25.6366 17.3212 25.6366 16.2671Z" fill="white"/>
</g>
<defs>
<clipPath id="clip0_1507_2700">
<rect width="32" height="32" fill="white"/>
</clipPath>
</defs>
</svg>
