<svg width="24" height="24" viewBox="0 0 24 24" fill="none" xmlns="http://www.w3.org/2000/svg">
<g clip-path="url(#clip0_1507_2220)">
<path d="M12 0C18.628 0 24 5.37305 24 12C24 18.628 18.628 24 12 24C5.37305 24 0 18.6275 0 12C0 5.37305 5.37305 0 12 0Z" fill="#F5AC37"/>
<path d="M12.4422 12.8474H17.002C17.0992 12.8474 17.1451 12.8474 17.1521 12.7199C17.1894 12.2561 17.1894 11.7895 17.1521 11.3251C17.1521 11.2349 17.1073 11.1977 17.0096 11.1977H7.93477C7.82245 11.1977 7.79221 11.2349 7.79221 11.3402V12.6751C7.79221 12.8474 7.79221 12.8474 7.97203 12.8474H12.4422ZM16.6429 9.63758C16.6559 9.60356 16.6559 9.56629 16.6429 9.53281C16.5668 9.36703 16.4766 9.20881 16.3718 9.06031C16.2141 8.80651 16.0284 8.57268 15.8167 8.36262C15.7168 8.23572 15.6012 8.12178 15.4716 8.02512C14.8225 7.47269 14.0509 7.08173 13.2214 6.88517C12.8029 6.79121 12.3752 6.74639 11.9465 6.75017H7.91911C7.80679 6.75017 7.79167 6.79499 7.79167 6.89273V9.55496C7.79167 9.66728 7.79167 9.69752 7.93423 9.69752H16.5889C16.5889 9.69752 16.664 9.6824 16.6791 9.63758H16.6424H16.6429ZM16.6429 14.4074C16.5155 14.3934 16.3869 14.3934 16.2595 14.4074H7.94233C7.83001 14.4074 7.79221 14.4074 7.79221 14.5576V17.1604C7.79221 17.2803 7.79221 17.3105 7.94233 17.3105H11.7823C11.9659 17.3246 12.1495 17.3116 12.3293 17.2733C12.8866 17.2333 13.4347 17.1123 13.9575 16.9131C14.1475 16.8472 14.3311 16.7613 14.5045 16.6582H14.5569C15.457 16.19 16.1882 15.4545 16.6494 14.5516C16.6494 14.5516 16.7018 14.4382 16.6429 14.4085V14.4074ZM6.28506 18.66V18.6152V16.8677V16.2753V14.5127C6.28506 14.415 6.28506 14.4004 6.16517 14.4004H4.5376C4.44742 14.4004 4.41016 14.4004 4.41016 14.2805V12.8555H6.15005C6.24725 12.8555 6.28506 12.8555 6.28506 12.728V11.3181C6.28506 11.2279 6.28506 11.2058 6.16517 11.2058H4.5376C4.44742 11.2058 4.41016 11.2058 4.41016 11.0859V9.7661C4.41016 9.68348 4.41016 9.66134 4.53004 9.66134H6.14249C6.25481 9.66134 6.28506 9.66134 6.28506 9.51877V5.47629C6.28506 5.35641 6.28506 5.32617 6.43518 5.32617H12.0599C12.4681 5.34237 12.8737 5.38719 13.2749 5.46117C14.1016 5.61399 14.896 5.90938 15.6223 6.33112C16.104 6.61462 16.5473 6.95699 16.9421 7.35119C17.2391 7.65954 17.5069 7.99326 17.7445 8.34858C17.9805 8.70877 18.1765 9.09379 18.3304 9.49609C18.3493 9.60086 18.4498 9.6716 18.5545 9.65378H19.897C20.0692 9.65378 20.0692 9.65378 20.0768 9.81902V11.0491C20.0768 11.169 20.032 11.1993 19.9116 11.1993H18.8764C18.7716 11.1993 18.7414 11.1993 18.7489 11.3343C18.79 11.7911 18.79 12.2496 18.7489 12.7064C18.7489 12.8339 18.7489 12.849 18.892 12.849H20.0763C20.1286 12.9165 20.0763 12.984 20.0763 13.052C20.0838 13.139 20.0838 13.227 20.0763 13.3139V14.2217C20.0763 14.3491 20.039 14.3869 19.9261 14.3869H18.5086C18.4098 14.368 18.3137 14.4312 18.291 14.5295C17.9535 15.407 17.4135 16.1938 16.7158 16.8245C16.4609 17.054 16.1931 17.27 15.9134 17.4693C15.6131 17.6421 15.321 17.8219 15.0132 17.9645C14.4467 18.2193 13.8527 18.4073 13.243 18.5266C12.6641 18.6303 12.0772 18.6773 11.488 18.6692H6.2829V18.6616L6.28506 18.66Z" fill="#FEFEFD"/>
</g>
<defs>
<clipPath id="clip0_1507_2220">
<rect width="24" height="24" fill="white"/>
</clipPath>
</defs>
</svg>
