<?xml version="1.0" encoding="utf-8"?>
<svg version="1.0" xmlns="http://www.w3.org/2000/svg" xmlns:xlink="http://www.w3.org/1999/xlink" viewBox="0 200 1122 400" xml:space="preserve">
<style type="text/css">
	.st0{fill:#F3BA2F;}
</style>
<g>
	<path id="Shape" class="st0" d="M385.4,324.6H422c9.3,0,16.1,2.5,20.5,6.8c4.3,3.7,6.2,8.7,6.2,13.6l0,0c0,1.9,0,4.3-0.6,6.2
		c-1.2,3.1-3.1,6.2-5.6,8.7c-1.2,1.2-2.5,1.9-3.7,2.5c4.3,1.2,8.1,3.7,11.2,6.8c2.5,3.1,3.7,6.8,3.7,12.4l0,0c0,3.1-0.6,6.8-1.9,9.3
		c-1.2,2.5-3.7,5-6.2,6.8c-3.1,1.9-6.2,3.1-9.3,4.3c-3.7,1.2-8.1,1.2-12.4,1.2H386v-78.8H385.4z M418.9,356.8c3.1,0,6.2-0.6,9.3-1.9
		c2.5-1.2,3.7-3.7,3.7-6.2l0,0c0-2.5-1.2-5-3.1-6.2c-2.5-1.9-5.6-2.5-8.7-1.9h-17.4v16.7h16.1V356.8z M423.2,388.5
		c3.1,0,6.2-0.6,9.3-1.9c2.5-1.2,3.7-3.7,3.1-6.8l0,0c0-2.5-1.2-5-3.1-6.2c-1.9-1.2-5.6-2.5-9.9-2.5h-20.5v17.4H423.2z"/>
	<polygon id="Path" class="st0" points="475.3,324.6 492.7,324.6 492.7,404 475.3,404 	"/>
	<polygon id="Path_1_" class="st0" points="519.4,324.6 535.5,324.6 572.7,373.6 572.7,324.6 590,324.6 590,404 575.2,404
		536.1,353.7 536.1,404 519.4,404 	"/>
	<path id="Shape_1_" class="st0" d="M642.8,324h16.1l34.1,80h-18l-7.4-18h-33.5l-7.4,18h-18L642.8,324z M661.4,371.1l-10.5-26
		l-10.5,26H661.4z"/>
	<polygon id="Path_2_" class="st0" points="711.6,324.6 727.7,324.6 764.9,373.6 764.9,324.6 782.3,324.6 782.3,404 767.4,404
		728.9,353.7 728.9,404 711.6,404 	"/>
	<path id="Path_3_" class="st0" d="M845.5,405.2c-5.6,0-11.2-1.2-16.1-3.1c-9.9-4.3-17.4-11.8-21.7-21.7c-1.9-5-3.1-10.5-3.1-16.1
		l0,0c0-10.5,4.3-21.1,11.8-29.1c3.7-3.7,8.1-6.8,13-8.7c5.6-2.5,11.2-3.1,16.7-3.1c3.1,0,6.8,0,9.9,0.6c3.1,0.6,5.6,1.2,8.1,2.5
		c2.5,1.2,5,2.5,6.8,3.7c1.9,1.2,4.3,3.1,6.2,5l-10.5,13c-3.1-2.5-6.2-5-9.3-6.8s-6.8-2.5-10.5-2.5c-3.1,0-6.2,0.6-9.3,1.9
		c-3.1,1.2-5.6,3.1-7.4,5.6s-3.7,5-5,8.1c-1.2,3.1-1.9,6.2-1.9,9.3l0,0c0,3.1,0.6,6.8,1.9,9.9s2.5,5.6,5,8.1
		c4.3,5,10.5,7.4,16.7,7.4c3.7,0,8.1-0.6,11.8-2.5c3.1-1.9,6.8-4.3,9.3-6.8L879,391c-1.9,1.9-4.3,4.3-6.2,6.2
		c-2.5,1.9-5,3.1-7.4,4.3c-2.5,1.2-5.6,2.5-8.7,3.1C852.3,405.2,848.6,405.2,845.5,405.2L845.5,405.2z"/>
	<polygon id="Path_4_" class="st0" points="898.9,324.6 958.4,324.6 958.4,340.1 915.6,340.1 915.6,356.2 953.4,356.2 953.4,371.7
		915.6,371.7 915.6,388.5 959,388.5 959,404 898.9,404 	"/>
	<path id="Path_5_" class="st0" d="M407.7,482.1c-4.3,0-8.7-0.6-12.4-2.5c-3.7-1.2-7.4-3.7-11.2-6.8l6.2-6.8c2.5,2.5,5,3.7,8.1,5.6
		c3.1,1.2,6.2,1.9,9.3,1.9c2.5,0,5-0.6,7.4-1.9c1.9-1.2,2.5-3.1,2.5-5l0,0c0-0.6,0-1.9-0.6-2.5c-0.6-0.6-1.2-1.9-1.9-2.5
		c-1.2-0.6-2.5-1.2-3.7-1.9c-1.9-0.6-4.3-1.2-6.2-1.9c-2.5-0.6-5.6-1.2-8.1-2.5c-1.9-0.6-4.3-1.9-5.6-3.1c-1.2-1.2-2.5-2.5-3.7-4.3
		c-1.2-2.5-1.2-5-1.2-6.8l0,0c0-2.5,0.6-4.3,1.2-6.8c0.6-1.9,2.5-3.7,3.7-5c1.9-1.2,3.7-2.5,6.2-3.1c2.5-0.6,5-1.2,7.4-1.2
		c3.7,0,7.4,0.6,11.2,1.9c3.1,1.2,6.2,3.1,9.3,5l-5,7.4c-2.5-1.9-5-3.1-7.4-4.3c-2.5-1.2-5-1.2-7.4-1.2c-2.5,0-5,0.6-6.8,1.9
		c-1.2,1.2-2.5,3.1-2.5,5l0,0c0,1.2,0,1.9,0.6,3.1c0.6,0.6,1.2,1.9,1.9,2.5c1.2,0.6,2.5,1.2,4.3,1.9c1.9,0.6,3.7,1.2,6.8,1.9
		c2.5,0.6,5,1.2,8.1,2.5c1.9,0.6,3.7,1.9,5.6,3.1c1.2,1.2,2.5,3.1,3.1,4.3c0.6,1.9,1.2,3.7,1.2,6.2l0,0c0,2.5-0.6,5-1.2,6.8
		c-1.2,1.9-2.5,3.7-4.3,5.6c-1.9,1.2-3.7,2.5-6.2,3.1C413.3,481.5,410.2,482.1,407.7,482.1z"/>
	<polygon id="Path_6_" class="st0" points="438.7,425.7 449.3,425.7 466,451.7 483.4,425.7 493.9,425.7 493.9,481.5 484,481.5
		484,441.2 466.6,467.2 466,467.2 448.7,441.2 448.7,481.5 438.7,481.5 	"/>
	<path id="Shape_2_" class="st0" d="M527.4,425.1h9.3l24.2,55.8h-10.5l-5.6-13.6h-26l-5.6,13.6h-9.9L527.4,425.1z M541.7,459.2
		l-9.9-22.3l-9.3,22.3H541.7z"/>
	<path id="Shape_3_" class="st0" d="M570.8,425.7h24.8c3.1,0,6.2,0.6,9.3,1.2c2.5,0.6,5,2.5,6.8,4.3c1.2,1.2,2.5,3.1,3.7,5.6
		c0.6,1.9,1.2,4.3,1.2,6.8l0,0c0,1.9-0.6,4.3-1.2,6.2c-0.6,1.9-1.9,3.1-2.5,5c-1.2,1.2-2.5,2.5-4.3,3.7c-1.9,1.2-3.7,1.9-5.6,2.5
		l14.9,21.1h-11.8l-13.6-19.2h-12.4v19.2h-9.9L570.8,425.7z M595,453c3.1,0,6.2-0.6,8.1-2.5c1.9-1.9,3.1-4.3,3.1-6.8l0,0
		c0-2.5-1.2-5-3.1-6.8c-2.5-1.9-5.6-2.5-8.7-2.5h-14.3V453H595z"/>
	<polygon id="Path_7_" class="st0" points="642.1,434.4 624.1,434.4 624.1,425.7 669.4,425.7 669.4,434.4 651.4,434.4 651.4,481.5
		641.5,481.5 	"/>
	<path id="Path_8_" class="st0" d="M729.6,482.1c-3.7,0-7.4-0.6-11.2-2.5c-6.8-3.1-12.4-8.1-14.9-14.9c-1.2-3.7-2.5-7.4-1.9-11.2
		l0,0c0-3.7,0.6-7.4,1.9-11.2c2.5-6.8,8.1-12.4,14.9-15.5c3.7-1.2,7.4-2.5,11.8-2.5c2.5,0,5,0,6.8,0.6c1.9,0.6,3.7,1.2,5.6,1.9
		c1.9,0.6,3.1,1.9,5,2.5c1.2,1.2,3.1,2.5,4.3,3.7l-6.2,7.4c-1.9-1.9-4.3-3.7-6.8-5c-2.5-1.2-5.6-1.9-8.7-1.9c-2.5,0-5,0.6-7.4,1.2
		c-2.5,1.2-4.3,2.5-6.2,4.3c-1.9,1.9-3.1,3.7-3.7,6.2s-1.2,5-1.2,7.4l0,0c0,2.5,0.6,5,1.2,7.4s1.9,4.3,3.7,6.2
		c1.9,1.9,3.7,3.1,6.2,4.3c2.5,1.2,5,1.9,7.4,1.2c3.1,0,6.2-0.6,8.7-1.9c2.5-1.2,5-3.1,7.4-5.6l6.2,6.2c-1.2,1.2-3.1,3.1-4.3,4.3
		c-1.9,1.2-3.1,2.5-5,3.1c-1.9,0.6-3.7,1.9-6.2,1.9C734.5,482.1,732,482.1,729.6,482.1L729.6,482.1z"/>
	<polygon id="Path_9_" class="st0" points="762.4,425.7 771.7,425.7 771.7,448.6 798.4,448.6 798.4,425.7 808.3,425.7 808.3,481.5
		798.4,481.5 798.4,457.9 771.7,457.9 771.7,481.5 762.4,481.5 	"/>
	<path id="Shape_4_" class="st0" d="M842.4,425.1h9.3l24.2,55.8h-10.5l-5.6-13.6h-26l-5.6,13.6h-9.9L842.4,425.1z M856.1,459.2
		l-9.3-22.3l-9.3,22.3H856.1z"/>
	<polygon id="Path_10_" class="st0" points="885.8,425.7 895.8,425.7 895.8,481.5 885.8,481.5 	"/>
	<polygon id="Path_11_" class="st0" points="910.6,425.7 919.3,425.7 949.1,464.1 949.1,425.7 959,425.7 959,481.5 950.9,481.5
		920.6,441.8 920.6,481.5 910.6,481.5 	"/>
	<path id="binancedex" class="st0" d="M276.3,477.8V502l-21.1,12.4L234.7,502v-24.2l20.5,12.4L276.3,477.8z M163.4,394.1l20.5,12.4
		V448l35.3,21.1v24.2l-55.8-32.9V394.1z M347,394.1v66.4l-56.4,32.9v-24.2l35.3-21.1v-41.5L347,394.1z M290.5,361.2l21.1,12.4l0,0
		v24.2l-35.3,21.1V461l-20.5,12.4L235.4,461v-42.2l-36.6-21.1v-24.2l21.1-12.4l35.3,21.1L290.5,361.2z M198.8,415.1l20.5,12.4v24.2
		l-20.5-12.4V415.1z M311.6,415.1v24.2l-20.5,12.4v-24.2L311.6,415.1z M183.9,340.1l21.1,12.4l-21.1,12.4v24.2l-20.5-12.4v-24.2
		L183.9,340.1z M326.5,340.1l21.1,12.4v24.2l-21.1,12.4v-24.2L306,352.5L326.5,340.1z M255.2,340.1l21.1,12.4l-21.1,12.4l-20.5-12.4
		L255.2,340.1z M255.2,298.6l56.4,32.9l-20.5,12.4l-35.3-21.1l-36,21.1l-20.5-12.4L255.2,298.6z"/>
</g>
</svg>
